<?xml version="1.0" encoding="UTF-8"?><svg xmlns="http://www.w3.org/2000/svg" xmlns:xlink="http://www.w3.org/1999/xlink" fill-opacity="1" color-rendering="auto" color-interpolation="auto" text-rendering="auto" stroke="black" stroke-linecap="square" width="998" stroke-miterlimit="10" shape-rendering="auto" stroke-opacity="1" fill="black" stroke-dasharray="none" font-weight="normal" stroke-width="1" height="1438" font-family="'Dialog'" font-style="normal" stroke-linejoin="miter" font-size="12px" stroke-dashoffset="0" image-rendering="auto">
  <!--Generated by ySVG 2.5-->
  <defs id="genericDefs"/>
  <g>
    <defs id="defs1">
      <linearGradient x1="654.4194" gradientUnits="userSpaceOnUse" x2="796.1794" y1="2267.5913" y2="2347.5913" id="linearGradient1" spreadMethod="reflect">
        <stop stop-opacity="1" stop-color="rgb(183,201,227)" offset="0%"/>
        <stop stop-opacity="1" stop-color="rgb(183,201,227)" offset="100%"/>
      </linearGradient>
      <linearGradient x1="654.4194" gradientUnits="userSpaceOnUse" x2="796.1794" y1="2539.4287" y2="2619.4287" id="linearGradient2" spreadMethod="reflect">
        <stop stop-opacity="1" stop-color="rgb(183,201,227)" offset="0%"/>
        <stop stop-opacity="1" stop-color="rgb(183,201,227)" offset="100%"/>
      </linearGradient>
      <linearGradient x1="654.4194" gradientUnits="userSpaceOnUse" x2="796.1794" y1="2901.3596" y2="2981.3596" id="linearGradient3" spreadMethod="reflect">
        <stop stop-opacity="1" stop-color="rgb(183,201,227)" offset="0%"/>
        <stop stop-opacity="1" stop-color="rgb(183,201,227)" offset="100%"/>
      </linearGradient>
      <linearGradient x1="360.0046" gradientUnits="userSpaceOnUse" x2="501.7646" y1="2152.4194" y2="2232.4194" id="linearGradient4" spreadMethod="reflect">
        <stop stop-opacity="1" stop-color="rgb(183,201,227)" offset="0%"/>
        <stop stop-opacity="1" stop-color="rgb(183,201,227)" offset="100%"/>
      </linearGradient>
      <linearGradient x1="1068.2653" gradientUnits="userSpaceOnUse" x2="1210.0253" y1="1900.1877" y2="1980.1877" id="linearGradient5" spreadMethod="reflect">
        <stop stop-opacity="1" stop-color="rgb(183,201,227)" offset="0%"/>
        <stop stop-opacity="1" stop-color="rgb(183,201,227)" offset="100%"/>
      </linearGradient>
      <linearGradient x1="654.4194" gradientUnits="userSpaceOnUse" x2="796.1794" y1="1900.1877" y2="1980.1877" id="linearGradient6" spreadMethod="reflect">
        <stop stop-opacity="1" stop-color="rgb(183,201,227)" offset="0%"/>
        <stop stop-opacity="1" stop-color="rgb(183,201,227)" offset="100%"/>
      </linearGradient>
      <linearGradient x1="793.1935" gradientUnits="userSpaceOnUse" x2="873.1935" y1="3021.333" y2="3061.333" id="linearGradient7" spreadMethod="reflect">
        <stop stop-opacity="1" stop-color="rgb(232,238,247)" offset="0%"/>
        <stop stop-opacity="1" stop-color="rgb(183,201,227)" offset="100%"/>
      </linearGradient>
      <linearGradient x1="770.3935" gradientUnits="userSpaceOnUse" x2="895.9935" y1="3101.3062" y2="3149.6262" id="linearGradient8" spreadMethod="reflect">
        <stop stop-opacity="1" stop-color="yellow" offset="0%"/>
        <stop stop-opacity="1" stop-color="yellow" offset="100%"/>
      </linearGradient>
      <linearGradient x1="1224.6134" gradientUnits="userSpaceOnUse" x2="1304.6134" y1="2010.1877" y2="2050.1877" id="linearGradient9" spreadMethod="reflect">
        <stop stop-opacity="1" stop-color="rgb(232,238,247)" offset="0%"/>
        <stop stop-opacity="1" stop-color="rgb(183,201,227)" offset="100%"/>
      </linearGradient>
      <linearGradient x1="1201.8134" gradientUnits="userSpaceOnUse" x2="1327.4133" y1="2100.1343" y2="2148.4543" id="linearGradient10" spreadMethod="reflect">
        <stop stop-opacity="1" stop-color="yellow" offset="0%"/>
        <stop stop-opacity="1" stop-color="yellow" offset="100%"/>
      </linearGradient>
      <linearGradient x1="685.2994" gradientUnits="userSpaceOnUse" x2="765.2994" y1="2060.1877" y2="2100.1877" id="linearGradient11" spreadMethod="reflect">
        <stop stop-opacity="1" stop-color="rgb(232,238,247)" offset="0%"/>
        <stop stop-opacity="1" stop-color="rgb(183,201,227)" offset="100%"/>
      </linearGradient>
      <linearGradient x1="662.4995" gradientUnits="userSpaceOnUse" x2="788.0994" y1="2152.4194" y2="2200.7393" id="linearGradient12" spreadMethod="reflect">
        <stop stop-opacity="1" stop-color="lime" offset="0%"/>
        <stop stop-opacity="1" stop-color="lime" offset="100%"/>
      </linearGradient>
      <linearGradient x1="685.2994" gradientUnits="userSpaceOnUse" x2="765.2994" y1="1742.9663" y2="1782.9663" id="linearGradient13" spreadMethod="reflect">
        <stop stop-opacity="1" stop-color="rgb(232,238,247)" offset="0%"/>
        <stop stop-opacity="1" stop-color="rgb(183,201,227)" offset="100%"/>
      </linearGradient>
      <linearGradient x1="668.4995" gradientUnits="userSpaceOnUse" x2="782.0994" y1="2452.6287" y2="2509.4287" id="linearGradient14" spreadMethod="reflect">
        <stop stop-opacity="1" stop-color="rgb(232,238,247)" offset="0%"/>
        <stop stop-opacity="1" stop-color="rgb(183,201,227)" offset="100%"/>
      </linearGradient>
      <linearGradient x1="374.0846" gradientUnits="userSpaceOnUse" x2="487.6846" y1="2279.1912" y2="2335.9912" id="linearGradient15" spreadMethod="reflect">
        <stop stop-opacity="1" stop-color="rgb(232,238,247)" offset="0%"/>
        <stop stop-opacity="1" stop-color="rgb(183,201,227)" offset="100%"/>
      </linearGradient>
      <linearGradient x1="668.4995" gradientUnits="userSpaceOnUse" x2="782.0994" y1="2677.5779" y2="2734.3779" id="linearGradient16" spreadMethod="reflect">
        <stop stop-opacity="1" stop-color="rgb(232,238,247)" offset="0%"/>
        <stop stop-opacity="1" stop-color="rgb(183,201,227)" offset="100%"/>
      </linearGradient>
      <linearGradient x1="374.0846" gradientUnits="userSpaceOnUse" x2="487.6846" y1="2024.2004" y2="2081.0005" id="linearGradient17" spreadMethod="reflect">
        <stop stop-opacity="1" stop-color="rgb(232,238,247)" offset="0%"/>
        <stop stop-opacity="1" stop-color="rgb(183,201,227)" offset="100%"/>
      </linearGradient>
      <linearGradient x1="574.4194" gradientUnits="userSpaceOnUse" x2="654.4194" y1="1990.1877" y2="2030.1877" id="linearGradient18" spreadMethod="reflect">
        <stop stop-opacity="1" stop-color="rgb(232,238,247)" offset="0%"/>
        <stop stop-opacity="1" stop-color="rgb(183,201,227)" offset="100%"/>
      </linearGradient>
      <linearGradient x1="605.153" gradientUnits="userSpaceOnUse" x2="685.153" y1="2390.3779" y2="2430.3779" id="linearGradient19" spreadMethod="reflect">
        <stop stop-opacity="1" stop-color="rgb(232,238,247)" offset="0%"/>
        <stop stop-opacity="1" stop-color="rgb(183,201,227)" offset="100%"/>
      </linearGradient>
      <linearGradient x1="587.236" gradientUnits="userSpaceOnUse" x2="667.236" y1="2998.063" y2="3038.063" id="linearGradient20" spreadMethod="reflect">
        <stop stop-opacity="1" stop-color="rgb(232,238,247)" offset="0%"/>
        <stop stop-opacity="1" stop-color="rgb(183,201,227)" offset="100%"/>
      </linearGradient>
      <linearGradient x1="1018.3447" gradientUnits="userSpaceOnUse" x2="1098.3447" y1="2010.1877" y2="2050.1877" id="linearGradient21" spreadMethod="reflect">
        <stop stop-opacity="1" stop-color="rgb(232,238,247)" offset="0%"/>
        <stop stop-opacity="1" stop-color="rgb(183,201,227)" offset="100%"/>
      </linearGradient>
      <linearGradient x1="900.813" gradientUnits="userSpaceOnUse" x2="1014.413" y1="2279.1912" y2="2335.9912" id="linearGradient22" spreadMethod="reflect">
        <stop stop-opacity="1" stop-color="rgb(232,238,247)" offset="0%"/>
        <stop stop-opacity="1" stop-color="rgb(183,201,227)" offset="100%"/>
      </linearGradient>
      <linearGradient x1="875.4224" gradientUnits="userSpaceOnUse" x2="989.0223" y1="1911.7877" y2="1968.5878" id="linearGradient23" spreadMethod="reflect">
        <stop stop-opacity="1" stop-color="rgb(232,238,247)" offset="0%"/>
        <stop stop-opacity="1" stop-color="rgb(183,201,227)" offset="100%"/>
      </linearGradient>
      <linearGradient x1="368.0846" gradientUnits="userSpaceOnUse" x2="493.6846" y1="1916.0277" y2="1964.3477" id="linearGradient24" spreadMethod="reflect">
        <stop stop-opacity="1" stop-color="rgb(255,153,0)" offset="0%"/>
        <stop stop-opacity="1" stop-color="rgb(255,153,0)" offset="100%"/>
      </linearGradient>
      <linearGradient x1="662.4995" gradientUnits="userSpaceOnUse" x2="788.0994" y1="2792.5271" y2="2840.8469" id="linearGradient25" spreadMethod="reflect">
        <stop stop-opacity="1" stop-color="rgb(153,204,0)" offset="0%"/>
        <stop stop-opacity="1" stop-color="rgb(153,204,0)" offset="100%"/>
      </linearGradient>
      <clipPath clipPathUnits="userSpaceOnUse" id="clipPath1">
        <path d="M0 0 L998 0 L998 1438 L0 1438 L0 0 Z"/>
      </clipPath>
      <clipPath clipPathUnits="userSpaceOnUse" id="clipPath2">
        <path d="M345 1727 L1343 1727 L1343 3165 L345 3165 L345 1727 Z"/>
      </clipPath>
    </defs>
    <g fill="white" text-rendering="geometricPrecision" shape-rendering="geometricPrecision" transform="translate(-345,-1727)" stroke="white">
      <rect x="345" width="998" height="1438" y="1727" clip-path="url(#clipPath2)" stroke="none"/>
    </g>
    <g fill="url(#linearGradient1)" text-rendering="geometricPrecision" shape-rendering="geometricPrecision" transform="matrix(1,0,0,1,-345,-1727)" stroke="url(#linearGradient1)">
      <path d="M654.4194 2267.5913 L796.1794 2267.5913 L796.1794 2347.5913 L654.4194 2347.5913 Z" stroke="none" clip-path="url(#clipPath2)"/>
    </g>
    <g text-rendering="geometricPrecision" stroke-miterlimit="1.45" shape-rendering="geometricPrecision" transform="matrix(1,0,0,1,-345,-1727)" stroke-linecap="butt">
      <path fill="none" d="M654.4194 2267.5913 L796.1794 2267.5913 L796.1794 2347.5913 L654.4194 2347.5913 Z" clip-path="url(#clipPath2)"/>
      <text x="666.9137" xml:space="preserve" y="2297.7769" clip-path="url(#clipPath2)" font-family="sans-serif" stroke="none">"dif(A,B) uncertain"</text>
      <text x="720.6207" xml:space="preserve" y="2311.7456" clip-path="url(#clipPath2)" font-family="sans-serif" stroke="none">&amp;</text>
      <text x="686.0211" xml:space="preserve" y="2325.7144" clip-path="url(#clipPath2)" font-family="sans-serif" stroke="none">dif(A,B) open</text>
    </g>
    <g fill="url(#linearGradient2)" text-rendering="geometricPrecision" shape-rendering="geometricPrecision" transform="matrix(1,0,0,1,-345,-1727)" stroke="url(#linearGradient2)">
      <path d="M654.4194 2539.4287 L796.1794 2539.4287 L796.1794 2619.4287 L654.4194 2619.4287 Z" stroke="none" clip-path="url(#clipPath2)"/>
    </g>
    <g text-rendering="geometricPrecision" stroke-miterlimit="1.45" shape-rendering="geometricPrecision" transform="matrix(1,0,0,1,-345,-1727)" stroke-linecap="butt">
      <path fill="none" d="M654.4194 2539.4287 L796.1794 2539.4287 L796.1794 2619.4287 L654.4194 2619.4287 Z" clip-path="url(#clipPath2)"/>
      <text x="660.2985" xml:space="preserve" y="2569.6143" clip-path="url(#clipPath2)" font-family="sans-serif" stroke="none">"dif(A,B) true certain"</text>
      <text x="720.6207" xml:space="preserve" y="2583.583" clip-path="url(#clipPath2)" font-family="sans-serif" stroke="none">&amp;</text>
      <text x="686.0211" xml:space="preserve" y="2597.5518" clip-path="url(#clipPath2)" font-family="sans-serif" stroke="none">dif(A,B) open</text>
    </g>
    <g fill="url(#linearGradient3)" text-rendering="geometricPrecision" shape-rendering="geometricPrecision" transform="matrix(1,0,0,1,-345,-1727)" stroke="url(#linearGradient3)">
      <path d="M654.4194 2901.3596 L796.1794 2901.3596 L796.1794 2981.3596 L654.4194 2981.3596 Z" stroke="none" clip-path="url(#clipPath2)"/>
    </g>
    <g text-rendering="geometricPrecision" stroke-miterlimit="1.45" shape-rendering="geometricPrecision" transform="matrix(1,0,0,1,-345,-1727)" stroke-linecap="butt">
      <path fill="none" d="M654.4194 2901.3596 L796.1794 2901.3596 L796.1794 2981.3596 L654.4194 2981.3596 Z" clip-path="url(#clipPath2)"/>
      <text x="660.2985" xml:space="preserve" y="2931.5452" clip-path="url(#clipPath2)" font-family="sans-serif" stroke="none">"dif(A,B) true certain"</text>
      <text x="720.6207" xml:space="preserve" y="2945.5139" clip-path="url(#clipPath2)" font-family="sans-serif" stroke="none">&amp;</text>
      <text x="681.7321" xml:space="preserve" y="2959.4827" clip-path="url(#clipPath2)" font-family="sans-serif" stroke="none">dif(A,B) closed</text>
    </g>
    <g fill="url(#linearGradient4)" text-rendering="geometricPrecision" shape-rendering="geometricPrecision" transform="matrix(1,0,0,1,-345,-1727)" stroke="url(#linearGradient4)">
      <path d="M360.0046 2152.4194 L501.7646 2152.4194 L501.7646 2232.4194 L360.0046 2232.4194 Z" stroke="none" clip-path="url(#clipPath2)"/>
    </g>
    <g text-rendering="geometricPrecision" stroke-miterlimit="1.45" shape-rendering="geometricPrecision" transform="matrix(1,0,0,1,-345,-1727)" stroke-linecap="butt">
      <path fill="none" d="M360.0046 2152.4194 L501.7646 2152.4194 L501.7646 2232.4194 L360.0046 2232.4194 Z" clip-path="url(#clipPath2)"/>
      <text x="363.9237" xml:space="preserve" y="2182.605" clip-path="url(#clipPath2)" font-family="sans-serif" stroke="none">"dif(A,B) false certain"</text>
      <text x="426.2059" xml:space="preserve" y="2196.5737" clip-path="url(#clipPath2)" font-family="sans-serif" stroke="none">&amp;</text>
      <text x="391.6063" xml:space="preserve" y="2210.5425" clip-path="url(#clipPath2)" font-family="sans-serif" stroke="none">dif(A,B) open</text>
    </g>
    <g fill="url(#linearGradient5)" text-rendering="geometricPrecision" shape-rendering="geometricPrecision" transform="matrix(1,0,0,1,-345,-1727)" stroke="url(#linearGradient5)">
      <path d="M1068.2653 1900.1877 L1210.0253 1900.1877 L1210.0253 1980.1877 L1068.2653 1980.1877 Z" stroke="none" clip-path="url(#clipPath2)"/>
    </g>
    <g text-rendering="geometricPrecision" stroke-miterlimit="1.45" shape-rendering="geometricPrecision" transform="matrix(1,0,0,1,-345,-1727)" stroke-linecap="butt">
      <path fill="none" d="M1068.2653 1900.1877 L1210.0253 1900.1877 L1210.0253 1980.1877 L1068.2653 1980.1877 Z" clip-path="url(#clipPath2)"/>
      <text x="1072.1843" xml:space="preserve" y="1930.3733" clip-path="url(#clipPath2)" font-family="sans-serif" stroke="none">"dif(A,B) false certain"</text>
      <text x="1134.4666" xml:space="preserve" y="1944.342" clip-path="url(#clipPath2)" font-family="sans-serif" stroke="none">&amp;</text>
      <text x="1095.5779" xml:space="preserve" y="1958.3108" clip-path="url(#clipPath2)" font-family="sans-serif" stroke="none">dif(A,B) closed</text>
    </g>
    <g fill="url(#linearGradient6)" text-rendering="geometricPrecision" shape-rendering="geometricPrecision" transform="matrix(1,0,0,1,-345,-1727)" stroke="url(#linearGradient6)">
      <path d="M654.4194 1900.1877 L796.1794 1900.1877 L796.1794 1980.1877 L654.4194 1980.1877 Z" stroke="none" clip-path="url(#clipPath2)"/>
    </g>
    <g text-rendering="geometricPrecision" stroke-miterlimit="1.45" shape-rendering="geometricPrecision" transform="matrix(1,0,0,1,-345,-1727)" stroke-linecap="butt">
      <path fill="none" d="M654.4194 1900.1877 L796.1794 1900.1877 L796.1794 1980.1877 L654.4194 1980.1877 Z" clip-path="url(#clipPath2)"/>
      <text x="666.9137" xml:space="preserve" y="1930.3733" clip-path="url(#clipPath2)" font-family="sans-serif" stroke="none">"dif(A,B) uncertain"</text>
      <text x="720.6207" xml:space="preserve" y="1944.342" clip-path="url(#clipPath2)" font-family="sans-serif" stroke="none">&amp;</text>
      <text x="681.7321" xml:space="preserve" y="1958.3108" clip-path="url(#clipPath2)" font-family="sans-serif" stroke="none">dif(A,B) closed</text>
    </g>
    <g fill="url(#linearGradient7)" text-rendering="geometricPrecision" shape-rendering="geometricPrecision" transform="matrix(1,0,0,1,-345,-1727)" stroke="url(#linearGradient7)">
      <ellipse rx="40" ry="20" clip-path="url(#clipPath2)" cx="833.1935" cy="3041.3329" stroke="none"/>
    </g>
    <g text-rendering="geometricPrecision" stroke-miterlimit="1.45" shape-rendering="geometricPrecision" transform="matrix(1,0,0,1,-345,-1727)" stroke-linecap="butt">
      <ellipse rx="40" fill="none" ry="20" clip-path="url(#clipPath2)" cx="833.1935" cy="3041.3329"/>
      <text x="817.6779" xml:space="preserve" y="3038.5029" clip-path="url(#clipPath2)" font-family="sans-serif" stroke="none">Issue</text>
      <text x="810.7961" xml:space="preserve" y="3052.4717" clip-path="url(#clipPath2)" font-family="sans-serif" stroke="none">dif(A,B)</text>
    </g>
    <g fill="url(#linearGradient8)" text-rendering="geometricPrecision" shape-rendering="geometricPrecision" transform="matrix(1,0,0,1,-345,-1727)" stroke="url(#linearGradient8)">
      <path d="M782.7151 3101.3062 L895.9935 3101.3062 L883.6719 3149.6262 L770.3935 3149.6262 Z" stroke="none" clip-path="url(#clipPath2)"/>
    </g>
    <g text-rendering="geometricPrecision" stroke-miterlimit="1.45" shape-rendering="geometricPrecision" transform="matrix(1,0,0,1,-345,-1727)" stroke-linecap="butt">
      <path fill="none" d="M782.7151 3101.3062 L895.9935 3101.3062 L883.6719 3149.6262 L770.3935 3149.6262 Z" clip-path="url(#clipPath2)"/>
      <text x="810.7961" xml:space="preserve" y="3115.6519" clip-path="url(#clipPath2)" font-family="sans-serif" stroke="none">dif(A,B)</text>
      <text x="805.3498" xml:space="preserve" y="3129.6206" clip-path="url(#clipPath2)" font-family="sans-serif" stroke="none">succeeds</text>
      <text x="783.1955" xml:space="preserve" y="3143.5894" clip-path="url(#clipPath2)" font-family="sans-serif" stroke="none">deterministically</text>
    </g>
    <g fill="url(#linearGradient9)" text-rendering="geometricPrecision" shape-rendering="geometricPrecision" transform="matrix(1,0,0,1,-345,-1727)" stroke="url(#linearGradient9)">
      <ellipse rx="40" ry="20" clip-path="url(#clipPath2)" cx="1264.6134" cy="2030.1877" stroke="none"/>
    </g>
    <g text-rendering="geometricPrecision" stroke-miterlimit="1.45" shape-rendering="geometricPrecision" transform="matrix(1,0,0,1,-345,-1727)" stroke-linecap="butt">
      <ellipse rx="40" fill="none" ry="20" clip-path="url(#clipPath2)" cx="1264.6134" cy="2030.1877"/>
      <text x="1249.0978" xml:space="preserve" y="2027.3577" clip-path="url(#clipPath2)" font-family="sans-serif" stroke="none">Issue</text>
      <text x="1242.2159" xml:space="preserve" y="2041.3264" clip-path="url(#clipPath2)" font-family="sans-serif" stroke="none">dif(A,B)</text>
    </g>
    <g fill="url(#linearGradient10)" text-rendering="geometricPrecision" shape-rendering="geometricPrecision" transform="matrix(1,0,0,1,-345,-1727)" stroke="url(#linearGradient10)">
      <path d="M1214.135 2100.1343 L1327.4133 2100.1343 L1315.0918 2148.4543 L1201.8134 2148.4543 Z" stroke="none" clip-path="url(#clipPath2)"/>
    </g>
    <g text-rendering="geometricPrecision" stroke-miterlimit="1.45" shape-rendering="geometricPrecision" transform="matrix(1,0,0,1,-345,-1727)" stroke-linecap="butt">
      <path fill="none" d="M1214.135 2100.1343 L1327.4133 2100.1343 L1315.0918 2148.4543 L1201.8134 2148.4543 Z" clip-path="url(#clipPath2)"/>
      <text x="1242.2159" xml:space="preserve" y="2114.48" clip-path="url(#clipPath2)" font-family="sans-serif" stroke="none">dif(A,B)</text>
      <text x="1252.3644" xml:space="preserve" y="2128.4487" clip-path="url(#clipPath2)" font-family="sans-serif" stroke="none">fails</text>
      <text x="1227.1515" xml:space="preserve" y="2142.4175" clip-path="url(#clipPath2)" font-family="sans-serif" stroke="none">immediately</text>
    </g>
    <g fill="url(#linearGradient11)" text-rendering="geometricPrecision" shape-rendering="geometricPrecision" transform="matrix(1,0,0,1,-345,-1727)" stroke="url(#linearGradient11)">
      <ellipse rx="40" ry="20" clip-path="url(#clipPath2)" cx="725.2995" cy="2080.1877" stroke="none"/>
    </g>
    <g text-rendering="geometricPrecision" stroke-miterlimit="1.45" shape-rendering="geometricPrecision" transform="matrix(1,0,0,1,-345,-1727)" stroke-linecap="butt">
      <ellipse rx="40" fill="none" ry="20" clip-path="url(#clipPath2)" cx="725.2995" cy="2080.1877"/>
      <text x="709.7838" xml:space="preserve" y="2077.3577" clip-path="url(#clipPath2)" font-family="sans-serif" stroke="none">Issue</text>
      <text x="702.902" xml:space="preserve" y="2091.3264" clip-path="url(#clipPath2)" font-family="sans-serif" stroke="none">dif(A,B)</text>
    </g>
    <g fill="url(#linearGradient12)" text-rendering="geometricPrecision" shape-rendering="geometricPrecision" transform="matrix(1,0,0,1,-345,-1727)" stroke="url(#linearGradient12)">
      <path d="M674.821 2152.4194 L788.0994 2152.4194 L775.7778 2200.7393 L662.4995 2200.7393 Z" stroke="none" clip-path="url(#clipPath2)"/>
    </g>
    <g text-rendering="geometricPrecision" stroke-miterlimit="1.45" shape-rendering="geometricPrecision" transform="matrix(1,0,0,1,-345,-1727)" stroke-linecap="butt">
      <path fill="none" d="M674.821 2152.4194 L788.0994 2152.4194 L775.7778 2200.7393 L662.4995 2200.7393 Z" clip-path="url(#clipPath2)"/>
      <text x="702.902" xml:space="preserve" y="2166.7649" clip-path="url(#clipPath2)" font-family="sans-serif" stroke="none">dif(A,B)</text>
      <text x="697.4557" xml:space="preserve" y="2180.7336" clip-path="url(#clipPath2)" font-family="sans-serif" stroke="none">succeeds</text>
      <text x="685.2828" xml:space="preserve" y="2194.7024" clip-path="url(#clipPath2)" font-family="sans-serif" stroke="none">optimistically</text>
    </g>
    <g fill="url(#linearGradient13)" text-rendering="geometricPrecision" shape-rendering="geometricPrecision" transform="matrix(1,0,0,1,-345,-1727)" stroke="url(#linearGradient13)">
      <circle r="20" clip-path="url(#clipPath2)" cx="725.2995" cy="1762.9662" stroke="none"/>
    </g>
    <g text-rendering="geometricPrecision" stroke-miterlimit="1.45" shape-rendering="geometricPrecision" transform="matrix(1,0,0,1,-345,-1727)" stroke-linecap="butt">
      <circle fill="none" r="20" clip-path="url(#clipPath2)" cx="725.2995" cy="1762.9662"/>
    </g>
    <g fill="url(#linearGradient14)" text-rendering="geometricPrecision" shape-rendering="geometricPrecision" transform="matrix(1,0,0,1,-345,-1727)" stroke="url(#linearGradient14)">
      <ellipse rx="56.8" ry="28.4" clip-path="url(#clipPath2)" cx="725.2995" cy="2481.0287" stroke="none"/>
    </g>
    <g text-rendering="geometricPrecision" stroke-miterlimit="1.45" shape-rendering="geometricPrecision" transform="matrix(1,0,0,1,-345,-1727)" stroke-linecap="butt">
      <ellipse rx="56.8" fill="none" ry="28.4" clip-path="url(#clipPath2)" cx="725.2995" cy="2481.0287"/>
      <text x="696.2784" font-size="10px" y="2467.0298" clip-path="url(#clipPath2)" font-family="sans-serif" stroke="none" xml:space="preserve">Refinement</text>
      <text x="692.8458" font-size="10px" y="2478.6704" clip-path="url(#clipPath2)" font-family="sans-serif" stroke="none" xml:space="preserve">of A and B to</text>
      <text x="692.4845" font-size="10px" y="2490.311" clip-path="url(#clipPath2)" font-family="sans-serif" stroke="none" xml:space="preserve">"dif(A,B) true</text>
      <text x="705.5363" font-size="10px" y="2501.9517" clip-path="url(#clipPath2)" font-family="sans-serif" stroke="none" xml:space="preserve">certain"</text>
    </g>
    <g fill="url(#linearGradient15)" text-rendering="geometricPrecision" shape-rendering="geometricPrecision" transform="matrix(1,0,0,1,-345,-1727)" stroke="url(#linearGradient15)">
      <ellipse rx="56.8" ry="28.4" clip-path="url(#clipPath2)" cx="430.8846" cy="2307.5912" stroke="none"/>
    </g>
    <g text-rendering="geometricPrecision" stroke-miterlimit="1.45" shape-rendering="geometricPrecision" transform="matrix(1,0,0,1,-345,-1727)" stroke-linecap="butt">
      <ellipse rx="56.8" fill="none" ry="28.4" clip-path="url(#clipPath2)" cx="430.8846" cy="2307.5912"/>
      <text x="401.8636" font-size="10px" y="2293.5923" clip-path="url(#clipPath2)" font-family="sans-serif" stroke="none" xml:space="preserve">Refinement</text>
      <text x="398.431" font-size="10px" y="2305.2329" clip-path="url(#clipPath2)" font-family="sans-serif" stroke="none" xml:space="preserve">of A and B to</text>
      <text x="396.4364" font-size="10px" y="2316.8735" clip-path="url(#clipPath2)" font-family="sans-serif" stroke="none" xml:space="preserve">"dif(A,B) false</text>
      <text x="411.1214" font-size="10px" y="2328.5142" clip-path="url(#clipPath2)" font-family="sans-serif" stroke="none" xml:space="preserve">certain"</text>
    </g>
    <g fill="url(#linearGradient16)" text-rendering="geometricPrecision" shape-rendering="geometricPrecision" transform="matrix(1,0,0,1,-345,-1727)" stroke="url(#linearGradient16)">
      <ellipse rx="56.8" ry="28.4" clip-path="url(#clipPath2)" cx="725.2995" cy="2705.9779" stroke="none"/>
    </g>
    <g text-rendering="geometricPrecision" stroke-miterlimit="1.45" shape-rendering="geometricPrecision" transform="matrix(1,0,0,1,-345,-1727)" stroke-linecap="butt">
      <ellipse rx="56.8" fill="none" ry="28.4" clip-path="url(#clipPath2)" cx="725.2995" cy="2705.9779"/>
      <text x="706.6349" font-size="10px" y="2697.7991" clip-path="url(#clipPath2)" font-family="sans-serif" stroke="none" xml:space="preserve">dif(A,B)</text>
      <text x="702.0963" font-size="10px" y="2709.4397" clip-path="url(#clipPath2)" font-family="sans-serif" stroke="none" xml:space="preserve">succeeds</text>
      <text x="693.9542" font-size="10px" y="2721.0803" clip-path="url(#clipPath2)" font-family="sans-serif" stroke="none" xml:space="preserve">"in the past"</text>
    </g>
    <g fill="url(#linearGradient17)" text-rendering="geometricPrecision" shape-rendering="geometricPrecision" transform="matrix(1,0,0,1,-345,-1727)" stroke="url(#linearGradient17)">
      <ellipse rx="56.8" ry="28.4" clip-path="url(#clipPath2)" cx="430.8846" cy="2052.6004" stroke="none"/>
    </g>
    <g text-rendering="geometricPrecision" stroke-miterlimit="1.45" shape-rendering="geometricPrecision" transform="matrix(1,0,0,1,-345,-1727)" stroke-linecap="butt">
      <ellipse rx="56.8" fill="none" ry="28.4" clip-path="url(#clipPath2)" cx="430.8846" cy="2052.6004"/>
      <text x="412.2201" font-size="10px" y="2044.4218" clip-path="url(#clipPath2)" font-family="sans-serif" stroke="none" xml:space="preserve">dif(A,B)</text>
      <text x="420.6771" font-size="10px" y="2056.0623" clip-path="url(#clipPath2)" font-family="sans-serif" stroke="none" xml:space="preserve">fails</text>
      <text x="399.5394" font-size="10px" y="2067.7029" clip-path="url(#clipPath2)" font-family="sans-serif" stroke="none" xml:space="preserve">"in the past"</text>
    </g>
    <g fill="url(#linearGradient18)" text-rendering="geometricPrecision" shape-rendering="geometricPrecision" transform="matrix(1,0,0,1,-345,-1727)" stroke="url(#linearGradient18)">
      <ellipse rx="40" ry="20" clip-path="url(#clipPath2)" cx="614.4195" cy="2010.1877" stroke="none"/>
    </g>
    <g text-rendering="geometricPrecision" stroke-miterlimit="1.45" shape-rendering="geometricPrecision" transform="matrix(1,0,0,1,-345,-1727)" stroke-linecap="butt">
      <ellipse rx="40" fill="none" ry="20" clip-path="url(#clipPath2)" cx="614.4195" cy="2010.1877"/>
      <text x="588.8667" xml:space="preserve" y="2007.3577" clip-path="url(#clipPath2)" font-family="sans-serif" stroke="none">Program</text>
      <text x="588.2544" xml:space="preserve" y="2021.3264" clip-path="url(#clipPath2)" font-family="sans-serif" stroke="none">progress</text>
    </g>
    <g fill="url(#linearGradient19)" text-rendering="geometricPrecision" shape-rendering="geometricPrecision" transform="matrix(1,0,0,1,-345,-1727)" stroke="url(#linearGradient19)">
      <ellipse rx="40" ry="20" clip-path="url(#clipPath2)" cx="645.153" cy="2410.3779" stroke="none"/>
    </g>
    <g text-rendering="geometricPrecision" stroke-miterlimit="1.45" shape-rendering="geometricPrecision" transform="matrix(1,0,0,1,-345,-1727)" stroke-linecap="butt">
      <ellipse rx="40" fill="none" ry="20" clip-path="url(#clipPath2)" cx="645.153" cy="2410.3779"/>
      <text x="619.6002" xml:space="preserve" y="2407.5479" clip-path="url(#clipPath2)" font-family="sans-serif" stroke="none">Program</text>
      <text x="618.9879" xml:space="preserve" y="2421.5166" clip-path="url(#clipPath2)" font-family="sans-serif" stroke="none">progress</text>
    </g>
    <g fill="url(#linearGradient20)" text-rendering="geometricPrecision" shape-rendering="geometricPrecision" transform="matrix(1,0,0,1,-345,-1727)" stroke="url(#linearGradient20)">
      <ellipse rx="40" ry="20" clip-path="url(#clipPath2)" cx="627.2359" cy="3018.0629" stroke="none"/>
    </g>
    <g text-rendering="geometricPrecision" stroke-miterlimit="1.45" shape-rendering="geometricPrecision" transform="matrix(1,0,0,1,-345,-1727)" stroke-linecap="butt">
      <ellipse rx="40" fill="none" ry="20" clip-path="url(#clipPath2)" cx="627.2359" cy="3018.0629"/>
      <text x="601.6832" xml:space="preserve" y="3015.2329" clip-path="url(#clipPath2)" font-family="sans-serif" stroke="none">Program</text>
      <text x="601.0709" xml:space="preserve" y="3029.2017" clip-path="url(#clipPath2)" font-family="sans-serif" stroke="none">progress</text>
    </g>
    <g fill="url(#linearGradient21)" text-rendering="geometricPrecision" shape-rendering="geometricPrecision" transform="matrix(1,0,0,1,-345,-1727)" stroke="url(#linearGradient21)">
      <ellipse rx="40" ry="20" clip-path="url(#clipPath2)" cx="1058.3447" cy="2030.1877" stroke="none"/>
    </g>
    <g text-rendering="geometricPrecision" stroke-miterlimit="1.45" shape-rendering="geometricPrecision" transform="matrix(1,0,0,1,-345,-1727)" stroke-linecap="butt">
      <ellipse rx="40" fill="none" ry="20" clip-path="url(#clipPath2)" cx="1058.3447" cy="2030.1877"/>
      <text x="1032.792" xml:space="preserve" y="2027.3577" clip-path="url(#clipPath2)" font-family="sans-serif" stroke="none">Program</text>
      <text x="1032.1797" xml:space="preserve" y="2041.3264" clip-path="url(#clipPath2)" font-family="sans-serif" stroke="none">progress</text>
    </g>
    <g fill="url(#linearGradient22)" text-rendering="geometricPrecision" shape-rendering="geometricPrecision" transform="matrix(1,0,0,1,-345,-1727)" stroke="url(#linearGradient22)">
      <ellipse rx="56.8" ry="28.4" clip-path="url(#clipPath2)" cx="957.613" cy="2307.5912" stroke="none"/>
    </g>
    <g text-rendering="geometricPrecision" stroke-miterlimit="1.45" shape-rendering="geometricPrecision" transform="matrix(1,0,0,1,-345,-1727)" stroke-linecap="butt">
      <ellipse rx="56.8" fill="none" ry="28.4" clip-path="url(#clipPath2)" cx="957.613" cy="2307.5912"/>
      <text x="928.592" font-size="10px" y="2293.5923" clip-path="url(#clipPath2)" font-family="sans-serif" stroke="none" xml:space="preserve">Refinement</text>
      <text x="925.1594" font-size="10px" y="2305.2329" clip-path="url(#clipPath2)" font-family="sans-serif" stroke="none" xml:space="preserve">of A and B to</text>
      <text x="924.798" font-size="10px" y="2316.8735" clip-path="url(#clipPath2)" font-family="sans-serif" stroke="none" xml:space="preserve">"dif(A,B) true</text>
      <text x="937.8498" font-size="10px" y="2328.5142" clip-path="url(#clipPath2)" font-family="sans-serif" stroke="none" xml:space="preserve">certain"</text>
    </g>
    <g fill="url(#linearGradient23)" text-rendering="geometricPrecision" shape-rendering="geometricPrecision" transform="matrix(1,0,0,1,-345,-1727)" stroke="url(#linearGradient23)">
      <ellipse rx="56.8" ry="28.4" clip-path="url(#clipPath2)" cx="932.2224" cy="1940.1877" stroke="none"/>
    </g>
    <g text-rendering="geometricPrecision" stroke-miterlimit="1.45" shape-rendering="geometricPrecision" transform="matrix(1,0,0,1,-345,-1727)" stroke-linecap="butt">
      <ellipse rx="56.8" fill="none" ry="28.4" clip-path="url(#clipPath2)" cx="932.2224" cy="1940.1877"/>
      <text x="903.2014" font-size="10px" y="1926.1887" clip-path="url(#clipPath2)" font-family="sans-serif" stroke="none" xml:space="preserve">Refinement</text>
      <text x="899.7687" font-size="10px" y="1937.8293" clip-path="url(#clipPath2)" font-family="sans-serif" stroke="none" xml:space="preserve">of A and B to</text>
      <text x="897.7741" font-size="10px" y="1949.47" clip-path="url(#clipPath2)" font-family="sans-serif" stroke="none" xml:space="preserve">"dif(A,B) false</text>
      <text x="912.4592" font-size="10px" y="1961.1106" clip-path="url(#clipPath2)" font-family="sans-serif" stroke="none" xml:space="preserve">certain"</text>
    </g>
    <g fill="url(#linearGradient24)" text-rendering="geometricPrecision" shape-rendering="geometricPrecision" transform="matrix(1,0,0,1,-345,-1727)" stroke="url(#linearGradient24)">
      <path d="M380.4062 1916.0277 L493.6846 1916.0277 L481.363 1964.3477 L368.0846 1964.3477 Z" stroke="none" clip-path="url(#clipPath2)"/>
    </g>
    <g text-rendering="geometricPrecision" stroke-miterlimit="1.45" shape-rendering="geometricPrecision" transform="matrix(1,0,0,1,-345,-1727)" stroke-linecap="butt">
      <path fill="none" d="M380.4062 1916.0277 L493.6846 1916.0277 L481.363 1964.3477 L368.0846 1964.3477 Z" clip-path="url(#clipPath2)"/>
      <text x="408.4872" xml:space="preserve" y="1930.3733" clip-path="url(#clipPath2)" font-family="sans-serif" stroke="none">dif(A,B)</text>
      <text x="398.5057" xml:space="preserve" y="1944.342" clip-path="url(#clipPath2)" font-family="sans-serif" stroke="none">late failure</text>
      <text x="385.3778" xml:space="preserve" y="1958.3108" clip-path="url(#clipPath2)" font-family="sans-serif" stroke="none">-&gt; BACKTRACK</text>
    </g>
    <g fill="url(#linearGradient25)" text-rendering="geometricPrecision" shape-rendering="geometricPrecision" transform="matrix(1,0,0,1,-345,-1727)" stroke="url(#linearGradient25)">
      <path d="M674.821 2792.5271 L788.0994 2792.5271 L775.7778 2840.8469 L662.4995 2840.8469 Z" stroke="none" clip-path="url(#clipPath2)"/>
    </g>
    <g text-rendering="geometricPrecision" stroke-miterlimit="1.45" shape-rendering="geometricPrecision" transform="matrix(1,0,0,1,-345,-1727)" stroke-linecap="butt">
      <path fill="none" d="M674.821 2792.5271 L788.0994 2792.5271 L775.7778 2840.8469 L662.4995 2840.8469 Z" clip-path="url(#clipPath2)"/>
      <text x="702.902" xml:space="preserve" y="2813.8569" clip-path="url(#clipPath2)" font-family="sans-serif" stroke="none">dif(A,B)</text>
      <text x="673.9713" xml:space="preserve" y="2827.8257" clip-path="url(#clipPath2)" font-family="sans-serif" stroke="none">late confirmation</text>
    </g>
    <g text-rendering="geometricPrecision" stroke-miterlimit="1.45" shape-rendering="geometricPrecision" transform="matrix(1,0,0,1,-345,-1727)" stroke-linecap="butt">
      <path fill="none" d="M796.184 2941.3596 L823.1935 2941.3596 L827.5685 2941.9846 L830.6935 2943.8596 L832.5685 2946.9846 L833.1935 2951.3596 L833.1935 3013.3674" clip-path="url(#clipPath2)"/>
    </g>
    <g text-rendering="geometricPrecision" stroke-miterlimit="1.45" shape-rendering="geometricPrecision" transform="matrix(1,0,0,1,-345,-1727)" stroke-linecap="butt">
      <path d="M833.1935 3021.3674 L838.1935 3009.3674 L833.1935 3012.3674 L828.1935 3009.3674 Z" stroke="none" clip-path="url(#clipPath2)"/>
      <path fill="none" d="M833.1935 3061.3391 L833.1935 3093.3247" clip-path="url(#clipPath2)"/>
      <path d="M833.1935 3101.3247 L838.1935 3089.3247 L833.1935 3092.3247 L828.1935 3089.3247 Z" clip-path="url(#clipPath2)" stroke="none"/>
      <path fill="none" d="M776.5333 3125.4663 L735.2994 3125.4663 L730.9244 3124.8413 L727.7994 3122.9663 L725.9244 3119.8413 L725.2994 3115.4663 L725.2994 2989.3184" clip-path="url(#clipPath2)"/>
      <path d="M725.2994 2981.3184 L720.2994 2993.3184 L725.2994 2990.3184 L730.2994 2993.3184 Z" clip-path="url(#clipPath2)" stroke="none"/>
      <path fill="none" d="M1209.9967 1940.1877 L1254.6134 1940.1877 L1258.9884 1940.8127 L1262.1134 1942.6877 L1263.9884 1945.8127 L1264.6134 1950.1877 L1264.6134 2002.1926" clip-path="url(#clipPath2)"/>
      <path d="M1264.6134 2010.1926 L1269.6134 1998.1926 L1264.6134 2001.1926 L1259.6134 1998.1926 Z" clip-path="url(#clipPath2)" stroke="none"/>
      <path fill="none" d="M1264.6134 2050.1763 L1264.6134 2092.1553" clip-path="url(#clipPath2)"/>
      <path d="M1264.6134 2100.1553 L1269.6134 2088.1553 L1264.6134 2091.1553 L1259.6134 2088.1553 Z" clip-path="url(#clipPath2)" stroke="none"/>
      <path fill="none" d="M1207.9751 2124.2944 L1149.1453 2124.2944 L1144.7703 2123.6694 L1141.6453 2121.7944 L1139.7703 2118.6694 L1139.1453 2114.2944 L1139.1453 1988.1464" clip-path="url(#clipPath2)"/>
      <path d="M1139.1453 1980.1464 L1134.1453 1992.1464 L1139.1453 1989.1464 L1144.1453 1992.1464 Z" clip-path="url(#clipPath2)" stroke="none"/>
      <path fill="none" d="M725.2994 1980.2122 L725.2994 2052.2219" clip-path="url(#clipPath2)"/>
      <path d="M725.2994 2060.2219 L730.2994 2048.2219 L725.2994 2051.2219 L720.2994 2048.2219 Z" clip-path="url(#clipPath2)" stroke="none"/>
      <path fill="none" d="M725.2994 2100.1909 L725.2994 2144.4468" clip-path="url(#clipPath2)"/>
      <path d="M725.2994 2152.4468 L730.2994 2140.4468 L725.2994 2143.4468 L720.2994 2140.4468 Z" clip-path="url(#clipPath2)" stroke="none"/>
      <path fill="none" d="M725.2994 2200.7283 L725.2994 2259.5959" clip-path="url(#clipPath2)"/>
      <path d="M725.2994 2267.5959 L730.2994 2255.5959 L725.2994 2258.5959 L720.2994 2255.5959 Z" clip-path="url(#clipPath2)" stroke="none"/>
      <path fill="none" d="M725.2994 1782.9989 L725.2994 1892.1614" clip-path="url(#clipPath2)"/>
      <path d="M725.2994 1900.1614 L730.2994 1888.1614 L725.2994 1891.1614 L720.2994 1888.1614 Z" clip-path="url(#clipPath2)" stroke="none"/>
      <path fill="none" d="M725.2994 2347.6055 L725.2994 2444.6567" clip-path="url(#clipPath2)"/>
      <path d="M725.2994 2452.6567 L730.2994 2440.6567 L725.2994 2443.6567 L720.2994 2440.6567 Z" clip-path="url(#clipPath2)" stroke="none"/>
      <path fill="none" d="M725.2994 2509.4136 L725.2994 2531.4482" clip-path="url(#clipPath2)"/>
      <path d="M725.2994 2539.4482 L730.2994 2527.4482 L725.2994 2530.4482 L720.2994 2527.4482 Z" clip-path="url(#clipPath2)" stroke="none"/>
      <path fill="none" d="M654.3912 2307.5913 L495.6616 2307.5913" clip-path="url(#clipPath2)"/>
      <path d="M487.6616 2307.5913 L499.6616 2312.5913 L496.6616 2307.5913 L499.6616 2302.5913 Z" clip-path="url(#clipPath2)" stroke="none"/>
      <path fill="none" d="M430.8846 2279.1638 L430.8846 2240.4456" clip-path="url(#clipPath2)"/>
      <path d="M430.8846 2232.4456 L425.8846 2244.4456 L430.8846 2241.4456 L435.8846 2244.4456 Z" clip-path="url(#clipPath2)" stroke="none"/>
      <path fill="none" d="M725.2994 2619.4387 L725.2994 2669.54" clip-path="url(#clipPath2)"/>
      <path d="M725.2994 2677.54 L730.2994 2665.54 L725.2994 2668.54 L720.2994 2665.54 Z" clip-path="url(#clipPath2)" stroke="none"/>
      <text x="687.8375" xml:space="preserve" y="2652.6577" clip-path="url(#clipPath2)" font-family="sans-serif" stroke="none">immediately</text>
      <path fill="none" d="M430.8846 2152.4468 L430.8846 2089.0234" clip-path="url(#clipPath2)"/>
      <path d="M430.8846 2081.0234 L425.8846 2093.0234 L430.8846 2090.0234 L435.8846 2093.0234 Z" clip-path="url(#clipPath2)" stroke="none"/>
      <text x="393.4227" xml:space="preserve" y="2120.8643" clip-path="url(#clipPath2)" font-family="sans-serif" stroke="none">immediately</text>
      <path fill="none" d="M704.1288 1980.183 L691.9055 2002.0052 L679.8755 2019.7838 L674.4587 2025.7495 L669.2242 2029.9028 L664.0096 2032.3462 L658.6524 2033.1823 L652.9902 2032.5137 L646.8605 2030.4427 L645.8902 2029.9045" clip-path="url(#clipPath2)"/>
      <path d="M638.8943 2026.024 L646.9628 2036.2172 L646.7646 2030.3896 L651.8134 2027.4724 Z" clip-path="url(#clipPath2)" stroke="none"/>
      <path fill="none" d="M604.6435 1990.795 L600.6301 1980.2921 L600.0178 1975.0493 L600.8643 1970.494 L603.3321 1966.5234 L607.5836 1963.0352 L622.0874 1957.0956 L645.675 1951.8546 L646.5074 1951.7327" clip-path="url(#clipPath2)"/>
      <path d="M654.4229 1950.5729 L641.8248 1947.3654 L645.5179 1951.8777 L643.2745 1957.2598 Z" clip-path="url(#clipPath2)" stroke="none"/>
      <path fill="none" d="M718.6871 2347.5999 L716.6525 2353.9265 L710.5659 2364.082 L701.312 2373.6006 L687.9512 2383.6863 L676.9764 2390.531" clip-path="url(#clipPath2)"/>
      <path d="M670.1883 2394.7644 L683.0163 2392.6567 L677.8249 2390.0017 L677.7245 2384.1716 Z" clip-path="url(#clipPath2)" stroke="none"/>
      <path fill="none" d="M634.6605 2391.0945 L633.7954 2389.5044 L626.6669 2373.3328 L624.9819 2366.6338 L624.7065 2360.6587 L625.9578 2355.2566 L628.8534 2350.2773 L633.5107 2345.5703 L640.047 2340.9846 L647.2118 2337.4697" clip-path="url(#clipPath2)"/>
      <path d="M654.3941 2333.9463 L641.4185 2334.7424 L646.314 2337.9102 L645.8228 2343.7205 Z" clip-path="url(#clipPath2)" stroke="none"/>
      <path fill="none" d="M707.8636 2981.335 L703.2979 2991.803 L694.5415 3006.9607 L685.7491 3016.6074 L680.9803 3019.6453 L675.7715 3021.6423 L674.1552 3021.8159" clip-path="url(#clipPath2)"/>
      <path d="M666.2009 3022.6697 L678.666 3026.3606 L675.1495 3021.7092 L677.5988 3016.4175 Z" clip-path="url(#clipPath2)" stroke="none"/>
      <path fill="none" d="M622.1954 2998.1824 L621.7567 2996.4517 L619.0468 2980.0732 L619.0895 2973.5654 L620.2556 2968.0291 L622.6885 2963.3513 L626.532 2959.4199 L631.9298 2956.1228 L639.0255 2953.3474 L646.6168 2951.6521" clip-path="url(#clipPath2)"/>
      <path d="M654.4245 2949.9084 L641.6232 2947.644 L645.6409 2951.8701 L643.8028 2957.4038 Z" clip-path="url(#clipPath2)" stroke="none"/>
      <path fill="none" d="M1125.7875 1980.1713 L1124.2614 1984.7396 L1117.8575 1998.8658 L1110.8833 2008.9652 L1102.3918 2016.0924 L1100.5011 2016.9915" clip-path="url(#clipPath2)"/>
      <path d="M1093.2764 2020.427 L1106.2607 2019.7892 L1101.4042 2016.562 L1101.9663 2010.7582 Z" clip-path="url(#clipPath2)" stroke="none"/>
      <path fill="none" d="M1049.8994 2010.6272 L1048.3585 2007.0585 L1042.2174 1989.4327 L1040.8846 1982.354 L1040.8684 1976.2557 L1042.2869 1971.0059 L1045.2583 1966.4727 L1049.9014 1962.5244 L1056.3341 1959.0292 L1060.684 1957.5972" clip-path="url(#clipPath2)"/>
      <path d="M1068.2827 1955.0956 L1055.321 1954.0988 L1059.734 1957.9099 L1058.448 1963.5973 Z" clip-path="url(#clipPath2)" stroke="none"/>
      <path fill="none" d="M764.4827 1980.1896 L801.9811 2018.4713 L859.6057 2078.8987 L900.8958 2125.7754 L916.2662 2145.4778 L928.5738 2163.407 L938.159 2180.1011 L945.3621 2196.0986 L950.5233 2211.9377 L953.9831 2228.1565 L956.0816 2245.293 L957.1592 2263.8855 L957.2352 2271.2087" clip-path="url(#clipPath2)"/>
      <path d="M957.3183 2279.2083 L962.1934 2267.157 L957.2249 2270.2087 L952.194 2267.2607 Z" clip-path="url(#clipPath2)" stroke="none"/>
      <path fill="none" d="M957.5336 2335.9709 L957.1592 2469.7158 L956.0816 2535.8613 L953.9831 2593.2998 L950.5233 2642.96 L945.3621 2685.77 L938.159 2722.6584 L928.5738 2754.5535 L916.2662 2782.3835 L900.8958 2807.0771 L882.1224 2829.5625 L859.6057 2850.7681 L833.0054 2871.6223 L801.9811 2893.0532 L795.5328 2897.1152" clip-path="url(#clipPath2)"/>
      <path d="M788.764 2901.3794 L801.5823 2899.2136 L796.3789 2896.5823 L796.2521 2890.7527 Z" clip-path="url(#clipPath2)" stroke="none"/>
      <path fill="none" d="M796.2018 1940.1877 L867.4033 1940.1877" clip-path="url(#clipPath2)"/>
      <path d="M875.4033 1940.1877 L863.4033 1935.1877 L866.4033 1940.1877 L863.4033 1945.1877 Z" clip-path="url(#clipPath2)" stroke="none"/>
      <path fill="none" d="M989.0302 1940.1877 L1060.229 1940.1877" clip-path="url(#clipPath2)"/>
      <path d="M1068.229 1940.1877 L1056.229 1935.1877 L1059.229 1940.1877 L1056.229 1945.1877 Z" clip-path="url(#clipPath2)" stroke="none"/>
      <path fill="none" d="M430.8846 2024.1742 L430.8846 1972.3741" clip-path="url(#clipPath2)"/>
      <path d="M430.8846 1964.3741 L425.8846 1976.3741 L430.8846 1973.3741 L435.8846 1976.3741 Z" clip-path="url(#clipPath2)" stroke="none"/>
      <path fill="none" d="M487.489 1940.1877 L646.4382 1940.1877" clip-path="url(#clipPath2)"/>
      <path d="M654.4382 1940.1877 L642.4382 1935.1877 L645.4382 1940.1877 L642.4382 1945.1877 Z" clip-path="url(#clipPath2)" stroke="none"/>
      <path fill="none" d="M725.2994 2734.385 L725.2994 2784.5349" clip-path="url(#clipPath2)"/>
      <path d="M725.2994 2792.5349 L730.2994 2780.5349 L725.2994 2783.5349 L720.2994 2780.5349 Z" clip-path="url(#clipPath2)" stroke="none"/>
      <path fill="none" d="M725.2994 2840.824 L725.2994 2893.3516" clip-path="url(#clipPath2)"/>
      <path d="M725.2994 2901.3516 L730.2994 2889.3516 L725.2994 2892.3516 L720.2994 2889.3516 Z" clip-path="url(#clipPath2)" stroke="none"/>
    </g>
  </g>
</svg>
