<?xml version="1.0" encoding="UTF-8"?><svg xmlns="http://www.w3.org/2000/svg" xmlns:xlink="http://www.w3.org/1999/xlink" fill-opacity="1" color-rendering="auto" color-interpolation="auto" text-rendering="auto" stroke="black" stroke-linecap="square" width="1284" stroke-miterlimit="10" shape-rendering="auto" stroke-opacity="1" fill="black" stroke-dasharray="none" font-weight="normal" stroke-width="1" height="696" font-family="'Dialog'" font-style="normal" stroke-linejoin="miter" font-size="12px" stroke-dashoffset="0" image-rendering="auto">
  <!--Generated by ySVG 2.5-->
  <defs id="genericDefs"/>
  <g>
    <defs id="defs1">
      <linearGradient x1="416.2065" gradientUnits="userSpaceOnUse" x2="693.9665" y1="298.0467" y2="322.6867" id="linearGradient1" spreadMethod="reflect">
        <stop stop-opacity="1" stop-color="silver" offset="0%"/>
        <stop stop-opacity="1" stop-color="silver" offset="100%"/>
      </linearGradient>
      <linearGradient x1="1106.7665" gradientUnits="userSpaceOnUse" x2="1384.5265" y1="103.6467" y2="143.6467" id="linearGradient2" spreadMethod="reflect">
        <stop stop-opacity="1" stop-color="rgb(183,201,227)" offset="0%"/>
        <stop stop-opacity="1" stop-color="rgb(183,201,227)" offset="100%"/>
      </linearGradient>
      <linearGradient x1="416.2065" gradientUnits="userSpaceOnUse" x2="693.9665" y1="322.6867" y2="382.5267" id="linearGradient3" spreadMethod="reflect">
        <stop stop-opacity="1" stop-color="silver" offset="0%"/>
        <stop stop-opacity="1" stop-color="silver" offset="100%"/>
      </linearGradient>
      <linearGradient x1="1106.7665" gradientUnits="userSpaceOnUse" x2="1384.5265" y1="143.6467" y2="168.2867" id="linearGradient4" spreadMethod="reflect">
        <stop stop-opacity="1" stop-color="silver" offset="0%"/>
        <stop stop-opacity="1" stop-color="silver" offset="100%"/>
      </linearGradient>
      <linearGradient x1="1106.7665" gradientUnits="userSpaceOnUse" x2="1384.5265" y1="168.2867" y2="216.6067" id="linearGradient5" spreadMethod="reflect">
        <stop stop-opacity="1" stop-color="silver" offset="0%"/>
        <stop stop-opacity="1" stop-color="silver" offset="100%"/>
      </linearGradient>
      <linearGradient x1="1263.5665" gradientUnits="userSpaceOnUse" x2="1541.3265" y1="402.9267" y2="442.9267" id="linearGradient6" spreadMethod="reflect">
        <stop stop-opacity="1" stop-color="rgb(183,201,227)" offset="0%"/>
        <stop stop-opacity="1" stop-color="rgb(183,201,227)" offset="100%"/>
      </linearGradient>
      <linearGradient x1="1263.5665" gradientUnits="userSpaceOnUse" x2="1541.3265" y1="442.9267" y2="467.5667" id="linearGradient7" spreadMethod="reflect">
        <stop stop-opacity="1" stop-color="silver" offset="0%"/>
        <stop stop-opacity="1" stop-color="silver" offset="100%"/>
      </linearGradient>
      <linearGradient x1="1263.5665" gradientUnits="userSpaceOnUse" x2="1541.3265" y1="467.5667" y2="515.8867" id="linearGradient8" spreadMethod="reflect">
        <stop stop-opacity="1" stop-color="silver" offset="0%"/>
        <stop stop-opacity="1" stop-color="silver" offset="100%"/>
      </linearGradient>
      <linearGradient x1="1106.7665" gradientUnits="userSpaceOnUse" x2="1384.5265" y1="216.9267" y2="265.2467" id="linearGradient9" spreadMethod="reflect">
        <stop stop-opacity="1" stop-color="rgb(255,255,153)" offset="0%"/>
        <stop stop-opacity="1" stop-color="rgb(255,255,153)" offset="100%"/>
      </linearGradient>
      <linearGradient x1="1263.5665" gradientUnits="userSpaceOnUse" x2="1541.3265" y1="515.8867" y2="564.2067" id="linearGradient10" spreadMethod="reflect">
        <stop stop-opacity="1" stop-color="rgb(255,255,153)" offset="0%"/>
        <stop stop-opacity="1" stop-color="rgb(255,255,153)" offset="100%"/>
      </linearGradient>
      <linearGradient x1="416.2065" gradientUnits="userSpaceOnUse" x2="693.9665" y1="382.5267" y2="430.8467" id="linearGradient11" spreadMethod="reflect">
        <stop stop-opacity="1" stop-color="rgb(255,255,153)" offset="0%"/>
        <stop stop-opacity="1" stop-color="rgb(255,255,153)" offset="100%"/>
      </linearGradient>
      <linearGradient x1="491.5665" gradientUnits="userSpaceOnUse" x2="697.9665" y1="-31.8733" y2="121.8867" id="linearGradient12" spreadMethod="reflect">
        <stop stop-opacity="1" stop-color="white" offset="0%"/>
        <stop stop-opacity="1" stop-color="white" offset="100%"/>
      </linearGradient>
      <linearGradient x1="416.2065" gradientUnits="userSpaceOnUse" x2="693.9665" y1="258.0467" y2="298.0467" id="linearGradient13" spreadMethod="reflect">
        <stop stop-opacity="1" stop-color="rgb(183,201,227)" offset="0%"/>
        <stop stop-opacity="1" stop-color="rgb(183,201,227)" offset="100%"/>
      </linearGradient>
      <linearGradient x1="502.12" gradientUnits="userSpaceOnUse" x2="708.52" y1="-71.8733" y2="-31.8733" id="linearGradient14" spreadMethod="reflect">
        <stop stop-opacity="1" stop-color="white" offset="0%"/>
        <stop stop-opacity="1" stop-color="white" offset="100%"/>
      </linearGradient>
      <linearGradient x1="764.52" gradientUnits="userSpaceOnUse" x2="807.72" y1="268.0467" y2="288.0467" id="linearGradient15" spreadMethod="reflect">
        <stop stop-opacity="1" stop-color="rgb(232,238,247)" offset="0%"/>
        <stop stop-opacity="1" stop-color="rgb(183,201,227)" offset="100%"/>
      </linearGradient>
      <linearGradient x1="890.8465" gradientUnits="userSpaceOnUse" x2="1025.2465" y1="83.2467" y2="164.0467" id="linearGradient16" spreadMethod="reflect">
        <stop stop-opacity="1" stop-color="rgb(232,238,247)" offset="0%"/>
        <stop stop-opacity="1" stop-color="rgb(183,201,227)" offset="100%"/>
      </linearGradient>
      <linearGradient x1="872.8465" gradientUnits="userSpaceOnUse" x2="1104.0465" y1="375.7267" y2="470.1267" id="linearGradient17" spreadMethod="reflect">
        <stop stop-opacity="1" stop-color="rgb(232,238,247)" offset="0%"/>
        <stop stop-opacity="1" stop-color="rgb(183,201,227)" offset="100%"/>
      </linearGradient>
      <linearGradient x1="412.2065" gradientUnits="userSpaceOnUse" x2="697.9665" y1="476.0533" y2="544.0533" id="linearGradient18" spreadMethod="reflect">
        <stop stop-opacity="1" stop-color="rgb(232,238,247)" offset="0%"/>
        <stop stop-opacity="1" stop-color="rgb(183,201,227)" offset="100%"/>
      </linearGradient>
      <linearGradient x1="535.4865" gradientUnits="userSpaceOnUse" x2="574.6865" y1="578.4" y2="593.44" id="linearGradient19" spreadMethod="reflect">
        <stop stop-opacity="1" stop-color="black" offset="0%"/>
        <stop stop-opacity="1" stop-color="black" offset="100%"/>
      </linearGradient>
      <linearGradient x1="860.293" gradientUnits="userSpaceOnUse" x2="1091.4929" y1="484.32" y2="578.72" id="linearGradient20" spreadMethod="reflect">
        <stop stop-opacity="1" stop-color="rgb(232,238,247)" offset="0%"/>
        <stop stop-opacity="1" stop-color="rgb(183,201,227)" offset="100%"/>
      </linearGradient>
      <clipPath clipPathUnits="userSpaceOnUse" id="clipPath1">
        <path d="M0 0 L1284 0 L1284 696 L0 696 L0 0 Z"/>
      </clipPath>
      <clipPath clipPathUnits="userSpaceOnUse" id="clipPath2">
        <path d="M350 -87 L1634 -87 L1634 609 L350 609 L350 -87 Z"/>
      </clipPath>
    </defs>
    <g fill="white" text-rendering="geometricPrecision" shape-rendering="geometricPrecision" transform="translate(-350,87)" stroke="white">
      <rect x="350" width="1284" height="696" y="-87" clip-path="url(#clipPath2)" stroke="none"/>
    </g>
    <g fill="url(#linearGradient1)" text-rendering="geometricPrecision" shape-rendering="geometricPrecision" transform="matrix(1,0,0,1,-350,87)" stroke="url(#linearGradient1)">
      <path d="M416.2065 298.0467 L693.9665 298.0467 L693.9665 322.6867 L416.2065 322.6867 Z" stroke="none" clip-path="url(#clipPath2)"/>
    </g>
    <g text-rendering="geometricPrecision" stroke-miterlimit="1.45" shape-rendering="geometricPrecision" transform="matrix(1,0,0,1,-350,87)" stroke-linecap="butt">
      <path fill="none" d="M416.2065 298.0467 L693.9665 298.0467 L693.9665 322.6867 L416.2065 322.6867 Z" clip-path="url(#clipPath2)"/>
      <text x="484.358" xml:space="preserve" y="314.521" clip-path="url(#clipPath2)" font-family="sans-serif" stroke="none">A=B, subject to change</text>
    </g>
    <g fill="url(#linearGradient2)" text-rendering="geometricPrecision" shape-rendering="geometricPrecision" transform="matrix(1,0,0,1,-350,87)" stroke="url(#linearGradient2)">
      <path d="M1106.7665 103.6467 L1384.5265 103.6467 L1384.5265 143.6467 L1106.7665 143.6467 Z" stroke="none" clip-path="url(#clipPath2)"/>
    </g>
    <g text-rendering="geometricPrecision" stroke-miterlimit="1.45" shape-rendering="geometricPrecision" transform="matrix(1,0,0,1,-350,87)" stroke-linecap="butt">
      <path fill="none" d="M1106.7665 103.6467 L1384.5265 103.6467 L1384.5265 143.6467 L1106.7665 143.6467 Z" clip-path="url(#clipPath2)"/>
      <text x="1223.7412" xml:space="preserve" y="120.8166" clip-path="url(#clipPath2)" font-family="sans-serif" stroke="none">State B</text>
      <text x="1113.9834" xml:space="preserve" y="134.7853" clip-path="url(#clipPath2)" font-family="sans-serif" stroke="none">"Sufficiently refined for dif=TRUE certainty"</text>
    </g>
    <g fill="url(#linearGradient3)" text-rendering="geometricPrecision" shape-rendering="geometricPrecision" transform="matrix(1,0,0,1,-350,87)" stroke="url(#linearGradient3)">
      <path d="M416.2065 322.6867 L693.9665 322.6867 L693.9665 382.5267 L416.2065 382.5267 Z" stroke="none" clip-path="url(#clipPath2)"/>
    </g>
    <g text-rendering="geometricPrecision" stroke-miterlimit="1.45" shape-rendering="geometricPrecision" transform="matrix(1,0,0,1,-350,87)" stroke-linecap="butt">
      <path fill="none" d="M416.2065 322.6867 L693.9665 322.6867 L693.9665 382.5267 L416.2065 382.5267 Z" clip-path="url(#clipPath2)"/>
      <text x="494.7672" xml:space="preserve" y="342.7922" clip-path="url(#clipPath2)" font-family="sans-serif" stroke="none">A unifies with B, but</text>
      <text x="487.0972" xml:space="preserve" y="356.761" clip-path="url(#clipPath2)" font-family="sans-serif" stroke="none">that can change in the</text>
      <text x="534.9507" xml:space="preserve" y="370.7297" clip-path="url(#clipPath2)" font-family="sans-serif" stroke="none">future.</text>
    </g>
    <g fill="url(#linearGradient4)" text-rendering="geometricPrecision" shape-rendering="geometricPrecision" transform="matrix(1,0,0,1,-350,87)" stroke="url(#linearGradient4)">
      <path d="M1106.7665 143.6467 L1384.5265 143.6467 L1384.5265 168.2867 L1106.7665 168.2867 Z" stroke="none" clip-path="url(#clipPath2)"/>
    </g>
    <g text-rendering="geometricPrecision" stroke-miterlimit="1.45" shape-rendering="geometricPrecision" transform="matrix(1,0,0,1,-350,87)" stroke-linecap="butt">
      <path fill="none" d="M1106.7665 143.6467 L1384.5265 143.6467 L1384.5265 168.2867 L1106.7665 168.2867 Z" clip-path="url(#clipPath2)"/>
      <text x="1161.1631" xml:space="preserve" y="160.121" clip-path="url(#clipPath2)" font-family="sans-serif" stroke="none">A\=B, not subject to change</text>
    </g>
    <g fill="url(#linearGradient5)" text-rendering="geometricPrecision" shape-rendering="geometricPrecision" transform="matrix(1,0,0,1,-350,87)" stroke="url(#linearGradient5)">
      <path d="M1106.7665 168.2867 L1384.5265 168.2867 L1384.5265 216.6067 L1106.7665 216.6067 Z" stroke="none" clip-path="url(#clipPath2)"/>
    </g>
    <g text-rendering="geometricPrecision" stroke-miterlimit="1.45" shape-rendering="geometricPrecision" transform="matrix(1,0,0,1,-350,87)" stroke-linecap="butt">
      <path fill="none" d="M1106.7665 168.2867 L1384.5265 168.2867 L1384.5265 216.6067 L1106.7665 216.6067 Z" clip-path="url(#clipPath2)"/>
      <text x="1171.7773" xml:space="preserve" y="189.6166" clip-path="url(#clipPath2)" font-family="sans-serif" stroke="none">A and B can never unify.</text>
      <text x="1164.7666" xml:space="preserve" y="203.5853" clip-path="url(#clipPath2)" font-family="sans-serif" stroke="none">They are "different terms".</text>
    </g>
    <g fill="url(#linearGradient6)" text-rendering="geometricPrecision" shape-rendering="geometricPrecision" transform="matrix(1,0,0,1,-350,87)" stroke="url(#linearGradient6)">
      <path d="M1263.5665 402.9267 L1541.3265 402.9267 L1541.3265 442.9267 L1263.5665 442.9267 Z" stroke="none" clip-path="url(#clipPath2)"/>
    </g>
    <g text-rendering="geometricPrecision" stroke-miterlimit="1.45" shape-rendering="geometricPrecision" transform="matrix(1,0,0,1,-350,87)" stroke-linecap="butt">
      <path fill="none" d="M1263.5665 402.9267 L1541.3265 402.9267 L1541.3265 442.9267 L1263.5665 442.9267 Z" clip-path="url(#clipPath2)"/>
      <text x="1380.468" xml:space="preserve" y="420.0966" clip-path="url(#clipPath2)" font-family="sans-serif" stroke="none">State C</text>
      <text x="1268.302" xml:space="preserve" y="434.0653" clip-path="url(#clipPath2)" font-family="sans-serif" stroke="none">"Sufficiently refined for dif=FALSE certainty"</text>
    </g>
    <g fill="url(#linearGradient7)" text-rendering="geometricPrecision" shape-rendering="geometricPrecision" transform="matrix(1,0,0,1,-350,87)" stroke="url(#linearGradient7)">
      <path d="M1263.5665 442.9267 L1541.3265 442.9267 L1541.3265 467.5667 L1263.5665 467.5667 Z" stroke="none" clip-path="url(#clipPath2)"/>
    </g>
    <g text-rendering="geometricPrecision" stroke-miterlimit="1.45" shape-rendering="geometricPrecision" transform="matrix(1,0,0,1,-350,87)" stroke-linecap="butt">
      <path fill="none" d="M1263.5665 442.9267 L1541.3265 442.9267 L1541.3265 467.5667 L1263.5665 467.5667 Z" clip-path="url(#clipPath2)"/>
      <text x="1319.9846" xml:space="preserve" y="459.401" clip-path="url(#clipPath2)" font-family="sans-serif" stroke="none">A=B, not subject to change</text>
    </g>
    <g fill="url(#linearGradient8)" text-rendering="geometricPrecision" shape-rendering="geometricPrecision" transform="matrix(1,0,0,1,-350,87)" stroke="url(#linearGradient8)">
      <path d="M1263.5665 467.5667 L1541.3265 467.5667 L1541.3265 515.8867 L1263.5665 515.8867 Z" stroke="none" clip-path="url(#clipPath2)"/>
    </g>
    <g text-rendering="geometricPrecision" stroke-miterlimit="1.45" shape-rendering="geometricPrecision" transform="matrix(1,0,0,1,-350,87)" stroke-linecap="butt">
      <path fill="none" d="M1263.5665 467.5667 L1541.3265 467.5667 L1541.3265 515.8867 L1263.5665 515.8867 Z" clip-path="url(#clipPath2)"/>
      <text x="1293.6584" xml:space="preserve" y="488.8966" clip-path="url(#clipPath2)" font-family="sans-serif" stroke="none">A and B unify now and forevermore.</text>
      <text x="1321.6399" xml:space="preserve" y="502.8653" clip-path="url(#clipPath2)" font-family="sans-serif" stroke="none">They are "identical terms".</text>
    </g>
    <g fill="url(#linearGradient9)" text-rendering="geometricPrecision" shape-rendering="geometricPrecision" transform="matrix(1,0,0,1,-350,87)" stroke="url(#linearGradient9)">
      <path d="M1106.7665 216.9267 L1384.5265 216.9267 L1384.5265 265.2467 L1106.7665 265.2467 Z" stroke="none" clip-path="url(#clipPath2)"/>
    </g>
    <g text-rendering="geometricPrecision" stroke-miterlimit="1.45" shape-rendering="geometricPrecision" transform="matrix(1,0,0,1,-350,87)" stroke-linecap="butt">
      <path fill="none" d="M1106.7665 216.9267 L1384.5265 216.9267 L1384.5265 265.2467 L1106.7665 265.2467 Z" clip-path="url(#clipPath2)"/>
      <text x="1191.2334" xml:space="preserve" y="231.2722" clip-path="url(#clipPath2)" font-family="sans-serif" stroke="none">When called here,</text>
      <text x="1223.249" xml:space="preserve" y="245.241" clip-path="url(#clipPath2)" font-family="sans-serif" stroke="none">dif(A,B)</text>
      <text x="1165.8975" xml:space="preserve" y="259.2097" clip-path="url(#clipPath2)" font-family="sans-serif" stroke="none">succeeds deterministically</text>
    </g>
    <g fill="url(#linearGradient10)" text-rendering="geometricPrecision" shape-rendering="geometricPrecision" transform="matrix(1,0,0,1,-350,87)" stroke="url(#linearGradient10)">
      <path d="M1263.5665 515.8867 L1541.3265 515.8867 L1541.3265 564.2067 L1263.5665 564.2067 Z" stroke="none" clip-path="url(#clipPath2)"/>
    </g>
    <g text-rendering="geometricPrecision" stroke-miterlimit="1.45" shape-rendering="geometricPrecision" transform="matrix(1,0,0,1,-350,87)" stroke-linecap="butt">
      <path fill="none" d="M1263.5665 515.8867 L1541.3265 515.8867 L1541.3265 564.2067 L1263.5665 564.2067 Z" clip-path="url(#clipPath2)"/>
      <text x="1348.0334" xml:space="preserve" y="530.2322" clip-path="url(#clipPath2)" font-family="sans-serif" stroke="none">When called here,</text>
      <text x="1380.0491" xml:space="preserve" y="544.201" clip-path="url(#clipPath2)" font-family="sans-serif" stroke="none">dif(A,B)</text>
      <text x="1350.8284" xml:space="preserve" y="558.1697" clip-path="url(#clipPath2)" font-family="sans-serif" stroke="none">fails immediately</text>
    </g>
    <g fill="url(#linearGradient11)" text-rendering="geometricPrecision" shape-rendering="geometricPrecision" transform="matrix(1,0,0,1,-350,87)" stroke="url(#linearGradient11)">
      <path d="M416.2065 382.5267 L693.9665 382.5267 L693.9665 430.8467 L416.2065 430.8467 Z" stroke="none" clip-path="url(#clipPath2)"/>
    </g>
    <g text-rendering="geometricPrecision" stroke-miterlimit="1.45" shape-rendering="geometricPrecision" transform="matrix(1,0,0,1,-350,87)" stroke-linecap="butt">
      <path fill="none" d="M416.2065 382.5267 L693.9665 382.5267 L693.9665 430.8467 L416.2065 430.8467 Z" clip-path="url(#clipPath2)"/>
      <text x="500.6734" xml:space="preserve" y="396.8722" clip-path="url(#clipPath2)" font-family="sans-serif" stroke="none">When called here,</text>
      <text x="532.689" xml:space="preserve" y="410.841" clip-path="url(#clipPath2)" font-family="sans-serif" stroke="none">dif(A,B)</text>
      <text x="479.7994" xml:space="preserve" y="424.8097" clip-path="url(#clipPath2)" font-family="sans-serif" stroke="none">succeeds "optimistically"</text>
    </g>
    <g fill="url(#linearGradient12)" text-rendering="geometricPrecision" shape-rendering="geometricPrecision" transform="matrix(1,0,0,1,-350,87)" stroke="url(#linearGradient12)">
      <path d="M491.5665 -31.8733 L697.9665 -31.8733 L697.9665 121.8867 L491.5665 121.8867 Z" stroke="none" clip-path="url(#clipPath2)"/>
    </g>
    <g text-rendering="geometricPrecision" stroke-miterlimit="1.45" stroke-dasharray="6,2" shape-rendering="geometricPrecision" transform="matrix(1,0,0,1,-350,87)" stroke-linecap="butt">
      <path fill="none" d="M491.5665 -31.8733 L697.9665 -31.8733 L697.9665 121.8867 L491.5665 121.8867 Z" clip-path="url(#clipPath2)"/>
      <text x="559.701" y="-6.714" clip-path="url(#clipPath2)" font-family="sans-serif" stroke-dasharray="none" stroke="none" xml:space="preserve">A and B are</text>
      <text x="503.1581" y="7.2547" clip-path="url(#clipPath2)" font-family="sans-serif" stroke-dasharray="none" stroke="none" xml:space="preserve">"refined" (made more precise)</text>
      <text x="511.6483" y="21.2235" clip-path="url(#clipPath2)" font-family="sans-serif" stroke-dasharray="none" stroke="none" xml:space="preserve">as the program progresses:</text>
      <text x="592.8593" y="35.1922" clip-path="url(#clipPath2)" font-family="sans-serif" stroke-dasharray="none" stroke="none" xml:space="preserve"> </text>
      <text x="528.2274" y="49.161" clip-path="url(#clipPath2)" font-family="sans-serif" stroke-dasharray="none" stroke="none" xml:space="preserve">freshvars in the terms</text>
      <text x="518.3368" y="63.1297" clip-path="url(#clipPath2)" font-family="sans-serif" stroke-dasharray="none" stroke="none" xml:space="preserve">designated by A or B are </text>
      <text x="556.8827" y="77.0985" clip-path="url(#clipPath2)" font-family="sans-serif" stroke-dasharray="none" stroke="none" xml:space="preserve">instantiated.</text>
      <text x="592.8593" y="91.0672" clip-path="url(#clipPath2)" font-family="sans-serif" stroke-dasharray="none" stroke="none" xml:space="preserve"> </text>
      <text x="515.8085" y="105.036" clip-path="url(#clipPath2)" font-family="sans-serif" stroke-dasharray="none" stroke="none" xml:space="preserve">e.g. A=f(X,Y) --&gt; A=f(x,Y).</text>
    </g>
    <g fill="url(#linearGradient13)" text-rendering="geometricPrecision" shape-rendering="geometricPrecision" transform="matrix(1,0,0,1,-350,87)" stroke="url(#linearGradient13)">
      <path d="M416.2065 258.0467 L693.9665 258.0467 L693.9665 298.0467 L416.2065 298.0467 Z" stroke="none" clip-path="url(#clipPath2)"/>
    </g>
    <g text-rendering="geometricPrecision" stroke-miterlimit="1.45" shape-rendering="geometricPrecision" transform="matrix(1,0,0,1,-350,87)" stroke-linecap="butt">
      <path fill="none" d="M416.2065 258.0467 L693.9665 258.0467 L693.9665 298.0467 L416.2065 298.0467 Z" clip-path="url(#clipPath2)"/>
      <text x="533.1929" xml:space="preserve" y="275.2166" clip-path="url(#clipPath2)" font-family="sans-serif" stroke="none">State A</text>
      <text x="520.1324" xml:space="preserve" y="289.1853" clip-path="url(#clipPath2)" font-family="sans-serif" stroke="none">"Unrefined"</text>
    </g>
    <g fill="url(#linearGradient14)" text-rendering="geometricPrecision" shape-rendering="geometricPrecision" transform="matrix(1,0,0,1,-350,87)" stroke="url(#linearGradient14)">
      <path d="M502.12 -71.8733 L708.52 -71.8733 L708.52 -31.8733 L502.12 -31.8733 Z" stroke="none" clip-path="url(#clipPath2)"/>
    </g>
    <g text-rendering="geometricPrecision" stroke-miterlimit="1.45" stroke-dasharray="6,2" shape-rendering="geometricPrecision" transform="matrix(1,0,0,1,-350,87)" stroke-linecap="butt">
      <path fill="none" d="M502.12 -71.8733 L708.52 -71.8733 L708.52 -31.8733 L502.12 -31.8733 Z" clip-path="url(#clipPath2)"/>
      <text x="549.6911" y="-47.719" clip-path="url(#clipPath2)" font-family="sans-serif" stroke-dasharray="none" stroke="none" xml:space="preserve">Refinement Action</text>
    </g>
    <g fill="url(#linearGradient15)" text-rendering="geometricPrecision" shape-rendering="geometricPrecision" transform="matrix(1,0,0,1,-350,87)" stroke="url(#linearGradient15)">
      <circle r="10" clip-path="url(#clipPath2)" cx="786.12" cy="278.0467" stroke="none"/>
    </g>
    <g text-rendering="geometricPrecision" stroke-miterlimit="1.45" shape-rendering="geometricPrecision" transform="matrix(1,0,0,1,-350,87)" stroke-linecap="butt">
      <circle fill="none" r="10" clip-path="url(#clipPath2)" cx="786.12" cy="278.0467"/>
    </g>
    <g fill="url(#linearGradient16)" text-rendering="geometricPrecision" shape-rendering="geometricPrecision" transform="matrix(1,0,0,1,-350,87)" stroke="url(#linearGradient16)">
      <path d="M911.4505 83.2467 L1025.2465 83.2467 L1004.6425 164.0467 L890.8465 164.0467 Z" stroke="none" clip-path="url(#clipPath2)"/>
    </g>
    <g text-rendering="geometricPrecision" stroke-miterlimit="1.45" shape-rendering="geometricPrecision" transform="matrix(1,0,0,1,-350,87)" stroke-linecap="butt">
      <path fill="none" d="M911.4505 83.2467 L1025.2465 83.2467 L1004.6425 164.0467 L890.8465 164.0467 Z" clip-path="url(#clipPath2)"/>
      <text x="924.4869" xml:space="preserve" y="99.8635" clip-path="url(#clipPath2)" font-family="sans-serif" stroke="none">The "open"</text>
      <text x="935.649" xml:space="preserve" y="113.8322" clip-path="url(#clipPath2)" font-family="sans-serif" stroke="none">dif(A,B)</text>
      <text x="925.4449" xml:space="preserve" y="127.801" clip-path="url(#clipPath2)" font-family="sans-serif" stroke="none">expression</text>
      <text x="926.5641" xml:space="preserve" y="141.7697" clip-path="url(#clipPath2)" font-family="sans-serif" stroke="none">is "closed"</text>
      <text x="934.6149" xml:space="preserve" y="155.7385" clip-path="url(#clipPath2)" font-family="sans-serif" stroke="none">silently.</text>
    </g>
    <g fill="url(#linearGradient17)" text-rendering="geometricPrecision" shape-rendering="geometricPrecision" transform="matrix(1,0,0,1,-350,87)" stroke="url(#linearGradient17)">
      <path d="M896.9185 375.7267 L1104.0465 375.7267 L1079.9745 470.1267 L872.8465 470.1267 Z" stroke="none" clip-path="url(#clipPath2)"/>
    </g>
    <g text-rendering="geometricPrecision" stroke-miterlimit="1.45" shape-rendering="geometricPrecision" transform="matrix(1,0,0,1,-350,87)" stroke-linecap="butt">
      <path fill="none" d="M896.9185 375.7267 L1104.0465 375.7267 L1079.9745 470.1267 L872.8465 470.1267 Z" clip-path="url(#clipPath2)"/>
      <text x="942.9367" xml:space="preserve" y="392.1591" clip-path="url(#clipPath2)" font-family="sans-serif" stroke="none">The program is</text>
      <text x="906.0959" xml:space="preserve" y="406.1278" clip-path="url(#clipPath2)" font-family="sans-serif" stroke="none">unwinded back to the point</text>
      <text x="917.6418" xml:space="preserve" y="420.0966" clip-path="url(#clipPath2)" font-family="sans-serif" stroke="none">the dif(A,B) was issued.</text>
      <text x="986.5392" xml:space="preserve" y="434.0653" clip-path="url(#clipPath2)" font-family="sans-serif" stroke="none"> </text>
      <text x="909.8049" xml:space="preserve" y="448.0341" clip-path="url(#clipPath2)" font-family="sans-serif" stroke="none">The program continues as</text>
      <text x="926.7297" xml:space="preserve" y="462.0028" clip-path="url(#clipPath2)" font-family="sans-serif" stroke="none">if dif(A,B) had failed.</text>
    </g>
    <g fill="url(#linearGradient18)" text-rendering="geometricPrecision" shape-rendering="geometricPrecision" transform="matrix(1,0,0,1,-350,87)" stroke="url(#linearGradient18)">
      <path d="M429.5465 476.0533 L697.9665 476.0533 L680.6265 544.0533 L412.2065 544.0533 Z" stroke="none" clip-path="url(#clipPath2)"/>
    </g>
    <g text-rendering="geometricPrecision" stroke-miterlimit="1.45" shape-rendering="geometricPrecision" transform="matrix(1,0,0,1,-350,87)" stroke-linecap="butt">
      <path fill="none" d="M429.5465 476.0533 L697.9665 476.0533 L680.6265 544.0533 L412.2065 544.0533 Z" clip-path="url(#clipPath2)"/>
      <text x="455.5211" xml:space="preserve" y="500.2389" clip-path="url(#clipPath2)" font-family="sans-serif" stroke="none">If we are still in State A on return</text>
      <text x="473.3336" xml:space="preserve" y="514.2076" clip-path="url(#clipPath2)" font-family="sans-serif" stroke="none">to the toplevel, the "open" </text>
      <text x="465.2125" xml:space="preserve" y="528.1764" clip-path="url(#clipPath2)" font-family="sans-serif" stroke="none">dif/2 expression is printed out</text>
    </g>
    <g fill="url(#linearGradient19)" text-rendering="geometricPrecision" shape-rendering="geometricPrecision" transform="matrix(1,0,0,1,-350,87)" stroke="url(#linearGradient19)">
      <circle r="7.52" clip-path="url(#clipPath2)" cx="555.0865" cy="585.92" stroke="none"/>
    </g>
    <g text-rendering="geometricPrecision" stroke-miterlimit="1.45" shape-rendering="geometricPrecision" transform="matrix(1,0,0,1,-350,87)" stroke-linecap="butt">
      <circle fill="none" r="7.52" clip-path="url(#clipPath2)" cx="555.0865" cy="585.92"/>
    </g>
    <g fill="url(#linearGradient20)" text-rendering="geometricPrecision" shape-rendering="geometricPrecision" transform="matrix(1,0,0,1,-350,87)" stroke="url(#linearGradient20)">
      <path d="M884.365 484.32 L1091.4929 484.32 L1067.421 578.72 L860.293 578.72 Z" stroke="none" clip-path="url(#clipPath2)"/>
    </g>
    <g text-rendering="geometricPrecision" stroke-miterlimit="1.45" shape-rendering="geometricPrecision" transform="matrix(1,0,0,1,-350,87)" stroke-linecap="butt">
      <path fill="none" d="M884.365 484.32 L1091.4929 484.32 L1067.421 578.72 L860.293 578.72 Z" clip-path="url(#clipPath2)"/>
      <text x="898.7592" font-size="10px" y="511.7007" clip-path="url(#clipPath2)" font-family="sans-serif" stroke="none" xml:space="preserve">We cannot really enter State C</text>
      <text x="894.809" font-size="10px" y="523.3413" clip-path="url(#clipPath2)" font-family="sans-serif" stroke="none" xml:space="preserve">from State A if dif(A,B) has been</text>
      <text x="897.0428" font-size="10px" y="534.9819" clip-path="url(#clipPath2)" font-family="sans-serif" stroke="none" xml:space="preserve">issued, as the program rewinds</text>
      <text x="906.8573" font-size="10px" y="546.6226" clip-path="url(#clipPath2)" font-family="sans-serif" stroke="none" xml:space="preserve">back to State A with failing </text>
      <text x="886.64" font-size="10px" y="558.2632" clip-path="url(#clipPath2)" font-family="sans-serif" stroke="none" xml:space="preserve">dif(A,B) instead of entering State C.</text>
    </g>
    <g text-rendering="geometricPrecision" stroke-miterlimit="1.45" shape-rendering="geometricPrecision" transform="matrix(1,0,0,1,-350,87)" stroke-linecap="butt">
      <path fill="none" d="M1384.5328 123.129 L1387.0662 123.0642 L1406.7874 121.3166 L1423.4746 118.404 L1437.1277 114.3264 L1442.8165 111.8507 L1447.7468 109.0838 L1451.9187 106.0256 L1455.3319 102.6761 L1457.9867 99.0354 L1459.8831 95.1034 L1461.0208 90.8802 L1461.4 86.3657 L1461.4 78.081 L1461.0208 73.5665 L1459.8831 69.3433 L1457.9867 65.4113 L1455.3319 61.7706 L1451.9187 58.4211 L1447.7468 55.3629 L1442.8165 52.5959 L1437.1277 50.1203 L1423.4746 46.0426 L1406.7874 43.1301 L1387.0662 41.3825 L1364.3109 40.8 L1342.7356 40.8 L1319.9803 41.3825 L1300.2592 43.1301 L1283.5719 46.0426 L1269.9187 50.1203 L1264.23 52.5959 L1259.2997 55.3629 L1255.1278 58.4211 L1251.7146 61.7706 L1249.0598 65.4113 L1247.1635 69.3433 L1246.0258 73.5665 L1245.6465 78.081 L1245.6465 95.6672" clip-path="url(#clipPath2)"/>
    </g>
    <g text-rendering="geometricPrecision" stroke-miterlimit="1.45" shape-rendering="geometricPrecision" transform="matrix(1,0,0,1,-350,87)" stroke-linecap="butt">
      <path d="M1245.6465 103.6672 L1250.6465 91.6672 L1245.6465 94.6672 L1240.6465 91.6672 Z" stroke="none" clip-path="url(#clipPath2)"/>
      <path fill="none" d="M1541.3329 422.4415 L1543.8662 422.3807 L1563.5874 420.7427 L1580.2745 418.0127 L1593.9277 414.1907 L1599.6165 411.8702 L1604.5468 409.2767 L1608.7186 406.4102 L1612.1318 403.2707 L1614.7866 399.8582 L1616.683 396.1727 L1617.8207 392.2142 L1618.2 387.9827 L1618.2 380.2173 L1617.8207 375.976 L1616.683 371.988 L1614.7866 368.2533 L1612.1318 364.7719 L1608.7186 361.5438 L1604.5468 358.569 L1599.6165 355.8475 L1593.9277 353.3793 L1580.2745 349.203 L1563.5874 346.0399 L1543.8662 343.89 L1521.111 342.7534 L1499.5355 342.1934 L1476.7803 342.1881 L1457.0591 343.4323 L1440.3719 345.9261 L1433.1661 347.6415 L1426.7188 349.6693 L1421.03 352.0095 L1416.0997 354.6621 L1411.9279 357.627 L1408.5146 360.9043 L1405.8599 364.494 L1403.9635 368.3961 L1402.8258 372.6105 L1402.4465 377.1373 L1402.4465 394.9385" clip-path="url(#clipPath2)"/>
      <path d="M1402.4465 402.9385 L1407.4465 390.9385 L1402.4465 393.9385 L1397.4465 390.9385 Z" clip-path="url(#clipPath2)" stroke="none"/>
      <path fill="none" d="M416.1917 275.9379 L411.8019 275.4466 L397.1702 272.1965 L390.9011 270.084 L385.3297 267.6464 L380.4562 264.8839 L376.2805 261.7963 L372.8026 258.3837 L370.0224 254.6461 L367.9401 250.5835 L366.5556 246.1959 L365.8689 241.4833 L365.88 236.4457 L366.52 227.201 L367.1542 222.1634 L368.3369 217.4508 L370.068 213.0632 L372.3475 209.0006 L375.1754 205.263 L378.5519 201.8504 L382.4767 198.7628 L386.95 196.0002 L391.9717 193.5627 L397.5419 191.4501 L410.3275 188.2001 L425.3069 186.25 L442.48 185.6 L458.72 185.6 L476.0118 186.25 L491.3474 188.2001 L504.7267 191.4501 L516.1497 196.0002 L521.1276 198.7628 L525.6165 201.8504 L529.6162 205.263 L533.1269 209.0006 L536.1485 213.0632 L538.681 217.4508 L540.7245 222.1634 L542.2789 227.201 L548.0981 250.3033" clip-path="url(#clipPath2)"/>
      <path d="M550.0522 258.0609 L551.9697 245.2031 L547.8539 249.3336 L542.2725 247.6458 Z" clip-path="url(#clipPath2)" stroke="none"/>
      <path fill="none" d="M693.983 278.0467 L776.0875 278.0467" clip-path="url(#clipPath2)"/>
      <path fill="none" stroke-dasharray="6,2" d="M657.9047 121.8996 L777.2272 267.2166" clip-path="url(#clipPath2)"/>
      <path stroke-dasharray="6,2" d="M779.7656 270.3079 L779.3258 260.3176 L776.5926 266.4437 L770.0517 267.9328 Z" clip-path="url(#clipPath2)" stroke="none"/>
      <path fill="none" d="M787.9551 268.2082 L813.0863 133.4771 L814.5135 129.1763 L816.9615 126.1043 L820.4304 124.2611 L824.92 123.6467 L893.1243 123.6467" clip-path="url(#clipPath2)"/>
      <path d="M901.1243 123.6467 L889.1243 118.6467 L892.1243 123.6467 L889.1243 128.6467 Z" clip-path="url(#clipPath2)" stroke="none"/>
      <path fill="none" d="M1014.9556 123.6467 L1098.787 123.6467" clip-path="url(#clipPath2)"/>
      <path d="M1106.787 123.6467 L1094.787 118.6467 L1097.787 123.6467 L1094.787 128.6467 Z" clip-path="url(#clipPath2)" stroke="none"/>
      <path fill="none" d="M787.0289 287.9859 L811.1597 413.1076 L812.6132 417.4034 L815.08 420.4719 L818.56 422.313 L823.0533 422.9267 L876.9249 422.9267" clip-path="url(#clipPath2)"/>
      <path d="M884.9249 422.9267 L872.9249 417.9267 L875.9249 422.9267 L872.9249 427.9267 Z" clip-path="url(#clipPath2)" stroke="none"/>
      <path fill="none" stroke-dasharray="6,2" d="M1092.0223 422.9267 L1255.5665 422.9267" clip-path="url(#clipPath2)"/>
      <path stroke-dasharray="6,2" d="M1263.5665 422.9267 L1251.5665 417.9267 L1254.5665 422.9267 L1251.5665 427.9267 Z" clip-path="url(#clipPath2)" stroke="none"/>
      <path fill="none" d="M555.0865 430.8375 L555.0865 468.054" clip-path="url(#clipPath2)"/>
      <path d="M555.0865 476.054 L560.0865 464.054 L555.0865 467.054 L550.0865 464.054 Z" clip-path="url(#clipPath2)" stroke="none"/>
      <path fill="none" d="M555.0865 544.0229 L555.0865 570.4326" clip-path="url(#clipPath2)"/>
      <path d="M555.0865 578.4326 L560.0865 566.4326 L555.0865 569.4326 L550.0865 566.4326 Z" clip-path="url(#clipPath2)" stroke="none"/>
      <path fill="none" d="M1091.9779 422.9267 L1157 422.9267 L1161.375 423.5517 L1164.5 425.4267 L1166.375 428.5517 L1167 432.9267 L1167 521.52 L1166.375 525.895 L1164.5 529.02 L1161.375 530.895 L1157 531.52 L1087.4248 531.52" clip-path="url(#clipPath2)"/>
      <path d="M1079.4248 531.52 L1091.4248 536.52 L1088.4248 531.52 L1091.4248 526.52 Z" clip-path="url(#clipPath2)" stroke="none"/>
      <path fill="none" d="M872.2944 531.52 L820.2 531.52 L815.6778 530.9126 L812.1111 529.0903 L809.5001 526.0533 L807.8445 521.8014 L758.9554 320.0853 L757.3391 315.6157 L754.8454 311.9255 L751.4745 309.0147 L747.2263 306.8833 L701.4466 289.8712" clip-path="url(#clipPath2)"/>
      <path d="M693.9476 287.0845 L703.4544 295.9514 L702.384 290.2195 L706.9377 286.5777 Z" clip-path="url(#clipPath2)" stroke="none"/>
    </g>
  </g>
</svg>
