<?xml version="1.0" encoding="UTF-8"?><svg xmlns="http://www.w3.org/2000/svg" xmlns:xlink="http://www.w3.org/1999/xlink" fill-opacity="1" color-rendering="auto" color-interpolation="auto" text-rendering="auto" stroke="black" stroke-linecap="square" width="1338" stroke-miterlimit="10" shape-rendering="auto" stroke-opacity="1" fill="black" stroke-dasharray="none" font-weight="normal" stroke-width="1" height="1223" font-family="'Dialog'" font-style="normal" stroke-linejoin="miter" font-size="12px" stroke-dashoffset="0" image-rendering="auto">
  <!--Generated by ySVG 2.5-->
  <defs id="genericDefs"/>
  <g>
    <defs id="defs1">
      <linearGradient x1="-204.7692" gradientUnits="userSpaceOnUse" x2="39.0799" y1="1028.2374" y2="1203.8936" id="linearGradient1" spreadMethod="reflect">
        <stop stop-opacity="1" stop-color="rgb(183,201,227)" offset="0%"/>
        <stop stop-opacity="1" stop-color="rgb(183,201,227)" offset="100%"/>
      </linearGradient>
      <linearGradient x1="-518.6217" gradientUnits="userSpaceOnUse" x2="-274.7726" y1="752.0811" y2="870.2744" id="linearGradient2" spreadMethod="reflect">
        <stop stop-opacity="1" stop-color="rgb(255,102,0)" offset="0%"/>
        <stop stop-opacity="1" stop-color="rgb(255,102,0)" offset="100%"/>
      </linearGradient>
      <linearGradient x1="101.2049" gradientUnits="userSpaceOnUse" x2="345.054" y1="752.0811" y2="870.2744" id="linearGradient3" spreadMethod="reflect">
        <stop stop-opacity="1" stop-color="lime" offset="0%"/>
        <stop stop-opacity="1" stop-color="lime" offset="100%"/>
      </linearGradient>
      <linearGradient x1="101.2049" gradientUnits="userSpaceOnUse" x2="346.4921" y1="910.0441" y2="982.0441" id="linearGradient4" spreadMethod="reflect">
        <stop stop-opacity="1" stop-color="rgb(183,201,227)" offset="0%"/>
        <stop stop-opacity="1" stop-color="rgb(183,201,227)" offset="100%"/>
      </linearGradient>
      <linearGradient x1="-204.7692" gradientUnits="userSpaceOnUse" x2="39.0799" y1="752.0811" y2="870.2744" id="linearGradient5" spreadMethod="reflect">
        <stop stop-opacity="1" stop-color="yellow" offset="0%"/>
        <stop stop-opacity="1" stop-color="yellow" offset="100%"/>
      </linearGradient>
      <linearGradient x1="-204.7692" gradientUnits="userSpaceOnUse" x2="39.0799" y1="910.0441" y2="1028.2374" id="linearGradient6" spreadMethod="reflect">
        <stop stop-opacity="1" stop-color="rgb(183,201,227)" offset="0%"/>
        <stop stop-opacity="1" stop-color="rgb(183,201,227)" offset="100%"/>
      </linearGradient>
      <linearGradient x1="-214.2906" gradientUnits="userSpaceOnUse" x2="48.6013" y1="346.5433" y2="440.9866" id="linearGradient7" spreadMethod="reflect">
        <stop stop-opacity="1" stop-color="rgb(183,201,227)" offset="0%"/>
        <stop stop-opacity="1" stop-color="rgb(183,201,227)" offset="100%"/>
      </linearGradient>
      <linearGradient x1="-180.3942" gradientUnits="userSpaceOnUse" x2="14.7049" y1="614.7516" y2="686.7516" id="linearGradient8" spreadMethod="reflect">
        <stop stop-opacity="1" stop-color="rgb(183,201,227)" offset="0%"/>
        <stop stop-opacity="1" stop-color="rgb(183,201,227)" offset="100%"/>
      </linearGradient>
      <linearGradient x1="-590.1588" gradientUnits="userSpaceOnUse" x2="-327.2669" y1="346.5433" y2="440.9866" id="linearGradient9" spreadMethod="reflect">
        <stop stop-opacity="1" stop-color="rgb(153,153,153)" offset="0%"/>
        <stop stop-opacity="1" stop-color="rgb(153,153,153)" offset="100%"/>
      </linearGradient>
      <linearGradient x1="-332.4539" gradientUnits="userSpaceOnUse" x2="-188.7039" y1="233.9554" y2="273.9554" id="linearGradient10" spreadMethod="reflect">
        <stop stop-opacity="1" stop-color="rgb(232,238,247)" offset="0%"/>
        <stop stop-opacity="1" stop-color="rgb(183,201,227)" offset="100%"/>
      </linearGradient>
      <linearGradient x1="-332.4539" gradientUnits="userSpaceOnUse" x2="-188.7039" y1="128.9554" y2="168.9554" id="linearGradient11" spreadMethod="reflect">
        <stop stop-opacity="1" stop-color="rgb(232,238,247)" offset="0%"/>
        <stop stop-opacity="1" stop-color="rgb(183,201,227)" offset="100%"/>
      </linearGradient>
      <linearGradient x1="445.2337" gradientUnits="userSpaceOnUse" x2="671.8756" y1="346.5433" y2="440.9866" id="linearGradient12" spreadMethod="reflect">
        <stop stop-opacity="1" stop-color="rgb(153,153,153)" offset="0%"/>
        <stop stop-opacity="1" stop-color="rgb(153,153,153)" offset="100%"/>
      </linearGradient>
      <linearGradient x1="429.1797" gradientUnits="userSpaceOnUse" x2="572.9297" y1="636.4695" y2="676.4695" id="linearGradient13" spreadMethod="reflect">
        <stop stop-opacity="1" stop-color="rgb(232,238,247)" offset="0%"/>
        <stop stop-opacity="1" stop-color="rgb(183,201,227)" offset="100%"/>
      </linearGradient>
      <linearGradient x1="572.9297" gradientUnits="userSpaceOnUse" x2="716.6797" y1="636.4695" y2="676.4695" id="linearGradient14" spreadMethod="reflect">
        <stop stop-opacity="1" stop-color="rgb(232,238,247)" offset="0%"/>
        <stop stop-opacity="1" stop-color="rgb(183,201,227)" offset="100%"/>
      </linearGradient>
      <linearGradient x1="-516.875" gradientUnits="userSpaceOnUse" x2="-373.125" y1="576.5338" y2="616.5338" id="linearGradient15" spreadMethod="reflect">
        <stop stop-opacity="1" stop-color="rgb(232,238,247)" offset="0%"/>
        <stop stop-opacity="1" stop-color="rgb(183,201,227)" offset="100%"/>
      </linearGradient>
      <linearGradient x1="-188.9471" gradientUnits="userSpaceOnUse" x2="28.7996" y1="951.2744" y2="1014.4782" id="linearGradient16" spreadMethod="reflect">
        <stop stop-opacity="1" stop-color="rgb(183,201,227)" offset="0%"/>
        <stop stop-opacity="1" stop-color="rgb(183,201,227)" offset="100%"/>
      </linearGradient>
      <linearGradient x1="-332.4539" gradientUnits="userSpaceOnUse" x2="-188.7039" y1="41.997" y2="81.997" id="linearGradient17" spreadMethod="reflect">
        <stop stop-opacity="1" stop-color="rgb(232,238,247)" offset="0%"/>
        <stop stop-opacity="1" stop-color="rgb(183,201,227)" offset="100%"/>
      </linearGradient>
      <linearGradient x1="206.9175" gradientUnits="userSpaceOnUse" x2="286.9175" y1="373.765" y2="413.765" id="linearGradient18" spreadMethod="reflect">
        <stop stop-opacity="1" stop-color="rgb(232,238,247)" offset="0%"/>
        <stop stop-opacity="1" stop-color="rgb(183,201,227)" offset="100%"/>
      </linearGradient>
      <linearGradient x1="-310.7788" gradientUnits="userSpaceOnUse" x2="-230.7788" y1="373.765" y2="413.765" id="linearGradient19" spreadMethod="reflect">
        <stop stop-opacity="1" stop-color="rgb(232,238,247)" offset="0%"/>
        <stop stop-opacity="1" stop-color="rgb(183,201,227)" offset="100%"/>
      </linearGradient>
      <linearGradient x1="-484.8717" gradientUnits="userSpaceOnUse" x2="-289.7726" y1="1026.968" y2="1083.7681" id="linearGradient20" spreadMethod="reflect">
        <stop stop-opacity="1" stop-color="rgb(255,255,153)" offset="0%"/>
        <stop stop-opacity="1" stop-color="rgb(255,255,153)" offset="100%"/>
      </linearGradient>
      <linearGradient x1="-458.8221" gradientUnits="userSpaceOnUse" x2="-315.8221" y1="1146.436" y2="1218.436" id="linearGradient21" spreadMethod="reflect">
        <stop stop-opacity="1" stop-color="rgb(255,255,153)" offset="0%"/>
        <stop stop-opacity="1" stop-color="rgb(255,255,153)" offset="100%"/>
      </linearGradient>
      <clipPath clipPathUnits="userSpaceOnUse" id="clipPath1">
        <path d="M0 0 L1338 0 L1338 1223 L0 1223 L0 0 Z"/>
      </clipPath>
      <clipPath clipPathUnits="userSpaceOnUse" id="clipPath2">
        <path d="M-606 26 L732 26 L732 1249 L-606 1249 L-606 26 Z"/>
      </clipPath>
    </defs>
    <g fill="white" text-rendering="geometricPrecision" shape-rendering="geometricPrecision" transform="translate(606,-26)" stroke="white">
      <rect x="-606" width="1338" height="1223" y="26" clip-path="url(#clipPath2)" stroke="none"/>
    </g>
    <g fill="url(#linearGradient1)" text-rendering="geometricPrecision" shape-rendering="geometricPrecision" transform="matrix(1,0,0,1,606,-26)" stroke="url(#linearGradient1)">
      <path d="M-204.7692 1028.2374 L39.0799 1028.2374 L39.0799 1203.8936 L-204.7692 1203.8936 Z" stroke="none" clip-path="url(#clipPath2)"/>
    </g>
    <g text-rendering="geometricPrecision" stroke-miterlimit="1.45" shape-rendering="geometricPrecision" transform="matrix(1,0,0,1,606,-26)" stroke-linecap="butt">
      <path fill="none" d="M-204.7692 1028.2374 L39.0799 1028.2374 L39.0799 1203.8936 L-204.7692 1203.8936 Z" clip-path="url(#clipPath2)"/>
      <text x="-198.7692" xml:space="preserve" y="1057.3604" clip-path="url(#clipPath2)" font-family="sans-serif" stroke="none">Henceforth, any unification </text>
      <text x="-198.7692" xml:space="preserve" y="1071.3291" clip-path="url(#clipPath2)" font-family="sans-serif" stroke="none">involving the terms named in the dif</text>
      <text x="-198.7692" xml:space="preserve" y="1085.2979" clip-path="url(#clipPath2)" font-family="sans-serif" stroke="none">constraint will lead to a constraint</text>
      <text x="-198.7692" xml:space="preserve" y="1099.2666" clip-path="url(#clipPath2)" font-family="sans-serif" stroke="none">check, which behaves like a "veto" on</text>
      <text x="-198.7692" xml:space="preserve" y="1113.2354" clip-path="url(#clipPath2)" font-family="sans-serif" stroke="none">unification.</text>
      <text x="-198.7692" xml:space="preserve" y="1127.2041" clip-path="url(#clipPath2)" font-family="sans-serif" stroke="none"> </text>
      <text x="-198.7692" xml:space="preserve" y="1141.1729" clip-path="url(#clipPath2)" font-family="sans-serif" stroke="none">Powerful when it is triggered for a</text>
      <text x="-198.7692" xml:space="preserve" y="1155.1416" clip-path="url(#clipPath2)" font-family="sans-serif" stroke="none">clause head - the dif constraint</text>
      <text x="-198.7692" xml:space="preserve" y="1169.1104" clip-path="url(#clipPath2)" font-family="sans-serif" stroke="none">removes certain clauses from</text>
      <text x="-198.7692" xml:space="preserve" y="1183.0791" clip-path="url(#clipPath2)" font-family="sans-serif" stroke="none">consideration!</text>
    </g>
    <g fill="url(#linearGradient2)" text-rendering="geometricPrecision" shape-rendering="geometricPrecision" transform="matrix(1,0,0,1,606,-26)" stroke="url(#linearGradient2)">
      <path d="M-518.6217 752.0811 L-274.7726 752.0811 L-274.7726 870.2744 L-518.6217 870.2744 Z" stroke="none" clip-path="url(#clipPath2)"/>
    </g>
    <g text-rendering="geometricPrecision" stroke-miterlimit="1.45" shape-rendering="geometricPrecision" transform="matrix(1,0,0,1,606,-26)" stroke-linecap="butt">
      <path fill="none" d="M-518.6217 752.0811 L-274.7726 752.0811 L-274.7726 870.2744 L-518.6217 870.2744 Z" clip-path="url(#clipPath2)"/>
      <text x="-433.9569" xml:space="preserve" y="773.4258" clip-path="url(#clipPath2)" font-family="sans-serif" stroke="none">"IDENTICAL"</text>
      <text x="-403.1922" xml:space="preserve" y="787.3945" clip-path="url(#clipPath2)" font-family="sans-serif" stroke="none">---</text>
      <text x="-418.787" xml:space="preserve" y="801.3633" clip-path="url(#clipPath2)" font-family="sans-serif" stroke="none">A == B</text>
      <text x="-403.1922" xml:space="preserve" y="815.332" clip-path="url(#clipPath2)" font-family="sans-serif" stroke="none">---</text>
      <text x="-459.2137" xml:space="preserve" y="829.3008" clip-path="url(#clipPath2)" font-family="sans-serif" stroke="none">The two terms in the</text>
      <text x="-466.1952" xml:space="preserve" y="843.2695" clip-path="url(#clipPath2)" font-family="sans-serif" stroke="none">constraint are identical</text>
      <text x="-460.4559" xml:space="preserve" y="857.2383" clip-path="url(#clipPath2)" font-family="sans-serif" stroke="none">(and thus also unify).</text>
    </g>
    <g fill="url(#linearGradient3)" text-rendering="geometricPrecision" shape-rendering="geometricPrecision" transform="matrix(1,0,0,1,606,-26)" stroke="url(#linearGradient3)">
      <path d="M101.2049 752.0811 L345.054 752.0811 L345.054 870.2744 L101.2049 870.2744 Z" stroke="none" clip-path="url(#clipPath2)"/>
    </g>
    <g text-rendering="geometricPrecision" stroke-miterlimit="1.45" shape-rendering="geometricPrecision" transform="matrix(1,0,0,1,606,-26)" stroke-linecap="butt">
      <path fill="none" d="M101.2049 752.0811 L345.054 752.0811 L345.054 870.2744 L101.2049 870.2744 Z" clip-path="url(#clipPath2)"/>
      <text x="148.1529" xml:space="preserve" y="773.4258" clip-path="url(#clipPath2)" font-family="sans-serif" stroke="none">"DEFINITELY DIFFERENT"</text>
      <text x="216.6344" xml:space="preserve" y="787.3945" clip-path="url(#clipPath2)" font-family="sans-serif" stroke="none">---</text>
      <text x="204.0455" xml:space="preserve" y="801.3633" clip-path="url(#clipPath2)" font-family="sans-serif" stroke="none">A \= B</text>
      <text x="216.6344" xml:space="preserve" y="815.332" clip-path="url(#clipPath2)" font-family="sans-serif" stroke="none">---</text>
      <text x="160.6129" xml:space="preserve" y="829.3008" clip-path="url(#clipPath2)" font-family="sans-serif" stroke="none">The two terms in the</text>
      <text x="141.2652" xml:space="preserve" y="843.2695" clip-path="url(#clipPath2)" font-family="sans-serif" stroke="none">constraint do not (and thus</text>
      <text x="166.1265" xml:space="preserve" y="857.2383" clip-path="url(#clipPath2)" font-family="sans-serif" stroke="none">cannot ever) unify.</text>
    </g>
    <g fill="url(#linearGradient4)" text-rendering="geometricPrecision" shape-rendering="geometricPrecision" transform="matrix(1,0,0,1,606,-26)" stroke="url(#linearGradient4)">
      <path d="M101.2049 910.0441 L346.4921 910.0441 L346.4921 982.0441 L101.2049 982.0441 Z" stroke="none" clip-path="url(#clipPath2)"/>
    </g>
    <g text-rendering="geometricPrecision" stroke-miterlimit="1.45" shape-rendering="geometricPrecision" transform="matrix(1,0,0,1,606,-26)" stroke-linecap="butt">
      <path fill="none" d="M101.2049 910.0441 L346.4921 910.0441 L346.4921 982.0441 L101.2049 982.0441 Z" clip-path="url(#clipPath2)"/>
      <text x="149.0155" xml:space="preserve" y="943.214" clip-path="url(#clipPath2)" font-family="sans-serif" stroke="none">No need for a constraint.</text>
      <text x="144.6356" xml:space="preserve" y="957.1827" clip-path="url(#clipPath2)" font-family="sans-serif" stroke="none">Succeed deterministically.</text>
    </g>
    <g fill="url(#linearGradient5)" text-rendering="geometricPrecision" shape-rendering="geometricPrecision" transform="matrix(1,0,0,1,606,-26)" stroke="url(#linearGradient5)">
      <path d="M-204.7692 752.0811 L39.0799 752.0811 L39.0799 870.2744 L-204.7692 870.2744 Z" stroke="none" clip-path="url(#clipPath2)"/>
    </g>
    <g text-rendering="geometricPrecision" stroke-miterlimit="1.45" shape-rendering="geometricPrecision" transform="matrix(1,0,0,1,606,-26)" stroke-linecap="butt">
      <path fill="none" d="M-204.7692 752.0811 L39.0799 752.0811 L39.0799 870.2744 L-204.7692 870.2744 Z" clip-path="url(#clipPath2)"/>
      <text x="-152.3192" xml:space="preserve" y="773.4258" clip-path="url(#clipPath2)" font-family="sans-serif" stroke="none">"POSSIBLY DIFFERENT"</text>
      <text x="-89.3398" xml:space="preserve" y="787.3945" clip-path="url(#clipPath2)" font-family="sans-serif" stroke="none">---</text>
      <text x="-145.745" xml:space="preserve" y="801.3633" clip-path="url(#clipPath2)" font-family="sans-serif" stroke="none">\+ \+ A = B, A \== B</text>
      <text x="-89.3398" xml:space="preserve" y="815.332" clip-path="url(#clipPath2)" font-family="sans-serif" stroke="none">---</text>
      <text x="-145.3612" xml:space="preserve" y="829.3008" clip-path="url(#clipPath2)" font-family="sans-serif" stroke="none">The two terms in the</text>
      <text x="-138.4442" xml:space="preserve" y="843.2695" clip-path="url(#clipPath2)" font-family="sans-serif" stroke="none">constraint are not </text>
      <text x="-192.5819" xml:space="preserve" y="857.2383" clip-path="url(#clipPath2)" font-family="sans-serif" stroke="none">identical but (at least for now) unify.</text>
    </g>
    <g fill="url(#linearGradient6)" text-rendering="geometricPrecision" shape-rendering="geometricPrecision" transform="matrix(1,0,0,1,606,-26)" stroke="url(#linearGradient6)">
      <path d="M-204.7692 910.0441 L39.0799 910.0441 L39.0799 1028.2374 L-204.7692 1028.2374 Z" stroke="none" clip-path="url(#clipPath2)"/>
    </g>
    <g text-rendering="geometricPrecision" stroke-miterlimit="1.45" shape-rendering="geometricPrecision" transform="matrix(1,0,0,1,606,-26)" stroke-linecap="butt">
      <path fill="none" d="M-204.7692 910.0441 L39.0799 910.0441 L39.0799 1028.2374 L-204.7692 1028.2374 Z" clip-path="url(#clipPath2)"/>
      <text x="-138.8456" xml:space="preserve" y="927.1827" clip-path="url(#clipPath2)" font-family="sans-serif" stroke="none">Constraint upheld!</text>
    </g>
    <g fill="url(#linearGradient7)" text-rendering="geometricPrecision" shape-rendering="geometricPrecision" transform="matrix(1,0,0,1,606,-26)" stroke="url(#linearGradient7)">
      <path d="M-214.2906 346.5433 L48.6013 346.5433 L48.6013 440.9866 L-214.2906 440.9866 Z" stroke="none" clip-path="url(#clipPath2)"/>
    </g>
    <g text-rendering="geometricPrecision" stroke-miterlimit="1.45" shape-rendering="geometricPrecision" transform="matrix(1,0,0,1,606,-26)" stroke-linecap="butt">
      <path fill="none" d="M-214.2906 346.5433 L48.6013 346.5433 L48.6013 440.9866 L-214.2906 440.9866 Z" clip-path="url(#clipPath2)"/>
      <text x="-148.203" xml:space="preserve" y="376.9661" clip-path="url(#clipPath2)" font-family="sans-serif" stroke="none">dif(A,B) is called, with</text>
      <text x="-153.5966" xml:space="preserve" y="390.9349" clip-path="url(#clipPath2)" font-family="sans-serif" stroke="none">A and B arbitrary terms</text>
      <text x="-157.6454" xml:space="preserve" y="404.9036" clip-path="url(#clipPath2)" font-family="sans-serif" stroke="none">(ground, partially or fully</text>
      <text x="-128.7675" xml:space="preserve" y="418.8724" clip-path="url(#clipPath2)" font-family="sans-serif" stroke="none">uninstantiated)</text>
    </g>
    <g fill="url(#linearGradient8)" text-rendering="geometricPrecision" shape-rendering="geometricPrecision" transform="matrix(1,0,0,1,606,-26)" stroke="url(#linearGradient8)">
      <path d="M-180.3942 614.7516 L14.7049 614.7516 L14.7049 686.7516 L-180.3942 686.7516 Z" stroke="none" clip-path="url(#clipPath2)"/>
    </g>
    <g text-rendering="geometricPrecision" stroke-miterlimit="1.45" shape-rendering="geometricPrecision" transform="matrix(1,0,0,1,606,-26)" stroke-linecap="butt">
      <path fill="none" d="M-180.3942 614.7516 L14.7049 614.7516 L14.7049 686.7516 L-180.3942 686.7516 Z" clip-path="url(#clipPath2)"/>
      <text x="-159.8398" xml:space="preserve" y="647.9216" clip-path="url(#clipPath2)" font-family="sans-serif" stroke="none">The terms involved in the</text>
      <text x="-132.4325" xml:space="preserve" y="661.8903" clip-path="url(#clipPath2)" font-family="sans-serif" stroke="none">constraint are ...</text>
    </g>
    <g fill="url(#linearGradient9)" text-rendering="geometricPrecision" shape-rendering="geometricPrecision" transform="matrix(1,0,0,1,606,-26)" stroke="url(#linearGradient9)">
      <path d="M-590.1588 346.5433 L-327.2669 346.5433 L-327.2669 440.9866 L-590.1588 440.9866 Z" stroke="none" clip-path="url(#clipPath2)"/>
    </g>
    <g text-rendering="geometricPrecision" stroke-miterlimit="1.45" shape-rendering="geometricPrecision" transform="matrix(1,0,0,1,606,-26)" stroke-linecap="butt">
      <path fill="none" d="M-590.1588 346.5433 L-327.2669 346.5433 L-327.2669 440.9866 L-590.1588 440.9866 Z" clip-path="url(#clipPath2)"/>
      <text x="-496.5234" xml:space="preserve" y="383.9505" clip-path="url(#clipPath2)" font-family="sans-serif" stroke="none">Previous call</text>
      <text x="-460.6201" xml:space="preserve" y="397.9193" clip-path="url(#clipPath2)" font-family="sans-serif" stroke="none"> </text>
      <text x="-505.8984" xml:space="preserve" y="411.888" clip-path="url(#clipPath2)" font-family="sans-serif" stroke="none">...if there is one</text>
    </g>
    <g fill="url(#linearGradient10)" text-rendering="geometricPrecision" shape-rendering="geometricPrecision" transform="matrix(1,0,0,1,606,-26)" stroke="url(#linearGradient10)">
      <path d="M-322.2539 233.9554 L-188.7039 233.9554 L-198.9039 273.9554 L-332.4539 273.9554 Z" stroke="none" clip-path="url(#clipPath2)"/>
    </g>
    <g text-rendering="geometricPrecision" stroke-miterlimit="1.45" shape-rendering="geometricPrecision" transform="matrix(1,0,0,1,606,-26)" stroke-linecap="butt">
      <path fill="none" d="M-322.2539 233.9554 L-188.7039 233.9554 L-198.9039 273.9554 L-332.4539 273.9554 Z" clip-path="url(#clipPath2)"/>
      <text x="-290.4148" xml:space="preserve" y="258.1096" clip-path="url(#clipPath2)" font-family="sans-serif" stroke="none">Backtrack</text>
    </g>
    <g fill="url(#linearGradient11)" text-rendering="geometricPrecision" shape-rendering="geometricPrecision" transform="matrix(1,0,0,1,606,-26)" stroke="url(#linearGradient11)">
      <path d="M-322.2539 128.9554 L-188.7039 128.9554 L-198.9039 168.9554 L-332.4539 168.9554 Z" stroke="none" clip-path="url(#clipPath2)"/>
    </g>
    <g text-rendering="geometricPrecision" stroke-miterlimit="1.45" shape-rendering="geometricPrecision" transform="matrix(1,0,0,1,606,-26)" stroke-linecap="butt">
      <path fill="none" d="M-322.2539 128.9554 L-188.7039 128.9554 L-198.9039 168.9554 L-332.4539 168.9554 Z" clip-path="url(#clipPath2)"/>
      <text x="-317.0984" xml:space="preserve" y="153.1096" clip-path="url(#clipPath2)" font-family="sans-serif" stroke="none">Proceed with proof</text>
    </g>
    <g fill="url(#linearGradient12)" text-rendering="geometricPrecision" shape-rendering="geometricPrecision" transform="matrix(1,0,0,1,606,-26)" stroke="url(#linearGradient12)">
      <path d="M445.2337 346.5433 L671.8756 346.5433 L671.8756 440.9866 L445.2337 440.9866 Z" stroke="none" clip-path="url(#clipPath2)"/>
    </g>
    <g text-rendering="geometricPrecision" stroke-miterlimit="1.45" shape-rendering="geometricPrecision" transform="matrix(1,0,0,1,606,-26)" stroke-linecap="butt">
      <path fill="none" d="M445.2337 346.5433 L671.8756 346.5433 L671.8756 440.9866 L445.2337 440.9866 Z" clip-path="url(#clipPath2)"/>
      <text x="532.2549" xml:space="preserve" y="383.9505" clip-path="url(#clipPath2)" font-family="sans-serif" stroke="none">Next call</text>
      <text x="556.6475" xml:space="preserve" y="397.9193" clip-path="url(#clipPath2)" font-family="sans-serif" stroke="none"> </text>
      <text x="511.3691" xml:space="preserve" y="411.888" clip-path="url(#clipPath2)" font-family="sans-serif" stroke="none">...if there is one</text>
    </g>
    <g fill="url(#linearGradient13)" text-rendering="geometricPrecision" shape-rendering="geometricPrecision" transform="matrix(1,0,0,1,606,-26)" stroke="url(#linearGradient13)">
      <path d="M439.3797 636.4695 L572.9297 636.4695 L562.7297 676.4695 L429.1797 676.4695 Z" stroke="none" clip-path="url(#clipPath2)"/>
    </g>
    <g text-rendering="geometricPrecision" stroke-miterlimit="1.45" shape-rendering="geometricPrecision" transform="matrix(1,0,0,1,606,-26)" stroke-linecap="butt">
      <path fill="none" d="M439.3797 636.4695 L572.9297 636.4695 L562.7297 676.4695 L429.1797 676.4695 Z" clip-path="url(#clipPath2)"/>
      <text x="444.5351" xml:space="preserve" y="660.6238" clip-path="url(#clipPath2)" font-family="sans-serif" stroke="none">Proceed with proof</text>
    </g>
    <g fill="url(#linearGradient14)" text-rendering="geometricPrecision" shape-rendering="geometricPrecision" transform="matrix(1,0,0,1,606,-26)" stroke="url(#linearGradient14)">
      <path d="M583.1297 636.4695 L716.6797 636.4695 L706.4797 676.4695 L572.9297 676.4695 Z" stroke="none" clip-path="url(#clipPath2)"/>
    </g>
    <g text-rendering="geometricPrecision" stroke-miterlimit="1.45" shape-rendering="geometricPrecision" transform="matrix(1,0,0,1,606,-26)" stroke-linecap="butt">
      <path fill="none" d="M583.1297 636.4695 L716.6797 636.4695 L706.4797 676.4695 L572.9297 676.4695 Z" clip-path="url(#clipPath2)"/>
      <text x="588.2852" xml:space="preserve" y="660.6238" clip-path="url(#clipPath2)" font-family="sans-serif" stroke="none">Proceed with proof</text>
    </g>
    <g fill="url(#linearGradient15)" text-rendering="geometricPrecision" shape-rendering="geometricPrecision" transform="matrix(1,0,0,1,606,-26)" stroke="url(#linearGradient15)">
      <path d="M-506.675 576.5338 L-373.125 576.5338 L-383.325 616.5338 L-516.875 616.5338 Z" stroke="none" clip-path="url(#clipPath2)"/>
    </g>
    <g text-rendering="geometricPrecision" stroke-miterlimit="1.45" shape-rendering="geometricPrecision" transform="matrix(1,0,0,1,606,-26)" stroke-linecap="butt">
      <path fill="none" d="M-506.675 576.5338 L-373.125 576.5338 L-383.325 616.5338 L-516.875 616.5338 Z" clip-path="url(#clipPath2)"/>
      <text x="-474.8359" xml:space="preserve" y="600.6881" clip-path="url(#clipPath2)" font-family="sans-serif" stroke="none">Backtrack</text>
    </g>
    <g fill="url(#linearGradient16)" text-rendering="geometricPrecision" shape-rendering="geometricPrecision" transform="matrix(1,0,0,1,606,-26)" stroke="url(#linearGradient16)">
      <path d="M-188.9471 951.2744 L28.7996 951.2744 L28.7996 1014.4782 L-188.9471 1014.4782 Z" stroke="none" clip-path="url(#clipPath2)"/>
    </g>
    <g stroke-linecap="butt" transform="matrix(1,0,0,1,606,-26)" fill="rgb(153,153,153)" text-rendering="geometricPrecision" shape-rendering="geometricPrecision" stroke="rgb(153,153,153)" stroke-miterlimit="1.45">
      <path fill="none" d="M-188.9471 951.2744 L28.7996 951.2744 L28.7996 1014.4782 L-188.9471 1014.4782 Z" clip-path="url(#clipPath2)"/>
      <text x="-182.9471" y="980.0462" clip-path="url(#clipPath2)" fill="black" font-family="sans-serif" stroke="none" xml:space="preserve">The constraint may be rewritten</text>
      <text x="-182.9471" y="994.015" clip-path="url(#clipPath2)" fill="black" font-family="sans-serif" stroke="none" xml:space="preserve">to a simpler version.</text>
    </g>
    <g fill="url(#linearGradient17)" text-rendering="geometricPrecision" shape-rendering="geometricPrecision" transform="matrix(1,0,0,1,606,-26)" stroke="url(#linearGradient17)">
      <path d="M-322.2539 41.997 L-188.7039 41.997 L-198.9039 81.997 L-332.4539 81.997 Z" stroke="none" clip-path="url(#clipPath2)"/>
    </g>
    <g text-rendering="geometricPrecision" stroke-miterlimit="1.45" shape-rendering="geometricPrecision" transform="matrix(1,0,0,1,606,-26)" stroke-linecap="butt">
      <path fill="none" d="M-322.2539 41.997 L-188.7039 41.997 L-198.9039 81.997 L-332.4539 81.997 Z" clip-path="url(#clipPath2)"/>
      <text x="-290.4148" xml:space="preserve" y="66.1513" clip-path="url(#clipPath2)" font-family="sans-serif" stroke="none">Backtrack</text>
    </g>
    <g fill="url(#linearGradient18)" text-rendering="geometricPrecision" shape-rendering="geometricPrecision" transform="matrix(1,0,0,1,606,-26)" stroke="url(#linearGradient18)">
      <circle r="20" clip-path="url(#clipPath2)" cx="246.9175" cy="393.7649" stroke="none"/>
    </g>
    <g text-rendering="geometricPrecision" stroke-miterlimit="1.45" shape-rendering="geometricPrecision" transform="matrix(1,0,0,1,606,-26)" stroke-linecap="butt">
      <circle fill="none" r="20" clip-path="url(#clipPath2)" cx="246.9175" cy="393.7649"/>
      <text x="240.5601" font-size="40px" y="407.6126" clip-path="url(#clipPath2)" font-family="sans-serif" stroke="none" xml:space="preserve">,</text>
    </g>
    <g fill="url(#linearGradient19)" text-rendering="geometricPrecision" shape-rendering="geometricPrecision" transform="matrix(1,0,0,1,606,-26)" stroke="url(#linearGradient19)">
      <circle r="20" clip-path="url(#clipPath2)" cx="-270.7788" cy="393.7649" stroke="none"/>
    </g>
    <g text-rendering="geometricPrecision" stroke-miterlimit="1.45" shape-rendering="geometricPrecision" transform="matrix(1,0,0,1,606,-26)" stroke-linecap="butt">
      <circle fill="none" r="20" clip-path="url(#clipPath2)" cx="-270.7788" cy="393.7649"/>
      <text x="-277.1362" font-size="40px" y="407.6126" clip-path="url(#clipPath2)" font-family="sans-serif" stroke="none" xml:space="preserve">,</text>
    </g>
    <g text-rendering="geometricPrecision" stroke-miterlimit="1.45" shape-rendering="geometricPrecision" transform="matrix(1,0,0,1,606,-26)" stroke-linecap="butt">
      <path fill="none" d="M223.4446 870.2805 L223.6139 902.0491" clip-path="url(#clipPath2)"/>
    </g>
    <g text-rendering="geometricPrecision" stroke-miterlimit="1.45" shape-rendering="geometricPrecision" transform="matrix(1,0,0,1,606,-26)" stroke-linecap="butt">
      <path d="M223.6566 910.049 L228.5925 898.0225 L223.6086 901.0491 L218.5927 898.0758 Z" stroke="none" clip-path="url(#clipPath2)"/>
      <path fill="none" d="M-82.8446 870.2982 L-82.8446 902.0186" clip-path="url(#clipPath2)"/>
      <path d="M-82.8446 910.0186 L-77.8446 898.0186 L-82.8446 901.0186 L-87.8446 898.0186 Z" clip-path="url(#clipPath2)" stroke="none"/>
      <path fill="none" d="M-82.8446 1028.2191 L-82.8446 1028.262" clip-path="url(#clipPath2)"/>
      <path fill="none" d="M-82.8446 440.9774 L-82.8446 606.7735" clip-path="url(#clipPath2)"/>
      <path d="M-82.8446 614.7735 L-77.8446 602.7735 L-82.8446 605.7735 L-87.8446 602.7735 Z" clip-path="url(#clipPath2)" stroke="none"/>
      <path fill="none" d="M-82.8446 686.7457 L-82.8446 744.0907" clip-path="url(#clipPath2)"/>
      <path d="M-82.8446 752.0907 L-77.8446 740.0907 L-82.8446 743.0907 L-87.8446 740.0907 Z" clip-path="url(#clipPath2)" stroke="none"/>
      <path fill="none" d="M-14.1573 686.7653 L103.3388 748.37" clip-path="url(#clipPath2)"/>
      <path d="M110.424 752.0848 L102.118 742.0844 L102.4532 747.9056 L97.4745 750.9408 Z" clip-path="url(#clipPath2)" stroke="none"/>
      <path fill="none" d="M-153.3005 686.7653 L-273.9663 748.4437" clip-path="url(#clipPath2)"/>
      <path d="M-281.0897 752.0848 L-268.129 751.0753 L-273.0759 747.9886 L-272.6804 742.1711 Z" clip-path="url(#clipPath2)" stroke="none"/>
      <path fill="none" d="M-113.0618 346.5702 L-120.6854 334.205 L-140.0988 299.7445 L-144.6208 291.4192 L-150.0623 282.6386 L-156.2124 275.0287 L-163.0711 268.5897 L-170.6385 263.3213 L-178.9144 259.2237 L-186.3178 256.8119 L-186.4162 256.7941" clip-path="url(#clipPath2)"/>
      <path d="M-194.2442 255.1444 L-183.5332 262.5115 L-185.4377 257.0003 L-181.4711 252.7264 Z" clip-path="url(#clipPath2)" stroke="none"/>
      <text x="-180.6774" xml:space="preserve" y="304.3906" clip-path="url(#clipPath2)" font-family="sans-serif" stroke="none">out@FAILURE</text>
      <path fill="none" d="M-327.3447 253.9554 L-329.6726 253.9554 L-336.6457 254.2011 L-343.4319 254.9384 L-350.0315 256.1672 L-356.4443 257.8875 L-362.6704 260.0993 L-368.7098 262.8027 L-374.5624 265.9976 L-380.2283 269.6839 L-390.9999 278.5313 L-401.0245 289.3447 L-410.3022 302.1241 L-418.8329 316.8697 L-430.5526 339.4673" clip-path="url(#clipPath2)"/>
      <path d="M-434.2358 346.569 L-424.2725 338.2184 L-430.0923 338.5795 L-433.1497 333.6144 Z" clip-path="url(#clipPath2)" stroke="none"/>
      <text x="-435.3593" xml:space="preserve" y="297.4114" clip-path="url(#clipPath2)" font-family="sans-serif" stroke="none">in@REDO</text>
      <path fill="none" d="M-459.0978 346.5215 L-459.3954 309.9947 L-459.1116 293.3419 L-457.9808 277.6533 L-456.0031 262.9287 L-453.1785 249.1683 L-449.507 236.372 L-444.9886 224.5398 L-439.6232 213.6718 L-433.4109 203.7679 L-427.5125 195.3929 L-420.3044 186.4983 L-411.9515 178.6585 L-402.4539 171.8733 L-391.8114 166.1429 L-380.0242 161.4671 L-367.0922 157.846 L-353.0154 155.2796 L-337.7938 153.7679 L-336.3904 153.6804" clip-path="url(#clipPath2)"/>
      <path d="M-328.4059 153.1827 L-340.6936 148.9389 L-337.3884 153.7426 L-340.0716 158.9195 Z" clip-path="url(#clipPath2)" stroke="none"/>
      <text x="-474.2752" xml:space="preserve" y="203.7346" clip-path="url(#clipPath2)" font-family="sans-serif" stroke="none">out@SUCCESS</text>
      <path fill="none" d="M-195.2346 154.4701 L-162.825 157.2054 L-153.1399 158.4267 L-144.0796 160.4032 L-135.6442 163.135 L-127.8336 166.6219 L-120.6479 170.864 L-114.087 175.8613 L-108.1509 181.6138 L-102.8397 188.1214 L-98.1534 195.3843 L-94.0919 203.4024 L-90.6552 212.1756 L-87.8434 221.704 L-85.6564 231.9877 L-84.0943 243.0265 L-83.1571 254.8205 L-82.8446 267.3697 L-82.8446 338.521" clip-path="url(#clipPath2)"/>
      <path d="M-82.8446 346.521 L-77.8446 334.521 L-82.8446 337.521 L-87.8446 334.521 Z" clip-path="url(#clipPath2)" stroke="none"/>
      <text x="-139.2939" xml:space="preserve" y="195.6844" clip-path="url(#clipPath2)" font-family="sans-serif" stroke="none">in@CALL</text>
      <path fill="none" d="M346.5187 949.7518 L354.5642 948.1036 L362.5122 945.9414 L370.2674 943.2846 L377.8297 940.1333 L385.1993 936.4874 L392.376 932.347 L399.3599 927.7121 L406.151 922.5826 L419.1547 910.8401 L431.3871 897.1195 L441.9175 884.0442 L453.1065 869.0674 L462.9799 853.5565 L471.5376 837.5115 L478.7798 820.9323 L484.7063 803.819 L489.3172 786.1715 L492.6125 767.9899 L494.5922 749.2742 L499.1074 684.434" clip-path="url(#clipPath2)"/>
      <path d="M499.6631 676.4533 L493.8416 688.077 L499.0379 685.4316 L503.8174 688.7717 Z" clip-path="url(#clipPath2)" stroke="none"/>
      <text x="450.1829" xml:space="preserve" y="761.9839" clip-path="url(#clipPath2)" font-family="sans-serif" stroke="none">out@SUCCESS</text>
      <path fill="none" d="M500.8677 636.4604 L500.3672 582.8992 L500.6484 567.8847 L501.7734 552.938 L503.7422 538.0591 L506.5547 523.248 L510.2109 508.5048 L514.7109 493.8295 L520.0547 479.2219 L526.2422 464.6822 L533.7328 448.2422" clip-path="url(#clipPath2)"/>
      <path d="M537.0498 440.9623 L527.5244 449.8091 L533.3182 449.1522 L536.6243 453.9554 Z" clip-path="url(#clipPath2)" stroke="none"/>
      <text x="473.8107" xml:space="preserve" y="575.5792" clip-path="url(#clipPath2)" font-family="sans-serif" stroke="none">in@CALL</text>
      <path fill="none" d="M39.09 1001.0001 L236.6258 1006.0776 L259.9319 1006.3919 L282.3813 1006.1146 L303.9742 1005.2457 L324.7106 1003.7852 L344.5905 1001.7332 L363.6137 999.0895 L381.7805 995.8542 L399.0907 992.0273 L415.5444 987.6089 L431.1416 982.5989 L445.8822 976.9973 L459.7662 970.804 L472.7938 964.0192 L484.9648 956.6428 L496.2792 948.6748 L506.7371 940.1152 L524.5676 924.3723 L543.6544 906.3829 L560.7963 887.8361 L575.9933 868.7321 L589.2454 849.0707 L600.5526 828.8521 L605.4769 818.5338 L609.9149 808.0761 L613.8666 797.4792 L617.3322 786.7429 L620.3116 775.8672 L622.8047 764.8523 L639.1581 684.2874" clip-path="url(#clipPath2)"/>
      <path d="M640.7495 676.4473 L633.4623 687.2128 L638.9592 685.2674 L643.2625 689.2021 Z" clip-path="url(#clipPath2)" stroke="none"/>
      <text x="577.5421" xml:space="preserve" y="776.1458" clip-path="url(#clipPath2)" font-family="sans-serif" stroke="none">out@SUCCESS</text>
      <path fill="none" d="M642.4501 636.4539 L635.1797 574.6492 L632.8506 558.1581 L629.8008 542.1567 L626.0303 526.645 L621.5391 511.623 L616.3271 497.0908 L610.3945 483.0482 L603.7412 469.4953 L596.3672 456.4322 L591.1763 447.8293" clip-path="url(#clipPath2)"/>
      <path d="M587.0433 440.9796 L588.9618 453.8372 L591.6929 448.6855 L597.5239 448.671 Z" clip-path="url(#clipPath2)" stroke="none"/>
      <text x="607.6066" xml:space="preserve" y="569.2495" clip-path="url(#clipPath2)" font-family="sans-serif" stroke="none">in@CALL</text>
      <path fill="none" d="M-408.6535 752.0522 L-409.8408 746.1809 L-420.6518 695.4438 L-431.5771 649.5911 L-437.9846 624.2637" clip-path="url(#clipPath2)"/>
      <path d="M-439.9467 616.5081 L-441.8509 629.3679 L-437.7394 625.2332 L-432.1563 626.9152 Z" clip-path="url(#clipPath2)" stroke="none"/>
      <text x="-449.0888" xml:space="preserve" y="697.1559" clip-path="url(#clipPath2)" font-family="sans-serif" stroke="none">out@FAIL</text>
      <path fill="none" d="M-448.2776 576.5685 L-452.5421 550.5911 L-455.2418 530.7922 L-457.1702 508.9849 L-458.3272 485.1692 L-458.7129 459.3452 L-458.7129 448.9968" clip-path="url(#clipPath2)"/>
      <path d="M-458.7129 440.9968 L-463.7129 452.9968 L-458.7129 449.9968 L-453.7129 452.9968 Z" clip-path="url(#clipPath2)" stroke="none"/>
      <text x="-487.4854" xml:space="preserve" y="517.1559" clip-path="url(#clipPath2)" font-family="sans-serif" stroke="none">in@REDO</text>
      <path fill="none" d="M546.8925 346.5109 L522.4486 247.4666 L518.0612 232.9269 L512.2842 219.2327 L505.1177 206.384 L496.5617 194.3806 L486.6162 183.2227 L475.2811 172.9102 L462.5565 163.4431 L448.4424 154.8214 L432.9388 147.0452 L416.0456 140.1144 L397.7629 134.029 L378.0907 128.7891 L357.0289 124.3945 L334.5776 120.8454 L310.7368 118.1417 L285.5065 116.2835 L239.4174 113.7314 L140.4503 107.575 L50.9498 100.59 L-29.0841 92.7765 L-99.6514 84.1345 L-188.1803 71.9563" clip-path="url(#clipPath2)"/>
      <path d="M-196.1057 70.8661 L-184.8991 77.4548 L-187.1897 72.0926 L-183.5363 67.5481 Z" clip-path="url(#clipPath2)" stroke="none"/>
      <text x="484.8782" xml:space="preserve" y="264.8921" clip-path="url(#clipPath2)" font-family="sans-serif" stroke="none">out@FAILURE</text>
      <path fill="none" d="M-328.832 67.6831 L-405.9584 74.1085 L-420.3484 75.8529 L-433.7816 78.6089 L-446.2581 82.3764 L-457.7779 87.1555 L-468.3409 92.9461 L-477.9472 99.7482 L-486.5968 107.5619 L-494.2896 116.3871 L-501.0257 126.2238 L-506.805 137.0721 L-511.6276 148.9319 L-515.4935 161.8033 L-518.4026 175.6862 L-520.355 190.5806 L-521.3506 206.4865 L-521.3896 223.4041 L-518.4851 338.5605" clip-path="url(#clipPath2)"/>
      <path d="M-518.2834 346.558 L-513.5876 334.4358 L-518.5103 337.5609 L-523.5844 334.6879 Z" clip-path="url(#clipPath2)" stroke="none"/>
      <text x="-551.5161" xml:space="preserve" y="173.8736" clip-path="url(#clipPath2)" font-family="sans-serif" stroke="none">in@REDO</text>
      <path fill="none" d="M48.5852 393.765 L226.9197 393.765" clip-path="url(#clipPath2)"/>
      <path fill="none" d="M266.8894 393.765 L445.2282 393.765" clip-path="url(#clipPath2)"/>
      <path fill="none" d="M-327.2599 393.765 L-290.7733 393.765" clip-path="url(#clipPath2)"/>
      <path fill="none" d="M-250.8199 393.765 L-214.2804 393.765" clip-path="url(#clipPath2)"/>
    </g>
    <g fill="rgb(245,245,245)" text-rendering="geometricPrecision" shape-rendering="geometricPrecision" transform="matrix(1,0,0,1,606,-26)" stroke="rgb(245,245,245)">
      <rect x="-499.8717" y="990.5071" clip-path="url(#clipPath2)" width="225.0991" rx="4" ry="4" height="242.929" stroke="none"/>
      <rect x="-499.8717" y="990.5071" clip-path="url(#clipPath2)" fill="rgb(235,235,235)" width="225.0991" height="21.4609" stroke="none"/>
    </g>
    <g font-size="15px" stroke-linecap="butt" transform="matrix(1,0,0,1,606,-26)" text-rendering="geometricPrecision" font-family="sans-serif" shape-rendering="geometricPrecision" stroke-miterlimit="1.45">
      <text x="-341.8483" xml:space="preserve" y="1006.4304" clip-path="url(#clipPath2)" stroke="none">Example</text>
      <rect x="-499.8717" y="990.5071" clip-path="url(#clipPath2)" fill="none" width="225.0991" stroke-dasharray="6,2" rx="4" ry="4" height="242.929"/>
    </g>
    <g fill="url(#linearGradient20)" text-rendering="geometricPrecision" shape-rendering="geometricPrecision" transform="matrix(1,0,0,1,606,-26)" stroke="url(#linearGradient20)">
      <path d="M-484.8717 1026.968 L-289.7726 1026.968 L-289.7726 1083.7681 L-484.8717 1083.7681 Z" stroke="none" clip-path="url(#clipPath2)"/>
    </g>
    <g text-rendering="geometricPrecision" stroke-miterlimit="1.45" shape-rendering="geometricPrecision" font-family="'DejaVu Sans Mono'" transform="matrix(1,0,0,1,606,-26)" stroke-linecap="butt">
      <text x="-478.8717" xml:space="preserve" y="1045.5536" clip-path="url(#clipPath2)" stroke="none">A = comp(X,yankee),</text>
      <text x="-478.8717" xml:space="preserve" y="1059.5223" clip-path="url(#clipPath2)" stroke="none">B = comp(xray,Y),</text>
      <text x="-478.8717" xml:space="preserve" y="1073.4911" clip-path="url(#clipPath2)" stroke="none">dif(A,B).</text>
    </g>
    <g fill="url(#linearGradient21)" text-rendering="geometricPrecision" shape-rendering="geometricPrecision" transform="matrix(1,0,0,1,606,-26)" stroke="url(#linearGradient21)">
      <path d="M-458.8221 1146.436 L-315.8221 1146.436 L-315.8221 1218.436 L-458.8221 1218.436 Z" stroke="none" clip-path="url(#clipPath2)"/>
    </g>
    <g text-rendering="geometricPrecision" stroke-miterlimit="1.45" shape-rendering="geometricPrecision" font-family="'DejaVu Sans Mono'" transform="matrix(1,0,0,1,606,-26)" stroke-linecap="butt">
      <text x="-452.8221" xml:space="preserve" y="1165.6372" clip-path="url(#clipPath2)" stroke="none">dif(</text>
      <text x="-452.8221" xml:space="preserve" y="1179.606" clip-path="url(#clipPath2)" stroke="none">   f(X, Y),</text>
      <text x="-452.8221" xml:space="preserve" y="1193.5747" clip-path="url(#clipPath2)" stroke="none">   f(xray, yankee)</text>
      <text x="-452.8221" xml:space="preserve" y="1207.5435" clip-path="url(#clipPath2)" stroke="none">).</text>
    </g>
    <g text-rendering="geometricPrecision" stroke-miterlimit="1.45" shape-rendering="geometricPrecision" transform="matrix(1,0,0,1,606,-26)" stroke-linecap="butt">
      <path fill="none" d="M-188.9738 993.6402 L-274.7773 1002.1212" clip-path="url(#clipPath2)"/>
      <path fill="none" d="M-387.3221 1083.7535 L-387.3221 1138.442" clip-path="url(#clipPath2)"/>
      <path d="M-387.3221 1146.442 L-382.3221 1134.442 L-387.3221 1137.442 L-392.3221 1134.442 Z" clip-path="url(#clipPath2)" stroke="none"/>
      <text x="-471.3602" xml:space="preserve" y="1119.2563" clip-path="url(#clipPath2)" font-family="sans-serif" stroke="none">transformed into equivalent</text>
    </g>
  </g>
</svg>
