<?xml version="1.0" encoding="UTF-8"?><svg xmlns="http://www.w3.org/2000/svg" xmlns:xlink="http://www.w3.org/1999/xlink" fill-opacity="1" color-rendering="auto" color-interpolation="auto" text-rendering="auto" stroke="black" stroke-linecap="square" width="1753" stroke-miterlimit="10" shape-rendering="auto" stroke-opacity="1" fill="black" stroke-dasharray="none" font-weight="normal" stroke-width="1" height="966" font-family="'Dialog'" font-style="normal" stroke-linejoin="miter" font-size="12px" stroke-dashoffset="0" image-rendering="auto">
  <!--Generated by ySVG 2.5-->
  <defs id="genericDefs"/>
  <g>
    <defs id="defs1">
      <linearGradient x1="-717.603" gradientUnits="userSpaceOnUse" x2="1004.0402" y1="299.4163" y2="488.1136" id="linearGradient1" spreadMethod="reflect">
        <stop stop-opacity="1" stop-color="rgb(255,255,153)" offset="0%"/>
        <stop stop-opacity="1" stop-color="rgb(255,255,153)" offset="100%"/>
      </linearGradient>
      <linearGradient x1="-391.2833" gradientUnits="userSpaceOnUse" x2="-147.4342" y1="698.4442" y2="816.6375" id="linearGradient2" spreadMethod="reflect">
        <stop stop-opacity="1" stop-color="rgb(255,102,0)" offset="0%"/>
        <stop stop-opacity="1" stop-color="rgb(255,102,0)" offset="100%"/>
      </linearGradient>
      <linearGradient x1="-24.2862" gradientUnits="userSpaceOnUse" x2="219.5629" y1="551.7404" y2="669.9337" id="linearGradient3" spreadMethod="reflect">
        <stop stop-opacity="1" stop-color="lime" offset="0%"/>
        <stop stop-opacity="1" stop-color="lime" offset="100%"/>
      </linearGradient>
      <linearGradient x1="-24.2862" gradientUnits="userSpaceOnUse" x2="219.5629" y1="699.9337" y2="818.1271" id="linearGradient4" spreadMethod="reflect">
        <stop stop-opacity="1" stop-color="yellow" offset="0%"/>
        <stop stop-opacity="1" stop-color="yellow" offset="100%"/>
      </linearGradient>
      <linearGradient x1="-214.2906" gradientUnits="userSpaceOnUse" x2="48.6013" y1="346.5433" y2="440.9866" id="linearGradient5" spreadMethod="reflect">
        <stop stop-opacity="1" stop-color="rgb(183,201,227)" offset="0%"/>
        <stop stop-opacity="1" stop-color="rgb(183,201,227)" offset="100%"/>
      </linearGradient>
      <linearGradient x1="-685.8771" gradientUnits="userSpaceOnUse" x2="-422.9853" y1="346.5433" y2="440.9866" id="linearGradient6" spreadMethod="reflect">
        <stop stop-opacity="1" stop-color="rgb(255,255,153)" offset="0%"/>
        <stop stop-opacity="1" stop-color="rgb(255,255,153)" offset="100%"/>
      </linearGradient>
      <linearGradient x1="517.5976" gradientUnits="userSpaceOnUse" x2="712.6967" y1="869.4376" y2="926.2375" id="linearGradient7" spreadMethod="reflect">
        <stop stop-opacity="1" stop-color="rgb(255,255,153)" offset="0%"/>
        <stop stop-opacity="1" stop-color="rgb(255,255,153)" offset="100%"/>
      </linearGradient>
      <linearGradient x1="543.6472" gradientUnits="userSpaceOnUse" x2="686.6472" y1="988.9056" y2="1060.9056" id="linearGradient8" spreadMethod="reflect">
        <stop stop-opacity="1" stop-color="rgb(255,255,153)" offset="0%"/>
        <stop stop-opacity="1" stop-color="rgb(255,255,153)" offset="100%"/>
      </linearGradient>
      <linearGradient x1="-594.4312" gradientUnits="userSpaceOnUse" x2="-514.4312" y1="573.2789" y2="613.2789" id="linearGradient9" spreadMethod="reflect">
        <stop stop-opacity="1" stop-color="rgb(232,238,247)" offset="0%"/>
        <stop stop-opacity="1" stop-color="rgb(183,201,227)" offset="100%"/>
      </linearGradient>
      <linearGradient x1="-358.6379" gradientUnits="userSpaceOnUse" x2="-278.6379" y1="220.1513" y2="260.1512" id="linearGradient10" spreadMethod="reflect">
        <stop stop-opacity="1" stop-color="rgb(232,238,247)" offset="0%"/>
        <stop stop-opacity="1" stop-color="rgb(183,201,227)" offset="100%"/>
      </linearGradient>
      <linearGradient x1="-358.6379" gradientUnits="userSpaceOnUse" x2="-278.6379" y1="373.765" y2="413.765" id="linearGradient11" spreadMethod="reflect">
        <stop stop-opacity="1" stop-color="rgb(232,238,247)" offset="0%"/>
        <stop stop-opacity="1" stop-color="rgb(183,201,227)" offset="100%"/>
      </linearGradient>
      <linearGradient x1="549.8059" gradientUnits="userSpaceOnUse" x2="629.8059" y1="373.765" y2="413.765" id="linearGradient12" spreadMethod="reflect">
        <stop stop-opacity="1" stop-color="rgb(232,238,247)" offset="0%"/>
        <stop stop-opacity="1" stop-color="rgb(183,201,227)" offset="100%"/>
      </linearGradient>
      <linearGradient x1="-485.2421" gradientUnits="userSpaceOnUse" x2="-152.0338" y1="140.8862" y2="180.8862" id="linearGradient13" spreadMethod="reflect">
        <stop stop-opacity="1" stop-color="rgb(232,238,247)" offset="0%"/>
        <stop stop-opacity="1" stop-color="rgb(183,201,227)" offset="100%"/>
      </linearGradient>
      <clipPath clipPathUnits="userSpaceOnUse" id="clipPath1">
        <path d="M0 0 L1753 0 L1753 966 L0 966 L0 0 Z"/>
      </clipPath>
      <clipPath clipPathUnits="userSpaceOnUse" id="clipPath2">
        <path d="M-733 125 L1020 125 L1020 1091 L-733 1091 L-733 125 Z"/>
      </clipPath>
      <clipPath clipPathUnits="userSpaceOnUse" id="clipPath3">
        <path d="M315.3724 -333.204 L315.3724 1419.796 L-650.6276 1419.796 L-650.6276 -333.204 L315.3724 -333.204 Z"/>
      </clipPath>
      <clipPath clipPathUnits="userSpaceOnUse" id="clipPath4">
        <path d="M297.2142 -477.5514 L297.2142 1275.4486 L-668.7858 1275.4486 L-668.7858 -477.5514 L297.2142 -477.5514 Z"/>
      </clipPath>
      <clipPath clipPathUnits="userSpaceOnUse" id="clipPath5">
        <path d="M297.2142 -1392.3422 L297.2142 360.6579 L-668.7858 360.6579 L-668.7858 -1392.3422 L297.2142 -1392.3422 Z"/>
      </clipPath>
    </defs>
    <g fill="white" text-rendering="geometricPrecision" shape-rendering="geometricPrecision" transform="translate(733,-125)" stroke="white">
      <rect x="-733" width="1753" height="966" y="125" clip-path="url(#clipPath2)" stroke="none"/>
    </g>
    <g fill="url(#linearGradient1)" text-rendering="geometricPrecision" shape-rendering="geometricPrecision" transform="matrix(1,0,0,1,733,-125)" stroke="url(#linearGradient1)">
      <path d="M-717.603 299.4163 L956.8658 299.4163 L1004.0402 393.765 L956.8658 488.1136 L-717.603 488.1136 Z" stroke="none" clip-path="url(#clipPath2)"/>
    </g>
    <g text-rendering="geometricPrecision" stroke-miterlimit="1.45" shape-rendering="geometricPrecision" transform="matrix(1,0,0,1,733,-125)" stroke-linecap="butt">
      <path fill="none" d="M228.7485 832.9766 L472.5976 832.9766 L472.5976 1008.6327 L228.7485 1008.6327 Z" clip-path="url(#clipPath2)"/>
      <text x="234.7485" xml:space="preserve" y="862.0996" clip-path="url(#clipPath2)" font-family="sans-serif" stroke="none">Henceforth, any unification </text>
      <text x="234.7485" xml:space="preserve" y="876.0684" clip-path="url(#clipPath2)" font-family="sans-serif" stroke="none">involving the terms named in the dif</text>
      <text x="234.7485" xml:space="preserve" y="890.0371" clip-path="url(#clipPath2)" font-family="sans-serif" stroke="none">constraint will lead to a constraint</text>
      <text x="234.7485" xml:space="preserve" y="904.0059" clip-path="url(#clipPath2)" font-family="sans-serif" stroke="none">check, which behaves like a "veto" on</text>
      <text x="234.7485" xml:space="preserve" y="917.9746" clip-path="url(#clipPath2)" font-family="sans-serif" stroke="none">unification.</text>
      <text x="234.7485" xml:space="preserve" y="931.9434" clip-path="url(#clipPath2)" font-family="sans-serif" stroke="none"> </text>
      <text x="234.7485" xml:space="preserve" y="945.9121" clip-path="url(#clipPath2)" font-family="sans-serif" stroke="none">Powerful when it is triggered for a</text>
      <text x="234.7485" xml:space="preserve" y="959.8809" clip-path="url(#clipPath2)" font-family="sans-serif" stroke="none">clause head - the dif constraint</text>
      <text x="234.7485" xml:space="preserve" y="973.8496" clip-path="url(#clipPath2)" font-family="sans-serif" stroke="none">removes certain clauses from</text>
      <text x="234.7485" xml:space="preserve" y="987.8184" clip-path="url(#clipPath2)" font-family="sans-serif" stroke="none">consideration!</text>
    </g>
    <g fill="url(#linearGradient2)" text-rendering="geometricPrecision" shape-rendering="geometricPrecision" transform="matrix(1,0,0,1,733,-125)" stroke="url(#linearGradient2)">
      <path d="M-391.2833 698.4442 L-147.4342 698.4442 L-147.4342 816.6375 L-391.2833 816.6375 Z" stroke="none" clip-path="url(#clipPath2)"/>
    </g>
    <g text-rendering="geometricPrecision" stroke-miterlimit="1.45" shape-rendering="geometricPrecision" transform="matrix(1,0,0,1,733,-125)" stroke-linecap="butt">
      <path fill="none" d="M-391.2833 698.4442 L-147.4342 698.4442 L-147.4342 816.6375 L-391.2833 816.6375 Z" clip-path="url(#clipPath2)"/>
      <text x="-306.6185" xml:space="preserve" y="719.7889" clip-path="url(#clipPath2)" font-family="sans-serif" stroke="none">"IDENTICAL"</text>
      <text x="-275.8539" xml:space="preserve" y="733.7576" clip-path="url(#clipPath2)" font-family="sans-serif" stroke="none">---</text>
      <text x="-291.4486" xml:space="preserve" y="747.7264" clip-path="url(#clipPath2)" font-family="sans-serif" stroke="none">A == B</text>
      <text x="-275.8539" xml:space="preserve" y="761.6951" clip-path="url(#clipPath2)" font-family="sans-serif" stroke="none">---</text>
      <text x="-331.8753" xml:space="preserve" y="775.6639" clip-path="url(#clipPath2)" font-family="sans-serif" stroke="none">The two terms in the</text>
      <text x="-338.8568" xml:space="preserve" y="789.6326" clip-path="url(#clipPath2)" font-family="sans-serif" stroke="none">constraint are identical</text>
      <text x="-333.1175" xml:space="preserve" y="803.6014" clip-path="url(#clipPath2)" font-family="sans-serif" stroke="none">(and thus also unify).</text>
    </g>
    <g fill="url(#linearGradient3)" text-rendering="geometricPrecision" shape-rendering="geometricPrecision" transform="matrix(1,0,0,1,733,-125)" stroke="url(#linearGradient3)">
      <path d="M-24.2862 551.7404 L219.5629 551.7404 L219.5629 669.9337 L-24.2862 669.9337 Z" stroke="none" clip-path="url(#clipPath2)"/>
    </g>
    <g text-rendering="geometricPrecision" stroke-miterlimit="1.45" shape-rendering="geometricPrecision" transform="matrix(1,0,0,1,733,-125)" stroke-linecap="butt">
      <path fill="none" d="M-24.2862 551.7404 L219.5629 551.7404 L219.5629 669.9337 L-24.2862 669.9337 Z" clip-path="url(#clipPath2)"/>
      <text x="64.442" xml:space="preserve" y="573.0851" clip-path="url(#clipPath2)" font-family="sans-serif" stroke="none">DIFFERENT</text>
      <text x="91.1432" xml:space="preserve" y="587.0539" clip-path="url(#clipPath2)" font-family="sans-serif" stroke="none">---</text>
      <text x="78.5543" xml:space="preserve" y="601.0226" clip-path="url(#clipPath2)" font-family="sans-serif" stroke="none">A \= B</text>
      <text x="91.1432" xml:space="preserve" y="614.9914" clip-path="url(#clipPath2)" font-family="sans-serif" stroke="none">---</text>
      <text x="35.1217" xml:space="preserve" y="628.9601" clip-path="url(#clipPath2)" font-family="sans-serif" stroke="none">The two terms in the</text>
      <text x="15.7741" xml:space="preserve" y="642.9289" clip-path="url(#clipPath2)" font-family="sans-serif" stroke="none">constraint do not (and thus</text>
      <text x="40.6354" xml:space="preserve" y="656.8976" clip-path="url(#clipPath2)" font-family="sans-serif" stroke="none">cannot ever) unify.</text>
    </g>
    <g text-rendering="geometricPrecision" stroke-miterlimit="1.45" shape-rendering="geometricPrecision" transform="matrix(1,0,0,1,733,-125)" stroke-linecap="butt">
      <path fill="none" d="M261.7557 574.8371 L438.8714 574.8371 L438.8714 646.8371 L261.7557 646.8371 Z" clip-path="url(#clipPath2)"/>
      <text x="275.4805" xml:space="preserve" y="608.007" clip-path="url(#clipPath2)" font-family="sans-serif" stroke="none">No need for a constraint.</text>
      <text x="271.1006" xml:space="preserve" y="621.9758" clip-path="url(#clipPath2)" font-family="sans-serif" stroke="none">Succeed deterministically.</text>
    </g>
    <g fill="url(#linearGradient4)" text-rendering="geometricPrecision" shape-rendering="geometricPrecision" transform="matrix(1,0,0,1,733,-125)" stroke="url(#linearGradient4)">
      <path d="M-24.2862 699.9337 L219.5629 699.9337 L219.5629 818.1271 L-24.2862 818.1271 Z" stroke="none" clip-path="url(#clipPath2)"/>
    </g>
    <g text-rendering="geometricPrecision" stroke-miterlimit="1.45" shape-rendering="geometricPrecision" transform="matrix(1,0,0,1,733,-125)" stroke-linecap="butt">
      <path fill="none" d="M-24.2862 699.9337 L219.5629 699.9337 L219.5629 818.1271 L-24.2862 818.1271 Z" clip-path="url(#clipPath2)"/>
      <text x="33.6832" xml:space="preserve" y="721.2784" clip-path="url(#clipPath2)" font-family="sans-serif" stroke="none">POSSIBLY DIFFERENT</text>
      <text x="91.1432" xml:space="preserve" y="735.2472" clip-path="url(#clipPath2)" font-family="sans-serif" stroke="none">---</text>
      <text x="34.7379" xml:space="preserve" y="749.2159" clip-path="url(#clipPath2)" font-family="sans-serif" stroke="none">\+ \+ A = B, A \== B</text>
      <text x="91.1432" xml:space="preserve" y="763.1847" clip-path="url(#clipPath2)" font-family="sans-serif" stroke="none">---</text>
      <text x="35.1217" xml:space="preserve" y="777.1534" clip-path="url(#clipPath2)" font-family="sans-serif" stroke="none">The two terms in the</text>
      <text x="42.0387" xml:space="preserve" y="791.1222" clip-path="url(#clipPath2)" font-family="sans-serif" stroke="none">constraint are not </text>
      <text x="-12.099" xml:space="preserve" y="805.0909" clip-path="url(#clipPath2)" font-family="sans-serif" stroke="none">identical but (at least for now) unify.</text>
    </g>
    <g fill="url(#linearGradient5)" text-rendering="geometricPrecision" shape-rendering="geometricPrecision" transform="matrix(1,0,0,1,733,-125)" stroke="url(#linearGradient5)">
      <path d="M-214.2906 346.5433 L48.6013 346.5433 L48.6013 440.9866 L-214.2906 440.9866 Z" stroke="none" clip-path="url(#clipPath2)"/>
    </g>
    <g text-rendering="geometricPrecision" stroke-miterlimit="1.45" shape-rendering="geometricPrecision" transform="matrix(1,0,0,1,733,-125)" stroke-linecap="butt">
      <path fill="none" d="M-214.2906 346.5433 L48.6013 346.5433 L48.6013 440.9866 L-214.2906 440.9866 Z" clip-path="url(#clipPath2)"/>
      <text x="-148.203" xml:space="preserve" y="369.9818" clip-path="url(#clipPath2)" font-family="sans-serif" stroke="none">dif(A,B) is called, with</text>
      <text x="-153.5966" xml:space="preserve" y="383.9505" clip-path="url(#clipPath2)" font-family="sans-serif" stroke="none">A and B arbitrary terms</text>
      <text x="-84.7519" xml:space="preserve" y="397.9193" clip-path="url(#clipPath2)" font-family="sans-serif" stroke="none"> </text>
      <text x="-182.8759" xml:space="preserve" y="411.888" clip-path="url(#clipPath2)" font-family="sans-serif" stroke="none">(A and B ground, partially or fully</text>
      <text x="-128.7675" xml:space="preserve" y="425.8568" clip-path="url(#clipPath2)" font-family="sans-serif" stroke="none">uninstantiated)</text>
    </g>
    <g fill="url(#linearGradient6)" text-rendering="geometricPrecision" shape-rendering="geometricPrecision" transform="matrix(1,0,0,1,733,-125)" stroke="url(#linearGradient6)">
      <path d="M-685.8771 346.5433 L-422.9853 346.5433 L-422.9853 440.9866 L-685.8771 440.9866 Z" stroke="none" clip-path="url(#clipPath2)"/>
    </g>
    <g text-rendering="geometricPrecision" stroke-miterlimit="1.45" shape-rendering="geometricPrecision" transform="matrix(1,0,0,1,733,-125)" stroke-linecap="butt">
      <path fill="none" d="M-685.8771 346.5433 L-422.9853 346.5433 L-422.9853 440.9866 L-685.8771 440.9866 Z" clip-path="url(#clipPath2)"/>
      <text x="-592.2418" xml:space="preserve" y="397.9193" clip-path="url(#clipPath2)" font-family="sans-serif" stroke="none">Previous call</text>
    </g>
    <g text-rendering="geometricPrecision" stroke-miterlimit="1.45" shape-rendering="geometricPrecision" transform="matrix(1,0,0,1,733,-125)" stroke-linecap="butt">
      <path fill="none" d="M706.847 346.5433 L933.489 346.5433 L933.489 440.9866 L706.847 440.9866 Z" clip-path="url(#clipPath2)"/>
      <text x="793.8682" xml:space="preserve" y="397.9193" clip-path="url(#clipPath2)" font-family="sans-serif" stroke="none">Next call</text>
    </g>
    <g text-rendering="geometricPrecision" stroke-miterlimit="1.45" shape-rendering="geometricPrecision" transform="matrix(1,0,0,1,733,-125)" stroke-linecap="butt">
      <path fill="none" d="M219.5652 610.8371 L253.7328 610.8371" clip-path="url(#clipPath2)"/>
    </g>
    <g text-rendering="geometricPrecision" stroke-miterlimit="1.45" shape-rendering="geometricPrecision" transform="matrix(1,0,0,1,733,-125)" stroke-linecap="butt">
      <path d="M261.7328 610.8371 L249.7328 605.8371 L252.7328 610.8371 L249.7328 615.8371 Z" stroke="none" clip-path="url(#clipPath2)"/>
      <path fill="none" d="M-82.8446 441.011 L-82.8446 600.8371 L-82.2196 605.2121 L-80.3446 608.3371 L-77.2196 610.2121 L-72.8446 610.8371 L-32.2846 610.8371" clip-path="url(#clipPath2)"/>
      <path d="M-24.2846 610.8371 L-36.2846 605.8371 L-33.2846 610.8371 L-36.2846 615.8371 Z" clip-path="url(#clipPath2)" stroke="none"/>
      <path fill="none" d="M-82.8446 440.9837 L-82.8446 749.0304 L-82.2196 753.4054 L-80.3446 756.5304 L-77.2196 758.4054 L-72.8446 759.0304 L-32.2846 759.0304" clip-path="url(#clipPath2)"/>
      <path d="M-24.2846 759.0304 L-36.2846 754.0304 L-33.2846 759.0304 L-36.2846 764.0304 Z" clip-path="url(#clipPath2)" stroke="none"/>
      <path fill="none" d="M-82.8446 440.9688 L-82.8446 747.5408 L-83.4696 751.9158 L-85.3446 755.0408 L-88.4696 756.9158 L-92.8446 757.5408 L-139.4597 757.5408" clip-path="url(#clipPath2)"/>
      <path d="M-147.4597 757.5408 L-135.4597 762.5408 L-138.4597 757.5408 L-135.4597 752.5408 Z" clip-path="url(#clipPath2)" stroke="none"/>
      <text x="-140.7089" xml:space="preserve" y="481.0862" clip-path="url(#clipPath2)" font-family="sans-serif" stroke="none">The terms involved</text>
      <text x="-143.9345" xml:space="preserve" y="495.055" clip-path="url(#clipPath2)" font-family="sans-serif" stroke="none">in the constraint are</text>
    </g>
    <g fill="rgb(245,245,245)" text-rendering="geometricPrecision" shape-rendering="geometricPrecision" transform="matrix(1,0,0,1,733,-125)" stroke="rgb(245,245,245)">
      <rect x="502.5976" y="832.9766" clip-path="url(#clipPath2)" width="294.6618" rx="4" ry="4" height="242.929" stroke="none"/>
      <rect x="502.5976" y="832.9766" clip-path="url(#clipPath2)" fill="rgb(235,235,235)" width="294.6618" height="21.4609" stroke="none"/>
    </g>
    <g font-size="15px" stroke-linecap="butt" transform="matrix(1,0,0,1,733,-125)" text-rendering="geometricPrecision" font-family="sans-serif" shape-rendering="geometricPrecision" stroke-miterlimit="1.45">
      <text x="552.8204" xml:space="preserve" y="848.9" clip-path="url(#clipPath2)" stroke="none">The constraint may be rewritten</text>
      <rect x="502.5976" y="832.9766" clip-path="url(#clipPath2)" fill="none" width="294.6618" stroke-dasharray="6,2" rx="4" ry="4" height="242.929"/>
    </g>
    <g fill="url(#linearGradient7)" text-rendering="geometricPrecision" shape-rendering="geometricPrecision" transform="matrix(1,0,0,1,733,-125)" stroke="url(#linearGradient7)">
      <path d="M517.5976 869.4376 L712.6967 869.4376 L712.6967 926.2375 L517.5976 926.2375 Z" stroke="none" clip-path="url(#clipPath2)"/>
    </g>
    <g text-rendering="geometricPrecision" stroke-miterlimit="1.45" shape-rendering="geometricPrecision" font-family="'DejaVu Sans Mono'" transform="matrix(1,0,0,1,733,-125)" stroke-linecap="butt">
      <text x="523.5976" xml:space="preserve" y="888.0231" clip-path="url(#clipPath2)" stroke="none">A = comp(X,yankee),</text>
      <text x="523.5976" xml:space="preserve" y="901.9919" clip-path="url(#clipPath2)" stroke="none">B = comp(xray,Y),</text>
      <text x="523.5976" xml:space="preserve" y="915.9606" clip-path="url(#clipPath2)" stroke="none">dif(A,B).</text>
    </g>
    <g fill="url(#linearGradient8)" text-rendering="geometricPrecision" shape-rendering="geometricPrecision" transform="matrix(1,0,0,1,733,-125)" stroke="url(#linearGradient8)">
      <path d="M543.6472 988.9056 L686.6472 988.9056 L686.6472 1060.9056 L543.6472 1060.9056 Z" stroke="none" clip-path="url(#clipPath2)"/>
    </g>
    <g text-rendering="geometricPrecision" stroke-miterlimit="1.45" shape-rendering="geometricPrecision" font-family="'DejaVu Sans Mono'" transform="matrix(1,0,0,1,733,-125)" stroke-linecap="butt">
      <text x="549.6472" xml:space="preserve" y="1008.1068" clip-path="url(#clipPath2)" stroke="none">dif(</text>
      <text x="549.6472" xml:space="preserve" y="1022.0755" clip-path="url(#clipPath2)" stroke="none">   f(X, Y),</text>
      <text x="549.6472" xml:space="preserve" y="1036.0443" clip-path="url(#clipPath2)" stroke="none">   f(xray, yankee)</text>
      <text x="549.6472" xml:space="preserve" y="1050.0131" clip-path="url(#clipPath2)" stroke="none">).</text>
    </g>
    <g fill="url(#linearGradient9)" text-rendering="geometricPrecision" shape-rendering="geometricPrecision" transform="matrix(1,0,0,1,733,-125)" stroke="url(#linearGradient9)">
      <path d="M-594.4312 573.2789 L-514.4312 573.2789 L-514.4312 613.2789 L-594.4312 613.2789 Z" stroke="none" clip-path="url(#clipPath2)"/>
    </g>
    <g text-rendering="geometricPrecision" stroke-miterlimit="1.45" shape-rendering="geometricPrecision" transform="matrix(1,0,0,1,733,-125)" stroke-linecap="butt">
      <path fill="none" d="M-594.4312 573.2789 L-514.4312 573.2789 L-514.4312 613.2789 L-594.4312 613.2789 Z" clip-path="url(#clipPath2)"/>
      <text x="-584.2672" xml:space="preserve" y="597.4332" clip-path="url(#clipPath2)" font-family="sans-serif" stroke="none">Backtrack</text>
    </g>
    <g fill="url(#linearGradient10)" text-rendering="geometricPrecision" shape-rendering="geometricPrecision" transform="matrix(1,0,0,1,733,-125)" stroke="url(#linearGradient10)">
      <path d="M-358.6379 220.1513 L-278.6379 220.1513 L-278.6379 260.1512 L-358.6379 260.1512 Z" stroke="none" clip-path="url(#clipPath2)"/>
    </g>
    <g text-rendering="geometricPrecision" stroke-miterlimit="1.45" shape-rendering="geometricPrecision" transform="matrix(1,0,0,1,733,-125)" stroke-linecap="butt">
      <path fill="none" d="M-358.6379 220.1513 L-278.6379 220.1513 L-278.6379 260.1512 L-358.6379 260.1512 Z" clip-path="url(#clipPath2)"/>
      <text x="-348.4738" xml:space="preserve" y="244.3056" clip-path="url(#clipPath2)" font-family="sans-serif" stroke="none">Backtrack</text>
    </g>
    <g fill="url(#linearGradient11)" text-rendering="geometricPrecision" shape-rendering="geometricPrecision" transform="matrix(1,0,0,1,733,-125)" stroke="url(#linearGradient11)">
      <path d="M-358.6379 373.765 L-278.6379 373.765 L-278.6379 413.765 L-358.6379 413.765 Z" stroke="none" clip-path="url(#clipPath2)"/>
    </g>
    <g text-rendering="geometricPrecision" stroke-miterlimit="1.45" shape-rendering="geometricPrecision" transform="matrix(1,0,0,1,733,-125)" stroke-linecap="butt">
      <path fill="none" d="M-358.6379 373.765 L-278.6379 373.765 L-278.6379 413.765 L-358.6379 413.765 Z" clip-path="url(#clipPath2)"/>
      <text x="-342.884" xml:space="preserve" y="390.9349" clip-path="url(#clipPath2)" font-family="sans-serif" stroke="none">Proceed</text>
      <text x="-349.0041" xml:space="preserve" y="404.9036" clip-path="url(#clipPath2)" font-family="sans-serif" stroke="none">with proof</text>
    </g>
    <g text-rendering="geometricPrecision" stroke-miterlimit="1.45" shape-rendering="geometricPrecision" transform="matrix(1,0,0,1,733,-125)" stroke-linecap="butt">
      <path fill="none" d="M262.4747 723.0304 L438.8714 723.0304 L438.8714 795.0304 L262.4747 795.0304 Z" clip-path="url(#clipPath2)"/>
      <text x="297.0773" xml:space="preserve" y="763.1847" clip-path="url(#clipPath2)" font-family="sans-serif" stroke="none">Constraint upheld</text>
    </g>
    <g fill="url(#linearGradient12)" text-rendering="geometricPrecision" shape-rendering="geometricPrecision" transform="matrix(1,0,0,1,733,-125)" stroke="url(#linearGradient12)">
      <path d="M549.8059 373.765 L629.8059 373.765 L629.8059 413.765 L549.8059 413.765 Z" stroke="none" clip-path="url(#clipPath2)"/>
    </g>
    <g text-rendering="geometricPrecision" stroke-miterlimit="1.45" shape-rendering="geometricPrecision" transform="matrix(1,0,0,1,733,-125)" stroke-linecap="butt">
      <path fill="none" d="M549.8059 373.765 L629.8059 373.765 L629.8059 413.765 L549.8059 413.765 Z" clip-path="url(#clipPath2)"/>
      <text x="565.5598" xml:space="preserve" y="390.9349" clip-path="url(#clipPath2)" font-family="sans-serif" stroke="none">Proceed</text>
      <text x="559.4397" xml:space="preserve" y="404.9036" clip-path="url(#clipPath2)" font-family="sans-serif" stroke="none">with proof</text>
    </g>
    <g fill="url(#linearGradient13)" text-rendering="geometricPrecision" shape-rendering="geometricPrecision" transform="matrix(1,0,0,1,733,-125)" stroke="url(#linearGradient13)">
      <path d="M-485.2421 140.8862 L-152.0338 140.8862 L-152.0338 180.8862 L-485.2421 180.8862 Z" stroke="none" clip-path="url(#clipPath2)"/>
    </g>
    <g text-rendering="geometricPrecision" stroke-miterlimit="1.45" shape-rendering="geometricPrecision" transform="matrix(1,0,0,1,733,-125)" stroke-linecap="butt">
      <path fill="none" d="M-485.2421 140.8862 L-152.0338 140.8862 L-152.0338 180.8862 L-485.2421 180.8862 Z" clip-path="url(#clipPath2)"/>
      <text x="-391.3117" xml:space="preserve" y="158.0561" clip-path="url(#clipPath2)" font-family="sans-serif" stroke="none">Backtrack over dif/2 call</text>
      <text x="-465.0256" xml:space="preserve" y="172.0249" clip-path="url(#clipPath2)" font-family="sans-serif" stroke="none">because there is sense in REDO-ing the dif/2 call</text>
    </g>
    <g text-rendering="geometricPrecision" stroke-miterlimit="1.45" shape-rendering="geometricPrecision" transform="matrix(1,0,0,1,733,-125)" stroke-linecap="butt">
      <path fill="none" d="M615.1472 926.2231 L615.1472 980.9116" clip-path="url(#clipPath2)"/>
      <path d="M615.1472 988.9116 L620.1472 976.9116 L615.1472 979.9116 L610.1472 976.9116 Z" clip-path="url(#clipPath2)" stroke="none"/>
      <text x="531.1091" xml:space="preserve" y="961.7259" clip-path="url(#clipPath2)" font-family="sans-serif" stroke="none">transformed into equivalent</text>
      <path fill="none" d="M-391.2592 757.5408 L-544.4312 757.5408 L-548.8062 756.9158 L-551.9312 755.0408 L-553.8062 751.9158 L-554.4312 747.5408 L-554.4312 621.2903" clip-path="url(#clipPath2)"/>
      <path d="M-554.4312 613.2903 L-559.4312 625.2903 L-554.4312 622.2903 L-549.4312 625.2903 Z" clip-path="url(#clipPath2)" stroke="none"/>
      <text x="-582.9254" xml:space="preserve" y="696.5563" clip-path="url(#clipPath2)" font-family="sans-serif" stroke="none">out@FAIL</text>
      <path fill="none" d="M-554.4312 573.3154 L-554.4312 549.1264 L-554.4312 459.3452 L-554.4312 448.9968" clip-path="url(#clipPath2)"/>
      <path d="M-554.4312 440.9968 L-559.4312 452.9968 L-554.4312 449.9968 L-549.4312 452.9968 Z" clip-path="url(#clipPath2)" stroke="none"/>
      <text x="-583.2037" xml:space="preserve" y="517.1559" clip-path="url(#clipPath2)" font-family="sans-serif" stroke="none">in@REDO</text>
      <path fill="none" d="M-82.8446 346.5482 L-82.8446 250.1513 L-83.4696 245.7763 L-85.3446 242.6513 L-88.4696 240.7763 L-92.8446 240.1513 L-270.6578 240.1513" clip-path="url(#clipPath2)"/>
      <path d="M-278.6578 240.1513 L-266.6578 245.1513 L-269.6578 240.1513 L-266.6578 235.1513 Z" clip-path="url(#clipPath2)" stroke="none"/>
      <text x="-111.3388" xml:space="preserve" y="276.0633" clip-path="url(#clipPath2)" font-family="sans-serif" stroke="none">out@FAIL</text>
      <path fill="none" d="M-358.618 240.1513 L-544.4312 240.1513 L-548.8062 240.7763 L-551.9312 242.6513 L-553.8062 245.7763 L-554.4312 250.1513 L-554.4312 338.5482" clip-path="url(#clipPath2)"/>
      <path d="M-554.4312 346.5482 L-549.4312 334.5482 L-554.4312 337.5482 L-559.4312 334.5482 Z" clip-path="url(#clipPath2)" stroke="none"/>
      <text x="-583.2037" xml:space="preserve" y="258.2115" clip-path="url(#clipPath2)" font-family="sans-serif" stroke="none">in@REDO</text>
      <path fill="none" d="M-422.9776 393.765 L-366.6569 393.765" clip-path="url(#clipPath2)"/>
      <path d="M-358.6569 393.765 L-370.6569 388.765 L-367.6569 393.765 L-370.6569 398.765 Z" clip-path="url(#clipPath2)" stroke="none"/>
    </g>
    <g text-rendering="geometricPrecision" stroke-miterlimit="1.45" shape-rendering="geometricPrecision" font-family="sans-serif" transform="matrix(0,-1,1,0,333.204,315.3724)" stroke-linecap="butt">
      <text x="2" xml:space="preserve" y="13.1387" clip-path="url(#clipPath3)" stroke="none">out@SUCCEED</text>
    </g>
    <g text-rendering="geometricPrecision" stroke-miterlimit="1.45" shape-rendering="geometricPrecision" transform="matrix(1,0,0,1,733,-125)" stroke-linecap="butt">
      <path fill="none" d="M-278.6578 393.765 L-222.2632 393.765" clip-path="url(#clipPath2)"/>
      <path d="M-214.2632 393.765 L-226.2632 388.765 L-223.2632 393.765 L-226.2632 398.765 Z" clip-path="url(#clipPath2)" stroke="none"/>
    </g>
    <g text-rendering="geometricPrecision" stroke-miterlimit="1.45" shape-rendering="geometricPrecision" font-family="sans-serif" transform="matrix(0,-1,1,0,477.5514,297.2142)" stroke-linecap="butt">
      <text x="2" xml:space="preserve" y="13.1387" clip-path="url(#clipPath4)" stroke="none">in@CALL</text>
    </g>
    <g text-rendering="geometricPrecision" stroke-miterlimit="1.45" shape-rendering="geometricPrecision" transform="matrix(1,0,0,1,733,-125)" stroke-linecap="butt">
      <path fill="none" d="M219.5534 759.0304 L254.481 759.0304" clip-path="url(#clipPath2)"/>
      <path d="M262.481 759.0304 L250.481 754.0304 L253.481 759.0304 L250.481 764.0304 Z" clip-path="url(#clipPath2)" stroke="none"/>
      <path fill="none" d="M350.673 795.011 L350.673 825.0009" clip-path="url(#clipPath2)"/>
      <path d="M350.673 833.0009 L355.673 821.0009 L350.673 824.0009 L345.673 821.0009 Z" clip-path="url(#clipPath2)" stroke="none"/>
      <path fill="none" d="M438.905 610.8371 L495.7185 610.8371 L500.0935 610.2121 L503.2185 608.3371 L505.0935 605.2121 L505.7185 600.8371 L505.7185 403.765 L506.3435 399.39 L508.2185 396.265 L511.3435 394.39 L515.7185 393.765 L541.774 393.765" clip-path="url(#clipPath2)"/>
      <path d="M549.774 393.765 L537.774 388.765 L540.774 393.765 L537.774 398.765 Z" clip-path="url(#clipPath2)" stroke="none"/>
      <path fill="none" d="M438.8849 759.0304 L494.8837 759.0304 L499.2587 758.4054 L502.3837 756.5304 L504.2587 753.4054 L504.8837 749.0304 L504.8837 403.765 L505.5087 399.39 L507.3837 396.265 L510.5087 394.39 L514.8837 393.765 L541.7913 393.765" clip-path="url(#clipPath2)"/>
      <path d="M549.7913 393.765 L537.7913 388.765 L540.7913 393.765 L537.7913 398.765 Z" clip-path="url(#clipPath2)" stroke="none"/>
      <path fill="none" d="M629.8212 393.765 L698.8243 393.765" clip-path="url(#clipPath2)"/>
      <path d="M706.8243 393.765 L694.8243 388.765 L697.8243 393.765 L694.8243 398.765 Z" clip-path="url(#clipPath2)" stroke="none"/>
    </g>
    <g text-rendering="geometricPrecision" stroke-miterlimit="1.45" shape-rendering="geometricPrecision" font-family="sans-serif" transform="matrix(0,-1,1,0,1392.3421,297.2142)" stroke-linecap="butt">
      <text x="2" xml:space="preserve" y="13.1387" clip-path="url(#clipPath5)" stroke="none">in@CALL</text>
    </g>
    <g text-rendering="geometricPrecision" stroke-miterlimit="1.45" shape-rendering="geometricPrecision" transform="matrix(1,0,0,1,733,-125)" stroke-linecap="butt">
      <path fill="none" d="M820.168 346.5467 L820.168 170.8862 L819.543 166.5112 L817.668 163.3862 L814.543 161.5112 L810.168 160.8862 L-144.0639 160.8862" clip-path="url(#clipPath2)"/>
      <path d="M-152.0639 160.8862 L-140.0639 165.8862 L-143.0639 160.8862 L-140.0639 155.8862 Z" clip-path="url(#clipPath2)" stroke="none"/>
      <text x="791.6738" xml:space="preserve" y="218.1504" clip-path="url(#clipPath2)" font-family="sans-serif" stroke="none">out@FAIL</text>
      <path fill="none" d="M-485.2648 160.8862 L-544.4312 160.8862 L-548.8062 161.5112 L-551.9312 163.3862 L-553.8062 166.5112 L-554.4312 170.8862 L-554.4312 338.5467" clip-path="url(#clipPath2)"/>
      <path d="M-554.4312 346.5467 L-549.4312 334.5467 L-554.4312 337.5467 L-559.4312 334.5467 Z" clip-path="url(#clipPath2)" stroke="none"/>
    </g>
  </g>
</svg>
