<?xml version="1.0" encoding="UTF-8"?><svg xmlns="http://www.w3.org/2000/svg" xmlns:xlink="http://www.w3.org/1999/xlink" fill-opacity="1" color-rendering="auto" color-interpolation="auto" text-rendering="auto" stroke="black" stroke-linecap="square" width="1890" stroke-miterlimit="10" shape-rendering="auto" stroke-opacity="1" fill="black" stroke-dasharray="none" font-weight="normal" stroke-width="1" height="871" font-family="'Dialog'" font-style="normal" stroke-linejoin="miter" font-size="12px" stroke-dashoffset="0" image-rendering="auto">
  <!--Generated by ySVG 2.5-->
  <defs id="genericDefs"/>
  <g>
    <defs id="defs1">
      <linearGradient x1="883.426" gradientUnits="userSpaceOnUse" x2="1127.275" y1="988.0574" y2="1106.2507" id="linearGradient1" spreadMethod="reflect">
        <stop stop-opacity="1" stop-color="rgb(255,102,0)" offset="0%"/>
        <stop stop-opacity="1" stop-color="rgb(255,102,0)" offset="100%"/>
      </linearGradient>
      <linearGradient x1="1503.2526" gradientUnits="userSpaceOnUse" x2="1747.1017" y1="988.0574" y2="1106.2507" id="linearGradient2" spreadMethod="reflect">
        <stop stop-opacity="1" stop-color="lime" offset="0%"/>
        <stop stop-opacity="1" stop-color="lime" offset="100%"/>
      </linearGradient>
      <linearGradient x1="1503.2526" gradientUnits="userSpaceOnUse" x2="1748.5397" y1="1146.0204" y2="1218.0204" id="linearGradient3" spreadMethod="reflect">
        <stop stop-opacity="1" stop-color="rgb(183,201,227)" offset="0%"/>
        <stop stop-opacity="1" stop-color="rgb(183,201,227)" offset="100%"/>
      </linearGradient>
      <linearGradient x1="1197.2784" gradientUnits="userSpaceOnUse" x2="1441.1276" y1="988.0574" y2="1106.2507" id="linearGradient4" spreadMethod="reflect">
        <stop stop-opacity="1" stop-color="yellow" offset="0%"/>
        <stop stop-opacity="1" stop-color="yellow" offset="100%"/>
      </linearGradient>
      <linearGradient x1="1197.2784" gradientUnits="userSpaceOnUse" x2="1441.1276" y1="1146.0204" y2="1264.2137" id="linearGradient5" spreadMethod="reflect">
        <stop stop-opacity="1" stop-color="rgb(183,201,227)" offset="0%"/>
        <stop stop-opacity="1" stop-color="rgb(183,201,227)" offset="100%"/>
      </linearGradient>
      <linearGradient x1="633.3466" gradientUnits="userSpaceOnUse" x2="896.2385" y1="729.1028" y2="823.5462" id="linearGradient6" spreadMethod="reflect">
        <stop stop-opacity="1" stop-color="rgb(183,201,227)" offset="0%"/>
        <stop stop-opacity="1" stop-color="rgb(183,201,227)" offset="100%"/>
      </linearGradient>
      <linearGradient x1="1221.6534" gradientUnits="userSpaceOnUse" x2="1416.7526" y1="729.1028" y2="823.5462" id="linearGradient7" spreadMethod="reflect">
        <stop stop-opacity="1" stop-color="rgb(183,201,227)" offset="0%"/>
        <stop stop-opacity="1" stop-color="rgb(183,201,227)" offset="100%"/>
      </linearGradient>
      <linearGradient x1="1221.6534" gradientUnits="userSpaceOnUse" x2="1416.7526" y1="850.728" y2="922.728" id="linearGradient8" spreadMethod="reflect">
        <stop stop-opacity="1" stop-color="rgb(183,201,227)" offset="0%"/>
        <stop stop-opacity="1" stop-color="rgb(183,201,227)" offset="100%"/>
      </linearGradient>
      <linearGradient x1="257.4783" gradientUnits="userSpaceOnUse" x2="520.3702" y1="729.1028" y2="823.5462" id="linearGradient9" spreadMethod="reflect">
        <stop stop-opacity="1" stop-color="rgb(153,153,153)" offset="0%"/>
        <stop stop-opacity="1" stop-color="rgb(153,153,153)" offset="100%"/>
      </linearGradient>
      <linearGradient x1="515.1833" gradientUnits="userSpaceOnUse" x2="658.9333" y1="616.515" y2="656.515" id="linearGradient10" spreadMethod="reflect">
        <stop stop-opacity="1" stop-color="rgb(232,238,247)" offset="0%"/>
        <stop stop-opacity="1" stop-color="rgb(183,201,227)" offset="100%"/>
      </linearGradient>
      <linearGradient x1="966.6202" gradientUnits="userSpaceOnUse" x2="1110.3702" y1="572.765" y2="612.765" id="linearGradient11" spreadMethod="reflect">
        <stop stop-opacity="1" stop-color="rgb(232,238,247)" offset="0%"/>
        <stop stop-opacity="1" stop-color="rgb(183,201,227)" offset="100%"/>
      </linearGradient>
      <linearGradient x1="515.1833" gradientUnits="userSpaceOnUse" x2="658.9333" y1="511.515" y2="551.515" id="linearGradient12" spreadMethod="reflect">
        <stop stop-opacity="1" stop-color="rgb(232,238,247)" offset="0%"/>
        <stop stop-opacity="1" stop-color="rgb(183,201,227)" offset="100%"/>
      </linearGradient>
      <linearGradient x1="1787.5966" gradientUnits="userSpaceOnUse" x2="2014.2384" y1="729.1028" y2="823.5462" id="linearGradient13" spreadMethod="reflect">
        <stop stop-opacity="1" stop-color="rgb(153,153,153)" offset="0%"/>
        <stop stop-opacity="1" stop-color="rgb(153,153,153)" offset="100%"/>
      </linearGradient>
      <linearGradient x1="1829.0425" gradientUnits="userSpaceOnUse" x2="1972.7925" y1="1019.0291" y2="1075.2791" id="linearGradient14" spreadMethod="reflect">
        <stop stop-opacity="1" stop-color="rgb(232,238,247)" offset="0%"/>
        <stop stop-opacity="1" stop-color="rgb(183,201,227)" offset="100%"/>
      </linearGradient>
      <linearGradient x1="1972.7925" gradientUnits="userSpaceOnUse" x2="2116.5425" y1="1019.0291" y2="1075.2791" id="linearGradient15" spreadMethod="reflect">
        <stop stop-opacity="1" stop-color="rgb(232,238,247)" offset="0%"/>
        <stop stop-opacity="1" stop-color="rgb(183,201,227)" offset="100%"/>
      </linearGradient>
      <linearGradient x1="457.1844" gradientUnits="userSpaceOnUse" x2="692.1844" y1="947.4465" y2="987.4465" id="linearGradient16" spreadMethod="reflect">
        <stop stop-opacity="1" stop-color="rgb(232,238,247)" offset="0%"/>
        <stop stop-opacity="1" stop-color="rgb(183,201,227)" offset="100%"/>
      </linearGradient>
      <linearGradient x1="1213.1006" gradientUnits="userSpaceOnUse" x2="1430.8472" y1="1187.2507" y2="1250.4546" id="linearGradient17" spreadMethod="reflect">
        <stop stop-opacity="1" stop-color="rgb(183,201,227)" offset="0%"/>
        <stop stop-opacity="1" stop-color="rgb(183,201,227)" offset="100%"/>
      </linearGradient>
      <linearGradient x1="515.1833" gradientUnits="userSpaceOnUse" x2="658.9333" y1="424.5566" y2="464.5566" id="linearGradient18" spreadMethod="reflect">
        <stop stop-opacity="1" stop-color="rgb(232,238,247)" offset="0%"/>
        <stop stop-opacity="1" stop-color="rgb(183,201,227)" offset="100%"/>
      </linearGradient>
      <clipPath clipPathUnits="userSpaceOnUse" id="clipPath1">
        <path d="M0 0 L1890 0 L1890 871 L0 871 L0 0 Z"/>
      </clipPath>
      <clipPath clipPathUnits="userSpaceOnUse" id="clipPath2">
        <path d="M242 409 L2132 409 L2132 1280 L242 1280 L242 409 Z"/>
      </clipPath>
    </defs>
    <g fill="white" text-rendering="geometricPrecision" shape-rendering="geometricPrecision" transform="translate(-242,-409)" stroke="white">
      <rect x="242" width="1890" height="871" y="409" clip-path="url(#clipPath2)" stroke="none"/>
    </g>
    <g fill="url(#linearGradient1)" text-rendering="geometricPrecision" shape-rendering="geometricPrecision" transform="matrix(1,0,0,1,-242,-409)" stroke="url(#linearGradient1)">
      <path d="M883.426 988.0574 L1127.275 988.0574 L1127.275 1106.2507 L883.426 1106.2507 Z" stroke="none" clip-path="url(#clipPath2)"/>
    </g>
    <g text-rendering="geometricPrecision" stroke-miterlimit="1.45" shape-rendering="geometricPrecision" transform="matrix(1,0,0,1,-242,-409)" stroke-linecap="butt">
      <path fill="none" d="M883.426 988.0574 L1127.275 988.0574 L1127.275 1106.2507 L883.426 1106.2507 Z" clip-path="url(#clipPath2)"/>
      <text x="968.0908" xml:space="preserve" y="1009.4021" clip-path="url(#clipPath2)" font-family="sans-serif" stroke="none">"IDENTICAL"</text>
      <text x="998.8554" xml:space="preserve" y="1023.3708" clip-path="url(#clipPath2)" font-family="sans-serif" stroke="none">---</text>
      <text x="983.2607" xml:space="preserve" y="1037.3396" clip-path="url(#clipPath2)" font-family="sans-serif" stroke="none">A == B</text>
      <text x="998.8554" xml:space="preserve" y="1051.3083" clip-path="url(#clipPath2)" font-family="sans-serif" stroke="none">---</text>
      <text x="942.8339" xml:space="preserve" y="1065.2771" clip-path="url(#clipPath2)" font-family="sans-serif" stroke="none">The two terms in the</text>
      <text x="935.8525" xml:space="preserve" y="1079.2458" clip-path="url(#clipPath2)" font-family="sans-serif" stroke="none">constraint are identical</text>
      <text x="941.5917" xml:space="preserve" y="1093.2146" clip-path="url(#clipPath2)" font-family="sans-serif" stroke="none">(and thus also unify).</text>
    </g>
    <g fill="url(#linearGradient2)" text-rendering="geometricPrecision" shape-rendering="geometricPrecision" transform="matrix(1,0,0,1,-242,-409)" stroke="url(#linearGradient2)">
      <path d="M1503.2526 988.0574 L1747.1017 988.0574 L1747.1017 1106.2507 L1503.2526 1106.2507 Z" stroke="none" clip-path="url(#clipPath2)"/>
    </g>
    <g text-rendering="geometricPrecision" stroke-miterlimit="1.45" shape-rendering="geometricPrecision" transform="matrix(1,0,0,1,-242,-409)" stroke-linecap="butt">
      <path fill="none" d="M1503.2526 988.0574 L1747.1017 988.0574 L1747.1017 1106.2507 L1503.2526 1106.2507 Z" clip-path="url(#clipPath2)"/>
      <text x="1550.2006" xml:space="preserve" y="1009.4021" clip-path="url(#clipPath2)" font-family="sans-serif" stroke="none">"DEFINITELY DIFFERENT"</text>
      <text x="1618.682" xml:space="preserve" y="1023.3708" clip-path="url(#clipPath2)" font-family="sans-serif" stroke="none">---</text>
      <text x="1606.0931" xml:space="preserve" y="1037.3396" clip-path="url(#clipPath2)" font-family="sans-serif" stroke="none">A \= B</text>
      <text x="1618.682" xml:space="preserve" y="1051.3083" clip-path="url(#clipPath2)" font-family="sans-serif" stroke="none">---</text>
      <text x="1562.6605" xml:space="preserve" y="1065.2771" clip-path="url(#clipPath2)" font-family="sans-serif" stroke="none">The two terms in the</text>
      <text x="1543.3129" xml:space="preserve" y="1079.2458" clip-path="url(#clipPath2)" font-family="sans-serif" stroke="none">constraint do not (and thus</text>
      <text x="1568.1742" xml:space="preserve" y="1093.2146" clip-path="url(#clipPath2)" font-family="sans-serif" stroke="none">cannot ever) unify.</text>
    </g>
    <g fill="url(#linearGradient3)" text-rendering="geometricPrecision" shape-rendering="geometricPrecision" transform="matrix(1,0,0,1,-242,-409)" stroke="url(#linearGradient3)">
      <path d="M1503.2526 1146.0204 L1748.5397 1146.0204 L1748.5397 1218.0204 L1503.2526 1218.0204 Z" stroke="none" clip-path="url(#clipPath2)"/>
    </g>
    <g text-rendering="geometricPrecision" stroke-miterlimit="1.45" shape-rendering="geometricPrecision" transform="matrix(1,0,0,1,-242,-409)" stroke-linecap="butt">
      <path fill="none" d="M1503.2526 1146.0204 L1748.5397 1146.0204 L1748.5397 1218.0204 L1503.2526 1218.0204 Z" clip-path="url(#clipPath2)"/>
      <text x="1544.4127" xml:space="preserve" y="1179.1903" clip-path="url(#clipPath2)" font-family="sans-serif" stroke="none">"Resolve/Close constraint",</text>
      <text x="1578.0485" xml:space="preserve" y="1193.1591" clip-path="url(#clipPath2)" font-family="sans-serif" stroke="none">i.e. throw it out.</text>
    </g>
    <g fill="url(#linearGradient4)" text-rendering="geometricPrecision" shape-rendering="geometricPrecision" transform="matrix(1,0,0,1,-242,-409)" stroke="url(#linearGradient4)">
      <path d="M1197.2784 988.0574 L1441.1276 988.0574 L1441.1276 1106.2507 L1197.2784 1106.2507 Z" stroke="none" clip-path="url(#clipPath2)"/>
    </g>
    <g text-rendering="geometricPrecision" stroke-miterlimit="1.45" shape-rendering="geometricPrecision" transform="matrix(1,0,0,1,-242,-409)" stroke-linecap="butt">
      <path fill="none" d="M1197.2784 988.0574 L1441.1276 988.0574 L1441.1276 1106.2507 L1197.2784 1106.2507 Z" clip-path="url(#clipPath2)"/>
      <text x="1249.7284" xml:space="preserve" y="1009.4021" clip-path="url(#clipPath2)" font-family="sans-serif" stroke="none">"POSSIBLY DIFFERENT"</text>
      <text x="1312.7079" xml:space="preserve" y="1023.3708" clip-path="url(#clipPath2)" font-family="sans-serif" stroke="none">---</text>
      <text x="1256.3026" xml:space="preserve" y="1037.3396" clip-path="url(#clipPath2)" font-family="sans-serif" stroke="none">\+ \+ A = B, A \== B</text>
      <text x="1312.7079" xml:space="preserve" y="1051.3083" clip-path="url(#clipPath2)" font-family="sans-serif" stroke="none">---</text>
      <text x="1256.6864" xml:space="preserve" y="1065.2771" clip-path="url(#clipPath2)" font-family="sans-serif" stroke="none">The two terms in the</text>
      <text x="1263.6034" xml:space="preserve" y="1079.2458" clip-path="url(#clipPath2)" font-family="sans-serif" stroke="none">constraint are not </text>
      <text x="1209.4657" xml:space="preserve" y="1093.2146" clip-path="url(#clipPath2)" font-family="sans-serif" stroke="none">identical but (at least for now) unify.</text>
    </g>
    <g fill="url(#linearGradient5)" text-rendering="geometricPrecision" shape-rendering="geometricPrecision" transform="matrix(1,0,0,1,-242,-409)" stroke="url(#linearGradient5)">
      <path d="M1197.2784 1146.0204 L1441.1276 1146.0204 L1441.1276 1264.2137 L1197.2784 1264.2137 Z" stroke="none" clip-path="url(#clipPath2)"/>
    </g>
    <g text-rendering="geometricPrecision" stroke-miterlimit="1.45" shape-rendering="geometricPrecision" transform="matrix(1,0,0,1,-242,-409)" stroke-linecap="butt">
      <path fill="none" d="M1197.2784 1146.0204 L1441.1276 1146.0204 L1441.1276 1264.2137 L1197.2784 1264.2137 Z" clip-path="url(#clipPath2)"/>
      <text x="1263.202" xml:space="preserve" y="1163.1591" clip-path="url(#clipPath2)" font-family="sans-serif" stroke="none">Constraint upheld!</text>
    </g>
    <g fill="url(#linearGradient6)" text-rendering="geometricPrecision" shape-rendering="geometricPrecision" transform="matrix(1,0,0,1,-242,-409)" stroke="url(#linearGradient6)">
      <path d="M633.3466 729.1028 L896.2385 729.1028 L896.2385 823.5462 L633.3466 823.5462 Z" stroke="none" clip-path="url(#clipPath2)"/>
    </g>
    <g text-rendering="geometricPrecision" stroke-miterlimit="1.45" shape-rendering="geometricPrecision" transform="matrix(1,0,0,1,-242,-409)" stroke-linecap="butt">
      <path fill="none" d="M633.3466 729.1028 L896.2385 729.1028 L896.2385 823.5462 L633.3466 823.5462 Z" clip-path="url(#clipPath2)"/>
      <text x="687.5074" xml:space="preserve" y="759.5257" clip-path="url(#clipPath2)" font-family="sans-serif" stroke="none">A unification call is made.</text>
      <text x="672.358" xml:space="preserve" y="773.4944" clip-path="url(#clipPath2)" font-family="sans-serif" stroke="none">involving any "fresh term" (i.e.</text>
      <text x="671.022" xml:space="preserve" y="787.4632" clip-path="url(#clipPath2)" font-family="sans-serif" stroke="none">uninstantiated term) subject to</text>
      <text x="711.7505" xml:space="preserve" y="801.4319" clip-path="url(#clipPath2)" font-family="sans-serif" stroke="none">a dif/2 constraint.</text>
    </g>
    <g fill="url(#linearGradient7)" text-rendering="geometricPrecision" shape-rendering="geometricPrecision" transform="matrix(1,0,0,1,-242,-409)" stroke="url(#linearGradient7)">
      <path d="M1221.6534 729.1028 L1416.7526 729.1028 L1416.7526 823.5462 L1221.6534 823.5462 Z" stroke="none" clip-path="url(#clipPath2)"/>
    </g>
    <g text-rendering="geometricPrecision" stroke-miterlimit="1.45" shape-rendering="geometricPrecision" transform="matrix(1,0,0,1,-242,-409)" stroke-linecap="butt">
      <path fill="none" d="M1221.6534 729.1028 L1416.7526 729.1028 L1416.7526 823.5462 L1221.6534 823.5462 Z" clip-path="url(#clipPath2)"/>
      <text x="1240.702" xml:space="preserve" y="759.5257" clip-path="url(#clipPath2)" font-family="sans-serif" stroke="none">A check of the active dif/2</text>
      <text x="1246.3798" xml:space="preserve" y="773.4944" clip-path="url(#clipPath2)" font-family="sans-serif" stroke="none">constraint with the, new</text>
      <text x="1250.0096" xml:space="preserve" y="787.4632" clip-path="url(#clipPath2)" font-family="sans-serif" stroke="none">post-unification A, B is </text>
      <text x="1289.5341" xml:space="preserve" y="801.4319" clip-path="url(#clipPath2)" font-family="sans-serif" stroke="none">triggered.</text>
    </g>
    <g fill="url(#linearGradient8)" text-rendering="geometricPrecision" shape-rendering="geometricPrecision" transform="matrix(1,0,0,1,-242,-409)" stroke="url(#linearGradient8)">
      <path d="M1221.6534 850.728 L1416.7526 850.728 L1416.7526 922.728 L1221.6534 922.728 Z" stroke="none" clip-path="url(#clipPath2)"/>
    </g>
    <g text-rendering="geometricPrecision" stroke-miterlimit="1.45" shape-rendering="geometricPrecision" transform="matrix(1,0,0,1,-242,-409)" stroke-linecap="butt">
      <path fill="none" d="M1221.6534 850.728 L1416.7526 850.728 L1416.7526 922.728 L1221.6534 922.728 Z" clip-path="url(#clipPath2)"/>
      <text x="1242.2079" xml:space="preserve" y="883.8979" clip-path="url(#clipPath2)" font-family="sans-serif" stroke="none">The terms involved in the</text>
      <text x="1257.2343" xml:space="preserve" y="897.8667" clip-path="url(#clipPath2)" font-family="sans-serif" stroke="none">constraint are now...</text>
    </g>
    <g fill="url(#linearGradient9)" text-rendering="geometricPrecision" shape-rendering="geometricPrecision" transform="matrix(1,0,0,1,-242,-409)" stroke="url(#linearGradient9)">
      <path d="M257.4783 729.1028 L520.3702 729.1028 L520.3702 823.5462 L257.4783 823.5462 Z" stroke="none" clip-path="url(#clipPath2)"/>
    </g>
    <g text-rendering="geometricPrecision" stroke-miterlimit="1.45" shape-rendering="geometricPrecision" transform="matrix(1,0,0,1,-242,-409)" stroke-linecap="butt">
      <path fill="none" d="M257.4783 729.1028 L520.3702 729.1028 L520.3702 823.5462 L257.4783 823.5462 Z" clip-path="url(#clipPath2)"/>
      <text x="351.1137" xml:space="preserve" y="752.5413" clip-path="url(#clipPath2)" font-family="sans-serif" stroke="none">Previous call</text>
      <text x="387.017" xml:space="preserve" y="766.5101" clip-path="url(#clipPath2)" font-family="sans-serif" stroke="none"> </text>
      <text x="290.5219" xml:space="preserve" y="780.4788" clip-path="url(#clipPath2)" font-family="sans-serif" stroke="none">...if there is one; there is none if:</text>
      <text x="295.2621" xml:space="preserve" y="794.4476" clip-path="url(#clipPath2)" font-family="sans-serif" stroke="none">- this happens in a clause head</text>
      <text x="299.5805" xml:space="preserve" y="808.4163" clip-path="url(#clipPath2)" font-family="sans-serif" stroke="none">- this is the first call of a body</text>
    </g>
    <g fill="url(#linearGradient10)" text-rendering="geometricPrecision" shape-rendering="geometricPrecision" transform="matrix(1,0,0,1,-242,-409)" stroke="url(#linearGradient10)">
      <path d="M525.3833 616.515 L658.9333 616.515 L648.7333 656.515 L515.1833 656.515 Z" stroke="none" clip-path="url(#clipPath2)"/>
    </g>
    <g text-rendering="geometricPrecision" stroke-miterlimit="1.45" shape-rendering="geometricPrecision" transform="matrix(1,0,0,1,-242,-409)" stroke-linecap="butt">
      <path fill="none" d="M525.3833 616.515 L658.9333 616.515 L648.7333 656.515 L515.1833 656.515 Z" clip-path="url(#clipPath2)"/>
      <text x="554.9489" xml:space="preserve" y="633.6849" clip-path="url(#clipPath2)" font-family="sans-serif" stroke="none">Unification</text>
      <text x="541.0446" xml:space="preserve" y="647.6536" clip-path="url(#clipPath2)" font-family="sans-serif" stroke="none">fails: Backtrack</text>
    </g>
    <g fill="url(#linearGradient11)" text-rendering="geometricPrecision" shape-rendering="geometricPrecision" transform="matrix(1,0,0,1,-242,-409)" stroke="url(#linearGradient11)">
      <path d="M976.8202 572.765 L1110.3702 572.765 L1100.1702 612.765 L966.6202 612.765 Z" stroke="none" clip-path="url(#clipPath2)"/>
    </g>
    <g text-rendering="geometricPrecision" stroke-miterlimit="1.45" shape-rendering="geometricPrecision" transform="matrix(1,0,0,1,-242,-409)" stroke-linecap="butt">
      <path fill="none" d="M976.8202 572.765 L1110.3702 572.765 L1100.1702 612.765 L966.6202 612.765 Z" clip-path="url(#clipPath2)"/>
      <text x="1014.3428" xml:space="preserve" y="596.9193" clip-path="url(#clipPath2)" font-family="sans-serif" stroke="none">Success</text>
    </g>
    <g fill="url(#linearGradient12)" text-rendering="geometricPrecision" shape-rendering="geometricPrecision" transform="matrix(1,0,0,1,-242,-409)" stroke="url(#linearGradient12)">
      <path d="M525.3833 511.515 L658.9333 511.515 L648.7333 551.515 L515.1833 551.515 Z" stroke="none" clip-path="url(#clipPath2)"/>
    </g>
    <g text-rendering="geometricPrecision" stroke-miterlimit="1.45" shape-rendering="geometricPrecision" transform="matrix(1,0,0,1,-242,-409)" stroke-linecap="butt">
      <path fill="none" d="M525.3833 511.515 L658.9333 511.515 L648.7333 551.515 L515.1833 551.515 Z" clip-path="url(#clipPath2)"/>
      <text x="562.9059" xml:space="preserve" y="535.6693" clip-path="url(#clipPath2)" font-family="sans-serif" stroke="none">Success</text>
    </g>
    <g fill="url(#linearGradient13)" text-rendering="geometricPrecision" shape-rendering="geometricPrecision" transform="matrix(1,0,0,1,-242,-409)" stroke="url(#linearGradient13)">
      <path d="M1787.5966 729.1028 L2014.2384 729.1028 L2014.2384 823.5462 L1787.5966 823.5462 Z" stroke="none" clip-path="url(#clipPath2)"/>
    </g>
    <g text-rendering="geometricPrecision" stroke-miterlimit="1.45" shape-rendering="geometricPrecision" transform="matrix(1,0,0,1,-242,-409)" stroke-linecap="butt">
      <path fill="none" d="M1787.5966 729.1028 L2014.2384 729.1028 L2014.2384 823.5462 L1787.5966 823.5462 Z" clip-path="url(#clipPath2)"/>
      <text x="1874.6177" xml:space="preserve" y="752.5413" clip-path="url(#clipPath2)" font-family="sans-serif" stroke="none">Next call</text>
      <text x="1899.0103" xml:space="preserve" y="766.5101" clip-path="url(#clipPath2)" font-family="sans-serif" stroke="none"> </text>
      <text x="1802.5151" xml:space="preserve" y="780.4788" clip-path="url(#clipPath2)" font-family="sans-serif" stroke="none">...if there is one; there is none if:</text>
      <text x="1807.2554" xml:space="preserve" y="794.4476" clip-path="url(#clipPath2)" font-family="sans-serif" stroke="none">- this happens in a clause head</text>
      <text x="1812.4761" xml:space="preserve" y="808.4163" clip-path="url(#clipPath2)" font-family="sans-serif" stroke="none">- this is the last call of a body</text>
    </g>
    <g fill="url(#linearGradient14)" text-rendering="geometricPrecision" shape-rendering="geometricPrecision" transform="matrix(1,0,0,1,-242,-409)" stroke="url(#linearGradient14)">
      <path d="M1843.3862 1019.0291 L1972.7925 1019.0291 L1958.4487 1075.2791 L1829.0425 1075.2791 Z" stroke="none" clip-path="url(#clipPath2)"/>
    </g>
    <g text-rendering="geometricPrecision" stroke-miterlimit="1.45" shape-rendering="geometricPrecision" transform="matrix(1,0,0,1,-242,-409)" stroke-linecap="butt">
      <path fill="none" d="M1843.3862 1019.0291 L1972.7925 1019.0291 L1958.4487 1075.2791 L1829.0425 1075.2791 Z" clip-path="url(#clipPath2)"/>
      <text x="1847.3218" xml:space="preserve" y="1037.3396" clip-path="url(#clipPath2)" font-family="sans-serif" stroke="none">Constraint upheld</text>
      <text x="1861.8706" xml:space="preserve" y="1051.3083" clip-path="url(#clipPath2)" font-family="sans-serif" stroke="none">(and closed),</text>
      <text x="1876.1997" xml:space="preserve" y="1065.2771" clip-path="url(#clipPath2)" font-family="sans-serif" stroke="none">succeed</text>
    </g>
    <g fill="url(#linearGradient15)" text-rendering="geometricPrecision" shape-rendering="geometricPrecision" transform="matrix(1,0,0,1,-242,-409)" stroke="url(#linearGradient15)">
      <path d="M1987.1362 1019.0291 L2116.5425 1019.0291 L2102.1987 1075.2791 L1972.7925 1075.2791 Z" stroke="none" clip-path="url(#clipPath2)"/>
    </g>
    <g text-rendering="geometricPrecision" stroke-miterlimit="1.45" shape-rendering="geometricPrecision" transform="matrix(1,0,0,1,-242,-409)" stroke-linecap="butt">
      <path fill="none" d="M1987.1362 1019.0291 L2116.5425 1019.0291 L2102.1987 1075.2791 L1972.7925 1075.2791 Z" clip-path="url(#clipPath2)"/>
      <text x="1991.0718" xml:space="preserve" y="1037.3396" clip-path="url(#clipPath2)" font-family="sans-serif" stroke="none">Constraint upheld</text>
      <text x="1997.4849" xml:space="preserve" y="1051.3083" clip-path="url(#clipPath2)" font-family="sans-serif" stroke="none">(and rewritten),</text>
      <text x="2019.9497" xml:space="preserve" y="1065.2771" clip-path="url(#clipPath2)" font-family="sans-serif" stroke="none">succeed</text>
    </g>
    <g fill="url(#linearGradient16)" text-rendering="geometricPrecision" shape-rendering="geometricPrecision" transform="matrix(1,0,0,1,-242,-409)" stroke="url(#linearGradient16)">
      <path d="M467.3844 947.4465 L692.1844 947.4465 L681.9844 987.4465 L457.1844 987.4465 Z" stroke="none" clip-path="url(#clipPath2)"/>
    </g>
    <g text-rendering="geometricPrecision" stroke-miterlimit="1.45" shape-rendering="geometricPrecision" transform="matrix(1,0,0,1,-242,-409)" stroke-linecap="butt">
      <path fill="none" d="M467.3844 947.4465 L692.1844 947.4465 L681.9844 987.4465 L457.1844 987.4465 Z" clip-path="url(#clipPath2)"/>
      <text x="486.9666" xml:space="preserve" y="964.6165" clip-path="url(#clipPath2)" font-family="sans-serif" stroke="none">Unification+Constraint check</text>
      <text x="528.6707" xml:space="preserve" y="978.5852" clip-path="url(#clipPath2)" font-family="sans-serif" stroke="none">fails: Backtrack</text>
    </g>
    <g fill="url(#linearGradient17)" text-rendering="geometricPrecision" shape-rendering="geometricPrecision" transform="matrix(1,0,0,1,-242,-409)" stroke="url(#linearGradient17)">
      <path d="M1213.1006 1187.2507 L1430.8472 1187.2507 L1430.8472 1250.4546 L1213.1006 1250.4546 Z" stroke="none" clip-path="url(#clipPath2)"/>
    </g>
    <g stroke-linecap="butt" transform="matrix(1,0,0,1,-242,-409)" fill="rgb(153,153,153)" text-rendering="geometricPrecision" shape-rendering="geometricPrecision" stroke="rgb(153,153,153)" stroke-miterlimit="1.45">
      <path fill="none" d="M1213.1006 1187.2507 L1430.8472 1187.2507 L1430.8472 1250.4546 L1213.1006 1250.4546 Z" clip-path="url(#clipPath2)"/>
      <text x="1219.1006" y="1209.0382" clip-path="url(#clipPath2)" fill="black" font-family="sans-serif" stroke="none" xml:space="preserve">The constraint may be rewritten</text>
      <text x="1219.1006" y="1223.007" clip-path="url(#clipPath2)" fill="black" font-family="sans-serif" stroke="none" xml:space="preserve">to a simpler version reflecting the</text>
      <text x="1219.1006" y="1236.9757" clip-path="url(#clipPath2)" fill="black" font-family="sans-serif" stroke="none" xml:space="preserve">new A and B</text>
    </g>
    <g fill="url(#linearGradient18)" text-rendering="geometricPrecision" shape-rendering="geometricPrecision" transform="matrix(1,0,0,1,-242,-409)" stroke="url(#linearGradient18)">
      <path d="M525.3833 424.5566 L658.9333 424.5566 L648.7333 464.5566 L515.1833 464.5566 Z" stroke="none" clip-path="url(#clipPath2)"/>
    </g>
    <g text-rendering="geometricPrecision" stroke-miterlimit="1.45" shape-rendering="geometricPrecision" transform="matrix(1,0,0,1,-242,-409)" stroke-linecap="butt">
      <path fill="none" d="M525.3833 424.5566 L658.9333 424.5566 L648.7333 464.5566 L515.1833 464.5566 Z" clip-path="url(#clipPath2)"/>
      <text x="557.5417" xml:space="preserve" y="448.7109" clip-path="url(#clipPath2)" font-family="sans-serif" stroke="none">On failure</text>
    </g>
    <g text-rendering="geometricPrecision" stroke-miterlimit="1.45" shape-rendering="geometricPrecision" transform="matrix(1,0,0,1,-242,-409)" stroke-linecap="butt">
      <path fill="none" d="M1625.4922 1106.2568 L1625.6616 1138.0255" clip-path="url(#clipPath2)"/>
    </g>
    <g text-rendering="geometricPrecision" stroke-miterlimit="1.45" shape-rendering="geometricPrecision" transform="matrix(1,0,0,1,-242,-409)" stroke-linecap="butt">
      <path d="M1625.7042 1146.0254 L1630.6403 1133.9989 L1625.6562 1137.0255 L1620.6404 1134.0522 Z" stroke="none" clip-path="url(#clipPath2)"/>
      <path fill="none" d="M1319.203 1106.2745 L1319.203 1137.995" clip-path="url(#clipPath2)"/>
      <path d="M1319.203 1145.995 L1324.203 1133.995 L1319.203 1136.995 L1314.203 1133.995 Z" clip-path="url(#clipPath2)" stroke="none"/>
      <path fill="none" d="M1319.203 823.5209 L1319.203 842.7111" clip-path="url(#clipPath2)"/>
      <path d="M1319.203 850.7111 L1324.203 838.7111 L1319.203 841.7111 L1314.203 838.7111 Z" clip-path="url(#clipPath2)" stroke="none"/>
      <path fill="none" d="M1319.203 922.722 L1319.203 980.0671" clip-path="url(#clipPath2)"/>
      <path d="M1319.203 988.0671 L1324.203 976.0671 L1319.203 979.0671 L1314.203 976.0671 Z" clip-path="url(#clipPath2)" stroke="none"/>
      <path fill="none" d="M1387.8903 922.7416 L1505.3865 984.3464" clip-path="url(#clipPath2)"/>
      <path d="M1512.4717 988.0612 L1504.1656 978.0607 L1504.5009 983.882 L1499.5221 986.9172 Z" clip-path="url(#clipPath2)" stroke="none"/>
      <path fill="none" d="M1248.7471 922.7416 L1128.0813 984.4201" clip-path="url(#clipPath2)"/>
      <path d="M1120.958 988.0612 L1133.9187 987.0516 L1128.9718 983.9649 L1129.3673 978.1474 Z" clip-path="url(#clipPath2)" stroke="none"/>
      <path fill="none" d="M737.0693 729.1285 L719.6238 699.4293 L710.2899 684.6837 L700.7664 671.9042 L691.0533 661.0909 L681.1506 652.2435 L671.0582 645.3623 L661.0583 640.5819 L660.962 640.5548" clip-path="url(#clipPath2)"/>
      <path d="M653.2764 638.3342 L663.417 646.4686 L661.9227 640.8323 L666.1927 636.8615 Z" clip-path="url(#clipPath2)" stroke="none"/>
      <text x="664.9079" xml:space="preserve" y="679.971" clip-path="url(#clipPath2)" font-family="sans-serif" stroke="none">out@FAILURE</text>
      <path fill="none" d="M520.2924 636.515 L517.9645 636.515 L510.9915 636.7607 L504.2052 637.498 L497.6056 638.7268 L491.1928 640.4471 L484.9667 642.6589 L478.9273 645.3623 L473.0747 648.5571 L467.4088 652.2435 L456.6373 661.0909 L446.6126 671.9042 L437.335 684.6837 L428.8042 699.4293 L417.0845 722.0268" clip-path="url(#clipPath2)"/>
      <path d="M413.4014 729.1285 L423.3647 720.7779 L417.5449 721.1391 L414.4875 716.174 Z" clip-path="url(#clipPath2)" stroke="none"/>
      <text x="412.2779" xml:space="preserve" y="679.971" clip-path="url(#clipPath2)" font-family="sans-serif" stroke="none">in@REDO</text>
      <path fill="none" d="M785.3531 729.078 L788.3824 722.1168 L798.7597 700.3574 L810.5907 679.431 L823.8754 659.3377 L838.6137 640.0775 L845.4871 631.7025 L853.876 622.8607 L863.5776 615.179 L874.5919 608.6575 L886.9187 603.2962 L900.5582 599.095 L915.5103 596.054 L931.7751 594.1732 L949.3525 593.4525 L963.5949 593.3426" clip-path="url(#clipPath2)"/>
      <path d="M971.5947 593.2809 L959.5565 588.3736 L962.5949 593.3503 L959.6336 598.3733 Z" clip-path="url(#clipPath2)" stroke="none"/>
      <text x="798.2369" xml:space="preserve" y="640.0443" clip-path="url(#clipPath2)" font-family="sans-serif" stroke="none">out@SUCCESS</text>
      <path fill="none" d="M1105.2568 592.765 L1143.2274 592.765 L1153.7627 593.0876 L1163.9458 594.0556 L1173.777 595.6689 L1183.2561 597.9276 L1192.3832 600.8315 L1201.1582 604.3809 L1209.5812 608.5754 L1217.6521 613.4154 L1225.371 618.9007 L1232.7378 625.0313 L1239.7526 631.8072 L1246.4153 639.2285 L1252.7261 647.295 L1258.6847 656.007 L1264.2914 665.3642 L1269.5459 675.3668 L1292.4559 721.9452" clip-path="url(#clipPath2)"/>
      <path d="M1295.9868 729.1238 L1295.1771 716.1491 L1292.0145 721.0479 L1286.2039 720.5627 Z" clip-path="url(#clipPath2)" stroke="none"/>
      <text x="1188.1259" xml:space="preserve" y="626.9193" clip-path="url(#clipPath2)" font-family="sans-serif" stroke="none">in@CALL</text>
      <path fill="none" d="M388.5393 729.0811 L388.2417 692.5543 L388.5256 675.9015 L389.6563 660.2128 L391.634 645.4883 L394.4586 631.7279 L398.1302 618.9316 L402.6486 607.0994 L408.0139 596.2314 L414.2262 586.3275 L420.1246 577.9525 L427.3327 569.0579 L435.6856 561.2181 L445.1833 554.4329 L455.8257 548.7025 L467.613 544.0267 L480.545 540.4056 L494.6218 537.8392 L509.8433 536.3275 L511.2468 536.24" clip-path="url(#clipPath2)"/>
      <path d="M519.2313 535.7423 L506.9435 531.4985 L510.2487 536.3022 L507.5656 541.4791 Z" clip-path="url(#clipPath2)" stroke="none"/>
      <text x="373.3619" xml:space="preserve" y="586.2943" clip-path="url(#clipPath2)" font-family="sans-serif" stroke="none">out@SUCCESS</text>
      <path fill="none" d="M652.4025 537.0297 L684.8121 539.765 L694.4973 540.9863 L703.5576 542.9628 L711.993 545.6946 L719.8036 549.1815 L726.9893 553.4236 L733.5502 558.4209 L739.4863 564.1733 L744.7974 570.681 L749.4838 577.9439 L753.5453 585.962 L756.9819 594.7352 L759.7938 604.2636 L761.9807 614.5472 L763.5428 625.5861 L764.4801 637.3801 L764.7925 649.9293 L764.7925 721.0806" clip-path="url(#clipPath2)"/>
      <path d="M764.7925 729.0806 L769.7925 717.0806 L764.7925 720.0806 L759.7925 717.0806 Z" clip-path="url(#clipPath2)" stroke="none"/>
      <text x="708.3433" xml:space="preserve" y="578.244" clip-path="url(#clipPath2)" font-family="sans-serif" stroke="none">in@CALL</text>
      <path fill="none" d="M1748.53 1194.0125 L1770.6953 1196.1799 L1785.0623 1197.3004 L1798.5448 1197.7659 L1811.1432 1197.576 L1822.8573 1196.7312 L1833.6873 1195.2311 L1843.6328 1193.0758 L1852.6942 1190.2655 L1860.8713 1186.7999 L1868.1642 1182.6792 L1874.5728 1177.9033 L1880.097 1172.4724 L1884.7372 1166.3862 L1888.493 1159.6449 L1891.3646 1152.2484 L1893.3519 1144.1968 L1894.455 1135.49 L1898.2732 1083.2983" clip-path="url(#clipPath2)"/>
      <path d="M1898.8569 1075.3197 L1892.9946 1086.9229 L1898.2002 1084.2957 L1902.968 1087.6526 Z" clip-path="url(#clipPath2)" stroke="none"/>
      <text x="1849.6887" xml:space="preserve" y="1152.6685" clip-path="url(#clipPath2)" font-family="sans-serif" stroke="none">out@SUCCESS</text>
      <path fill="none" d="M1907.2417 1019.0513 L1914.1472 988.3651 L1916.3203 976.6697 L1917.4274 965.6338 L1917.4685 955.2572 L1916.4436 945.54 L1914.3527 936.4822 L1911.1958 928.0837 L1906.9729 920.3447 L1901.6841 913.265 L1896.509 907.265 L1891.2457 900.206 L1887.0997 892.5291 L1884.0708 884.2344 L1882.1592 875.3217 L1881.3647 865.7911 L1881.6875 855.6425 L1883.1276 844.8761 L1885.6847 833.4918 L1886.2802 831.2568" clip-path="url(#clipPath2)"/>
      <path d="M1888.34 823.5266 L1880.4188 833.8346 L1886.0227 832.2231 L1890.0817 836.4094 Z" clip-path="url(#clipPath2)" stroke="none"/>
      <text x="1891.4044" xml:space="preserve" y="976.0493" clip-path="url(#clipPath2)" font-family="sans-serif" stroke="none">in@CALL</text>
      <path fill="none" d="M1441.0901 1236.0887 L1757.5393 1236.0887 L1792.3087 1235.7566 L1824.835 1234.7603 L1855.118 1233.0997 L1883.1578 1230.7749 L1908.9546 1227.7859 L1932.5081 1224.1327 L1953.8184 1219.8153 L1972.8855 1214.8336 L1989.7094 1209.1877 L2004.29 1202.8776 L2016.6276 1195.9032 L2026.7219 1188.2646 L2030.928 1184.1963 L2034.5731 1179.9618 L2037.6575 1175.5614 L2040.1812 1170.9949 L2042.1439 1166.2622 L2043.5459 1161.3635 L2044.3871 1156.2988 L2044.6675 1151.0681 L2044.6675 1083.2889" clip-path="url(#clipPath2)"/>
      <path d="M2044.6675 1075.2889 L2039.6675 1087.2889 L2044.6675 1084.2889 L2049.6675 1087.2889 Z" clip-path="url(#clipPath2)" stroke="none"/>
      <text x="2000.854" xml:space="preserve" y="1166.8304" clip-path="url(#clipPath2)" font-family="sans-serif" stroke="none">out@SUCCESS</text>
      <path fill="none" d="M2041.672 1018.9967 L2036.5847 971.1775 L2034.3457 956.3533 L2030.9352 942.9619 L2026.3533 931.0032 L2020.5999 920.4775 L2013.6749 911.3845 L2005.5786 903.7243 L1996.3108 897.497 L1985.8716 892.7025 L1976.0715 889.0775 L1965.5172 884.5761 L1955.9044 879.2283 L1947.2329 873.0342 L1939.5029 865.9935 L1932.7144 858.1065 L1926.8672 849.373 L1921.9615 839.7931 L1918.6653 831.1239 L1918.6346 831.0287" clip-path="url(#clipPath2)"/>
      <path d="M1916.0889 823.4445 L1915.1674 836.4118 L1918.9529 831.9767 L1924.6476 833.2296 Z" clip-path="url(#clipPath2)" stroke="none"/>
      <text x="2008.6304" xml:space="preserve" y="961.1841" clip-path="url(#clipPath2)" font-family="sans-serif" stroke="none">in@CALL</text>
      <path fill="none" d="M883.4333 1046.6298 L882.1456 1046.5936 L864.4365 1044.9122 L848.9976 1042.1101 L835.8287 1038.187 L824.9301 1033.1429 L820.3321 1030.2007 L816.3016 1026.978 L812.8386 1023.4753 L809.9432 1019.6923 L807.6154 1015.6291 L805.855 1011.2856 L803.23 1003.3149 L801.4186 998.9714 L798.9376 994.9083 L795.7869 991.1252 L791.9664 987.6225 L787.4764 984.3999 L782.3167 981.4576 L776.4872 978.7955 L769.9882 976.4136 L754.9811 972.4905 L737.2952 969.6883 L716.9308 968.007 L695.1068 967.4762 L695.0068 967.4762" clip-path="url(#clipPath2)"/>
      <path d="M687.0068 967.4462 L698.988 972.4912 L696.0068 967.48 L699.0255 962.4913 Z" clip-path="url(#clipPath2)" stroke="none"/>
      <text x="776.0484" xml:space="preserve" y="1011.4546" clip-path="url(#clipPath2)" font-family="sans-serif" stroke="none">out@FAIL</text>
      <path fill="none" d="M462.3517 967.2537 L457.8733 967.1106 L448.0611 966.1027 L438.9547 964.4229 L430.5541 962.0712 L422.8594 959.0476 L415.8704 955.3521 L409.5872 950.9847 L404.0098 945.9453 L399.1382 940.2341 L394.9724 933.8509 L391.5124 926.7958 L388.7581 919.0688 L386.7097 910.6699 L385.3671 901.5991 L384.7303 891.8563 L384.7993 881.4417 L386.7565 831.5646" clip-path="url(#clipPath2)"/>
      <path d="M387.0702 823.5708 L381.6035 835.3655 L386.7173 832.5639 L391.5958 835.7576 Z" clip-path="url(#clipPath2)" stroke="none"/>
      <text x="355.2009" xml:space="preserve" y="906.6429" clip-path="url(#clipPath2)" font-family="sans-serif" stroke="none">in@REDO</text>
      <path fill="none" d="M1902.8497 729.0704 L1906.8998 630.0261 L1906.7473 622.6506 L1905.6782 615.4865 L1903.6923 608.5338 L1900.7897 601.7923 L1896.9705 595.2623 L1892.2344 588.9435 L1886.5817 582.8362 L1880.0122 576.9402 L1872.5261 571.2556 L1864.1232 565.7822 L1854.8036 560.5203 L1844.5673 555.4697 L1833.4143 550.6306 L1821.3445 546.0027 L1794.455 537.381 L1763.8984 529.6048 L1729.6752 522.674 L1691.7849 516.5886 L1650.2279 511.3487 L1605.0039 506.9541 L1556.1132 503.405 L1503.5555 500.7013 L1447.3311 498.8431 L1344.1171 496.291 L1233.2012 493.3163 L1132.6851 490.1346 L1042.5688 486.7456 L962.8525 483.1496 L893.5361 479.3464 L834.6194 475.3361 L786.1027 471.1187 L747.9857 466.6941 L659.4568 454.5159" clip-path="url(#clipPath2)"/>
      <path d="M651.5314 453.4257 L662.7381 460.0144 L660.4474 454.6522 L664.1009 450.1077 Z" clip-path="url(#clipPath2)" stroke="none"/>
      <text x="1865.5115" xml:space="preserve" y="647.4517" clip-path="url(#clipPath2)" font-family="sans-serif" stroke="none">out@FAILURE</text>
      <path fill="none" d="M518.8052 450.2427 L441.6788 456.6681 L427.2888 458.4125 L413.8556 461.1685 L401.379 464.936 L389.8593 469.7151 L379.2962 475.5057 L369.6899 482.3078 L361.0404 490.1215 L353.3476 498.9467 L346.6115 508.7834 L340.8322 519.6317 L336.0096 531.4915 L332.1437 544.3629 L329.2346 558.2457 L327.2822 573.1401 L326.2865 589.0461 L326.2476 605.9636 L329.1521 721.1202" clip-path="url(#clipPath2)"/>
      <path d="M329.3538 729.1176 L334.0496 716.9954 L329.1269 720.1205 L324.0528 717.2475 Z" clip-path="url(#clipPath2)" stroke="none"/>
      <text x="296.1211" xml:space="preserve" y="556.4332" clip-path="url(#clipPath2)" font-family="sans-serif" stroke="none">in@REDO</text>
    </g>
  </g>
</svg>
