<?xml version="1.0" encoding="UTF-8"?><svg xmlns="http://www.w3.org/2000/svg" xmlns:xlink="http://www.w3.org/1999/xlink" fill-opacity="1" color-rendering="auto" color-interpolation="auto" text-rendering="auto" stroke="black" stroke-linecap="square" width="1753" stroke-miterlimit="10" shape-rendering="auto" stroke-opacity="1" fill="black" stroke-dasharray="none" font-weight="normal" stroke-width="1" height="779" font-family="'Dialog'" font-style="normal" stroke-linejoin="miter" font-size="12px" stroke-dashoffset="0" image-rendering="auto">
  <!--Generated by ySVG 2.5-->
  <defs id="genericDefs"/>
  <g>
    <defs id="defs1">
      <linearGradient x1="-1519.1064" gradientUnits="userSpaceOnUse" x2="202.5367" y1="-446.9569" y2="-258.2596" id="linearGradient1" spreadMethod="reflect">
        <stop stop-opacity="1" stop-color="rgb(255,255,153)" offset="0%"/>
        <stop stop-opacity="1" stop-color="rgb(255,255,153)" offset="100%"/>
      </linearGradient>
      <linearGradient x1="-1192.7867" gradientUnits="userSpaceOnUse" x2="-948.9376" y1="22.4963" y2="140.6897" id="linearGradient2" spreadMethod="reflect">
        <stop stop-opacity="1" stop-color="rgb(255,102,0)" offset="0%"/>
        <stop stop-opacity="1" stop-color="rgb(255,102,0)" offset="100%"/>
      </linearGradient>
      <linearGradient x1="-825.7897" gradientUnits="userSpaceOnUse" x2="-581.9406" y1="-124.2074" y2="-6.0141" id="linearGradient3" spreadMethod="reflect">
        <stop stop-opacity="1" stop-color="lime" offset="0%"/>
        <stop stop-opacity="1" stop-color="lime" offset="100%"/>
      </linearGradient>
      <linearGradient x1="-825.7897" gradientUnits="userSpaceOnUse" x2="-581.9406" y1="23.9859" y2="142.1793" id="linearGradient4" spreadMethod="reflect">
        <stop stop-opacity="1" stop-color="yellow" offset="0%"/>
        <stop stop-opacity="1" stop-color="yellow" offset="100%"/>
      </linearGradient>
      <linearGradient x1="-1015.794" gradientUnits="userSpaceOnUse" x2="-752.9022" y1="-399.83" y2="-305.3866" id="linearGradient5" spreadMethod="reflect">
        <stop stop-opacity="1" stop-color="rgb(183,201,227)" offset="0%"/>
        <stop stop-opacity="1" stop-color="rgb(183,201,227)" offset="100%"/>
      </linearGradient>
      <linearGradient x1="-1487.3806" gradientUnits="userSpaceOnUse" x2="-1224.4886" y1="-399.83" y2="-305.3866" id="linearGradient6" spreadMethod="reflect">
        <stop stop-opacity="1" stop-color="rgb(255,255,153)" offset="0%"/>
        <stop stop-opacity="1" stop-color="rgb(255,255,153)" offset="100%"/>
      </linearGradient>
      <linearGradient x1="-1491.4268" gradientUnits="userSpaceOnUse" x2="-1220.4426" y1="-173.0943" y2="-133.0943" id="linearGradient7" spreadMethod="reflect">
        <stop stop-opacity="1" stop-color="rgb(232,238,247)" offset="0%"/>
        <stop stop-opacity="1" stop-color="rgb(183,201,227)" offset="100%"/>
      </linearGradient>
      <linearGradient x1="-1233.4623" gradientUnits="userSpaceOnUse" x2="-1006.8204" y1="-526.2219" y2="-486.222" id="linearGradient8" spreadMethod="reflect">
        <stop stop-opacity="1" stop-color="rgb(232,238,247)" offset="0%"/>
        <stop stop-opacity="1" stop-color="rgb(183,201,227)" offset="100%"/>
      </linearGradient>
      <linearGradient x1="-1160.1414" gradientUnits="userSpaceOnUse" x2="-1080.1414" y1="-372.6083" y2="-332.6083" id="linearGradient9" spreadMethod="reflect">
        <stop stop-opacity="1" stop-color="rgb(232,238,247)" offset="0%"/>
        <stop stop-opacity="1" stop-color="rgb(183,201,227)" offset="100%"/>
      </linearGradient>
      <linearGradient x1="-251.6975" gradientUnits="userSpaceOnUse" x2="-171.6975" y1="-372.6083" y2="-332.6083" id="linearGradient10" spreadMethod="reflect">
        <stop stop-opacity="1" stop-color="rgb(232,238,247)" offset="0%"/>
        <stop stop-opacity="1" stop-color="rgb(183,201,227)" offset="100%"/>
      </linearGradient>
      <linearGradient x1="-1286.7455" gradientUnits="userSpaceOnUse" x2="-953.5372" y1="-605.487" y2="-565.487" id="linearGradient11" spreadMethod="reflect">
        <stop stop-opacity="1" stop-color="rgb(232,238,247)" offset="0%"/>
        <stop stop-opacity="1" stop-color="rgb(183,201,227)" offset="100%"/>
      </linearGradient>
      <linearGradient x1="-997.669" gradientUnits="userSpaceOnUse" x2="-771.0272" y1="-235.677" y2="-195.677" id="linearGradient12" spreadMethod="reflect">
        <stop stop-opacity="1" stop-color="rgb(232,238,247)" offset="0%"/>
        <stop stop-opacity="1" stop-color="rgb(183,201,227)" offset="100%"/>
      </linearGradient>
      <clipPath clipPathUnits="userSpaceOnUse" id="clipPath1">
        <path d="M0 0 L1753 0 L1753 779 L0 779 L0 0 Z"/>
      </clipPath>
      <clipPath clipPathUnits="userSpaceOnUse" id="clipPath2">
        <path d="M-1535 -621 L218 -621 L218 158 L-1535 158 L-1535 -621 Z"/>
      </clipPath>
      <clipPath clipPathUnits="userSpaceOnUse" id="clipPath3">
        <path d="M314.9991 -333.7006 L314.9991 1419.2994 L-464.0009 1419.2994 L-464.0009 -333.7006 L314.9991 -333.7006 Z"/>
      </clipPath>
      <clipPath clipPathUnits="userSpaceOnUse" id="clipPath4">
        <path d="M296.8409 -478.0479 L296.8409 1274.952 L-482.1591 1274.952 L-482.1591 -478.0479 L296.8409 -478.0479 Z"/>
      </clipPath>
      <clipPath clipPathUnits="userSpaceOnUse" id="clipPath5">
        <path d="M296.8409 -1392.8386 L296.8409 360.1613 L-482.1591 360.1613 L-482.1591 -1392.8386 L296.8409 -1392.8386 Z"/>
      </clipPath>
    </defs>
    <g fill="white" text-rendering="geometricPrecision" shape-rendering="geometricPrecision" transform="translate(1535,621)" stroke="white">
      <rect x="-1535" width="1753" height="779" y="-621" clip-path="url(#clipPath2)" stroke="none"/>
    </g>
    <g fill="url(#linearGradient1)" text-rendering="geometricPrecision" shape-rendering="geometricPrecision" transform="matrix(1,0,0,1,1535,621)" stroke="url(#linearGradient1)">
      <path d="M-1519.1064 -446.9569 L155.3624 -446.9569 L202.5367 -352.6083 L155.3624 -258.2596 L-1519.1064 -258.2596 Z" stroke="none" clip-path="url(#clipPath2)"/>
    </g>
    <g fill="url(#linearGradient2)" text-rendering="geometricPrecision" shape-rendering="geometricPrecision" transform="matrix(1,0,0,1,1535,621)" stroke="url(#linearGradient2)">
      <path d="M-1192.7867 22.4963 L-948.9376 22.4963 L-948.9376 140.6897 L-1192.7867 140.6897 Z" stroke="none" clip-path="url(#clipPath2)"/>
    </g>
    <g text-rendering="geometricPrecision" stroke-miterlimit="1.45" shape-rendering="geometricPrecision" transform="matrix(1,0,0,1,1535,621)" stroke-linecap="butt">
      <path fill="none" d="M-1192.7867 22.4963 L-948.9376 22.4963 L-948.9376 140.6897 L-1192.7867 140.6897 Z" clip-path="url(#clipPath2)"/>
      <text x="-1108.1219" xml:space="preserve" y="64.7942" clip-path="url(#clipPath2)" font-family="sans-serif" stroke="none">"IDENTICAL"</text>
      <text x="-1077.3573" xml:space="preserve" y="78.7629" clip-path="url(#clipPath2)" font-family="sans-serif" stroke="none">---</text>
      <text x="-1092.952" xml:space="preserve" y="92.7317" clip-path="url(#clipPath2)" font-family="sans-serif" stroke="none">A == B</text>
      <text x="-1077.3573" xml:space="preserve" y="106.7004" clip-path="url(#clipPath2)" font-family="sans-serif" stroke="none">---</text>
    </g>
    <g fill="url(#linearGradient3)" text-rendering="geometricPrecision" shape-rendering="geometricPrecision" transform="matrix(1,0,0,1,1535,621)" stroke="url(#linearGradient3)">
      <path d="M-825.7897 -124.2074 L-581.9406 -124.2074 L-581.9406 -6.0141 L-825.7897 -6.0141 Z" stroke="none" clip-path="url(#clipPath2)"/>
    </g>
    <g text-rendering="geometricPrecision" stroke-miterlimit="1.45" shape-rendering="geometricPrecision" transform="matrix(1,0,0,1,1535,621)" stroke-linecap="butt">
      <path fill="none" d="M-825.7897 -124.2074 L-581.9406 -124.2074 L-581.9406 -6.0141 L-825.7897 -6.0141 Z" clip-path="url(#clipPath2)"/>
      <text x="-737.0614" xml:space="preserve" y="-81.9096" clip-path="url(#clipPath2)" font-family="sans-serif" stroke="none">DIFFERENT</text>
      <text x="-710.3602" xml:space="preserve" y="-67.9408" clip-path="url(#clipPath2)" font-family="sans-serif" stroke="none">---</text>
      <text x="-722.9491" xml:space="preserve" y="-53.9721" clip-path="url(#clipPath2)" font-family="sans-serif" stroke="none">A \= B</text>
      <text x="-710.3602" xml:space="preserve" y="-40.0033" clip-path="url(#clipPath2)" font-family="sans-serif" stroke="none">---</text>
    </g>
    <g text-rendering="geometricPrecision" stroke-miterlimit="1.45" shape-rendering="geometricPrecision" transform="matrix(1,0,0,1,1535,621)" stroke-linecap="butt">
      <path fill="none" d="M-539.7477 -101.1107 L-362.6321 -101.1107 L-362.6321 -29.1107 L-539.7477 -29.1107 Z" clip-path="url(#clipPath2)"/>
      <text x="-507.0796" xml:space="preserve" y="-81.9096" clip-path="url(#clipPath2)" font-family="sans-serif" stroke="none">Accept unification.</text>
      <text x="-453.0971" xml:space="preserve" y="-67.9408" clip-path="url(#clipPath2)" font-family="sans-serif" stroke="none"> </text>
      <text x="-532.6733" xml:space="preserve" y="-53.9721" clip-path="url(#clipPath2)" font-family="sans-serif" stroke="none">"Resolve/Close constraint",</text>
      <text x="-493.02" xml:space="preserve" y="-40.0033" clip-path="url(#clipPath2)" font-family="sans-serif" stroke="none">i.e. remove it.</text>
    </g>
    <g fill="url(#linearGradient4)" text-rendering="geometricPrecision" shape-rendering="geometricPrecision" transform="matrix(1,0,0,1,1535,621)" stroke="url(#linearGradient4)">
      <path d="M-825.7897 23.9859 L-581.9406 23.9859 L-581.9406 142.1793 L-825.7897 142.1793 Z" stroke="none" clip-path="url(#clipPath2)"/>
    </g>
    <g text-rendering="geometricPrecision" stroke-miterlimit="1.45" shape-rendering="geometricPrecision" transform="matrix(1,0,0,1,1535,621)" stroke-linecap="butt">
      <path fill="none" d="M-825.7897 23.9859 L-581.9406 23.9859 L-581.9406 142.1793 L-825.7897 142.1793 Z" clip-path="url(#clipPath2)"/>
      <text x="-767.8202" xml:space="preserve" y="66.2838" clip-path="url(#clipPath2)" font-family="sans-serif" stroke="none">POSSIBLY DIFFERENT</text>
      <text x="-710.3602" xml:space="preserve" y="80.2525" clip-path="url(#clipPath2)" font-family="sans-serif" stroke="none">---</text>
      <text x="-766.7655" xml:space="preserve" y="94.2213" clip-path="url(#clipPath2)" font-family="sans-serif" stroke="none">\+ \+ A = B, A \== B</text>
      <text x="-710.3602" xml:space="preserve" y="108.19" clip-path="url(#clipPath2)" font-family="sans-serif" stroke="none">---</text>
    </g>
    <g fill="url(#linearGradient5)" text-rendering="geometricPrecision" shape-rendering="geometricPrecision" transform="matrix(1,0,0,1,1535,621)" stroke="url(#linearGradient5)">
      <path d="M-1015.794 -399.83 L-752.9022 -399.83 L-752.9022 -305.3866 L-1015.794 -305.3866 Z" stroke="none" clip-path="url(#clipPath2)"/>
    </g>
    <g text-rendering="geometricPrecision" stroke-miterlimit="1.45" shape-rendering="geometricPrecision" transform="matrix(1,0,0,1,1535,621)" stroke-linecap="butt">
      <path fill="none" d="M-1015.794 -399.83 L-752.9022 -399.83 L-752.9022 -305.3866 L-1015.794 -305.3866 Z" clip-path="url(#clipPath2)"/>
      <text x="-974.2836" xml:space="preserve" y="-369.4071" clip-path="url(#clipPath2)" font-family="sans-serif" stroke="none">A unification call is attempted</text>
      <text x="-976.7827" xml:space="preserve" y="-355.4384" clip-path="url(#clipPath2)" font-family="sans-serif" stroke="none">involving any "fresh term" (i.e.</text>
      <text x="-978.1186" xml:space="preserve" y="-341.4696" clip-path="url(#clipPath2)" font-family="sans-serif" stroke="none">uninstantiated term) subject to</text>
      <text x="-937.3901" xml:space="preserve" y="-327.5009" clip-path="url(#clipPath2)" font-family="sans-serif" stroke="none">a dif/2 constraint.</text>
    </g>
    <g fill="url(#linearGradient6)" text-rendering="geometricPrecision" shape-rendering="geometricPrecision" transform="matrix(1,0,0,1,1535,621)" stroke="url(#linearGradient6)">
      <path d="M-1487.3806 -399.83 L-1224.4886 -399.83 L-1224.4886 -305.3866 L-1487.3806 -305.3866 Z" stroke="none" clip-path="url(#clipPath2)"/>
    </g>
    <g text-rendering="geometricPrecision" stroke-miterlimit="1.45" shape-rendering="geometricPrecision" transform="matrix(1,0,0,1,1535,621)" stroke-linecap="butt">
      <path fill="none" d="M-1487.3806 -399.83 L-1224.4886 -399.83 L-1224.4886 -305.3866 L-1487.3806 -305.3866 Z" clip-path="url(#clipPath2)"/>
      <text x="-1393.7452" xml:space="preserve" y="-348.454" clip-path="url(#clipPath2)" font-family="sans-serif" stroke="none">Previous call</text>
    </g>
    <g text-rendering="geometricPrecision" stroke-miterlimit="1.45" shape-rendering="geometricPrecision" transform="matrix(1,0,0,1,1535,621)" stroke-linecap="butt">
      <path fill="none" d="M-94.6564 -399.83 L131.9855 -399.83 L131.9855 -305.3866 L-94.6564 -305.3866 Z" clip-path="url(#clipPath2)"/>
      <text x="-7.6352" xml:space="preserve" y="-348.454" clip-path="url(#clipPath2)" font-family="sans-serif" stroke="none">Next call</text>
    </g>
    <g fill="url(#linearGradient7)" text-rendering="geometricPrecision" shape-rendering="geometricPrecision" transform="matrix(1,0,0,1,1535,621)" stroke="url(#linearGradient7)">
      <path d="M-1491.4268 -173.0943 L-1220.4426 -173.0943 L-1220.4426 -133.0943 L-1491.4268 -133.0943 Z" stroke="none" clip-path="url(#clipPath2)"/>
    </g>
    <g text-rendering="geometricPrecision" stroke-miterlimit="1.45" shape-rendering="geometricPrecision" transform="matrix(1,0,0,1,1535,621)" stroke-linecap="butt">
      <path fill="none" d="M-1491.4268 -173.0943 L-1220.4426 -173.0943 L-1220.4426 -133.0943 L-1491.4268 -133.0943 Z" clip-path="url(#clipPath2)"/>
      <text x="-1454.4366" xml:space="preserve" y="-148.94" clip-path="url(#clipPath2)" font-family="sans-serif" stroke="none">Constraint check fails: Backtrack</text>
    </g>
    <g fill="url(#linearGradient8)" text-rendering="geometricPrecision" shape-rendering="geometricPrecision" transform="matrix(1,0,0,1,1535,621)" stroke="url(#linearGradient8)">
      <path d="M-1233.4623 -526.2219 L-1006.8204 -526.2219 L-1006.8204 -486.222 L-1233.4623 -486.222 Z" stroke="none" clip-path="url(#clipPath2)"/>
    </g>
    <g text-rendering="geometricPrecision" stroke-miterlimit="1.45" shape-rendering="geometricPrecision" transform="matrix(1,0,0,1,1535,621)" stroke-linecap="butt">
      <path fill="none" d="M-1233.4623 -526.2219 L-1006.8204 -526.2219 L-1006.8204 -486.222 L-1233.4623 -486.222 Z" clip-path="url(#clipPath2)"/>
      <text x="-1196.6824" xml:space="preserve" y="-509.052" clip-path="url(#clipPath2)" font-family="sans-serif" stroke="none">Unification fails normally:</text>
      <text x="-1149.9773" xml:space="preserve" y="-495.0833" clip-path="url(#clipPath2)" font-family="sans-serif" stroke="none">Backtrack</text>
    </g>
    <g fill="url(#linearGradient9)" text-rendering="geometricPrecision" shape-rendering="geometricPrecision" transform="matrix(1,0,0,1,1535,621)" stroke="url(#linearGradient9)">
      <path d="M-1160.1414 -372.6083 L-1080.1414 -372.6083 L-1080.1414 -332.6083 L-1160.1414 -332.6083 Z" stroke="none" clip-path="url(#clipPath2)"/>
    </g>
    <g text-rendering="geometricPrecision" stroke-miterlimit="1.45" shape-rendering="geometricPrecision" transform="matrix(1,0,0,1,1535,621)" stroke-linecap="butt">
      <path fill="none" d="M-1160.1414 -372.6083 L-1080.1414 -372.6083 L-1080.1414 -332.6083 L-1160.1414 -332.6083 Z" clip-path="url(#clipPath2)"/>
      <text x="-1144.3875" xml:space="preserve" y="-355.4384" clip-path="url(#clipPath2)" font-family="sans-serif" stroke="none">Proceed</text>
      <text x="-1150.5076" xml:space="preserve" y="-341.4696" clip-path="url(#clipPath2)" font-family="sans-serif" stroke="none">with proof</text>
    </g>
    <g text-rendering="geometricPrecision" stroke-miterlimit="1.45" shape-rendering="geometricPrecision" transform="matrix(1,0,0,1,1535,621)" stroke-linecap="butt">
      <path fill="none" d="M-539.0287 47.0826 L-362.6321 47.0826 L-362.6321 119.0826 L-539.0287 119.0826 Z" clip-path="url(#clipPath2)"/>
      <text x="-518.72" xml:space="preserve" y="59.2994" clip-path="url(#clipPath2)" font-family="sans-serif" stroke="none">Constraint still upheld.</text>
      <text x="-452.7376" xml:space="preserve" y="73.2682" clip-path="url(#clipPath2)" font-family="sans-serif" stroke="none"> </text>
      <text x="-509.0931" xml:space="preserve" y="87.2369" clip-path="url(#clipPath2)" font-family="sans-serif" stroke="none">The constraint may</text>
      <text x="-516.7542" xml:space="preserve" y="101.2057" clip-path="url(#clipPath2)" font-family="sans-serif" stroke="none">be rewritten to reflect</text>
      <text x="-515.6116" xml:space="preserve" y="115.1744" clip-path="url(#clipPath2)" font-family="sans-serif" stroke="none">the changed A and B.</text>
    </g>
    <g fill="url(#linearGradient10)" text-rendering="geometricPrecision" shape-rendering="geometricPrecision" transform="matrix(1,0,0,1,1535,621)" stroke="url(#linearGradient10)">
      <path d="M-251.6975 -372.6083 L-171.6975 -372.6083 L-171.6975 -332.6083 L-251.6975 -332.6083 Z" stroke="none" clip-path="url(#clipPath2)"/>
    </g>
    <g text-rendering="geometricPrecision" stroke-miterlimit="1.45" shape-rendering="geometricPrecision" transform="matrix(1,0,0,1,1535,621)" stroke-linecap="butt">
      <path fill="none" d="M-251.6975 -372.6083 L-171.6975 -372.6083 L-171.6975 -332.6083 L-251.6975 -332.6083 Z" clip-path="url(#clipPath2)"/>
      <text x="-235.9436" xml:space="preserve" y="-355.4384" clip-path="url(#clipPath2)" font-family="sans-serif" stroke="none">Proceed</text>
      <text x="-242.0638" xml:space="preserve" y="-341.4696" clip-path="url(#clipPath2)" font-family="sans-serif" stroke="none">with proof</text>
    </g>
    <g fill="url(#linearGradient11)" text-rendering="geometricPrecision" shape-rendering="geometricPrecision" transform="matrix(1,0,0,1,1535,621)" stroke="url(#linearGradient11)">
      <path d="M-1286.7455 -605.487 L-953.5372 -605.487 L-953.5372 -565.487 L-1286.7455 -565.487 Z" stroke="none" clip-path="url(#clipPath2)"/>
    </g>
    <g text-rendering="geometricPrecision" stroke-miterlimit="1.45" shape-rendering="geometricPrecision" transform="matrix(1,0,0,1,1535,621)" stroke-linecap="butt">
      <path fill="none" d="M-1286.7455 -605.487 L-953.5372 -605.487 L-953.5372 -565.487 L-1286.7455 -565.487 Z" clip-path="url(#clipPath2)"/>
      <text x="-1199.9431" xml:space="preserve" y="-588.3171" clip-path="url(#clipPath2)" font-family="sans-serif" stroke="none">Backtrack past unificiation</text>
      <text x="-1273.5281" xml:space="preserve" y="-574.3483" clip-path="url(#clipPath2)" font-family="sans-serif" stroke="none">(rolling back the term store to its previous version)</text>
    </g>
    <g fill="url(#linearGradient12)" text-rendering="geometricPrecision" shape-rendering="geometricPrecision" transform="matrix(1,0,0,1,1535,621)" stroke="url(#linearGradient12)">
      <path d="M-997.669 -235.677 L-771.0272 -235.677 L-771.0272 -195.677 L-997.669 -195.677 Z" stroke="none" clip-path="url(#clipPath2)"/>
    </g>
    <g text-rendering="geometricPrecision" stroke-miterlimit="1.45" shape-rendering="geometricPrecision" transform="matrix(1,0,0,1,1535,621)" stroke-linecap="butt">
      <path fill="none" d="M-997.669 -235.677 L-771.0272 -235.677 L-771.0272 -195.677 L-997.669 -195.677 Z" clip-path="url(#clipPath2)"/>
      <text x="-964.8676" xml:space="preserve" y="-218.5071" clip-path="url(#clipPath2)" font-family="sans-serif" stroke="none">Unification would succeed:</text>
      <text x="-934.0649" xml:space="preserve" y="-204.5383" clip-path="url(#clipPath2)" font-family="sans-serif" stroke="none">Verify constraint</text>
    </g>
    <g text-rendering="geometricPrecision" stroke-miterlimit="1.45" shape-rendering="geometricPrecision" transform="matrix(1,0,0,1,1535,621)" stroke-linecap="butt">
      <path fill="none" d="M-581.9382 -65.1107 L-547.7706 -65.1107" clip-path="url(#clipPath2)"/>
    </g>
    <g text-rendering="geometricPrecision" stroke-miterlimit="1.45" shape-rendering="geometricPrecision" transform="matrix(1,0,0,1,1535,621)" stroke-linecap="butt">
      <path d="M-539.7706 -65.1107 L-551.7706 -70.1107 L-548.7706 -65.1107 L-551.7706 -60.1107 Z" stroke="none" clip-path="url(#clipPath2)"/>
      <path fill="none" d="M-1192.7627 81.593 L-1345.9347 81.593 L-1350.3097 80.968 L-1353.4347 79.093 L-1355.3097 75.968 L-1355.9347 71.593 L-1355.9347 -125.0692" clip-path="url(#clipPath2)"/>
      <path d="M-1355.9347 -133.0692 L-1360.9347 -121.0692 L-1355.9347 -124.0692 L-1350.9347 -121.0692 Z" clip-path="url(#clipPath2)" stroke="none"/>
      <text x="-1384.4288" xml:space="preserve" y="-14.6042" clip-path="url(#clipPath2)" font-family="sans-serif" stroke="none">out@FAIL</text>
      <path fill="none" d="M-1355.9347 -173.0578 L-1355.9347 -197.2468 L-1355.9347 -287.0281 L-1355.9347 -297.3764" clip-path="url(#clipPath2)"/>
      <path d="M-1355.9347 -305.3764 L-1360.9347 -293.3764 L-1355.9347 -296.3764 L-1350.9347 -293.3764 Z" clip-path="url(#clipPath2)" stroke="none"/>
      <text x="-1384.7072" xml:space="preserve" y="-229.2173" clip-path="url(#clipPath2)" font-family="sans-serif" stroke="none">in@REDO</text>
      <path fill="none" d="M-884.3481 -399.825 L-884.3481 -496.222 L-884.9731 -500.597 L-886.8481 -503.722 L-889.9731 -505.597 L-894.3481 -506.222 L-998.8213 -506.222" clip-path="url(#clipPath2)"/>
      <path d="M-1006.8213 -506.222 L-994.8213 -501.222 L-997.8213 -506.222 L-994.8213 -511.222 Z" clip-path="url(#clipPath2)" stroke="none"/>
      <text x="-912.8422" xml:space="preserve" y="-470.3099" clip-path="url(#clipPath2)" font-family="sans-serif" stroke="none">out@FAIL</text>
      <path fill="none" d="M-1233.4614 -506.222 L-1345.9347 -506.222 L-1350.3097 -505.597 L-1353.4347 -503.722 L-1355.3097 -500.597 L-1355.9347 -496.222 L-1355.9347 -407.825" clip-path="url(#clipPath2)"/>
      <path d="M-1355.9347 -399.825 L-1350.9347 -411.825 L-1355.9347 -408.825 L-1360.9347 -411.825 Z" clip-path="url(#clipPath2)" stroke="none"/>
      <text x="-1384.7072" xml:space="preserve" y="-488.1617" clip-path="url(#clipPath2)" font-family="sans-serif" stroke="none">in@REDO</text>
      <path fill="none" d="M-1224.4811 -352.6083 L-1168.1603 -352.6083" clip-path="url(#clipPath2)"/>
      <path d="M-1160.1603 -352.6083 L-1172.1603 -357.6083 L-1169.1603 -352.6083 L-1172.1603 -347.6083 Z" clip-path="url(#clipPath2)" stroke="none"/>
    </g>
    <g text-rendering="geometricPrecision" stroke-miterlimit="1.45" shape-rendering="geometricPrecision" font-family="sans-serif" transform="matrix(0,-1,1,0,333.7006,314.9992)" stroke-linecap="butt">
      <text x="2" xml:space="preserve" y="13.1387" clip-path="url(#clipPath3)" stroke="none">out@SUCCEED</text>
    </g>
    <g text-rendering="geometricPrecision" stroke-miterlimit="1.45" shape-rendering="geometricPrecision" transform="matrix(1,0,0,1,1535,621)" stroke-linecap="butt">
      <path fill="none" d="M-1080.1613 -352.6083 L-1023.7667 -352.6083" clip-path="url(#clipPath2)"/>
      <path d="M-1015.7667 -352.6083 L-1027.7666 -357.6083 L-1024.7666 -352.6083 L-1027.7666 -347.6083 Z" clip-path="url(#clipPath2)" stroke="none"/>
    </g>
    <g text-rendering="geometricPrecision" stroke-miterlimit="1.45" shape-rendering="geometricPrecision" font-family="sans-serif" transform="matrix(0,-1,1,0,478.0479,296.841)" stroke-linecap="butt">
      <text x="2" xml:space="preserve" y="13.1387" clip-path="url(#clipPath4)" stroke="none">in@CALL</text>
    </g>
    <g text-rendering="geometricPrecision" stroke-miterlimit="1.45" shape-rendering="geometricPrecision" transform="matrix(1,0,0,1,1535,621)" stroke-linecap="butt">
      <path fill="none" d="M-581.9501 83.0826 L-547.0225 83.0826" clip-path="url(#clipPath2)"/>
      <path d="M-539.0225 83.0826 L-551.0225 78.0826 L-548.0225 83.0826 L-551.0225 88.0826 Z" clip-path="url(#clipPath2)" stroke="none"/>
      <path fill="none" d="M-362.5984 -65.1107 L-305.7849 -65.1107 L-301.4099 -65.7357 L-298.2849 -67.6107 L-296.4099 -70.7357 L-295.7849 -75.1107 L-295.7849 -342.6083 L-295.1599 -346.9833 L-293.2849 -350.1083 L-290.1599 -351.9833 L-285.7849 -352.6083 L-259.7294 -352.6083" clip-path="url(#clipPath2)"/>
      <path d="M-251.7294 -352.6083 L-263.7294 -357.6083 L-260.7294 -352.6083 L-263.7294 -347.6083 Z" clip-path="url(#clipPath2)" stroke="none"/>
      <path fill="none" d="M-362.6186 83.0826 L-306.6197 83.0826 L-302.2447 82.4576 L-299.1197 80.5826 L-297.2447 77.4576 L-296.6197 73.0826 L-296.6197 -342.6083 L-295.9947 -346.9833 L-294.1197 -350.1083 L-290.9947 -351.9833 L-286.6197 -352.6083 L-259.7121 -352.6083" clip-path="url(#clipPath2)"/>
      <path d="M-251.7121 -352.6083 L-263.7121 -357.6083 L-260.7121 -352.6083 L-263.7121 -347.6083 Z" clip-path="url(#clipPath2)" stroke="none"/>
      <path fill="none" d="M-171.6823 -352.6083 L-102.6792 -352.6083" clip-path="url(#clipPath2)"/>
      <path d="M-94.6792 -352.6083 L-106.6792 -357.6083 L-103.6792 -352.6083 L-106.6792 -347.6083 Z" clip-path="url(#clipPath2)" stroke="none"/>
    </g>
    <g text-rendering="geometricPrecision" stroke-miterlimit="1.45" shape-rendering="geometricPrecision" font-family="sans-serif" transform="matrix(0,-1,1,0,1392.8387,296.841)" stroke-linecap="butt">
      <text x="2" xml:space="preserve" y="13.1387" clip-path="url(#clipPath5)" stroke="none">in@CALL</text>
    </g>
    <g text-rendering="geometricPrecision" stroke-miterlimit="1.45" shape-rendering="geometricPrecision" transform="matrix(1,0,0,1,1535,621)" stroke-linecap="butt">
      <path fill="none" d="M18.6646 -399.8265 L18.6646 -575.487 L18.0396 -579.862 L16.1646 -582.987 L13.0396 -584.862 L8.6646 -585.487 L-945.5674 -585.487" clip-path="url(#clipPath2)"/>
      <path d="M-953.5674 -585.487 L-941.5674 -580.487 L-944.5674 -585.487 L-941.5674 -590.487 Z" clip-path="url(#clipPath2)" stroke="none"/>
      <text x="-9.8296" xml:space="preserve" y="-528.2228" clip-path="url(#clipPath2)" font-family="sans-serif" stroke="none">out@FAIL</text>
      <path fill="none" d="M-1286.7682 -585.487 L-1345.9347 -585.487 L-1350.3097 -584.862 L-1353.4347 -582.987 L-1355.3097 -579.862 L-1355.9347 -575.487 L-1355.9347 -407.8265" clip-path="url(#clipPath2)"/>
      <path d="M-1355.9347 -399.8265 L-1350.9347 -411.8265 L-1355.9347 -408.8265 L-1360.9347 -411.8265 Z" clip-path="url(#clipPath2)" stroke="none"/>
      <path fill="none" d="M-884.3481 -305.371 L-884.3481 -243.6917" clip-path="url(#clipPath2)"/>
      <path d="M-884.3481 -235.6917 L-879.3481 -247.6917 L-884.3481 -244.6917 L-889.3481 -247.6917 Z" clip-path="url(#clipPath2)" stroke="none"/>
      <path fill="none" d="M-884.3481 -195.6824 L-884.3481 71.593 L-884.9731 75.968 L-886.8481 79.093 L-889.9731 80.968 L-894.3481 81.593 L-940.9632 81.593" clip-path="url(#clipPath2)"/>
      <path d="M-948.9632 81.593 L-936.9632 86.593 L-939.9632 81.593 L-936.9632 76.593 Z" clip-path="url(#clipPath2)" stroke="none"/>
      <text x="-958.4633" xml:space="preserve" y="-159.015" clip-path="url(#clipPath2)" font-family="sans-serif" stroke="none">If the unification passed,</text>
      <text x="-964.8383" xml:space="preserve" y="-145.0462" clip-path="url(#clipPath2)" font-family="sans-serif" stroke="none">the terms in the constraint</text>
      <text x="-936.2621" xml:space="preserve" y="-131.0775" clip-path="url(#clipPath2)" font-family="sans-serif" stroke="none">would be made...</text>
      <path fill="none" d="M-884.3481 -195.6551 L-884.3481 73.0826 L-883.7231 77.4576 L-881.8481 80.5826 L-878.7231 82.4576 L-874.3481 83.0826 L-833.7881 83.0826" clip-path="url(#clipPath2)"/>
      <path d="M-825.7881 83.0826 L-837.7881 78.0826 L-834.7881 83.0826 L-837.7881 88.0826 Z" clip-path="url(#clipPath2)" stroke="none"/>
      <path fill="none" d="M-884.3481 -195.6431 L-884.3481 -75.1107 L-883.7231 -70.7357 L-881.8481 -67.6107 L-878.7231 -65.7357 L-874.3481 -65.1107 L-833.7881 -65.1107" clip-path="url(#clipPath2)"/>
      <path d="M-825.7881 -65.1107 L-837.7881 -70.1107 L-834.7881 -65.1107 L-837.7881 -60.1107 Z" clip-path="url(#clipPath2)" stroke="none"/>
    </g>
  </g>
</svg>
