<?xml version="1.0" encoding="UTF-8"?><svg xmlns="http://www.w3.org/2000/svg" xmlns:xlink="http://www.w3.org/1999/xlink" fill-opacity="1" color-rendering="auto" color-interpolation="auto" text-rendering="auto" stroke="black" stroke-linecap="square" width="841" stroke-miterlimit="10" shape-rendering="auto" stroke-opacity="1" fill="black" stroke-dasharray="none" font-weight="normal" stroke-width="1" height="958" font-family="'Dialog'" font-style="normal" stroke-linejoin="miter" font-size="12px" stroke-dashoffset="0" image-rendering="auto">
  <!--Generated by ySVG 2.5-->
  <defs id="genericDefs"/>
  <g>
    <defs id="defs1">
      <linearGradient x1="1097.75" gradientUnits="userSpaceOnUse" x2="1177.75" y1="1078.9766" y2="1118.9766" id="linearGradient1" spreadMethod="reflect">
        <stop stop-opacity="1" stop-color="rgb(153,204,255)" offset="0%"/>
        <stop stop-opacity="1" stop-color="rgb(153,204,255)" offset="100%"/>
      </linearGradient>
      <linearGradient x1="1281.25" gradientUnits="userSpaceOnUse" x2="1397.25" y1="1005.5391" y2="1045.5391" id="linearGradient2" spreadMethod="reflect">
        <stop stop-opacity="1" stop-color="rgb(153,204,255)" offset="0%"/>
        <stop stop-opacity="1" stop-color="rgb(153,204,255)" offset="100%"/>
      </linearGradient>
      <linearGradient x1="1397.25" gradientUnits="userSpaceOnUse" x2="1565.25" y1="1005.5391" y2="1045.5391" id="linearGradient3" spreadMethod="reflect">
        <stop stop-opacity="1" stop-color="rgb(153,204,255)" offset="0%"/>
        <stop stop-opacity="1" stop-color="rgb(153,204,255)" offset="100%"/>
      </linearGradient>
      <linearGradient x1="1281.25" gradientUnits="userSpaceOnUse" x2="1565.25" y1="965.5391" y2="1005.5391" id="linearGradient4" spreadMethod="reflect">
        <stop stop-opacity="1" stop-color="rgb(102,153,255)" offset="0%"/>
        <stop stop-opacity="1" stop-color="rgb(102,153,255)" offset="100%"/>
      </linearGradient>
      <linearGradient x1="1097.75" gradientUnits="userSpaceOnUse" x2="1177.75" y1="527" y2="567" id="linearGradient5" spreadMethod="reflect">
        <stop stop-opacity="1" stop-color="rgb(153,204,255)" offset="0%"/>
        <stop stop-opacity="1" stop-color="rgb(153,204,255)" offset="100%"/>
      </linearGradient>
      <linearGradient x1="1296.75" gradientUnits="userSpaceOnUse" x2="1412.75" y1="453" y2="493" id="linearGradient6" spreadMethod="reflect">
        <stop stop-opacity="1" stop-color="rgb(153,204,255)" offset="0%"/>
        <stop stop-opacity="1" stop-color="rgb(153,204,255)" offset="100%"/>
      </linearGradient>
      <linearGradient x1="1412.75" gradientUnits="userSpaceOnUse" x2="1580.75" y1="453" y2="493" id="linearGradient7" spreadMethod="reflect">
        <stop stop-opacity="1" stop-color="rgb(153,204,255)" offset="0%"/>
        <stop stop-opacity="1" stop-color="rgb(153,204,255)" offset="100%"/>
      </linearGradient>
      <linearGradient x1="1296.75" gradientUnits="userSpaceOnUse" x2="1580.75" y1="413" y2="453" id="linearGradient8" spreadMethod="reflect">
        <stop stop-opacity="1" stop-color="rgb(102,153,255)" offset="0%"/>
        <stop stop-opacity="1" stop-color="rgb(102,153,255)" offset="100%"/>
      </linearGradient>
      <linearGradient x1="1097.75" gradientUnits="userSpaceOnUse" x2="1177.75" y1="701" y2="741" id="linearGradient9" spreadMethod="reflect">
        <stop stop-opacity="1" stop-color="rgb(153,204,255)" offset="0%"/>
        <stop stop-opacity="1" stop-color="rgb(153,204,255)" offset="100%"/>
      </linearGradient>
      <linearGradient x1="1296.75" gradientUnits="userSpaceOnUse" x2="1412.75" y1="637" y2="677" id="linearGradient10" spreadMethod="reflect">
        <stop stop-opacity="1" stop-color="rgb(153,204,255)" offset="0%"/>
        <stop stop-opacity="1" stop-color="rgb(153,204,255)" offset="100%"/>
      </linearGradient>
      <linearGradient x1="1412.75" gradientUnits="userSpaceOnUse" x2="1580.75" y1="637" y2="677" id="linearGradient11" spreadMethod="reflect">
        <stop stop-opacity="1" stop-color="rgb(153,204,255)" offset="0%"/>
        <stop stop-opacity="1" stop-color="rgb(153,204,255)" offset="100%"/>
      </linearGradient>
      <linearGradient x1="1296.75" gradientUnits="userSpaceOnUse" x2="1580.75" y1="597" y2="637" id="linearGradient12" spreadMethod="reflect">
        <stop stop-opacity="1" stop-color="rgb(102,153,255)" offset="0%"/>
        <stop stop-opacity="1" stop-color="rgb(102,153,255)" offset="100%"/>
      </linearGradient>
      <linearGradient x1="836.875" gradientUnits="userSpaceOnUse" x2="916.875" y1="1039.3945" y2="1079.3945" id="linearGradient13" spreadMethod="reflect">
        <stop stop-opacity="1" stop-color="rgb(153,204,255)" offset="0%"/>
        <stop stop-opacity="1" stop-color="rgb(153,204,255)" offset="100%"/>
      </linearGradient>
      <linearGradient x1="836.875" gradientUnits="userSpaceOnUse" x2="916.875" y1="1125.375" y2="1165.375" id="linearGradient14" spreadMethod="reflect">
        <stop stop-opacity="1" stop-color="rgb(153,204,255)" offset="0%"/>
        <stop stop-opacity="1" stop-color="rgb(153,204,255)" offset="100%"/>
      </linearGradient>
      <linearGradient x1="830.875" gradientUnits="userSpaceOnUse" x2="910.875" y1="527" y2="567" id="linearGradient15" spreadMethod="reflect">
        <stop stop-opacity="1" stop-color="rgb(153,204,255)" offset="0%"/>
        <stop stop-opacity="1" stop-color="rgb(153,204,255)" offset="100%"/>
      </linearGradient>
      <linearGradient x1="830.875" gradientUnits="userSpaceOnUse" x2="910.875" y1="701" y2="741" id="linearGradient16" spreadMethod="reflect">
        <stop stop-opacity="1" stop-color="rgb(153,204,255)" offset="0%"/>
        <stop stop-opacity="1" stop-color="rgb(153,204,255)" offset="100%"/>
      </linearGradient>
      <linearGradient x1="785.75" gradientUnits="userSpaceOnUse" x2="1040.75" y1="300.8333" y2="340.8333" id="linearGradient17" spreadMethod="reflect">
        <stop stop-opacity="1" stop-color="rgb(255,255,153)" offset="0%"/>
        <stop stop-opacity="1" stop-color="rgb(255,255,153)" offset="100%"/>
      </linearGradient>
      <clipPath clipPathUnits="userSpaceOnUse" id="clipPath1">
        <path d="M0 0 L841 0 L841 958 L0 958 L0 0 Z"/>
      </clipPath>
      <clipPath clipPathUnits="userSpaceOnUse" id="clipPath2">
        <path d="M770 285 L1611 285 L1611 1243 L770 1243 L770 285 Z"/>
      </clipPath>
      <clipPath clipPathUnits="userSpaceOnUse" id="clipPath3">
        <path d="M597.1119 -594.6892 L1017.6119 133.6382 L187.9595 612.6381 L-232.5405 -115.6892 L597.1119 -594.6892 Z"/>
      </clipPath>
      <clipPath clipPathUnits="userSpaceOnUse" id="clipPath4">
        <path d="M636.0407 -617.1648 L1056.5408 111.1626 L226.8884 590.1626 L-193.6116 -138.1648 L636.0407 -617.1648 Z"/>
      </clipPath>
      <clipPath clipPathUnits="userSpaceOnUse" id="clipPath5">
        <path d="M135.886 -324.9362 L556.386 403.3912 L-273.2664 882.3912 L-693.7664 154.0638 L135.886 -324.9362 Z"/>
      </clipPath>
      <clipPath clipPathUnits="userSpaceOnUse" id="clipPath6">
        <path d="M286.5744 -411.9362 L707.0744 316.3912 L-122.578 795.3912 L-543.0779 67.0638 L286.5744 -411.9362 Z"/>
      </clipPath>
    </defs>
    <g fill="white" text-rendering="geometricPrecision" shape-rendering="geometricPrecision" transform="translate(-770,-285)" stroke="white">
      <rect x="770" width="841" height="958" y="285" clip-path="url(#clipPath2)" stroke="none"/>
    </g>
    <g fill="rgb(245,245,245)" text-rendering="geometricPrecision" shape-rendering="geometricPrecision" transform="matrix(1,0,0,1,-770,-285)" stroke="rgb(245,245,245)">
      <rect x="1082.75" y="923.7656" clip-path="url(#clipPath2)" width="513" rx="4" ry="4" height="303.9609" stroke="none"/>
      <rect x="1082.75" y="923.7656" clip-path="url(#clipPath2)" fill="rgb(235,235,235)" width="513" height="21.4609" stroke="none"/>
    </g>
    <g font-size="15px" stroke-linecap="butt" transform="matrix(1,0,0,1,-770,-285)" text-rendering="geometricPrecision" font-family="sans-serif" shape-rendering="geometricPrecision" stroke-miterlimit="1.45">
      <text x="1457.2192" xml:space="preserve" y="939.689" clip-path="url(#clipPath2)" stroke="none">Global Term Store</text>
      <rect x="1082.75" y="923.7656" clip-path="url(#clipPath2)" fill="none" width="513" stroke-dasharray="6,2" rx="4" ry="4" height="303.9609"/>
    </g>
    <g fill="url(#linearGradient1)" text-rendering="geometricPrecision" shape-rendering="geometricPrecision" transform="matrix(1,0,0,1,-770,-285)" stroke="url(#linearGradient1)">
      <path d="M1097.75 1078.9766 L1177.75 1078.9766 L1177.75 1118.9766 L1097.75 1118.9766 Z" stroke="none" clip-path="url(#clipPath2)"/>
    </g>
    <g text-rendering="geometricPrecision" stroke-miterlimit="1.45" shape-rendering="geometricPrecision" transform="matrix(1,0,0,1,-770,-285)" stroke-linecap="butt">
      <path fill="none" d="M1097.75 1078.9766 L1177.75 1078.9766 L1177.75 1118.9766 L1097.75 1118.9766 Z" clip-path="url(#clipPath2)"/>
      <text x="1124.209" xml:space="preserve" y="1103.1309" clip-path="url(#clipPath2)" font-family="sans-serif" stroke="none">Hole</text>
    </g>
    <g fill="url(#linearGradient2)" text-rendering="geometricPrecision" shape-rendering="geometricPrecision" transform="matrix(1,0,0,1,-770,-285)" stroke="url(#linearGradient2)">
      <path d="M1281.25 1005.5391 L1397.25 1005.5391 L1397.25 1045.5391 L1281.25 1045.5391 Z" stroke="none" clip-path="url(#clipPath2)"/>
    </g>
    <g text-rendering="geometricPrecision" stroke-miterlimit="1.45" shape-rendering="geometricPrecision" transform="matrix(1,0,0,1,-770,-285)" stroke-linecap="butt">
      <path fill="none" d="M1281.25 1005.5391 L1397.25 1005.5391 L1397.25 1045.5391 L1281.25 1045.5391 Z" clip-path="url(#clipPath2)"/>
      <text x="1296.6377" xml:space="preserve" y="1029.6934" clip-path="url(#clipPath2)" font-family="sans-serif" stroke="none">enum_domain</text>
    </g>
    <g fill="url(#linearGradient3)" text-rendering="geometricPrecision" shape-rendering="geometricPrecision" transform="matrix(1,0,0,1,-770,-285)" stroke="url(#linearGradient3)">
      <path d="M1397.25 1005.5391 L1565.25 1005.5391 L1565.25 1045.5391 L1397.25 1045.5391 Z" stroke="none" clip-path="url(#clipPath2)"/>
    </g>
    <g text-rendering="geometricPrecision" stroke-miterlimit="1.45" shape-rendering="geometricPrecision" transform="matrix(1,0,0,1,-770,-285)" stroke-linecap="butt">
      <path fill="none" d="M1397.25 1005.5391 L1565.25 1005.5391 L1565.25 1045.5391 L1397.25 1045.5391 Z" clip-path="url(#clipPath2)"/>
      <text x="1435.3096" xml:space="preserve" y="1029.6934" clip-path="url(#clipPath2)" font-family="sans-serif" stroke="none">[bravo, charlie]</text>
    </g>
    <g fill="url(#linearGradient4)" text-rendering="geometricPrecision" shape-rendering="geometricPrecision" transform="matrix(1,0,0,1,-770,-285)" stroke="url(#linearGradient4)">
      <path d="M1281.25 965.5391 L1565.25 965.5391 L1565.25 1005.5391 L1281.25 1005.5391 Z" stroke="none" clip-path="url(#clipPath2)"/>
    </g>
    <g text-rendering="geometricPrecision" stroke-miterlimit="1.45" shape-rendering="geometricPrecision" transform="matrix(1,0,0,1,-770,-285)" stroke-linecap="butt">
      <path fill="none" d="M1281.25 965.5391 L1565.25 965.5391 L1565.25 1005.5391 L1281.25 1005.5391 Z" clip-path="url(#clipPath2)"/>
      <text x="1378.2354" xml:space="preserve" y="989.6934" clip-path="url(#clipPath2)" font-family="sans-serif" stroke="none">Attribute Table</text>
    </g>
    <g text-rendering="geometricPrecision" stroke-miterlimit="1.45" shape-rendering="geometricPrecision" transform="matrix(1,0,0,1,-770,-285)" stroke-linecap="butt">
      <path fill="none" d="M1153.2389 1078.9701 L1158.375 1072.3359 L1162.2246 1066.7703 L1165.3359 1060.9717 L1167.709 1054.9402 L1169.3438 1048.6758 L1170.2402 1042.1785 L1170.3984 1035.4482 L1169.8184 1028.4851 L1168.5 1021.2891 L1167 1014.7891 L1166.6449 1011.2471 L1167.2672 1007.9336 L1168.8668 1004.8486 L1171.4437 1001.9922 L1174.998 999.3643 L1179.5297 996.9648 L1185.0387 994.7939 L1191.525 992.8516 L1207.4297 989.6523 L1227.2438 987.3672 L1250.9672 985.9961 L1273.2491 985.6276 L1273.3491 985.6276" clip-path="url(#clipPath2)"/>
      <path d="M1281.3486 985.538 L1269.2933 980.6727 L1272.3492 985.6388 L1269.4054 990.6721 Z" clip-path="url(#clipPath2)" stroke="none"/>
    </g>
    <g fill="rgb(245,245,245)" text-rendering="geometricPrecision" shape-rendering="geometricPrecision" transform="matrix(1,0,0,1,-770,-285)" stroke="rgb(245,245,245)">
      <rect x="1082.75" y="376.5391" clip-path="url(#clipPath2)" width="513" rx="4" ry="4" height="379.4609" stroke="none"/>
      <rect x="1082.75" y="376.5391" clip-path="url(#clipPath2)" fill="rgb(235,235,235)" width="513" height="21.4609" stroke="none"/>
    </g>
    <g font-size="15px" stroke-linecap="butt" transform="matrix(1,0,0,1,-770,-285)" text-rendering="geometricPrecision" font-family="sans-serif" shape-rendering="geometricPrecision" stroke-miterlimit="1.45">
      <text x="1457.2192" xml:space="preserve" y="392.4624" clip-path="url(#clipPath2)" stroke="none">Global Term Store</text>
      <rect x="1082.75" y="376.5391" clip-path="url(#clipPath2)" fill="none" width="513" stroke-dasharray="6,2" rx="4" ry="4" height="379.4609"/>
    </g>
    <g fill="url(#linearGradient5)" text-rendering="geometricPrecision" shape-rendering="geometricPrecision" transform="matrix(1,0,0,1,-770,-285)" stroke="url(#linearGradient5)">
      <path d="M1097.75 527 L1177.75 527 L1177.75 567 L1097.75 567 Z" stroke="none" clip-path="url(#clipPath2)"/>
    </g>
    <g text-rendering="geometricPrecision" stroke-miterlimit="1.45" shape-rendering="geometricPrecision" transform="matrix(1,0,0,1,-770,-285)" stroke-linecap="butt">
      <path fill="none" d="M1097.75 527 L1177.75 527 L1177.75 567 L1097.75 567 Z" clip-path="url(#clipPath2)"/>
      <text x="1124.209" xml:space="preserve" y="551.1543" clip-path="url(#clipPath2)" font-family="sans-serif" stroke="none">Hole</text>
    </g>
    <g fill="url(#linearGradient6)" text-rendering="geometricPrecision" shape-rendering="geometricPrecision" transform="matrix(1,0,0,1,-770,-285)" stroke="url(#linearGradient6)">
      <path d="M1296.75 453 L1412.75 453 L1412.75 493 L1296.75 493 Z" stroke="none" clip-path="url(#clipPath2)"/>
    </g>
    <g text-rendering="geometricPrecision" stroke-miterlimit="1.45" shape-rendering="geometricPrecision" transform="matrix(1,0,0,1,-770,-285)" stroke-linecap="butt">
      <path fill="none" d="M1296.75 453 L1412.75 453 L1412.75 493 L1296.75 493 Z" clip-path="url(#clipPath2)"/>
      <text x="1312.1377" xml:space="preserve" y="477.1543" clip-path="url(#clipPath2)" font-family="sans-serif" stroke="none">enum_domain</text>
    </g>
    <g fill="url(#linearGradient7)" text-rendering="geometricPrecision" shape-rendering="geometricPrecision" transform="matrix(1,0,0,1,-770,-285)" stroke="url(#linearGradient7)">
      <path d="M1412.75 453 L1580.75 453 L1580.75 493 L1412.75 493 Z" stroke="none" clip-path="url(#clipPath2)"/>
    </g>
    <g text-rendering="geometricPrecision" stroke-miterlimit="1.45" shape-rendering="geometricPrecision" transform="matrix(1,0,0,1,-770,-285)" stroke-linecap="butt">
      <path fill="none" d="M1412.75 453 L1580.75 453 L1580.75 493 L1412.75 493 Z" clip-path="url(#clipPath2)"/>
      <text x="1435.8623" xml:space="preserve" y="477.1543" clip-path="url(#clipPath2)" font-family="sans-serif" stroke="none">[alfa, bravo, charlie]</text>
    </g>
    <g fill="url(#linearGradient8)" text-rendering="geometricPrecision" shape-rendering="geometricPrecision" transform="matrix(1,0,0,1,-770,-285)" stroke="url(#linearGradient8)">
      <path d="M1296.75 413 L1580.75 413 L1580.75 453 L1296.75 453 Z" stroke="none" clip-path="url(#clipPath2)"/>
    </g>
    <g text-rendering="geometricPrecision" stroke-miterlimit="1.45" shape-rendering="geometricPrecision" transform="matrix(1,0,0,1,-770,-285)" stroke-linecap="butt">
      <path fill="none" d="M1296.75 413 L1580.75 413 L1580.75 453 L1296.75 453 Z" clip-path="url(#clipPath2)"/>
      <text x="1393.7354" xml:space="preserve" y="437.1543" clip-path="url(#clipPath2)" font-family="sans-serif" stroke="none">Attribute Table</text>
    </g>
    <g fill="url(#linearGradient9)" text-rendering="geometricPrecision" shape-rendering="geometricPrecision" transform="matrix(1,0,0,1,-770,-285)" stroke="url(#linearGradient9)">
      <path d="M1097.75 701 L1177.75 701 L1177.75 741 L1097.75 741 Z" stroke="none" clip-path="url(#clipPath2)"/>
    </g>
    <g text-rendering="geometricPrecision" stroke-miterlimit="1.45" shape-rendering="geometricPrecision" transform="matrix(1,0,0,1,-770,-285)" stroke-linecap="butt">
      <path fill="none" d="M1097.75 701 L1177.75 701 L1177.75 741 L1097.75 741 Z" clip-path="url(#clipPath2)"/>
      <text x="1124.209" xml:space="preserve" y="725.1543" clip-path="url(#clipPath2)" font-family="sans-serif" stroke="none">Hole</text>
    </g>
    <g fill="url(#linearGradient10)" text-rendering="geometricPrecision" shape-rendering="geometricPrecision" transform="matrix(1,0,0,1,-770,-285)" stroke="url(#linearGradient10)">
      <path d="M1296.75 637 L1412.75 637 L1412.75 677 L1296.75 677 Z" stroke="none" clip-path="url(#clipPath2)"/>
    </g>
    <g text-rendering="geometricPrecision" stroke-miterlimit="1.45" shape-rendering="geometricPrecision" transform="matrix(1,0,0,1,-770,-285)" stroke-linecap="butt">
      <path fill="none" d="M1296.75 637 L1412.75 637 L1412.75 677 L1296.75 677 Z" clip-path="url(#clipPath2)"/>
      <text x="1312.1377" xml:space="preserve" y="661.1543" clip-path="url(#clipPath2)" font-family="sans-serif" stroke="none">enum_domain</text>
    </g>
    <g fill="url(#linearGradient11)" text-rendering="geometricPrecision" shape-rendering="geometricPrecision" transform="matrix(1,0,0,1,-770,-285)" stroke="url(#linearGradient11)">
      <path d="M1412.75 637 L1580.75 637 L1580.75 677 L1412.75 677 Z" stroke="none" clip-path="url(#clipPath2)"/>
    </g>
    <g text-rendering="geometricPrecision" stroke-miterlimit="1.45" shape-rendering="geometricPrecision" transform="matrix(1,0,0,1,-770,-285)" stroke-linecap="butt">
      <path fill="none" d="M1412.75 637 L1580.75 637 L1580.75 677 L1412.75 677 Z" clip-path="url(#clipPath2)"/>
      <text x="1431.7988" xml:space="preserve" y="661.1543" clip-path="url(#clipPath2)" font-family="sans-serif" stroke="none">[bravo, charlie, delta]</text>
    </g>
    <g fill="url(#linearGradient12)" text-rendering="geometricPrecision" shape-rendering="geometricPrecision" transform="matrix(1,0,0,1,-770,-285)" stroke="url(#linearGradient12)">
      <path d="M1296.75 597 L1580.75 597 L1580.75 637 L1296.75 637 Z" stroke="none" clip-path="url(#clipPath2)"/>
    </g>
    <g text-rendering="geometricPrecision" stroke-miterlimit="1.45" shape-rendering="geometricPrecision" transform="matrix(1,0,0,1,-770,-285)" stroke-linecap="butt">
      <path fill="none" d="M1296.75 597 L1580.75 597 L1580.75 637 L1296.75 637 Z" clip-path="url(#clipPath2)"/>
      <text x="1393.7354" xml:space="preserve" y="621.1543" clip-path="url(#clipPath2)" font-family="sans-serif" stroke="none">Attribute Table</text>
    </g>
    <g text-rendering="geometricPrecision" stroke-miterlimit="1.45" shape-rendering="geometricPrecision" transform="matrix(1,0,0,1,-770,-285)" stroke-linecap="butt">
      <path fill="none" d="M1156.8979 527.0195 L1163.05 520.6 L1167.8173 515.0734 L1171.7688 509.2937 L1174.9047 503.2609 L1177.225 496.975 L1178.7297 490.4359 L1179.4187 483.6437 L1179.2921 476.5984 L1178.35 469.3 L1177.15 462.7 L1176.9655 459.1035 L1177.7617 455.7391 L1179.5389 452.6067 L1182.2969 449.7063 L1186.0358 447.0379 L1190.7555 444.6016 L1196.4561 442.3973 L1203.1375 440.425 L1219.443 437.1766 L1239.6719 434.8563 L1263.8242 433.4641 L1288.7401 433.0522 L1288.8401 433.0522" clip-path="url(#clipPath2)"/>
      <path d="M1296.84 432.9993 L1284.8071 428.0788 L1287.8402 433.0588 L1284.8733 438.0785 Z" clip-path="url(#clipPath2)" stroke="none"/>
      <path fill="none" d="M1164.9358 700.9954 L1166.9 699.55 L1172.3844 694.9797 L1176.9125 690.0438 L1180.4844 684.7422 L1183.1 679.075 L1184.7594 673.0422 L1185.4625 666.6437 L1185.2094 659.8797 L1184 652.75 L1182.5 646.25 L1182.1449 642.708 L1182.7672 639.3945 L1184.3668 636.3096 L1186.9437 633.4531 L1190.498 630.8252 L1195.0297 628.4258 L1200.5387 626.2549 L1207.025 624.3125 L1222.9297 621.1133 L1242.7438 618.8281 L1266.4673 617.457 L1288.7491 617.0885 L1288.8491 617.0885" clip-path="url(#clipPath2)"/>
      <path d="M1296.8486 616.9989 L1284.7933 612.1337 L1287.8492 617.0997 L1284.9054 622.133 Z" clip-path="url(#clipPath2)" stroke="none"/>
    </g>
    <g fill="rgb(245,245,245)" text-rendering="geometricPrecision" shape-rendering="geometricPrecision" transform="matrix(1,0,0,1,-770,-285)" stroke="rgb(245,245,245)">
      <rect x="791.5" y="960.2266" clip-path="url(#clipPath2)" width="173.375" rx="4" ry="4" height="224.8359" stroke="none"/>
      <rect x="791.5" y="960.2266" clip-path="url(#clipPath2)" fill="rgb(235,235,235)" width="173.375" height="21.4609" stroke="none"/>
    </g>
    <g font-size="15px" stroke-linecap="butt" transform="matrix(1,0,0,1,-770,-285)" text-rendering="geometricPrecision" font-family="sans-serif" shape-rendering="geometricPrecision" stroke-miterlimit="1.45">
      <text x="912.4917" xml:space="preserve" y="976.1499" clip-path="url(#clipPath2)" stroke="none">Clause</text>
      <rect x="791.5" y="960.2266" clip-path="url(#clipPath2)" fill="none" width="173.375" stroke-dasharray="6,2" rx="4" ry="4" height="224.8359"/>
    </g>
    <g fill="url(#linearGradient13)" text-rendering="geometricPrecision" shape-rendering="geometricPrecision" transform="matrix(1,0,0,1,-770,-285)" stroke="url(#linearGradient13)">
      <path d="M836.875 1039.3945 L916.875 1039.3945 L916.875 1079.3945 L836.875 1079.3945 Z" stroke="none" clip-path="url(#clipPath2)"/>
    </g>
    <g text-rendering="geometricPrecision" stroke-miterlimit="1.45" shape-rendering="geometricPrecision" transform="matrix(1,0,0,1,-770,-285)" stroke-linecap="butt">
      <path fill="none" d="M836.875 1039.3945 L916.875 1039.3945 L916.875 1079.3945 L836.875 1079.3945 Z" clip-path="url(#clipPath2)"/>
      <text x="852.1162" xml:space="preserve" y="1056.5645" clip-path="url(#clipPath2)" font-family="sans-serif" stroke="none">Variable</text>
      <text x="872.7646" xml:space="preserve" y="1070.5332" clip-path="url(#clipPath2)" font-family="sans-serif" stroke="none">X</text>
    </g>
    <g fill="url(#linearGradient14)" text-rendering="geometricPrecision" shape-rendering="geometricPrecision" transform="matrix(1,0,0,1,-770,-285)" stroke="url(#linearGradient14)">
      <path d="M836.875 1125.375 L916.875 1125.375 L916.875 1165.375 L836.875 1165.375 Z" stroke="none" clip-path="url(#clipPath2)"/>
    </g>
    <g text-rendering="geometricPrecision" stroke-miterlimit="1.45" shape-rendering="geometricPrecision" transform="matrix(1,0,0,1,-770,-285)" stroke-linecap="butt">
      <path fill="none" d="M836.875 1125.375 L916.875 1125.375 L916.875 1165.375 L836.875 1165.375 Z" clip-path="url(#clipPath2)"/>
      <text x="852.1162" xml:space="preserve" y="1142.5449" clip-path="url(#clipPath2)" font-family="sans-serif" stroke="none">Variable</text>
      <text x="873.21" xml:space="preserve" y="1156.5137" clip-path="url(#clipPath2)" font-family="sans-serif" stroke="none">Y</text>
    </g>
    <g text-rendering="geometricPrecision" stroke-miterlimit="1.45" shape-rendering="geometricPrecision" transform="matrix(1,0,0,1,-770,-285)" stroke-linecap="butt">
      <path fill="none" d="M916.8862 1066.1169 L1089.8579 1095.1787" clip-path="url(#clipPath2)"/>
      <path d="M1097.7473 1096.5042 L1086.7416 1089.5851 L1088.8717 1095.0131 L1085.0847 1099.4469 Z" clip-path="url(#clipPath2)" stroke="none"/>
    </g>
    <g text-rendering="geometricPrecision" stroke-miterlimit="1.45" shape-rendering="geometricPrecision" font-family="sans-serif" transform="matrix(0.5,-0.866,0.866,0.5,216.46,814.4587)" stroke-linecap="butt">
      <text x="2" xml:space="preserve" y="13.1387" clip-path="url(#clipPath3)" stroke="none">denotes</text>
    </g>
    <g text-rendering="geometricPrecision" stroke-miterlimit="1.45" shape-rendering="geometricPrecision" transform="matrix(1,0,0,1,-770,-285)" stroke-linecap="butt">
      <path fill="none" d="M916.8714 1139.514 L1089.7991 1114.1737" clip-path="url(#clipPath2)"/>
      <path d="M1097.7146 1113.0138 L1085.1165 1109.8065 L1088.8097 1114.3187 L1086.5663 1119.7008 Z" clip-path="url(#clipPath2)" stroke="none"/>
    </g>
    <g text-rendering="geometricPrecision" stroke-miterlimit="1.45" shape-rendering="geometricPrecision" font-family="sans-serif" transform="matrix(0.5,-0.866,0.866,0.5,216.46,859.4098)" stroke-linecap="butt">
      <text x="2" xml:space="preserve" y="13.1387" clip-path="url(#clipPath4)" stroke="none">denotes</text>
    </g>
    <g fill="rgb(245,245,245)" text-rendering="geometricPrecision" shape-rendering="geometricPrecision" transform="matrix(1,0,0,1,-770,-285)" stroke="rgb(245,245,245)">
      <rect x="791.5" y="466.5391" clip-path="url(#clipPath2)" width="158.75" rx="4" ry="4" height="289.4609" stroke="none"/>
      <rect x="791.5" y="466.5391" clip-path="url(#clipPath2)" fill="rgb(235,235,235)" width="158.75" height="21.4609" stroke="none"/>
    </g>
    <g font-size="15px" stroke-linecap="butt" transform="matrix(1,0,0,1,-770,-285)" text-rendering="geometricPrecision" font-family="sans-serif" shape-rendering="geometricPrecision" stroke-miterlimit="1.45">
      <text x="897.8667" xml:space="preserve" y="482.4624" clip-path="url(#clipPath2)" stroke="none">Clause</text>
      <rect x="791.5" y="466.5391" clip-path="url(#clipPath2)" fill="none" width="158.75" stroke-dasharray="6,2" rx="4" ry="4" height="289.4609"/>
    </g>
    <g fill="url(#linearGradient15)" text-rendering="geometricPrecision" shape-rendering="geometricPrecision" transform="matrix(1,0,0,1,-770,-285)" stroke="url(#linearGradient15)">
      <path d="M830.875 527 L910.875 527 L910.875 567 L830.875 567 Z" stroke="none" clip-path="url(#clipPath2)"/>
    </g>
    <g text-rendering="geometricPrecision" stroke-miterlimit="1.45" shape-rendering="geometricPrecision" transform="matrix(1,0,0,1,-770,-285)" stroke-linecap="butt">
      <path fill="none" d="M830.875 527 L910.875 527 L910.875 567 L830.875 567 Z" clip-path="url(#clipPath2)"/>
      <text x="846.1162" xml:space="preserve" y="544.1699" clip-path="url(#clipPath2)" font-family="sans-serif" stroke="none">Variable</text>
      <text x="866.7646" xml:space="preserve" y="558.1387" clip-path="url(#clipPath2)" font-family="sans-serif" stroke="none">X</text>
    </g>
    <g fill="url(#linearGradient16)" text-rendering="geometricPrecision" shape-rendering="geometricPrecision" transform="matrix(1,0,0,1,-770,-285)" stroke="url(#linearGradient16)">
      <path d="M830.875 701 L910.875 701 L910.875 741 L830.875 741 Z" stroke="none" clip-path="url(#clipPath2)"/>
    </g>
    <g text-rendering="geometricPrecision" stroke-miterlimit="1.45" shape-rendering="geometricPrecision" transform="matrix(1,0,0,1,-770,-285)" stroke-linecap="butt">
      <path fill="none" d="M830.875 701 L910.875 701 L910.875 741 L830.875 741 Z" clip-path="url(#clipPath2)"/>
      <text x="846.1162" xml:space="preserve" y="718.1699" clip-path="url(#clipPath2)" font-family="sans-serif" stroke="none">Variable</text>
      <text x="867.21" xml:space="preserve" y="732.1387" clip-path="url(#clipPath2)" font-family="sans-serif" stroke="none">Y</text>
    </g>
    <g fill="url(#linearGradient17)" text-rendering="geometricPrecision" shape-rendering="geometricPrecision" transform="matrix(1,0,0,1,-770,-285)" stroke="url(#linearGradient17)">
      <path d="M785.75 300.8333 L1040.75 300.8333 L1040.75 340.8333 L785.75 340.8333 Z" stroke="none" clip-path="url(#clipPath2)"/>
    </g>
    <g text-rendering="geometricPrecision" stroke-miterlimit="1.45" stroke-dasharray="6,2" shape-rendering="geometricPrecision" transform="matrix(1,0,0,1,-770,-285)" stroke-linecap="butt">
      <path fill="none" d="M785.75 300.8333 L1040.75 300.8333 L1040.75 340.8333 L785.75 340.8333 Z" clip-path="url(#clipPath2)"/>
      <text x="791.75" y="318.0033" clip-path="url(#clipPath2)" font-family="sans-serif" stroke-dasharray="none" stroke="none" xml:space="preserve">X carries attributes 'enum_domain'</text>
      <text x="791.75" y="331.972" clip-path="url(#clipPath2)" font-family="sans-serif" stroke-dasharray="none" stroke="none" xml:space="preserve">with value "[alfa, bravo, charlie]"</text>
    </g>
    <g fill="silver" text-rendering="geometricPrecision" shape-rendering="geometricPrecision" transform="matrix(1,0,0,1,-770,-285)" stroke="silver">
      <path d="M1208.1666 819.8828 L1267.1666 819.8828 L1267.1666 849.3828 L1237.6666 878.8828 L1208.1666 849.3828 Z" stroke="none" clip-path="url(#clipPath2)"/>
    </g>
    <g font-size="20px" stroke-linecap="butt" transform="matrix(1,0,0,1,-770,-285)" text-rendering="geometricPrecision" font-family="sans-serif" shape-rendering="geometricPrecision" stroke-miterlimit="1.45">
      <text x="1209.9713" xml:space="preserve" y="844.666" clip-path="url(#clipPath2)" stroke="none">X = Y</text>
      <text x="1234.4879" xml:space="preserve" y="867.9473" clip-path="url(#clipPath2)" stroke="none"> </text>
    </g>
    <g text-rendering="geometricPrecision" stroke-miterlimit="1.45" shape-rendering="geometricPrecision" transform="matrix(1,0,0,1,-770,-285)" stroke-linecap="butt">
      <path fill="none" d="M910.8476 547 L1089.7263 547" clip-path="url(#clipPath2)"/>
      <path d="M1097.7263 547 L1085.7263 542 L1088.7263 547 L1085.7263 552 Z" clip-path="url(#clipPath2)" stroke="none"/>
    </g>
    <g text-rendering="geometricPrecision" stroke-miterlimit="1.45" shape-rendering="geometricPrecision" font-family="sans-serif" transform="matrix(0.5,-0.866,0.866,0.5,213.46,280.1488)" stroke-linecap="butt">
      <text x="2" xml:space="preserve" y="13.1387" clip-path="url(#clipPath5)" stroke="none">denotes</text>
    </g>
    <g text-rendering="geometricPrecision" stroke-miterlimit="1.45" shape-rendering="geometricPrecision" transform="matrix(1,0,0,1,-770,-285)" stroke-linecap="butt">
      <path fill="none" d="M910.8476 721 L1089.7263 721" clip-path="url(#clipPath2)"/>
      <path d="M1097.7263 721 L1085.7263 716 L1088.7263 721 L1085.7263 726 Z" clip-path="url(#clipPath2)" stroke="none"/>
    </g>
    <g text-rendering="geometricPrecision" stroke-miterlimit="1.45" shape-rendering="geometricPrecision" font-family="sans-serif" transform="matrix(0.5,-0.866,0.866,0.5,213.46,454.1488)" stroke-linecap="butt">
      <text x="2" xml:space="preserve" y="13.1387" clip-path="url(#clipPath6)" stroke="none">denotes</text>
    </g>
  </g>
</svg>
