<?xml version="1.0" encoding="UTF-8"?><svg xmlns="http://www.w3.org/2000/svg" xmlns:xlink="http://www.w3.org/1999/xlink" fill-opacity="1" color-rendering="auto" color-interpolation="auto" text-rendering="auto" stroke="black" stroke-linecap="square" width="628" stroke-miterlimit="10" shape-rendering="auto" stroke-opacity="1" fill="black" stroke-dasharray="none" font-weight="normal" stroke-width="1" height="501" font-family="'Dialog'" font-style="normal" stroke-linejoin="miter" font-size="12px" stroke-dashoffset="0" image-rendering="auto">
  <!--Generated by ySVG 2.5-->
  <defs id="genericDefs"/>
  <g>
    <defs id="defs1">
      <linearGradient x1="107" gradientUnits="userSpaceOnUse" x2="187" y1="210" y2="250" id="linearGradient1" spreadMethod="reflect">
        <stop stop-opacity="1" stop-color="lime" offset="0%"/>
        <stop stop-opacity="1" stop-color="lime" offset="100%"/>
      </linearGradient>
      <linearGradient x1="365" gradientUnits="userSpaceOnUse" x2="445" y1="84" y2="124" id="linearGradient2" spreadMethod="reflect">
        <stop stop-opacity="1" stop-color="rgb(232,238,247)" offset="0%"/>
        <stop stop-opacity="1" stop-color="rgb(183,201,227)" offset="100%"/>
      </linearGradient>
      <linearGradient x1="379" gradientUnits="userSpaceOnUse" x2="459" y1="350" y2="390" id="linearGradient3" spreadMethod="reflect">
        <stop stop-opacity="1" stop-color="rgb(232,238,247)" offset="0%"/>
        <stop stop-opacity="1" stop-color="rgb(183,201,227)" offset="100%"/>
      </linearGradient>
      <linearGradient x1="365" gradientUnits="userSpaceOnUse" x2="445" y1="210" y2="250" id="linearGradient4" spreadMethod="reflect">
        <stop stop-opacity="1" stop-color="rgb(255,102,0)" offset="0%"/>
        <stop stop-opacity="1" stop-color="rgb(255,102,0)" offset="100%"/>
      </linearGradient>
      <linearGradient x1="512" gradientUnits="userSpaceOnUse" x2="592" y1="84" y2="124" id="linearGradient5" spreadMethod="reflect">
        <stop stop-opacity="1" stop-color="rgb(232,238,247)" offset="0%"/>
        <stop stop-opacity="1" stop-color="rgb(183,201,227)" offset="100%"/>
      </linearGradient>
      <linearGradient x1="518" gradientUnits="userSpaceOnUse" x2="598" y1="350" y2="390" id="linearGradient6" spreadMethod="reflect">
        <stop stop-opacity="1" stop-color="rgb(232,238,247)" offset="0%"/>
        <stop stop-opacity="1" stop-color="rgb(183,201,227)" offset="100%"/>
      </linearGradient>
      <clipPath clipPathUnits="userSpaceOnUse" id="clipPath1">
        <path d="M0 0 L628 0 L628 501 L0 501 L0 0 Z"/>
      </clipPath>
      <clipPath clipPathUnits="userSpaceOnUse" id="clipPath2">
        <path d="M-15 -9 L613 -9 L613 492 L-15 492 L-15 -9 Z"/>
      </clipPath>
    </defs>
    <g fill="white" text-rendering="geometricPrecision" shape-rendering="geometricPrecision" transform="translate(15,9)" stroke="white">
      <rect x="-15" width="628" height="501" y="-9" clip-path="url(#clipPath2)" stroke="none"/>
    </g>
    <g fill="url(#linearGradient1)" text-rendering="geometricPrecision" shape-rendering="geometricPrecision" transform="matrix(1,0,0,1,15,9)" stroke="url(#linearGradient1)">
      <circle r="20" clip-path="url(#clipPath2)" cx="147" cy="230" stroke="none"/>
    </g>
    <g text-rendering="geometricPrecision" stroke-miterlimit="1.45" shape-rendering="geometricPrecision" transform="matrix(1,0,0,1,15,9)" stroke-linecap="butt">
      <circle fill="none" r="20" clip-path="url(#clipPath2)" cx="147" cy="230"/>
      <text x="133.0254" xml:space="preserve" y="234.1543" clip-path="url(#clipPath2)" font-family="sans-serif" stroke="none">start</text>
    </g>
    <g fill="url(#linearGradient2)" text-rendering="geometricPrecision" shape-rendering="geometricPrecision" transform="matrix(1,0,0,1,15,9)" stroke="url(#linearGradient2)">
      <circle r="20" clip-path="url(#clipPath2)" cx="405" cy="104" stroke="none"/>
    </g>
    <g text-rendering="geometricPrecision" stroke-miterlimit="1.45" shape-rendering="geometricPrecision" transform="matrix(1,0,0,1,15,9)" stroke-linecap="butt">
      <circle fill="none" r="20" clip-path="url(#clipPath2)" cx="405" cy="104"/>
      <text x="399.416" xml:space="preserve" y="101.1699" clip-path="url(#clipPath2)" font-family="sans-serif" stroke="none">a </text>
      <text x="389.1211" xml:space="preserve" y="115.1387" clip-path="url(#clipPath2)" font-family="sans-serif" stroke="none">eater</text>
    </g>
    <g fill="url(#linearGradient3)" text-rendering="geometricPrecision" shape-rendering="geometricPrecision" transform="matrix(1,0,0,1,15,9)" stroke="url(#linearGradient3)">
      <circle r="20" clip-path="url(#clipPath2)" cx="419" cy="370" stroke="none"/>
    </g>
    <g text-rendering="geometricPrecision" stroke-miterlimit="1.45" shape-rendering="geometricPrecision" transform="matrix(1,0,0,1,15,9)" stroke-linecap="butt">
      <circle fill="none" r="20" clip-path="url(#clipPath2)" cx="419" cy="370"/>
      <text x="415.1914" xml:space="preserve" y="367.1699" clip-path="url(#clipPath2)" font-family="sans-serif" stroke="none">b</text>
      <text x="403.1211" xml:space="preserve" y="381.1387" clip-path="url(#clipPath2)" font-family="sans-serif" stroke="none">eater</text>
    </g>
    <g fill="url(#linearGradient4)" text-rendering="geometricPrecision" shape-rendering="geometricPrecision" transform="matrix(1,0,0,1,15,9)" stroke="url(#linearGradient4)">
      <circle r="20" clip-path="url(#clipPath2)" cx="405" cy="230" stroke="none"/>
    </g>
    <g text-rendering="geometricPrecision" stroke-miterlimit="1.45" shape-rendering="geometricPrecision" transform="matrix(1,0,0,1,15,9)" stroke-linecap="butt">
      <circle fill="none" r="20" clip-path="url(#clipPath2)" cx="405" cy="230"/>
      <text x="449.5273" xml:space="preserve" y="227.2012" clip-path="url(#clipPath2)" font-family="sans-serif" stroke="none">end condition:</text>
      <text x="418.751" xml:space="preserve" y="241.1699" clip-path="url(#clipPath2)" font-family="sans-serif" stroke="none">input list must be empty</text>
    </g>
    <g fill="url(#linearGradient5)" text-rendering="geometricPrecision" shape-rendering="geometricPrecision" transform="matrix(1,0,0,1,15,9)" stroke="url(#linearGradient5)">
      <circle r="20" clip-path="url(#clipPath2)" cx="552" cy="104" stroke="none"/>
    </g>
    <g text-rendering="geometricPrecision" stroke-miterlimit="1.45" shape-rendering="geometricPrecision" transform="matrix(1,0,0,1,15,9)" stroke-linecap="butt">
      <circle fill="none" r="20" clip-path="url(#clipPath2)" cx="552" cy="104"/>
      <text x="544.5146" xml:space="preserve" y="101.1699" clip-path="url(#clipPath2)" font-family="sans-serif" stroke="none">ab</text>
      <text x="534.8027" xml:space="preserve" y="115.1387" clip-path="url(#clipPath2)" font-family="sans-serif" stroke="none">found</text>
    </g>
    <g fill="url(#linearGradient6)" text-rendering="geometricPrecision" shape-rendering="geometricPrecision" transform="matrix(1,0,0,1,15,9)" stroke="url(#linearGradient6)">
      <circle r="20" clip-path="url(#clipPath2)" cx="558" cy="370" stroke="none"/>
    </g>
    <g text-rendering="geometricPrecision" stroke-miterlimit="1.45" shape-rendering="geometricPrecision" transform="matrix(1,0,0,1,15,9)" stroke-linecap="butt">
      <circle fill="none" r="20" clip-path="url(#clipPath2)" cx="558" cy="370"/>
      <text x="550.5146" xml:space="preserve" y="367.1699" clip-path="url(#clipPath2)" font-family="sans-serif" stroke="none">ba</text>
      <text x="540.8027" xml:space="preserve" y="381.1387" clip-path="url(#clipPath2)" font-family="sans-serif" stroke="none">found</text>
    </g>
    <g text-rendering="geometricPrecision" stroke-miterlimit="1.45" shape-rendering="geometricPrecision" transform="matrix(1,0,0,1,15,9)" stroke-linecap="butt">
      <path fill="none" d="M129.9193 219.5799 L117.3115 213.3457 L104.2555 208.6228 L92.3984 205.9844 L81.7455 205.1917 L72.3018 206.0059 L64.0724 208.1882 L57.0625 211.5 L51.2772 215.7024 L46.7217 220.5566 L43.401 225.824 L41.3203 231.2656 L40.4847 236.6428 L40.8994 241.7168 L42.5695 246.2488 L45.5 250 L54.0654 256.3594 L65.0859 261.7812 L77.9229 265.4688 L91.9375 266.625 L106.4912 264.4531 L120.9453 258.1562 L127.9354 253.2119 L129.5206 251.7331 L129.5844 251.6561" clip-path="url(#clipPath2)"/>
    </g>
    <g text-rendering="geometricPrecision" stroke-miterlimit="1.45" shape-rendering="geometricPrecision" transform="matrix(1,0,0,1,15,9)" stroke-linecap="butt">
      <path d="M135.356 246.1163 L123.2363 250.8187 L128.863 252.3486 L130.1609 258.0332 Z" stroke="none" clip-path="url(#clipPath2)"/>
      <text x="2.5996" xml:space="preserve" y="236.6543" clip-path="url(#clipPath2)" font-family="sans-serif" stroke="none">not(a,b)</text>
      <path fill="none" d="M166.0447 223.8983 L231.975 202.775 L248.9977 197.0164 L265.3031 190.8781 L280.8914 184.3602 L295.7625 177.4625 L309.9164 170.1852 L323.3531 162.5281 L336.0727 154.4914 L348.075 146.075 L382.4731 120.6504" clip-path="url(#clipPath2)"/>
      <path d="M388.9065 115.8952 L376.2844 119.007 L381.6689 121.2447 L382.2283 127.0488 Z" clip-path="url(#clipPath2)" stroke="none"/>
      <text x="311.5091" xml:space="preserve" y="174.5387" clip-path="url(#clipPath2)" font-family="sans-serif" stroke="none">a</text>
      <path fill="none" d="M421.4302 92.5703 L430.3 86.4 L434.9969 82.7508 L438.7375 79.0031 L441.5219 75.157 L443.35 71.2125 L444.2219 67.1695 L444.1375 63.0281 L443.0969 58.7883 L441.1 54.45 L438.9 50.55 L436.2211 46.4367 L433.1344 42.8719 L429.6399 39.8555 L425.7375 37.3875 L421.4273 35.468 L416.7094 34.0969 L411.5836 33.2742 L406.05 33 L400.95 33 L389.6719 33.9281 L378.7875 36.7125 L368.2969 41.3531 L358.2 47.85 L353.8 51.15 L349.6586 54.8977 L347.1344 58.7156 L346.2274 62.6039 L346.9375 66.5625 L349.2648 70.5914 L353.2094 74.6906 L358.7711 78.8602 L365.95 83.1 L380.2903 90.7751" clip-path="url(#clipPath2)"/>
      <path d="M387.3436 94.5501 L379.123 84.4792 L379.4086 90.3032 L374.4042 93.2959 Z" clip-path="url(#clipPath2)" stroke="none"/>
      <text x="399.8232" xml:space="preserve" y="37.1543" clip-path="url(#clipPath2)" font-family="sans-serif" stroke="none">a</text>
      <path fill="none" d="M385.0281 104 L334.6 104 L320.1859 104.8859 L305.7437 107.5437 L291.2734 111.9734 L276.775 118.175 L262.2484 126.1484 L247.6938 135.8938 L233.1109 147.4109 L218.5 160.7 L167.0934 210.5248" clip-path="url(#clipPath2)"/>
      <path d="M161.3489 216.0926 L173.4456 211.3313 L167.8115 209.8289 L166.4858 204.1506 Z" clip-path="url(#clipPath2)" stroke="none"/>
      <text x="239.1867" xml:space="preserve" y="121.6391" clip-path="url(#clipPath2)" font-family="sans-serif" stroke="none">not(a,b)</text>
      <path fill="none" d="M166.1808 235.5571 L235.275 255.575 L252.9867 261.1367 L270.0094 267.3594 L286.343 274.243 L301.9875 281.7875 L316.943 289.993 L331.2094 298.8594 L344.7867 308.3867 L357.675 318.575 L397.5687 352.0285" clip-path="url(#clipPath2)"/>
      <path d="M403.6987 357.1689 L397.7165 345.627 L396.8025 351.3859 L391.291 353.2895 Z" clip-path="url(#clipPath2)" stroke="none"/>
      <text x="315.753" xml:space="preserve" y="290.7687" clip-path="url(#clipPath2)" font-family="sans-serif" stroke="none">b</text>
      <path fill="none" d="M431.6019 385.5468 L433.3569 388.002 L438.064 396.5056 L441.2305 404.6094 L442.9365 412.262 L443.2622 419.4121 L442.2879 426.0085 L440.0938 432 L436.7599 437.3352 L432.3667 441.9629 L426.9942 445.8318 L420.7227 448.8906 L405.8032 452.373 L388.25 452 L379.5893 450.0793 L372.2729 446.877 L366.3152 442.5759 L361.7305 437.3594 L358.5329 431.4104 L356.7368 424.9121 L356.3565 418.0476 L357.4062 411 L359.9003 403.9524 L363.853 397.0879 L369.2786 390.5896 L376.1914 384.6406 L384.6057 379.4241 L391.7423 376.3329 L391.8386 376.306" clip-path="url(#clipPath2)"/>
      <path d="M399.4202 373.7527 L386.452 372.8442 L390.8909 376.6252 L389.6437 382.3212 Z" clip-path="url(#clipPath2)" stroke="none"/>
      <text x="384.4414" xml:space="preserve" y="456.1543" clip-path="url(#clipPath2)" font-family="sans-serif" stroke="none">b</text>
      <path fill="none" d="M398.9716 369.9117 L356.9453 369.7266 L309.2812 367.8125 L289.8496 365.7275 L272.8203 362.6172 L257.7949 358.2764 L244.375 352.5 L232.1621 345.083 L220.7578 335.8203 L209.7637 324.5068 L198.7812 310.9375 L175.2578 276.2109 L161.6184 253.906" clip-path="url(#clipPath2)"/>
      <path d="M157.4449 247.0809 L159.4395 259.927 L162.1401 254.7591 L167.9708 254.7101 Z" clip-path="url(#clipPath2)" stroke="none"/>
      <text x="253.0685" xml:space="preserve" y="374.1543" clip-path="url(#clipPath2)" font-family="sans-serif" stroke="none">not(a,b)</text>
      <path fill="none" d="M166.9988 230 L376.9826 230" clip-path="url(#clipPath2)"/>
      <path d="M384.9826 230 L372.9826 225 L375.9826 230 L372.9826 235 Z" clip-path="url(#clipPath2)" stroke="none"/>
      <text x="251.2049" xml:space="preserve" y="234.1543" clip-path="url(#clipPath2)" font-family="sans-serif" stroke="none">epsilon</text>
      <path fill="none" d="M405 355.7391 L405 257.9844" clip-path="url(#clipPath2)"/>
      <path d="M405 249.9844 L400 261.9844 L405 258.9844 L410 261.9844 Z" clip-path="url(#clipPath2)" stroke="none"/>
      <text x="383.5664" xml:space="preserve" y="287.1754" clip-path="url(#clipPath2)" font-family="sans-serif" stroke="none">epsilon</text>
      <path fill="none" d="M405 124.0011 L405 201.9935" clip-path="url(#clipPath2)"/>
      <path d="M405 209.9935 L410 197.9935 L405 200.9935 L400 197.9935 Z" clip-path="url(#clipPath2)" stroke="none"/>
      <text x="383.5664" xml:space="preserve" y="170.2389" clip-path="url(#clipPath2)" font-family="sans-serif" stroke="none">epsilon</text>
      <path fill="none" d="M424.99 104 L523.9996 104" clip-path="url(#clipPath2)"/>
      <path d="M531.9996 104 L519.9996 99 L522.9996 104 L519.9996 109 Z" clip-path="url(#clipPath2)" stroke="none"/>
      <text x="474.6914" xml:space="preserve" y="108.1543" clip-path="url(#clipPath2)" font-family="sans-serif" stroke="none">b</text>
      <path fill="none" d="M549.9649 84.1012 L547.05 55.6 L546.1948 50.7774 L544.6418 46.2098 L542.3909 41.897 L539.4422 37.8391 L535.7956 34.036 L531.4512 30.4879 L526.4089 27.1946 L520.6688 24.1562 L507.0949 18.8441 L490.7297 14.5516 L471.5731 11.2785 L449.625 9.025 L428.875 7.475 L405.9601 6.4977 L383.9031 7.0531 L362.7039 9.1414 L342.3625 12.7625 L322.8789 17.9164 L304.2531 24.6031 L286.4852 32.8227 L269.575 42.575 L254.925 51.925 L239.1785 62.7426 L224.9016 74.1578 L212.0941 86.1707 L200.7563 98.7812 L190.8879 111.9894 L182.4891 125.7953 L175.5598 140.1988 L170.1 155.2 L155.2597 203.2544" clip-path="url(#clipPath2)"/>
      <path d="M152.8991 210.8982 L161.2173 200.9079 L155.5547 202.299 L151.6626 197.9572 Z" clip-path="url(#clipPath2)" stroke="none"/>
      <text x="524.3286" xml:space="preserve" y="47.1621" clip-path="url(#clipPath2)" font-family="sans-serif" stroke="none">epsilon</text>
      <path fill="none" d="M438.988 370 L529.9807 370" clip-path="url(#clipPath2)"/>
      <path d="M537.9807 370 L525.9807 365 L528.9807 370 L525.9807 375 Z" clip-path="url(#clipPath2)" stroke="none"/>
      <text x="484.8232" xml:space="preserve" y="374.1543" clip-path="url(#clipPath2)" font-family="sans-serif" stroke="none">a</text>
      <path fill="none" d="M556.2446 389.9626 L555.905 393.8248 L553.3618 404.4442 L549.8887 414.2314 L545.5359 423.209 L540.3538 431.3993 L527.7031 445.5078 L512.3396 456.7365 L494.666 465.2646 L475.0852 471.2719 L454 474.9375 L431.8132 476.441 L408.9277 475.9619 L385.7463 473.6796 L362.6719 469.7734 L340.1072 464.423 L318.4551 457.8076 L298.1184 450.1068 L279.5 441.5 L248.3975 425.3369 L224.5547 411.1953 L214.8705 404.108 L206.4189 396.5967 L199.006 388.3514 L192.4375 379.0625 L186.5194 368.42 L181.0576 356.1143 L170.7266 325.2734 L159.8916 284.0615 L153.4949 257.2366" clip-path="url(#clipPath2)"/>
      <path d="M151.6392 249.4548 L149.5591 262.2873 L153.7268 258.2093 L159.2863 259.9677 Z" clip-path="url(#clipPath2)" stroke="none"/>
      <text x="536.5664" xml:space="preserve" y="424.3965" clip-path="url(#clipPath2)" font-family="sans-serif" stroke="none">epsilon</text>
    </g>
  </g>
</svg>
