<?xml version="1.0" encoding="UTF-8"?><svg xmlns="http://www.w3.org/2000/svg" xmlns:xlink="http://www.w3.org/1999/xlink" fill-opacity="1" color-rendering="auto" color-interpolation="auto" text-rendering="auto" stroke="black" stroke-linecap="square" width="824" stroke-miterlimit="10" shape-rendering="auto" stroke-opacity="1" fill="black" stroke-dasharray="none" font-weight="normal" stroke-width="1" height="526" font-family="'Dialog'" font-style="normal" stroke-linejoin="miter" font-size="12px" stroke-dashoffset="0" image-rendering="auto">
  <!--Generated by ySVG 2.5-->
  <defs id="genericDefs"/>
  <g>
    <defs id="defs1">
      <linearGradient x1="498.9326" gradientUnits="userSpaceOnUse" x2="578.9326" y1="402.2124" y2="442.2124" id="linearGradient1" spreadMethod="reflect">
        <stop stop-opacity="1" stop-color="lime" offset="0%"/>
        <stop stop-opacity="1" stop-color="lime" offset="100%"/>
      </linearGradient>
      <linearGradient x1="774.9326" gradientUnits="userSpaceOnUse" x2="854.9326" y1="402.2124" y2="442.2124" id="linearGradient2" spreadMethod="reflect">
        <stop stop-opacity="1" stop-color="rgb(232,238,247)" offset="0%"/>
        <stop stop-opacity="1" stop-color="rgb(183,201,227)" offset="100%"/>
      </linearGradient>
      <linearGradient x1="222.9326" gradientUnits="userSpaceOnUse" x2="302.9326" y1="402.2124" y2="442.2124" id="linearGradient3" spreadMethod="reflect">
        <stop stop-opacity="1" stop-color="rgb(232,238,247)" offset="0%"/>
        <stop stop-opacity="1" stop-color="rgb(183,201,227)" offset="100%"/>
      </linearGradient>
      <linearGradient x1="659.9326" gradientUnits="userSpaceOnUse" x2="739.9326" y1="523.2125" y2="563.2125" id="linearGradient4" spreadMethod="reflect">
        <stop stop-opacity="1" stop-color="rgb(232,238,247)" offset="0%"/>
        <stop stop-opacity="1" stop-color="rgb(183,201,227)" offset="100%"/>
      </linearGradient>
      <linearGradient x1="774.9326" gradientUnits="userSpaceOnUse" x2="854.9326" y1="523.2125" y2="563.2125" id="linearGradient5" spreadMethod="reflect">
        <stop stop-opacity="1" stop-color="rgb(232,238,247)" offset="0%"/>
        <stop stop-opacity="1" stop-color="rgb(183,201,227)" offset="100%"/>
      </linearGradient>
      <linearGradient x1="327.9326" gradientUnits="userSpaceOnUse" x2="407.9326" y1="523.2125" y2="563.2125" id="linearGradient6" spreadMethod="reflect">
        <stop stop-opacity="1" stop-color="rgb(232,238,247)" offset="0%"/>
        <stop stop-opacity="1" stop-color="rgb(183,201,227)" offset="100%"/>
      </linearGradient>
      <linearGradient x1="222.9326" gradientUnits="userSpaceOnUse" x2="302.9326" y1="523.2125" y2="563.2125" id="linearGradient7" spreadMethod="reflect">
        <stop stop-opacity="1" stop-color="rgb(232,238,247)" offset="0%"/>
        <stop stop-opacity="1" stop-color="rgb(183,201,227)" offset="100%"/>
      </linearGradient>
      <linearGradient x1="498.9326" gradientUnits="userSpaceOnUse" x2="578.9326" y1="681.2125" y2="721.2125" id="linearGradient8" spreadMethod="reflect">
        <stop stop-opacity="1" stop-color="rgb(255,102,0)" offset="0%"/>
        <stop stop-opacity="1" stop-color="rgb(255,102,0)" offset="100%"/>
      </linearGradient>
      <clipPath clipPathUnits="userSpaceOnUse" id="clipPath1">
        <path d="M0 0 L824 0 L824 526 L0 526 L0 0 Z"/>
      </clipPath>
      <clipPath clipPathUnits="userSpaceOnUse" id="clipPath2">
        <path d="M131 211 L955 211 L955 737 L131 737 L131 211 Z"/>
      </clipPath>
    </defs>
    <g fill="white" text-rendering="geometricPrecision" shape-rendering="geometricPrecision" transform="translate(-131,-211)" stroke="white">
      <rect x="131" width="824" height="526" y="211" clip-path="url(#clipPath2)" stroke="none"/>
    </g>
    <g fill="url(#linearGradient1)" text-rendering="geometricPrecision" shape-rendering="geometricPrecision" transform="matrix(1,0,0,1,-131,-211)" stroke="url(#linearGradient1)">
      <circle r="20" clip-path="url(#clipPath2)" cx="538.9326" cy="422.2124" stroke="none"/>
    </g>
    <g text-rendering="geometricPrecision" stroke-miterlimit="1.45" shape-rendering="geometricPrecision" transform="matrix(1,0,0,1,-131,-211)" stroke-linecap="butt">
      <circle fill="none" r="20" clip-path="url(#clipPath2)" cx="538.9326" cy="422.2124"/>
      <text x="524.958" xml:space="preserve" y="426.3667" clip-path="url(#clipPath2)" font-family="sans-serif" stroke="none">start</text>
    </g>
    <g fill="url(#linearGradient2)" text-rendering="geometricPrecision" shape-rendering="geometricPrecision" transform="matrix(1,0,0,1,-131,-211)" stroke="url(#linearGradient2)">
      <circle r="20" clip-path="url(#clipPath2)" cx="814.9326" cy="422.2124" stroke="none"/>
    </g>
    <g text-rendering="geometricPrecision" stroke-miterlimit="1.45" shape-rendering="geometricPrecision" transform="matrix(1,0,0,1,-131,-211)" stroke-linecap="butt">
      <circle fill="none" r="20" clip-path="url(#clipPath2)" cx="814.9326" cy="422.2124"/>
      <text x="807.4473" xml:space="preserve" y="419.3824" clip-path="url(#clipPath2)" font-family="sans-serif" stroke="none">ab</text>
      <text x="797.7354" xml:space="preserve" y="433.3511" clip-path="url(#clipPath2)" font-family="sans-serif" stroke="none">found</text>
    </g>
    <g fill="url(#linearGradient3)" text-rendering="geometricPrecision" shape-rendering="geometricPrecision" transform="matrix(1,0,0,1,-131,-211)" stroke="url(#linearGradient3)">
      <circle r="20" clip-path="url(#clipPath2)" cx="262.9326" cy="422.2124" stroke="none"/>
    </g>
    <g text-rendering="geometricPrecision" stroke-miterlimit="1.45" shape-rendering="geometricPrecision" transform="matrix(1,0,0,1,-131,-211)" stroke-linecap="butt">
      <circle fill="none" r="20" clip-path="url(#clipPath2)" cx="262.9326" cy="422.2124"/>
      <text x="255.4473" xml:space="preserve" y="419.3824" clip-path="url(#clipPath2)" font-family="sans-serif" stroke="none">ba</text>
      <text x="245.7354" xml:space="preserve" y="433.3511" clip-path="url(#clipPath2)" font-family="sans-serif" stroke="none">found</text>
    </g>
    <g fill="url(#linearGradient4)" text-rendering="geometricPrecision" shape-rendering="geometricPrecision" transform="matrix(1,0,0,1,-131,-211)" stroke="url(#linearGradient4)">
      <circle r="20" clip-path="url(#clipPath2)" cx="699.9326" cy="543.2124" stroke="none"/>
    </g>
    <g text-rendering="geometricPrecision" stroke-miterlimit="1.45" shape-rendering="geometricPrecision" transform="matrix(1,0,0,1,-131,-211)" stroke-linecap="butt">
      <circle fill="none" r="20" clip-path="url(#clipPath2)" cx="699.9326" cy="543.2124"/>
    </g>
    <g fill="url(#linearGradient5)" text-rendering="geometricPrecision" shape-rendering="geometricPrecision" transform="matrix(1,0,0,1,-131,-211)" stroke="url(#linearGradient5)">
      <circle r="20" clip-path="url(#clipPath2)" cx="814.9326" cy="543.2124" stroke="none"/>
    </g>
    <g text-rendering="geometricPrecision" stroke-miterlimit="1.45" shape-rendering="geometricPrecision" transform="matrix(1,0,0,1,-131,-211)" stroke-linecap="butt">
      <circle fill="none" r="20" clip-path="url(#clipPath2)" cx="814.9326" cy="543.2124"/>
    </g>
    <g fill="url(#linearGradient6)" text-rendering="geometricPrecision" shape-rendering="geometricPrecision" transform="matrix(1,0,0,1,-131,-211)" stroke="url(#linearGradient6)">
      <circle r="20" clip-path="url(#clipPath2)" cx="367.9326" cy="543.2124" stroke="none"/>
    </g>
    <g text-rendering="geometricPrecision" stroke-miterlimit="1.45" shape-rendering="geometricPrecision" transform="matrix(1,0,0,1,-131,-211)" stroke-linecap="butt">
      <circle fill="none" r="20" clip-path="url(#clipPath2)" cx="367.9326" cy="543.2124"/>
    </g>
    <g fill="url(#linearGradient7)" text-rendering="geometricPrecision" shape-rendering="geometricPrecision" transform="matrix(1,0,0,1,-131,-211)" stroke="url(#linearGradient7)">
      <circle r="20" clip-path="url(#clipPath2)" cx="262.9326" cy="543.2124" stroke="none"/>
    </g>
    <g text-rendering="geometricPrecision" stroke-miterlimit="1.45" shape-rendering="geometricPrecision" transform="matrix(1,0,0,1,-131,-211)" stroke-linecap="butt">
      <circle fill="none" r="20" clip-path="url(#clipPath2)" cx="262.9326" cy="543.2124"/>
    </g>
    <g fill="url(#linearGradient8)" text-rendering="geometricPrecision" shape-rendering="geometricPrecision" transform="matrix(1,0,0,1,-131,-211)" stroke="url(#linearGradient8)">
      <circle r="20" clip-path="url(#clipPath2)" cx="538.9326" cy="701.2124" stroke="none"/>
    </g>
    <g text-rendering="geometricPrecision" stroke-miterlimit="1.45" shape-rendering="geometricPrecision" transform="matrix(1,0,0,1,-131,-211)" stroke-linecap="butt">
      <circle fill="none" r="20" clip-path="url(#clipPath2)" cx="538.9326" cy="701.2124"/>
      <text x="495.96" xml:space="preserve" y="698.3824" clip-path="url(#clipPath2)" font-family="sans-serif" stroke="none">end condition:</text>
      <text x="465.1836" xml:space="preserve" y="712.3511" clip-path="url(#clipPath2)" font-family="sans-serif" stroke="none">input list must be empty</text>
    </g>
    <g text-rendering="geometricPrecision" stroke-miterlimit="1.45" shape-rendering="geometricPrecision" transform="matrix(1,0,0,1,-131,-211)" stroke-linecap="butt">
      <path fill="none" d="M530.5238 404.1053 L530.4072 403.8543 L525.1514 387.8003 L522.708 374.0813 L522.6201 362.7281 L524.4307 353.7713 L527.6826 347.2417 L531.9189 343.1702 L536.6826 341.5874 L541.5166 342.5242 L545.9639 346.0113 L549.5674 352.0794 L551.8701 360.7593 L552.415 372.0818 L550.7451 386.0777 L548.2026 395.8568 L548.1667 395.9502" clip-path="url(#clipPath2)"/>
    </g>
    <g text-rendering="geometricPrecision" stroke-miterlimit="1.45" shape-rendering="geometricPrecision" transform="matrix(1,0,0,1,-131,-211)" stroke-linecap="butt">
      <path d="M546.0709 403.6708 L554.04 393.3998 L548.4288 394.9851 L544.3893 390.78 Z" stroke="none" clip-path="url(#clipPath2)"/>
      <text x="513.5105" xml:space="preserve" y="339.8855" clip-path="url(#clipPath2)" font-family="sans-serif" stroke="none">not a,</text>
      <text x="515.2859" xml:space="preserve" y="353.8543" clip-path="url(#clipPath2)" font-family="sans-serif" stroke="none">not b</text>
      <path fill="none" d="M558.9116 422.2124 L786.9623 422.2124" clip-path="url(#clipPath2)"/>
      <path d="M794.9623 422.2124 L782.9623 417.2124 L785.9623 422.2124 L782.9623 427.2124 Z" clip-path="url(#clipPath2)" stroke="none"/>
      <text x="667.5759" font-size="15px" y="427.4053" clip-path="url(#clipPath2)" font-family="sans-serif" stroke="none" xml:space="preserve">ab</text>
      <path fill="none" d="M814.6036 402.1853 L814.3936 389.3999 L813.1133 376.5093 L810.6201 365.9624 L806.5098 357.7593 L800.3779 351.8999 L791.8203 348.3843 L780.4326 347.2124 L765.8105 348.3843 L747.5498 351.8999 L698.4951 365.9624 L630.0342 389.3999 L565.2757 412.7243" clip-path="url(#clipPath2)"/>
      <path d="M557.749 415.4352 L570.7333 416.0731 L566.2166 412.3855 L567.3447 406.6647 Z" clip-path="url(#clipPath2)" stroke="none"/>
      <text x="788.1406" font-size="15px" y="391.6748" clip-path="url(#clipPath2)" font-family="sans-serif" stroke="none" xml:space="preserve">epsilon</text>
      <path fill="none" d="M518.9536 422.2124 L290.903 422.2124" clip-path="url(#clipPath2)"/>
      <path d="M282.903 422.2124 L294.903 427.2124 L291.903 422.2124 L294.903 417.2124 Z" clip-path="url(#clipPath2)" stroke="none"/>
      <text x="391.576" font-size="15px" y="427.4053" clip-path="url(#clipPath2)" font-family="sans-serif" stroke="none" xml:space="preserve">ba</text>
      <path fill="none" d="M263.2817 402.2423 L263.4717 391.3687 L264.752 379.2515 L267.2451 369.3374 L271.3555 361.6265 L277.4873 356.1187 L286.045 352.814 L297.4326 351.7124 L312.0547 352.814 L330.3155 356.1187 L379.3701 369.3374 L447.8311 391.3687 L512.4498 413.2463" clip-path="url(#clipPath2)"/>
      <path d="M520.0273 415.8118 L510.2644 407.2277 L511.5026 412.9256 L507.0576 416.6995 Z" clip-path="url(#clipPath2)" stroke="none"/>
      <text x="236.1407" font-size="15px" y="391.6748" clip-path="url(#clipPath2)" font-family="sans-serif" stroke="none" xml:space="preserve">epsilon</text>
      <path fill="none" d="M554.9304 434.2356 L677.5716 526.4069" clip-path="url(#clipPath2)"/>
      <path d="M683.9668 531.2133 L677.3779 520.0067 L676.7722 525.8061 L671.37 528.0007 Z" clip-path="url(#clipPath2)" stroke="none"/>
      <text x="614.8367" font-size="15px" y="487.9053" clip-path="url(#clipPath2)" font-family="sans-serif" stroke="none" xml:space="preserve">a</text>
      <path fill="none" d="M681.9934 551.9911 L680.3486 552.796 L662.417 559.5054 L646.0557 563.4669 L631.1826 564.8062 L617.7158 563.6495 L605.5732 560.1226 L594.6729 554.3516 L584.9326 546.4625 L576.2705 536.5811 L568.6045 524.8336 L561.8525 511.3458 L555.9326 496.2437 L546.2607 461.7007 L544.0349 449.7066" clip-path="url(#clipPath2)"/>
      <path d="M542.5752 441.8409 L539.8487 454.5518 L544.2174 450.6898 L549.6808 452.7271 Z" clip-path="url(#clipPath2)" stroke="none"/>
      <text x="569.2191" font-size="15px" y="561.5223" clip-path="url(#clipPath2)" font-family="sans-serif" stroke="none" xml:space="preserve">not a, not b</text>
      <path fill="none" d="M719.9509 543.2125 L786.9438 543.2125" clip-path="url(#clipPath2)"/>
      <path d="M794.9438 543.2125 L782.9438 538.2125 L785.9438 543.2125 L782.9438 548.2125 Z" clip-path="url(#clipPath2)" stroke="none"/>
      <text x="752.8367" font-size="15px" y="548.4053" clip-path="url(#clipPath2)" font-family="sans-serif" stroke="none" xml:space="preserve">a</text>
      <path fill="none" d="M803.5466 559.6681 L798.0596 567.5982 L788.6982 586.9859 L786.4866 594.9135 L785.7354 601.7213 L786.3054 607.4523 L788.0576 612.15 L790.8528 615.8574 L794.5518 618.6177 L804.1045 621.4703 L815.6025 621.0533 L827.9326 617.7125 L838.9814 612.7271 L847.1357 606.9859 L852.0322 600.2486 L853.3076 592.275 L850.5986 582.8248 L843.542 571.6578 L835.2511 562.4112 L835.1771 562.3439" clip-path="url(#clipPath2)"/>
      <path d="M829.6329 556.5765 L834.3447 568.6926 L835.8702 563.0648 L841.5538 561.7624 Z" clip-path="url(#clipPath2)" stroke="none"/>
      <text x="823.3367" font-size="15px" y="622.9053" clip-path="url(#clipPath2)" font-family="sans-serif" stroke="none" xml:space="preserve">a</text>
      <path fill="none" d="M814.9326 523.2132 L814.9326 450.1857" clip-path="url(#clipPath2)"/>
      <path d="M814.9326 442.1857 L809.9326 454.1857 L814.9326 451.1857 L819.9326 454.1857 Z" clip-path="url(#clipPath2)" stroke="none"/>
      <text x="810.1719" font-size="15px" y="497.83" clip-path="url(#clipPath2)" font-family="sans-serif" stroke="none" xml:space="preserve">b</text>
      <path fill="none" d="M831.8138 532.4521 L832.2537 532.1718 L847.8799 520.8288 L861.8684 509.2267 L874.2764 497.4088 L885.1609 485.4183 L894.5791 473.2988 L902.5881 461.0933 L909.2451 448.8452 L914.6072 436.598 L918.7314 424.3947 L923.4951 400.2935 L923.9932 376.8881 L920.6826 354.5249 L914.0205 333.5504 L904.4639 314.3111 L892.4697 297.1532 L878.4951 282.4234 L862.9971 270.4679 L846.4326 261.6333 L829.2588 256.266 L811.9326 254.7124 L781.2119 255.8599 L755.917 258.7359 L744.3044 261.4355 L732.8486 265.3033 L721.1497 270.5846 L708.8076 277.5249 L680.5947 297.3638 L645.0107 326.7827 L559.7715 403.4655" clip-path="url(#clipPath2)"/>
      <path d="M553.824 408.8159 L566.0892 404.5074 L560.5149 402.7967 L559.4012 397.0731 Z" clip-path="url(#clipPath2)" stroke="none"/>
      <text x="850.8323" font-size="15px" y="299.6447" clip-path="url(#clipPath2)" font-family="sans-serif" stroke="none" xml:space="preserve">not a, not b</text>
      <path fill="none" d="M522.5883 433.7777 L390.8122 527.0228" clip-path="url(#clipPath2)"/>
      <path d="M384.2817 531.6438 L396.9655 528.7939 L391.6285 526.4452 L391.1893 520.6308 Z" clip-path="url(#clipPath2)" stroke="none"/>
      <text x="448.6719" font-size="15px" y="487.9053" clip-path="url(#clipPath2)" font-family="sans-serif" stroke="none" xml:space="preserve">b</text>
      <path fill="none" d="M384.9622 553.7018 L389.9229 556.7574 L401.7376 562.5242 L413.917 567.1968 L426.325 570.4573 L438.8252 571.9879 L451.2815 571.4705 L463.5576 568.5875 L475.5174 563.0208 L487.0244 554.4527 L497.9427 542.5652 L508.1358 527.0406 L517.4675 507.5608 L525.8018 483.8081 L533.0022 455.4646 L534.0126 449.7992" clip-path="url(#clipPath2)"/>
      <path d="M535.4172 441.9235 L528.388 452.8592 L533.837 450.7837 L538.2327 454.6149 Z" clip-path="url(#clipPath2)" stroke="none"/>
      <text x="409.3763" font-size="15px" y="565.3568" clip-path="url(#clipPath2)" font-family="sans-serif" stroke="none" xml:space="preserve">not a, not b</text>
      <path fill="none" d="M347.9119 543.2125 L290.9741 543.2125" clip-path="url(#clipPath2)"/>
      <path d="M282.9741 543.2125 L294.9741 548.2125 L291.9741 543.2125 L294.9741 538.2125 Z" clip-path="url(#clipPath2)" stroke="none"/>
      <text x="310.6719" font-size="15px" y="548.4053" clip-path="url(#clipPath2)" font-family="sans-serif" stroke="none" xml:space="preserve">b</text>
      <path fill="none" d="M271.5394 561.2284 L271.7696 561.8375 L273.4916 570.6343 L273.628 578.9625 L272.3376 586.7281 L269.7793 593.8375 L266.1122 600.1968 L261.4951 605.7125 L256.0871 610.2906 L250.0469 613.8375 L243.5336 616.2593 L236.7061 617.4625 L229.7233 617.3531 L222.7442 615.8375 L215.9276 612.8218 L209.4326 608.2125 L198.545 598.5699 L191.4248 590.8843 L188.6992 584.3941 L189.1803 581.3592 L190.9951 578.3375 L198.9395 571.9527 L213.1592 564.4781 L237.1783 554.216" clip-path="url(#clipPath2)"/>
      <path d="M244.5349 551.0729 L231.5355 551.1896 L236.2587 554.6089 L235.4644 560.3855 Z" clip-path="url(#clipPath2)" stroke="none"/>
      <text x="204.6719" font-size="15px" y="613.4053" clip-path="url(#clipPath2)" font-family="sans-serif" stroke="none" xml:space="preserve">b</text>
      <path fill="none" d="M262.9326 523.2132 L262.9326 450.1857" clip-path="url(#clipPath2)"/>
      <path d="M262.9326 442.1857 L257.9326 454.1857 L262.9326 451.1857 L267.9326 454.1857 Z" clip-path="url(#clipPath2)" stroke="none"/>
      <text x="258.3367" font-size="15px" y="491.726" clip-path="url(#clipPath2)" font-family="sans-serif" stroke="none" xml:space="preserve">a</text>
      <path fill="none" d="M246.4138 531.8975 L233.2588 521.6246 L220.6946 510.3128 L209.5733 498.7125 L199.8406 486.866 L191.4424 474.816 L184.3245 462.6048 L178.4326 450.2749 L170.1104 425.4292 L166.042 400.6187 L165.794 376.1831 L168.9326 352.4624 L175.0244 329.7964 L183.6358 308.5249 L194.333 288.9878 L206.6826 271.5249 L220.251 256.4761 L234.6045 244.1812 L249.3096 234.98 L263.9326 229.2124 L278.0733 226.7986 L291.7451 227.2925 L305.1358 230.4846 L318.4326 236.1656 L331.8233 244.1258 L345.4951 254.1558 L374.4326 279.5874 L406.7451 310.7847 L443.9326 346.0718 L487.4951 383.773 L512.1357 403.0052 L516.1796 405.9037" clip-path="url(#clipPath2)"/>
      <path d="M522.6818 410.5643 L515.8414 399.5095 L515.3668 405.3211 L510.0156 407.6372 Z" clip-path="url(#clipPath2)" stroke="none"/>
      <text x="148.9104" font-size="15px" y="308.1947" clip-path="url(#clipPath2)" font-family="sans-serif" stroke="none" xml:space="preserve">not a, not b</text>
      <path fill="none" d="M538.9326 442.2043 L538.9326 673.1987" clip-path="url(#clipPath2)"/>
      <path d="M538.9326 681.1987 L543.9326 669.1987 L538.9326 672.1987 L533.9326 669.1987 Z" clip-path="url(#clipPath2)" stroke="none"/>
      <text x="517.499" xml:space="preserve" y="644.8668" clip-path="url(#clipPath2)" font-family="sans-serif" stroke="none">epsilon</text>
      <path fill="none" d="M685.6447 557.2342 L558.9161 681.6014" clip-path="url(#clipPath2)"/>
      <path d="M553.2062 687.2048 L565.2731 682.3683 L559.6298 680.9009 L558.2689 675.2311 Z" clip-path="url(#clipPath2)" stroke="none"/>
      <text x="564.52" xml:space="preserve" y="659.2219" clip-path="url(#clipPath2)" font-family="sans-serif" stroke="none">epsilon</text>
      <path fill="none" d="M382.6071 556.7713 L518.3823 682.2244" clip-path="url(#clipPath2)"/>
      <path d="M524.2581 687.6534 L518.8375 675.8375 L517.6478 681.5457 L512.0511 683.1822 Z" clip-path="url(#clipPath2)" stroke="none"/>
      <text x="464.6506" xml:space="preserve" y="656.536" clip-path="url(#clipPath2)" font-family="sans-serif" stroke="none">epsilon</text>
      <path fill="none" d="M797.5815 553.1453 L563.2093 687.3149" clip-path="url(#clipPath2)"/>
      <path d="M556.2664 691.2895 L569.1648 689.667 L564.0771 686.8181 L564.1966 680.9884 Z" clip-path="url(#clipPath2)" stroke="none"/>
      <text x="675.3474" xml:space="preserve" y="615.0043" clip-path="url(#clipPath2)" font-family="sans-serif" stroke="none">epsilon</text>
      <path fill="none" d="M280.2837 553.1453 L514.656 687.3149" clip-path="url(#clipPath2)"/>
      <path d="M521.5989 691.2895 L513.6687 680.9884 L513.7881 686.8181 L508.7005 689.667 Z" clip-path="url(#clipPath2)" stroke="none"/>
      <text x="355.2984" xml:space="preserve" y="647.0807" clip-path="url(#clipPath2)" font-family="sans-serif" stroke="none">epsilon</text>
    </g>
  </g>
</svg>
