<?xml version="1.0" encoding="UTF-8"?><svg xmlns="http://www.w3.org/2000/svg" xmlns:xlink="http://www.w3.org/1999/xlink" fill-opacity="1" color-rendering="auto" color-interpolation="auto" text-rendering="auto" stroke="black" stroke-linecap="square" width="760" stroke-miterlimit="10" shape-rendering="auto" stroke-opacity="1" fill="black" stroke-dasharray="none" font-weight="normal" stroke-width="1" height="455" font-family="'Dialog'" font-style="normal" stroke-linejoin="miter" font-size="12px" stroke-dashoffset="0" image-rendering="auto">
  <!--Generated by ySVG 2.5-->
  <defs id="genericDefs"/>
  <g>
    <defs id="defs1">
      <linearGradient x1="968.2335" gradientUnits="userSpaceOnUse" x2="1048.2335" y1="155.0155" y2="195.0155" id="linearGradient1" spreadMethod="reflect">
        <stop stop-opacity="1" stop-color="lime" offset="0%"/>
        <stop stop-opacity="1" stop-color="lime" offset="100%"/>
      </linearGradient>
      <linearGradient x1="1179.5962" gradientUnits="userSpaceOnUse" x2="1279.5962" y1="147.0155" y2="203.0155" id="linearGradient2" spreadMethod="reflect">
        <stop stop-opacity="1" stop-color="rgb(232,238,247)" offset="0%"/>
        <stop stop-opacity="1" stop-color="rgb(183,201,227)" offset="100%"/>
      </linearGradient>
      <linearGradient x1="968.2335" gradientUnits="userSpaceOnUse" x2="1048.2335" y1="364.9171" y2="404.9171" id="linearGradient3" spreadMethod="reflect">
        <stop stop-opacity="1" stop-color="rgb(255,102,0)" offset="0%"/>
        <stop stop-opacity="1" stop-color="rgb(255,102,0)" offset="100%"/>
      </linearGradient>
      <linearGradient x1="1190.5625" gradientUnits="userSpaceOnUse" x2="1416.5625" y1="342.2578" y2="382.2578" id="linearGradient4" spreadMethod="reflect">
        <stop stop-opacity="1" stop-color="rgb(255,255,153)" offset="0%"/>
        <stop stop-opacity="1" stop-color="rgb(255,255,153)" offset="100%"/>
      </linearGradient>
      <linearGradient x1="1241.9835" gradientUnits="userSpaceOnUse" x2="1286.9835" y1="273.5078" y2="295.5078" id="linearGradient5" spreadMethod="reflect">
        <stop stop-opacity="1" stop-color="rgb(232,238,247)" offset="0%"/>
        <stop stop-opacity="1" stop-color="rgb(183,201,227)" offset="100%"/>
      </linearGradient>
      <linearGradient x1="985.7335" gradientUnits="userSpaceOnUse" x2="1030.7335" y1="233.1036" y2="255.1036" id="linearGradient6" spreadMethod="reflect">
        <stop stop-opacity="1" stop-color="rgb(232,238,247)" offset="0%"/>
        <stop stop-opacity="1" stop-color="rgb(183,201,227)" offset="100%"/>
      </linearGradient>
      <linearGradient x1="687.0625" gradientUnits="userSpaceOnUse" x2="908.0625" y1="273.5078" y2="329.5078" id="linearGradient7" spreadMethod="reflect">
        <stop stop-opacity="1" stop-color="rgb(255,255,153)" offset="0%"/>
        <stop stop-opacity="1" stop-color="rgb(255,255,153)" offset="100%"/>
      </linearGradient>
      <linearGradient x1="687.0625" gradientUnits="userSpaceOnUse" x2="908.0625" y1="386.5078" y2="456.5078" id="linearGradient8" spreadMethod="reflect">
        <stop stop-opacity="1" stop-color="rgb(255,255,153)" offset="0%"/>
        <stop stop-opacity="1" stop-color="rgb(255,255,153)" offset="100%"/>
      </linearGradient>
      <clipPath clipPathUnits="userSpaceOnUse" id="clipPath1">
        <path d="M0 0 L760 0 L760 455 L0 455 L0 0 Z"/>
      </clipPath>
      <clipPath clipPathUnits="userSpaceOnUse" id="clipPath2">
        <path d="M672 17 L1432 17 L1432 472 L672 472 L672 17 Z"/>
      </clipPath>
      <clipPath clipPathUnits="userSpaceOnUse" id="clipPath3">
        <path d="M-438.2837 93.0963 L219.8957 -286.9037 L447.3957 107.1379 L-210.7836 487.1379 L-438.2837 93.0963 Z"/>
      </clipPath>
      <clipPath clipPathUnits="userSpaceOnUse" id="clipPath4">
        <path d="M-509.285 221.6531 L148.8943 -158.3469 L376.3943 235.6947 L-281.785 615.6946 L-509.285 221.6531 Z"/>
      </clipPath>
      <clipPath clipPathUnits="userSpaceOnUse" id="clipPath5">
        <path d="M-584.0817 259.0341 L74.0977 -120.9659 L301.5977 273.0756 L-356.5817 653.0756 L-584.0817 259.0341 Z"/>
      </clipPath>
    </defs>
    <g fill="white" text-rendering="geometricPrecision" shape-rendering="geometricPrecision" transform="translate(-672,-17)" stroke="white">
      <rect x="672" width="760" height="455" y="17" clip-path="url(#clipPath2)" stroke="none"/>
    </g>
    <g fill="url(#linearGradient1)" text-rendering="geometricPrecision" shape-rendering="geometricPrecision" transform="matrix(1,0,0,1,-672,-17)" stroke="url(#linearGradient1)">
      <circle r="20" clip-path="url(#clipPath2)" cx="1008.2335" cy="175.0155" stroke="none"/>
    </g>
    <g text-rendering="geometricPrecision" stroke-miterlimit="1.45" shape-rendering="geometricPrecision" transform="matrix(1,0,0,1,-672,-17)" stroke-linecap="butt">
      <circle fill="none" r="20" clip-path="url(#clipPath2)" cx="1008.2335" cy="175.0155"/>
      <text x="994.2589" xml:space="preserve" y="179.1698" clip-path="url(#clipPath2)" font-family="sans-serif" stroke="none">start</text>
    </g>
    <g fill="url(#linearGradient2)" text-rendering="geometricPrecision" shape-rendering="geometricPrecision" transform="matrix(1,0,0,1,-672,-17)" stroke="url(#linearGradient2)">
      <circle r="28" clip-path="url(#clipPath2)" cx="1229.5962" cy="175.0155" stroke="none"/>
    </g>
    <g text-rendering="geometricPrecision" stroke-miterlimit="1.45" shape-rendering="geometricPrecision" transform="matrix(1,0,0,1,-672,-17)" stroke-linecap="butt">
      <circle fill="none" r="28" clip-path="url(#clipPath2)" cx="1229.5962" cy="175.0155"/>
      <text x="1207.543" font-size="10px" y="178.4775" clip-path="url(#clipPath2)" font-family="sans-serif" stroke="none" xml:space="preserve">anything</text>
    </g>
    <g fill="url(#linearGradient3)" text-rendering="geometricPrecision" shape-rendering="geometricPrecision" transform="matrix(1,0,0,1,-672,-17)" stroke="url(#linearGradient3)">
      <circle r="20" clip-path="url(#clipPath2)" cx="1008.2335" cy="384.9171" stroke="none"/>
    </g>
    <g text-rendering="geometricPrecision" stroke-miterlimit="1.45" shape-rendering="geometricPrecision" transform="matrix(1,0,0,1,-672,-17)" stroke-linecap="butt">
      <circle fill="none" r="20" clip-path="url(#clipPath2)" cx="1008.2335" cy="384.9171"/>
      <text x="996.9307" xml:space="preserve" y="389.0714" clip-path="url(#clipPath2)" font-family="sans-serif" stroke="none">end</text>
    </g>
    <g fill="url(#linearGradient4)" text-rendering="geometricPrecision" shape-rendering="geometricPrecision" transform="matrix(1,0,0,1,-672,-17)" stroke="url(#linearGradient4)">
      <path d="M1190.5625 342.2578 L1416.5625 342.2578 L1416.5625 382.2578 L1190.5625 382.2578 Z" stroke="none" clip-path="url(#clipPath2)"/>
    </g>
    <g text-rendering="geometricPrecision" stroke-miterlimit="1.45" shape-rendering="geometricPrecision" font-family="sans-serif" transform="matrix(1,0,0,1,-672,-17)" stroke-linecap="butt">
      <text x="1203.5459" xml:space="preserve" y="359.4277" clip-path="url(#clipPath2)" stroke="none">Characters must be accumulated</text>
      <text x="1274.5059" xml:space="preserve" y="373.3965" clip-path="url(#clipPath2)" stroke="none">into a run</text>
    </g>
    <g fill="url(#linearGradient5)" text-rendering="geometricPrecision" shape-rendering="geometricPrecision" transform="matrix(1,0,0,1,-672,-17)" stroke="url(#linearGradient5)">
      <circle r="11" clip-path="url(#clipPath2)" cx="1264.4835" cy="284.5078" stroke="none"/>
    </g>
    <g fill="url(#linearGradient6)" text-rendering="geometricPrecision" shape-rendering="geometricPrecision" transform="matrix(1,0,0,1,-672,-17)" stroke="url(#linearGradient6)">
      <circle r="11" clip-path="url(#clipPath2)" cx="1008.2335" cy="244.1036" stroke="none"/>
    </g>
    <g fill="url(#linearGradient7)" text-rendering="geometricPrecision" shape-rendering="geometricPrecision" transform="matrix(1,0,0,1,-672,-17)" stroke="url(#linearGradient7)">
      <path d="M687.0625 273.5078 L908.0625 273.5078 L908.0625 329.5078 L687.0625 329.5078 Z" stroke="none" clip-path="url(#clipPath2)"/>
    </g>
    <g text-rendering="geometricPrecision" stroke-miterlimit="1.45" shape-rendering="geometricPrecision" font-family="sans-serif" transform="matrix(1,0,0,1,-672,-17)" stroke-linecap="butt">
      <text x="716.5039" xml:space="preserve" y="291.6933" clip-path="url(#clipPath2)" stroke="none">Lowest priority alternative </text>
      <text x="702.6465" xml:space="preserve" y="305.6621" clip-path="url(#clipPath2)" stroke="none">which consumes no characters;</text>
      <text x="695.7734" xml:space="preserve" y="319.6308" clip-path="url(#clipPath2)" stroke="none">meant to be taken at end of input</text>
    </g>
    <g fill="url(#linearGradient8)" text-rendering="geometricPrecision" shape-rendering="geometricPrecision" transform="matrix(1,0,0,1,-672,-17)" stroke="url(#linearGradient8)">
      <path d="M687.0625 386.5078 L908.0625 386.5078 L908.0625 456.5078 L687.0625 456.5078 Z" stroke="none" clip-path="url(#clipPath2)"/>
    </g>
    <g text-rendering="geometricPrecision" stroke-miterlimit="1.45" shape-rendering="geometricPrecision" font-family="sans-serif" transform="matrix(1,0,0,1,-672,-17)" stroke-linecap="butt">
      <text x="693.9834" xml:space="preserve" y="404.709" clip-path="url(#clipPath2)" stroke="none">The end state can only be entered</text>
      <text x="703.5664" xml:space="preserve" y="418.6777" clip-path="url(#clipPath2)" stroke="none">if there are no characters left if</text>
      <text x="703.7773" xml:space="preserve" y="432.6465" clip-path="url(#clipPath2)" stroke="none">we demand that the leftover of</text>
      <text x="716.208" xml:space="preserve" y="446.6152" clip-path="url(#clipPath2)" stroke="none">phrase/3 be the empty list.</text>
    </g>
    <g text-rendering="geometricPrecision" stroke-miterlimit="1.45" shape-rendering="geometricPrecision" transform="matrix(1,0,0,1,-672,-17)" stroke-linecap="butt">
      <path fill="none" d="M1028.2566 175.0155 L1193.627 175.0155" clip-path="url(#clipPath2)"/>
    </g>
    <g text-rendering="geometricPrecision" stroke-miterlimit="1.45" shape-rendering="geometricPrecision" transform="matrix(1,0,0,1,-672,-17)" stroke-linecap="butt">
      <path d="M1201.627 175.0155 L1189.627 170.0155 L1192.627 175.0155 L1189.627 180.0155 Z" stroke="none" clip-path="url(#clipPath2)"/>
    </g>
    <g text-rendering="geometricPrecision" stroke-miterlimit="1.45" shape-rendering="geometricPrecision" font-family="sans-serif" transform="matrix(0.866,0.5,-0.5,0.866,426.1129,138.5181)" stroke-linecap="butt">
      <text x="2" xml:space="preserve" y="13.1387" clip-path="url(#clipPath3)" stroke="none">epsilon</text>
    </g>
    <g text-rendering="geometricPrecision" stroke-miterlimit="1.45" shape-rendering="geometricPrecision" transform="matrix(1,0,0,1,-672,-17)" stroke-linecap="butt">
      <path fill="none" d="M1209.8584 194.8707 L1207.4031 197.686 L1199.7548 208.9458 L1194.2104 219.9967 L1190.6243 230.7198 L1188.8499 240.9959 L1188.7413 250.7062 L1190.1526 259.7317 L1192.9376 267.9534 L1196.9502 275.2522 L1202.0442 281.5093 L1208.0737 286.6057 L1214.8927 290.4223 L1222.355 292.8402 L1230.3143 293.7404 L1238.625 293.0039 L1246.533 290.931 L1253.373 287.9323 L1259.1318 284.0549 L1263.7964 279.3456 L1267.3534 273.8513 L1269.7896 267.619 L1271.0916 260.6953 L1271.2463 253.1274 L1268.0613 236.2462 L1260.1284 217.3504 L1251.5273 203.5369 L1251.4642 203.4593" clip-path="url(#clipPath2)"/>
      <path d="M1247.2377 196.667 L1249.3324 209.4971 L1251.9926 204.3084 L1257.8228 204.2139 Z" clip-path="url(#clipPath2)" stroke="none"/>
      <text x="1157.7361" xml:space="preserve" y="239.5551" clip-path="url(#clipPath2)" font-family="sans-serif" stroke="none">non-greedily</text>
      <text x="1147.8777" xml:space="preserve" y="253.5238" clip-path="url(#clipPath2)" font-family="sans-serif" stroke="none">any 1-character</text>
      <path fill="none" d="M1229.5962 146.9931 L1229.5962 84.5078 L1228.9712 80.1328 L1227.0962 77.0078 L1223.9712 75.1328 L1219.5962 74.5078 L1057.2335 74.5078 L1052.6324 75.0904 L1048.8291 76.8385 L1045.8236 79.7518 L1043.616 83.8305 L1018.3543 148.933" clip-path="url(#clipPath2)"/>
      <path d="M1015.4603 156.3912 L1024.4626 147.0127 L1018.7161 148.0007 L1015.14 143.3951 Z" clip-path="url(#clipPath2)" stroke="none"/>
    </g>
    <g font-size="20px" stroke-linecap="butt" transform="matrix(0.866,0.5,-0.5,0.866,551.8803,62.6853)" text-rendering="geometricPrecision" font-family="sans-serif" shape-rendering="geometricPrecision" stroke-miterlimit="1.45">
      <text x="2" xml:space="preserve" y="20.5645" clip-path="url(#clipPath4)" stroke="none">ba</text>
    </g>
    <g text-rendering="geometricPrecision" stroke-miterlimit="1.45" shape-rendering="geometricPrecision" transform="matrix(1,0,0,1,-672,-17)" stroke-linecap="butt">
      <path fill="none" d="M1257.5948 175.0155 L1303.0625 175.0155 L1307.4375 174.3905 L1310.5625 172.5155 L1312.4375 169.3905 L1313.0625 165.0155 L1313.0625 42.5078 L1312.4375 38.1328 L1310.5625 35.0078 L1307.4375 33.1328 L1303.0625 32.5078 L1042.2335 32.5078 L1037.7548 33.1241 L1034.3184 34.9731 L1031.9243 38.0547 L1030.5728 42.3689 L1012.8843 147.3996" clip-path="url(#clipPath2)"/>
      <path d="M1011.5557 155.2885 L1018.4792 144.2855 L1013.0504 146.4135 L1008.6181 142.6248 Z" clip-path="url(#clipPath2)" stroke="none"/>
    </g>
    <g font-size="20px" stroke-linecap="butt" transform="matrix(0.866,0.5,-0.5,0.866,635.3466,67.7107)" text-rendering="geometricPrecision" font-family="sans-serif" shape-rendering="geometricPrecision" stroke-miterlimit="1.45">
      <text x="2" xml:space="preserve" y="20.5645" clip-path="url(#clipPath5)" stroke="none">ab</text>
    </g>
    <g text-rendering="geometricPrecision" stroke-miterlimit="1.45" shape-rendering="geometricPrecision" transform="matrix(1,0,0,1,-672,-17)" stroke-linecap="butt">
      <path fill="none" d="M1008.2335 195.0269 L1008.2335 356.936" clip-path="url(#clipPath2)"/>
      <path d="M1008.2335 364.936 L1013.2335 352.936 L1008.2335 355.936 L1003.2335 352.936 Z" clip-path="url(#clipPath2)" stroke="none"/>
      <text x="986.7999" xml:space="preserve" y="284.1206" clip-path="url(#clipPath2)" font-family="sans-serif" stroke="none">epsilon</text>
      <path fill="none" d="M1269.4257 294.3404 L1293.5115 342.2606" clip-path="url(#clipPath2)"/>
      <path fill="none" d="M900.3006 273.5134 L997.6141 246.9972" clip-path="url(#clipPath2)"/>
      <path fill="none" d="M908.067 402.3146 L988.523 388.3405" clip-path="url(#clipPath2)"/>
    </g>
  </g>
</svg>
