<?xml version="1.0" encoding="UTF-8"?><svg xmlns="http://www.w3.org/2000/svg" xmlns:xlink="http://www.w3.org/1999/xlink" fill-opacity="1" color-rendering="auto" color-interpolation="auto" text-rendering="auto" stroke="black" stroke-linecap="square" width="809" stroke-miterlimit="10" shape-rendering="auto" stroke-opacity="1" fill="black" stroke-dasharray="none" font-weight="normal" stroke-width="1" height="520" font-family="'Dialog'" font-style="normal" stroke-linejoin="miter" font-size="12px" stroke-dashoffset="0" image-rendering="auto">
  <!--Generated by ySVG 2.5-->
  <defs id="genericDefs"/>
  <g>
    <defs id="defs1">
      <linearGradient x1="629.171" gradientUnits="userSpaceOnUse" x2="709.171" y1="324.5078" y2="364.5078" id="linearGradient1" spreadMethod="reflect">
        <stop stop-opacity="1" stop-color="lime" offset="0%"/>
        <stop stop-opacity="1" stop-color="lime" offset="100%"/>
      </linearGradient>
      <linearGradient x1="860.5337" gradientUnits="userSpaceOnUse" x2="940.5337" y1="324.5078" y2="364.5078" id="linearGradient2" spreadMethod="reflect">
        <stop stop-opacity="1" stop-color="rgb(232,238,247)" offset="0%"/>
        <stop stop-opacity="1" stop-color="rgb(183,201,227)" offset="100%"/>
      </linearGradient>
      <linearGradient x1="960.6788" gradientUnits="userSpaceOnUse" x2="1040.6787" y1="384.5959" y2="424.5959" id="linearGradient3" spreadMethod="reflect">
        <stop stop-opacity="1" stop-color="rgb(232,238,247)" offset="0%"/>
        <stop stop-opacity="1" stop-color="rgb(183,201,227)" offset="100%"/>
      </linearGradient>
      <linearGradient x1="960.6788" gradientUnits="userSpaceOnUse" x2="1040.6787" y1="254.5078" y2="294.5078" id="linearGradient4" spreadMethod="reflect">
        <stop stop-opacity="1" stop-color="rgb(232,238,247)" offset="0%"/>
        <stop stop-opacity="1" stop-color="rgb(183,201,227)" offset="100%"/>
      </linearGradient>
      <linearGradient x1="629.171" gradientUnits="userSpaceOnUse" x2="709.171" y1="534.4093" y2="574.4093" id="linearGradient5" spreadMethod="reflect">
        <stop stop-opacity="1" stop-color="rgb(255,102,0)" offset="0%"/>
        <stop stop-opacity="1" stop-color="rgb(255,102,0)" offset="100%"/>
      </linearGradient>
      <linearGradient x1="304" gradientUnits="userSpaceOnUse" x2="530" y1="223" y2="263" id="linearGradient6" spreadMethod="reflect">
        <stop stop-opacity="1" stop-color="rgb(255,255,153)" offset="0%"/>
        <stop stop-opacity="1" stop-color="rgb(255,255,153)" offset="100%"/>
      </linearGradient>
      <linearGradient x1="554.171" gradientUnits="userSpaceOnUse" x2="599.171" y1="284.6062" y2="306.6062" id="linearGradient7" spreadMethod="reflect">
        <stop stop-opacity="1" stop-color="rgb(232,238,247)" offset="0%"/>
        <stop stop-opacity="1" stop-color="rgb(183,201,227)" offset="100%"/>
      </linearGradient>
      <linearGradient x1="646.671" gradientUnits="userSpaceOnUse" x2="691.671" y1="402.5959" y2="424.5959" id="linearGradient8" spreadMethod="reflect">
        <stop stop-opacity="1" stop-color="rgb(232,238,247)" offset="0%"/>
        <stop stop-opacity="1" stop-color="rgb(183,201,227)" offset="100%"/>
      </linearGradient>
      <linearGradient x1="348" gradientUnits="userSpaceOnUse" x2="569" y1="443" y2="499" id="linearGradient9" spreadMethod="reflect">
        <stop stop-opacity="1" stop-color="rgb(255,255,153)" offset="0%"/>
        <stop stop-opacity="1" stop-color="rgb(255,255,153)" offset="100%"/>
      </linearGradient>
      <linearGradient x1="348" gradientUnits="userSpaceOnUse" x2="569" y1="556" y2="626" id="linearGradient10" spreadMethod="reflect">
        <stop stop-opacity="1" stop-color="rgb(255,255,153)" offset="0%"/>
        <stop stop-opacity="1" stop-color="rgb(255,255,153)" offset="100%"/>
      </linearGradient>
      <clipPath clipPathUnits="userSpaceOnUse" id="clipPath1">
        <path d="M0 0 L809 0 L809 520 L0 520 L0 0 Z"/>
      </clipPath>
      <clipPath clipPathUnits="userSpaceOnUse" id="clipPath2">
        <path d="M289 121 L1098 121 L1098 641 L289 641 L289 121 Z"/>
      </clipPath>
      <clipPath clipPathUnits="userSpaceOnUse" id="clipPath3">
        <path d="M-517.741 63.3471 L182.8736 -341.1529 L442.8735 109.1803 L-257.741 513.6804 L-517.741 63.3471 Z"/>
      </clipPath>
      <clipPath clipPathUnits="userSpaceOnUse" id="clipPath4">
        <path d="M-437.1919 -542.2754 L263.4227 -137.7754 L3.4227 312.5579 L-697.1919 -91.9422 L-437.1919 -542.2754 Z"/>
      </clipPath>
      <clipPath clipPathUnits="userSpaceOnUse" id="clipPath5">
        <path d="M-657.948 176.9879 L42.6665 -227.5121 L302.6665 222.8212 L-397.948 627.3212 L-657.948 176.9879 Z"/>
      </clipPath>
    </defs>
    <g fill="white" text-rendering="geometricPrecision" shape-rendering="geometricPrecision" transform="translate(-289,-121)" stroke="white">
      <rect x="289" width="809" height="520" y="121" clip-path="url(#clipPath2)" stroke="none"/>
    </g>
    <g fill="url(#linearGradient1)" text-rendering="geometricPrecision" shape-rendering="geometricPrecision" transform="matrix(1,0,0,1,-289,-121)" stroke="url(#linearGradient1)">
      <circle r="20" clip-path="url(#clipPath2)" cx="669.171" cy="344.5078" stroke="none"/>
    </g>
    <g text-rendering="geometricPrecision" stroke-miterlimit="1.45" shape-rendering="geometricPrecision" transform="matrix(1,0,0,1,-289,-121)" stroke-linecap="butt">
      <circle fill="none" r="20" clip-path="url(#clipPath2)" cx="669.171" cy="344.5078"/>
      <text x="655.1964" xml:space="preserve" y="348.6621" clip-path="url(#clipPath2)" font-family="sans-serif" stroke="none">start</text>
    </g>
    <g fill="url(#linearGradient2)" text-rendering="geometricPrecision" shape-rendering="geometricPrecision" transform="matrix(1,0,0,1,-289,-121)" stroke="url(#linearGradient2)">
      <circle r="20" clip-path="url(#clipPath2)" cx="900.5337" cy="344.5078" stroke="none"/>
    </g>
    <g text-rendering="geometricPrecision" stroke-miterlimit="1.45" shape-rendering="geometricPrecision" transform="matrix(1,0,0,1,-289,-121)" stroke-linecap="butt">
      <circle fill="none" r="20" clip-path="url(#clipPath2)" cx="900.5337" cy="344.5078"/>
      <text x="897.0825" xml:space="preserve" y="348.6621" clip-path="url(#clipPath2)" font-family="sans-serif" stroke="none">F</text>
    </g>
    <g fill="url(#linearGradient3)" text-rendering="geometricPrecision" shape-rendering="geometricPrecision" transform="matrix(1,0,0,1,-289,-121)" stroke="url(#linearGradient3)">
      <circle r="20" clip-path="url(#clipPath2)" cx="1000.6788" cy="404.5959" stroke="none"/>
    </g>
    <g text-rendering="geometricPrecision" stroke-miterlimit="1.45" shape-rendering="geometricPrecision" transform="matrix(1,0,0,1,-289,-121)" stroke-linecap="butt">
      <circle fill="none" r="20" clip-path="url(#clipPath2)" cx="1000.6788" cy="404.5959"/>
      <text x="994.441" font-size="10px" y="402.2375" clip-path="url(#clipPath2)" font-family="sans-serif" stroke="none" xml:space="preserve">ab</text>
      <text x="986.3477" font-size="10px" y="413.8781" clip-path="url(#clipPath2)" font-family="sans-serif" stroke="none" xml:space="preserve">found</text>
    </g>
    <g fill="url(#linearGradient4)" text-rendering="geometricPrecision" shape-rendering="geometricPrecision" transform="matrix(1,0,0,1,-289,-121)" stroke="url(#linearGradient4)">
      <circle r="20" clip-path="url(#clipPath2)" cx="1000.6788" cy="274.5078" stroke="none"/>
    </g>
    <g text-rendering="geometricPrecision" stroke-miterlimit="1.45" shape-rendering="geometricPrecision" transform="matrix(1,0,0,1,-289,-121)" stroke-linecap="butt">
      <circle fill="none" r="20" clip-path="url(#clipPath2)" cx="1000.6788" cy="274.5078"/>
      <text x="994.441" font-size="10px" y="272.1494" clip-path="url(#clipPath2)" font-family="sans-serif" stroke="none" xml:space="preserve">ba</text>
      <text x="986.3477" font-size="10px" y="283.79" clip-path="url(#clipPath2)" font-family="sans-serif" stroke="none" xml:space="preserve">found</text>
    </g>
    <g fill="url(#linearGradient5)" text-rendering="geometricPrecision" shape-rendering="geometricPrecision" transform="matrix(1,0,0,1,-289,-121)" stroke="url(#linearGradient5)">
      <circle r="20" clip-path="url(#clipPath2)" cx="669.171" cy="554.4093" stroke="none"/>
    </g>
    <g text-rendering="geometricPrecision" stroke-miterlimit="1.45" shape-rendering="geometricPrecision" transform="matrix(1,0,0,1,-289,-121)" stroke-linecap="butt">
      <circle fill="none" r="20" clip-path="url(#clipPath2)" cx="669.171" cy="554.4093"/>
      <text x="657.8682" xml:space="preserve" y="558.5636" clip-path="url(#clipPath2)" font-family="sans-serif" stroke="none">end</text>
    </g>
    <g fill="url(#linearGradient6)" text-rendering="geometricPrecision" shape-rendering="geometricPrecision" transform="matrix(1,0,0,1,-289,-121)" stroke="url(#linearGradient6)">
      <path d="M304 223 L530 223 L530 263 L304 263 Z" stroke="none" clip-path="url(#clipPath2)"/>
    </g>
    <g text-rendering="geometricPrecision" stroke-miterlimit="1.45" shape-rendering="geometricPrecision" font-family="sans-serif" transform="matrix(1,0,0,1,-289,-121)" stroke-linecap="butt">
      <text x="316.9834" xml:space="preserve" y="240.1699" clip-path="url(#clipPath2)" stroke="none">Characters must be accumulated</text>
      <text x="387.9434" xml:space="preserve" y="254.1387" clip-path="url(#clipPath2)" stroke="none">into a run</text>
    </g>
    <g fill="url(#linearGradient7)" text-rendering="geometricPrecision" shape-rendering="geometricPrecision" transform="matrix(1,0,0,1,-289,-121)" stroke="url(#linearGradient7)">
      <circle r="11" clip-path="url(#clipPath2)" cx="576.671" cy="295.6062" stroke="none"/>
    </g>
    <g fill="url(#linearGradient8)" text-rendering="geometricPrecision" shape-rendering="geometricPrecision" transform="matrix(1,0,0,1,-289,-121)" stroke="url(#linearGradient8)">
      <circle r="11" clip-path="url(#clipPath2)" cx="669.171" cy="413.5959" stroke="none"/>
    </g>
    <g fill="url(#linearGradient9)" text-rendering="geometricPrecision" shape-rendering="geometricPrecision" transform="matrix(1,0,0,1,-289,-121)" stroke="url(#linearGradient9)">
      <path d="M348 443 L569 443 L569 499 L348 499 Z" stroke="none" clip-path="url(#clipPath2)"/>
    </g>
    <g text-rendering="geometricPrecision" stroke-miterlimit="1.45" shape-rendering="geometricPrecision" font-family="sans-serif" transform="matrix(1,0,0,1,-289,-121)" stroke-linecap="butt">
      <text x="377.4414" xml:space="preserve" y="461.1855" clip-path="url(#clipPath2)" stroke="none">Lowest priority alternative </text>
      <text x="363.584" xml:space="preserve" y="475.1543" clip-path="url(#clipPath2)" stroke="none">which consumes no characters;</text>
      <text x="356.7109" xml:space="preserve" y="489.123" clip-path="url(#clipPath2)" stroke="none">meant to be taken at end of input</text>
    </g>
    <g fill="url(#linearGradient10)" text-rendering="geometricPrecision" shape-rendering="geometricPrecision" transform="matrix(1,0,0,1,-289,-121)" stroke="url(#linearGradient10)">
      <path d="M348 556 L569 556 L569 626 L348 626 Z" stroke="none" clip-path="url(#clipPath2)"/>
    </g>
    <g text-rendering="geometricPrecision" stroke-miterlimit="1.45" shape-rendering="geometricPrecision" font-family="sans-serif" transform="matrix(1,0,0,1,-289,-121)" stroke-linecap="butt">
      <text x="354.9209" xml:space="preserve" y="574.2012" clip-path="url(#clipPath2)" stroke="none">The end state can only be entered</text>
      <text x="364.5039" xml:space="preserve" y="588.1699" clip-path="url(#clipPath2)" stroke="none">if there are no characters left if</text>
      <text x="364.7148" xml:space="preserve" y="602.1387" clip-path="url(#clipPath2)" stroke="none">we demand that the leftover of</text>
      <text x="377.1455" xml:space="preserve" y="616.1074" clip-path="url(#clipPath2)" stroke="none">phrase/3 be the empty list.</text>
    </g>
    <g text-rendering="geometricPrecision" stroke-miterlimit="1.45" shape-rendering="geometricPrecision" transform="matrix(1,0,0,1,-289,-121)" stroke-linecap="butt">
      <path fill="none" d="M653.256 356.6384 L648.5159 360.2515 L630.0676 371.7183 L613.7557 379.3115 L599.5096 383.4344 L587.2587 384.4901 L576.9324 382.8819 L568.4601 379.0131 L561.7714 373.2869 L556.7956 366.1066 L553.4622 357.8753 L551.7005 348.9963 L551.4402 339.873 L552.6105 330.9084 L555.1409 322.5059 L558.961 315.0687 L564 309 L574.0491 299.8818 L582.5183 293.8048 L590.6399 291.185 L599.6464 292.4385 L610.7703 297.9814 L625.244 308.2299 L647.581 326.6773" clip-path="url(#clipPath2)"/>
    </g>
    <g text-rendering="geometricPrecision" stroke-miterlimit="1.45" shape-rendering="geometricPrecision" transform="matrix(1,0,0,1,-289,-121)" stroke-linecap="butt">
      <path d="M653.7493 331.7715 L647.6807 320.2749 L646.8099 326.0405 L641.3129 327.9854 Z" stroke="none" clip-path="url(#clipPath2)"/>
      <text x="496.207" xml:space="preserve" y="334.1699" clip-path="url(#clipPath2)" font-family="sans-serif" stroke="none">non-greedily</text>
      <text x="486.3486" xml:space="preserve" y="348.1387" clip-path="url(#clipPath2)" font-family="sans-serif" stroke="none">any 1-character</text>
      <path fill="none" d="M689.1949 344.5078 L872.5401 344.5078" clip-path="url(#clipPath2)"/>
      <path d="M880.5401 344.5078 L868.5401 339.5078 L871.5401 344.5078 L868.5401 349.5078 Z" clip-path="url(#clipPath2)" stroke="none"/>
    </g>
    <g text-rendering="geometricPrecision" stroke-miterlimit="1.45" shape-rendering="geometricPrecision" font-family="sans-serif" transform="matrix(0.866,0.5,-0.5,0.866,480.0504,204.0103)" stroke-linecap="butt">
      <text x="2" xml:space="preserve" y="13.1387" clip-path="url(#clipPath3)" stroke="none">epsilon</text>
    </g>
    <g text-rendering="geometricPrecision" stroke-miterlimit="1.45" shape-rendering="geometricPrecision" transform="matrix(1,0,0,1,-289,-121)" stroke-linecap="butt">
      <path fill="none" d="M917.6728 354.7914 L976.6746 390.1931" clip-path="url(#clipPath2)"/>
      <path d="M983.5345 394.3091 L975.8171 383.8476 L975.8171 389.6786 L970.6721 392.4225 Z" clip-path="url(#clipPath2)" stroke="none"/>
    </g>
    <g text-rendering="geometricPrecision" stroke-miterlimit="1.45" shape-rendering="geometricPrecision" font-family="sans-serif" transform="matrix(0.866,-0.5,0.5,0.866,649.757,251.0283)" stroke-linecap="butt">
      <text x="2" xml:space="preserve" y="13.1387" clip-path="url(#clipPath4)" stroke="none">ab</text>
    </g>
    <g text-rendering="geometricPrecision" stroke-miterlimit="1.45" shape-rendering="geometricPrecision" transform="matrix(1,0,0,1,-289,-121)" stroke-linecap="butt">
      <path fill="none" d="M1020.6982 404.5959 L1049 404.5959 L1053.375 403.9709 L1056.5 402.0959 L1058.375 398.9709 L1059 394.5959 L1059 146 L1058.375 141.625 L1056.5 138.5 L1053.375 136.625 L1049 136 L703.171 136 L698.7245 136.6209 L695.3851 138.4836 L693.1528 141.5881 L692.0275 145.9344 L672.3738 316.6818" clip-path="url(#clipPath2)"/>
      <path d="M671.459 324.6293 L677.7985 313.2797 L672.4882 315.6883 L667.864 312.1362 Z" clip-path="url(#clipPath2)" stroke="none"/>
      <text x="1037.5664" xml:space="preserve" y="334.7502" clip-path="url(#clipPath2)" font-family="sans-serif" stroke="none">epsilon</text>
      <path fill="none" d="M916.9393 333.0405 L977.7255 290.5518" clip-path="url(#clipPath2)"/>
      <path d="M984.2825 285.9685 L971.5825 288.7452 L976.9059 291.1247 L977.3115 296.9415 Z" clip-path="url(#clipPath2)" stroke="none"/>
    </g>
    <g text-rendering="geometricPrecision" stroke-miterlimit="1.45" shape-rendering="geometricPrecision" font-family="sans-serif" transform="matrix(0.866,0.5,-0.5,0.866,658.2937,175.6979)" stroke-linecap="butt">
      <text x="2" xml:space="preserve" y="13.1387" clip-path="url(#clipPath5)" stroke="none">ba</text>
    </g>
    <g text-rendering="geometricPrecision" stroke-miterlimit="1.45" shape-rendering="geometricPrecision" transform="matrix(1,0,0,1,-289,-121)" stroke-linecap="butt">
      <path fill="none" d="M1000.6788 254.4805 L1000.6788 188 L1000.0538 183.625 L998.1788 180.5 L995.0538 178.625 L990.6788 178 L718.171 178 L713.6534 178.6085 L710.1008 180.4341 L707.5132 183.4768 L705.8904 187.7365 L675.5562 317.2466" clip-path="url(#clipPath2)"/>
      <path d="M673.7318 325.0358 L681.3367 314.4923 L675.7842 316.273 L671.6002 312.2117 Z" clip-path="url(#clipPath2)" stroke="none"/>
      <text x="979.2452" xml:space="preserve" y="213.416" clip-path="url(#clipPath2)" font-family="sans-serif" stroke="none">epsilon</text>
      <path fill="none" d="M669.171 364.5191 L669.171 526.4282" clip-path="url(#clipPath2)"/>
      <path d="M669.171 534.4282 L674.171 522.4282 L669.171 525.4282 L664.171 522.4282 Z" clip-path="url(#clipPath2)" stroke="none"/>
      <text x="647.7374" xml:space="preserve" y="453.6129" clip-path="url(#clipPath2)" font-family="sans-serif" stroke="none">epsilon</text>
      <path fill="none" d="M566.1848 292.1514 L477.7156 263.0038" clip-path="url(#clipPath2)"/>
      <path fill="none" d="M561.2381 443.0057 L658.5516 416.4894" clip-path="url(#clipPath2)"/>
      <path fill="none" d="M569.0045 571.8069 L649.4605 557.8328" clip-path="url(#clipPath2)"/>
    </g>
  </g>
</svg>
