<?xml version="1.0" encoding="UTF-8"?><svg xmlns="http://www.w3.org/2000/svg" xmlns:xlink="http://www.w3.org/1999/xlink" fill-opacity="1" color-rendering="auto" color-interpolation="auto" text-rendering="auto" stroke="black" stroke-linecap="square" width="477" stroke-miterlimit="10" shape-rendering="auto" stroke-opacity="1" fill="black" stroke-dasharray="none" font-weight="normal" stroke-width="1" height="361" font-family="'Dialog'" font-style="normal" stroke-linejoin="miter" font-size="12px" stroke-dashoffset="0" image-rendering="auto">
  <!--Generated by ySVG 2.5-->
  <defs id="genericDefs"/>
  <g>
    <defs id="defs1">
      <linearGradient x1="629.171" gradientUnits="userSpaceOnUse" x2="709.171" y1="324.5078" y2="364.5078" id="linearGradient1" spreadMethod="reflect">
        <stop stop-opacity="1" stop-color="lime" offset="0%"/>
        <stop stop-opacity="1" stop-color="lime" offset="100%"/>
      </linearGradient>
      <linearGradient x1="860.5337" gradientUnits="userSpaceOnUse" x2="940.5337" y1="324.5078" y2="364.5078" id="linearGradient2" spreadMethod="reflect">
        <stop stop-opacity="1" stop-color="rgb(232,238,247)" offset="0%"/>
        <stop stop-opacity="1" stop-color="rgb(183,201,227)" offset="100%"/>
      </linearGradient>
      <linearGradient x1="960.6788" gradientUnits="userSpaceOnUse" x2="1040.6787" y1="384.5959" y2="424.5959" id="linearGradient3" spreadMethod="reflect">
        <stop stop-opacity="1" stop-color="rgb(232,238,247)" offset="0%"/>
        <stop stop-opacity="1" stop-color="rgb(183,201,227)" offset="100%"/>
      </linearGradient>
      <linearGradient x1="960.6788" gradientUnits="userSpaceOnUse" x2="1040.6787" y1="254.5078" y2="294.5078" id="linearGradient4" spreadMethod="reflect">
        <stop stop-opacity="1" stop-color="rgb(232,238,247)" offset="0%"/>
        <stop stop-opacity="1" stop-color="rgb(183,201,227)" offset="100%"/>
      </linearGradient>
      <linearGradient x1="629.171" gradientUnits="userSpaceOnUse" x2="709.171" y1="483.4093" y2="523.4093" id="linearGradient5" spreadMethod="reflect">
        <stop stop-opacity="1" stop-color="rgb(255,102,0)" offset="0%"/>
        <stop stop-opacity="1" stop-color="rgb(255,102,0)" offset="100%"/>
      </linearGradient>
      <clipPath clipPathUnits="userSpaceOnUse" id="clipPath1">
        <path d="M0 0 L477 0 L477 361 L0 361 L0 0 Z"/>
      </clipPath>
      <clipPath clipPathUnits="userSpaceOnUse" id="clipPath2">
        <path d="M579 178 L1056 178 L1056 539 L579 539 L579 178 Z"/>
      </clipPath>
      <clipPath clipPathUnits="userSpaceOnUse" id="clipPath3">
        <path d="M-238.0936 -32.2894 L175.0005 -270.7894 L355.5005 41.8458 L-57.5936 280.3458 L-238.0936 -32.2894 Z"/>
      </clipPath>
      <clipPath clipPathUnits="userSpaceOnUse" id="clipPath4">
        <path d="M-214.5445 -347.9119 L198.5496 -109.4119 L18.0496 203.2233 L-395.0445 -35.2767 L-214.5445 -347.9119 Z"/>
      </clipPath>
      <clipPath clipPathUnits="userSpaceOnUse" id="clipPath5">
        <path d="M-378.3006 81.3514 L34.7935 -157.1486 L215.2935 155.4866 L-197.8006 393.9866 L-378.3006 81.3514 Z"/>
      </clipPath>
    </defs>
    <g fill="white" text-rendering="geometricPrecision" shape-rendering="geometricPrecision" transform="translate(-579,-178)" stroke="white">
      <rect x="579" width="477" height="361" y="178" clip-path="url(#clipPath2)" stroke="none"/>
    </g>
    <g fill="url(#linearGradient1)" text-rendering="geometricPrecision" shape-rendering="geometricPrecision" transform="matrix(1,0,0,1,-579,-178)" stroke="url(#linearGradient1)">
      <circle r="20" clip-path="url(#clipPath2)" cx="669.171" cy="344.5078" stroke="none"/>
    </g>
    <g text-rendering="geometricPrecision" stroke-miterlimit="1.45" shape-rendering="geometricPrecision" transform="matrix(1,0,0,1,-579,-178)" stroke-linecap="butt">
      <circle fill="none" r="20" clip-path="url(#clipPath2)" cx="669.171" cy="344.5078"/>
      <text x="655.1964" xml:space="preserve" y="348.6621" clip-path="url(#clipPath2)" font-family="sans-serif" stroke="none">start</text>
    </g>
    <g fill="url(#linearGradient2)" text-rendering="geometricPrecision" shape-rendering="geometricPrecision" transform="matrix(1,0,0,1,-579,-178)" stroke="url(#linearGradient2)">
      <circle r="20" clip-path="url(#clipPath2)" cx="900.5337" cy="344.5078" stroke="none"/>
    </g>
    <g text-rendering="geometricPrecision" stroke-miterlimit="1.45" shape-rendering="geometricPrecision" transform="matrix(1,0,0,1,-579,-178)" stroke-linecap="butt">
      <circle fill="none" r="20" clip-path="url(#clipPath2)" cx="900.5337" cy="344.5078"/>
      <text x="897.0825" xml:space="preserve" y="348.6621" clip-path="url(#clipPath2)" font-family="sans-serif" stroke="none">F</text>
    </g>
    <g fill="url(#linearGradient3)" text-rendering="geometricPrecision" shape-rendering="geometricPrecision" transform="matrix(1,0,0,1,-579,-178)" stroke="url(#linearGradient3)">
      <circle r="20" clip-path="url(#clipPath2)" cx="1000.6788" cy="404.5959" stroke="none"/>
    </g>
    <g text-rendering="geometricPrecision" stroke-miterlimit="1.45" shape-rendering="geometricPrecision" transform="matrix(1,0,0,1,-579,-178)" stroke-linecap="butt">
      <circle fill="none" r="20" clip-path="url(#clipPath2)" cx="1000.6788" cy="404.5959"/>
      <text x="993.1934" xml:space="preserve" y="401.7658" clip-path="url(#clipPath2)" font-family="sans-serif" stroke="none">ab</text>
      <text x="983.4815" xml:space="preserve" y="415.7345" clip-path="url(#clipPath2)" font-family="sans-serif" stroke="none">found</text>
    </g>
    <g fill="url(#linearGradient4)" text-rendering="geometricPrecision" shape-rendering="geometricPrecision" transform="matrix(1,0,0,1,-579,-178)" stroke="url(#linearGradient4)">
      <circle r="20" clip-path="url(#clipPath2)" cx="1000.6788" cy="274.5078" stroke="none"/>
    </g>
    <g text-rendering="geometricPrecision" stroke-miterlimit="1.45" shape-rendering="geometricPrecision" transform="matrix(1,0,0,1,-579,-178)" stroke-linecap="butt">
      <circle fill="none" r="20" clip-path="url(#clipPath2)" cx="1000.6788" cy="274.5078"/>
      <text x="993.1934" xml:space="preserve" y="271.6777" clip-path="url(#clipPath2)" font-family="sans-serif" stroke="none">ba</text>
      <text x="983.4815" xml:space="preserve" y="285.6465" clip-path="url(#clipPath2)" font-family="sans-serif" stroke="none">found</text>
    </g>
    <g fill="url(#linearGradient5)" text-rendering="geometricPrecision" shape-rendering="geometricPrecision" transform="matrix(1,0,0,1,-579,-178)" stroke="url(#linearGradient5)">
      <circle r="20" clip-path="url(#clipPath2)" cx="669.171" cy="503.4093" stroke="none"/>
    </g>
    <g text-rendering="geometricPrecision" stroke-miterlimit="1.45" shape-rendering="geometricPrecision" transform="matrix(1,0,0,1,-579,-178)" stroke-linecap="butt">
      <circle fill="none" r="20" clip-path="url(#clipPath2)" cx="669.171" cy="503.4093"/>
      <text x="657.8682" xml:space="preserve" y="507.5636" clip-path="url(#clipPath2)" font-family="sans-serif" stroke="none">end</text>
    </g>
    <g text-rendering="geometricPrecision" stroke-miterlimit="1.45" shape-rendering="geometricPrecision" transform="matrix(1,0,0,1,-579,-178)" stroke-linecap="butt">
      <path fill="none" d="M677.7496 326.424 L680.8441 316.3946 L682.0259 304.1184 L680.6103 293.0883 L676.9767 283.3488 L671.5045 274.944 L664.5731 267.9185 L656.5618 262.3167 L647.8501 258.1829 L638.8172 255.5614 L629.8426 254.4967 L621.3057 255.0331 L613.5857 257.2151 L607.0622 261.0869 L602.1144 266.693 L599.1218 274.0777 L595.9535 288.7208 L594.5505 300.0448 L595.7335 308.875 L600.3235 316.0369 L609.1414 322.3558 L623.0079 328.657 L642.7156 335.4239" clip-path="url(#clipPath2)"/>
    </g>
    <g text-rendering="geometricPrecision" stroke-miterlimit="1.45" shape-rendering="geometricPrecision" transform="matrix(1,0,0,1,-579,-178)" stroke-linecap="butt">
      <path d="M650.282 338.0219 L640.5562 329.3959 L641.7698 335.0992 L637.3087 338.8539 Z" stroke="none" clip-path="url(#clipPath2)"/>
      <text x="643.6599" xml:space="preserve" y="277.9615" clip-path="url(#clipPath2)" font-family="sans-serif" stroke="none">minimally</text>
      <text x="646.5837" xml:space="preserve" y="291.9302" clip-path="url(#clipPath2)" font-family="sans-serif" stroke="none">anything</text>
      <path fill="none" d="M689.1949 344.5078 L872.5401 344.5078" clip-path="url(#clipPath2)"/>
      <path d="M880.5401 344.5078 L868.5401 339.5078 L871.5401 344.5078 L868.5401 349.5078 Z" clip-path="url(#clipPath2)" stroke="none"/>
    </g>
    <g text-rendering="geometricPrecision" stroke-miterlimit="1.45" shape-rendering="geometricPrecision" font-family="sans-serif" transform="matrix(0.866,0.5,-0.5,0.866,190.0504,147.0103)" stroke-linecap="butt">
      <text x="2" xml:space="preserve" y="13.1387" clip-path="url(#clipPath3)" stroke="none">epsilon</text>
    </g>
    <g text-rendering="geometricPrecision" stroke-miterlimit="1.45" shape-rendering="geometricPrecision" transform="matrix(1,0,0,1,-579,-178)" stroke-linecap="butt">
      <path fill="none" d="M917.6728 354.7914 L976.6746 390.1931" clip-path="url(#clipPath2)"/>
      <path d="M983.5345 394.3091 L975.8171 383.8476 L975.8171 389.6786 L970.6721 392.4225 Z" clip-path="url(#clipPath2)" stroke="none"/>
    </g>
    <g text-rendering="geometricPrecision" stroke-miterlimit="1.45" shape-rendering="geometricPrecision" font-family="sans-serif" transform="matrix(0.866,-0.5,0.5,0.866,359.757,194.0283)" stroke-linecap="butt">
      <text x="2" xml:space="preserve" y="13.1387" clip-path="url(#clipPath4)" stroke="none">ab</text>
    </g>
    <g text-rendering="geometricPrecision" stroke-miterlimit="1.45" shape-rendering="geometricPrecision" transform="matrix(1,0,0,1,-579,-178)" stroke-linecap="butt">
      <path fill="none" d="M1011.6417 421.3207 L1012.9494 425.396 L1013.1054 431.2534 L1011.4676 436.5604 L1008.14 441.3096 L1003.2265 445.4934 L996.8312 449.1044 L980.0112 454.578 L958.5117 457.6708 L933.1647 458.3229 L904.8021 456.4747 L874.2559 452.0665 L842.3579 445.0383 L809.9401 435.3307 L777.8344 422.8837 L746.8727 407.6376 L717.887 389.5328 L691.709 368.5094 L688.1793 365.025" clip-path="url(#clipPath2)"/>
      <path d="M682.486 359.4048 L687.5134 371.3934 L688.891 365.7275 L694.5386 364.2768 Z" clip-path="url(#clipPath2)" stroke="none"/>
      <text x="904.0212" xml:space="preserve" y="487.88" clip-path="url(#clipPath2)" font-family="sans-serif" stroke="none">epsilon</text>
      <path fill="none" d="M916.9393 333.0405 L977.7255 290.5518" clip-path="url(#clipPath2)"/>
      <path d="M984.2825 285.9685 L971.5825 288.7452 L976.9059 291.1247 L977.3115 296.9415 Z" clip-path="url(#clipPath2)" stroke="none"/>
    </g>
    <g text-rendering="geometricPrecision" stroke-miterlimit="1.45" shape-rendering="geometricPrecision" font-family="sans-serif" transform="matrix(0.866,0.5,-0.5,0.866,368.2937,118.6979)" stroke-linecap="butt">
      <text x="2" xml:space="preserve" y="13.1387" clip-path="url(#clipPath5)" stroke="none">ba</text>
    </g>
    <g text-rendering="geometricPrecision" stroke-miterlimit="1.45" shape-rendering="geometricPrecision" transform="matrix(1,0,0,1,-579,-178)" stroke-linecap="butt">
      <path fill="none" d="M1000.7381 254.4956 L1000.5168 253.4802 L997.8902 247.8046 L994.08 242.7899 L989.1479 238.4328 L976.1649 231.677 L959.4343 227.5094 L939.4497 225.902 L916.7043 226.827 L891.6917 230.2565 L864.9051 236.1626 L836.8379 244.5174 L807.9835 255.293 L778.8351 268.4616 L749.8864 283.9953 L721.6306 301.8661 L694.5609 322.0462 L690.1637 325.9363" clip-path="url(#clipPath2)"/>
      <path d="M684.1719 331.237 L696.4726 327.0308 L690.9127 325.2737 L689.8466 319.541 Z" clip-path="url(#clipPath2)" stroke="none"/>
      <text x="895.8243" xml:space="preserve" y="207.1085" clip-path="url(#clipPath2)" font-family="sans-serif" stroke="none">epsilon</text>
      <path fill="none" d="M669.171 364.4868 L669.171 475.4324" clip-path="url(#clipPath2)"/>
      <path d="M669.171 483.4324 L674.171 471.4324 L669.171 474.4324 L664.171 471.4324 Z" clip-path="url(#clipPath2)" stroke="none"/>
      <text x="647.7374" xml:space="preserve" y="428.1129" clip-path="url(#clipPath2)" font-family="sans-serif" stroke="none">epsilon</text>
    </g>
  </g>
</svg>
