<?xml version="1.0" encoding="UTF-8"?><svg xmlns="http://www.w3.org/2000/svg" xmlns:xlink="http://www.w3.org/1999/xlink" fill-opacity="1" color-rendering="auto" color-interpolation="auto" text-rendering="auto" stroke="black" stroke-linecap="square" width="343" stroke-miterlimit="10" shape-rendering="auto" stroke-opacity="1" fill="black" stroke-dasharray="none" font-weight="normal" stroke-width="1" height="340" font-family="'Dialog'" font-style="normal" stroke-linejoin="miter" font-size="12px" stroke-dashoffset="0" image-rendering="auto">
  <!--Generated by ySVG 2.5-->
  <defs id="genericDefs"/>
  <g>
    <defs id="defs1">
      <linearGradient x1="629.171" gradientUnits="userSpaceOnUse" x2="709.171" y1="324.5078" y2="364.5078" id="linearGradient1" spreadMethod="reflect">
        <stop stop-opacity="1" stop-color="lime" offset="0%"/>
        <stop stop-opacity="1" stop-color="lime" offset="100%"/>
      </linearGradient>
      <linearGradient x1="826.6788" gradientUnits="userSpaceOnUse" x2="906.6788" y1="378.5959" y2="418.5959" id="linearGradient2" spreadMethod="reflect">
        <stop stop-opacity="1" stop-color="rgb(232,238,247)" offset="0%"/>
        <stop stop-opacity="1" stop-color="rgb(183,201,227)" offset="100%"/>
      </linearGradient>
      <linearGradient x1="826.6788" gradientUnits="userSpaceOnUse" x2="906.6788" y1="276.5078" y2="316.5078" id="linearGradient3" spreadMethod="reflect">
        <stop stop-opacity="1" stop-color="rgb(232,238,247)" offset="0%"/>
        <stop stop-opacity="1" stop-color="rgb(183,201,227)" offset="100%"/>
      </linearGradient>
      <linearGradient x1="629.171" gradientUnits="userSpaceOnUse" x2="709.171" y1="483.4093" y2="523.4093" id="linearGradient4" spreadMethod="reflect">
        <stop stop-opacity="1" stop-color="rgb(255,102,0)" offset="0%"/>
        <stop stop-opacity="1" stop-color="rgb(255,102,0)" offset="100%"/>
      </linearGradient>
      <clipPath clipPathUnits="userSpaceOnUse" id="clipPath1">
        <path d="M0 0 L343 0 L343 340 L0 340 L0 0 Z"/>
      </clipPath>
      <clipPath clipPathUnits="userSpaceOnUse" id="clipPath2">
        <path d="M579 199 L922 199 L922 539 L579 539 L579 199 Z"/>
      </clipPath>
      <clipPath clipPathUnits="userSpaceOnUse" id="clipPath3">
        <path d="M-97.7799 -265.1708 L199.2668 -93.6708 L29.2668 200.7779 L-267.7799 29.2779 L-97.7799 -265.1708 Z"/>
      </clipPath>
      <clipPath clipPathUnits="userSpaceOnUse" id="clipPath4">
        <path d="M-246.2311 26.0145 L50.8156 -145.4855 L220.8156 148.9631 L-76.2311 320.4631 L-246.2311 26.0145 Z"/>
      </clipPath>
    </defs>
    <g fill="white" text-rendering="geometricPrecision" shape-rendering="geometricPrecision" transform="translate(-579,-199)" stroke="white">
      <rect x="579" width="343" height="340" y="199" clip-path="url(#clipPath2)" stroke="none"/>
    </g>
    <g fill="url(#linearGradient1)" text-rendering="geometricPrecision" shape-rendering="geometricPrecision" transform="matrix(1,0,0,1,-579,-199)" stroke="url(#linearGradient1)">
      <circle r="20" clip-path="url(#clipPath2)" cx="669.171" cy="344.5078" stroke="none"/>
    </g>
    <g text-rendering="geometricPrecision" stroke-miterlimit="1.45" shape-rendering="geometricPrecision" transform="matrix(1,0,0,1,-579,-199)" stroke-linecap="butt">
      <circle fill="none" r="20" clip-path="url(#clipPath2)" cx="669.171" cy="344.5078"/>
      <text x="655.1964" xml:space="preserve" y="348.6621" clip-path="url(#clipPath2)" font-family="sans-serif" stroke="none">start</text>
    </g>
    <g fill="url(#linearGradient2)" text-rendering="geometricPrecision" shape-rendering="geometricPrecision" transform="matrix(1,0,0,1,-579,-199)" stroke="url(#linearGradient2)">
      <circle r="20" clip-path="url(#clipPath2)" cx="866.6788" cy="398.5959" stroke="none"/>
    </g>
    <g text-rendering="geometricPrecision" stroke-miterlimit="1.45" shape-rendering="geometricPrecision" transform="matrix(1,0,0,1,-579,-199)" stroke-linecap="butt">
      <circle fill="none" r="20" clip-path="url(#clipPath2)" cx="866.6788" cy="398.5959"/>
      <text x="859.1934" xml:space="preserve" y="395.7658" clip-path="url(#clipPath2)" font-family="sans-serif" stroke="none">ab</text>
      <text x="849.4815" xml:space="preserve" y="409.7345" clip-path="url(#clipPath2)" font-family="sans-serif" stroke="none">found</text>
    </g>
    <g fill="url(#linearGradient3)" text-rendering="geometricPrecision" shape-rendering="geometricPrecision" transform="matrix(1,0,0,1,-579,-199)" stroke="url(#linearGradient3)">
      <circle r="20" clip-path="url(#clipPath2)" cx="866.6788" cy="296.5078" stroke="none"/>
    </g>
    <g text-rendering="geometricPrecision" stroke-miterlimit="1.45" shape-rendering="geometricPrecision" transform="matrix(1,0,0,1,-579,-199)" stroke-linecap="butt">
      <circle fill="none" r="20" clip-path="url(#clipPath2)" cx="866.6788" cy="296.5078"/>
      <text x="859.1934" xml:space="preserve" y="293.6777" clip-path="url(#clipPath2)" font-family="sans-serif" stroke="none">ba</text>
      <text x="849.4815" xml:space="preserve" y="307.6465" clip-path="url(#clipPath2)" font-family="sans-serif" stroke="none">found</text>
    </g>
    <g fill="url(#linearGradient4)" text-rendering="geometricPrecision" shape-rendering="geometricPrecision" transform="matrix(1,0,0,1,-579,-199)" stroke="url(#linearGradient4)">
      <circle r="20" clip-path="url(#clipPath2)" cx="669.171" cy="503.4093" stroke="none"/>
    </g>
    <g text-rendering="geometricPrecision" stroke-miterlimit="1.45" shape-rendering="geometricPrecision" transform="matrix(1,0,0,1,-579,-199)" stroke-linecap="butt">
      <circle fill="none" r="20" clip-path="url(#clipPath2)" cx="669.171" cy="503.4093"/>
      <text x="657.8682" xml:space="preserve" y="507.5636" clip-path="url(#clipPath2)" font-family="sans-serif" stroke="none">end</text>
    </g>
    <g text-rendering="geometricPrecision" stroke-miterlimit="1.45" shape-rendering="geometricPrecision" transform="matrix(1,0,0,1,-579,-199)" stroke-linecap="butt">
      <path fill="none" d="M677.7496 326.424 L680.8441 316.3946 L682.0259 304.1184 L680.6103 293.0883 L676.9767 283.3488 L671.5045 274.944 L664.5731 267.9185 L656.5618 262.3167 L647.8501 258.1829 L638.8172 255.5614 L629.8426 254.4967 L621.3057 255.0331 L613.5857 257.2151 L607.0622 261.0869 L602.1144 266.693 L599.1218 274.0777 L595.9535 288.7208 L594.5505 300.0448 L595.7335 308.875 L600.3235 316.0369 L609.1414 322.3558 L623.0079 328.657 L642.7156 335.4239" clip-path="url(#clipPath2)"/>
    </g>
    <g text-rendering="geometricPrecision" stroke-miterlimit="1.45" shape-rendering="geometricPrecision" transform="matrix(1,0,0,1,-579,-199)" stroke-linecap="butt">
      <path d="M650.282 338.0219 L640.5562 329.3959 L641.7698 335.0992 L637.3087 338.8539 Z" stroke="none" clip-path="url(#clipPath2)"/>
      <text x="643.6599" xml:space="preserve" y="277.9615" clip-path="url(#clipPath2)" font-family="sans-serif" stroke="none">minimally</text>
      <text x="646.5837" xml:space="preserve" y="291.9302" clip-path="url(#clipPath2)" font-family="sans-serif" stroke="none">anything</text>
      <path fill="none" d="M688.5071 349.803 L839.6928 391.2057" clip-path="url(#clipPath2)"/>
      <path d="M847.4087 393.3187 L837.1555 385.3268 L838.7283 390.9416 L834.5142 394.9716 Z" clip-path="url(#clipPath2)" stroke="none"/>
    </g>
    <g text-rendering="geometricPrecision" stroke-miterlimit="1.45" shape-rendering="geometricPrecision" font-family="sans-serif" transform="matrix(0.866,-0.5,0.5,0.866,217.2653,180.7547)" stroke-linecap="butt">
      <text x="2" xml:space="preserve" y="13.1387" clip-path="url(#clipPath3)" stroke="none">ab</text>
    </g>
    <g text-rendering="geometricPrecision" stroke-miterlimit="1.45" shape-rendering="geometricPrecision" transform="matrix(1,0,0,1,-579,-199)" stroke-linecap="butt">
      <path fill="none" d="M849.9856 409.6317 L837.2574 418.0464 L813.8173 433.0731 L803.617 438.4486 L794.0441 442.1434 L784.8092 443.966 L775.623 443.7247 L766.1964 441.2281 L756.2398 436.2844 L745.4641 428.7022 L733.5798 418.2899 L705.3283 388.2086 L687.0353 366.0991" clip-path="url(#clipPath2)"/>
      <path d="M681.9355 359.9354 L685.7328 372.3684 L687.6728 366.8696 L693.4376 365.9937 Z" clip-path="url(#clipPath2)" stroke="none"/>
      <text x="756.7556" xml:space="preserve" y="472.1618" clip-path="url(#clipPath2)" font-family="sans-serif" stroke="none">epsilon</text>
      <path fill="none" d="M689.1851 344.4961 L839.6727 303.8093" clip-path="url(#clipPath2)"/>
      <path d="M847.3954 301.7213 L834.5063 300.0266 L838.7073 304.0703 L837.1163 309.68 Z" clip-path="url(#clipPath2)" stroke="none"/>
    </g>
    <g text-rendering="geometricPrecision" stroke-miterlimit="1.45" shape-rendering="geometricPrecision" font-family="sans-serif" transform="matrix(0.866,0.5,-0.5,0.866,226.2496,100.5863)" stroke-linecap="butt">
      <text x="2" xml:space="preserve" y="13.1387" clip-path="url(#clipPath4)" stroke="none">ba</text>
    </g>
    <g text-rendering="geometricPrecision" stroke-miterlimit="1.45" shape-rendering="geometricPrecision" transform="matrix(1,0,0,1,-579,-199)" stroke-linecap="butt">
      <path fill="none" d="M849.867 285.6783 L830.8882 273.453 L806.1492 256.9895 L796.6929 251.4967 L788.522 247.9723 L781.144 246.5233 L774.0667 247.2565 L766.7974 250.2788 L758.8438 255.6971 L738.9133 274.1491 L710.3356 303.4677 L689.0068 324.7319" clip-path="url(#clipPath2)"/>
      <path d="M683.3414 330.3802 L695.3698 325.4487 L689.715 324.0259 L688.3094 318.3669 Z" clip-path="url(#clipPath2)" stroke="none"/>
      <text x="753.3017" xml:space="preserve" y="227.2419" clip-path="url(#clipPath2)" font-family="sans-serif" stroke="none">epsilon</text>
      <path fill="none" d="M669.171 364.4868 L669.171 475.4324" clip-path="url(#clipPath2)"/>
      <path d="M669.171 483.4324 L674.171 471.4324 L669.171 474.4324 L664.171 471.4324 Z" clip-path="url(#clipPath2)" stroke="none"/>
      <text x="647.7374" xml:space="preserve" y="428.1129" clip-path="url(#clipPath2)" font-family="sans-serif" stroke="none">epsilon</text>
    </g>
  </g>
</svg>
