<?xml version="1.0" encoding="UTF-8"?><svg xmlns="http://www.w3.org/2000/svg" xmlns:xlink="http://www.w3.org/1999/xlink" fill-opacity="1" color-rendering="auto" color-interpolation="auto" text-rendering="auto" stroke="black" stroke-linecap="square" width="1391" stroke-miterlimit="10" shape-rendering="auto" stroke-opacity="1" fill="black" stroke-dasharray="none" font-weight="normal" stroke-width="1" height="474" font-family="'Dialog'" font-style="normal" stroke-linejoin="miter" font-size="12px" stroke-dashoffset="0" image-rendering="auto">
  <!--Generated by ySVG 2.5-->
  <defs id="genericDefs"/>
  <g>
    <defs id="defs1">
      <linearGradient x1="631" gradientUnits="userSpaceOnUse" x2="711" y1="452" y2="492" id="linearGradient1" spreadMethod="reflect">
        <stop stop-opacity="1" stop-color="rgb(255,255,153)" offset="0%"/>
        <stop stop-opacity="1" stop-color="rgb(255,255,153)" offset="100%"/>
      </linearGradient>
      <linearGradient x1="697" gradientUnits="userSpaceOnUse" x2="777" y1="529" y2="569" id="linearGradient2" spreadMethod="reflect">
        <stop stop-opacity="1" stop-color="rgb(255,255,153)" offset="0%"/>
        <stop stop-opacity="1" stop-color="rgb(255,255,153)" offset="100%"/>
      </linearGradient>
      <linearGradient x1="763" gradientUnits="userSpaceOnUse" x2="843" y1="606" y2="646" id="linearGradient3" spreadMethod="reflect">
        <stop stop-opacity="1" stop-color="rgb(255,255,153)" offset="0%"/>
        <stop stop-opacity="1" stop-color="rgb(255,255,153)" offset="100%"/>
      </linearGradient>
      <linearGradient x1="824" gradientUnits="userSpaceOnUse" x2="904" y1="685.5" y2="725.5" id="linearGradient4" spreadMethod="reflect">
        <stop stop-opacity="1" stop-color="rgb(255,255,153)" offset="0%"/>
        <stop stop-opacity="1" stop-color="rgb(255,255,153)" offset="100%"/>
      </linearGradient>
      <linearGradient x1="558" gradientUnits="userSpaceOnUse" x2="638" y1="531" y2="571" id="linearGradient5" spreadMethod="reflect">
        <stop stop-opacity="1" stop-color="rgb(153,204,255)" offset="0%"/>
        <stop stop-opacity="1" stop-color="rgb(153,204,255)" offset="100%"/>
      </linearGradient>
      <linearGradient x1="627.5" gradientUnits="userSpaceOnUse" x2="707.5" y1="606" y2="646" id="linearGradient6" spreadMethod="reflect">
        <stop stop-opacity="1" stop-color="rgb(153,204,255)" offset="0%"/>
        <stop stop-opacity="1" stop-color="rgb(153,204,255)" offset="100%"/>
      </linearGradient>
      <linearGradient x1="697" gradientUnits="userSpaceOnUse" x2="777" y1="685.5" y2="725.5" id="linearGradient7" spreadMethod="reflect">
        <stop stop-opacity="1" stop-color="rgb(153,204,255)" offset="0%"/>
        <stop stop-opacity="1" stop-color="rgb(153,204,255)" offset="100%"/>
      </linearGradient>
      <linearGradient x1="763" gradientUnits="userSpaceOnUse" x2="843" y1="765" y2="805" id="linearGradient8" spreadMethod="reflect">
        <stop stop-opacity="1" stop-color="rgb(153,204,255)" offset="0%"/>
        <stop stop-opacity="1" stop-color="rgb(153,204,255)" offset="100%"/>
      </linearGradient>
      <linearGradient x1="421" gradientUnits="userSpaceOnUse" x2="501" y1="461" y2="501" id="linearGradient9" spreadMethod="reflect">
        <stop stop-opacity="1" stop-color="silver" offset="0%"/>
        <stop stop-opacity="1" stop-color="silver" offset="100%"/>
      </linearGradient>
      <linearGradient x1="421" gradientUnits="userSpaceOnUse" x2="501" y1="370" y2="410" id="linearGradient10" spreadMethod="reflect">
        <stop stop-opacity="1" stop-color="rgb(255,153,0)" offset="0%"/>
        <stop stop-opacity="1" stop-color="rgb(255,153,0)" offset="100%"/>
      </linearGradient>
      <linearGradient x1="977" gradientUnits="userSpaceOnUse" x2="1057" y1="708" y2="748" id="linearGradient11" spreadMethod="reflect">
        <stop stop-opacity="1" stop-color="rgb(255,153,0)" offset="0%"/>
        <stop stop-opacity="1" stop-color="rgb(255,153,0)" offset="100%"/>
      </linearGradient>
      <linearGradient x1="1137" gradientUnits="userSpaceOnUse" x2="1217" y1="443" y2="483" id="linearGradient12" spreadMethod="reflect">
        <stop stop-opacity="1" stop-color="rgb(255,255,153)" offset="0%"/>
        <stop stop-opacity="1" stop-color="rgb(255,255,153)" offset="100%"/>
      </linearGradient>
      <linearGradient x1="1203" gradientUnits="userSpaceOnUse" x2="1283" y1="520" y2="560" id="linearGradient13" spreadMethod="reflect">
        <stop stop-opacity="1" stop-color="rgb(255,255,153)" offset="0%"/>
        <stop stop-opacity="1" stop-color="rgb(255,255,153)" offset="100%"/>
      </linearGradient>
      <linearGradient x1="1269" gradientUnits="userSpaceOnUse" x2="1349" y1="597" y2="637" id="linearGradient14" spreadMethod="reflect">
        <stop stop-opacity="1" stop-color="rgb(255,255,153)" offset="0%"/>
        <stop stop-opacity="1" stop-color="rgb(255,255,153)" offset="100%"/>
      </linearGradient>
      <linearGradient x1="1330" gradientUnits="userSpaceOnUse" x2="1410" y1="676.5" y2="716.5" id="linearGradient15" spreadMethod="reflect">
        <stop stop-opacity="1" stop-color="rgb(255,255,153)" offset="0%"/>
        <stop stop-opacity="1" stop-color="rgb(255,255,153)" offset="100%"/>
      </linearGradient>
      <linearGradient x1="1064" gradientUnits="userSpaceOnUse" x2="1144" y1="522" y2="562" id="linearGradient16" spreadMethod="reflect">
        <stop stop-opacity="1" stop-color="rgb(153,204,255)" offset="0%"/>
        <stop stop-opacity="1" stop-color="rgb(153,204,255)" offset="100%"/>
      </linearGradient>
      <linearGradient x1="1133.5" gradientUnits="userSpaceOnUse" x2="1213.5" y1="597" y2="637" id="linearGradient17" spreadMethod="reflect">
        <stop stop-opacity="1" stop-color="rgb(153,204,255)" offset="0%"/>
        <stop stop-opacity="1" stop-color="rgb(153,204,255)" offset="100%"/>
      </linearGradient>
      <linearGradient x1="1203" gradientUnits="userSpaceOnUse" x2="1283" y1="676.5" y2="716.5" id="linearGradient18" spreadMethod="reflect">
        <stop stop-opacity="1" stop-color="rgb(153,204,255)" offset="0%"/>
        <stop stop-opacity="1" stop-color="rgb(153,204,255)" offset="100%"/>
      </linearGradient>
      <linearGradient x1="1269" gradientUnits="userSpaceOnUse" x2="1349" y1="756" y2="796" id="linearGradient19" spreadMethod="reflect">
        <stop stop-opacity="1" stop-color="rgb(153,204,255)" offset="0%"/>
        <stop stop-opacity="1" stop-color="rgb(153,204,255)" offset="100%"/>
      </linearGradient>
      <linearGradient x1="927" gradientUnits="userSpaceOnUse" x2="1007" y1="452" y2="492" id="linearGradient20" spreadMethod="reflect">
        <stop stop-opacity="1" stop-color="silver" offset="0%"/>
        <stop stop-opacity="1" stop-color="silver" offset="100%"/>
      </linearGradient>
      <linearGradient x1="927" gradientUnits="userSpaceOnUse" x2="1007" y1="361" y2="401" id="linearGradient21" spreadMethod="reflect">
        <stop stop-opacity="1" stop-color="silver" offset="0%"/>
        <stop stop-opacity="1" stop-color="silver" offset="100%"/>
      </linearGradient>
      <linearGradient x1="1398" gradientUnits="userSpaceOnUse" x2="1478" y1="756" y2="796" id="linearGradient22" spreadMethod="reflect">
        <stop stop-opacity="1" stop-color="rgb(153,204,255)" offset="0%"/>
        <stop stop-opacity="1" stop-color="rgb(153,204,255)" offset="100%"/>
      </linearGradient>
      <linearGradient x1="117" gradientUnits="userSpaceOnUse" x2="197" y1="370" y2="410" id="linearGradient23" spreadMethod="reflect">
        <stop stop-opacity="1" stop-color="rgb(255,153,0)" offset="0%"/>
        <stop stop-opacity="1" stop-color="rgb(255,153,0)" offset="100%"/>
      </linearGradient>
      <linearGradient x1="239" gradientUnits="userSpaceOnUse" x2="319" y1="370" y2="410" id="linearGradient24" spreadMethod="reflect">
        <stop stop-opacity="1" stop-color="rgb(255,153,0)" offset="0%"/>
        <stop stop-opacity="1" stop-color="rgb(255,153,0)" offset="100%"/>
      </linearGradient>
      <clipPath clipPathUnits="userSpaceOnUse" id="clipPath1">
        <path d="M0 0 L1391 0 L1391 474 L0 474 L0 0 Z"/>
      </clipPath>
      <clipPath clipPathUnits="userSpaceOnUse" id="clipPath2">
        <path d="M102 346 L1493 346 L1493 820 L102 820 L102 346 Z"/>
      </clipPath>
    </defs>
    <g fill="white" text-rendering="geometricPrecision" shape-rendering="geometricPrecision" transform="translate(-102,-346)" stroke="white">
      <rect x="102" width="1391" height="474" y="346" clip-path="url(#clipPath2)" stroke="none"/>
    </g>
    <g fill="url(#linearGradient1)" text-rendering="geometricPrecision" shape-rendering="geometricPrecision" transform="matrix(1,0,0,1,-102,-346)" stroke="url(#linearGradient1)">
      <path d="M631 452 L711 452 L711 492 L631 492 Z" stroke="none" clip-path="url(#clipPath2)"/>
    </g>
    <g text-rendering="geometricPrecision" stroke-miterlimit="1.45" shape-rendering="geometricPrecision" transform="matrix(1,0,0,1,-102,-346)" stroke-linecap="butt">
      <path fill="none" d="M631 452 L711 452 L711 492 L631 492 Z" clip-path="url(#clipPath2)"/>
      <text x="664.2969" xml:space="preserve" y="476.1543" clip-path="url(#clipPath2)" font-family="sans-serif" stroke="none">[|]</text>
    </g>
    <g fill="url(#linearGradient2)" text-rendering="geometricPrecision" shape-rendering="geometricPrecision" transform="matrix(1,0,0,1,-102,-346)" stroke="url(#linearGradient2)">
      <path d="M697 529 L777 529 L777 569 L697 569 Z" stroke="none" clip-path="url(#clipPath2)"/>
    </g>
    <g text-rendering="geometricPrecision" stroke-miterlimit="1.45" shape-rendering="geometricPrecision" transform="matrix(1,0,0,1,-102,-346)" stroke-linecap="butt">
      <path fill="none" d="M697 529 L777 529 L777 569 L697 569 Z" clip-path="url(#clipPath2)"/>
      <text x="730.2969" xml:space="preserve" y="553.1543" clip-path="url(#clipPath2)" font-family="sans-serif" stroke="none">[|]</text>
    </g>
    <g fill="url(#linearGradient3)" text-rendering="geometricPrecision" shape-rendering="geometricPrecision" transform="matrix(1,0,0,1,-102,-346)" stroke="url(#linearGradient3)">
      <path d="M763 606 L843 606 L843 646 L763 646 Z" stroke="none" clip-path="url(#clipPath2)"/>
    </g>
    <g text-rendering="geometricPrecision" stroke-miterlimit="1.45" shape-rendering="geometricPrecision" transform="matrix(1,0,0,1,-102,-346)" stroke-linecap="butt">
      <path fill="none" d="M763 606 L843 606 L843 646 L763 646 Z" clip-path="url(#clipPath2)"/>
      <text x="796.2969" xml:space="preserve" y="630.1543" clip-path="url(#clipPath2)" font-family="sans-serif" stroke="none">[|]</text>
    </g>
    <g fill="url(#linearGradient4)" text-rendering="geometricPrecision" shape-rendering="geometricPrecision" transform="matrix(1,0,0,1,-102,-346)" stroke="url(#linearGradient4)">
      <path d="M824 685.5 L904 685.5 L904 725.5 L824 725.5 Z" stroke="none" clip-path="url(#clipPath2)"/>
    </g>
    <g text-rendering="geometricPrecision" stroke-miterlimit="1.45" shape-rendering="geometricPrecision" transform="matrix(1,0,0,1,-102,-346)" stroke-linecap="butt">
      <path fill="none" d="M824 685.5 L904 685.5 L904 725.5 L824 725.5 Z" clip-path="url(#clipPath2)"/>
      <text x="857.2969" xml:space="preserve" y="709.6543" clip-path="url(#clipPath2)" font-family="sans-serif" stroke="none">[|]</text>
    </g>
    <g fill="url(#linearGradient5)" text-rendering="geometricPrecision" shape-rendering="geometricPrecision" transform="matrix(1,0,0,1,-102,-346)" stroke="url(#linearGradient5)">
      <path d="M558 531 L638 531 L638 571 L558 571 Z" stroke="none" clip-path="url(#clipPath2)"/>
    </g>
    <g text-rendering="geometricPrecision" stroke-miterlimit="1.45" shape-rendering="geometricPrecision" transform="matrix(1,0,0,1,-102,-346)" stroke-linecap="butt">
      <path fill="none" d="M558 531 L638 531 L638 571 L558 571 Z" clip-path="url(#clipPath2)"/>
      <text x="594.3232" xml:space="preserve" y="555.1543" clip-path="url(#clipPath2)" font-family="sans-serif" stroke="none">a</text>
    </g>
    <g fill="url(#linearGradient6)" text-rendering="geometricPrecision" shape-rendering="geometricPrecision" transform="matrix(1,0,0,1,-102,-346)" stroke="url(#linearGradient6)">
      <path d="M627.5 606 L707.5 606 L707.5 646 L627.5 646 Z" stroke="none" clip-path="url(#clipPath2)"/>
    </g>
    <g text-rendering="geometricPrecision" stroke-miterlimit="1.45" shape-rendering="geometricPrecision" transform="matrix(1,0,0,1,-102,-346)" stroke-linecap="butt">
      <path fill="none" d="M627.5 606 L707.5 606 L707.5 646 L627.5 646 Z" clip-path="url(#clipPath2)"/>
      <text x="663.6914" xml:space="preserve" y="630.1543" clip-path="url(#clipPath2)" font-family="sans-serif" stroke="none">b</text>
    </g>
    <g fill="url(#linearGradient7)" text-rendering="geometricPrecision" shape-rendering="geometricPrecision" transform="matrix(1,0,0,1,-102,-346)" stroke="url(#linearGradient7)">
      <path d="M697 685.5 L777 685.5 L777 725.5 L697 725.5 Z" stroke="none" clip-path="url(#clipPath2)"/>
    </g>
    <g text-rendering="geometricPrecision" stroke-miterlimit="1.45" shape-rendering="geometricPrecision" transform="matrix(1,0,0,1,-102,-346)" stroke-linecap="butt">
      <path fill="none" d="M697 685.5 L777 685.5 L777 725.5 L697 725.5 Z" clip-path="url(#clipPath2)"/>
      <text x="733.7012" xml:space="preserve" y="709.6543" clip-path="url(#clipPath2)" font-family="sans-serif" stroke="none">c</text>
    </g>
    <g fill="url(#linearGradient8)" text-rendering="geometricPrecision" shape-rendering="geometricPrecision" transform="matrix(1,0,0,1,-102,-346)" stroke="url(#linearGradient8)">
      <path d="M763 765 L843 765 L843 805 L763 805 Z" stroke="none" clip-path="url(#clipPath2)"/>
    </g>
    <g text-rendering="geometricPrecision" stroke-miterlimit="1.45" shape-rendering="geometricPrecision" transform="matrix(1,0,0,1,-102,-346)" stroke-linecap="butt">
      <path fill="none" d="M763 765 L843 765 L843 805 L763 805 Z" clip-path="url(#clipPath2)"/>
      <text x="799.1914" xml:space="preserve" y="789.1543" clip-path="url(#clipPath2)" font-family="sans-serif" stroke="none">d</text>
    </g>
    <g fill="url(#linearGradient9)" text-rendering="geometricPrecision" shape-rendering="geometricPrecision" transform="matrix(1,0,0,1,-102,-346)" stroke="url(#linearGradient9)">
      <path d="M421 466 Q441 476 461 466 Q481 456 501 466 L501 496 Q481 486 461 496 Q441 506 421 496 Z" stroke="none" clip-path="url(#clipPath2)"/>
    </g>
    <g text-rendering="geometricPrecision" stroke-miterlimit="1.45" shape-rendering="geometricPrecision" transform="matrix(1,0,0,1,-102,-346)" stroke-linecap="butt">
      <path fill="none" d="M421 466 Q441 476 461 466 Q481 456 501 466 L501 496 Q481 486 461 496 Q441 506 421 496 Z" clip-path="url(#clipPath2)"/>
      <text x="445.3115" xml:space="preserve" y="485.1543" clip-path="url(#clipPath2)" font-family="sans-serif" stroke="none">Head</text>
    </g>
    <g fill="url(#linearGradient10)" text-rendering="geometricPrecision" shape-rendering="geometricPrecision" transform="matrix(1,0,0,1,-102,-346)" stroke="url(#linearGradient10)">
      <path d="M421 375 Q441 385 461 375 Q481 365 501 375 L501 405 Q481 395 461 405 Q441 415 421 405 Z" stroke="none" clip-path="url(#clipPath2)"/>
    </g>
    <g text-rendering="geometricPrecision" stroke-miterlimit="1.45" shape-rendering="geometricPrecision" transform="matrix(1,0,0,1,-102,-346)" stroke-linecap="butt">
      <path fill="none" d="M421 375 Q441 385 461 375 Q481 365 501 375 L501 405 Q481 395 461 405 Q441 415 421 405 Z" clip-path="url(#clipPath2)"/>
      <text x="451.8594" xml:space="preserve" y="394.1543" clip-path="url(#clipPath2)" font-family="sans-serif" stroke="none">Tip</text>
    </g>
    <g fill="url(#linearGradient11)" text-rendering="geometricPrecision" shape-rendering="geometricPrecision" transform="matrix(1,0,0,1,-102,-346)" stroke="url(#linearGradient11)">
      <path d="M977 713 Q997 723 1017 713 Q1037 703 1057 713 L1057 743 Q1037 733 1017 743 Q997 753 977 743 Z" stroke="none" clip-path="url(#clipPath2)"/>
    </g>
    <g text-rendering="geometricPrecision" stroke-miterlimit="1.45" shape-rendering="geometricPrecision" transform="matrix(1,0,0,1,-102,-346)" stroke-linecap="butt">
      <path fill="none" d="M977 713 Q997 723 1017 713 Q1037 703 1057 713 L1057 743 Q1037 733 1017 743 Q997 753 977 743 Z" clip-path="url(#clipPath2)"/>
      <text x="1008.0791" xml:space="preserve" y="732.1543" clip-path="url(#clipPath2)" font-family="sans-serif" stroke="none">Fin</text>
    </g>
    <g fill="rgb(232,238,247)" text-rendering="geometricPrecision" shape-rendering="geometricPrecision" transform="matrix(1,0,0,1,-102,-346)" stroke="rgb(232,238,247)">
      <circle r="20" clip-path="url(#clipPath2)" cx="924" cy="785" stroke="none"/>
    </g>
    <g text-rendering="geometricPrecision" stroke-miterlimit="1.45" shape-rendering="geometricPrecision" transform="matrix(1,0,0,1,-102,-346)" stroke-linecap="butt">
      <circle fill="none" r="20" clip-path="url(#clipPath2)" cx="924" cy="785"/>
      <text x="911.168" xml:space="preserve" y="789.1543" clip-path="url(#clipPath2)" font-family="sans-serif" stroke="none">hole</text>
    </g>
    <g fill="url(#linearGradient12)" text-rendering="geometricPrecision" shape-rendering="geometricPrecision" transform="matrix(1,0,0,1,-102,-346)" stroke="url(#linearGradient12)">
      <path d="M1137 443 L1217 443 L1217 483 L1137 483 Z" stroke="none" clip-path="url(#clipPath2)"/>
    </g>
    <g text-rendering="geometricPrecision" stroke-miterlimit="1.45" shape-rendering="geometricPrecision" transform="matrix(1,0,0,1,-102,-346)" stroke-linecap="butt">
      <path fill="none" d="M1137 443 L1217 443 L1217 483 L1137 483 Z" clip-path="url(#clipPath2)"/>
      <text x="1170.2969" xml:space="preserve" y="467.1543" clip-path="url(#clipPath2)" font-family="sans-serif" stroke="none">[|]</text>
    </g>
    <g fill="url(#linearGradient13)" text-rendering="geometricPrecision" shape-rendering="geometricPrecision" transform="matrix(1,0,0,1,-102,-346)" stroke="url(#linearGradient13)">
      <path d="M1203 520 L1283 520 L1283 560 L1203 560 Z" stroke="none" clip-path="url(#clipPath2)"/>
    </g>
    <g text-rendering="geometricPrecision" stroke-miterlimit="1.45" shape-rendering="geometricPrecision" transform="matrix(1,0,0,1,-102,-346)" stroke-linecap="butt">
      <path fill="none" d="M1203 520 L1283 520 L1283 560 L1203 560 Z" clip-path="url(#clipPath2)"/>
      <text x="1236.2969" xml:space="preserve" y="544.1543" clip-path="url(#clipPath2)" font-family="sans-serif" stroke="none">[|]</text>
    </g>
    <g fill="url(#linearGradient14)" text-rendering="geometricPrecision" shape-rendering="geometricPrecision" transform="matrix(1,0,0,1,-102,-346)" stroke="url(#linearGradient14)">
      <path d="M1269 597 L1349 597 L1349 637 L1269 637 Z" stroke="none" clip-path="url(#clipPath2)"/>
    </g>
    <g text-rendering="geometricPrecision" stroke-miterlimit="1.45" shape-rendering="geometricPrecision" transform="matrix(1,0,0,1,-102,-346)" stroke-linecap="butt">
      <path fill="none" d="M1269 597 L1349 597 L1349 637 L1269 637 Z" clip-path="url(#clipPath2)"/>
      <text x="1302.2969" xml:space="preserve" y="621.1543" clip-path="url(#clipPath2)" font-family="sans-serif" stroke="none">[|]</text>
    </g>
    <g fill="url(#linearGradient15)" text-rendering="geometricPrecision" shape-rendering="geometricPrecision" transform="matrix(1,0,0,1,-102,-346)" stroke="url(#linearGradient15)">
      <path d="M1330 676.5 L1410 676.5 L1410 716.5 L1330 716.5 Z" stroke="none" clip-path="url(#clipPath2)"/>
    </g>
    <g text-rendering="geometricPrecision" stroke-miterlimit="1.45" shape-rendering="geometricPrecision" transform="matrix(1,0,0,1,-102,-346)" stroke-linecap="butt">
      <path fill="none" d="M1330 676.5 L1410 676.5 L1410 716.5 L1330 716.5 Z" clip-path="url(#clipPath2)"/>
      <text x="1363.2969" xml:space="preserve" y="700.6543" clip-path="url(#clipPath2)" font-family="sans-serif" stroke="none">[|]</text>
    </g>
    <g fill="url(#linearGradient16)" text-rendering="geometricPrecision" shape-rendering="geometricPrecision" transform="matrix(1,0,0,1,-102,-346)" stroke="url(#linearGradient16)">
      <path d="M1064 522 L1144 522 L1144 562 L1064 562 Z" stroke="none" clip-path="url(#clipPath2)"/>
    </g>
    <g text-rendering="geometricPrecision" stroke-miterlimit="1.45" shape-rendering="geometricPrecision" transform="matrix(1,0,0,1,-102,-346)" stroke-linecap="butt">
      <path fill="none" d="M1064 522 L1144 522 L1144 562 L1064 562 Z" clip-path="url(#clipPath2)"/>
      <text x="1100.3232" xml:space="preserve" y="546.1543" clip-path="url(#clipPath2)" font-family="sans-serif" stroke="none">a</text>
    </g>
    <g fill="url(#linearGradient17)" text-rendering="geometricPrecision" shape-rendering="geometricPrecision" transform="matrix(1,0,0,1,-102,-346)" stroke="url(#linearGradient17)">
      <path d="M1133.5 597 L1213.5 597 L1213.5 637 L1133.5 637 Z" stroke="none" clip-path="url(#clipPath2)"/>
    </g>
    <g text-rendering="geometricPrecision" stroke-miterlimit="1.45" shape-rendering="geometricPrecision" transform="matrix(1,0,0,1,-102,-346)" stroke-linecap="butt">
      <path fill="none" d="M1133.5 597 L1213.5 597 L1213.5 637 L1133.5 637 Z" clip-path="url(#clipPath2)"/>
      <text x="1169.6914" xml:space="preserve" y="621.1543" clip-path="url(#clipPath2)" font-family="sans-serif" stroke="none">b</text>
    </g>
    <g fill="url(#linearGradient18)" text-rendering="geometricPrecision" shape-rendering="geometricPrecision" transform="matrix(1,0,0,1,-102,-346)" stroke="url(#linearGradient18)">
      <path d="M1203 676.5 L1283 676.5 L1283 716.5 L1203 716.5 Z" stroke="none" clip-path="url(#clipPath2)"/>
    </g>
    <g text-rendering="geometricPrecision" stroke-miterlimit="1.45" shape-rendering="geometricPrecision" transform="matrix(1,0,0,1,-102,-346)" stroke-linecap="butt">
      <path fill="none" d="M1203 676.5 L1283 676.5 L1283 716.5 L1203 716.5 Z" clip-path="url(#clipPath2)"/>
      <text x="1239.7012" xml:space="preserve" y="700.6543" clip-path="url(#clipPath2)" font-family="sans-serif" stroke="none">c</text>
    </g>
    <g fill="url(#linearGradient19)" text-rendering="geometricPrecision" shape-rendering="geometricPrecision" transform="matrix(1,0,0,1,-102,-346)" stroke="url(#linearGradient19)">
      <path d="M1269 756 L1349 756 L1349 796 L1269 796 Z" stroke="none" clip-path="url(#clipPath2)"/>
    </g>
    <g text-rendering="geometricPrecision" stroke-miterlimit="1.45" shape-rendering="geometricPrecision" transform="matrix(1,0,0,1,-102,-346)" stroke-linecap="butt">
      <path fill="none" d="M1269 756 L1349 756 L1349 796 L1269 796 Z" clip-path="url(#clipPath2)"/>
      <text x="1305.1914" xml:space="preserve" y="780.1543" clip-path="url(#clipPath2)" font-family="sans-serif" stroke="none">d</text>
    </g>
    <g fill="url(#linearGradient20)" text-rendering="geometricPrecision" shape-rendering="geometricPrecision" transform="matrix(1,0,0,1,-102,-346)" stroke="url(#linearGradient20)">
      <path d="M927 457 Q947 467 967 457 Q987 447 1007 457 L1007 487 Q987 477 967 487 Q947 497 927 487 Z" stroke="none" clip-path="url(#clipPath2)"/>
    </g>
    <g text-rendering="geometricPrecision" stroke-miterlimit="1.45" shape-rendering="geometricPrecision" transform="matrix(1,0,0,1,-102,-346)" stroke-linecap="butt">
      <path fill="none" d="M927 457 Q947 467 967 457 Q987 447 1007 457 L1007 487 Q987 477 967 487 Q947 497 927 487 Z" clip-path="url(#clipPath2)"/>
      <text x="951.3115" xml:space="preserve" y="476.1543" clip-path="url(#clipPath2)" font-family="sans-serif" stroke="none">Head</text>
    </g>
    <g fill="url(#linearGradient21)" text-rendering="geometricPrecision" shape-rendering="geometricPrecision" transform="matrix(1,0,0,1,-102,-346)" stroke="url(#linearGradient21)">
      <path d="M927 366 Q947 376 967 366 Q987 356 1007 366 L1007 396 Q987 386 967 396 Q947 406 927 396 Z" stroke="none" clip-path="url(#clipPath2)"/>
    </g>
    <g text-rendering="geometricPrecision" stroke-miterlimit="1.45" shape-rendering="geometricPrecision" transform="matrix(1,0,0,1,-102,-346)" stroke-linecap="butt">
      <path fill="none" d="M927 366 Q947 376 967 366 Q987 356 1007 366 L1007 396 Q987 386 967 396 Q947 406 927 396 Z" clip-path="url(#clipPath2)"/>
      <text x="956.5117" xml:space="preserve" y="385.1543" clip-path="url(#clipPath2)" font-family="sans-serif" stroke="none">List</text>
    </g>
    <g fill="url(#linearGradient22)" text-rendering="geometricPrecision" shape-rendering="geometricPrecision" transform="matrix(1,0,0,1,-102,-346)" stroke="url(#linearGradient22)">
      <path d="M1398 756 L1478 756 L1478 796 L1398 796 Z" stroke="none" clip-path="url(#clipPath2)"/>
    </g>
    <g text-rendering="geometricPrecision" stroke-miterlimit="1.45" shape-rendering="geometricPrecision" transform="matrix(1,0,0,1,-102,-346)" stroke-linecap="butt">
      <path fill="none" d="M1398 756 L1478 756 L1478 796 L1398 796 Z" clip-path="url(#clipPath2)"/>
      <text x="1433.3184" xml:space="preserve" y="780.1543" clip-path="url(#clipPath2)" font-family="sans-serif" stroke="none">[]</text>
    </g>
    <g fill="rgb(232,238,247)" text-rendering="geometricPrecision" shape-rendering="geometricPrecision" transform="matrix(1,0,0,1,-102,-346)" stroke="rgb(232,238,247)">
      <circle r="20" clip-path="url(#clipPath2)" cx="211" cy="472" stroke="none"/>
    </g>
    <g text-rendering="geometricPrecision" stroke-miterlimit="1.45" shape-rendering="geometricPrecision" transform="matrix(1,0,0,1,-102,-346)" stroke-linecap="butt">
      <circle fill="none" r="20" clip-path="url(#clipPath2)" cx="211" cy="472"/>
      <text x="198.168" xml:space="preserve" y="476.1543" clip-path="url(#clipPath2)" font-family="sans-serif" stroke="none">hole</text>
    </g>
    <g fill="url(#linearGradient23)" text-rendering="geometricPrecision" shape-rendering="geometricPrecision" transform="matrix(1,0,0,1,-102,-346)" stroke="url(#linearGradient23)">
      <path d="M117 375 Q137 385 157 375 Q177 365 197 375 L197 405 Q177 395 157 405 Q137 415 117 405 Z" stroke="none" clip-path="url(#clipPath2)"/>
    </g>
    <g text-rendering="geometricPrecision" stroke-miterlimit="1.45" shape-rendering="geometricPrecision" transform="matrix(1,0,0,1,-102,-346)" stroke-linecap="butt">
      <path fill="none" d="M117 375 Q137 385 157 375 Q177 365 197 375 L197 405 Q177 395 157 405 Q137 415 117 405 Z" clip-path="url(#clipPath2)"/>
      <text x="147.8594" xml:space="preserve" y="394.1543" clip-path="url(#clipPath2)" font-family="sans-serif" stroke="none">Tip</text>
    </g>
    <g fill="url(#linearGradient24)" text-rendering="geometricPrecision" shape-rendering="geometricPrecision" transform="matrix(1,0,0,1,-102,-346)" stroke="url(#linearGradient24)">
      <path d="M239 375 Q259 385 279 375 Q299 365 319 375 L319 405 Q299 395 279 405 Q259 415 239 405 Z" stroke="none" clip-path="url(#clipPath2)"/>
    </g>
    <g text-rendering="geometricPrecision" stroke-miterlimit="1.45" shape-rendering="geometricPrecision" transform="matrix(1,0,0,1,-102,-346)" stroke-linecap="butt">
      <path fill="none" d="M239 375 Q259 385 279 375 Q299 365 319 375 L319 405 Q299 395 279 405 Q259 415 239 405 Z" clip-path="url(#clipPath2)"/>
      <text x="270.0791" xml:space="preserve" y="394.1543" clip-path="url(#clipPath2)" font-family="sans-serif" stroke="none">Fin</text>
    </g>
    <g text-rendering="geometricPrecision" stroke-miterlimit="1.45" shape-rendering="geometricPrecision" transform="matrix(1,0,0,1,-102,-346)" stroke-linecap="butt">
      <path fill="none" d="M688.1123 491.9644 L714.6304 522.9022" clip-path="url(#clipPath2)"/>
    </g>
    <g text-rendering="geometricPrecision" stroke-miterlimit="1.45" shape-rendering="geometricPrecision" transform="matrix(1,0,0,1,-102,-346)" stroke-linecap="butt">
      <path d="M719.8368 528.9763 L715.8235 516.6113 L713.9796 522.1429 L708.231 523.1192 Z" stroke="none" clip-path="url(#clipPath2)"/>
      <path fill="none" d="M754.1123 568.9644 L780.6304 599.9022" clip-path="url(#clipPath2)"/>
      <path d="M785.8368 605.9763 L781.8235 593.6113 L779.9796 599.1429 L774.231 600.1192 Z" clip-path="url(#clipPath2)" stroke="none"/>
      <path fill="none" d="M818.3394 645.9915 L843.7686 679.1329" clip-path="url(#clipPath2)"/>
      <path d="M848.6386 685.4798 L845.3005 672.9157 L843.1599 678.3395 L837.3668 679.0032 Z" clip-path="url(#clipPath2)" stroke="none"/>
      <path fill="none" d="M652.5183 492.0007 L621.9304 525.1027" clip-path="url(#clipPath2)"/>
      <path d="M616.5011 530.9783 L628.3173 525.5582 L622.6091 524.3683 L620.9729 518.7716 Z" clip-path="url(#clipPath2)" stroke="none"/>
      <path fill="none" d="M718.9633 568.9832 L690.9277 600.0442" clip-path="url(#clipPath2)"/>
      <path d="M685.5674 605.9828 L697.3195 600.425 L691.5977 599.3018 L689.8961 593.7247 Z" clip-path="url(#clipPath2)" stroke="none"/>
      <path fill="none" d="M786.3872 646.0109 L758.7252 679.3311" clip-path="url(#clipPath2)"/>
      <path d="M753.6151 685.4863 L765.1273 679.4472 L759.3639 678.5616 L757.4332 673.0596 Z" clip-path="url(#clipPath2)" stroke="none"/>
      <path fill="none" d="M848.6606 725.4915 L823.2314 758.6329" clip-path="url(#clipPath2)"/>
      <path d="M818.3614 764.9798 L829.6332 758.5032 L823.8401 757.8395 L821.6995 752.4157 Z" clip-path="url(#clipPath2)" stroke="none"/>
      <path fill="none" d="M500.9737 476.976 L502.375 476.9 L508.0947 476.7924 L513.2716 476.9506 L517.8281 477.4125 L521.6867 478.216 L524.7699 479.3992 L527 481 L528.3389 483.0409 L528.9059 485.483 L528.8594 488.2719 L528.358 491.3531 L527.5604 494.6723 L526.625 498.175 L525.7104 501.8069 L524.9753 505.5136 L524.5781 509.2406 L524.6775 512.9337 L525.4319 516.5382 L527 520 L529.5004 523.2764 L532.892 526.3719 L537.0938 529.3031 L542.0247 532.0864 L547.6038 534.7382 L550.5637 535.9599 L550.6575 535.9944" clip-path="url(#clipPath2)"/>
      <path d="M558.118 538.8826 L548.7324 529.8875 L549.725 535.6334 L545.1222 539.2131 Z" clip-path="url(#clipPath2)" stroke="none"/>
      <path fill="none" d="M501.0193 380.9988 L501.1333 380.9753 L510.5104 379.2487 L519.45 377.875 L527.8646 376.925 L535.6667 376.4691 L542.7687 376.5781 L549.0833 377.3225 L554.5229 378.7729 L559 381 L562.47 384.0436 L565.0602 387.821 L566.9406 392.2188 L568.2815 397.1234 L569.2529 402.4217 L570.025 408 L570.7679 413.745 L571.6519 419.5432 L572.8469 425.2812 L574.5231 430.8457 L576.8508 436.1231 L580 441 L584.0988 445.3891 L589.1065 449.3071 L594.9406 452.7969 L601.5185 455.9012 L608.7575 458.663 L616.575 461.125 L623.2042 462.8834 L623.3017 462.9056" clip-path="url(#clipPath2)"/>
      <path d="M631.0873 464.7451 L620.5586 457.1198 L622.3285 462.6757 L618.2592 466.8519 Z" clip-path="url(#clipPath2)" stroke="none"/>
      <path fill="none" d="M879.0879 725.4915 L907.1413 762.6622" clip-path="url(#clipPath2)"/>
      <path d="M911.9606 769.0477 L908.7226 756.4575 L906.5389 761.864 L900.7407 762.4815 Z" clip-path="url(#clipPath2)" stroke="none"/>
      <path fill="none" d="M1007.7225 746.555 L1004.35 753.3 L1001.432 758.2289 L997.8531 762.6656 L993.6133 766.6102 L988.7125 770.0625 L983.1508 773.0226 L976.9281 775.4907 L970.0446 777.4664 L962.5 778.95 L951.6418 780.6563" clip-path="url(#clipPath2)"/>
      <path d="M943.7388 781.8982 L956.3695 784.9747 L952.6296 780.5011 L954.8171 775.096 Z" clip-path="url(#clipPath2)" stroke="none"/>
      <path fill="none" d="M1194.1123 482.9644 L1220.6305 513.9022" clip-path="url(#clipPath2)"/>
      <path d="M1225.8368 519.9763 L1221.8236 507.6112 L1219.9797 513.1429 L1214.2311 514.1191 Z" clip-path="url(#clipPath2)" stroke="none"/>
      <path fill="none" d="M1260.1123 559.9644 L1286.6305 590.9022" clip-path="url(#clipPath2)"/>
      <path d="M1291.8368 596.9763 L1287.8236 584.6112 L1285.9797 590.1429 L1280.2311 591.1191 Z" clip-path="url(#clipPath2)" stroke="none"/>
      <path fill="none" d="M1324.3394 636.9915 L1349.7687 670.1329" clip-path="url(#clipPath2)"/>
      <path d="M1354.6385 676.4799 L1351.3005 663.9157 L1349.1599 669.3395 L1343.3668 670.0031 Z" clip-path="url(#clipPath2)" stroke="none"/>
      <path fill="none" d="M1158.5183 483.0007 L1127.9304 516.1027" clip-path="url(#clipPath2)"/>
      <path d="M1122.5011 521.9783 L1134.3174 516.5582 L1128.6091 515.3683 L1126.9729 509.7716 Z" clip-path="url(#clipPath2)" stroke="none"/>
      <path fill="none" d="M1224.9633 559.9832 L1196.9276 591.0442" clip-path="url(#clipPath2)"/>
      <path d="M1191.5674 596.9828 L1203.3195 591.425 L1197.5977 590.3018 L1195.8961 584.7247 Z" clip-path="url(#clipPath2)" stroke="none"/>
      <path fill="none" d="M1292.3872 637.0109 L1264.7252 670.3311" clip-path="url(#clipPath2)"/>
      <path d="M1259.6151 676.4863 L1271.1273 670.4473 L1265.364 669.5617 L1263.4332 664.0596 Z" clip-path="url(#clipPath2)" stroke="none"/>
      <path fill="none" d="M1354.6606 716.4915 L1329.2313 749.6329" clip-path="url(#clipPath2)"/>
      <path d="M1324.3615 755.9799 L1335.6332 749.5031 L1329.8401 748.8395 L1327.6995 743.4157 Z" clip-path="url(#clipPath2)" stroke="none"/>
      <path fill="none" d="M1006.9737 467.976 L1008.375 467.9 L1014.0947 467.7924 L1019.2716 467.9506 L1023.8281 468.4125 L1027.6868 469.216 L1030.7699 470.3992 L1033 472 L1034.3389 474.0409 L1034.9059 476.483 L1034.8594 479.2719 L1034.358 482.3531 L1033.5604 485.6723 L1032.625 489.175 L1031.7104 492.8069 L1030.9753 496.5136 L1030.5781 500.2406 L1030.6775 503.9337 L1031.4319 507.5382 L1033 511 L1035.5004 514.2764 L1038.892 517.3719 L1043.0938 520.3031 L1048.0247 523.0864 L1053.6038 525.7382 L1056.5637 526.9599 L1056.6576 526.9944" clip-path="url(#clipPath2)"/>
      <path d="M1064.118 529.8826 L1054.7324 520.8875 L1055.725 526.6334 L1051.1222 530.2131 Z" clip-path="url(#clipPath2)" stroke="none"/>
      <path fill="none" d="M1007.0193 371.9988 L1007.1334 371.9753 L1016.5104 370.2487 L1025.45 368.875 L1033.8646 367.925 L1041.6666 367.4691 L1048.7688 367.5781 L1055.0834 368.3225 L1060.5229 369.7729 L1065 372 L1068.47 375.0436 L1071.0602 378.821 L1072.9407 383.2188 L1074.2815 388.1234 L1075.2529 393.4217 L1076.025 399 L1076.7679 404.745 L1077.6519 410.5432 L1078.8469 416.2812 L1080.5232 421.8457 L1082.8508 427.1231 L1086 432 L1090.0988 436.3891 L1095.1064 440.3071 L1100.9407 443.7969 L1107.5186 446.9012 L1114.7576 449.663 L1122.575 452.125 L1129.2043 453.8834 L1129.3019 453.9056" clip-path="url(#clipPath2)"/>
      <path d="M1137.0875 455.7451 L1126.5587 448.1198 L1128.3287 453.6757 L1124.2594 457.8519 Z" clip-path="url(#clipPath2)" stroke="none"/>
      <path fill="none" d="M1387.1162 716.5109 L1415.6814 749.9069" clip-path="url(#clipPath2)"/>
      <path d="M1420.8813 755.9863 L1416.8811 743.6171 L1415.0314 749.1469 L1409.2817 750.1171 Z" clip-path="url(#clipPath2)" stroke="none"/>
      <path fill="none" d="M157 405.0256 L157 431.25 L157.3797 439.2094 L158.5188 446.2125 L160.4172 452.2594 L163.075 457.35 L166.4922 461.4844 L170.6687 464.6625 L175.6047 466.8844 L181.3 468.15 L183.2567 468.4037" clip-path="url(#clipPath2)"/>
      <path d="M191.1903 469.4321 L179.9326 462.9309 L182.265 468.2751 L178.6471 472.848 Z" clip-path="url(#clipPath2)" stroke="none"/>
      <path fill="none" d="M277.5525 405.7158 L275.15 431.8 L273.9828 439.8578 L272.0562 446.9313 L269.3703 453.0203 L265.925 458.125 L261.7203 462.2453 L256.7563 465.3813 L251.0328 467.5328 L244.55 468.7 L238.8491 469.2607" clip-path="url(#clipPath2)"/>
      <path d="M230.8876 470.0439 L243.3194 473.8452 L239.8443 469.1628 L242.3405 463.8932 Z" clip-path="url(#clipPath2)" stroke="none"/>
    </g>
  </g>
</svg>
