<?xml version="1.0" encoding="UTF-8"?><svg xmlns="http://www.w3.org/2000/svg" xmlns:xlink="http://www.w3.org/1999/xlink" fill-opacity="1" color-rendering="auto" color-interpolation="auto" text-rendering="auto" stroke="black" stroke-linecap="square" width="1836" stroke-miterlimit="10" shape-rendering="auto" stroke-opacity="1" fill="black" stroke-dasharray="none" font-weight="normal" stroke-width="1" height="1456" font-family="'Dialog'" font-style="normal" stroke-linejoin="miter" font-size="12px" stroke-dashoffset="0" image-rendering="auto">
  <!--Generated by ySVG 2.5-->
  <defs id="genericDefs"/>
  <g>
    <defs id="defs1">
      <linearGradient x1="70" gradientUnits="userSpaceOnUse" x2="198" y1="370.25" y2="410.25" id="linearGradient1" spreadMethod="reflect">
        <stop stop-opacity="1" stop-color="rgb(232,238,247)" offset="0%"/>
        <stop stop-opacity="1" stop-color="rgb(183,201,227)" offset="100%"/>
      </linearGradient>
      <linearGradient x1="214" gradientUnits="userSpaceOnUse" x2="342" y1="192.5" y2="232.5" id="linearGradient2" spreadMethod="reflect">
        <stop stop-opacity="1" stop-color="rgb(232,238,247)" offset="0%"/>
        <stop stop-opacity="1" stop-color="rgb(183,201,227)" offset="100%"/>
      </linearGradient>
      <linearGradient x1="214" gradientUnits="userSpaceOnUse" x2="342" y1="696.75" y2="736.75" id="linearGradient3" spreadMethod="reflect">
        <stop stop-opacity="1" stop-color="rgb(232,238,247)" offset="0%"/>
        <stop stop-opacity="1" stop-color="rgb(183,201,227)" offset="100%"/>
      </linearGradient>
      <linearGradient x1="542" gradientUnits="userSpaceOnUse" x2="921" y1="123" y2="185" id="linearGradient4" spreadMethod="reflect">
        <stop stop-opacity="1" stop-color="rgb(153,204,255)" offset="0%"/>
        <stop stop-opacity="1" stop-color="rgb(153,204,255)" offset="100%"/>
      </linearGradient>
      <linearGradient x1="968" gradientUnits="userSpaceOnUse" x2="1157" y1="134" y2="174" id="linearGradient5" spreadMethod="reflect">
        <stop stop-opacity="1" stop-color="rgb(255,204,0)" offset="0%"/>
        <stop stop-opacity="1" stop-color="rgb(255,204,0)" offset="100%"/>
      </linearGradient>
      <linearGradient x1="542" gradientUnits="userSpaceOnUse" x2="921" y1="250" y2="312" id="linearGradient6" spreadMethod="reflect">
        <stop stop-opacity="1" stop-color="rgb(153,204,255)" offset="0%"/>
        <stop stop-opacity="1" stop-color="rgb(153,204,255)" offset="100%"/>
      </linearGradient>
      <linearGradient x1="968" gradientUnits="userSpaceOnUse" x2="1157" y1="261" y2="301" id="linearGradient7" spreadMethod="reflect">
        <stop stop-opacity="1" stop-color="rgb(255,204,0)" offset="0%"/>
        <stop stop-opacity="1" stop-color="rgb(255,204,0)" offset="100%"/>
      </linearGradient>
      <linearGradient x1="968" gradientUnits="userSpaceOnUse" x2="1157" y1="396" y2="436" id="linearGradient8" spreadMethod="reflect">
        <stop stop-opacity="1" stop-color="rgb(255,204,0)" offset="0%"/>
        <stop stop-opacity="1" stop-color="rgb(255,204,0)" offset="100%"/>
      </linearGradient>
      <linearGradient x1="811.5" gradientUnits="userSpaceOnUse" x2="1031.5" y1="738" y2="778" id="linearGradient9" spreadMethod="reflect">
        <stop stop-opacity="1" stop-color="rgb(232,238,247)" offset="0%"/>
        <stop stop-opacity="1" stop-color="rgb(183,201,227)" offset="100%"/>
      </linearGradient>
      <linearGradient x1="415" gradientUnits="userSpaceOnUse" x2="520" y1="192.5" y2="232.5" id="linearGradient10" spreadMethod="reflect">
        <stop stop-opacity="1" stop-color="rgb(153,204,255)" offset="0%"/>
        <stop stop-opacity="1" stop-color="rgb(153,204,255)" offset="100%"/>
      </linearGradient>
      <linearGradient x1="385" gradientUnits="userSpaceOnUse" x2="764" y1="385" y2="447" id="linearGradient11" spreadMethod="reflect">
        <stop stop-opacity="1" stop-color="rgb(153,204,255)" offset="0%"/>
        <stop stop-opacity="1" stop-color="rgb(153,204,255)" offset="100%"/>
      </linearGradient>
      <linearGradient x1="385" gradientUnits="userSpaceOnUse" x2="764" y1="999.5" y2="1061.5" id="linearGradient12" spreadMethod="reflect">
        <stop stop-opacity="1" stop-color="rgb(153,204,255)" offset="0%"/>
        <stop stop-opacity="1" stop-color="rgb(153,204,255)" offset="100%"/>
      </linearGradient>
      <linearGradient x1="1216" gradientUnits="userSpaceOnUse" x2="1556" y1="500.85" y2="710.3125" id="linearGradient13" spreadMethod="reflect">
        <stop stop-opacity="1" stop-color="rgb(153,204,255)" offset="0%"/>
        <stop stop-opacity="1" stop-color="rgb(153,204,255)" offset="100%"/>
      </linearGradient>
      <linearGradient x1="1216" gradientUnits="userSpaceOnUse" x2="1556" y1="818.3125" y2="1060.1125" id="linearGradient14" spreadMethod="reflect">
        <stop stop-opacity="1" stop-color="rgb(153,204,255)" offset="0%"/>
        <stop stop-opacity="1" stop-color="rgb(153,204,255)" offset="100%"/>
      </linearGradient>
      <linearGradient x1="1216" gradientUnits="userSpaceOnUse" x2="1556" y1="1090.1125" y2="1351.9125" id="linearGradient15" spreadMethod="reflect">
        <stop stop-opacity="1" stop-color="rgb(153,204,255)" offset="0%"/>
        <stop stop-opacity="1" stop-color="rgb(153,204,255)" offset="100%"/>
      </linearGradient>
      <linearGradient x1="1029" gradientUnits="userSpaceOnUse" x2="1157" y1="585.5812" y2="625.5812" id="linearGradient16" spreadMethod="reflect">
        <stop stop-opacity="1" stop-color="rgb(232,238,247)" offset="0%"/>
        <stop stop-opacity="1" stop-color="rgb(183,201,227)" offset="100%"/>
      </linearGradient>
      <linearGradient x1="1029" gradientUnits="userSpaceOnUse" x2="1157" y1="1056.3625" y2="1096.3625" id="linearGradient17" spreadMethod="reflect">
        <stop stop-opacity="1" stop-color="rgb(232,238,247)" offset="0%"/>
        <stop stop-opacity="1" stop-color="rgb(183,201,227)" offset="100%"/>
      </linearGradient>
      <linearGradient x1="811.5" gradientUnits="userSpaceOnUse" x2="1031.5" y1="1508.8334" y2="1548.8334" id="linearGradient18" spreadMethod="reflect">
        <stop stop-opacity="1" stop-color="rgb(232,238,247)" offset="0%"/>
        <stop stop-opacity="1" stop-color="rgb(183,201,227)" offset="100%"/>
      </linearGradient>
      <clipPath clipPathUnits="userSpaceOnUse" id="clipPath1">
        <path d="M0 0 L1836 0 L1836 1456 L0 1456 L0 0 Z"/>
      </clipPath>
      <clipPath clipPathUnits="userSpaceOnUse" id="clipPath2">
        <path d="M55 108 L1891 108 L1891 1564 L55 1564 L55 108 Z"/>
      </clipPath>
    </defs>
    <g fill="white" text-rendering="geometricPrecision" shape-rendering="geometricPrecision" transform="translate(-55,-108)" stroke="white">
      <rect x="55" width="1836" height="1456" y="108" clip-path="url(#clipPath2)" stroke="none"/>
    </g>
    <g fill="url(#linearGradient1)" text-rendering="geometricPrecision" shape-rendering="geometricPrecision" transform="matrix(1,0,0,1,-55,-108)" stroke="url(#linearGradient1)">
      <path d="M70 370.25 L198 370.25 L198 410.25 L70 410.25 Z" stroke="none" clip-path="url(#clipPath2)"/>
    </g>
    <g text-rendering="geometricPrecision" stroke-miterlimit="1.45" shape-rendering="geometricPrecision" transform="matrix(1,0,0,1,-55,-108)" stroke-linecap="butt">
      <path fill="none" d="M70 370.25 L198 370.25 L198 410.25 L70 410.25 Z" clip-path="url(#clipPath2)"/>
      <text x="90.8135" xml:space="preserve" y="394.4043" clip-path="url(#clipPath2)" font-family="sans-serif" stroke="none">list processing</text>
    </g>
    <g fill="url(#linearGradient2)" text-rendering="geometricPrecision" shape-rendering="geometricPrecision" transform="matrix(1,0,0,1,-55,-108)" stroke="url(#linearGradient2)">
      <path d="M214 192.5 L342 192.5 L342 232.5 L214 232.5 Z" stroke="none" clip-path="url(#clipPath2)"/>
    </g>
    <g text-rendering="geometricPrecision" stroke-miterlimit="1.45" shape-rendering="geometricPrecision" transform="matrix(1,0,0,1,-55,-108)" stroke-linecap="butt">
      <path fill="none" d="M214 192.5 L342 192.5 L342 232.5 L214 232.5 Z" clip-path="url(#clipPath2)"/>
      <text x="232.833" xml:space="preserve" y="209.6699" clip-path="url(#clipPath2)" font-family="sans-serif" stroke="none">into something</text>
      <text x="257.4893" xml:space="preserve" y="223.6387" clip-path="url(#clipPath2)" font-family="sans-serif" stroke="none">atomic</text>
    </g>
    <g fill="url(#linearGradient3)" text-rendering="geometricPrecision" shape-rendering="geometricPrecision" transform="matrix(1,0,0,1,-55,-108)" stroke="url(#linearGradient3)">
      <path d="M214 696.75 L342 696.75 L342 736.75 L214 736.75 Z" stroke="none" clip-path="url(#clipPath2)"/>
    </g>
    <g text-rendering="geometricPrecision" stroke-miterlimit="1.45" shape-rendering="geometricPrecision" transform="matrix(1,0,0,1,-55,-108)" stroke-linecap="butt">
      <path fill="none" d="M214 696.75 L342 696.75 L342 736.75 L214 736.75 Z" clip-path="url(#clipPath2)"/>
      <text x="230.416" xml:space="preserve" y="720.9043" clip-path="url(#clipPath2)" font-family="sans-serif" stroke="none">into another list</text>
    </g>
    <g fill="url(#linearGradient4)" text-rendering="geometricPrecision" shape-rendering="geometricPrecision" transform="matrix(1,0,0,1,-55,-108)" stroke="url(#linearGradient4)">
      <path d="M542 123 L921 123 L921 185 L542 185 Z" stroke="none" clip-path="url(#clipPath2)"/>
    </g>
    <g text-rendering="geometricPrecision" stroke-miterlimit="1.45" shape-rendering="geometricPrecision" transform="matrix(1,0,0,1,-55,-108)" stroke-linecap="butt">
      <path fill="none" d="M542 123 L921 123 L921 185 L542 185 Z" clip-path="url(#clipPath2)"/>
      <text x="645.0684" xml:space="preserve" y="144.1855" clip-path="url(#clipPath2)" font-family="sans-serif" stroke="none">computing the atomic value </text>
      <text x="608.6846" xml:space="preserve" y="158.1543" clip-path="url(#clipPath2)" font-family="sans-serif" stroke="none">while traversing the list from head to tail</text>
      <text x="552.0654" xml:space="preserve" y="172.123" clip-path="url(#clipPath2)" font-family="sans-serif" stroke="none">(with a start value fed in at the first evaluation at the head)</text>
    </g>
    <g fill="url(#linearGradient5)" text-rendering="geometricPrecision" shape-rendering="geometricPrecision" transform="matrix(1,0,0,1,-55,-108)" stroke="url(#linearGradient5)">
      <path d="M968 134 L1157 134 L1157 174 L968 174 Z" stroke="none" clip-path="url(#clipPath2)"/>
    </g>
    <g text-rendering="geometricPrecision" stroke-miterlimit="1.45" shape-rendering="geometricPrecision" transform="matrix(1,0,0,1,-55,-108)" stroke-linecap="butt">
      <path fill="none" d="M968 134 L1157 134 L1157 174 L968 174 Z" clip-path="url(#clipPath2)"/>
      <text x="1040.9932" y="158.1543" clip-path="url(#clipPath2)" font-family="sans-serif" stroke="none" font-weight="bold" xml:space="preserve">foldl/4</text>
    </g>
    <g fill="url(#linearGradient6)" text-rendering="geometricPrecision" shape-rendering="geometricPrecision" transform="matrix(1,0,0,1,-55,-108)" stroke="url(#linearGradient6)">
      <path d="M542 250 L921 250 L921 312 L542 312 Z" stroke="none" clip-path="url(#clipPath2)"/>
    </g>
    <g text-rendering="geometricPrecision" stroke-miterlimit="1.45" shape-rendering="geometricPrecision" transform="matrix(1,0,0,1,-55,-108)" stroke-linecap="butt">
      <path fill="none" d="M542 250 L921 250 L921 312 L542 312 Z" clip-path="url(#clipPath2)"/>
      <text x="645.0684" xml:space="preserve" y="271.1855" clip-path="url(#clipPath2)" font-family="sans-serif" stroke="none">computing the atomic value </text>
      <text x="608.6846" xml:space="preserve" y="285.1543" clip-path="url(#clipPath2)" font-family="sans-serif" stroke="none">while traversing the list from tail to head</text>
      <text x="557.6816" xml:space="preserve" y="299.123" clip-path="url(#clipPath2)" font-family="sans-serif" stroke="none">(with a start value fed in at the first evaluation at the tail)</text>
    </g>
    <g fill="url(#linearGradient7)" text-rendering="geometricPrecision" shape-rendering="geometricPrecision" transform="matrix(1,0,0,1,-55,-108)" stroke="url(#linearGradient7)">
      <path d="M968 261 L1157 261 L1157 301 L968 301 Z" stroke="none" clip-path="url(#clipPath2)"/>
    </g>
    <g text-rendering="geometricPrecision" stroke-miterlimit="1.45" shape-rendering="geometricPrecision" transform="matrix(1,0,0,1,-55,-108)" stroke-linecap="butt">
      <path fill="none" d="M968 261 L1157 261 L1157 301 L968 301 Z" clip-path="url(#clipPath2)"/>
      <text x="1040.0908" y="285.1543" clip-path="url(#clipPath2)" font-family="sans-serif" stroke="none" font-weight="bold" xml:space="preserve">foldr/4</text>
    </g>
    <g fill="url(#linearGradient8)" text-rendering="geometricPrecision" shape-rendering="geometricPrecision" transform="matrix(1,0,0,1,-55,-108)" stroke="url(#linearGradient8)">
      <path d="M968 396 L1157 396 L1157 436 L968 436 Z" stroke="none" clip-path="url(#clipPath2)"/>
    </g>
    <g text-rendering="geometricPrecision" stroke-miterlimit="1.45" shape-rendering="geometricPrecision" transform="matrix(1,0,0,1,-55,-108)" stroke-linecap="butt">
      <path fill="none" d="M968 396 L1157 396 L1157 436 L968 436 Z" clip-path="url(#clipPath2)"/>
      <text x="1030.9854" y="420.1543" clip-path="url(#clipPath2)" font-family="sans-serif" stroke="none" font-weight="bold" xml:space="preserve">maplist/4</text>
    </g>
    <g fill="url(#linearGradient9)" text-rendering="geometricPrecision" shape-rendering="geometricPrecision" transform="matrix(1,0,0,1,-55,-108)" stroke="url(#linearGradient9)">
      <path d="M811.5 738 L1031.5 738 L1031.5 778 L811.5 778 Z" stroke="none" clip-path="url(#clipPath2)"/>
    </g>
    <g text-rendering="geometricPrecision" stroke-miterlimit="1.45" shape-rendering="geometricPrecision" transform="matrix(1,0,0,1,-55,-108)" stroke-linecap="butt">
      <path fill="none" d="M811.5 738 L1031.5 738 L1031.5 778 L811.5 778 Z" clip-path="url(#clipPath2)"/>
      <text x="831.8135" xml:space="preserve" y="762.1543" clip-path="url(#clipPath2)" font-family="sans-serif" stroke="none">traversing the list head-to-tail</text>
    </g>
    <g fill="url(#linearGradient10)" text-rendering="geometricPrecision" shape-rendering="geometricPrecision" transform="matrix(1,0,0,1,-55,-108)" stroke="url(#linearGradient10)">
      <path d="M415 192.5 L520 192.5 L520 232.5 L415 232.5 Z" stroke="none" clip-path="url(#clipPath2)"/>
    </g>
    <g text-rendering="geometricPrecision" stroke-miterlimit="1.45" shape-rendering="geometricPrecision" transform="matrix(1,0,0,1,-55,-108)" stroke-linecap="butt">
      <path fill="none" d="M415 192.5 L520 192.5 L520 232.5 L415 232.5 Z" clip-path="url(#clipPath2)"/>
      <text x="441.4434" xml:space="preserve" y="216.6543" clip-path="url(#clipPath2)" font-family="sans-serif" stroke="none">"folding"</text>
    </g>
    <g text-rendering="geometricPrecision" stroke-miterlimit="1.45" shape-rendering="geometricPrecision" transform="matrix(1,0,0,1,-55,-108)" stroke-linecap="butt">
      <path fill="none" d="M1233.5 134 L1216 134 L1216 174 L1233.5 174" clip-path="url(#clipPath2)"/>
      <text x="1222" xml:space="preserve" y="151.1699" clip-path="url(#clipPath2)" font-family="sans-serif" stroke="none">metapredicate</text>
      <text x="1222" xml:space="preserve" y="165.1387" clip-path="url(#clipPath2)" font-family="sans-serif" stroke="none">in library(apply)</text>
    </g>
    <g text-rendering="geometricPrecision" stroke-miterlimit="1.45" shape-rendering="geometricPrecision" transform="matrix(1,0,0,1,-55,-108)" stroke-linecap="butt">
      <path fill="none" d="M1233.5 261 L1216 261 L1216 301 L1233.5 301" clip-path="url(#clipPath2)"/>
      <text x="1222" xml:space="preserve" y="278.1699" clip-path="url(#clipPath2)" font-family="sans-serif" stroke="none">not provided but easy</text>
      <text x="1222" xml:space="preserve" y="292.1387" clip-path="url(#clipPath2)" font-family="sans-serif" stroke="none">to write oneself</text>
    </g>
    <g text-rendering="geometricPrecision" stroke-miterlimit="1.45" shape-rendering="geometricPrecision" transform="matrix(1,0,0,1,-55,-108)" stroke-linecap="butt">
      <path fill="none" d="M1233.5 396 L1216 396 L1216 436 L1233.5 436" clip-path="url(#clipPath2)"/>
      <text x="1222" xml:space="preserve" y="413.1699" clip-path="url(#clipPath2)" font-family="sans-serif" stroke="none">metapredicate</text>
      <text x="1222" xml:space="preserve" y="427.1387" clip-path="url(#clipPath2)" font-family="sans-serif" stroke="none">in library(apply)</text>
    </g>
    <g fill="url(#linearGradient11)" text-rendering="geometricPrecision" shape-rendering="geometricPrecision" transform="matrix(1,0,0,1,-55,-108)" stroke="url(#linearGradient11)">
      <path d="M385 385 L764 385 L764 447 L385 447 Z" stroke="none" clip-path="url(#clipPath2)"/>
    </g>
    <g text-rendering="geometricPrecision" stroke-miterlimit="1.45" shape-rendering="geometricPrecision" transform="matrix(1,0,0,1,-55,-108)" stroke-linecap="butt">
      <path fill="none" d="M385 385 L764 385 L764 447 L385 447 Z" clip-path="url(#clipPath2)"/>
      <text x="425.6045" xml:space="preserve" y="406.1855" clip-path="url(#clipPath2)" font-family="sans-serif" stroke="none">processing is about pairwise input-ouput element</text>
      <text x="430.9043" xml:space="preserve" y="420.1543" clip-path="url(#clipPath2)" font-family="sans-serif" stroke="none">processing independently of other list elements</text>
      <text x="437.8711" xml:space="preserve" y="434.123" clip-path="url(#clipPath2)" font-family="sans-serif" stroke="none">(allowing traversing the list from head to tail)</text>
    </g>
    <g fill="url(#linearGradient12)" text-rendering="geometricPrecision" shape-rendering="geometricPrecision" transform="matrix(1,0,0,1,-55,-108)" stroke="url(#linearGradient12)">
      <path d="M385 999.5 L764 999.5 L764 1061.5 L385 1061.5 Z" stroke="none" clip-path="url(#clipPath2)"/>
    </g>
    <g text-rendering="geometricPrecision" stroke-miterlimit="1.45" shape-rendering="geometricPrecision" transform="matrix(1,0,0,1,-55,-108)" stroke-linecap="butt">
      <path fill="none" d="M385 999.5 L764 999.5 L764 1061.5 L385 1061.5 Z" clip-path="url(#clipPath2)"/>
      <text x="474.7705" xml:space="preserve" y="1027.6699" clip-path="url(#clipPath2)" font-family="sans-serif" stroke="none">processing is more complex than</text>
      <text x="449.1709" xml:space="preserve" y="1041.6387" clip-path="url(#clipPath2)" font-family="sans-serif" stroke="none">pairwise input-output element processing</text>
    </g>
    <g fill="url(#linearGradient13)" text-rendering="geometricPrecision" shape-rendering="geometricPrecision" transform="matrix(1,0,0,1,-55,-108)" stroke="url(#linearGradient13)">
      <path d="M1216 500.85 L1556 500.85 L1556 710.3125 L1216 710.3125 Z" stroke="none" clip-path="url(#clipPath2)"/>
    </g>
    <g text-rendering="geometricPrecision" stroke-miterlimit="1.45" shape-rendering="geometricPrecision" transform="matrix(1,0,0,1,-55,-108)" stroke-linecap="butt">
      <path fill="none" d="M1216 500.85 L1556 500.85 L1556 710.3125 L1216 710.3125 Z" clip-path="url(#clipPath2)"/>
      <text x="1222" xml:space="preserve" y="532.9074" clip-path="url(#clipPath2)" font-family="sans-serif" stroke="none">PREPEND TO OUTPUT LIST</text>
      <text x="1222" xml:space="preserve" y="546.8762" clip-path="url(#clipPath2)" font-family="sans-serif" stroke="none"> </text>
      <text x="1222" xml:space="preserve" y="560.8449" clip-path="url(#clipPath2)" font-family="sans-serif" stroke="none">in head of recursive predicate:</text>
      <text x="1222" xml:space="preserve" y="574.8137" clip-path="url(#clipPath2)" font-family="sans-serif" stroke="none">▶ shave-off head of input list and</text>
      <text x="1222" xml:space="preserve" y="588.7824" clip-path="url(#clipPath2)" font-family="sans-serif" stroke="none">▶ prepend new element to output list</text>
      <text x="1222" xml:space="preserve" y="602.7512" clip-path="url(#clipPath2)" font-family="sans-serif" stroke="none"> </text>
      <text x="1222" xml:space="preserve" y="616.7199" clip-path="url(#clipPath2)" font-family="sans-serif" stroke="none">in body of recursive predicate:</text>
      <text x="1222" xml:space="preserve" y="630.6887" clip-path="url(#clipPath2)" font-family="sans-serif" stroke="none">▶ compute new element as necessary</text>
      <text x="1222" xml:space="preserve" y="644.6574" clip-path="url(#clipPath2)" font-family="sans-serif" stroke="none">▶ perform recursive tail-call with smaller I,O lists</text>
      <text x="1222" xml:space="preserve" y="658.6262" clip-path="url(#clipPath2)" font-family="sans-serif" stroke="none"> </text>
      <text x="1222" xml:space="preserve" y="672.5949" clip-path="url(#clipPath2)" font-family="sans-serif" stroke="none">base case:</text>
      <text x="1222" xml:space="preserve" y="686.5637" clip-path="url(#clipPath2)" font-family="sans-serif" stroke="none">▶ relates empty list to empty list</text>
    </g>
    <g fill="url(#linearGradient14)" text-rendering="geometricPrecision" shape-rendering="geometricPrecision" transform="matrix(1,0,0,1,-55,-108)" stroke="url(#linearGradient14)">
      <path d="M1216 818.3125 L1556 818.3125 L1556 1060.1125 L1216 1060.1125 Z" stroke="none" clip-path="url(#clipPath2)"/>
    </g>
    <g text-rendering="geometricPrecision" stroke-miterlimit="1.45" shape-rendering="geometricPrecision" transform="matrix(1,0,0,1,-55,-108)" stroke-linecap="butt">
      <path fill="none" d="M1216 818.3125 L1556 818.3125 L1556 1060.1125 L1216 1060.1125 Z" clip-path="url(#clipPath2)"/>
      <text x="1222" xml:space="preserve" y="838.6012" clip-path="url(#clipPath2)" font-family="sans-serif" stroke="none">PREPEND TO ACCUMULATOR LIST</text>
      <text x="1222" xml:space="preserve" y="852.5699" clip-path="url(#clipPath2)" font-family="sans-serif" stroke="none"> </text>
      <text x="1222" xml:space="preserve" y="866.5387" clip-path="url(#clipPath2)" font-family="sans-serif" stroke="none">in head of recursive predicate:</text>
      <text x="1222" xml:space="preserve" y="880.5074" clip-path="url(#clipPath2)" font-family="sans-serif" stroke="none">▶ shave-off head of input list and</text>
      <text x="1222" xml:space="preserve" y="894.4762" clip-path="url(#clipPath2)" font-family="sans-serif" stroke="none">▶ receive an accumulator list and an output freshvar</text>
      <text x="1222" xml:space="preserve" y="908.4449" clip-path="url(#clipPath2)" font-family="sans-serif" stroke="none"> </text>
      <text x="1222" xml:space="preserve" y="922.4137" clip-path="url(#clipPath2)" font-family="sans-serif" stroke="none">in body of recursive predicate::</text>
      <text x="1222" xml:space="preserve" y="936.3824" clip-path="url(#clipPath2)" font-family="sans-serif" stroke="none">▶ compute new element as necessary</text>
      <text x="1222" xml:space="preserve" y="950.3512" clip-path="url(#clipPath2)" font-family="sans-serif" stroke="none">▶ prepend computed element to received</text>
      <text x="1222" xml:space="preserve" y="964.3199" clip-path="url(#clipPath2)" font-family="sans-serif" stroke="none">   accumulator to form a new accumulator</text>
      <text x="1222" xml:space="preserve" y="978.2887" clip-path="url(#clipPath2)" font-family="sans-serif" stroke="none">▶ perform recursive tail-call with smaller I list and</text>
      <text x="1222" xml:space="preserve" y="992.2574" clip-path="url(#clipPath2)" font-family="sans-serif" stroke="none">    enlarged accumulator</text>
      <text x="1222" xml:space="preserve" y="1006.2262" clip-path="url(#clipPath2)" font-family="sans-serif" stroke="none">    </text>
      <text x="1222" xml:space="preserve" y="1020.1949" clip-path="url(#clipPath2)" font-family="sans-serif" stroke="none">base case:</text>
      <text x="1222" xml:space="preserve" y="1034.1637" clip-path="url(#clipPath2)" font-family="sans-serif" stroke="none">▶ unify the accumulator with the so-far-untouched</text>
      <text x="1222" xml:space="preserve" y="1048.1324" clip-path="url(#clipPath2)" font-family="sans-serif" stroke="none">    ouptut freshvar ("shunt to ouput freshvar")</text>
    </g>
    <g text-rendering="geometricPrecision" stroke-miterlimit="1.45" shape-rendering="geometricPrecision" transform="matrix(1,0,0,1,-55,-108)" stroke-linecap="butt">
      <path fill="none" d="M1624.2812 566.8312 L1592.25 566.8312 L1592.25 644.3312 L1624.2812 644.3312" clip-path="url(#clipPath2)"/>
      <text x="1598.25" xml:space="preserve" y="588.7824" clip-path="url(#clipPath2)" font-family="sans-serif" stroke="none">Features:</text>
      <text x="1598.25" xml:space="preserve" y="602.7512" clip-path="url(#clipPath2)" font-family="sans-serif" stroke="none">▶ traverse the list head-to-tail</text>
      <text x="1598.25" xml:space="preserve" y="616.7199" clip-path="url(#clipPath2)" font-family="sans-serif" stroke="none">▶ output list is in order of input list</text>
      <text x="1598.25" xml:space="preserve" y="630.6887" clip-path="url(#clipPath2)" font-family="sans-serif" stroke="none">▶ subject to tail-call optimization</text>
    </g>
    <g text-rendering="geometricPrecision" stroke-miterlimit="1.45" shape-rendering="geometricPrecision" transform="matrix(1,0,0,1,-55,-108)" stroke-linecap="butt">
      <path fill="none" d="M1627.7188 894.2125 L1592.25 894.2125 L1592.25 984.2125 L1627.7188 984.2125" clip-path="url(#clipPath2)"/>
      <text x="1598.25" xml:space="preserve" y="915.4293" clip-path="url(#clipPath2)" font-family="sans-serif" stroke="none">Features:</text>
      <text x="1598.25" xml:space="preserve" y="929.3981" clip-path="url(#clipPath2)" font-family="sans-serif" stroke="none">▶ traverse the list head-to-tail</text>
      <text x="1598.25" xml:space="preserve" y="943.3668" clip-path="url(#clipPath2)" font-family="sans-serif" stroke="none">▶ output list is in reverse order of input list</text>
      <text x="1598.25" xml:space="preserve" y="957.3356" clip-path="url(#clipPath2)" font-family="sans-serif" stroke="none">▶ subject to tail-call optimization but uses</text>
      <text x="1598.25" xml:space="preserve" y="971.3043" clip-path="url(#clipPath2)" font-family="sans-serif" stroke="none">    more term store space</text>
    </g>
    <g fill="url(#linearGradient15)" text-rendering="geometricPrecision" shape-rendering="geometricPrecision" transform="matrix(1,0,0,1,-55,-108)" stroke="url(#linearGradient15)">
      <path d="M1216 1090.1125 L1556 1090.1125 L1556 1351.9125 L1216 1351.9125 Z" stroke="none" clip-path="url(#clipPath2)"/>
    </g>
    <g text-rendering="geometricPrecision" stroke-miterlimit="1.45" shape-rendering="geometricPrecision" transform="matrix(1,0,0,1,-55,-108)" stroke-linecap="butt">
      <path fill="none" d="M1216 1090.1125 L1556 1090.1125 L1556 1351.9125 L1216 1351.9125 Z" clip-path="url(#clipPath2)"/>
      <text x="1222" xml:space="preserve" y="1106.4324" clip-path="url(#clipPath2)" font-family="sans-serif" stroke="none">APPEND TO ACCUMULATOR LIST</text>
      <text x="1222" xml:space="preserve" y="1120.4011" clip-path="url(#clipPath2)" font-family="sans-serif" stroke="none">(where the accumulator is a difference list)</text>
      <text x="1222" xml:space="preserve" y="1134.3699" clip-path="url(#clipPath2)" font-family="sans-serif" stroke="none"> </text>
      <text x="1222" xml:space="preserve" y="1148.3386" clip-path="url(#clipPath2)" font-family="sans-serif" stroke="none">in head of recursive predicate:</text>
      <text x="1222" xml:space="preserve" y="1162.3074" clip-path="url(#clipPath2)" font-family="sans-serif" stroke="none">▶ shave-off head of input list and</text>
      <text x="1222" xml:space="preserve" y="1176.2761" clip-path="url(#clipPath2)" font-family="sans-serif" stroke="none">▶ receive a Tip-Fin pair for the difference list to grow</text>
      <text x="1222" xml:space="preserve" y="1190.2449" clip-path="url(#clipPath2)" font-family="sans-serif" stroke="none"> </text>
      <text x="1222" xml:space="preserve" y="1204.2136" clip-path="url(#clipPath2)" font-family="sans-serif" stroke="none">in body of recursive predicate::</text>
      <text x="1222" xml:space="preserve" y="1218.1824" clip-path="url(#clipPath2)" font-family="sans-serif" stroke="none">▶ compute new element as necessary</text>
      <text x="1222" xml:space="preserve" y="1232.1511" clip-path="url(#clipPath2)" font-family="sans-serif" stroke="none">▶ anti-prepend the new element to the Fin position</text>
      <text x="1222" xml:space="preserve" y="1246.1199" clip-path="url(#clipPath2)" font-family="sans-serif" stroke="none">    of the difference list, giving a new Fin position</text>
      <text x="1222" xml:space="preserve" y="1260.0886" clip-path="url(#clipPath2)" font-family="sans-serif" stroke="none">▶ perform recursive tail-call with smaller I list, the</text>
      <text x="1222" xml:space="preserve" y="1274.0574" clip-path="url(#clipPath2)" font-family="sans-serif" stroke="none">    old Tip and the new Fin</text>
      <text x="1222" xml:space="preserve" y="1288.0261" clip-path="url(#clipPath2)" font-family="sans-serif" stroke="none">    </text>
      <text x="1222" xml:space="preserve" y="1301.9949" clip-path="url(#clipPath2)" font-family="sans-serif" stroke="none">base case:</text>
      <text x="1222" xml:space="preserve" y="1315.9636" clip-path="url(#clipPath2)" font-family="sans-serif" stroke="none">▶ unify the Fin with [], forming a proper list, which</text>
      <text x="1222" xml:space="preserve" y="1329.9324" clip-path="url(#clipPath2)" font-family="sans-serif" stroke="none">    is the output list, which the higher-level the caller can</text>
      <text x="1222" xml:space="preserve" y="1343.9011" clip-path="url(#clipPath2)" font-family="sans-serif" stroke="none">    find in the initial Tip</text>
    </g>
    <g text-rendering="geometricPrecision" stroke-miterlimit="1.45" shape-rendering="geometricPrecision" transform="matrix(1,0,0,1,-55,-108)" stroke-linecap="butt">
      <path fill="none" d="M1627.7188 1176.0125 L1592.25 1176.0125 L1592.25 1266.0125 L1627.7188 1266.0125" clip-path="url(#clipPath2)"/>
      <text x="1598.25" xml:space="preserve" y="1204.2136" clip-path="url(#clipPath2)" font-family="sans-serif" stroke="none">Features:</text>
      <text x="1598.25" xml:space="preserve" y="1218.1824" clip-path="url(#clipPath2)" font-family="sans-serif" stroke="none">▶ traverse the list head-to-tail</text>
      <text x="1598.25" xml:space="preserve" y="1232.1511" clip-path="url(#clipPath2)" font-family="sans-serif" stroke="none">▶ output list in order of input list</text>
      <text x="1598.25" xml:space="preserve" y="1246.1199" clip-path="url(#clipPath2)" font-family="sans-serif" stroke="none">▶ subject to tail-call optimization</text>
    </g>
    <g fill="url(#linearGradient16)" text-rendering="geometricPrecision" shape-rendering="geometricPrecision" transform="matrix(1,0,0,1,-55,-108)" stroke="url(#linearGradient16)">
      <path d="M1029 585.5812 L1157 585.5812 L1157 625.5812 L1029 625.5812 Z" stroke="none" clip-path="url(#clipPath2)"/>
    </g>
    <g text-rendering="geometricPrecision" stroke-miterlimit="1.45" shape-rendering="geometricPrecision" transform="matrix(1,0,0,1,-55,-108)" stroke-linecap="butt">
      <path fill="none" d="M1029 585.5812 L1157 585.5812 L1157 625.5812 L1029 625.5812 Z" clip-path="url(#clipPath2)"/>
      <text x="1075.7148" xml:space="preserve" y="609.7355" clip-path="url(#clipPath2)" font-family="sans-serif" stroke="none">direct</text>
    </g>
    <g fill="url(#linearGradient17)" text-rendering="geometricPrecision" shape-rendering="geometricPrecision" transform="matrix(1,0,0,1,-55,-108)" stroke="url(#linearGradient17)">
      <path d="M1029 1056.3625 L1157 1056.3625 L1157 1096.3625 L1029 1096.3625 Z" stroke="none" clip-path="url(#clipPath2)"/>
    </g>
    <g text-rendering="geometricPrecision" stroke-miterlimit="1.45" shape-rendering="geometricPrecision" transform="matrix(1,0,0,1,-55,-108)" stroke-linecap="butt">
      <path fill="none" d="M1029 1056.3625 L1157 1056.3625 L1157 1096.3625 L1029 1096.3625 Z" clip-path="url(#clipPath2)"/>
      <text x="1055.4414" xml:space="preserve" y="1073.5325" clip-path="url(#clipPath2)" font-family="sans-serif" stroke="none">accumulator</text>
      <text x="1074.8887" xml:space="preserve" y="1087.5012" clip-path="url(#clipPath2)" font-family="sans-serif" stroke="none">based</text>
    </g>
    <g fill="url(#linearGradient18)" text-rendering="geometricPrecision" shape-rendering="geometricPrecision" transform="matrix(1,0,0,1,-55,-108)" stroke="url(#linearGradient18)">
      <path d="M811.5 1508.8334 L1031.5 1508.8334 L1031.5 1548.8334 L811.5 1548.8334 Z" stroke="none" clip-path="url(#clipPath2)"/>
    </g>
    <g text-rendering="geometricPrecision" stroke-miterlimit="1.45" shape-rendering="geometricPrecision" transform="matrix(1,0,0,1,-55,-108)" stroke-linecap="butt">
      <path fill="none" d="M811.5 1508.8334 L1031.5 1508.8334 L1031.5 1548.8334 L811.5 1548.8334 Z" clip-path="url(#clipPath2)"/>
      <text x="831.8135" xml:space="preserve" y="1532.9877" clip-path="url(#clipPath2)" font-family="sans-serif" stroke="none">traversing the list tail-to-head</text>
    </g>
    <g text-rendering="geometricPrecision" stroke-miterlimit="1.45" shape-rendering="geometricPrecision" transform="matrix(1,0,0,1,-55,-108)" stroke-linecap="butt">
      <path fill="none" d="M134 370.2444 L134 212.5 L205.9805 212.5" clip-path="url(#clipPath2)"/>
    </g>
    <g text-rendering="geometricPrecision" stroke-miterlimit="1.45" shape-rendering="geometricPrecision" transform="matrix(1,0,0,1,-55,-108)" stroke-linecap="butt">
      <path d="M213.9805 212.5 L201.9805 207.5 L204.9805 212.5 L201.9805 217.5 Z" stroke="none" clip-path="url(#clipPath2)"/>
      <path fill="none" d="M134 410.2178 L134 716.75 L205.9805 716.75" clip-path="url(#clipPath2)"/>
      <path d="M213.9805 716.75 L201.9805 711.75 L204.9805 716.75 L201.9805 721.75 Z" clip-path="url(#clipPath2)" stroke="none"/>
      <path fill="none" d="M920.9603 154 L959.9905 154" clip-path="url(#clipPath2)"/>
      <path d="M967.9905 154 L955.9905 149 L958.9905 154 L955.9905 159 Z" clip-path="url(#clipPath2)" stroke="none"/>
      <path fill="none" d="M920.9603 281 L959.9905 281" clip-path="url(#clipPath2)"/>
      <path d="M967.9905 281 L955.9905 276 L958.9905 281 L955.9905 286 Z" clip-path="url(#clipPath2)" stroke="none"/>
      <path fill="none" d="M341.984 212.5 L407.0076 212.5" clip-path="url(#clipPath2)"/>
      <path d="M415.0076 212.5 L403.0076 207.5 L406.0076 212.5 L403.0076 217.5 Z" clip-path="url(#clipPath2)" stroke="none"/>
      <path fill="none" d="M467.5 192.4763 L467.5 154 L533.9756 154" clip-path="url(#clipPath2)"/>
      <path d="M541.9756 154 L529.9756 149 L532.9756 154 L529.9756 159 Z" clip-path="url(#clipPath2)" stroke="none"/>
      <path fill="none" d="M467.5 232.468 L467.5 281 L533.9756 281" clip-path="url(#clipPath2)"/>
      <path d="M541.9756 281 L529.9756 276 L532.9756 281 L529.9756 286 Z" clip-path="url(#clipPath2)" stroke="none"/>
      <path fill="none" stroke-dasharray="6,2" d="M1156.98 154 L1215.9777 154" clip-path="url(#clipPath2)"/>
      <path fill="none" stroke-dasharray="6,2" d="M1156.98 281 L1215.9777 281" clip-path="url(#clipPath2)"/>
      <path fill="none" stroke-dasharray="6,2" d="M1156.98 416 L1215.9777 416" clip-path="url(#clipPath2)"/>
      <path fill="none" d="M278 696.7416 L278 416 L377.0252 416" clip-path="url(#clipPath2)"/>
      <path d="M385.0252 416 L373.0252 411 L376.0252 416 L373.0252 421 Z" clip-path="url(#clipPath2)" stroke="none"/>
      <path fill="none" d="M764.0229 416 L960.0236 416" clip-path="url(#clipPath2)"/>
      <path d="M968.0236 416 L956.0236 411 L959.0236 416 L956.0236 421 Z" clip-path="url(#clipPath2)" stroke="none"/>
      <path fill="none" d="M278 736.7806 L278 1030.5 L377.0252 1030.5" clip-path="url(#clipPath2)"/>
      <path d="M385.0252 1030.5 L373.0252 1025.5 L376.0252 1030.5 L373.0252 1035.5 Z" clip-path="url(#clipPath2)" stroke="none"/>
      <path fill="none" d="M574.5 999.5311 L574.5 758 L803.4952 758" clip-path="url(#clipPath2)"/>
      <path d="M811.4952 758 L799.4952 753 L802.4952 758 L799.4952 763 Z" clip-path="url(#clipPath2)" stroke="none"/>
      <path fill="none" stroke-dasharray="6,2" d="M1592.2496 605.5812 L1556.02 605.5812" clip-path="url(#clipPath2)"/>
      <path fill="none" stroke-dasharray="6,2" d="M1556.0254 939.2125 L1592.2454 939.2125" clip-path="url(#clipPath2)"/>
      <path fill="none" stroke-dasharray="6,2" d="M1556.0254 1221.0125 L1592.2454 1221.0125" clip-path="url(#clipPath2)"/>
      <path fill="none" d="M921.5 738.0174 L921.5 605.5812 L1020.9806 605.5812" clip-path="url(#clipPath2)"/>
      <path d="M1028.9806 605.5812 L1016.9806 600.5812 L1019.9806 605.5812 L1016.9806 610.5812 Z" clip-path="url(#clipPath2)" stroke="none"/>
      <path fill="none" d="M1156.9865 605.5812 L1208.0011 605.5812" clip-path="url(#clipPath2)"/>
      <path d="M1216.0011 605.5812 L1204.0011 600.5812 L1207.0011 605.5812 L1204.0011 610.5812 Z" clip-path="url(#clipPath2)" stroke="none"/>
      <path fill="none" d="M921.5 778.0142 L921.5 1076.3625 L1020.9806 1076.3625" clip-path="url(#clipPath2)"/>
      <path d="M1028.9806 1076.3625 L1016.9806 1071.3625 L1019.9806 1076.3625 L1016.9806 1081.3625 Z" clip-path="url(#clipPath2)" stroke="none"/>
      <path fill="none" d="M1093 1056.3726 L1093 939.2125 L1208.0013 939.2125" clip-path="url(#clipPath2)"/>
      <path d="M1216.0013 939.2125 L1204.0013 934.2125 L1207.0013 939.2125 L1204.0013 944.2125 Z" clip-path="url(#clipPath2)" stroke="none"/>
      <path fill="none" d="M1093 1096.3861 L1093 1221.0125 L1208.0013 1221.0125" clip-path="url(#clipPath2)"/>
      <path d="M1216.0013 1221.0125 L1204.0013 1216.0125 L1207.0013 1221.0125 L1204.0013 1226.0125 Z" clip-path="url(#clipPath2)" stroke="none"/>
      <path fill="none" d="M574.5 1061.4938 L574.5 1528.8334 L803.4952 1528.8334" clip-path="url(#clipPath2)"/>
      <path d="M811.4952 1528.8334 L799.4952 1523.8334 L802.4952 1528.8334 L799.4952 1533.8334 Z" clip-path="url(#clipPath2)" stroke="none"/>
    </g>
  </g>
</svg>
