<?xml version="1.0" encoding="UTF-8"?><svg xmlns="http://www.w3.org/2000/svg" xmlns:xlink="http://www.w3.org/1999/xlink" fill-opacity="1" color-rendering="auto" color-interpolation="auto" text-rendering="auto" stroke="black" stroke-linecap="square" width="1308" stroke-miterlimit="10" shape-rendering="auto" stroke-opacity="1" fill="black" stroke-dasharray="none" font-weight="normal" stroke-width="1" height="436" font-family="'Dialog'" font-style="normal" stroke-linejoin="miter" font-size="12px" stroke-dashoffset="0" image-rendering="auto">
  <!--Generated by ySVG 2.5-->
  <defs id="genericDefs"/>
  <g>
    <defs id="defs1">
      <linearGradient x1="611" gradientUnits="userSpaceOnUse" x2="691" y1="281" y2="321" id="linearGradient1" spreadMethod="reflect">
        <stop stop-opacity="1" stop-color="rgb(255,102,0)" offset="0%"/>
        <stop stop-opacity="1" stop-color="rgb(255,102,0)" offset="100%"/>
      </linearGradient>
      <linearGradient x1="611" gradientUnits="userSpaceOnUse" x2="691" y1="321" y2="361" id="linearGradient2" spreadMethod="reflect">
        <stop stop-opacity="1" stop-color="rgb(255,102,0)" offset="0%"/>
        <stop stop-opacity="1" stop-color="rgb(255,102,0)" offset="100%"/>
      </linearGradient>
      <linearGradient x1="611" gradientUnits="userSpaceOnUse" x2="691" y1="361" y2="401" id="linearGradient3" spreadMethod="reflect">
        <stop stop-opacity="1" stop-color="rgb(255,102,0)" offset="0%"/>
        <stop stop-opacity="1" stop-color="rgb(255,102,0)" offset="100%"/>
      </linearGradient>
      <linearGradient x1="611" gradientUnits="userSpaceOnUse" x2="691" y1="401" y2="441" id="linearGradient4" spreadMethod="reflect">
        <stop stop-opacity="1" stop-color="rgb(255,102,0)" offset="0%"/>
        <stop stop-opacity="1" stop-color="rgb(255,102,0)" offset="100%"/>
      </linearGradient>
      <linearGradient x1="611" gradientUnits="userSpaceOnUse" x2="691" y1="220.5" y2="260.5" id="linearGradient5" spreadMethod="reflect">
        <stop stop-opacity="1" stop-color="silver" offset="0%"/>
        <stop stop-opacity="1" stop-color="silver" offset="100%"/>
      </linearGradient>
      <linearGradient x1="1179" gradientUnits="userSpaceOnUse" x2="1259" y1="217" y2="257" id="linearGradient6" spreadMethod="reflect">
        <stop stop-opacity="1" stop-color="silver" offset="0%"/>
        <stop stop-opacity="1" stop-color="silver" offset="100%"/>
      </linearGradient>
      <linearGradient x1="1179" gradientUnits="userSpaceOnUse" x2="1259" y1="281" y2="321" id="linearGradient7" spreadMethod="reflect">
        <stop stop-opacity="1" stop-color="rgb(232,238,247)" offset="0%"/>
        <stop stop-opacity="1" stop-color="rgb(183,201,227)" offset="100%"/>
      </linearGradient>
      <linearGradient x1="1179" gradientUnits="userSpaceOnUse" x2="1259" y1="321" y2="361" id="linearGradient8" spreadMethod="reflect">
        <stop stop-opacity="1" stop-color="rgb(232,238,247)" offset="0%"/>
        <stop stop-opacity="1" stop-color="rgb(183,201,227)" offset="100%"/>
      </linearGradient>
      <linearGradient x1="1179" gradientUnits="userSpaceOnUse" x2="1259" y1="361" y2="401" id="linearGradient9" spreadMethod="reflect">
        <stop stop-opacity="1" stop-color="rgb(232,238,247)" offset="0%"/>
        <stop stop-opacity="1" stop-color="rgb(183,201,227)" offset="100%"/>
      </linearGradient>
      <linearGradient x1="1179" gradientUnits="userSpaceOnUse" x2="1259" y1="401" y2="441" id="linearGradient10" spreadMethod="reflect">
        <stop stop-opacity="1" stop-color="rgb(232,238,247)" offset="0%"/>
        <stop stop-opacity="1" stop-color="rgb(183,201,227)" offset="100%"/>
      </linearGradient>
      <linearGradient x1="1308" gradientUnits="userSpaceOnUse" x2="1388" y1="344" y2="384" id="linearGradient11" spreadMethod="reflect">
        <stop stop-opacity="1" stop-color="rgb(232,238,247)" offset="0%"/>
        <stop stop-opacity="1" stop-color="rgb(183,201,227)" offset="100%"/>
      </linearGradient>
      <linearGradient x1="1549" gradientUnits="userSpaceOnUse" x2="1629" y1="344" y2="384" id="linearGradient12" spreadMethod="reflect">
        <stop stop-opacity="1" stop-color="rgb(255,255,153)" offset="0%"/>
        <stop stop-opacity="1" stop-color="rgb(255,255,153)" offset="100%"/>
      </linearGradient>
      <linearGradient x1="1437" gradientUnits="userSpaceOnUse" x2="1517" y1="344" y2="384" id="linearGradient13" spreadMethod="reflect">
        <stop stop-opacity="1" stop-color="rgb(255,204,0)" offset="0%"/>
        <stop stop-opacity="1" stop-color="rgb(255,204,0)" offset="100%"/>
      </linearGradient>
      <linearGradient x1="590.5" gradientUnits="userSpaceOnUse" x2="711.5" y1="160" y2="200" id="linearGradient14" spreadMethod="reflect">
        <stop stop-opacity="1" stop-color="rgb(255,255,153)" offset="0%"/>
        <stop stop-opacity="1" stop-color="rgb(255,255,153)" offset="100%"/>
      </linearGradient>
      <linearGradient x1="402.5" gradientUnits="userSpaceOnUse" x2="482.5" y1="401" y2="441" id="linearGradient15" spreadMethod="reflect">
        <stop stop-opacity="1" stop-color="rgb(255,204,0)" offset="0%"/>
        <stop stop-opacity="1" stop-color="rgb(255,204,0)" offset="100%"/>
      </linearGradient>
      <linearGradient x1="351" gradientUnits="userSpaceOnUse" x2="493" y1="308" y2="348" id="linearGradient16" spreadMethod="reflect">
        <stop stop-opacity="1" stop-color="rgb(255,204,0)" offset="0%"/>
        <stop stop-opacity="1" stop-color="rgb(255,204,0)" offset="100%"/>
      </linearGradient>
      <linearGradient x1="867" gradientUnits="userSpaceOnUse" x2="986" y1="251" y2="291" id="linearGradient17" spreadMethod="reflect">
        <stop stop-opacity="1" stop-color="rgb(255,204,0)" offset="0%"/>
        <stop stop-opacity="1" stop-color="rgb(255,204,0)" offset="100%"/>
      </linearGradient>
      <linearGradient x1="866" gradientUnits="userSpaceOnUse" x2="985" y1="306" y2="346" id="linearGradient18" spreadMethod="reflect">
        <stop stop-opacity="1" stop-color="rgb(255,204,0)" offset="0%"/>
        <stop stop-opacity="1" stop-color="rgb(255,204,0)" offset="100%"/>
      </linearGradient>
      <linearGradient x1="867" gradientUnits="userSpaceOnUse" x2="986" y1="361" y2="401" id="linearGradient19" spreadMethod="reflect">
        <stop stop-opacity="1" stop-color="rgb(255,204,0)" offset="0%"/>
        <stop stop-opacity="1" stop-color="rgb(255,204,0)" offset="100%"/>
      </linearGradient>
      <linearGradient x1="867" gradientUnits="userSpaceOnUse" x2="986" y1="416" y2="456" id="linearGradient20" spreadMethod="reflect">
        <stop stop-opacity="1" stop-color="rgb(255,204,0)" offset="0%"/>
        <stop stop-opacity="1" stop-color="rgb(255,204,0)" offset="100%"/>
      </linearGradient>
      <linearGradient x1="1158.5" gradientUnits="userSpaceOnUse" x2="1279.5" y1="160" y2="200" id="linearGradient21" spreadMethod="reflect">
        <stop stop-opacity="1" stop-color="rgb(255,255,153)" offset="0%"/>
        <stop stop-opacity="1" stop-color="rgb(255,255,153)" offset="100%"/>
      </linearGradient>
      <linearGradient x1="736" gradientUnits="userSpaceOnUse" x2="878" y1="502" y2="566" id="linearGradient22" spreadMethod="reflect">
        <stop stop-opacity="1" stop-color="rgb(255,102,0)" offset="0%"/>
        <stop stop-opacity="1" stop-color="rgb(255,102,0)" offset="100%"/>
      </linearGradient>
      <clipPath clipPathUnits="userSpaceOnUse" id="clipPath1">
        <path d="M0 0 L1308 0 L1308 436 L0 436 L0 0 Z"/>
      </clipPath>
      <clipPath clipPathUnits="userSpaceOnUse" id="clipPath2">
        <path d="M336 145 L1644 145 L1644 581 L336 581 L336 145 Z"/>
      </clipPath>
    </defs>
    <g fill="white" text-rendering="geometricPrecision" shape-rendering="geometricPrecision" transform="translate(-336,-145)" stroke="white">
      <rect x="336" width="1308" height="436" y="145" clip-path="url(#clipPath2)" stroke="none"/>
    </g>
    <g fill="url(#linearGradient1)" text-rendering="geometricPrecision" shape-rendering="geometricPrecision" transform="matrix(1,0,0,1,-336,-145)" stroke="url(#linearGradient1)">
      <path d="M611 281 L691 281 L691 321 L611 321 Z" stroke="none" clip-path="url(#clipPath2)"/>
    </g>
    <g text-rendering="geometricPrecision" stroke-miterlimit="1.45" shape-rendering="geometricPrecision" transform="matrix(1,0,0,1,-336,-145)" stroke-linecap="butt">
      <path fill="none" d="M611 281 L691 281 L691 321 L611 321 Z" clip-path="url(#clipPath2)"/>
      <text x="629.4639" y="305.1543" clip-path="url(#clipPath2)" font-family="sans-serif" font-style="italic" stroke="none" xml:space="preserve">List Tip</text>
    </g>
    <g fill="url(#linearGradient2)" text-rendering="geometricPrecision" shape-rendering="geometricPrecision" transform="matrix(1,0,0,1,-336,-145)" stroke="url(#linearGradient2)">
      <path d="M611 321 L691 321 L691 361 L611 361 Z" stroke="none" clip-path="url(#clipPath2)"/>
    </g>
    <g text-rendering="geometricPrecision" stroke-miterlimit="1.45" shape-rendering="geometricPrecision" transform="matrix(1,0,0,1,-336,-145)" stroke-linecap="butt">
      <path fill="none" d="M611 321 L691 321 L691 361 L611 361 Z" clip-path="url(#clipPath2)"/>
    </g>
    <g fill="url(#linearGradient3)" text-rendering="geometricPrecision" shape-rendering="geometricPrecision" transform="matrix(1,0,0,1,-336,-145)" stroke="url(#linearGradient3)">
      <path d="M611 361 L691 361 L691 401 L611 401 Z" stroke="none" clip-path="url(#clipPath2)"/>
    </g>
    <g text-rendering="geometricPrecision" stroke-miterlimit="1.45" shape-rendering="geometricPrecision" transform="matrix(1,0,0,1,-336,-145)" stroke-linecap="butt">
      <path fill="none" d="M611 361 L691 361 L691 401 L611 401 Z" clip-path="url(#clipPath2)"/>
    </g>
    <g fill="url(#linearGradient4)" text-rendering="geometricPrecision" shape-rendering="geometricPrecision" transform="matrix(1,0,0,1,-336,-145)" stroke="url(#linearGradient4)">
      <path d="M611 401 L691 401 L691 441 L611 441 Z" stroke="none" clip-path="url(#clipPath2)"/>
    </g>
    <g text-rendering="geometricPrecision" stroke-miterlimit="1.45" shape-rendering="geometricPrecision" transform="matrix(1,0,0,1,-336,-145)" stroke-linecap="butt">
      <path fill="none" d="M611 401 L691 401 L691 441 L611 441 Z" clip-path="url(#clipPath2)"/>
      <text x="629.6836" y="425.1543" clip-path="url(#clipPath2)" font-family="sans-serif" font-style="italic" stroke="none" xml:space="preserve">List Fin</text>
    </g>
    <g fill="url(#linearGradient5)" text-rendering="geometricPrecision" shape-rendering="geometricPrecision" transform="matrix(1,0,0,1,-336,-145)" stroke="url(#linearGradient5)">
      <path d="M611 220.5 L691 220.5 L691 260.5 L611 260.5 Z" stroke="none" clip-path="url(#clipPath2)"/>
    </g>
    <g text-rendering="geometricPrecision" stroke-miterlimit="1.45" shape-rendering="geometricPrecision" font-family="sans-serif" transform="matrix(1,0,0,1,-336,-145)" stroke-linecap="butt">
      <text x="619.4033" xml:space="preserve" y="244.6543" clip-path="url(#clipPath2)" stroke="none">Exponents</text>
    </g>
    <g fill="url(#linearGradient6)" text-rendering="geometricPrecision" shape-rendering="geometricPrecision" transform="matrix(1,0,0,1,-336,-145)" stroke="url(#linearGradient6)">
      <path d="M1179 217 L1259 217 L1259 257 L1179 257 Z" stroke="none" clip-path="url(#clipPath2)"/>
    </g>
    <g text-rendering="geometricPrecision" stroke-miterlimit="1.45" shape-rendering="geometricPrecision" font-family="sans-serif" transform="matrix(1,0,0,1,-336,-145)" stroke-linecap="butt">
      <text x="1194.5576" xml:space="preserve" y="241.1543" clip-path="url(#clipPath2)" stroke="none">Solution</text>
    </g>
    <g fill="url(#linearGradient7)" text-rendering="geometricPrecision" shape-rendering="geometricPrecision" transform="matrix(1,0,0,1,-336,-145)" stroke="url(#linearGradient7)">
      <path d="M1179 281 L1259 281 L1259 321 L1179 321 Z" stroke="none" clip-path="url(#clipPath2)"/>
    </g>
    <g text-rendering="geometricPrecision" stroke-miterlimit="1.45" shape-rendering="geometricPrecision" transform="matrix(1,0,0,1,-336,-145)" stroke-linecap="butt">
      <path fill="none" d="M1179 281 L1259 281 L1259 321 L1179 321 Z" clip-path="url(#clipPath2)"/>
      <text x="1197.4639" y="305.1543" clip-path="url(#clipPath2)" font-family="sans-serif" font-style="italic" stroke="none" xml:space="preserve">List Tip</text>
    </g>
    <g fill="url(#linearGradient8)" text-rendering="geometricPrecision" shape-rendering="geometricPrecision" transform="matrix(1,0,0,1,-336,-145)" stroke="url(#linearGradient8)">
      <path d="M1179 321 L1259 321 L1259 361 L1179 361 Z" stroke="none" clip-path="url(#clipPath2)"/>
    </g>
    <g text-rendering="geometricPrecision" stroke-miterlimit="1.45" shape-rendering="geometricPrecision" transform="matrix(1,0,0,1,-336,-145)" stroke-linecap="butt">
      <path fill="none" d="M1179 321 L1259 321 L1259 361 L1179 361 Z" clip-path="url(#clipPath2)"/>
    </g>
    <g fill="url(#linearGradient9)" text-rendering="geometricPrecision" shape-rendering="geometricPrecision" transform="matrix(1,0,0,1,-336,-145)" stroke="url(#linearGradient9)">
      <path d="M1179 361 L1259 361 L1259 401 L1179 401 Z" stroke="none" clip-path="url(#clipPath2)"/>
    </g>
    <g text-rendering="geometricPrecision" stroke-miterlimit="1.45" shape-rendering="geometricPrecision" transform="matrix(1,0,0,1,-336,-145)" stroke-linecap="butt">
      <path fill="none" d="M1179 361 L1259 361 L1259 401 L1179 401 Z" clip-path="url(#clipPath2)"/>
    </g>
    <g fill="url(#linearGradient10)" text-rendering="geometricPrecision" shape-rendering="geometricPrecision" transform="matrix(1,0,0,1,-336,-145)" stroke="url(#linearGradient10)">
      <path d="M1179 401 L1259 401 L1259 441 L1179 441 Z" stroke="none" clip-path="url(#clipPath2)"/>
    </g>
    <g text-rendering="geometricPrecision" stroke-miterlimit="1.45" shape-rendering="geometricPrecision" transform="matrix(1,0,0,1,-336,-145)" stroke-linecap="butt">
      <path fill="none" d="M1179 401 L1259 401 L1259 441 L1179 441 Z" clip-path="url(#clipPath2)"/>
      <text x="1197.6836" y="425.1543" clip-path="url(#clipPath2)" font-family="sans-serif" font-style="italic" stroke="none" xml:space="preserve">List Fin</text>
    </g>
    <g fill="url(#linearGradient11)" text-rendering="geometricPrecision" shape-rendering="geometricPrecision" transform="matrix(1,0,0,1,-336,-145)" stroke="url(#linearGradient11)">
      <path d="M1308 344 L1388 344 L1388 384 L1308 384 Z" stroke="none" clip-path="url(#clipPath2)"/>
    </g>
    <g text-rendering="geometricPrecision" stroke-miterlimit="1.45" shape-rendering="geometricPrecision" transform="matrix(1,0,0,1,-336,-145)" stroke-linecap="butt">
      <path fill="none" d="M1308 344 L1388 344 L1388 384 L1308 384 Z" clip-path="url(#clipPath2)"/>
      <text x="1343.957" xml:space="preserve" y="368.1543" clip-path="url(#clipPath2)" font-family="sans-serif" stroke="none">∑</text>
    </g>
    <g fill="url(#linearGradient12)" text-rendering="geometricPrecision" shape-rendering="geometricPrecision" transform="matrix(1,0,0,1,-336,-145)" stroke="url(#linearGradient12)">
      <path d="M1549 344 L1629 344 L1629 384 L1549 384 Z" stroke="none" clip-path="url(#clipPath2)"/>
    </g>
    <g text-rendering="geometricPrecision" stroke-miterlimit="1.45" shape-rendering="geometricPrecision" transform="matrix(1,0,0,1,-336,-145)" stroke-linecap="butt">
      <path fill="none" d="M1549 344 L1629 344 L1629 384 L1549 384 Z" clip-path="url(#clipPath2)"/>
      <text x="1569.3389" xml:space="preserve" y="368.1543" clip-path="url(#clipPath2)" font-family="sans-serif" stroke="none">Target</text>
    </g>
    <g fill="url(#linearGradient13)" text-rendering="geometricPrecision" shape-rendering="geometricPrecision" transform="matrix(1,0,0,1,-336,-145)" stroke="url(#linearGradient13)">
      <path d="M1447.2 344 L1517 344 L1506.8 384 L1437 384 Z" stroke="none" clip-path="url(#clipPath2)"/>
    </g>
    <g text-rendering="geometricPrecision" stroke-miterlimit="1.45" shape-rendering="geometricPrecision" transform="matrix(1,0,0,1,-336,-145)" stroke-linecap="butt">
      <path fill="none" d="M1447.2 344 L1517 344 L1506.8 384 L1437 384 Z" clip-path="url(#clipPath2)"/>
      <text x="1466.9453" xml:space="preserve" y="368.1543" clip-path="url(#clipPath2)" font-family="sans-serif" stroke="none">#=</text>
    </g>
    <g fill="url(#linearGradient14)" text-rendering="geometricPrecision" shape-rendering="geometricPrecision" transform="matrix(1,0,0,1,-336,-145)" stroke="url(#linearGradient14)">
      <path d="M590.5 160 L711.5 160 L711.5 200 L590.5 200 Z" stroke="none" clip-path="url(#clipPath2)"/>
    </g>
    <g text-rendering="geometricPrecision" stroke-miterlimit="1.45" shape-rendering="geometricPrecision" transform="matrix(1,0,0,1,-336,-145)" stroke-linecap="butt">
      <path fill="none" d="M590.5 160 L711.5 160 L711.5 200 L590.5 200 Z" clip-path="url(#clipPath2)"/>
      <text x="607.0693" xml:space="preserve" y="184.1543" clip-path="url(#clipPath2)" font-family="sans-serif" stroke="none">list of length N</text>
    </g>
    <g fill="url(#linearGradient15)" text-rendering="geometricPrecision" shape-rendering="geometricPrecision" transform="matrix(1,0,0,1,-336,-145)" stroke="url(#linearGradient15)">
      <path d="M412.7 401 L482.5 401 L472.3 441 L402.5 441 Z" stroke="none" clip-path="url(#clipPath2)"/>
    </g>
    <g text-rendering="geometricPrecision" stroke-miterlimit="1.45" shape-rendering="geometricPrecision" transform="matrix(1,0,0,1,-336,-145)" stroke-linecap="butt">
      <path fill="none" d="M412.7 401 L482.5 401 L472.3 441 L402.5 441 Z" clip-path="url(#clipPath2)"/>
      <text x="426.252" xml:space="preserve" y="418.1699" clip-path="url(#clipPath2)" font-family="sans-serif" stroke="none">chain</text>
      <text x="427.418" xml:space="preserve" y="432.1387" clip-path="url(#clipPath2)" font-family="sans-serif" stroke="none">#&gt;=</text>
    </g>
    <g fill="url(#linearGradient16)" text-rendering="geometricPrecision" shape-rendering="geometricPrecision" transform="matrix(1,0,0,1,-336,-145)" stroke="url(#linearGradient16)">
      <path d="M361.2 308 L493 308 L482.8 348 L351 348 Z" stroke="none" clip-path="url(#clipPath2)"/>
    </g>
    <g text-rendering="geometricPrecision" stroke-miterlimit="1.45" shape-rendering="geometricPrecision" transform="matrix(1,0,0,1,-336,-145)" stroke-linecap="butt">
      <path fill="none" d="M361.2 308 L493 308 L482.8 348 L351 348 Z" clip-path="url(#clipPath2)"/>
      <text x="375.7754" xml:space="preserve" y="325.1699" clip-path="url(#clipPath2)" font-family="sans-serif" stroke="none">each in domain</text>
      <text x="368.8115" xml:space="preserve" y="339.1387" clip-path="url(#clipPath2)" font-family="sans-serif" stroke="none">[0..MaxExponent]</text>
    </g>
    <g fill="url(#linearGradient17)" text-rendering="geometricPrecision" shape-rendering="geometricPrecision" transform="matrix(1,0,0,1,-336,-145)" stroke="url(#linearGradient17)">
      <path d="M877.2 251 L986 251 L975.8 291 L867 291 Z" stroke="none" clip-path="url(#clipPath2)"/>
    </g>
    <g text-rendering="geometricPrecision" stroke-miterlimit="1.45" shape-rendering="geometricPrecision" transform="matrix(1,0,0,1,-336,-145)" stroke-linecap="butt">
      <path fill="none" d="M877.2 251 L986 251 L975.8 291 L867 291 Z" clip-path="url(#clipPath2)"/>
      <text x="879.6338" xml:space="preserve" y="275.1543" clip-path="url(#clipPath2)" font-family="sans-serif" stroke="none">2^LHS #= RHS</text>
    </g>
    <g fill="url(#linearGradient18)" text-rendering="geometricPrecision" shape-rendering="geometricPrecision" transform="matrix(1,0,0,1,-336,-145)" stroke="url(#linearGradient18)">
      <path d="M876.2 306 L985 306 L974.8 346 L866 346 Z" stroke="none" clip-path="url(#clipPath2)"/>
    </g>
    <g text-rendering="geometricPrecision" stroke-miterlimit="1.45" shape-rendering="geometricPrecision" transform="matrix(1,0,0,1,-336,-145)" stroke-linecap="butt">
      <path fill="none" d="M876.2 306 L985 306 L974.8 346 L866 346 Z" clip-path="url(#clipPath2)"/>
      <text x="878.6338" xml:space="preserve" y="330.1543" clip-path="url(#clipPath2)" font-family="sans-serif" stroke="none">2^LHS #= RHS</text>
    </g>
    <g fill="url(#linearGradient19)" text-rendering="geometricPrecision" shape-rendering="geometricPrecision" transform="matrix(1,0,0,1,-336,-145)" stroke="url(#linearGradient19)">
      <path d="M877.2 361 L986 361 L975.8 401 L867 401 Z" stroke="none" clip-path="url(#clipPath2)"/>
    </g>
    <g text-rendering="geometricPrecision" stroke-miterlimit="1.45" shape-rendering="geometricPrecision" transform="matrix(1,0,0,1,-336,-145)" stroke-linecap="butt">
      <path fill="none" d="M877.2 361 L986 361 L975.8 401 L867 401 Z" clip-path="url(#clipPath2)"/>
      <text x="879.6338" xml:space="preserve" y="385.1543" clip-path="url(#clipPath2)" font-family="sans-serif" stroke="none">2^LHS #= RHS</text>
    </g>
    <g fill="url(#linearGradient20)" text-rendering="geometricPrecision" shape-rendering="geometricPrecision" transform="matrix(1,0,0,1,-336,-145)" stroke="url(#linearGradient20)">
      <path d="M877.2 416 L986 416 L975.8 456 L867 456 Z" stroke="none" clip-path="url(#clipPath2)"/>
    </g>
    <g text-rendering="geometricPrecision" stroke-miterlimit="1.45" shape-rendering="geometricPrecision" transform="matrix(1,0,0,1,-336,-145)" stroke-linecap="butt">
      <path fill="none" d="M877.2 416 L986 416 L975.8 456 L867 456 Z" clip-path="url(#clipPath2)"/>
      <text x="879.6338" xml:space="preserve" y="440.1543" clip-path="url(#clipPath2)" font-family="sans-serif" stroke="none">2^LHS #= RHS</text>
    </g>
    <g text-rendering="geometricPrecision" stroke-miterlimit="1.45" shape-rendering="geometricPrecision" transform="matrix(1,0,0,1,-336,-145)" stroke-linecap="butt">
      <path fill="none" d="M1318 246 L1308 246 L1308 286 L1318 286" clip-path="url(#clipPath2)"/>
      <text x="1325.5352" xml:space="preserve" y="270.1543" clip-path="url(#clipPath2)" font-family="sans-serif" stroke="none">Largest</text>
    </g>
    <g text-rendering="geometricPrecision" stroke-miterlimit="1.45" shape-rendering="geometricPrecision" transform="matrix(1,0,0,1,-336,-145)" stroke-linecap="butt">
      <path fill="none" d="M545 238 L555 238 L555 278 L545 278" clip-path="url(#clipPath2)"/>
      <text x="492.5352" xml:space="preserve" y="262.1543" clip-path="url(#clipPath2)" font-family="sans-serif" stroke="none">Largest</text>
    </g>
    <g fill="url(#linearGradient21)" text-rendering="geometricPrecision" shape-rendering="geometricPrecision" transform="matrix(1,0,0,1,-336,-145)" stroke="url(#linearGradient21)">
      <path d="M1158.5 160 L1279.5 160 L1279.5 200 L1158.5 200 Z" stroke="none" clip-path="url(#clipPath2)"/>
    </g>
    <g text-rendering="geometricPrecision" stroke-miterlimit="1.45" shape-rendering="geometricPrecision" transform="matrix(1,0,0,1,-336,-145)" stroke-linecap="butt">
      <path fill="none" d="M1158.5 160 L1279.5 160 L1279.5 200 L1158.5 200 Z" clip-path="url(#clipPath2)"/>
      <text x="1175.0693" xml:space="preserve" y="184.1543" clip-path="url(#clipPath2)" font-family="sans-serif" stroke="none">list of length N</text>
    </g>
    <g fill="url(#linearGradient22)" text-rendering="geometricPrecision" shape-rendering="geometricPrecision" transform="matrix(1,0,0,1,-336,-145)" stroke="url(#linearGradient22)">
      <rect x="736" width="142" height="64" y="502" clip-path="url(#clipPath2)" stroke="none"/>
    </g>
    <g text-rendering="geometricPrecision" stroke-miterlimit="1.45" shape-rendering="geometricPrecision" transform="matrix(1,0,0,1,-336,-145)" stroke-linecap="butt">
      <path fill="none" d="M736 510 L736 502 L878 502 L878 510" clip-path="url(#clipPath2)"/>
      <text x="755.4023" xml:space="preserve" y="531.1699" clip-path="url(#clipPath2)" font-family="sans-serif" stroke="none">Label Exponents,</text>
      <text x="751.2217" xml:space="preserve" y="545.1387" clip-path="url(#clipPath2)" font-family="sans-serif" stroke="none">largest to smallest</text>
    </g>
    <g text-rendering="geometricPrecision" stroke-miterlimit="1.45" shape-rendering="geometricPrecision" transform="matrix(1,0,0,1,-336,-145)" stroke-linecap="butt">
      <path fill="none" d="M651 260.4993 L651 281.0265" clip-path="url(#clipPath2)"/>
    </g>
    <g text-rendering="geometricPrecision" stroke-miterlimit="1.45" shape-rendering="geometricPrecision" transform="matrix(1,0,0,1,-336,-145)" stroke-linecap="butt">
      <path fill="none" d="M1219 256.9688 L1219 281.0053" clip-path="url(#clipPath2)"/>
      <path fill="none" d="M1259.0291 320.5491 L1307.9891 344.4598" clip-path="url(#clipPath2)"/>
      <path fill="none" d="M1259.0291 348.137 L1307.9891 356.8663" clip-path="url(#clipPath2)"/>
      <path fill="none" d="M1259.0291 375.7249 L1307.9891 369.2727" clip-path="url(#clipPath2)"/>
      <path fill="none" d="M1259.0291 403.3127 L1307.9891 381.6792" clip-path="url(#clipPath2)"/>
      <path fill="none" d="M1442.073 364 L1396.0085 364" clip-path="url(#clipPath2)"/>
      <path d="M1388.0085 364 L1400.0085 369 L1397.0085 364 L1400.0085 359 Z" clip-path="url(#clipPath2)" stroke="none"/>
      <path fill="none" d="M1511.918 364 L1540.9911 364" clip-path="url(#clipPath2)"/>
      <path d="M1548.9911 364 L1536.9911 359 L1539.9911 364 L1536.9911 369 Z" clip-path="url(#clipPath2)" stroke="none"/>
      <path fill="none" d="M651 199.9993 L651 220.5265" clip-path="url(#clipPath2)"/>
      <path fill="none" d="M477.2415 401.0049 L609.3232 324.9867" clip-path="url(#clipPath2)"/>
      <path d="M616.2568 320.9961 L603.3623 322.6484 L608.4565 325.4855 L608.3505 331.3155 Z" clip-path="url(#clipPath2)" stroke="none"/>
      <path fill="none" d="M481.1611 406.166 L603.5176 359.2187" clip-path="url(#clipPath2)"/>
      <path d="M610.9866 356.3528 L597.9919 355.9834 L602.5839 359.5769 L601.5742 365.3197 Z" clip-path="url(#clipPath2)" stroke="none"/>
      <path fill="none" d="M479.1758 413.9639 L603.1656 390.1768" clip-path="url(#clipPath2)"/>
      <path d="M611.0224 388.6696 L598.2953 386.0201 L602.1836 390.3653 L600.1794 395.8409 Z" clip-path="url(#clipPath2)" stroke="none"/>
      <path fill="none" d="M477.3942 421 L603.0317 421" clip-path="url(#clipPath2)"/>
      <path d="M611.0317 421 L599.0317 416 L602.0317 421 L599.0317 426 Z" clip-path="url(#clipPath2)" stroke="none"/>
      <path fill="none" d="M489.9564 319.9877 L603.0693 306.6512" clip-path="url(#clipPath2)"/>
      <path d="M611.0143 305.7145 L598.5114 302.154 L602.0762 306.7683 L599.6823 312.0852 Z" clip-path="url(#clipPath2)" stroke="none"/>
      <path fill="none" d="M486.9374 331.6864 L602.9985 338.275" clip-path="url(#clipPath2)"/>
      <path d="M610.9857 338.7285 L599.2883 333.0563 L602.0001 338.2184 L598.7216 343.0403 Z" clip-path="url(#clipPath2)" stroke="none"/>
      <path fill="none" d="M484.2538 342.4081 L603.1885 369.9345" clip-path="url(#clipPath2)"/>
      <path d="M610.9825 371.7383 L600.4189 364.1613 L602.2143 369.709 L598.1642 373.9038 Z" clip-path="url(#clipPath2)" stroke="none"/>
      <path fill="none" d="M471.2272 347.9918 L603.6042 401.752" clip-path="url(#clipPath2)"/>
      <path d="M611.0164 404.7621 L601.7795 395.6143 L602.6777 401.3757 L598.0169 404.8795 Z" clip-path="url(#clipPath2)" stroke="none"/>
      <path fill="none" d="M870.5192 277.0754 L733 292 L698.9513 295.7371" clip-path="url(#clipPath2)"/>
      <path d="M690.999 296.6099 L703.4729 300.2708 L699.9453 295.628 L702.3819 290.3305 Z" clip-path="url(#clipPath2)" stroke="none"/>
      <path fill="none" d="M979.0898 278.0276 L1151 301 L1170.9902 301" clip-path="url(#clipPath2)"/>
      <path d="M1178.9902 301 L1166.9902 296 L1169.9902 301 L1166.9902 306 Z" clip-path="url(#clipPath2)" stroke="none"/>
      <path fill="none" d="M979.0007 329.5431 L1152 341 L1170.9897 341" clip-path="url(#clipPath2)"/>
      <path d="M1178.9897 341 L1166.9897 336 L1169.9897 341 L1166.9897 346 Z" clip-path="url(#clipPath2)" stroke="none"/>
      <path fill="none" d="M870.0111 330.1931 L727 341 L698.9668 341" clip-path="url(#clipPath2)"/>
      <path d="M690.9668 341 L702.9668 346 L699.9668 341 L702.9668 336 Z" clip-path="url(#clipPath2)" stroke="none"/>
      <path fill="none" d="M980.898 381 L1137 381 L1171.001 381" clip-path="url(#clipPath2)"/>
      <path d="M1179.001 381 L1167.001 376 L1170.001 381 L1167.001 386 Z" clip-path="url(#clipPath2)" stroke="none"/>
      <path fill="none" d="M872.132 381 L742 381 L699.0347 381" clip-path="url(#clipPath2)"/>
      <path d="M691.0347 381 L703.0347 386 L700.0347 381 L703.0347 376 Z" clip-path="url(#clipPath2)" stroke="none"/>
      <path fill="none" d="M982.2466 430.7778 L1140 416 L1171.0145 417.963" clip-path="url(#clipPath2)"/>
      <path d="M1178.9985 418.4683 L1167.3383 412.7203 L1170.0165 417.8998 L1166.7067 422.7003 Z" clip-path="url(#clipPath2)" stroke="none"/>
      <path fill="none" d="M873.3243 431.2942 L757 421 L698.9829 421" clip-path="url(#clipPath2)"/>
      <path d="M690.9829 421 L702.9829 426 L699.9829 421 L702.9829 416 Z" clip-path="url(#clipPath2)" stroke="none"/>
      <path fill="none" d="M1307.9709 276.8606 L1259.0109 290.1443" clip-path="url(#clipPath2)"/>
      <path fill="none" d="M555.0098 270.6501 L611.0197 288.3592" clip-path="url(#clipPath2)"/>
      <path fill="none" d="M1219 200.0112 L1219 217.0246" clip-path="url(#clipPath2)"/>
      <path fill="none" d="M678.6123 441.0012 L762.8354 502.009" clip-path="url(#clipPath2)"/>
    </g>
  </g>
</svg>
