<?xml version="1.0" encoding="UTF-8"?><svg xmlns="http://www.w3.org/2000/svg" xmlns:xlink="http://www.w3.org/1999/xlink" fill-opacity="1" color-rendering="auto" color-interpolation="auto" text-rendering="auto" stroke="black" stroke-linecap="square" width="1832" stroke-miterlimit="10" shape-rendering="auto" stroke-opacity="1" fill="black" stroke-dasharray="none" font-weight="normal" stroke-width="1" height="1462" font-family="'Dialog'" font-style="normal" stroke-linejoin="miter" font-size="12px" stroke-dashoffset="0" image-rendering="auto">
  <!--Generated by ySVG 2.5-->
  <defs id="genericDefs"/>
  <g>
    <defs id="defs1">
      <linearGradient x1="979.6343" gradientUnits="userSpaceOnUse" x2="1243.6343" y1="31.5343" y2="89.5343" id="linearGradient1" spreadMethod="reflect">
        <stop stop-opacity="1" stop-color="rgb(183,201,227)" offset="0%"/>
        <stop stop-opacity="1" stop-color="rgb(183,201,227)" offset="100%"/>
      </linearGradient>
      <linearGradient x1="848.9142" gradientUnits="userSpaceOnUse" x2="1072.9143" y1="215.944" y2="303.944" id="linearGradient2" spreadMethod="reflect">
        <stop stop-opacity="1" stop-color="rgb(183,201,227)" offset="0%"/>
        <stop stop-opacity="1" stop-color="rgb(183,201,227)" offset="100%"/>
      </linearGradient>
      <linearGradient x1="1092.2987" gradientUnits="userSpaceOnUse" x2="1269.8197" y1="750.8588" y2="867.7974" id="linearGradient3" spreadMethod="reflect">
        <stop stop-opacity="1" stop-color="rgb(183,201,227)" offset="0%"/>
        <stop stop-opacity="1" stop-color="rgb(183,201,227)" offset="100%"/>
      </linearGradient>
      <linearGradient x1="1471.7643" gradientUnits="userSpaceOnUse" x2="1820.8625" y1="197.0226" y2="322.8654" id="linearGradient4" spreadMethod="reflect">
        <stop stop-opacity="1" stop-color="rgb(255,255,153)" offset="0%"/>
        <stop stop-opacity="1" stop-color="rgb(255,255,153)" offset="100%"/>
      </linearGradient>
      <linearGradient x1="1205.4768" gradientUnits="userSpaceOnUse" x2="1429.4768" y1="215.944" y2="303.944" id="linearGradient5" spreadMethod="reflect">
        <stop stop-opacity="1" stop-color="rgb(183,201,227)" offset="0%"/>
        <stop stop-opacity="1" stop-color="rgb(183,201,227)" offset="100%"/>
      </linearGradient>
      <linearGradient x1="637.1437" gradientUnits="userSpaceOnUse" x2="881.4559" y1="406.25" y2="501.75" id="linearGradient6" spreadMethod="reflect">
        <stop stop-opacity="1" stop-color="rgb(183,201,227)" offset="0%"/>
        <stop stop-opacity="1" stop-color="rgb(183,201,227)" offset="100%"/>
      </linearGradient>
      <linearGradient x1="1069.0592" gradientUnits="userSpaceOnUse" x2="1293.0592" y1="406.25" y2="501.75" id="linearGradient7" spreadMethod="reflect">
        <stop stop-opacity="1" stop-color="rgb(183,201,227)" offset="0%"/>
        <stop stop-opacity="1" stop-color="rgb(183,201,227)" offset="100%"/>
      </linearGradient>
      <linearGradient x1="1018.2777" gradientUnits="userSpaceOnUse" x2="1343.8407" y1="1126.9711" y2="1260.6051" id="linearGradient8" spreadMethod="reflect">
        <stop stop-opacity="1" stop-color="blue" offset="0%"/>
        <stop stop-opacity="1" stop-color="blue" offset="100%"/>
      </linearGradient>
      <linearGradient x1="1333.2853" gradientUnits="userSpaceOnUse" x2="1557.2853" y1="574.2527" y2="642.2527" id="linearGradient9" spreadMethod="reflect">
        <stop stop-opacity="1" stop-color="rgb(183,201,227)" offset="0%"/>
        <stop stop-opacity="1" stop-color="rgb(183,201,227)" offset="100%"/>
      </linearGradient>
      <linearGradient x1="1478.8135" gradientUnits="userSpaceOnUse" x2="1811.5874" y1="425" y2="483" id="linearGradient10" spreadMethod="reflect">
        <stop stop-opacity="1" stop-color="rgb(255,255,153)" offset="0%"/>
        <stop stop-opacity="1" stop-color="rgb(255,255,153)" offset="100%"/>
      </linearGradient>
      <linearGradient x1="69.4812" gradientUnits="userSpaceOnUse" x2="546.5651" y1="741" y2="968.4064" id="linearGradient11" spreadMethod="reflect">
        <stop stop-opacity="1" stop-color="rgb(255,255,153)" offset="0%"/>
        <stop stop-opacity="1" stop-color="rgb(255,255,153)" offset="100%"/>
      </linearGradient>
      <linearGradient x1="1128.9258" gradientUnits="userSpaceOnUse" x2="1233.1926" y1="955.1592" y2="1023.1592" id="linearGradient12" spreadMethod="reflect">
        <stop stop-opacity="1" stop-color="rgb(232,238,247)" offset="0%"/>
        <stop stop-opacity="1" stop-color="rgb(183,201,227)" offset="100%"/>
      </linearGradient>
      <linearGradient x1="339.7625" gradientUnits="userSpaceOnUse" x2="508.3049" y1="96.1347" y2="184.1347" id="linearGradient13" spreadMethod="reflect">
        <stop stop-opacity="1" stop-color="rgb(204,153,255)" offset="0%"/>
        <stop stop-opacity="1" stop-color="rgb(204,153,255)" offset="100%"/>
      </linearGradient>
      <linearGradient x1="167.0196" gradientUnits="userSpaceOnUse" x2="508.3049" y1="-75.104" y2="77.4019" id="linearGradient14" spreadMethod="reflect">
        <stop stop-opacity="1" stop-color="rgb(204,153,255)" offset="0%"/>
        <stop stop-opacity="1" stop-color="rgb(204,153,255)" offset="100%"/>
      </linearGradient>
      <linearGradient x1="1600.1332" gradientUnits="userSpaceOnUse" x2="1836.074" y1="531.9998" y2="684.5056" id="linearGradient15" spreadMethod="reflect">
        <stop stop-opacity="1" stop-color="rgb(255,255,153)" offset="0%"/>
        <stop stop-opacity="1" stop-color="rgb(255,255,153)" offset="100%"/>
      </linearGradient>
      <linearGradient x1="1532.9552" gradientUnits="userSpaceOnUse" x2="1710.4762" y1="751.3383" y2="867.3179" id="linearGradient16" spreadMethod="reflect">
        <stop stop-opacity="1" stop-color="rgb(183,201,227)" offset="0%"/>
        <stop stop-opacity="1" stop-color="rgb(183,201,227)" offset="100%"/>
      </linearGradient>
      <linearGradient x1="725.0075" gradientUnits="userSpaceOnUse" x2="960.9483" y1="1146.0381" y2="1241.5381" id="linearGradient17" spreadMethod="reflect">
        <stop stop-opacity="1" stop-color="rgb(255,255,153)" offset="0%"/>
        <stop stop-opacity="1" stop-color="rgb(255,255,153)" offset="100%"/>
      </linearGradient>
      <linearGradient x1="1373.8407" gradientUnits="userSpaceOnUse" x2="1453.8407" y1="789.3281" y2="829.3281" id="linearGradient18" spreadMethod="reflect">
        <stop stop-opacity="1" stop-color="rgb(232,238,247)" offset="0%"/>
        <stop stop-opacity="1" stop-color="rgb(183,201,227)" offset="100%"/>
      </linearGradient>
      <linearGradient x1="1373.8407" gradientUnits="userSpaceOnUse" x2="1869.5907" y1="1009.5121" y2="1355.2122" id="linearGradient19" spreadMethod="reflect">
        <stop stop-opacity="1" stop-color="rgb(204,153,255)" offset="0%"/>
        <stop stop-opacity="1" stop-color="rgb(204,153,255)" offset="100%"/>
      </linearGradient>
      <linearGradient x1="1361.7073" gradientUnits="userSpaceOnUse" x2="1465.9741" y1="702.0623" y2="770.0623" id="linearGradient20" spreadMethod="reflect">
        <stop stop-opacity="1" stop-color="rgb(232,238,247)" offset="0%"/>
        <stop stop-opacity="1" stop-color="rgb(183,201,227)" offset="100%"/>
      </linearGradient>
      <linearGradient x1="596.5183" gradientUnits="userSpaceOnUse" x2="922.0813" y1="797.6251" y2="900.6509" id="linearGradient21" spreadMethod="reflect">
        <stop stop-opacity="1" stop-color="blue" offset="0%"/>
        <stop stop-opacity="1" stop-color="blue" offset="100%"/>
      </linearGradient>
      <linearGradient x1="707.1664" gradientUnits="userSpaceOnUse" x2="811.4332" y1="574.2527" y2="642.2527" id="linearGradient22" spreadMethod="reflect">
        <stop stop-opacity="1" stop-color="rgb(232,238,247)" offset="0%"/>
        <stop stop-opacity="1" stop-color="rgb(183,201,227)" offset="100%"/>
      </linearGradient>
      <linearGradient x1="579.6887" gradientUnits="userSpaceOnUse" x2="731.259" y1="-18.851" y2="21.149" id="linearGradient23" spreadMethod="reflect">
        <stop stop-opacity="1" stop-color="rgb(232,238,247)" offset="0%"/>
        <stop stop-opacity="1" stop-color="rgb(183,201,227)" offset="100%"/>
      </linearGradient>
      <linearGradient x1="579.6887" gradientUnits="userSpaceOnUse" x2="731.259" y1="112.3973" y2="167.8722" id="linearGradient24" spreadMethod="reflect">
        <stop stop-opacity="1" stop-color="rgb(232,238,247)" offset="0%"/>
        <stop stop-opacity="1" stop-color="rgb(183,201,227)" offset="100%"/>
      </linearGradient>
      <clipPath clipPathUnits="userSpaceOnUse" id="clipPath1">
        <path d="M0 0 L1832 0 L1832 1462 L0 1462 L0 0 Z"/>
      </clipPath>
      <clipPath clipPathUnits="userSpaceOnUse" id="clipPath2">
        <path d="M54 -91 L1886 -91 L1886 1371 L54 1371 L54 -91 Z"/>
      </clipPath>
    </defs>
    <g fill="white" text-rendering="geometricPrecision" shape-rendering="geometricPrecision" transform="translate(-54,91)" stroke="white">
      <rect x="54" width="1832" height="1462" y="-91" clip-path="url(#clipPath2)" stroke="none"/>
    </g>
    <g fill="url(#linearGradient1)" text-rendering="geometricPrecision" shape-rendering="geometricPrecision" transform="matrix(1,0,0,1,-54,91)" stroke="url(#linearGradient1)">
      <path d="M979.6343 31.5343 L1243.6343 31.5343 L1243.6343 89.5343 L979.6343 89.5343 Z" stroke="none" clip-path="url(#clipPath2)"/>
    </g>
    <g text-rendering="geometricPrecision" stroke-miterlimit="1.45" shape-rendering="geometricPrecision" transform="matrix(1,0,0,1,-54,91)" stroke-linecap="butt">
      <path fill="none" d="M979.6343 31.5343 L1243.6343 31.5343 L1243.6343 89.5343 L979.6343 89.5343 Z" clip-path="url(#clipPath2)"/>
      <text x="1006.9272" xml:space="preserve" y="64.6886" clip-path="url(#clipPath2)" font-family="sans-serif" stroke="none">All terms of the Herbrand Universe</text>
    </g>
    <g fill="url(#linearGradient2)" text-rendering="geometricPrecision" shape-rendering="geometricPrecision" transform="matrix(1,0,0,1,-54,91)" stroke="url(#linearGradient2)">
      <path d="M848.9142 215.944 L1072.9143 215.944 L1072.9143 303.944 L848.9142 303.944 Z" stroke="none" clip-path="url(#clipPath2)"/>
    </g>
    <g text-rendering="geometricPrecision" stroke-miterlimit="1.45" shape-rendering="geometricPrecision" transform="matrix(1,0,0,1,-54,91)" stroke-linecap="butt">
      <path fill="none" d="M848.9142 215.944 L1072.9143 215.944 L1072.9143 303.944 L848.9142 303.944 Z" clip-path="url(#clipPath2)"/>
      <text x="879.3664" xml:space="preserve" y="264.0983" clip-path="url(#clipPath2)" font-family="sans-serif" stroke="none">Terms in the domain of p/1</text>
    </g>
    <g fill="url(#linearGradient3)" text-rendering="geometricPrecision" shape-rendering="geometricPrecision" transform="matrix(1,0,0,1,-54,91)" stroke="url(#linearGradient3)">
      <path d="M1092.2987 750.8588 L1269.8197 750.8588 L1269.8197 867.7974 L1092.2987 867.7974 Z" stroke="none" clip-path="url(#clipPath2)"/>
    </g>
    <g text-rendering="geometricPrecision" stroke-miterlimit="1.45" shape-rendering="geometricPrecision" transform="matrix(1,0,0,1,-54,91)" stroke-linecap="butt">
      <path fill="none" d="M1092.2987 750.8588 L1269.8197 750.8588 L1269.8197 867.7974 L1092.2987 867.7974 Z" clip-path="url(#clipPath2)"/>
      <text x="1122.3043" xml:space="preserve" y="771.5761" clip-path="url(#clipPath2)" font-family="sans-serif" stroke="none">Terms for which</text>
      <text x="1122.3043" xml:space="preserve" y="785.5449" clip-path="url(#clipPath2)" font-family="sans-serif" stroke="none">queries p(x) or p(X)</text>
      <text x="1122.3043" xml:space="preserve" y="799.5136" clip-path="url(#clipPath2)" font-family="sans-serif" stroke="none">"finitely fail"</text>
      <text x="1122.3043" xml:space="preserve" y="813.4824" clip-path="url(#clipPath2)" font-family="sans-serif" stroke="none"> </text>
      <text x="1122.3043" xml:space="preserve" y="827.4511" clip-path="url(#clipPath2)" font-family="sans-serif" stroke="none">("finitely"</text>
      <text x="1122.3043" xml:space="preserve" y="841.4199" clip-path="url(#clipPath2)" font-family="sans-serif" stroke="none">may still be</text>
      <text x="1122.3043" xml:space="preserve" y="855.3886" clip-path="url(#clipPath2)" font-family="sans-serif" stroke="none">"intractably long")</text>
    </g>
    <g fill="url(#linearGradient4)" text-rendering="geometricPrecision" shape-rendering="geometricPrecision" transform="matrix(1,0,0,1,-54,91)" stroke="url(#linearGradient4)">
      <path d="M1471.7643 197.0226 L1820.8625 197.0226 L1820.8625 322.8654 L1471.7643 322.8654 Z" stroke="none" clip-path="url(#clipPath2)"/>
    </g>
    <g text-rendering="geometricPrecision" stroke-miterlimit="1.45" shape-rendering="geometricPrecision" font-family="sans-serif" transform="matrix(1,0,0,1,-54,91)" stroke-linecap="butt">
      <text x="1477.7643" xml:space="preserve" y="214.1613" clip-path="url(#clipPath2)" stroke="none">For any a in this set, p(x) should *probably*</text>
      <text x="1477.7643" xml:space="preserve" y="228.13" clip-path="url(#clipPath2)" stroke="none">throw (computational stance, whereby we are on</text>
      <text x="1477.7643" xml:space="preserve" y="242.0988" clip-path="url(#clipPath2)" stroke="none">the lookout for nonsense code and programming</text>
      <text x="1477.7643" xml:space="preserve" y="256.0675" clip-path="url(#clipPath2)" stroke="none">errors)</text>
      <text x="1477.7643" xml:space="preserve" y="270.0363" clip-path="url(#clipPath2)" stroke="none">... but depending on the application, failure is more</text>
      <text x="1477.7643" xml:space="preserve" y="284.005" clip-path="url(#clipPath2)" stroke="none">appropriate (logical stance, whereby p/1 is valid</text>
      <text x="1477.7643" xml:space="preserve" y="297.9738" clip-path="url(#clipPath2)" stroke="none">everywhere and we can continue doing conjunctions</text>
      <text x="1477.7643" xml:space="preserve" y="311.9425" clip-path="url(#clipPath2)" stroke="none">without bad surprises)</text>
    </g>
    <g fill="url(#linearGradient5)" text-rendering="geometricPrecision" shape-rendering="geometricPrecision" transform="matrix(1,0,0,1,-54,91)" stroke="url(#linearGradient5)">
      <path d="M1205.4768 215.944 L1429.4768 215.944 L1429.4768 303.944 L1205.4768 303.944 Z" stroke="none" clip-path="url(#clipPath2)"/>
    </g>
    <g text-rendering="geometricPrecision" stroke-miterlimit="1.45" shape-rendering="geometricPrecision" transform="matrix(1,0,0,1,-54,91)" stroke-linecap="butt">
      <path fill="none" d="M1205.4768 215.944 L1429.4768 215.944 L1429.4768 303.944 L1205.4768 303.944 Z" clip-path="url(#clipPath2)"/>
      <text x="1221.1458" xml:space="preserve" y="264.0983" clip-path="url(#clipPath2)" font-family="sans-serif" stroke="none">Terms NOT in the domain of p/1</text>
    </g>
    <g fill="url(#linearGradient6)" text-rendering="geometricPrecision" shape-rendering="geometricPrecision" transform="matrix(1,0,0,1,-54,91)" stroke="url(#linearGradient6)">
      <path d="M637.1437 406.25 L881.4559 406.25 L881.4559 501.75 L637.1437 501.75 Z" stroke="none" clip-path="url(#clipPath2)"/>
    </g>
    <g text-rendering="geometricPrecision" stroke-miterlimit="1.45" shape-rendering="geometricPrecision" transform="matrix(1,0,0,1,-54,91)" stroke-linecap="butt">
      <path fill="none" d="M637.1437 406.25 L881.4559 406.25 L881.4559 501.75 L637.1437 501.75 Z" clip-path="url(#clipPath2)"/>
      <text x="658.085" xml:space="preserve" y="430.2168" clip-path="url(#clipPath2)" font-family="sans-serif" stroke="none">Terms x for which p(x)</text>
      <text x="658.085" xml:space="preserve" y="444.1855" clip-path="url(#clipPath2)" font-family="sans-serif" stroke="none">succeeds.</text>
      <text x="658.085" xml:space="preserve" y="458.1543" clip-path="url(#clipPath2)" font-family="sans-serif" stroke="none"> </text>
      <text x="658.085" xml:space="preserve" y="472.123" clip-path="url(#clipPath2)" font-family="sans-serif" stroke="none">Also the set of terms enumerated</text>
      <text x="658.085" xml:space="preserve" y="486.0918" clip-path="url(#clipPath2)" font-family="sans-serif" stroke="none">by a query p(X)</text>
    </g>
    <g fill="url(#linearGradient7)" text-rendering="geometricPrecision" shape-rendering="geometricPrecision" transform="matrix(1,0,0,1,-54,91)" stroke="url(#linearGradient7)">
      <path d="M1069.0592 406.25 L1293.0592 406.25 L1293.0592 501.75 L1069.0592 501.75 Z" stroke="none" clip-path="url(#clipPath2)"/>
    </g>
    <g text-rendering="geometricPrecision" stroke-miterlimit="1.45" shape-rendering="geometricPrecision" transform="matrix(1,0,0,1,-54,91)" stroke-linecap="butt">
      <path fill="none" d="M1069.0592 406.25 L1293.0592 406.25 L1293.0592 501.75 L1069.0592 501.75 Z" clip-path="url(#clipPath2)"/>
      <text x="1113.316" xml:space="preserve" y="451.1699" clip-path="url(#clipPath2)" font-family="sans-serif" stroke="none">Terms x for which p(x)</text>
      <text x="1113.316" xml:space="preserve" y="465.1387" clip-path="url(#clipPath2)" font-family="sans-serif" stroke="none">does not succeed</text>
    </g>
    <g fill="url(#linearGradient8)" text-rendering="geometricPrecision" shape-rendering="geometricPrecision" transform="matrix(1,0,0,1,-54,91)" stroke="url(#linearGradient8)">
      <path d="M1018.2777 1126.9711 L1343.8407 1126.9711 L1343.8407 1260.6051 L1018.2777 1260.6051 Z" stroke="none" clip-path="url(#clipPath2)"/>
    </g>
    <g text-rendering="geometricPrecision" stroke-miterlimit="1.45" shape-rendering="geometricPrecision" transform="matrix(1,0,0,1,-54,91)" stroke-linecap="butt">
      <path fill="none" d="M1018.2777 1126.9711 L1343.8407 1126.9711 L1343.8407 1260.6051 L1018.2777 1260.6051 Z" clip-path="url(#clipPath2)"/>
      <text x="1024.2777" y="1149.0518" clip-path="url(#clipPath2)" fill="yellow" font-family="sans-serif" stroke="none" xml:space="preserve">p(x) is labeled "false"</text>
      <text x="1024.2777" y="1163.0205" clip-path="url(#clipPath2)" fill="yellow" font-family="sans-serif" stroke="none" xml:space="preserve">or</text>
      <text x="1024.2777" y="1176.9893" clip-path="url(#clipPath2)" fill="yellow" font-family="sans-serif" stroke="none" xml:space="preserve">∀X: 'p(X) is labeled "false"'</text>
      <text x="1024.2777" y="1190.958" clip-path="url(#clipPath2)" fill="yellow" font-family="sans-serif" stroke="none" xml:space="preserve"> </text>
      <text x="1024.2777" y="1204.9268" clip-path="url(#clipPath2)" fill="yellow" font-family="sans-serif" stroke="none" xml:space="preserve">aka. "weakly false",</text>
      <text x="1024.2777" y="1218.8955" clip-path="url(#clipPath2)" fill="yellow" font-family="sans-serif" stroke="none" xml:space="preserve">aka "false by default",</text>
      <text x="1024.2777" y="1232.8643" clip-path="url(#clipPath2)" fill="yellow" font-family="sans-serif" stroke="none" xml:space="preserve">aka "there is no proof for p(x) or any p(X),</text>
      <text x="1024.2777" y="1246.833" clip-path="url(#clipPath2)" fill="yellow" font-family="sans-serif" stroke="none" xml:space="preserve">aka "there is no no evidence for p(X) or any p(X)"</text>
    </g>
    <g fill="url(#linearGradient9)" text-rendering="geometricPrecision" shape-rendering="geometricPrecision" transform="matrix(1,0,0,1,-54,91)" stroke="url(#linearGradient9)">
      <path d="M1333.2853 574.2527 L1557.2853 574.2527 L1557.2853 642.2527 L1333.2853 642.2527 Z" stroke="none" clip-path="url(#clipPath2)"/>
    </g>
    <g text-rendering="geometricPrecision" stroke-miterlimit="1.45" shape-rendering="geometricPrecision" transform="matrix(1,0,0,1,-54,91)" stroke-linecap="butt">
      <path fill="none" d="M1333.2853 574.2527 L1557.2853 574.2527 L1557.2853 642.2527 L1333.2853 642.2527 Z" clip-path="url(#clipPath2)"/>
      <text x="1378.7726" xml:space="preserve" y="598.4382" clip-path="url(#clipPath2)" font-family="sans-serif" stroke="none">Terms for which</text>
      <text x="1378.7726" xml:space="preserve" y="612.407" clip-path="url(#clipPath2)" font-family="sans-serif" stroke="none">p(x) or p(X) cannot be</text>
      <text x="1378.7726" xml:space="preserve" y="626.3757" clip-path="url(#clipPath2)" font-family="sans-serif" stroke="none">computed. </text>
    </g>
    <g fill="url(#linearGradient10)" text-rendering="geometricPrecision" shape-rendering="geometricPrecision" transform="matrix(1,0,0,1,-54,91)" stroke="url(#linearGradient10)">
      <path d="M1478.8135 425 L1811.5874 425 L1811.5874 483 L1478.8135 483 Z" stroke="none" clip-path="url(#clipPath2)"/>
    </g>
    <g text-rendering="geometricPrecision" stroke-miterlimit="1.45" shape-rendering="geometricPrecision" font-family="sans-serif" transform="matrix(1,0,0,1,-54,91)" stroke-linecap="butt">
      <text x="1484.8135" xml:space="preserve" y="444.1855" clip-path="url(#clipPath2)" stroke="none">Closed world assumption: </text>
      <text x="1484.8135" xml:space="preserve" y="458.1543" clip-path="url(#clipPath2)" stroke="none">These are the Terms x for which p(x)</text>
      <text x="1484.8135" xml:space="preserve" y="472.123" clip-path="url(#clipPath2)" stroke="none">shall be labeled "false"</text>
    </g>
    <g fill="url(#linearGradient11)" text-rendering="geometricPrecision" shape-rendering="geometricPrecision" transform="matrix(1,0,0,1,-54,91)" stroke="url(#linearGradient11)">
      <path d="M69.4812 741 L546.5651 741 L546.5651 968.4064 L69.4812 968.4064 Z" stroke="none" clip-path="url(#clipPath2)"/>
    </g>
    <g text-rendering="geometricPrecision" stroke-miterlimit="1.45" shape-rendering="geometricPrecision" font-family="sans-serif" transform="matrix(1,0,0,1,-54,91)" stroke-linecap="butt">
      <text x="75.4812" xml:space="preserve" y="758.1387" clip-path="url(#clipPath2)" stroke="none">The program is "correct" if this corresponds</text>
      <text x="75.4812" xml:space="preserve" y="772.1074" clip-path="url(#clipPath2)" stroke="none">to the intended model</text>
      <text x="75.4812" xml:space="preserve" y="786.0762" clip-path="url(#clipPath2)" stroke="none"> </text>
      <text x="75.4812" xml:space="preserve" y="800.0449" clip-path="url(#clipPath2)" stroke="none">COMPLETE relative to the model: The program all the the ground atoms</text>
      <text x="75.4812" xml:space="preserve" y="814.0137" clip-path="url(#clipPath2)" stroke="none">TRUE which are TRUE in the model.</text>
      <text x="75.4812" xml:space="preserve" y="827.9824" clip-path="url(#clipPath2)" stroke="none"> </text>
      <text x="75.4812" xml:space="preserve" y="841.9512" clip-path="url(#clipPath2)" stroke="none">SOUND relative to the model: The program labels no ground atom TRUE</text>
      <text x="75.4812" xml:space="preserve" y="855.9199" clip-path="url(#clipPath2)" stroke="none">which is not TRUE in the model (if the model is based on classical logic,</text>
      <text x="75.4812" xml:space="preserve" y="869.8887" clip-path="url(#clipPath2)" stroke="none">this is equivalent to being FALSE in the model)</text>
      <text x="75.4812" xml:space="preserve" y="883.8574" clip-path="url(#clipPath2)" stroke="none"> </text>
      <text x="75.4812" xml:space="preserve" y="897.8262" clip-path="url(#clipPath2)" stroke="none">(Note that SOUNDNESS is often more important than COMPLETENESS)</text>
      <text x="75.4812" xml:space="preserve" y="911.7949" clip-path="url(#clipPath2)" stroke="none"> </text>
      <text x="75.4812" xml:space="preserve" y="925.7637" clip-path="url(#clipPath2)" stroke="none">The program is INCONSISTENT if it labels an atom both TRUE and FALSE</text>
      <text x="75.4812" xml:space="preserve" y="939.7324" clip-path="url(#clipPath2)" stroke="none">which is actually not possible in Prolog as one ONLY LABELS TRUE.</text>
      <text x="75.4812" xml:space="preserve" y="953.7012" clip-path="url(#clipPath2)" stroke="none">FALSE is a default value.</text>
    </g>
    <g fill="url(#linearGradient12)" text-rendering="geometricPrecision" shape-rendering="geometricPrecision" transform="matrix(1,0,0,1,-54,91)" stroke="url(#linearGradient12)">
      <ellipse rx="52.1334" ry="34" clip-path="url(#clipPath2)" cx="1181.0592" cy="989.1593" stroke="none"/>
    </g>
    <g text-rendering="geometricPrecision" stroke-miterlimit="1.45" shape-rendering="geometricPrecision" transform="matrix(1,0,0,1,-54,91)" stroke-linecap="butt">
      <ellipse rx="52.1334" fill="none" ry="34" clip-path="url(#clipPath2)" cx="1181.0592" cy="989.1593"/>
      <text x="1169.0153" xml:space="preserve" y="986.3292" clip-path="url(#clipPath2)" font-family="sans-serif" stroke="none">NAF</text>
      <text x="1139.5895" xml:space="preserve" y="1000.2979" clip-path="url(#clipPath2)" font-family="sans-serif" stroke="none">interpretation</text>
    </g>
    <g fill="url(#linearGradient13)" text-rendering="geometricPrecision" shape-rendering="geometricPrecision" transform="matrix(1,0,0,1,-54,91)" stroke="url(#linearGradient13)">
      <path d="M339.7625 96.1347 L508.3049 96.1347 L508.3049 184.1347 L339.7625 184.1347 Z" stroke="none" clip-path="url(#clipPath2)"/>
    </g>
    <g text-rendering="geometricPrecision" stroke-miterlimit="1.45" shape-rendering="geometricPrecision" transform="matrix(1,0,0,1,-54,91)" stroke-linecap="butt">
      <path fill="none" d="M339.7625 96.1347 L508.3049 96.1347 L508.3049 184.1347 L339.7625 184.1347 Z" clip-path="url(#clipPath2)"/>
      <text x="345.7625" xml:space="preserve" y="116.3515" clip-path="url(#clipPath2)" font-family="sans-serif" stroke="none">For some ground term 'a':</text>
      <text x="345.7625" xml:space="preserve" y="130.3203" clip-path="url(#clipPath2)" font-family="sans-serif" stroke="none"> </text>
      <text x="345.7625" xml:space="preserve" y="144.289" clip-path="url(#clipPath2)" font-family="sans-serif" stroke="none">?- p(a).</text>
      <text x="345.7625" xml:space="preserve" y="158.2578" clip-path="url(#clipPath2)" font-family="sans-serif" stroke="none"> </text>
      <text x="345.7625" xml:space="preserve" y="172.2265" clip-path="url(#clipPath2)" font-family="sans-serif" stroke="none">"Does p(a) succeed?"</text>
    </g>
    <g fill="url(#linearGradient14)" text-rendering="geometricPrecision" shape-rendering="geometricPrecision" transform="matrix(1,0,0,1,-54,91)" stroke="url(#linearGradient14)">
      <path d="M167.0196 -75.104 L508.3049 -75.104 L508.3049 77.4019 L167.0196 77.4019 Z" stroke="none" clip-path="url(#clipPath2)"/>
    </g>
    <g text-rendering="geometricPrecision" stroke-miterlimit="1.45" shape-rendering="geometricPrecision" transform="matrix(1,0,0,1,-54,91)" stroke-linecap="butt">
      <path fill="none" d="M167.0196 -75.104 L508.3049 -75.104 L508.3049 77.4019 L167.0196 77.4019 Z" clip-path="url(#clipPath2)"/>
      <text x="173.0196" xml:space="preserve" y="-57.5561" clip-path="url(#clipPath2)" font-family="sans-serif" stroke="none">For some unbound variable X (or alternatively</text>
      <text x="173.0196" xml:space="preserve" y="-43.5874" clip-path="url(#clipPath2)" font-family="sans-serif" stroke="none">a partial term X):</text>
      <text x="173.0196" xml:space="preserve" y="-29.6186" clip-path="url(#clipPath2)" font-family="sans-serif" stroke="none"> </text>
      <text x="173.0196" xml:space="preserve" y="-15.6499" clip-path="url(#clipPath2)" font-family="sans-serif" stroke="none">?- p(X).</text>
      <text x="173.0196" xml:space="preserve" y="-1.6811" clip-path="url(#clipPath2)" font-family="sans-serif" stroke="none"> </text>
      <text x="173.0196" xml:space="preserve" y="12.2876" clip-path="url(#clipPath2)" font-family="sans-serif" stroke="none">"Is there an X (a proof witness) such that</text>
      <text x="173.0196" xml:space="preserve" y="26.2564" clip-path="url(#clipPath2)" font-family="sans-serif" stroke="none"> p(X) succeeds? Give me X."</text>
      <text x="173.0196" xml:space="preserve" y="40.2251" clip-path="url(#clipPath2)" font-family="sans-serif" stroke="none"> </text>
      <text x="173.0196" xml:space="preserve" y="54.1939" clip-path="url(#clipPath2)" font-family="sans-serif" stroke="none">(Prolog may yield a "template" for X, e.g. for</text>
      <text x="173.0196" xml:space="preserve" y="68.1626" clip-path="url(#clipPath2)" font-family="sans-serif" stroke="none"> for length(L,5) you get L=[X,X,X,X,X])</text>
    </g>
    <g fill="url(#linearGradient15)" text-rendering="geometricPrecision" shape-rendering="geometricPrecision" transform="matrix(1,0,0,1,-54,91)" stroke="url(#linearGradient15)">
      <path d="M1600.1332 531.9998 L1836.074 531.9998 L1836.074 684.5056 L1600.1332 684.5056 Z" stroke="none" clip-path="url(#clipPath2)"/>
    </g>
    <g text-rendering="geometricPrecision" stroke-miterlimit="1.45" shape-rendering="geometricPrecision" font-family="sans-serif" transform="matrix(1,0,0,1,-54,91)" stroke-linecap="butt">
      <text x="1606.1332" xml:space="preserve" y="556.532" clip-path="url(#clipPath2)" stroke="none">Trivially, because one has</text>
      <text x="1606.1332" xml:space="preserve" y="570.5007" clip-path="url(#clipPath2)" stroke="none">to search infinitely long to</text>
      <text x="1606.1332" xml:space="preserve" y="584.4695" clip-path="url(#clipPath2)" stroke="none">be sure of "lack of success";</text>
      <text x="1606.1332" xml:space="preserve" y="598.4382" clip-path="url(#clipPath2)" stroke="none">e.g. waiting for a Turing Machine</text>
      <text x="1606.1332" xml:space="preserve" y="612.407" clip-path="url(#clipPath2)" stroke="none">to halt. </text>
      <text x="1606.1332" xml:space="preserve" y="626.3757" clip-path="url(#clipPath2)" stroke="none">A failure of SLD due to left</text>
      <text x="1606.1332" xml:space="preserve" y="640.3445" clip-path="url(#clipPath2)" stroke="none">recursion is another problem.</text>
      <text x="1606.1332" xml:space="preserve" y="654.3132" clip-path="url(#clipPath2)" stroke="none">You can always perform iterative</text>
      <text x="1606.1332" xml:space="preserve" y="668.282" clip-path="url(#clipPath2)" stroke="none">deepening...</text>
    </g>
    <g fill="url(#linearGradient16)" text-rendering="geometricPrecision" shape-rendering="geometricPrecision" transform="matrix(1,0,0,1,-54,91)" stroke="url(#linearGradient16)">
      <path d="M1532.9552 751.3383 L1710.4762 751.3383 L1710.4762 867.3179 L1532.9552 867.3179 Z" stroke="none" clip-path="url(#clipPath2)"/>
    </g>
    <g text-rendering="geometricPrecision" stroke-miterlimit="1.45" shape-rendering="geometricPrecision" transform="matrix(1,0,0,1,-54,91)" stroke-linecap="butt">
      <path fill="none" d="M1532.9552 751.3383 L1710.4762 751.3383 L1710.4762 867.3179 L1532.9552 867.3179 Z" clip-path="url(#clipPath2)"/>
      <text x="1545.163" xml:space="preserve" y="778.5605" clip-path="url(#clipPath2)" font-family="sans-serif" stroke="none">Terms for which</text>
      <text x="1545.163" xml:space="preserve" y="792.5292" clip-path="url(#clipPath2)" font-family="sans-serif" stroke="none">queries</text>
      <text x="1545.163" xml:space="preserve" y="806.498" clip-path="url(#clipPath2)" font-family="sans-serif" stroke="none">\+ p(x) </text>
      <text x="1545.163" xml:space="preserve" y="820.4667" clip-path="url(#clipPath2)" font-family="sans-serif" stroke="none">or </text>
      <text x="1545.163" xml:space="preserve" y="834.4355" clip-path="url(#clipPath2)" font-family="sans-serif" stroke="none">\+ p(X)  (X free/unbound)</text>
      <text x="1545.163" xml:space="preserve" y="848.4042" clip-path="url(#clipPath2)" font-family="sans-serif" stroke="none">"eventually succeed"</text>
    </g>
    <g fill="url(#linearGradient17)" text-rendering="geometricPrecision" shape-rendering="geometricPrecision" transform="matrix(1,0,0,1,-54,91)" stroke="url(#linearGradient17)">
      <path d="M725.0075 1146.0381 L960.9483 1146.0381 L960.9483 1241.5381 L725.0075 1241.5381 Z" stroke="none" clip-path="url(#clipPath2)"/>
    </g>
    <g text-rendering="geometricPrecision" stroke-miterlimit="1.45" shape-rendering="geometricPrecision" font-family="sans-serif" transform="matrix(1,0,0,1,-54,91)" stroke-linecap="butt">
      <text x="731.0075" xml:space="preserve" y="1163.0205" clip-path="url(#clipPath2)" stroke="none">Sometimes this takes on a </text>
      <text x="731.0075" xml:space="preserve" y="1176.9893" clip-path="url(#clipPath2)" stroke="none">"strong meaning":</text>
      <text x="731.0075" xml:space="preserve" y="1190.958" clip-path="url(#clipPath2)" stroke="none"> </text>
      <text x="731.0075" xml:space="preserve" y="1204.9268" clip-path="url(#clipPath2)" stroke="none">e.g. if "nonvar(X),integer(X)" fails</text>
      <text x="731.0075" xml:space="preserve" y="1218.8955" clip-path="url(#clipPath2)" stroke="none">then X is definitely not an </text>
      <text x="731.0075" xml:space="preserve" y="1232.8643" clip-path="url(#clipPath2)" stroke="none">integer and cannot become one!</text>
    </g>
    <g fill="url(#linearGradient18)" text-rendering="geometricPrecision" shape-rendering="geometricPrecision" transform="matrix(1,0,0,1,-54,91)" stroke="url(#linearGradient18)">
      <circle r="20" clip-path="url(#clipPath2)" cx="1413.8407" cy="809.3281" stroke="none"/>
    </g>
    <g text-rendering="geometricPrecision" stroke-miterlimit="1.45" shape-rendering="geometricPrecision" transform="matrix(1,0,0,1,-54,91)" stroke-linecap="butt">
      <circle fill="none" r="20" clip-path="url(#clipPath2)" cx="1413.8407" cy="809.3281"/>
      <text x="1408.8134" xml:space="preserve" y="813.4824" clip-path="url(#clipPath2)" font-family="sans-serif" stroke="none">=</text>
    </g>
    <g fill="url(#linearGradient19)" text-rendering="geometricPrecision" shape-rendering="geometricPrecision" transform="matrix(1,0,0,1,-54,91)" stroke="url(#linearGradient19)">
      <path d="M1373.8407 1009.5121 L1869.5907 1009.5121 L1869.5907 1355.2122 L1373.8407 1355.2122 Z" stroke="none" clip-path="url(#clipPath2)"/>
    </g>
    <g text-rendering="geometricPrecision" stroke-miterlimit="1.45" shape-rendering="geometricPrecision" transform="matrix(1,0,0,1,-54,91)" stroke-linecap="butt">
      <path fill="none" d="M1373.8407 1009.5121 L1869.5907 1009.5121 L1869.5907 1355.2122 L1373.8407 1355.2122 Z" clip-path="url(#clipPath2)"/>
      <text x="1379.8407" xml:space="preserve" y="1026.6508" clip-path="url(#clipPath2)" font-family="sans-serif" stroke="none">"\+ p(X)" succeeds iff "there is no X for which p(X) succeeds"</text>
      <text x="1379.8407" xml:space="preserve" y="1040.6195" clip-path="url(#clipPath2)" font-family="sans-serif" stroke="none"> </text>
      <text x="1379.8407" xml:space="preserve" y="1054.5883" clip-path="url(#clipPath2)" font-family="sans-serif" stroke="none">which is equivalant to:</text>
      <text x="1379.8407" xml:space="preserve" y="1068.557" clip-path="url(#clipPath2)" font-family="sans-serif" stroke="none"> </text>
      <text x="1379.8407" xml:space="preserve" y="1082.5258" clip-path="url(#clipPath2)" font-family="sans-serif" stroke="none">"\+ p(X)" fails iff there is "at least one X for which p(X) succeeds"</text>
      <text x="1379.8407" xml:space="preserve" y="1096.4945" clip-path="url(#clipPath2)" font-family="sans-serif" stroke="none"> </text>
      <text x="1379.8407" xml:space="preserve" y="1110.4633" clip-path="url(#clipPath2)" font-family="sans-serif" stroke="none">(... but as the X is behind the '\+' on-way membrane, Prolog won't tell us which)</text>
      <text x="1379.8407" xml:space="preserve" y="1124.432" clip-path="url(#clipPath2)" font-family="sans-serif" stroke="none"> </text>
      <text x="1379.8407" xml:space="preserve" y="1138.4008" clip-path="url(#clipPath2)" font-family="sans-serif" stroke="none">NEVER SHARE UNBOUND VARIABLES ACROSS \+</text>
      <text x="1379.8407" xml:space="preserve" y="1152.3695" clip-path="url(#clipPath2)" font-family="sans-serif" stroke="none"> </text>
      <text x="1379.8407" xml:space="preserve" y="1166.3383" clip-path="url(#clipPath2)" font-family="sans-serif" stroke="none">Consider q(X) :- \+ p(X).</text>
      <text x="1379.8407" xml:space="preserve" y="1180.307" clip-path="url(#clipPath2)" font-family="sans-serif" stroke="none"> </text>
      <text x="1379.8407" xml:space="preserve" y="1194.2758" clip-path="url(#clipPath2)" font-family="sans-serif" stroke="none">Meaning:</text>
      <text x="1379.8407" xml:space="preserve" y="1208.2445" clip-path="url(#clipPath2)" font-family="sans-serif" stroke="none"> </text>
      <text x="1379.8407" xml:space="preserve" y="1222.2133" clip-path="url(#clipPath2)" font-family="sans-serif" stroke="none">When X is bound: Forall X: q(X) &lt;- "p(X) does not succeed"</text>
      <text x="1379.8407" xml:space="preserve" y="1236.182" clip-path="url(#clipPath2)" font-family="sans-serif" stroke="none">When X is unboud: q(_) is true for all X &lt;- "there is no X for which p(X) succeeds"</text>
      <text x="1379.8407" xml:space="preserve" y="1250.1508" clip-path="url(#clipPath2)" font-family="sans-serif" stroke="none"> </text>
      <text x="1379.8407" xml:space="preserve" y="1264.1195" clip-path="url(#clipPath2)" font-family="sans-serif" stroke="none">Add p(1)</text>
      <text x="1379.8407" xml:space="preserve" y="1278.0883" clip-path="url(#clipPath2)" font-family="sans-serif" stroke="none"> </text>
      <text x="1379.8407" xml:space="preserve" y="1292.057" clip-path="url(#clipPath2)" font-family="sans-serif" stroke="none">q(2) succeeds on bound query</text>
      <text x="1379.8407" xml:space="preserve" y="1306.0258" clip-path="url(#clipPath2)" font-family="sans-serif" stroke="none">q(X) fails on unbound query</text>
      <text x="1379.8407" xml:space="preserve" y="1319.9945" clip-path="url(#clipPath2)" font-family="sans-serif" stroke="none"> </text>
      <text x="1379.8407" xml:space="preserve" y="1333.9633" clip-path="url(#clipPath2)" font-family="sans-serif" stroke="none">An inconsistency rises: "FLOUNDERING"</text>
    </g>
    <g fill="url(#linearGradient20)" text-rendering="geometricPrecision" shape-rendering="geometricPrecision" transform="matrix(1,0,0,1,-54,91)" stroke="url(#linearGradient20)">
      <ellipse rx="52.1334" ry="34" clip-path="url(#clipPath2)" cx="1413.8407" cy="736.0623" stroke="none"/>
    </g>
    <g text-rendering="geometricPrecision" stroke-miterlimit="1.45" shape-rendering="geometricPrecision" transform="matrix(1,0,0,1,-54,91)" stroke-linecap="butt">
      <ellipse rx="52.1334" fill="none" ry="34" clip-path="url(#clipPath2)" cx="1413.8407" cy="736.0623"/>
      <text x="1385.2909" xml:space="preserve" y="733.2322" clip-path="url(#clipPath2)" font-family="sans-serif" stroke="none">Using the</text>
      <text x="1379.08" xml:space="preserve" y="747.201" clip-path="url(#clipPath2)" font-family="sans-serif" stroke="none">\+ operator</text>
    </g>
    <g fill="url(#linearGradient21)" text-rendering="geometricPrecision" shape-rendering="geometricPrecision" transform="matrix(1,0,0,1,-54,91)" stroke="url(#linearGradient21)">
      <path d="M596.5183 797.6251 L922.0813 797.6251 L922.0813 900.6509 L596.5183 900.6509 Z" stroke="none" clip-path="url(#clipPath2)"/>
    </g>
    <g text-rendering="geometricPrecision" stroke-miterlimit="1.45" shape-rendering="geometricPrecision" transform="matrix(1,0,0,1,-54,91)" stroke-linecap="butt">
      <path fill="none" d="M596.5183 797.6251 L922.0813 797.6251 L922.0813 900.6509 L596.5183 900.6509 Z" clip-path="url(#clipPath2)"/>
      <text x="602.5183" y="832.3392" clip-path="url(#clipPath2)" fill="yellow" font-family="sans-serif" stroke="none" xml:space="preserve">p(x) is labeled "true"</text>
      <text x="602.5183" y="846.308" clip-path="url(#clipPath2)" fill="yellow" font-family="sans-serif" stroke="none" xml:space="preserve"> </text>
      <text x="602.5183" y="860.2767" clip-path="url(#clipPath2)" fill="yellow" font-family="sans-serif" stroke="none" xml:space="preserve">aka. "true",</text>
      <text x="602.5183" y="874.2455" clip-path="url(#clipPath2)" fill="yellow" font-family="sans-serif" stroke="none" xml:space="preserve">aka "there is a constructive proof for p(x)"</text>
    </g>
    <g fill="url(#linearGradient22)" text-rendering="geometricPrecision" shape-rendering="geometricPrecision" transform="matrix(1,0,0,1,-54,91)" stroke="url(#linearGradient22)">
      <ellipse rx="52.1334" ry="34" clip-path="url(#clipPath2)" cx="759.2998" cy="608.2527" stroke="none"/>
    </g>
    <g text-rendering="geometricPrecision" stroke-miterlimit="1.45" shape-rendering="geometricPrecision" transform="matrix(1,0,0,1,-54,91)" stroke-linecap="butt">
      <ellipse rx="52.1334" fill="none" ry="34" clip-path="url(#clipPath2)" cx="759.2998" cy="608.2527"/>
      <text x="717.7275" xml:space="preserve" y="612.407" clip-path="url(#clipPath2)" font-family="sans-serif" stroke="none">Interpretation</text>
    </g>
    <g fill="url(#linearGradient23)" text-rendering="geometricPrecision" shape-rendering="geometricPrecision" transform="matrix(1,0,0,1,-54,91)" stroke="url(#linearGradient23)">
      <ellipse rx="75.7852" ry="20" clip-path="url(#clipPath2)" cx="655.4738" cy="1.149" stroke="none"/>
    </g>
    <g text-rendering="geometricPrecision" stroke-miterlimit="1.45" shape-rendering="geometricPrecision" transform="matrix(1,0,0,1,-54,91)" stroke-linecap="butt">
      <ellipse rx="75.7852" fill="none" ry="20" clip-path="url(#clipPath2)" cx="655.4738" cy="1.149"/>
      <text x="609.1115" xml:space="preserve" y="5.3033" clip-path="url(#clipPath2)" font-family="sans-serif" stroke="none">Ground queries</text>
    </g>
    <g fill="url(#linearGradient24)" text-rendering="geometricPrecision" shape-rendering="geometricPrecision" transform="matrix(1,0,0,1,-54,91)" stroke="url(#linearGradient24)">
      <ellipse rx="75.7852" ry="27.7375" clip-path="url(#clipPath2)" cx="655.4738" cy="140.1347" stroke="none"/>
    </g>
    <g text-rendering="geometricPrecision" stroke-miterlimit="1.45" shape-rendering="geometricPrecision" transform="matrix(1,0,0,1,-54,91)" stroke-linecap="butt">
      <ellipse rx="75.7852" fill="none" ry="27.7375" clip-path="url(#clipPath2)" cx="655.4738" cy="140.1347"/>
      <text x="617.6691" xml:space="preserve" y="137.3047" clip-path="url(#clipPath2)" font-family="sans-serif" stroke="none">Queries with</text>
      <text x="599.7365" xml:space="preserve" y="151.2734" clip-path="url(#clipPath2)" font-family="sans-serif" stroke="none">unbound variables</text>
    </g>
    <g text-rendering="geometricPrecision" stroke-miterlimit="1.45" shape-rendering="geometricPrecision" transform="matrix(1,0,0,1,-54,91)" stroke-linecap="butt">
      <path fill="none" d="M1089.7218 89.5257 L998.9934 209.5635" clip-path="url(#clipPath2)"/>
    </g>
    <g text-rendering="geometricPrecision" stroke-miterlimit="1.45" shape-rendering="geometricPrecision" transform="matrix(1,0,0,1,-54,91)" stroke-linecap="butt">
      <path d="M994.1696 215.9456 L1005.3941 209.3874 L999.5964 208.7658 L997.4165 203.3576 Z" stroke="none" clip-path="url(#clipPath2)"/>
      <path fill="none" d="M1141.5609 89.5257 L1266.3131 210.3793" clip-path="url(#clipPath2)"/>
      <path d="M1272.0591 215.9456 L1266.9191 204.0049 L1265.5948 209.6835 L1259.9612 211.1873 Z" clip-path="url(#clipPath2)" stroke="none"/>
      <path fill="none" d="M1471.7394 259.944 L1437.4453 259.944" clip-path="url(#clipPath2)"/>
      <path d="M1429.4453 259.944 L1441.4453 264.944 L1438.4453 259.944 L1441.4453 254.944 Z" clip-path="url(#clipPath2)" stroke="none"/>
      <path fill="none" d="M915.2114 303.9335 L814.6805 400.6955" clip-path="url(#clipPath2)"/>
      <path d="M808.9167 406.2433 L821.0298 401.524 L815.401 400.002 L814.0951 394.3192 Z" clip-path="url(#clipPath2)" stroke="none"/>
      <text x="786.8461" xml:space="preserve" y="355.4362" clip-path="url(#clipPath2)" font-family="sans-serif" stroke="none">Success Set</text>
      <path fill="none" d="M1010.8177 303.9335 L1120.8807 400.9532" clip-path="url(#clipPath2)"/>
      <path d="M1126.882 406.2433 L1121.1864 394.5574 L1120.1306 400.2919 L1114.5737 402.0589 Z" clip-path="url(#clipPath2)" stroke="none"/>
      <text x="1010.43" xml:space="preserve" y="352.2669" clip-path="url(#clipPath2)" font-family="sans-serif" stroke="none">The complement of</text>
      <text x="1021.1937" xml:space="preserve" y="366.2357" clip-path="url(#clipPath2)" font-family="sans-serif" stroke="none">the Success Set</text>
      <path fill="none" stroke-dasharray="6,2" d="M1350.0168 303.9516 L1352.4595 307.2551 L1355.6731 312.0423 L1358.1583 316.7266 L1359.9152 321.3081 L1360.9436 325.7868 L1361.2437 330.1626 L1360.8153 334.4355 L1359.6586 338.6056 L1357.7734 342.6728 L1355.1599 346.6372 L1351.8181 350.4987 L1347.7478 354.2574 L1342.9492 357.9132 L1331.1667 364.9164 L1316.4707 371.508 L1302.1128 377.1845 L1272.2579 389.8019 L1247.3047 402.1105 L1246.9895 402.2893" clip-path="url(#clipPath2)"/>
      <path stroke-dasharray="6,2" d="M1240.0321 406.2383 L1252.9363 404.6632 L1247.8593 401.7957 L1248.0001 395.9665 Z" clip-path="url(#clipPath2)" stroke="none"/>
      <text x="1259.6863" xml:space="preserve" y="364.5318" clip-path="url(#clipPath2)" font-family="sans-serif" stroke="none">may be merged </text>
      <text x="1236.8816" xml:space="preserve" y="378.5005" clip-path="url(#clipPath2)" font-family="sans-serif" stroke="none">(partially or completely)</text>
      <text x="1296.5623" xml:space="preserve" y="392.4693" clip-path="url(#clipPath2)" font-family="sans-serif" stroke="none">with</text>
      <path fill="none" d="M1181.0592 501.7559 L1181.0592 742.8698" clip-path="url(#clipPath2)"/>
      <path d="M1181.0592 750.8698 L1186.0592 738.8698 L1181.0592 741.8698 L1176.0592 738.8698 Z" clip-path="url(#clipPath2)" stroke="none"/>
      <path fill="none" d="M1262.8235 501.7332 L1380.1321 570.2169" clip-path="url(#clipPath2)"/>
      <path d="M1387.0409 574.2502 L1379.1985 563.8821 L1379.2684 569.7126 L1374.1567 572.5182 Z" clip-path="url(#clipPath2)" stroke="none"/>
      <path fill="none" d="M1478.8246 454 L1301.0483 454" clip-path="url(#clipPath2)"/>
      <path d="M1293.0483 454 L1305.0483 459 L1302.0483 454 L1305.0483 449 Z" clip-path="url(#clipPath2)" stroke="none"/>
      <path fill="none" d="M1181.0592 867.7644 L1181.0592 947.1652" clip-path="url(#clipPath2)"/>
      <path d="M1181.0592 955.1652 L1186.0592 943.1652 L1181.0592 946.1652 L1176.0592 943.1652 Z" clip-path="url(#clipPath2)" stroke="none"/>
      <path fill="none" d="M1181.0592 1023.1808 L1181.0592 1118.9364" clip-path="url(#clipPath2)"/>
      <path d="M1181.0592 1126.9364 L1186.0592 1114.9364 L1181.0592 1117.9364 L1176.0592 1114.9364 Z" clip-path="url(#clipPath2)" stroke="none"/>
      <path fill="none" d="M1600.111 608.2527 L1565.2844 608.2527" clip-path="url(#clipPath2)"/>
      <path d="M1557.2844 608.2527 L1569.2844 613.2527 L1566.2844 608.2527 L1569.2844 603.2527 Z" clip-path="url(#clipPath2)" stroke="none"/>
      <path fill="none" d="M960.968 1193.7881 L1010.2744 1193.7881" clip-path="url(#clipPath2)"/>
      <path d="M1018.2744 1193.7881 L1006.2744 1188.7881 L1009.2744 1193.7881 L1006.2744 1198.7881 Z" clip-path="url(#clipPath2)" stroke="none"/>
      <path fill="none" d="M1269.8015 809.3281 L1393.8313 809.3281" clip-path="url(#clipPath2)"/>
      <path fill="none" d="M1433.8618 809.3281 L1532.9713 809.3281" clip-path="url(#clipPath2)"/>
      <path fill="none" d="M1621.7157 867.2959 L1621.7157 1009.4834" clip-path="url(#clipPath2)"/>
      <path fill="none" d="M1413.8407 770.0837 L1413.8407 789.361" clip-path="url(#clipPath2)"/>
      <path fill="none" d="M546.5795 851.7613 L588.5143 851.2441" clip-path="url(#clipPath2)"/>
      <path d="M596.5137 851.1455 L584.4529 846.2938 L587.5143 851.2565 L584.5762 856.2931 Z" clip-path="url(#clipPath2)" stroke="none"/>
      <path fill="none" d="M759.2998 501.7144 L759.2998 574.2572" clip-path="url(#clipPath2)"/>
      <path fill="none" d="M759.2998 642.2742 L759.2998 789.6494" clip-path="url(#clipPath2)"/>
      <path d="M759.2998 797.6494 L764.2998 785.6494 L759.2998 788.6494 L754.2998 785.6494 Z" clip-path="url(#clipPath2)" stroke="none"/>
      <path fill="none" d="M508.323 1.149 L579.707 1.149" clip-path="url(#clipPath2)"/>
      <path fill="none" d="M723.4357 9.9966 L979.66 43.3532" clip-path="url(#clipPath2)"/>
      <path fill="none" d="M508.3093 140.1347 L579.6999 140.1347" clip-path="url(#clipPath2)"/>
      <path fill="none" d="M723.8812 128.1976 L979.6221 83.5706" clip-path="url(#clipPath2)"/>
    </g>
  </g>
</svg>
