<?xml version="1.0" encoding="UTF-8"?><svg xmlns="http://www.w3.org/2000/svg" xmlns:xlink="http://www.w3.org/1999/xlink" fill-opacity="1" color-rendering="auto" color-interpolation="auto" text-rendering="auto" stroke="black" stroke-linecap="square" width="871" stroke-miterlimit="10" shape-rendering="auto" stroke-opacity="1" fill="black" stroke-dasharray="none" font-weight="normal" stroke-width="1" height="409" font-family="'Dialog'" font-style="normal" stroke-linejoin="miter" font-size="12px" stroke-dashoffset="0" image-rendering="auto">
  <!--Generated by ySVG 2.5-->
  <defs id="genericDefs"/>
  <g>
    <defs id="defs1">
      <linearGradient x1="692.3333" gradientUnits="userSpaceOnUse" x2="902.3333" y1="324.5" y2="372.5" id="linearGradient1" spreadMethod="reflect">
        <stop stop-opacity="1" stop-color="silver" offset="0%"/>
        <stop stop-opacity="1" stop-color="silver" offset="100%"/>
      </linearGradient>
      <linearGradient x1="902.3333" gradientUnits="userSpaceOnUse" x2="1030.3334" y1="324.5" y2="372.5" id="linearGradient2" spreadMethod="reflect">
        <stop stop-opacity="1" stop-color="silver" offset="0%"/>
        <stop stop-opacity="1" stop-color="silver" offset="100%"/>
      </linearGradient>
      <linearGradient x1="482.3333" gradientUnits="userSpaceOnUse" x2="692.3333" y1="420.5" y2="468.5" id="linearGradient3" spreadMethod="reflect">
        <stop stop-opacity="1" stop-color="silver" offset="0%"/>
        <stop stop-opacity="1" stop-color="silver" offset="100%"/>
      </linearGradient>
      <linearGradient x1="482.3333" gradientUnits="userSpaceOnUse" x2="692.3333" y1="564.5" y2="612.5" id="linearGradient4" spreadMethod="reflect">
        <stop stop-opacity="1" stop-color="silver" offset="0%"/>
        <stop stop-opacity="1" stop-color="silver" offset="100%"/>
      </linearGradient>
      <linearGradient x1="482.3333" gradientUnits="userSpaceOnUse" x2="692.3333" y1="372.5" y2="420.5" id="linearGradient5" spreadMethod="reflect">
        <stop stop-opacity="1" stop-color="silver" offset="0%"/>
        <stop stop-opacity="1" stop-color="silver" offset="100%"/>
      </linearGradient>
      <linearGradient x1="482.3333" gradientUnits="userSpaceOnUse" x2="692.3333" y1="612.5" y2="669.5" id="linearGradient6" spreadMethod="reflect">
        <stop stop-opacity="1" stop-color="silver" offset="0%"/>
        <stop stop-opacity="1" stop-color="silver" offset="100%"/>
      </linearGradient>
      <linearGradient x1="482.3333" gradientUnits="userSpaceOnUse" x2="692.3333" y1="468.5" y2="516.5" id="linearGradient7" spreadMethod="reflect">
        <stop stop-opacity="1" stop-color="silver" offset="0%"/>
        <stop stop-opacity="1" stop-color="silver" offset="100%"/>
      </linearGradient>
      <linearGradient x1="902.3333" gradientUnits="userSpaceOnUse" x2="1030.3334" y1="372.5" y2="516.5" id="linearGradient8" spreadMethod="reflect">
        <stop stop-opacity="1" stop-color="rgb(255,204,0)" offset="0%"/>
        <stop stop-opacity="1" stop-color="rgb(255,204,0)" offset="100%"/>
      </linearGradient>
      <linearGradient x1="692.3333" gradientUnits="userSpaceOnUse" x2="902.3333" y1="468.5" y2="516.5" id="linearGradient9" spreadMethod="reflect">
        <stop stop-opacity="1" stop-color="rgb(255,204,0)" offset="0%"/>
        <stop stop-opacity="1" stop-color="rgb(255,204,0)" offset="100%"/>
      </linearGradient>
      <linearGradient x1="692.3333" gradientUnits="userSpaceOnUse" x2="902.3333" y1="420.5" y2="468.5" id="linearGradient10" spreadMethod="reflect">
        <stop stop-opacity="1" stop-color="rgb(153,204,0)" offset="0%"/>
        <stop stop-opacity="1" stop-color="rgb(153,204,0)" offset="100%"/>
      </linearGradient>
      <linearGradient x1="482.3333" gradientUnits="userSpaceOnUse" x2="692.3333" y1="516.5" y2="564.5" id="linearGradient11" spreadMethod="reflect">
        <stop stop-opacity="1" stop-color="silver" offset="0%"/>
        <stop stop-opacity="1" stop-color="silver" offset="100%"/>
      </linearGradient>
      <clipPath clipPathUnits="userSpaceOnUse" id="clipPath1">
        <path d="M0 0 L871 0 L871 409 L0 409 L0 0 Z"/>
      </clipPath>
      <clipPath clipPathUnits="userSpaceOnUse" id="clipPath2">
        <path d="M175 276 L1046 276 L1046 685 L175 685 L175 276 Z"/>
      </clipPath>
    </defs>
    <g fill="white" text-rendering="geometricPrecision" shape-rendering="geometricPrecision" transform="translate(-175,-276)" stroke="white">
      <rect x="175" width="871" height="409" y="276" clip-path="url(#clipPath2)" stroke="none"/>
    </g>
    <g fill="url(#linearGradient1)" text-rendering="geometricPrecision" shape-rendering="geometricPrecision" transform="matrix(1,0,0,1,-175,-276)" stroke="url(#linearGradient1)">
      <path d="M692.3333 324.5 L902.3333 324.5 L902.3333 372.5 L692.3333 372.5 Z" stroke="none" clip-path="url(#clipPath2)"/>
    </g>
    <g text-rendering="geometricPrecision" stroke-miterlimit="1.45" shape-rendering="geometricPrecision" transform="matrix(1,0,0,1,-175,-276)" stroke-linecap="butt">
      <path fill="none" d="M692.3333 324.5 L902.3333 324.5 L902.3333 372.5 L692.3333 372.5 Z" clip-path="url(#clipPath2)"/>
      <text x="754.0413" xml:space="preserve" y="345.6699" clip-path="url(#clipPath2)" font-family="sans-serif" stroke="none">computational</text>
      <text x="773.8636" xml:space="preserve" y="359.6387" clip-path="url(#clipPath2)" font-family="sans-serif" stroke="none">success</text>
    </g>
    <g fill="url(#linearGradient2)" text-rendering="geometricPrecision" shape-rendering="geometricPrecision" transform="matrix(1,0,0,1,-175,-276)" stroke="url(#linearGradient2)">
      <path d="M902.3333 324.5 L1030.3334 324.5 L1030.3334 372.5 L902.3333 372.5 Z" stroke="none" clip-path="url(#clipPath2)"/>
    </g>
    <g text-rendering="geometricPrecision" stroke-miterlimit="1.45" shape-rendering="geometricPrecision" transform="matrix(1,0,0,1,-175,-276)" stroke-linecap="butt">
      <path fill="none" d="M902.3333 324.5 L1030.3334 324.5 L1030.3334 372.5 L902.3333 372.5 Z" clip-path="url(#clipPath2)"/>
      <text x="923.0413" xml:space="preserve" y="338.6855" clip-path="url(#clipPath2)" font-family="sans-serif" stroke="none">computational</text>
      <text x="913.3294" xml:space="preserve" y="352.6543" clip-path="url(#clipPath2)" font-family="sans-serif" stroke="none">failure (excepting</text>
      <text x="931.3323" xml:space="preserve" y="366.623" clip-path="url(#clipPath2)" font-family="sans-serif" stroke="none">exceptions)</text>
    </g>
    <g fill="url(#linearGradient3)" text-rendering="geometricPrecision" shape-rendering="geometricPrecision" transform="matrix(1,0,0,1,-175,-276)" stroke="url(#linearGradient3)">
      <path d="M482.3333 420.5 L692.3333 420.5 L692.3333 468.5 L482.3333 468.5 Z" stroke="none" clip-path="url(#clipPath2)"/>
    </g>
    <g text-rendering="geometricPrecision" stroke-miterlimit="1.45" shape-rendering="geometricPrecision" transform="matrix(1,0,0,1,-175,-276)" stroke-linecap="butt">
      <path fill="none" d="M482.3333 420.5 L692.3333 420.5 L692.3333 468.5 L482.3333 468.5 Z" clip-path="url(#clipPath2)"/>
      <text x="538.4661" xml:space="preserve" y="448.6543" clip-path="url(#clipPath2)" font-family="sans-serif" stroke="none">"(strongly) true"</text>
    </g>
    <g fill="url(#linearGradient4)" text-rendering="geometricPrecision" shape-rendering="geometricPrecision" transform="matrix(1,0,0,1,-175,-276)" stroke="url(#linearGradient4)">
      <path d="M482.3333 564.5 L692.3333 564.5 L692.3333 612.5 L482.3333 612.5 Z" stroke="none" clip-path="url(#clipPath2)"/>
    </g>
    <g text-rendering="geometricPrecision" stroke-miterlimit="1.45" shape-rendering="geometricPrecision" transform="matrix(1,0,0,1,-175,-276)" stroke-linecap="butt">
      <path fill="none" d="M482.3333 564.5 L692.3333 564.5 L692.3333 612.5 L482.3333 612.5 Z" clip-path="url(#clipPath2)"/>
      <text x="541.1878" xml:space="preserve" y="592.6543" clip-path="url(#clipPath2)" font-family="sans-serif" stroke="none">"strongly false"</text>
    </g>
    <g fill="url(#linearGradient5)" text-rendering="geometricPrecision" shape-rendering="geometricPrecision" transform="matrix(1,0,0,1,-175,-276)" stroke="url(#linearGradient5)">
      <path d="M482.3333 372.5 L692.3333 372.5 L692.3333 420.5 L482.3333 420.5 Z" stroke="none" clip-path="url(#clipPath2)"/>
    </g>
    <g text-rendering="geometricPrecision" stroke-miterlimit="1.45" shape-rendering="geometricPrecision" transform="matrix(1,0,0,1,-175,-276)" stroke-linecap="butt">
      <path fill="none" d="M482.3333 372.5 L692.3333 372.5 L692.3333 420.5 L482.3333 420.5 Z" clip-path="url(#clipPath2)"/>
      <text x="539.3831" xml:space="preserve" y="400.6543" clip-path="url(#clipPath2)" font-family="sans-serif" stroke="none">"undetermined"</text>
    </g>
    <g fill="url(#linearGradient6)" text-rendering="geometricPrecision" shape-rendering="geometricPrecision" transform="matrix(1,0,0,1,-175,-276)" stroke="url(#linearGradient6)">
      <path d="M482.3333 612.5 L692.3333 612.5 L692.3333 669.5 L482.3333 669.5 Z" stroke="none" clip-path="url(#clipPath2)"/>
    </g>
    <g text-rendering="geometricPrecision" stroke-miterlimit="1.45" shape-rendering="geometricPrecision" transform="matrix(1,0,0,1,-175,-276)" stroke-linecap="butt">
      <path fill="none" d="M482.3333 612.5 L692.3333 612.5 L692.3333 669.5 L482.3333 669.5 Z" clip-path="url(#clipPath2)"/>
      <text x="545.0609" xml:space="preserve" y="638.1699" clip-path="url(#clipPath2)" font-family="sans-serif" stroke="none">overspecified:</text>
      <text x="488.5091" xml:space="preserve" y="652.1387" clip-path="url(#clipPath2)" font-family="sans-serif" stroke="none">"strongly false" &amp; "strongly true"</text>
    </g>
    <g fill="url(#linearGradient7)" text-rendering="geometricPrecision" shape-rendering="geometricPrecision" transform="matrix(1,0,0,1,-175,-276)" stroke="url(#linearGradient7)">
      <path d="M482.3333 468.5 L692.3333 468.5 L692.3333 516.5 L482.3333 516.5 Z" stroke="none" clip-path="url(#clipPath2)"/>
    </g>
    <g text-rendering="geometricPrecision" stroke-miterlimit="1.45" shape-rendering="geometricPrecision" transform="matrix(1,0,0,1,-175,-276)" stroke-linecap="butt">
      <path fill="none" d="M482.3333 468.5 L692.3333 468.5 L692.3333 516.5 L482.3333 516.5 Z" clip-path="url(#clipPath2)"/>
      <text x="535.2552" xml:space="preserve" y="489.6699" clip-path="url(#clipPath2)" font-family="sans-serif" stroke="none">"false by default"</text>
      <text x="544.6653" xml:space="preserve" y="503.6387" clip-path="url(#clipPath2)" font-family="sans-serif" stroke="none">"weakly false"</text>
    </g>
    <g fill="url(#linearGradient8)" text-rendering="geometricPrecision" shape-rendering="geometricPrecision" transform="matrix(1,0,0,1,-175,-276)" stroke="url(#linearGradient8)">
      <path d="M902.3333 372.5 L1030.3334 372.5 L1030.3334 516.5 L902.3333 516.5 Z" stroke="none" clip-path="url(#clipPath2)"/>
    </g>
    <g text-rendering="geometricPrecision" stroke-miterlimit="1.45" shape-rendering="geometricPrecision" transform="matrix(1,0,0,1,-175,-276)" stroke-linecap="butt">
      <path fill="none" d="M902.3333 372.5 L1030.3334 372.5 L1030.3334 516.5 L902.3333 516.5 Z" clip-path="url(#clipPath2)"/>
      <text x="947.431" xml:space="preserve" y="441.6699" clip-path="url(#clipPath2)" font-family="sans-serif" stroke="none">Prolog</text>
      <text x="941.7298" xml:space="preserve" y="455.6387" clip-path="url(#clipPath2)" font-family="sans-serif" stroke="none">"failure"</text>
    </g>
    <g text-rendering="geometricPrecision" stroke-miterlimit="1.45" shape-rendering="geometricPrecision" transform="matrix(1,0,0,1,-175,-276)" stroke-linecap="butt">
      <path fill="none" d="M692.3333 516.5 L1030.3334 516.5 L1030.3334 669.5 L692.3333 669.5 Z" clip-path="url(#clipPath2)"/>
      <text x="834.4915" xml:space="preserve" y="590.1699" clip-path="url(#clipPath2)" font-family="sans-serif" stroke="none">Does not</text>
      <text x="818.7591" xml:space="preserve" y="604.1387" clip-path="url(#clipPath2)" font-family="sans-serif" stroke="none">exist in Prolog</text>
    </g>
    <g fill="url(#linearGradient9)" text-rendering="geometricPrecision" shape-rendering="geometricPrecision" transform="matrix(1,0,0,1,-175,-276)" stroke="url(#linearGradient9)">
      <path d="M692.3333 468.5 L902.3333 468.5 L902.3333 516.5 L692.3333 516.5 Z" stroke="none" clip-path="url(#clipPath2)"/>
    </g>
    <g text-rendering="geometricPrecision" stroke-miterlimit="1.45" shape-rendering="geometricPrecision" transform="matrix(1,0,0,1,-175,-276)" stroke-linecap="butt">
      <path fill="none" d="M692.3333 468.5 L902.3333 468.5 L902.3333 516.5 L692.3333 516.5 Z" clip-path="url(#clipPath2)"/>
      <text x="778.431" xml:space="preserve" y="489.6699" clip-path="url(#clipPath2)" font-family="sans-serif" stroke="none">Prolog</text>
      <text x="772.7298" xml:space="preserve" y="503.6387" clip-path="url(#clipPath2)" font-family="sans-serif" stroke="none">"failure"</text>
    </g>
    <g fill="url(#linearGradient10)" text-rendering="geometricPrecision" shape-rendering="geometricPrecision" transform="matrix(1,0,0,1,-175,-276)" stroke="url(#linearGradient10)">
      <path d="M692.3333 420.5 L902.3333 420.5 L902.3333 468.5 L692.3333 468.5 Z" stroke="none" clip-path="url(#clipPath2)"/>
    </g>
    <g text-rendering="geometricPrecision" stroke-miterlimit="1.45" shape-rendering="geometricPrecision" transform="matrix(1,0,0,1,-175,-276)" stroke-linecap="butt">
      <path fill="none" d="M692.3333 420.5 L902.3333 420.5 L902.3333 468.5 L692.3333 468.5 Z" clip-path="url(#clipPath2)"/>
      <text x="778.431" xml:space="preserve" y="441.6699" clip-path="url(#clipPath2)" font-family="sans-serif" stroke="none">Prolog</text>
      <text x="768.3441" xml:space="preserve" y="455.6387" clip-path="url(#clipPath2)" font-family="sans-serif" stroke="none">"success"</text>
    </g>
    <g text-rendering="geometricPrecision" stroke-miterlimit="1.45" shape-rendering="geometricPrecision" transform="matrix(1,0,0,1,-175,-276)" stroke-linecap="butt">
      <path fill="none" d="M692.3333 372.5 L902.3333 372.5 L902.3333 420.5 L692.3333 420.5 Z" clip-path="url(#clipPath2)"/>
      <text x="712.5579" font-size="10px" y="394.1416" clip-path="url(#clipPath2)" font-family="sans-serif" stroke="none" xml:space="preserve">Prolog falls back to "weakly false"</text>
      <text x="733.3196" font-size="10px" y="405.7822" clip-path="url(#clipPath2)" font-family="sans-serif" stroke="none" xml:space="preserve">closed world assumption)</text>
    </g>
    <g text-rendering="geometricPrecision" stroke-miterlimit="1.45" shape-rendering="geometricPrecision" transform="matrix(1,0,0,1,-175,-276)" stroke-linecap="butt">
      <path fill="none" d="M419.5833 291.5 L452.3333 291.5 L452.3333 359.5 L419.5833 359.5" clip-path="url(#clipPath2)"/>
      <text x="261.3285" font-size="10px" y="311.501" clip-path="url(#clipPath2)" font-family="sans-serif" stroke="none" xml:space="preserve">This need not necessarily be a "truth</text>
      <text x="233.1937" font-size="10px" y="323.1416" clip-path="url(#clipPath2)" font-family="sans-serif" stroke="none" xml:space="preserve">value" that can appear in logical formulas.</text>
      <text x="255.1566" font-size="10px" y="334.7822" clip-path="url(#clipPath2)" font-family="sans-serif" stroke="none" xml:space="preserve">In inutionistic logic, this is allowed but</text>
      <text x="236.724" font-size="10px" y="346.4229" clip-path="url(#clipPath2)" font-family="sans-serif" stroke="none" xml:space="preserve">is not a truth value. We "just don't know".</text>
    </g>
    <g fill="url(#linearGradient11)" text-rendering="geometricPrecision" shape-rendering="geometricPrecision" transform="matrix(1,0,0,1,-175,-276)" stroke="url(#linearGradient11)">
      <path d="M482.3333 516.5 L692.3333 516.5 L692.3333 564.5 L482.3333 564.5 Z" stroke="none" clip-path="url(#clipPath2)"/>
    </g>
    <g text-rendering="geometricPrecision" stroke-miterlimit="1.45" shape-rendering="geometricPrecision" transform="matrix(1,0,0,1,-175,-276)" stroke-linecap="butt">
      <path fill="none" d="M482.3333 516.5 L692.3333 516.5 L692.3333 564.5 L482.3333 564.5 Z" clip-path="url(#clipPath2)"/>
      <text x="537.2151" xml:space="preserve" y="537.6699" clip-path="url(#clipPath2)" font-family="sans-serif" stroke="none">"true by default"</text>
      <text x="546.6253" xml:space="preserve" y="551.6387" clip-path="url(#clipPath2)" font-family="sans-serif" stroke="none">"weakly true"</text>
    </g>
    <g text-rendering="geometricPrecision" stroke-miterlimit="1.45" shape-rendering="geometricPrecision" transform="matrix(1,0,0,1,-175,-276)" stroke-linecap="butt">
      <path fill="none" d="M431.0833 380 L452.3333 380 L452.3333 413 L431.0833 413" clip-path="url(#clipPath2)"/>
      <text x="305.4203" font-size="10px" y="394.1416" clip-path="url(#clipPath2)" font-family="sans-serif" stroke="none" xml:space="preserve">there is no evidence for and</text>
      <text x="345.3324" font-size="10px" y="405.7822" clip-path="url(#clipPath2)" font-family="sans-serif" stroke="none" xml:space="preserve">no evidence against</text>
    </g>
    <g text-rendering="geometricPrecision" stroke-miterlimit="1.45" shape-rendering="geometricPrecision" transform="matrix(1,0,0,1,-175,-276)" stroke-linecap="butt">
      <path fill="none" d="M434.3333 433.5 L452.3333 433.5 L452.3333 455.5 L434.3333 455.5" clip-path="url(#clipPath2)"/>
      <text x="343.0472" font-size="10px" y="447.9619" clip-path="url(#clipPath2)" font-family="sans-serif" stroke="none" xml:space="preserve">there is evidence for</text>
    </g>
    <g text-rendering="geometricPrecision" stroke-miterlimit="1.45" shape-rendering="geometricPrecision" transform="matrix(1,0,0,1,-175,-276)" stroke-linecap="butt">
      <path fill="none" d="M433.2083 468.5 L452.3333 468.5 L452.3333 516.5 L433.2083 516.5" clip-path="url(#clipPath2)"/>
      <text x="305.4203" font-size="10px" y="484.3213" clip-path="url(#clipPath2)" font-family="sans-serif" stroke="none" xml:space="preserve">there is no evidence for and</text>
      <text x="323.3402" font-size="10px" y="495.9619" clip-path="url(#clipPath2)" font-family="sans-serif" stroke="none" xml:space="preserve">no evidence against and</text>
      <text x="298.555" font-size="10px" y="507.6025" clip-path="url(#clipPath2)" font-family="sans-serif" stroke="none" xml:space="preserve">we fall back to a "weak false"</text>
    </g>
    <g text-rendering="geometricPrecision" stroke-miterlimit="1.45" shape-rendering="geometricPrecision" transform="matrix(1,0,0,1,-175,-276)" stroke-linecap="butt">
      <path fill="none" d="M433.2083 521.875 L452.3333 521.875 L452.3333 569.875 L433.2083 569.875" clip-path="url(#clipPath2)"/>
      <text x="305.4203" font-size="10px" y="537.6963" clip-path="url(#clipPath2)" font-family="sans-serif" stroke="none" xml:space="preserve">there is no evidence for and</text>
      <text x="323.3402" font-size="10px" y="549.3369" clip-path="url(#clipPath2)" font-family="sans-serif" stroke="none" xml:space="preserve">no evidence against and</text>
      <text x="301.8216" font-size="10px" y="560.9775" clip-path="url(#clipPath2)" font-family="sans-serif" stroke="none" xml:space="preserve">we fall back to a "weak true"</text>
    </g>
    <g text-rendering="geometricPrecision" stroke-miterlimit="1.45" shape-rendering="geometricPrecision" transform="matrix(1,0,0,1,-175,-276)" stroke-linecap="butt">
      <path fill="none" d="M433.2083 575.25 L452.3333 575.25 L452.3333 597.25 L433.2083 597.25" clip-path="url(#clipPath2)"/>
      <text x="319.9466" font-size="10px" y="589.7119" clip-path="url(#clipPath2)" font-family="sans-serif" stroke="none" xml:space="preserve">there is evidence against</text>
    </g>
    <g text-rendering="geometricPrecision" stroke-miterlimit="1.45" shape-rendering="geometricPrecision" transform="matrix(1,0,0,1,-175,-276)" stroke-linecap="butt">
      <path fill="none" d="M433.2083 612.5 L452.3333 612.5 L452.3333 669.5 L433.2083 669.5" clip-path="url(#clipPath2)"/>
      <text x="313.9652" font-size="10px" y="627.001" clip-path="url(#clipPath2)" font-family="sans-serif" stroke="none" xml:space="preserve">there is both evidence for </text>
      <text x="297.764" font-size="10px" y="638.6416" clip-path="url(#clipPath2)" font-family="sans-serif" stroke="none" xml:space="preserve">and evidence against but this</text>
      <text x="302.4173" font-size="10px" y="650.2822" clip-path="url(#clipPath2)" font-family="sans-serif" stroke="none" xml:space="preserve">doesn't crash the system as </text>
      <text x="319.2923" font-size="10px" y="661.9229" clip-path="url(#clipPath2)" font-family="sans-serif" stroke="none" xml:space="preserve">happens in classical logic</text>
    </g>
    <g text-rendering="geometricPrecision" stroke-miterlimit="1.45" shape-rendering="geometricPrecision" transform="matrix(1,0,0,1,-175,-276)" stroke-linecap="butt">
      <path fill="none" d="M452.3202 318.496 L545.768 372.4856" clip-path="url(#clipPath2)"/>
    </g>
    <g text-rendering="geometricPrecision" stroke-miterlimit="1.45" shape-rendering="geometricPrecision" transform="matrix(1,0,0,1,-175,-276)" stroke-linecap="butt">
      <path fill="none" d="M452.3309 396.5 L482.3571 396.5" clip-path="url(#clipPath2)"/>
      <path fill="none" d="M452.3235 444.5 L482.3513 444.5" clip-path="url(#clipPath2)"/>
      <path fill="none" d="M452.3317 492.5 L482.3577 492.5" clip-path="url(#clipPath2)"/>
      <path fill="none" d="M452.3317 543.9309 L482.3577 543.1678" clip-path="url(#clipPath2)"/>
      <path fill="none" d="M452.3317 587.0638 L482.3577 587.3832" clip-path="url(#clipPath2)"/>
      <path fill="none" d="M452.3317 641 L482.3577 641" clip-path="url(#clipPath2)"/>
    </g>
  </g>
</svg>
