<?xml version="1.0" encoding="UTF-8"?><svg xmlns="http://www.w3.org/2000/svg" xmlns:xlink="http://www.w3.org/1999/xlink" fill-opacity="1" color-rendering="auto" color-interpolation="auto" text-rendering="auto" stroke="black" stroke-linecap="square" width="1277" stroke-miterlimit="10" shape-rendering="auto" stroke-opacity="1" fill="black" stroke-dasharray="none" font-weight="normal" stroke-width="1" height="943" font-family="'Dialog'" font-style="normal" stroke-linejoin="miter" font-size="12px" stroke-dashoffset="0" image-rendering="auto">
  <!--Generated by ySVG 2.5-->
  <defs id="genericDefs"/>
  <g>
    <defs id="defs1">
      <linearGradient x1="1131.5" gradientUnits="userSpaceOnUse" x2="1211.5" y1="264.5" y2="304.5" id="linearGradient1" spreadMethod="reflect">
        <stop stop-opacity="1" stop-color="rgb(232,238,247)" offset="0%"/>
        <stop stop-opacity="1" stop-color="rgb(183,201,227)" offset="100%"/>
      </linearGradient>
      <linearGradient x1="337.25" gradientUnits="userSpaceOnUse" x2="417.25" y1="559.7188" y2="599.7188" id="linearGradient2" spreadMethod="reflect">
        <stop stop-opacity="1" stop-color="rgb(232,238,247)" offset="0%"/>
        <stop stop-opacity="1" stop-color="rgb(183,201,227)" offset="100%"/>
      </linearGradient>
      <linearGradient x1="337.25" gradientUnits="userSpaceOnUse" x2="417.25" y1="669.625" y2="709.625" id="linearGradient3" spreadMethod="reflect">
        <stop stop-opacity="1" stop-color="lime" offset="0%"/>
        <stop stop-opacity="1" stop-color="lime" offset="100%"/>
      </linearGradient>
      <linearGradient x1="337.25" gradientUnits="userSpaceOnUse" x2="417.25" y1="779.5312" y2="819.5312" id="linearGradient4" spreadMethod="reflect">
        <stop stop-opacity="1" stop-color="rgb(51,153,102)" offset="0%"/>
        <stop stop-opacity="1" stop-color="rgb(51,153,102)" offset="100%"/>
      </linearGradient>
      <linearGradient x1="337.25" gradientUnits="userSpaceOnUse" x2="417.25" y1="889.4375" y2="929.4375" id="linearGradient5" spreadMethod="reflect">
        <stop stop-opacity="1" stop-color="rgb(232,238,247)" offset="0%"/>
        <stop stop-opacity="1" stop-color="rgb(183,201,227)" offset="100%"/>
      </linearGradient>
      <linearGradient x1="337.25" gradientUnits="userSpaceOnUse" x2="417.25" y1="1097.875" y2="1137.875" id="linearGradient6" spreadMethod="reflect">
        <stop stop-opacity="1" stop-color="rgb(51,102,255)" offset="0%"/>
        <stop stop-opacity="1" stop-color="rgb(51,102,255)" offset="100%"/>
      </linearGradient>
      <linearGradient x1="337.25" gradientUnits="userSpaceOnUse" x2="417.25" y1="999.75" y2="1039.75" id="linearGradient7" spreadMethod="reflect">
        <stop stop-opacity="1" stop-color="rgb(232,238,247)" offset="0%"/>
        <stop stop-opacity="1" stop-color="rgb(183,201,227)" offset="100%"/>
      </linearGradient>
      <linearGradient x1="1131.5" gradientUnits="userSpaceOnUse" x2="1211.5" y1="653.875" y2="693.875" id="linearGradient8" spreadMethod="reflect">
        <stop stop-opacity="1" stop-color="lime" offset="0%"/>
        <stop stop-opacity="1" stop-color="lime" offset="100%"/>
      </linearGradient>
      <linearGradient x1="1131.5" gradientUnits="userSpaceOnUse" x2="1211.5" y1="760.875" y2="800.875" id="linearGradient9" spreadMethod="reflect">
        <stop stop-opacity="1" stop-color="rgb(51,153,102)" offset="0%"/>
        <stop stop-opacity="1" stop-color="rgb(51,153,102)" offset="100%"/>
      </linearGradient>
      <linearGradient x1="994.875" gradientUnits="userSpaceOnUse" x2="1088.625" y1="943.875" y2="1001.375" id="linearGradient10" spreadMethod="reflect">
        <stop stop-opacity="1" stop-color="rgb(232,238,247)" offset="0%"/>
        <stop stop-opacity="1" stop-color="rgb(183,201,227)" offset="100%"/>
      </linearGradient>
      <linearGradient x1="1256" gradientUnits="userSpaceOnUse" x2="1336" y1="943.875" y2="1001.375" id="linearGradient11" spreadMethod="reflect">
        <stop stop-opacity="1" stop-color="rgb(232,238,247)" offset="0%"/>
        <stop stop-opacity="1" stop-color="rgb(183,201,227)" offset="100%"/>
      </linearGradient>
      <linearGradient x1="1131.5" gradientUnits="userSpaceOnUse" x2="1211.5" y1="546.875" y2="586.875" id="linearGradient12" spreadMethod="reflect">
        <stop stop-opacity="1" stop-color="rgb(232,238,247)" offset="0%"/>
        <stop stop-opacity="1" stop-color="rgb(183,201,227)" offset="100%"/>
      </linearGradient>
      <linearGradient x1="1256" gradientUnits="userSpaceOnUse" x2="1336" y1="1045.375" y2="1085.375" id="linearGradient13" spreadMethod="reflect">
        <stop stop-opacity="1" stop-color="rgb(232,238,247)" offset="0%"/>
        <stop stop-opacity="1" stop-color="rgb(183,201,227)" offset="100%"/>
      </linearGradient>
      <linearGradient x1="1001.75" gradientUnits="userSpaceOnUse" x2="1081.75" y1="1045.375" y2="1085.375" id="linearGradient14" spreadMethod="reflect">
        <stop stop-opacity="1" stop-color="rgb(51,102,255)" offset="0%"/>
        <stop stop-opacity="1" stop-color="rgb(51,102,255)" offset="100%"/>
      </linearGradient>
      <linearGradient x1="1131.5" gradientUnits="userSpaceOnUse" x2="1211.5" y1="867.875" y2="907.875" id="linearGradient15" spreadMethod="reflect">
        <stop stop-opacity="1" stop-color="rgb(232,238,247)" offset="0%"/>
        <stop stop-opacity="1" stop-color="rgb(183,201,227)" offset="100%"/>
      </linearGradient>
      <clipPath clipPathUnits="userSpaceOnUse" id="clipPath1">
        <path d="M0 0 L1277 0 L1277 943 L0 943 L0 0 Z"/>
      </clipPath>
      <clipPath clipPathUnits="userSpaceOnUse" id="clipPath2">
        <path d="M188 249 L1465 249 L1465 1192 L188 1192 L188 249 Z"/>
      </clipPath>
    </defs>
    <g fill="white" text-rendering="geometricPrecision" shape-rendering="geometricPrecision" transform="translate(-188,-249)" stroke="white">
      <rect x="188" width="1277" height="943" y="249" clip-path="url(#clipPath2)" stroke="none"/>
    </g>
    <g fill="url(#linearGradient1)" text-rendering="geometricPrecision" shape-rendering="geometricPrecision" transform="matrix(1,0,0,1,-188,-249)" stroke="url(#linearGradient1)">
      <path d="M1131.5 264.5 L1211.5 264.5 L1211.5 304.5 L1131.5 304.5 Z" stroke="none" clip-path="url(#clipPath2)"/>
    </g>
    <g text-rendering="geometricPrecision" stroke-miterlimit="1.45" shape-rendering="geometricPrecision" transform="matrix(1,0,0,1,-188,-249)" stroke-linecap="butt">
      <path fill="none" d="M1131.5 264.5 L1211.5 264.5 L1211.5 304.5 L1131.5 304.5 Z" clip-path="url(#clipPath2)"/>
      <text x="1161.4277" xml:space="preserve" y="288.6543" clip-path="url(#clipPath2)" font-family="sans-serif" stroke="none">run</text>
    </g>
    <g fill="rgb(245,245,245)" text-rendering="geometricPrecision" shape-rendering="geometricPrecision" transform="matrix(1,0,0,1,-188,-249)" stroke="rgb(245,245,245)">
      <rect x="203.25" y="457.125" clip-path="url(#clipPath2)" width="258.75" rx="4" ry="4" height="695.75" stroke="none"/>
    </g>
    <g fill="rgb(235,235,235)" text-rendering="geometricPrecision" shape-rendering="geometricPrecision" transform="matrix(1,0,0,1,-188,-249)" stroke="rgb(235,235,235)">
      <rect x="203.25" width="258.75" height="21.4609" y="457.125" clip-path="url(#clipPath2)" stroke="none"/>
    </g>
    <g font-size="15px" stroke-linecap="butt" transform="matrix(1,0,0,1,-188,-249)" text-rendering="geometricPrecision" font-family="sans-serif" shape-rendering="geometricPrecision" stroke-miterlimit="1.45">
      <text x="328.3105" xml:space="preserve" y="473.0483" clip-path="url(#clipPath2)" stroke="none">iterator coroutine</text>
      <rect x="203.25" y="457.125" clip-path="url(#clipPath2)" fill="none" width="258.75" stroke-dasharray="6,2" rx="4" ry="4" height="695.75"/>
    </g>
    <g fill="url(#linearGradient2)" text-rendering="geometricPrecision" shape-rendering="geometricPrecision" transform="matrix(1,0,0,1,-188,-249)" stroke="url(#linearGradient2)">
      <path d="M337.25 559.7188 L417.25 559.7188 L417.25 599.7188 L337.25 599.7188 Z" stroke="none" clip-path="url(#clipPath2)"/>
    </g>
    <g text-rendering="geometricPrecision" stroke-miterlimit="1.45" shape-rendering="geometricPrecision" transform="matrix(1,0,0,1,-188,-249)" stroke-linecap="butt">
      <path fill="none" d="M337.25 559.7188 L417.25 559.7188 L417.25 599.7188 L337.25 599.7188 Z" clip-path="url(#clipPath2)"/>
      <text x="369.7705" xml:space="preserve" y="583.873" clip-path="url(#clipPath2)" font-family="sans-serif" stroke="none">op</text>
    </g>
    <g fill="url(#linearGradient3)" text-rendering="geometricPrecision" shape-rendering="geometricPrecision" transform="matrix(1,0,0,1,-188,-249)" stroke="url(#linearGradient3)">
      <path d="M337.25 669.625 L417.25 669.625 L417.25 709.625 L337.25 709.625 Z" stroke="none" clip-path="url(#clipPath2)"/>
    </g>
    <g text-rendering="geometricPrecision" stroke-miterlimit="1.45" shape-rendering="geometricPrecision" transform="matrix(1,0,0,1,-188,-249)" stroke-linecap="butt">
      <path fill="none" d="M337.25 669.625 L417.25 669.625 L417.25 709.625 L337.25 709.625 Z" clip-path="url(#clipPath2)"/>
      <text x="358.3506" xml:space="preserve" y="693.7793" clip-path="url(#clipPath2)" font-family="sans-serif" stroke="none">shift/1</text>
    </g>
    <g fill="url(#linearGradient4)" text-rendering="geometricPrecision" shape-rendering="geometricPrecision" transform="matrix(1,0,0,1,-188,-249)" stroke="url(#linearGradient4)">
      <path d="M337.25 779.5312 L417.25 779.5312 L417.25 819.5312 L337.25 819.5312 Z" stroke="none" clip-path="url(#clipPath2)"/>
    </g>
    <g text-rendering="geometricPrecision" stroke-miterlimit="1.45" shape-rendering="geometricPrecision" transform="matrix(1,0,0,1,-188,-249)" stroke-linecap="butt">
      <path fill="none" d="M337.25 779.5312 L417.25 779.5312 L417.25 819.5312 L337.25 819.5312 Z" clip-path="url(#clipPath2)"/>
      <text x="362.9502" xml:space="preserve" y="796.7012" clip-path="url(#clipPath2)" font-family="sans-serif" stroke="none">after</text>
      <text x="358.3506" xml:space="preserve" y="810.6699" clip-path="url(#clipPath2)" font-family="sans-serif" stroke="none">shift/1</text>
    </g>
    <g fill="url(#linearGradient5)" text-rendering="geometricPrecision" shape-rendering="geometricPrecision" transform="matrix(1,0,0,1,-188,-249)" stroke="url(#linearGradient5)">
      <path d="M337.25 889.4375 L417.25 889.4375 L417.25 929.4375 L337.25 929.4375 Z" stroke="none" clip-path="url(#clipPath2)"/>
    </g>
    <g text-rendering="geometricPrecision" stroke-miterlimit="1.45" shape-rendering="geometricPrecision" transform="matrix(1,0,0,1,-188,-249)" stroke-linecap="butt">
      <path fill="none" d="M337.25 889.4375 L417.25 889.4375 L417.25 929.4375 L337.25 929.4375 Z" clip-path="url(#clipPath2)"/>
      <text x="369.7705" xml:space="preserve" y="913.5918" clip-path="url(#clipPath2)" font-family="sans-serif" stroke="none">op</text>
    </g>
    <g fill="url(#linearGradient6)" text-rendering="geometricPrecision" shape-rendering="geometricPrecision" transform="matrix(1,0,0,1,-188,-249)" stroke="url(#linearGradient6)">
      <circle r="20" clip-path="url(#clipPath2)" cx="377.25" cy="1117.875" stroke="none"/>
    </g>
    <g text-rendering="geometricPrecision" stroke-miterlimit="1.45" shape-rendering="geometricPrecision" font-family="sans-serif" transform="matrix(1,0,0,1,-188,-249)" stroke-linecap="butt">
      <text x="353.7803" xml:space="preserve" y="1122.0293" clip-path="url(#clipPath2)" stroke="none">success</text>
    </g>
    <g fill="url(#linearGradient7)" text-rendering="geometricPrecision" shape-rendering="geometricPrecision" transform="matrix(1,0,0,1,-188,-249)" stroke="url(#linearGradient7)">
      <path d="M377.25 999.75 L417.25 1019.75 L377.25 1039.75 L337.25 1019.75 Z" stroke="none" clip-path="url(#clipPath2)"/>
    </g>
    <g text-rendering="geometricPrecision" stroke-miterlimit="1.45" shape-rendering="geometricPrecision" transform="matrix(1,0,0,1,-188,-249)" stroke-linecap="butt">
      <path fill="none" d="M377.25 999.75 L417.25 1019.75 L377.25 1039.75 L337.25 1019.75 Z" clip-path="url(#clipPath2)"/>
    </g>
    <g text-rendering="geometricPrecision" stroke-miterlimit="1.45" shape-rendering="geometricPrecision" transform="matrix(1,0,0,1,-188,-249)" stroke-linecap="butt">
      <path fill="none" d="M377.25 599.709 L377.25 661.6486" clip-path="url(#clipPath2)"/>
      <path d="M377.25 669.6486 L382.25 657.6486 L377.25 660.6486 L372.25 657.6486 Z" clip-path="url(#clipPath2)" stroke="none"/>
      <path fill="none" d="M377.25 819.5215 L377.25 881.4611" clip-path="url(#clipPath2)"/>
      <path d="M377.25 889.4611 L382.25 877.4611 L377.25 880.4611 L372.25 877.4611 Z" clip-path="url(#clipPath2)" stroke="none"/>
      <path fill="none" d="M377.25 929.4478 L377.25 991.7759" clip-path="url(#clipPath2)"/>
      <path d="M377.25 999.7759 L382.25 987.7759 L377.25 990.7759 L372.25 987.7759 Z" clip-path="url(#clipPath2)" stroke="none"/>
      <path fill="none" d="M377.25 1039.7295 L377.25 1089.8427" clip-path="url(#clipPath2)"/>
      <path d="M377.25 1097.8427 L382.25 1085.8427 L377.25 1088.8427 L372.25 1085.8427 Z" clip-path="url(#clipPath2)" stroke="none"/>
      <path fill="none" d="M337.2783 1019.75 L257 1019.75 L252.625 1019.125 L249.5 1017.25 L247.625 1014.125 L247 1009.75 L247 589.7188 L247.625 585.3438 L249.5 582.2188 L252.625 580.3438 L257 579.7188 L329.2783 579.7188" clip-path="url(#clipPath2)"/>
      <path d="M337.2783 579.7188 L325.2783 574.7188 L328.2783 579.7188 L325.2783 584.7188 Z" clip-path="url(#clipPath2)" stroke="none"/>
      <text x="207.71" xml:space="preserve" y="775.3579" clip-path="url(#clipPath2)" font-family="sans-serif" stroke="none">tail-recursive</text>
      <text x="236.6904" xml:space="preserve" y="789.3267" clip-path="url(#clipPath2)" font-family="sans-serif" stroke="none">call</text>
    </g>
    <g fill="rgb(245,245,245)" text-rendering="geometricPrecision" shape-rendering="geometricPrecision" transform="matrix(1,0,0,1,-188,-249)" stroke="rgb(245,245,245)">
      <rect x="970.0762" y="432.9141" clip-path="url(#clipPath2)" width="479.5693" rx="4" ry="4" height="743.7109" stroke="none"/>
      <rect x="970.0762" y="432.9141" clip-path="url(#clipPath2)" fill="rgb(235,235,235)" width="479.5693" height="21.4609" stroke="none"/>
    </g>
    <g font-size="15px" stroke-linecap="butt" transform="matrix(1,0,0,1,-188,-249)" text-rendering="geometricPrecision" font-family="sans-serif" shape-rendering="geometricPrecision" stroke-miterlimit="1.45">
      <text x="1318.9224" xml:space="preserve" y="448.8374" clip-path="url(#clipPath2)" stroke="none">master coroutine</text>
      <rect x="970.0762" y="432.9141" clip-path="url(#clipPath2)" fill="none" width="479.5693" stroke-dasharray="6,2" rx="4" ry="4" height="743.7109"/>
    </g>
    <g fill="url(#linearGradient8)" text-rendering="geometricPrecision" shape-rendering="geometricPrecision" transform="matrix(1,0,0,1,-188,-249)" stroke="url(#linearGradient8)">
      <path d="M1131.5 653.875 L1211.5 653.875 L1211.5 693.875 L1131.5 693.875 Z" stroke="none" clip-path="url(#clipPath2)"/>
    </g>
    <g text-rendering="geometricPrecision" stroke-miterlimit="1.45" shape-rendering="geometricPrecision" transform="matrix(1,0,0,1,-188,-249)" stroke-linecap="butt">
      <path fill="none" d="M1131.5 653.875 L1211.5 653.875 L1211.5 693.875 L1131.5 693.875 Z" clip-path="url(#clipPath2)"/>
      <text x="1150.333" xml:space="preserve" y="678.0293" clip-path="url(#clipPath2)" font-family="sans-serif" stroke="none">reset/3</text>
    </g>
    <g fill="url(#linearGradient9)" text-rendering="geometricPrecision" shape-rendering="geometricPrecision" transform="matrix(1,0,0,1,-188,-249)" stroke="url(#linearGradient9)">
      <path d="M1131.5 760.875 L1211.5 760.875 L1211.5 800.875 L1131.5 800.875 Z" stroke="none" clip-path="url(#clipPath2)"/>
    </g>
    <g text-rendering="geometricPrecision" stroke-miterlimit="1.45" shape-rendering="geometricPrecision" transform="matrix(1,0,0,1,-188,-249)" stroke-linecap="butt">
      <path fill="none" d="M1131.5 760.875 L1211.5 760.875 L1211.5 800.875 L1131.5 800.875 Z" clip-path="url(#clipPath2)"/>
      <text x="1157.2002" xml:space="preserve" y="778.0449" clip-path="url(#clipPath2)" font-family="sans-serif" stroke="none">after</text>
      <text x="1150.333" xml:space="preserve" y="792.0137" clip-path="url(#clipPath2)" font-family="sans-serif" stroke="none">reset/3</text>
    </g>
    <g fill="url(#linearGradient10)" text-rendering="geometricPrecision" shape-rendering="geometricPrecision" transform="matrix(1,0,0,1,-188,-249)" stroke="url(#linearGradient10)">
      <ellipse rx="46.875" ry="28.75" clip-path="url(#clipPath2)" cx="1041.75" cy="972.625" stroke="none"/>
    </g>
    <g text-rendering="geometricPrecision" stroke-miterlimit="1.45" shape-rendering="geometricPrecision" font-family="sans-serif" transform="matrix(1,0,0,1,-188,-249)" stroke-linecap="butt">
      <text x="1019.4053" xml:space="preserve" y="962.8105" clip-path="url(#clipPath2)" stroke="none">iterator</text>
      <text x="1009.5322" xml:space="preserve" y="976.7793" clip-path="url(#clipPath2)" stroke="none">succeeded</text>
      <text x="987.0762" xml:space="preserve" y="990.748" clip-path="url(#clipPath2)" stroke="none">(continuation is 0)</text>
    </g>
    <g fill="url(#linearGradient11)" text-rendering="geometricPrecision" shape-rendering="geometricPrecision" transform="matrix(1,0,0,1,-188,-249)" stroke="url(#linearGradient11)">
      <ellipse rx="40" ry="28.75" clip-path="url(#clipPath2)" cx="1296" cy="972.625" stroke="none"/>
    </g>
    <g text-rendering="geometricPrecision" stroke-miterlimit="1.45" shape-rendering="geometricPrecision" font-family="sans-serif" transform="matrix(1,0,0,1,-188,-249)" stroke-linecap="butt">
      <text x="1260.7998" xml:space="preserve" y="962.8105" clip-path="url(#clipPath2)" stroke="none">iterator just</text>
      <text x="1228.1045" xml:space="preserve" y="976.7793" clip-path="url(#clipPath2)" stroke="none">"shifted" (continuation</text>
      <text x="1233.4043" xml:space="preserve" y="990.748" clip-path="url(#clipPath2)" stroke="none">is a compound term)</text>
    </g>
    <g fill="url(#linearGradient12)" text-rendering="geometricPrecision" shape-rendering="geometricPrecision" transform="matrix(1,0,0,1,-188,-249)" stroke="url(#linearGradient12)">
      <path d="M1131.5 546.875 L1211.5 546.875 L1211.5 586.875 L1131.5 586.875 Z" stroke="none" clip-path="url(#clipPath2)"/>
    </g>
    <g text-rendering="geometricPrecision" stroke-miterlimit="1.45" shape-rendering="geometricPrecision" transform="matrix(1,0,0,1,-188,-249)" stroke-linecap="butt">
      <path fill="none" d="M1131.5 546.875 L1211.5 546.875 L1211.5 586.875 L1131.5 586.875 Z" clip-path="url(#clipPath2)"/>
      <text x="1164.0205" xml:space="preserve" y="571.0293" clip-path="url(#clipPath2)" font-family="sans-serif" stroke="none">op</text>
    </g>
    <g fill="url(#linearGradient13)" text-rendering="geometricPrecision" shape-rendering="geometricPrecision" transform="matrix(1,0,0,1,-188,-249)" stroke="url(#linearGradient13)">
      <path d="M1256 1045.375 L1336 1045.375 L1336 1085.375 L1256 1085.375 Z" stroke="none" clip-path="url(#clipPath2)"/>
    </g>
    <g text-rendering="geometricPrecision" stroke-miterlimit="1.45" shape-rendering="geometricPrecision" transform="matrix(1,0,0,1,-188,-249)" stroke-linecap="butt">
      <path fill="none" d="M1256 1045.375 L1336 1045.375 L1336 1085.375 L1256 1085.375 Z" clip-path="url(#clipPath2)"/>
      <text x="1288.5205" xml:space="preserve" y="1069.5293" clip-path="url(#clipPath2)" font-family="sans-serif" stroke="none">op</text>
    </g>
    <g fill="url(#linearGradient14)" text-rendering="geometricPrecision" shape-rendering="geometricPrecision" transform="matrix(1,0,0,1,-188,-249)" stroke="url(#linearGradient14)">
      <circle r="20" clip-path="url(#clipPath2)" cx="1041.75" cy="1065.375" stroke="none"/>
    </g>
    <g text-rendering="geometricPrecision" stroke-miterlimit="1.45" shape-rendering="geometricPrecision" font-family="sans-serif" transform="matrix(1,0,0,1,-188,-249)" stroke-linecap="butt">
      <text x="1018.2803" xml:space="preserve" y="1069.5293" clip-path="url(#clipPath2)" stroke="none">success</text>
    </g>
    <g fill="url(#linearGradient15)" text-rendering="geometricPrecision" shape-rendering="geometricPrecision" transform="matrix(1,0,0,1,-188,-249)" stroke="url(#linearGradient15)">
      <path d="M1171.5 867.875 L1211.5 887.875 L1171.5 907.875 L1131.5 887.875 Z" stroke="none" clip-path="url(#clipPath2)"/>
    </g>
    <g text-rendering="geometricPrecision" stroke-miterlimit="1.45" shape-rendering="geometricPrecision" transform="matrix(1,0,0,1,-188,-249)" stroke-linecap="butt">
      <path fill="none" d="M1171.5 867.875 L1211.5 887.875 L1171.5 907.875 L1131.5 887.875 Z" clip-path="url(#clipPath2)"/>
    </g>
    <g text-rendering="geometricPrecision" stroke-miterlimit="1.45" shape-rendering="geometricPrecision" transform="matrix(1,0,0,1,-188,-249)" stroke-linecap="butt">
      <path fill="none" d="M1151.671 653.8705 L1023.9625 525.0312 L1008.6133 510.6205 L992.7438 497.8335 L976.3539 486.6703 L959.4438 477.1309 L942.0133 469.2152 L924.0625 462.9233 L905.5914 458.2552 L886.6 455.2109 L867.0883 453.7904 L847.0563 453.9937 L826.5039 455.8207 L805.4313 459.2715 L783.8383 464.3461 L761.725 471.0444 L739.0914 479.3666 L715.9375 489.3125 L674.3125 508.4375 L629.6395 528.5045 L589.2766 545.6741 L553.2238 559.9465 L521.4813 571.3215 L494.0488 579.7992 L470.9265 585.3796 L460.9817 587.0833 L452.1144 588.0627 L444.3247 588.3177 L437.6125 587.8484 L425.1744 586.1733" clip-path="url(#clipPath2)"/>
      <path d="M417.246 585.1055 L428.4713 591.6625 L426.1655 586.3068 L429.806 581.752 Z" clip-path="url(#clipPath2)" stroke="none"/>
      <text x="581.3746" xml:space="preserve" y="523.833" clip-path="url(#clipPath2)" font-family="sans-serif" stroke="none">if reset/3 is called</text>
      <text x="556.8356" xml:space="preserve" y="537.8018" clip-path="url(#clipPath2)" font-family="sans-serif" stroke="none">with initial goal of iterator</text>
      <path fill="none" d="M1131.4918 655.5142 L1007.4625 598.5938 L990.6763 591.1879 L973.8707 584.3687 L957.0458 578.1361 L940.2016 572.4902 L923.338 567.431 L906.4551 562.9585 L889.5529 559.0726 L872.6312 555.7734 L855.6903 553.0609 L838.7301 550.9351 L821.7505 549.3959 L804.7516 548.4434 L787.7333 548.0775 L770.6957 548.2983 L753.6388 549.1058 L736.5625 550.5 L706.1875 553.5 L689.5146 555.5435 L673.668 558.2991 L658.6475 561.7666 L644.4531 565.9462 L631.085 570.8378 L618.543 576.4414 L606.8271 582.7571 L595.9375 589.7848 L585.874 597.5245 L576.6367 605.9762 L568.2256 615.14 L560.6406 625.0157 L553.8818 635.6035 L547.9492 646.9033 L542.8428 658.9152 L538.5625 671.639 L531.6875 694.8922 L523.5682 719.417 L514.6789 740.6718 L509.9456 750.0729 L505.0197 758.6566 L499.9014 766.4228 L494.5906 773.3715 L489.0873 779.5027 L483.3916 784.8164 L477.5034 789.3126 L471.4226 792.9913 L465.1494 795.8525 L458.6838 797.8962 L452.0256 799.1225 L445.175 799.5312 L425.282 799.5312" clip-path="url(#clipPath2)"/>
      <path d="M417.282 799.5312 L429.282 804.5312 L426.282 799.5312 L429.282 794.5312 Z" clip-path="url(#clipPath2)" stroke="none"/>
      <text x="560.8857" xml:space="preserve" y="582.3972" clip-path="url(#clipPath2)" font-family="sans-serif" stroke="none">if reset/3 is called</text>
      <text x="533.5664" xml:space="preserve" y="596.366" clip-path="url(#clipPath2)" font-family="sans-serif" stroke="none">with continuation obtained</text>
      <text x="549.2959" xml:space="preserve" y="610.3347" clip-path="url(#clipPath2)" font-family="sans-serif" stroke="none">from previous reset/3</text>
      <path fill="none" d="M417.224 686.9887 L417.4991 686.9706 L454.7986 686.1509 L489.344 687.0179 L521.3306 689.4238 L550.9538 693.2206 L578.4091 698.2603 L603.8919 704.3949 L627.5977 711.4766 L649.7217 719.3573 L670.4595 727.8892 L708.5581 746.3145 L776.7188 784.4688 L809.9075 801.8306 L844.5864 816.4707 L862.9732 822.4003 L882.3188 827.2056 L902.8185 830.7386 L924.668 832.8516 L948.0624 833.3964 L973.1973 832.2251 L1000.2681 829.1898 L1029.4702 824.1426 L1060.999 816.9354 L1095.05 807.4204 L1123.8884 798.0314" clip-path="url(#clipPath2)"/>
      <path d="M1131.4954 795.5548 L1118.537 794.5154 L1122.9375 798.341 L1121.6328 804.0241 Z" clip-path="url(#clipPath2)" stroke="none"/>
      <text x="847.0533" xml:space="preserve" y="864.1344" clip-path="url(#clipPath2)" font-family="sans-serif" stroke="none">pass control</text>
      <path fill="none" d="M392.6301 1105.0791 L529.05 991.5812 L544.6128 979.0267 L560.2512 967.196 L575.9651 956.0891 L591.7547 945.7059 L607.6198 936.0464 L623.5605 927.1108 L639.5768 918.899 L655.6688 911.4109 L671.8362 904.6467 L688.0793 898.6061 L704.3979 893.2894 L720.7922 888.6965 L737.262 884.8273 L753.8074 881.6819 L770.4284 879.2603 L787.125 877.5625 L816.875 875.1875 L849.8041 872.0946 L881.6539 868.1598 L912.4244 863.3829 L942.1156 857.764 L970.7275 851.3032 L998.2602 844.0004 L1024.7135 835.8556 L1050.0875 826.8688 L1124.0321 798.8569" clip-path="url(#clipPath2)"/>
      <path d="M1131.5133 796.0228 L1118.5203 795.5981 L1123.0969 799.2111 L1122.0627 804.9496 Z" clip-path="url(#clipPath2)" stroke="none"/>
      <path fill="none" d="M1171.5 304.5269 L1171.5 538.8594" clip-path="url(#clipPath2)"/>
      <path d="M1171.5 546.8594 L1176.5 534.8594 L1171.5 537.8594 L1166.5 534.8594 Z" clip-path="url(#clipPath2)" stroke="none"/>
      <path fill="none" d="M1171.5 586.8591 L1171.5 645.863" clip-path="url(#clipPath2)"/>
      <path d="M1171.5 653.863 L1176.5 641.863 L1171.5 644.863 L1166.5 641.863 Z" clip-path="url(#clipPath2)" stroke="none"/>
      <path fill="none" d="M1296 1001.3829 L1296 1037.3462" clip-path="url(#clipPath2)"/>
      <path d="M1296 1045.3462 L1301 1033.3462 L1296 1036.3462 L1291 1033.3462 Z" clip-path="url(#clipPath2)" stroke="none"/>
      <path fill="none" d="M1335.9968 1065.375 L1395 1065.375 L1399.375 1064.75 L1402.5 1062.875 L1404.375 1059.75 L1405 1055.375 L1405 497.875 L1404.375 493.5 L1402.5 490.375 L1399.375 488.5 L1395 487.875 L1181.5 487.875 L1177.125 488.5 L1174 490.375 L1172.125 493.5 L1171.5 497.875 L1171.5 538.855" clip-path="url(#clipPath2)"/>
      <path d="M1171.5 546.855 L1176.5 534.855 L1171.5 537.855 L1166.5 534.855 Z" clip-path="url(#clipPath2)" stroke="none"/>
      <text x="1132.21" xml:space="preserve" y="504.0605" clip-path="url(#clipPath2)" font-family="sans-serif" stroke="none">tail-recursive</text>
      <text x="1161.1904" xml:space="preserve" y="518.0293" clip-path="url(#clipPath2)" font-family="sans-serif" stroke="none">call</text>
      <path fill="none" d="M1041.75 1001.3829 L1041.75 1037.3462" clip-path="url(#clipPath2)"/>
      <path d="M1041.75 1045.3462 L1046.75 1033.3462 L1041.75 1036.3462 L1036.75 1033.3462 Z" clip-path="url(#clipPath2)" stroke="none"/>
      <path fill="none" d="M1171.5 800.8591 L1171.5 859.863" clip-path="url(#clipPath2)"/>
      <path d="M1171.5 867.863 L1176.5 855.863 L1171.5 858.863 L1166.5 855.863 Z" clip-path="url(#clipPath2)" stroke="none"/>
      <path fill="none" d="M1154.1726 899.1929 L1080.5332 947.2926" clip-path="url(#clipPath2)"/>
      <path d="M1073.8354 951.6675 L1086.6165 949.2913 L1081.3705 946.7457 L1081.1478 940.919 Z" clip-path="url(#clipPath2)" stroke="none"/>
      <path fill="none" d="M1188.4303 899.3998 L1260.3672 948.3689" clip-path="url(#clipPath2)"/>
      <path d="M1266.9803 952.8707 L1259.8741 941.9847 L1259.5405 947.8062 L1254.2469 950.2512 Z" clip-path="url(#clipPath2)" stroke="none"/>
    </g>
  </g>
</svg>
