<?xml version="1.0" encoding="UTF-8"?><svg xmlns="http://www.w3.org/2000/svg" xmlns:xlink="http://www.w3.org/1999/xlink" fill-opacity="1" color-rendering="auto" color-interpolation="auto" text-rendering="auto" stroke="black" stroke-linecap="square" width="943" stroke-miterlimit="10" shape-rendering="auto" stroke-opacity="1" fill="black" stroke-dasharray="none" font-weight="normal" stroke-width="1" height="836" font-family="'Dialog'" font-style="normal" stroke-linejoin="miter" font-size="12px" stroke-dashoffset="0" image-rendering="auto">
  <!--Generated by ySVG 2.5-->
  <defs id="genericDefs"/>
  <g>
    <defs id="defs1">
      <linearGradient x1="259.2" gradientUnits="userSpaceOnUse" x2="339.2" y1="258" y2="298" id="linearGradient1" spreadMethod="reflect">
        <stop stop-opacity="1" stop-color="rgb(232,238,247)" offset="0%"/>
        <stop stop-opacity="1" stop-color="rgb(183,201,227)" offset="100%"/>
      </linearGradient>
      <linearGradient x1="323.2" gradientUnits="userSpaceOnUse" x2="403.2" y1="381" y2="421" id="linearGradient2" spreadMethod="reflect">
        <stop stop-opacity="1" stop-color="rgb(232,238,247)" offset="0%"/>
        <stop stop-opacity="1" stop-color="rgb(183,201,227)" offset="100%"/>
      </linearGradient>
      <linearGradient x1="578.8" gradientUnits="userSpaceOnUse" x2="658.8" y1="258" y2="298" id="linearGradient3" spreadMethod="reflect">
        <stop stop-opacity="1" stop-color="rgb(232,238,247)" offset="0%"/>
        <stop stop-opacity="1" stop-color="rgb(183,201,227)" offset="100%"/>
      </linearGradient>
      <linearGradient x1="427.2" gradientUnits="userSpaceOnUse" x2="507.2" y1="161" y2="201" id="linearGradient4" spreadMethod="reflect">
        <stop stop-opacity="1" stop-color="rgb(232,238,247)" offset="0%"/>
        <stop stop-opacity="1" stop-color="rgb(183,201,227)" offset="100%"/>
      </linearGradient>
      <linearGradient x1="20.2" gradientUnits="userSpaceOnUse" x2="100.2" y1="125" y2="165" id="linearGradient5" spreadMethod="reflect">
        <stop stop-opacity="1" stop-color="rgb(232,238,247)" offset="0%"/>
        <stop stop-opacity="1" stop-color="rgb(183,201,227)" offset="100%"/>
      </linearGradient>
      <linearGradient x1="20.2" gradientUnits="userSpaceOnUse" x2="100.2" y1="480" y2="520" id="linearGradient6" spreadMethod="reflect">
        <stop stop-opacity="1" stop-color="rgb(232,238,247)" offset="0%"/>
        <stop stop-opacity="1" stop-color="rgb(183,201,227)" offset="100%"/>
      </linearGradient>
      <linearGradient x1="167.2" gradientUnits="userSpaceOnUse" x2="247.2" y1="381" y2="421" id="linearGradient7" spreadMethod="reflect">
        <stop stop-opacity="1" stop-color="rgb(232,238,247)" offset="0%"/>
        <stop stop-opacity="1" stop-color="rgb(183,201,227)" offset="100%"/>
      </linearGradient>
      <linearGradient x1="479.2" gradientUnits="userSpaceOnUse" x2="559.2" y1="378.1458" y2="418.1458" id="linearGradient8" spreadMethod="reflect">
        <stop stop-opacity="1" stop-color="rgb(232,238,247)" offset="0%"/>
        <stop stop-opacity="1" stop-color="rgb(183,201,227)" offset="100%"/>
      </linearGradient>
      <linearGradient x1="578.8" gradientUnits="userSpaceOnUse" x2="658.8" y1="378.1458" y2="418.1458" id="linearGradient9" spreadMethod="reflect">
        <stop stop-opacity="1" stop-color="rgb(232,238,247)" offset="0%"/>
        <stop stop-opacity="1" stop-color="rgb(183,201,227)" offset="100%"/>
      </linearGradient>
      <linearGradient x1="350" gradientUnits="userSpaceOnUse" x2="430" y1="-166.3333" y2="-126.3333" id="linearGradient10" spreadMethod="reflect">
        <stop stop-opacity="1" stop-color="rgb(232,238,247)" offset="0%"/>
        <stop stop-opacity="1" stop-color="rgb(183,201,227)" offset="100%"/>
      </linearGradient>
      <linearGradient x1="350" gradientUnits="userSpaceOnUse" x2="430" y1="-72.3333" y2="-32.3333" id="linearGradient11" spreadMethod="reflect">
        <stop stop-opacity="1" stop-color="rgb(232,238,247)" offset="0%"/>
        <stop stop-opacity="1" stop-color="rgb(183,201,227)" offset="100%"/>
      </linearGradient>
      <linearGradient x1="619" gradientUnits="userSpaceOnUse" x2="699" y1="-166.3333" y2="-126.3333" id="linearGradient12" spreadMethod="reflect">
        <stop stop-opacity="1" stop-color="rgb(232,238,247)" offset="0%"/>
        <stop stop-opacity="1" stop-color="rgb(183,201,227)" offset="100%"/>
      </linearGradient>
      <linearGradient x1="571" gradientUnits="userSpaceOnUse" x2="651" y1="-72.3333" y2="-32.3333" id="linearGradient13" spreadMethod="reflect">
        <stop stop-opacity="1" stop-color="rgb(232,238,247)" offset="0%"/>
        <stop stop-opacity="1" stop-color="rgb(183,201,227)" offset="100%"/>
      </linearGradient>
      <linearGradient x1="668" gradientUnits="userSpaceOnUse" x2="748" y1="-72.3333" y2="-32.3333" id="linearGradient14" spreadMethod="reflect">
        <stop stop-opacity="1" stop-color="rgb(232,238,247)" offset="0%"/>
        <stop stop-opacity="1" stop-color="rgb(183,201,227)" offset="100%"/>
      </linearGradient>
      <linearGradient x1="805" gradientUnits="userSpaceOnUse" x2="885" y1="-166.3333" y2="-126.3333" id="linearGradient15" spreadMethod="reflect">
        <stop stop-opacity="1" stop-color="rgb(232,238,247)" offset="0%"/>
        <stop stop-opacity="1" stop-color="rgb(183,201,227)" offset="100%"/>
      </linearGradient>
      <linearGradient x1="246.5" gradientUnits="userSpaceOnUse" x2="326.5" y1="-72.3333" y2="-32.3333" id="linearGradient16" spreadMethod="reflect">
        <stop stop-opacity="1" stop-color="rgb(232,238,247)" offset="0%"/>
        <stop stop-opacity="1" stop-color="rgb(183,201,227)" offset="100%"/>
      </linearGradient>
      <linearGradient x1="453.5" gradientUnits="userSpaceOnUse" x2="533.5" y1="-72.3333" y2="-32.3333" id="linearGradient17" spreadMethod="reflect">
        <stop stop-opacity="1" stop-color="rgb(232,238,247)" offset="0%"/>
        <stop stop-opacity="1" stop-color="rgb(183,201,227)" offset="100%"/>
      </linearGradient>
      <linearGradient x1="32.04" gradientUnits="userSpaceOnUse" x2="112.04" y1="-166.3333" y2="-126.3333" id="linearGradient18" spreadMethod="reflect">
        <stop stop-opacity="1" stop-color="rgb(232,238,247)" offset="0%"/>
        <stop stop-opacity="1" stop-color="rgb(183,201,227)" offset="100%"/>
      </linearGradient>
      <linearGradient x1="32.04" gradientUnits="userSpaceOnUse" x2="112.04" y1="-72.3333" y2="-32.3333" id="linearGradient19" spreadMethod="reflect">
        <stop stop-opacity="1" stop-color="rgb(232,238,247)" offset="0%"/>
        <stop stop-opacity="1" stop-color="rgb(183,201,227)" offset="100%"/>
      </linearGradient>
      <linearGradient x1="323.2" gradientUnits="userSpaceOnUse" x2="403.2" y1="516" y2="556" id="linearGradient20" spreadMethod="reflect">
        <stop stop-opacity="1" stop-color="rgb(232,238,247)" offset="0%"/>
        <stop stop-opacity="1" stop-color="rgb(183,201,227)" offset="100%"/>
      </linearGradient>
      <linearGradient x1="20.2" gradientUnits="userSpaceOnUse" x2="100.2" y1="345" y2="385" id="linearGradient21" spreadMethod="reflect">
        <stop stop-opacity="1" stop-color="rgb(232,238,247)" offset="0%"/>
        <stop stop-opacity="1" stop-color="rgb(183,201,227)" offset="100%"/>
      </linearGradient>
      <linearGradient x1="20.2" gradientUnits="userSpaceOnUse" x2="100.2" y1="230" y2="270" id="linearGradient22" spreadMethod="reflect">
        <stop stop-opacity="1" stop-color="rgb(232,238,247)" offset="0%"/>
        <stop stop-opacity="1" stop-color="rgb(183,201,227)" offset="100%"/>
      </linearGradient>
      <linearGradient x1="20.2" gradientUnits="userSpaceOnUse" x2="100.2" y1="433" y2="473" id="linearGradient23" spreadMethod="reflect">
        <stop stop-opacity="1" stop-color="rgb(232,238,247)" offset="0%"/>
        <stop stop-opacity="1" stop-color="rgb(183,201,227)" offset="100%"/>
      </linearGradient>
      <linearGradient x1="678.4" gradientUnits="userSpaceOnUse" x2="758.4" y1="378.1458" y2="418.1458" id="linearGradient24" spreadMethod="reflect">
        <stop stop-opacity="1" stop-color="rgb(232,238,247)" offset="0%"/>
        <stop stop-opacity="1" stop-color="rgb(183,201,227)" offset="100%"/>
      </linearGradient>
      <linearGradient x1="778" gradientUnits="userSpaceOnUse" x2="858" y1="378.1458" y2="418.1458" id="linearGradient25" spreadMethod="reflect">
        <stop stop-opacity="1" stop-color="rgb(232,238,247)" offset="0%"/>
        <stop stop-opacity="1" stop-color="rgb(183,201,227)" offset="100%"/>
      </linearGradient>
      <linearGradient x1="-12.96" gradientUnits="userSpaceOnUse" x2="900" y1="69.9271" y2="109.9271" id="linearGradient26" spreadMethod="reflect">
        <stop stop-opacity="1" stop-color="rgb(232,238,247)" offset="0%"/>
        <stop stop-opacity="1" stop-color="rgb(183,201,227)" offset="100%"/>
      </linearGradient>
      <clipPath clipPathUnits="userSpaceOnUse" id="clipPath1">
        <path d="M0 0 L943 0 L943 836 L0 836 L0 0 Z"/>
      </clipPath>
      <clipPath clipPathUnits="userSpaceOnUse" id="clipPath2">
        <path d="M-28 -265 L915 -265 L915 571 L-28 571 L-28 -265 Z"/>
      </clipPath>
    </defs>
    <g fill="white" text-rendering="geometricPrecision" shape-rendering="geometricPrecision" transform="translate(28,265)" stroke="white">
      <rect x="-28" width="943" height="836" y="-265" clip-path="url(#clipPath2)" stroke="none"/>
    </g>
    <g fill="url(#linearGradient1)" text-rendering="geometricPrecision" shape-rendering="geometricPrecision" transform="matrix(1,0,0,1,28,265)" stroke="url(#linearGradient1)">
      <path d="M259.2 258 L339.2 258 L339.2 298 L259.2 298 Z" stroke="none" clip-path="url(#clipPath2)"/>
    </g>
    <g text-rendering="geometricPrecision" stroke-miterlimit="1.45" shape-rendering="geometricPrecision" transform="matrix(1,0,0,1,28,265)" stroke-linecap="butt">
      <path fill="none" d="M259.2 258 L339.2 258 L339.2 298 L259.2 298 Z" clip-path="url(#clipPath2)"/>
      <text x="295.3914" xml:space="preserve" y="282.1543" clip-path="url(#clipPath2)" font-family="sans-serif" stroke="none">g</text>
    </g>
    <g fill="url(#linearGradient2)" text-rendering="geometricPrecision" shape-rendering="geometricPrecision" transform="matrix(1,0,0,1,28,265)" stroke="url(#linearGradient2)">
      <path d="M323.2 381 L403.2 381 L403.2 421 L323.2 421 Z" stroke="none" clip-path="url(#clipPath2)"/>
    </g>
    <g text-rendering="geometricPrecision" stroke-miterlimit="1.45" shape-rendering="geometricPrecision" transform="matrix(1,0,0,1,28,265)" stroke-linecap="butt">
      <path fill="none" d="M323.2 381 L403.2 381 L403.2 421 L323.2 421 Z" clip-path="url(#clipPath2)"/>
      <text x="359.3973" xml:space="preserve" y="405.1543" clip-path="url(#clipPath2)" font-family="sans-serif" stroke="none">u</text>
    </g>
    <g fill="url(#linearGradient3)" text-rendering="geometricPrecision" shape-rendering="geometricPrecision" transform="matrix(1,0,0,1,28,265)" stroke="url(#linearGradient3)">
      <path d="M578.8 258 L658.8 258 L658.8 298 L578.8 298 Z" stroke="none" clip-path="url(#clipPath2)"/>
    </g>
    <g text-rendering="geometricPrecision" stroke-miterlimit="1.45" shape-rendering="geometricPrecision" transform="matrix(1,0,0,1,28,265)" stroke-linecap="butt">
      <path fill="none" d="M578.8 258 L658.8 258 L658.8 298 L578.8 298 Z" clip-path="url(#clipPath2)"/>
      <text x="614.9973" xml:space="preserve" y="282.1543" clip-path="url(#clipPath2)" font-family="sans-serif" stroke="none">h</text>
    </g>
    <g fill="url(#linearGradient4)" text-rendering="geometricPrecision" shape-rendering="geometricPrecision" transform="matrix(1,0,0,1,28,265)" stroke="url(#linearGradient4)">
      <path d="M427.2 161 L507.2 161 L507.2 201 L427.2 201 Z" stroke="none" clip-path="url(#clipPath2)"/>
    </g>
    <g text-rendering="geometricPrecision" stroke-miterlimit="1.45" shape-rendering="geometricPrecision" transform="matrix(1,0,0,1,28,265)" stroke-linecap="butt">
      <path fill="none" d="M427.2 161 L507.2 161 L507.2 201 L427.2 201 Z" clip-path="url(#clipPath2)"/>
      <text x="465.0877" xml:space="preserve" y="185.1543" clip-path="url(#clipPath2)" font-family="sans-serif" stroke="none">f</text>
    </g>
    <g fill="url(#linearGradient5)" text-rendering="geometricPrecision" shape-rendering="geometricPrecision" transform="matrix(1,0,0,1,28,265)" stroke="url(#linearGradient5)">
      <path d="M20.2 130 Q40.2 140 60.2 130 Q80.2 120 100.2 130 L100.2 160 Q80.2 150 60.2 160 Q40.2 170 20.2 160 Z" stroke="none" clip-path="url(#clipPath2)"/>
    </g>
    <g text-rendering="geometricPrecision" stroke-miterlimit="1.45" shape-rendering="geometricPrecision" transform="matrix(1,0,0,1,28,265)" stroke-linecap="butt">
      <path fill="none" d="M20.2 130 Q40.2 140 60.2 130 Q80.2 120 100.2 130 L100.2 160 Q80.2 150 60.2 160 Q40.2 170 20.2 160 Z" clip-path="url(#clipPath2)"/>
      <text x="56.0896" xml:space="preserve" y="149.1543" clip-path="url(#clipPath2)" font-family="sans-serif" stroke="none">X</text>
    </g>
    <g fill="url(#linearGradient6)" text-rendering="geometricPrecision" shape-rendering="geometricPrecision" transform="matrix(1,0,0,1,28,265)" stroke="url(#linearGradient6)">
      <path d="M20.2 485 Q40.2 495 60.2 485 Q80.2 475 100.2 485 L100.2 515 Q80.2 505 60.2 515 Q40.2 525 20.2 515 Z" stroke="none" clip-path="url(#clipPath2)"/>
    </g>
    <g text-rendering="geometricPrecision" stroke-miterlimit="1.45" shape-rendering="geometricPrecision" transform="matrix(1,0,0,1,28,265)" stroke-linecap="butt">
      <path fill="none" d="M20.2 485 Q40.2 495 60.2 485 Q80.2 475 100.2 485 L100.2 515 Q80.2 505 60.2 515 Q40.2 525 20.2 515 Z" clip-path="url(#clipPath2)"/>
      <text x="56.2654" xml:space="preserve" y="504.1543" clip-path="url(#clipPath2)" font-family="sans-serif" stroke="none">K</text>
    </g>
    <g fill="url(#linearGradient7)" text-rendering="geometricPrecision" shape-rendering="geometricPrecision" transform="matrix(1,0,0,1,28,265)" stroke="url(#linearGradient7)">
      <path d="M177.2 381 L247.2 381 L247.2 421 L167.2 421 L167.2 391 Z" stroke="none" clip-path="url(#clipPath2)"/>
    </g>
    <g text-rendering="geometricPrecision" stroke-miterlimit="1.45" shape-rendering="geometricPrecision" transform="matrix(1,0,0,1,28,265)" stroke-linecap="butt">
      <path fill="none" d="M177.2 381 L247.2 381 L247.2 421 L167.2 421 L167.2 391 Z" clip-path="url(#clipPath2)"/>
      <text x="190.5682" xml:space="preserve" y="405.1543" clip-path="url(#clipPath2)" font-family="sans-serif" stroke="none">alpha</text>
    </g>
    <g fill="url(#linearGradient8)" text-rendering="geometricPrecision" shape-rendering="geometricPrecision" transform="matrix(1,0,0,1,28,265)" stroke="url(#linearGradient8)">
      <path d="M489.2 378.1458 L559.2 378.1458 L559.2 418.1458 L479.2 418.1458 L479.2 388.1458 Z" stroke="none" clip-path="url(#clipPath2)"/>
    </g>
    <g text-rendering="geometricPrecision" stroke-miterlimit="1.45" shape-rendering="geometricPrecision" transform="matrix(1,0,0,1,28,265)" stroke-linecap="butt">
      <path fill="none" d="M489.2 378.1458 L559.2 378.1458 L559.2 418.1458 L479.2 418.1458 L479.2 388.1458 Z" clip-path="url(#clipPath2)"/>
      <text x="502.0262" xml:space="preserve" y="402.3001" clip-path="url(#clipPath2)" font-family="sans-serif" stroke="none">bravo</text>
    </g>
    <g fill="url(#linearGradient9)" text-rendering="geometricPrecision" shape-rendering="geometricPrecision" transform="matrix(1,0,0,1,28,265)" stroke="url(#linearGradient9)">
      <path d="M588.8 378.1458 L658.8 378.1458 L658.8 418.1458 L578.8 418.1458 L578.8 388.1458 Z" stroke="none" clip-path="url(#clipPath2)"/>
    </g>
    <g text-rendering="geometricPrecision" stroke-miterlimit="1.45" shape-rendering="geometricPrecision" transform="matrix(1,0,0,1,28,265)" stroke-linecap="butt">
      <path fill="none" d="M588.8 378.1458 L658.8 378.1458 L658.8 418.1458 L578.8 418.1458 L578.8 388.1458 Z" clip-path="url(#clipPath2)"/>
      <text x="598.5295" xml:space="preserve" y="402.3001" clip-path="url(#clipPath2)" font-family="sans-serif" stroke="none">charlie</text>
    </g>
    <g text-rendering="geometricPrecision" stroke-miterlimit="1.45" shape-rendering="geometricPrecision" transform="matrix(1,0,0,1,28,265)" stroke-linecap="butt">
      <path fill="none" d="M309.6219 298.0295 L349.1083 373.9175" clip-path="url(#clipPath2)"/>
    </g>
    <g text-rendering="geometricPrecision" stroke-miterlimit="1.45" shape-rendering="geometricPrecision" transform="matrix(1,0,0,1,28,265)" stroke-linecap="butt">
      <path d="M352.8009 381.0143 L351.6974 368.0612 L348.6467 373.0304 L342.8265 372.677 Z" stroke="none" clip-path="url(#clipPath2)"/>
      <path fill="none" d="M432.5418 201.011 L340.7983 253.9819" clip-path="url(#clipPath2)"/>
      <path d="M333.8702 257.9821 L346.7625 256.3119 L341.6643 253.4819 L341.7622 247.6518 Z" clip-path="url(#clipPath2)" stroke="none"/>
      <path fill="none" d="M498.4749 201.011 L580.7756 253.6704" clip-path="url(#clipPath2)"/>
      <path d="M587.5143 257.9821 L580.1011 247.3029 L579.9333 253.1315 L574.7115 255.7262 Z" clip-path="url(#clipPath2)" stroke="none"/>
      <path fill="none" stroke-dasharray="6,2" d="M100.1918 146.9306 L139.95 148.85 L191.1375 152 L206.1844 153.575 L214.2 155.15 L216.2 155.85 L226.9437 157.8469 L250.175 160.6875 L334.1 168.9 L419.2314 176.6392" clip-path="url(#clipPath2)"/>
      <path stroke-dasharray="6,2" d="M427.1985 177.3635 L415.7005 171.2976 L418.2355 176.5487 L414.7951 181.2565 Z" clip-path="url(#clipPath2)" stroke="none"/>
      <path fill="none" d="M284.2186 298.0295 L226.9403 374.608" clip-path="url(#clipPath2)"/>
      <path d="M222.1487 381.0143 L233.3401 374.3997 L227.5393 373.8073 L225.3323 368.4101 Z" clip-path="url(#clipPath2)" stroke="none"/>
      <path fill="none" d="M602.2405 297.9754 L540.8692 372.0067" clip-path="url(#clipPath2)"/>
      <path d="M535.7635 378.1655 L547.2714 372.1183 L541.5074 371.2368 L539.5728 365.7361 Z" clip-path="url(#clipPath2)" stroke="none"/>
      <path fill="none" d="M618.8 297.9754 L618.8 370.1411" clip-path="url(#clipPath2)"/>
      <path d="M618.8 378.1411 L623.8 366.1411 L618.8 369.1411 L613.8 366.1411 Z" clip-path="url(#clipPath2)" stroke="none"/>
    </g>
    <g transform="matrix(1,0,0,1,28,265)" fill-opacity="0.5176" fill="rgb(202,236,255)" text-rendering="geometricPrecision" shape-rendering="geometricPrecision" stroke="rgb(202,236,255)" stroke-opacity="0.5176">
      <rect x="-12.96" y="-249.7318" clip-path="url(#clipPath2)" width="912.96" rx="4" ry="4" height="280.5859" stroke="none"/>
    </g>
    <g fill="rgb(153,204,255)" text-rendering="geometricPrecision" shape-rendering="geometricPrecision" transform="matrix(1,0,0,1,28,265)" stroke="rgb(153,204,255)">
      <rect x="-12.96" width="912.96" height="21.4609" y="-249.7318" clip-path="url(#clipPath2)" stroke="none"/>
    </g>
    <g font-size="15px" stroke-linecap="butt" transform="matrix(1,0,0,1,28,265)" text-rendering="geometricPrecision" font-family="sans-serif" shape-rendering="geometricPrecision" stroke-miterlimit="1.45">
      <text x="827.6948" xml:space="preserve" y="-233.8084" clip-path="url(#clipPath2)" stroke="none">Explainer</text>
    </g>
    <g stroke-linecap="round" transform="matrix(1,0,0,1,28,265)" stroke-dashoffset="2" fill="rgb(102,102,153)" text-rendering="geometricPrecision" shape-rendering="geometricPrecision" stroke-dasharray="0,4" stroke="rgb(102,102,153)" stroke-miterlimit="1.45">
      <rect x="-12.96" y="-249.7318" clip-path="url(#clipPath2)" fill="none" width="912.96" rx="4" ry="4" height="280.5859"/>
    </g>
    <g fill="url(#linearGradient10)" text-rendering="geometricPrecision" shape-rendering="geometricPrecision" transform="matrix(1,0,0,1,28,265)" stroke="url(#linearGradient10)">
      <path d="M350 -166.3333 L430 -166.3333 L430 -126.3333 L350 -126.3333 Z" stroke="none" clip-path="url(#clipPath2)"/>
    </g>
    <g text-rendering="geometricPrecision" stroke-miterlimit="1.45" shape-rendering="geometricPrecision" transform="matrix(1,0,0,1,28,265)" stroke-linecap="butt">
      <path fill="none" d="M350 -166.3333 L430 -166.3333 L430 -126.3333 L350 -126.3333 Z" clip-path="url(#clipPath2)"/>
      <text x="372.5781" font-size="8px" y="-148.22" clip-path="url(#clipPath2)" font-family="sans-serif" stroke="none" xml:space="preserve">arbitrary</text>
      <text x="380.4297" font-size="8px" y="-138.9075" clip-path="url(#clipPath2)" font-family="sans-serif" stroke="none" xml:space="preserve">term</text>
    </g>
    <g fill="url(#linearGradient11)" text-rendering="geometricPrecision" shape-rendering="geometricPrecision" transform="matrix(1,0,0,1,28,265)" stroke="url(#linearGradient11)">
      <path d="M360 -72.3333 L430 -72.3333 L430 -32.3333 L350 -32.3333 L350 -62.3333 Z" stroke="none" clip-path="url(#clipPath2)"/>
    </g>
    <g text-rendering="geometricPrecision" stroke-miterlimit="1.45" shape-rendering="geometricPrecision" transform="matrix(1,0,0,1,28,265)" stroke-linecap="butt">
      <path fill="none" d="M360 -72.3333 L430 -72.3333 L430 -32.3333 L350 -32.3333 L350 -62.3333 Z" clip-path="url(#clipPath2)"/>
      <text x="365.4844" font-size="8px" y="-54.2201" clip-path="url(#clipPath2)" font-family="sans-serif" stroke="none" xml:space="preserve">atomic term</text>
      <text x="370.041" font-size="8px" y="-44.9076" clip-path="url(#clipPath2)" font-family="sans-serif" stroke="none" xml:space="preserve">(tree leaf)</text>
    </g>
    <g fill="url(#linearGradient12)" text-rendering="geometricPrecision" shape-rendering="geometricPrecision" transform="matrix(1,0,0,1,28,265)" stroke="url(#linearGradient12)">
      <path d="M619 -166.3333 L699 -166.3333 L699 -126.3333 L619 -126.3333 Z" stroke="none" clip-path="url(#clipPath2)"/>
    </g>
    <g text-rendering="geometricPrecision" stroke-miterlimit="1.45" shape-rendering="geometricPrecision" transform="matrix(1,0,0,1,28,265)" stroke-linecap="butt">
      <path fill="none" d="M619 -166.3333 L699 -166.3333 L699 -126.3333 L619 -126.3333 Z" clip-path="url(#clipPath2)"/>
      <text x="632.2656" font-size="8px" y="-157.5325" clip-path="url(#clipPath2)" font-family="sans-serif" stroke="none" xml:space="preserve">Recognizable</text>
      <text x="627.0195" font-size="8px" y="-148.22" clip-path="url(#clipPath2)" font-family="sans-serif" stroke="none" xml:space="preserve">compound term</text>
      <text x="636.7578" font-size="8px" y="-138.9075" clip-path="url(#clipPath2)" font-family="sans-serif" stroke="none" xml:space="preserve">(because it</text>
      <text x="632.9609" font-size="8px" y="-129.595" clip-path="url(#clipPath2)" font-family="sans-serif" stroke="none" xml:space="preserve">has children)</text>
    </g>
    <g fill="url(#linearGradient13)" text-rendering="geometricPrecision" shape-rendering="geometricPrecision" transform="matrix(1,0,0,1,28,265)" stroke="url(#linearGradient13)">
      <path d="M571 -72.3333 L651 -72.3333 L651 -32.3333 L571 -32.3333 Z" stroke="none" clip-path="url(#clipPath2)"/>
    </g>
    <g text-rendering="geometricPrecision" stroke-miterlimit="1.45" shape-rendering="geometricPrecision" transform="matrix(1,0,0,1,28,265)" stroke-linecap="butt">
      <path fill="none" d="M571 -72.3333 L651 -72.3333 L651 -32.3333 L571 -32.3333 Z" clip-path="url(#clipPath2)"/>
    </g>
    <g fill="url(#linearGradient14)" text-rendering="geometricPrecision" shape-rendering="geometricPrecision" transform="matrix(1,0,0,1,28,265)" stroke="url(#linearGradient14)">
      <path d="M668 -72.3333 L748 -72.3333 L748 -32.3333 L668 -32.3333 Z" stroke="none" clip-path="url(#clipPath2)"/>
    </g>
    <g text-rendering="geometricPrecision" stroke-miterlimit="1.45" shape-rendering="geometricPrecision" transform="matrix(1,0,0,1,28,265)" stroke-linecap="butt">
      <path fill="none" d="M668 -72.3333 L748 -72.3333 L748 -32.3333 L668 -32.3333 Z" clip-path="url(#clipPath2)"/>
    </g>
    <g fill="url(#linearGradient15)" text-rendering="geometricPrecision" shape-rendering="geometricPrecision" transform="matrix(1,0,0,1,28,265)" stroke="url(#linearGradient15)">
      <path d="M815.2 -166.3333 L885 -166.3333 L874.8 -126.3333 L805 -126.3333 Z" stroke="none" clip-path="url(#clipPath2)"/>
    </g>
    <g text-rendering="geometricPrecision" stroke-miterlimit="1.45" shape-rendering="geometricPrecision" transform="matrix(1,0,0,1,28,265)" stroke-linecap="butt">
      <path fill="none" d="M815.2 -166.3333 L885 -166.3333 L874.8 -126.3333 L805 -126.3333 Z" clip-path="url(#clipPath2)"/>
      <text x="828.209" font-size="8px" y="-152.8763" clip-path="url(#clipPath2)" font-family="sans-serif" stroke="none" xml:space="preserve">Abstract</text>
      <text x="815.4824" font-size="8px" y="-143.5638" clip-path="url(#clipPath2)" font-family="sans-serif" stroke="none" xml:space="preserve">Data Structure</text>
      <text x="819.5195" font-size="8px" y="-134.2513" clip-path="url(#clipPath2)" font-family="sans-serif" stroke="none" xml:space="preserve">(never used)</text>
    </g>
    <g fill="url(#linearGradient16)" text-rendering="geometricPrecision" shape-rendering="geometricPrecision" transform="matrix(1,0,0,1,28,265)" stroke="url(#linearGradient16)">
      <rect x="246.5" width="80" height="40" y="-72.3333" clip-path="url(#clipPath2)" stroke="none"/>
    </g>
    <g text-rendering="geometricPrecision" stroke-miterlimit="1.45" shape-rendering="geometricPrecision" transform="matrix(1,0,0,1,28,265)" stroke-linecap="butt">
      <rect fill="none" x="246.5" width="80" height="40" y="-72.3333" clip-path="url(#clipPath2)"/>
      <path fill="none" d="M256.5 -72.3333 L256.5 -32.3333 M316.5 -72.3333 L316.5 -32.3333 M256.5 -72.3333 Z" clip-path="url(#clipPath2)"/>
      <text x="265.5254" font-size="8px" y="-54.2201" clip-path="url(#clipPath2)" font-family="sans-serif" stroke="none" xml:space="preserve">fresh term</text>
      <text x="254.3242" font-size="8px" y="-44.9076" clip-path="url(#clipPath2)" font-family="sans-serif" stroke="none" xml:space="preserve">(uninstantiated)</text>
    </g>
    <g fill="url(#linearGradient17)" text-rendering="geometricPrecision" shape-rendering="geometricPrecision" transform="matrix(1,0,0,1,28,265)" stroke="url(#linearGradient17)">
      <path d="M463.5 -72.3333 L523.5 -72.3333 L533.5 -62.3333 L533.5 -32.3333 L453.5 -32.3333 L453.5 -62.3333 Z" stroke="none" clip-path="url(#clipPath2)"/>
    </g>
    <g text-rendering="geometricPrecision" stroke-miterlimit="1.45" shape-rendering="geometricPrecision" transform="matrix(1,0,0,1,28,265)" stroke-linecap="butt">
      <path fill="none" d="M463.5 -72.3333 L523.5 -72.3333 L533.5 -62.3333 L533.5 -32.3333 L453.5 -32.3333 L453.5 -62.3333 Z" clip-path="url(#clipPath2)"/>
      <text x="461.5195" font-size="8px" y="-54.2201" clip-path="url(#clipPath2)" font-family="sans-serif" stroke="none" xml:space="preserve">compound term</text>
      <text x="459.4316" font-size="8px" y="-44.9076" clip-path="url(#clipPath2)" font-family="sans-serif" stroke="none" xml:space="preserve">(tree inner node)</text>
    </g>
    <g text-rendering="geometricPrecision" stroke-miterlimit="1.45" stroke-dasharray="6,2" shape-rendering="geometricPrecision" transform="matrix(1,0,0,1,28,265)" stroke-linecap="butt">
      <path fill="none" d="M390 -126.3675 L390 -80.324" clip-path="url(#clipPath2)"/>
      <path d="M390 -72.324 L395 -84.324 L390 -81.324 L385 -84.324 Z" clip-path="url(#clipPath2)" stroke="none"/>
      <text x="372.8965" font-size="8px" y="-96.5638" clip-path="url(#clipPath2)" font-family="sans-serif" stroke-dasharray="none" stroke="none" xml:space="preserve">could be</text>
      <path fill="none" stroke-dasharray="none" d="M648.793 -126.3446 L624.8431 -79.4426" clip-path="url(#clipPath2)"/>
      <path stroke-dasharray="none" d="M621.2048 -72.3178 L631.1152 -80.7312 L625.2979 -80.3333 L622.2092 -85.279 Z" clip-path="url(#clipPath2)" stroke="none"/>
      <path fill="none" stroke-dasharray="none" d="M669.4197 -126.3446 L693.8846 -79.4118" clip-path="url(#clipPath2)"/>
      <path stroke-dasharray="none" d="M697.5826 -72.3178 L696.4694 -85.2701 L693.4224 -80.2986 L687.6019 -80.6476 Z" clip-path="url(#clipPath2)" stroke="none"/>
      <path fill="none" d="M367.9911 -126.3446 L314.4462 -77.7144" clip-path="url(#clipPath2)"/>
      <path d="M308.5241 -72.3359 L320.7688 -76.7024 L315.1865 -78.3867 L314.0457 -84.105 Z" clip-path="url(#clipPath2)" stroke="none"/>
      <text x="321.1465" font-size="8px" y="-96.5638" clip-path="url(#clipPath2)" font-family="sans-serif" stroke-dasharray="none" stroke="none" xml:space="preserve">could be</text>
      <path fill="none" d="M412.0089 -126.3446 L465.5538 -77.7144" clip-path="url(#clipPath2)"/>
      <path d="M471.4759 -72.3359 L465.9543 -84.105 L464.8135 -78.3867 L459.2312 -76.7024 Z" clip-path="url(#clipPath2)" stroke="none"/>
      <text x="424.6465" font-size="8px" y="-96.5638" clip-path="url(#clipPath2)" font-family="sans-serif" stroke-dasharray="none" stroke="none" xml:space="preserve">could be</text>
    </g>
    <g fill="rgb(225,225,225)" text-rendering="geometricPrecision" shape-rendering="geometricPrecision" transform="matrix(1,0,0,1,28,265)" stroke="rgb(225,225,225)">
      <rect x="2.04" y="-213.2708" clip-path="url(#clipPath2)" width="153.84" rx="4" ry="4" height="229.125" stroke="none"/>
      <rect x="2.04" y="-213.2708" clip-path="url(#clipPath2)" fill="rgb(235,235,235)" width="153.84" height="31.9375" stroke="none"/>
    </g>
    <g font-size="8px" stroke-linecap="butt" transform="matrix(1,0,0,1,28,265)" text-rendering="geometricPrecision" font-family="sans-serif" shape-rendering="geometricPrecision" stroke-miterlimit="1.45">
      <text x="89.6925" xml:space="preserve" y="-203.845" clip-path="url(#clipPath2)" stroke="none">Prolog variables</text>
      <text x="83.6417" xml:space="preserve" y="-194.5325" clip-path="url(#clipPath2)" stroke="none">name subtrees of</text>
      <text x="115.9269" xml:space="preserve" y="-185.22" clip-path="url(#clipPath2)" stroke="none">term tree</text>
      <rect x="2.04" y="-213.2708" clip-path="url(#clipPath2)" fill="none" width="153.84" stroke-dasharray="6,2" rx="4" ry="4" height="229.125"/>
    </g>
    <g fill="url(#linearGradient18)" text-rendering="geometricPrecision" shape-rendering="geometricPrecision" transform="matrix(1,0,0,1,28,265)" stroke="url(#linearGradient18)">
      <path d="M32.04 -161.3333 Q52.04 -151.3333 72.04 -161.3333 Q92.04 -171.3333 112.04 -161.3333 L112.04 -131.3333 Q92.04 -141.3333 72.04 -131.3333 Q52.04 -121.3333 32.04 -131.3333 Z" stroke="none" clip-path="url(#clipPath2)"/>
    </g>
    <g text-rendering="geometricPrecision" stroke-miterlimit="1.45" shape-rendering="geometricPrecision" transform="matrix(1,0,0,1,28,265)" stroke-linecap="butt">
      <path fill="none" d="M32.04 -161.3333 Q52.04 -151.3333 72.04 -161.3333 Q92.04 -171.3333 112.04 -161.3333 L112.04 -131.3333 Q92.04 -141.3333 72.04 -131.3333 Q52.04 -121.3333 32.04 -131.3333 Z" clip-path="url(#clipPath2)"/>
      <text x="70.7685" font-size="8px" y="-152.9075" clip-path="url(#clipPath2)" font-family="sans-serif" stroke="none" xml:space="preserve"> </text>
      <text x="55.5341" font-size="8px" y="-143.595" clip-path="url(#clipPath2)" font-family="sans-serif" stroke="none" xml:space="preserve">Variable</text>
      <text x="70.7685" font-size="8px" y="-134.2825" clip-path="url(#clipPath2)" font-family="sans-serif" stroke="none" xml:space="preserve"> </text>
      <text x="70.7685" font-size="8px" y="-124.9701" clip-path="url(#clipPath2)" font-family="sans-serif" stroke="none" xml:space="preserve"> </text>
      <text x="40.9267" font-size="8px" y="-115.6576" clip-path="url(#clipPath2)" font-family="sans-serif" stroke="none" xml:space="preserve">(names a term)</text>
    </g>
    <g fill="url(#linearGradient19)" text-rendering="geometricPrecision" shape-rendering="geometricPrecision" transform="matrix(1,0,0,1,28,265)" stroke="url(#linearGradient19)">
      <path d="M32.04 -67.3333 Q52.04 -57.3333 72.04 -67.3333 Q92.04 -77.3333 112.04 -67.3333 L112.04 -37.3333 Q92.04 -47.3333 72.04 -37.3333 Q52.04 -27.3333 32.04 -37.3333 Z" stroke="none" clip-path="url(#clipPath2)"/>
    </g>
    <g text-rendering="geometricPrecision" stroke-miterlimit="1.45" shape-rendering="geometricPrecision" transform="matrix(1,0,0,1,28,265)" stroke-linecap="butt">
      <path fill="none" d="M32.04 -67.3333 Q52.04 -57.3333 72.04 -67.3333 Q92.04 -77.3333 112.04 -67.3333 L112.04 -37.3333 Q92.04 -47.3333 72.04 -37.3333 Q52.04 -27.3333 32.04 -37.3333 Z" clip-path="url(#clipPath2)"/>
      <text x="70.7685" font-size="8px" y="-58.9076" clip-path="url(#clipPath2)" font-family="sans-serif" stroke="none" xml:space="preserve"> </text>
      <text x="36.3213" font-size="8px" y="-49.5951" clip-path="url(#clipPath2)" font-family="sans-serif" stroke="none" xml:space="preserve">Unbound or Fresh</text>
      <text x="55.5341" font-size="8px" y="-40.2826" clip-path="url(#clipPath2)" font-family="sans-serif" stroke="none" xml:space="preserve">Variable</text>
      <text x="70.7685" font-size="8px" y="-30.9701" clip-path="url(#clipPath2)" font-family="sans-serif" stroke="none" xml:space="preserve"> </text>
      <text x="70.7685" font-size="8px" y="-21.6576" clip-path="url(#clipPath2)" font-family="sans-serif" stroke="none" xml:space="preserve"> </text>
      <text x="49.5224" font-size="8px" y="-12.3451" clip-path="url(#clipPath2)" font-family="sans-serif" stroke="none" xml:space="preserve">(names an </text>
      <text x="30.583" font-size="8px" y="-3.0326" clip-path="url(#clipPath2)" font-family="sans-serif" stroke="none" xml:space="preserve">uninstantiated term)</text>
    </g>
    <g fill="url(#linearGradient20)" text-rendering="geometricPrecision" shape-rendering="geometricPrecision" transform="matrix(1,0,0,1,28,265)" stroke="url(#linearGradient20)">
      <rect x="323.2" width="80" height="40" y="516" clip-path="url(#clipPath2)" stroke="none"/>
    </g>
    <g text-rendering="geometricPrecision" stroke-miterlimit="1.45" shape-rendering="geometricPrecision" transform="matrix(1,0,0,1,28,265)" stroke-linecap="butt">
      <rect fill="none" x="323.2" width="80" height="40" y="516" clip-path="url(#clipPath2)"/>
      <path fill="none" d="M333.2 516 L333.2 556 M393.2 516 L393.2 556 M333.2 516 Z" clip-path="url(#clipPath2)"/>
    </g>
    <g fill="url(#linearGradient21)" text-rendering="geometricPrecision" shape-rendering="geometricPrecision" transform="matrix(1,0,0,1,28,265)" stroke="url(#linearGradient21)">
      <path d="M20.2 350 Q40.2 360 60.2 350 Q80.2 340 100.2 350 L100.2 380 Q80.2 370 60.2 380 Q40.2 390 20.2 380 Z" stroke="none" clip-path="url(#clipPath2)"/>
    </g>
    <g text-rendering="geometricPrecision" stroke-miterlimit="1.45" shape-rendering="geometricPrecision" transform="matrix(1,0,0,1,28,265)" stroke-linecap="butt">
      <path fill="none" d="M20.2 350 Q40.2 360 60.2 350 Q80.2 340 100.2 350 L100.2 380 Q80.2 370 60.2 380 Q40.2 390 20.2 380 Z" clip-path="url(#clipPath2)"/>
      <text x="56.0896" xml:space="preserve" y="369.1543" clip-path="url(#clipPath2)" font-family="sans-serif" stroke="none">Z</text>
    </g>
    <g fill="url(#linearGradient22)" text-rendering="geometricPrecision" shape-rendering="geometricPrecision" transform="matrix(1,0,0,1,28,265)" stroke="url(#linearGradient22)">
      <path d="M20.2 235 Q40.2 245 60.2 235 Q80.2 225 100.2 235 L100.2 265 Q80.2 255 60.2 265 Q40.2 275 20.2 265 Z" stroke="none" clip-path="url(#clipPath2)"/>
    </g>
    <g text-rendering="geometricPrecision" stroke-miterlimit="1.45" shape-rendering="geometricPrecision" transform="matrix(1,0,0,1,28,265)" stroke-linecap="butt">
      <path fill="none" d="M20.2 235 Q40.2 245 60.2 235 Q80.2 225 100.2 235 L100.2 265 Q80.2 255 60.2 265 Q40.2 275 20.2 265 Z" clip-path="url(#clipPath2)"/>
      <text x="56.535" xml:space="preserve" y="254.1543" clip-path="url(#clipPath2)" font-family="sans-serif" stroke="none">Y</text>
    </g>
    <g fill="url(#linearGradient23)" text-rendering="geometricPrecision" shape-rendering="geometricPrecision" transform="matrix(1,0,0,1,28,265)" stroke="url(#linearGradient23)">
      <path d="M20.2 438 Q40.2 448 60.2 438 Q80.2 428 100.2 438 L100.2 468 Q80.2 458 60.2 468 Q40.2 478 20.2 468 Z" stroke="none" clip-path="url(#clipPath2)"/>
    </g>
    <g text-rendering="geometricPrecision" stroke-miterlimit="1.45" shape-rendering="geometricPrecision" transform="matrix(1,0,0,1,28,265)" stroke-linecap="butt">
      <path fill="none" d="M20.2 438 Q40.2 448 60.2 438 Q80.2 428 100.2 438 L100.2 468 Q80.2 458 60.2 468 Q40.2 478 20.2 468 Z" clip-path="url(#clipPath2)"/>
      <text x="56.8572" xml:space="preserve" y="457.1543" clip-path="url(#clipPath2)" font-family="sans-serif" stroke="none">L</text>
    </g>
    <g fill="url(#linearGradient24)" text-rendering="geometricPrecision" shape-rendering="geometricPrecision" transform="matrix(1,0,0,1,28,265)" stroke="url(#linearGradient24)">
      <rect x="678.4" width="80" height="40" y="378.1458" clip-path="url(#clipPath2)" stroke="none"/>
    </g>
    <g text-rendering="geometricPrecision" stroke-miterlimit="1.45" shape-rendering="geometricPrecision" transform="matrix(1,0,0,1,28,265)" stroke-linecap="butt">
      <rect fill="none" x="678.4" width="80" height="40" y="378.1458" clip-path="url(#clipPath2)"/>
      <path fill="none" d="M688.4 378.1458 L688.4 418.1458 M748.4 378.1458 L748.4 418.1458 M688.4 378.1458 Z" clip-path="url(#clipPath2)"/>
    </g>
    <g fill="url(#linearGradient25)" text-rendering="geometricPrecision" shape-rendering="geometricPrecision" transform="matrix(1,0,0,1,28,265)" stroke="url(#linearGradient25)">
      <rect x="778" width="80" height="40" y="378.1458" clip-path="url(#clipPath2)" stroke="none"/>
    </g>
    <g text-rendering="geometricPrecision" stroke-miterlimit="1.45" shape-rendering="geometricPrecision" transform="matrix(1,0,0,1,28,265)" stroke-linecap="butt">
      <rect fill="none" x="778" width="80" height="40" y="378.1458" clip-path="url(#clipPath2)"/>
      <path fill="none" d="M788 378.1458 L788 418.1458 M848 378.1458 L848 418.1458 M788 378.1458 Z" clip-path="url(#clipPath2)"/>
    </g>
    <g fill="url(#linearGradient26)" text-rendering="geometricPrecision" shape-rendering="geometricPrecision" transform="matrix(1,0,0,1,28,265)" stroke="url(#linearGradient26)">
      <path d="M-12.96 69.9271 L900 69.9271 L900 109.9271 L-12.96 109.9271 Z" stroke="none" clip-path="url(#clipPath2)"/>
    </g>
    <g font-size="20px" stroke-linecap="butt" transform="matrix(1,0,0,1,28,265)" text-rendering="geometricPrecision" font-family="sans-serif" shape-rendering="geometricPrecision" stroke-miterlimit="1.45">
      <text x="95.5366" xml:space="preserve" y="96.8509" clip-path="url(#clipPath2)" stroke="none">Term building: Y=g(alpha,u(K)), Z=Y, L=charlie, X=f(Y,h(bravo,L,_,_))</text>
    </g>
    <g text-rendering="geometricPrecision" stroke-miterlimit="1.45" shape-rendering="geometricPrecision" transform="matrix(1,0,0,1,28,265)" stroke-linecap="butt">
      <path fill="none" d="M112.0567 -146.3333 L341.9981 -146.3333" clip-path="url(#clipPath2)"/>
      <path d="M349.9981 -146.3333 L337.9981 -151.3333 L340.9981 -146.3333 L337.9981 -141.3333 Z" clip-path="url(#clipPath2)" stroke="none"/>
      <path fill="none" d="M112.0156 -52.3333 L238.4998 -52.3333" clip-path="url(#clipPath2)"/>
      <path d="M246.4998 -52.3333 L234.4998 -57.3333 L237.4998 -52.3333 L234.4998 -47.3333 Z" clip-path="url(#clipPath2)" stroke="none"/>
      <path fill="none" stroke-dasharray="6,2" d="M66.7123 512.3011 L68.12 514.96 L71.5906 520.5625 L75.5225 525.13 L79.9156 528.6625 L84.77 531.16 L87.03 532.04 L90.0872 532.8051 L94.1738 533.12 L105.435 532.4 L120.8138 529.88 L140.31 525.56 L149.89 523.24 L160.4298 520.9562 L170.4944 519.325 L180.0836 518.3463 L189.1975 518.02 L197.8361 518.3463 L205.9994 519.325 L213.6873 520.9562 L220.9 523.24 L227.1 525.56 L242.3494 530.1275 L260.1975 533.39 L280.6444 535.3475 L303.69 536 L315.1877 536" clip-path="url(#clipPath2)"/>
      <path stroke-dasharray="6,2" d="M323.1877 536 L311.1877 531 L314.1877 536 L311.1877 541 Z" clip-path="url(#clipPath2)" stroke="none"/>
      <path fill="none" d="M363.2 421.0061 L363.2 507.9828" clip-path="url(#clipPath2)"/>
      <path d="M363.2 515.9828 L368.2 503.9828 L363.2 506.9828 L358.2 503.9828 Z" clip-path="url(#clipPath2)" stroke="none"/>
      <path fill="none" stroke-dasharray="6,2" d="M88.3922 345.8696 L100.24 337.83 L108.3906 332.7211 L116.4625 328.5094 L124.4556 325.1949 L132.37 322.7775 L140.2056 321.2574 L147.9625 320.6344 L155.6406 320.9086 L163.24 322.08 L169.96 323.52 L177.5537 324.7463 L185.215 325.185 L192.9437 324.8362 L200.74 323.7 L208.6037 321.7762 L216.535 319.065 L224.5338 315.5663 L232.6 311.28 L252.2407 299.9321" clip-path="url(#clipPath2)"/>
      <path stroke-dasharray="6,2" d="M259.1676 295.9298 L246.2758 297.6039 L251.3748 300.4323 L251.2786 306.2625 Z" clip-path="url(#clipPath2)" stroke="none"/>
      <path fill="none" stroke-dasharray="6,2" d="M71.9514 260.8474 L81.65 269.8 L87.1695 273.5406 L94.9531 276.6625 L105.0008 279.1656 L117.3125 281.05 L131.8883 282.3156 L148.7281 282.9625 L167.832 282.9906 L189.2 282.4 L251.2186 279.9193" clip-path="url(#clipPath2)"/>
      <path stroke-dasharray="6,2" d="M259.2122 279.5995 L247.022 275.0831 L250.2194 279.9592 L247.4216 285.0751 Z" clip-path="url(#clipPath2)" stroke="none"/>
      <path fill="none" stroke-dasharray="6,2" d="M100.2174 456.4199 L271.29 471.04 L311.8266 474.2687 L347.0813 476.575 L377.0541 477.9587 L401.745 478.42 L421.1541 477.9587 L435.2812 476.575 L440.3641 475.5372 L444.1266 474.2687 L446.5685 472.7697 L447.69 471.04 L448.51 467.76 L450.4225 464.3006 L454.315 461.3025 L460.1875 458.7656 L468.04 456.69 L477.8725 455.0756 L489.685 453.9225 L503.4775 453.2306 L519.25 453 L534.15 453 L550.1025 452.633 L564.435 451.5319 L577.1475 449.6967 L588.24 447.1275 L597.7125 443.8242 L605.565 439.7869 L611.7975 435.0155 L616.41 429.51 L619.4144 424.8701" clip-path="url(#clipPath2)"/>
      <path stroke-dasharray="6,2" d="M623.7625 418.155 L613.0433 425.5102 L618.8708 425.7095 L621.4373 430.9453 Z" clip-path="url(#clipPath2)" stroke="none"/>
      <path fill="none" d="M635.3595 297.9754 L696.7308 372.0067" clip-path="url(#clipPath2)"/>
      <path d="M701.8365 378.1656 L698.0273 365.7361 L696.0926 371.2368 L690.3287 372.1182 Z" clip-path="url(#clipPath2)" stroke="none"/>
      <path fill="none" d="M651.9432 297.9901 L778.0274 374.0367" clip-path="url(#clipPath2)"/>
      <path d="M784.8779 378.1685 L777.1846 367.6893 L777.1711 373.5203 L772.0198 376.2524 Z" clip-path="url(#clipPath2)" stroke="none"/>
    </g>
  </g>
</svg>
