<?xml version="1.0" encoding="UTF-8"?><svg xmlns="http://www.w3.org/2000/svg" xmlns:xlink="http://www.w3.org/1999/xlink" fill-opacity="1" color-rendering="auto" color-interpolation="auto" text-rendering="auto" stroke="black" stroke-linecap="square" width="1162" stroke-miterlimit="10" shape-rendering="auto" stroke-opacity="1" fill="black" stroke-dasharray="none" font-weight="normal" stroke-width="1" height="792" font-family="'Dialog'" font-style="normal" stroke-linejoin="miter" font-size="12px" stroke-dashoffset="0" image-rendering="auto">
  <!--Generated by ySVG 2.5-->
  <defs id="genericDefs"/>
  <g>
    <defs id="defs1">
      <linearGradient x1="943" gradientUnits="userSpaceOnUse" x2="1023" y1="421.5" y2="461.5" id="linearGradient1" spreadMethod="reflect">
        <stop stop-opacity="1" stop-color="rgb(232,238,247)" offset="0%"/>
        <stop stop-opacity="1" stop-color="rgb(183,201,227)" offset="100%"/>
      </linearGradient>
      <linearGradient x1="1085" gradientUnits="userSpaceOnUse" x2="1165" y1="346.875" y2="386.875" id="linearGradient2" spreadMethod="reflect">
        <stop stop-opacity="1" stop-color="rgb(232,238,247)" offset="0%"/>
        <stop stop-opacity="1" stop-color="rgb(183,201,227)" offset="100%"/>
      </linearGradient>
      <linearGradient x1="1085" gradientUnits="userSpaceOnUse" x2="1165" y1="462" y2="502" id="linearGradient3" spreadMethod="reflect">
        <stop stop-opacity="1" stop-color="rgb(232,238,247)" offset="0%"/>
        <stop stop-opacity="1" stop-color="rgb(183,201,227)" offset="100%"/>
      </linearGradient>
      <linearGradient x1="798" gradientUnits="userSpaceOnUse" x2="878" y1="494.5" y2="534.5" id="linearGradient4" spreadMethod="reflect">
        <stop stop-opacity="1" stop-color="rgb(232,238,247)" offset="0%"/>
        <stop stop-opacity="1" stop-color="rgb(183,201,227)" offset="100%"/>
      </linearGradient>
      <linearGradient x1="604.6667" gradientUnits="userSpaceOnUse" x2="684.6667" y1="577.125" y2="617.125" id="linearGradient5" spreadMethod="reflect">
        <stop stop-opacity="1" stop-color="rgb(232,238,247)" offset="0%"/>
        <stop stop-opacity="1" stop-color="rgb(183,201,227)" offset="100%"/>
      </linearGradient>
      <linearGradient x1="298.1667" gradientUnits="userSpaceOnUse" x2="457.1667" y1="326.209" y2="366.209" id="linearGradient6" spreadMethod="reflect">
        <stop stop-opacity="1" stop-color="rgb(255,153,0)" offset="0%"/>
        <stop stop-opacity="1" stop-color="rgb(255,153,0)" offset="100%"/>
      </linearGradient>
      <linearGradient x1="1268.3125" gradientUnits="userSpaceOnUse" x2="1396.8125" y1="692.25" y2="723.25" id="linearGradient7" spreadMethod="reflect">
        <stop stop-opacity="1" stop-color="rgb(255,255,153)" offset="0%"/>
        <stop stop-opacity="1" stop-color="rgb(255,255,153)" offset="100%"/>
      </linearGradient>
      <linearGradient x1="298.1667" gradientUnits="userSpaceOnUse" x2="457.1667" y1="366.209" y2="406.209" id="linearGradient8" spreadMethod="reflect">
        <stop stop-opacity="1" stop-color="rgb(255,153,0)" offset="0%"/>
        <stop stop-opacity="1" stop-color="rgb(255,153,0)" offset="100%"/>
      </linearGradient>
      <linearGradient x1="940" gradientUnits="userSpaceOnUse" x2="1243" y1="225.707" y2="265.707" id="linearGradient9" spreadMethod="reflect">
        <stop stop-opacity="1" stop-color="rgb(255,255,153)" offset="0%"/>
        <stop stop-opacity="1" stop-color="rgb(255,255,153)" offset="100%"/>
      </linearGradient>
      <linearGradient x1="1180.6666" gradientUnits="userSpaceOnUse" x2="1234.6666" y1="234.207" y2="257.207" id="linearGradient10" spreadMethod="reflect">
        <stop stop-opacity="1" stop-color="rgb(255,255,153)" offset="0%"/>
        <stop stop-opacity="1" stop-color="rgb(255,255,153)" offset="100%"/>
      </linearGradient>
      <linearGradient x1="662" gradientUnits="userSpaceOnUse" x2="1014" y1="150.5" y2="190.5" id="linearGradient11" spreadMethod="reflect">
        <stop stop-opacity="1" stop-color="rgb(255,255,153)" offset="0%"/>
        <stop stop-opacity="1" stop-color="rgb(255,255,153)" offset="100%"/>
      </linearGradient>
      <linearGradient x1="904.6667" gradientUnits="userSpaceOnUse" x2="1004.6667" y1="159" y2="182" id="linearGradient12" spreadMethod="reflect">
        <stop stop-opacity="1" stop-color="rgb(255,255,153)" offset="0%"/>
        <stop stop-opacity="1" stop-color="rgb(255,255,153)" offset="100%"/>
      </linearGradient>
      <linearGradient x1="1026.5" gradientUnits="userSpaceOnUse" x2="1223.5" y1="692.25" y2="750.25" id="linearGradient13" spreadMethod="reflect">
        <stop stop-opacity="1" stop-color="rgb(255,255,153)" offset="0%"/>
        <stop stop-opacity="1" stop-color="rgb(255,255,153)" offset="100%"/>
      </linearGradient>
      <linearGradient x1="1026.5" gradientUnits="userSpaceOnUse" x2="1223.5" y1="762.25" y2="793.25" id="linearGradient14" spreadMethod="reflect">
        <stop stop-opacity="1" stop-color="rgb(255,255,153)" offset="0%"/>
        <stop stop-opacity="1" stop-color="rgb(255,255,153)" offset="100%"/>
      </linearGradient>
      <linearGradient x1="1026.5" gradientUnits="userSpaceOnUse" x2="1223.5" y1="805.25" y2="836.25" id="linearGradient15" spreadMethod="reflect">
        <stop stop-opacity="1" stop-color="rgb(255,255,153)" offset="0%"/>
        <stop stop-opacity="1" stop-color="yellow" offset="100%"/>
      </linearGradient>
      <linearGradient x1="1291" gradientUnits="userSpaceOnUse" x2="1371" y1="577.125" y2="617.125" id="linearGradient16" spreadMethod="reflect">
        <stop stop-opacity="1" stop-color="rgb(255,153,0)" offset="0%"/>
        <stop stop-opacity="1" stop-color="rgb(255,153,0)" offset="100%"/>
      </linearGradient>
      <linearGradient x1="454.1667" gradientUnits="userSpaceOnUse" x2="835.1667" y1="75.293" y2="115.293" id="linearGradient17" spreadMethod="reflect">
        <stop stop-opacity="1" stop-color="rgb(255,255,153)" offset="0%"/>
        <stop stop-opacity="1" stop-color="rgb(255,255,153)" offset="100%"/>
      </linearGradient>
      <linearGradient x1="694.8333" gradientUnits="userSpaceOnUse" x2="814.8333" y1="83.793" y2="106.793" id="linearGradient18" spreadMethod="reflect">
        <stop stop-opacity="1" stop-color="rgb(255,255,153)" offset="0%"/>
        <stop stop-opacity="1" stop-color="rgb(255,255,153)" offset="100%"/>
      </linearGradient>
      <linearGradient x1="327.6667" gradientUnits="userSpaceOnUse" x2="427.6667" y1="529.7539" y2="569.7539" id="linearGradient19" spreadMethod="reflect">
        <stop stop-opacity="1" stop-color="silver" offset="0%"/>
        <stop stop-opacity="1" stop-color="silver" offset="100%"/>
      </linearGradient>
      <linearGradient x1="327.6667" gradientUnits="userSpaceOnUse" x2="427.6667" y1="586.7539" y2="626.7539" id="linearGradient20" spreadMethod="reflect">
        <stop stop-opacity="1" stop-color="silver" offset="0%"/>
        <stop stop-opacity="1" stop-color="silver" offset="100%"/>
      </linearGradient>
      <clipPath clipPathUnits="userSpaceOnUse" id="clipPath1">
        <path d="M0 0 L1162 0 L1162 792 L0 792 L0 0 Z"/>
      </clipPath>
      <clipPath clipPathUnits="userSpaceOnUse" id="clipPath2">
        <path d="M250 60 L1412 60 L1412 852 L250 852 L250 60 Z"/>
      </clipPath>
      <clipPath clipPathUnits="userSpaceOnUse" id="clipPath3">
        <path d="M-85.5948 -859.3938 L495.4052 146.9277 L-190.4869 542.9277 L-771.4869 -463.3938 L-85.5948 -859.3938 Z"/>
      </clipPath>
      <clipPath clipPathUnits="userSpaceOnUse" id="clipPath4">
        <path d="M-35.7442 -888.175 L545.2558 118.1465 L-140.6363 514.1465 L-721.6364 -492.175 L-35.7442 -888.175 Z"/>
      </clipPath>
      <clipPath clipPathUnits="userSpaceOnUse" id="clipPath5">
        <path d="M50.0787 -772.0254 L631.0787 234.2961 L-54.8134 630.2961 L-635.8134 -376.0254 L50.0787 -772.0254 Z"/>
      </clipPath>
      <clipPath clipPathUnits="userSpaceOnUse" id="clipPath6">
        <path d="M81.9663 -872.4194 L662.9663 133.9021 L-22.9258 529.902 L-603.9258 -476.4195 L81.9663 -872.4194 Z"/>
      </clipPath>
      <clipPath clipPathUnits="userSpaceOnUse" id="clipPath7">
        <path d="M166.0773 -809.3599 L747.0773 196.9616 L61.1852 592.9616 L-519.8148 -413.3599 L166.0773 -809.3599 Z"/>
      </clipPath>
      <clipPath clipPathUnits="userSpaceOnUse" id="clipPath8">
        <path d="M202.0496 -664.429 L783.0496 341.8925 L97.1575 737.8925 L-483.8425 -268.429 L202.0496 -664.429 Z"/>
      </clipPath>
    </defs>
    <g fill="white" text-rendering="geometricPrecision" shape-rendering="geometricPrecision" transform="translate(-250,-60)" stroke="white">
      <rect x="250" width="1162" height="792" y="60" clip-path="url(#clipPath2)" stroke="none"/>
    </g>
    <g fill="rgb(245,245,245)" text-rendering="geometricPrecision" shape-rendering="geometricPrecision" transform="matrix(1,0,0,1,-250,-60)" stroke="rgb(245,245,245)">
      <rect x="589.6667" y="309.4141" clip-path="url(#clipPath2)" width="609.3333" rx="4" ry="4" height="322.7109" stroke="none"/>
      <rect x="589.6667" y="309.4141" clip-path="url(#clipPath2)" fill="rgb(235,235,235)" width="609.3333" height="21.4609" stroke="none"/>
    </g>
    <g font-size="15px" stroke-linecap="butt" transform="matrix(1,0,0,1,-250,-60)" text-rendering="geometricPrecision" font-family="sans-serif" shape-rendering="geometricPrecision" stroke-miterlimit="1.45">
      <text x="966.7266" xml:space="preserve" y="325.3374" clip-path="url(#clipPath2)" stroke="none">Global term store holding cells</text>
      <rect x="589.6667" y="309.4141" clip-path="url(#clipPath2)" fill="none" width="609.3333" stroke-dasharray="6,2" rx="4" ry="4" height="322.7109"/>
    </g>
    <g fill="url(#linearGradient1)" text-rendering="geometricPrecision" shape-rendering="geometricPrecision" transform="matrix(1,0,0,1,-250,-60)" stroke="url(#linearGradient1)">
      <path d="M943 421.5 L1023 421.5 L1023 461.5 L943 461.5 Z" stroke="none" clip-path="url(#clipPath2)"/>
    </g>
    <g text-rendering="geometricPrecision" stroke-miterlimit="1.45" shape-rendering="geometricPrecision" transform="matrix(1,0,0,1,-250,-60)" stroke-linecap="butt">
      <path fill="none" d="M943 421.5 L1023 421.5 L1023 461.5 L943 461.5 Z" clip-path="url(#clipPath2)"/>
      <text x="951.292" xml:space="preserve" y="438.6699" clip-path="url(#clipPath2)" font-family="sans-serif" stroke="none">compound</text>
      <text x="974.9961" xml:space="preserve" y="452.6387" clip-path="url(#clipPath2)" font-family="sans-serif" stroke="none">-/2</text>
    </g>
    <g fill="url(#linearGradient2)" text-rendering="geometricPrecision" shape-rendering="geometricPrecision" transform="matrix(1,0,0,1,-250,-60)" stroke="url(#linearGradient2)">
      <path d="M1085 346.875 L1165 346.875 L1165 386.875 L1085 386.875 Z" stroke="none" clip-path="url(#clipPath2)"/>
    </g>
    <g text-rendering="geometricPrecision" stroke-miterlimit="1.45" shape-rendering="geometricPrecision" transform="matrix(1,0,0,1,-250,-60)" stroke-linecap="butt">
      <path fill="none" d="M1085 346.875 L1165 346.875 L1165 386.875 L1085 386.875 Z" clip-path="url(#clipPath2)"/>
      <text x="1109.4551" xml:space="preserve" y="364.0449" clip-path="url(#clipPath2)" font-family="sans-serif" stroke="none">atom</text>
      <text x="1121.3232" xml:space="preserve" y="378.0137" clip-path="url(#clipPath2)" font-family="sans-serif" stroke="none">a</text>
    </g>
    <g fill="url(#linearGradient3)" text-rendering="geometricPrecision" shape-rendering="geometricPrecision" transform="matrix(1,0,0,1,-250,-60)" stroke="url(#linearGradient3)">
      <path d="M1085 462 L1165 462 L1165 502 L1085 502 Z" stroke="none" clip-path="url(#clipPath2)"/>
    </g>
    <g text-rendering="geometricPrecision" stroke-miterlimit="1.45" shape-rendering="geometricPrecision" transform="matrix(1,0,0,1,-250,-60)" stroke-linecap="butt">
      <path fill="none" d="M1085 462 L1165 462 L1165 502 L1085 502 Z" clip-path="url(#clipPath2)"/>
      <text x="1109.4551" xml:space="preserve" y="479.1699" clip-path="url(#clipPath2)" font-family="sans-serif" stroke="none">atom</text>
      <text x="1121.1914" xml:space="preserve" y="493.1387" clip-path="url(#clipPath2)" font-family="sans-serif" stroke="none">b</text>
    </g>
    <g fill="url(#linearGradient4)" text-rendering="geometricPrecision" shape-rendering="geometricPrecision" transform="matrix(1,0,0,1,-250,-60)" stroke="url(#linearGradient4)">
      <path d="M798 494.5 L878 494.5 L878 534.5 L798 534.5 Z" stroke="none" clip-path="url(#clipPath2)"/>
    </g>
    <g text-rendering="geometricPrecision" stroke-miterlimit="1.45" shape-rendering="geometricPrecision" transform="matrix(1,0,0,1,-250,-60)" stroke-linecap="butt">
      <path fill="none" d="M798 494.5 L878 494.5 L878 534.5 L798 534.5 Z" clip-path="url(#clipPath2)"/>
      <text x="806.292" xml:space="preserve" y="511.6699" clip-path="url(#clipPath2)" font-family="sans-serif" stroke="none">compound</text>
      <text x="828.3525" xml:space="preserve" y="525.6387" clip-path="url(#clipPath2)" font-family="sans-serif" stroke="none">q/2</text>
    </g>
    <g fill="white" text-rendering="geometricPrecision" shape-rendering="geometricPrecision" transform="matrix(1,0,0,1,-250,-60)" stroke="white">
      <path d="M1085 577.125 L1165 577.125 L1165 617.125 L1085 617.125 Z" stroke="none" clip-path="url(#clipPath2)"/>
    </g>
    <g text-rendering="geometricPrecision" stroke-miterlimit="1.45" shape-rendering="geometricPrecision" transform="matrix(1,0,0,1,-250,-60)" stroke-linecap="butt">
      <path fill="none" d="M1085 577.125 L1165 577.125 L1165 617.125 L1085 617.125 Z" clip-path="url(#clipPath2)"/>
      <text x="1105.752" y="601.2793" clip-path="url(#clipPath2)" font-family="sans-serif" font-style="italic" stroke="none" xml:space="preserve">empty</text>
    </g>
    <g fill="url(#linearGradient5)" text-rendering="geometricPrecision" shape-rendering="geometricPrecision" transform="matrix(1,0,0,1,-250,-60)" stroke="url(#linearGradient5)">
      <path d="M604.6667 577.125 L684.6667 577.125 L684.6667 617.125 L604.6667 617.125 Z" stroke="none" clip-path="url(#clipPath2)"/>
    </g>
    <g text-rendering="geometricPrecision" stroke-miterlimit="1.45" shape-rendering="geometricPrecision" transform="matrix(1,0,0,1,-250,-60)" stroke-linecap="butt">
      <path fill="none" d="M604.6667 577.125 L684.6667 577.125 L684.6667 617.125 L604.6667 617.125 Z" clip-path="url(#clipPath2)"/>
      <text x="612.9587" xml:space="preserve" y="594.2949" clip-path="url(#clipPath2)" font-family="sans-serif" stroke="none">compound</text>
      <text x="636.7155" xml:space="preserve" y="608.2637" clip-path="url(#clipPath2)" font-family="sans-serif" stroke="none">f/2</text>
    </g>
    <g fill="url(#linearGradient6)" text-rendering="geometricPrecision" shape-rendering="geometricPrecision" transform="matrix(1,0,0,1,-250,-60)" stroke="url(#linearGradient6)">
      <path d="M298.1667 326.209 L457.1667 326.209 L457.1667 366.209 L298.1667 366.209 Z" stroke="none" clip-path="url(#clipPath2)"/>
    </g>
    <g stroke-linecap="butt" transform="matrix(1,0,0,1,-250,-60)" fill="red" text-rendering="geometricPrecision" shape-rendering="geometricPrecision" stroke="red" stroke-miterlimit="1.45">
      <path fill="none" d="M298.1667 326.209 L457.1667 326.209 L457.1667 366.209 L298.1667 366.209 Z" clip-path="url(#clipPath2)"/>
      <text x="352.3131" y="350.3633" clip-path="url(#clipPath2)" fill="black" font-family="sans-serif" stroke="none" xml:space="preserve">A query:</text>
    </g>
    <g fill="url(#linearGradient7)" text-rendering="geometricPrecision" shape-rendering="geometricPrecision" transform="matrix(1,0,0,1,-250,-60)" stroke="url(#linearGradient7)">
      <path d="M1268.3125 692.25 L1396.8125 692.25 L1396.8125 723.25 L1268.3125 723.25 Z" stroke="none" clip-path="url(#clipPath2)"/>
    </g>
    <g text-rendering="geometricPrecision" stroke-miterlimit="1.45" stroke-dasharray="6,2" shape-rendering="geometricPrecision" transform="matrix(1,0,0,1,-250,-60)" stroke-linecap="butt">
      <path fill="none" d="M1268.3125 692.25 L1396.8125 692.25 L1396.8125 723.25 L1268.3125 723.25 Z" clip-path="url(#clipPath2)"/>
      <text x="1274.3125" y="711.9043" clip-path="url(#clipPath2)" font-family="sans-serif" stroke-dasharray="none" stroke="none" xml:space="preserve">A "variable name"</text>
    </g>
    <g fill="url(#linearGradient8)" text-rendering="geometricPrecision" shape-rendering="geometricPrecision" transform="matrix(1,0,0,1,-250,-60)" stroke="url(#linearGradient8)">
      <path d="M298.1667 366.209 L457.1667 366.209 L457.1667 406.209 L298.1667 406.209 Z" stroke="none" clip-path="url(#clipPath2)"/>
    </g>
    <g stroke-linecap="butt" transform="matrix(1,0,0,1,-250,-60)" fill="red" text-rendering="geometricPrecision" shape-rendering="geometricPrecision" stroke="red" stroke-miterlimit="1.45">
      <path fill="none" d="M298.1667 366.209 L457.1667 366.209 L457.1667 406.209 L298.1667 406.209 Z" clip-path="url(#clipPath2)"/>
      <text x="319.8698" y="390.3633" clip-path="url(#clipPath2)" fill="black" font-family="'DejaVu Sans Mono'" stroke="none" xml:space="preserve">?- f(q(a-b,X),X)</text>
    </g>
    <g fill="url(#linearGradient9)" text-rendering="geometricPrecision" shape-rendering="geometricPrecision" transform="matrix(1,0,0,1,-250,-60)" stroke="url(#linearGradient9)">
      <path d="M940 225.707 L1243 225.707 L1243 265.707 L940 265.707 Z" stroke="none" clip-path="url(#clipPath2)"/>
    </g>
    <g text-rendering="geometricPrecision" stroke-miterlimit="1.45" stroke-dasharray="6,2" shape-rendering="geometricPrecision" transform="matrix(1,0,0,1,-250,-60)" stroke-linecap="butt">
      <path fill="none" d="M940 225.707 L1243 225.707 L1243 265.707 L940 265.707 Z" clip-path="url(#clipPath2)"/>
      <text x="946" y="249.8613" clip-path="url(#clipPath2)" font-family="sans-serif" stroke-dasharray="none" stroke="none" xml:space="preserve">A nonempty cell which holds the term</text>
    </g>
    <g fill="url(#linearGradient10)" text-rendering="geometricPrecision" shape-rendering="geometricPrecision" transform="matrix(1,0,0,1,-250,-60)" stroke="url(#linearGradient10)">
      <path d="M1180.6666 234.207 L1234.6666 234.207 L1234.6666 257.207 L1180.6666 257.207 Z" stroke="none" clip-path="url(#clipPath2)"/>
    </g>
    <g text-rendering="geometricPrecision" stroke-miterlimit="1.45" shape-rendering="geometricPrecision" transform="matrix(1,0,0,1,-250,-60)" stroke-linecap="butt">
      <path fill="none" d="M1180.6666 234.207 L1234.6666 234.207 L1234.6666 257.207 L1180.6666 257.207 Z" clip-path="url(#clipPath2)"/>
      <text x="1196.8297" xml:space="preserve" y="249.8613" clip-path="url(#clipPath2)" font-family="'DejaVu Sans Mono'" stroke="none">a-b</text>
    </g>
    <g fill="url(#linearGradient11)" text-rendering="geometricPrecision" shape-rendering="geometricPrecision" transform="matrix(1,0,0,1,-250,-60)" stroke="url(#linearGradient11)">
      <path d="M662 150.5 L1014 150.5 L1014 190.5 L662 190.5 Z" stroke="none" clip-path="url(#clipPath2)"/>
    </g>
    <g text-rendering="geometricPrecision" stroke-miterlimit="1.45" stroke-dasharray="6,2" shape-rendering="geometricPrecision" transform="matrix(1,0,0,1,-250,-60)" stroke-linecap="butt">
      <path fill="none" d="M662 150.5 L1014 150.5 L1014 190.5 L662 190.5 Z" clip-path="url(#clipPath2)"/>
      <text x="668" y="174.6543" clip-path="url(#clipPath2)" font-family="sans-serif" stroke-dasharray="none" stroke="none" xml:space="preserve">A nonempty cell which holds the term</text>
    </g>
    <g fill="url(#linearGradient12)" text-rendering="geometricPrecision" shape-rendering="geometricPrecision" transform="matrix(1,0,0,1,-250,-60)" stroke="url(#linearGradient12)">
      <path d="M904.6667 159 L1004.6667 159 L1004.6667 182 L904.6667 182 Z" stroke="none" clip-path="url(#clipPath2)"/>
    </g>
    <g text-rendering="geometricPrecision" stroke-miterlimit="1.45" shape-rendering="geometricPrecision" transform="matrix(1,0,0,1,-250,-60)" stroke-linecap="butt">
      <path fill="none" d="M904.6667 159 L1004.6667 159 L1004.6667 182 L904.6667 182 Z" clip-path="url(#clipPath2)"/>
      <text x="922.1559" xml:space="preserve" y="174.6543" clip-path="url(#clipPath2)" font-family="'DejaVu Sans Mono'" stroke="none">q(a-b,_1)</text>
    </g>
    <g fill="url(#linearGradient13)" text-rendering="geometricPrecision" shape-rendering="geometricPrecision" transform="matrix(1,0,0,1,-250,-60)" stroke="url(#linearGradient13)">
      <path d="M1026.5 692.25 L1223.5 692.25 L1223.5 750.25 L1026.5 750.25 Z" stroke="none" clip-path="url(#clipPath2)"/>
    </g>
    <g text-rendering="geometricPrecision" stroke-miterlimit="1.45" stroke-dasharray="6,2" shape-rendering="geometricPrecision" transform="matrix(1,0,0,1,-250,-60)" stroke-linecap="butt">
      <path fill="none" d="M1026.5 692.25 L1223.5 692.25 L1223.5 750.25 L1026.5 750.25 Z" clip-path="url(#clipPath2)"/>
      <text x="1032.5" y="711.4355" clip-path="url(#clipPath2)" font-family="sans-serif" stroke-dasharray="none" stroke="none" xml:space="preserve">An empty cell which may</text>
      <text x="1032.5" y="725.4043" clip-path="url(#clipPath2)" font-family="sans-serif" stroke-dasharray="none" stroke="none" xml:space="preserve">or may not be filled as</text>
      <text x="1032.5" y="739.373" clip-path="url(#clipPath2)" font-family="sans-serif" stroke-dasharray="none" stroke="none" xml:space="preserve">computation progresses</text>
    </g>
    <g fill="url(#linearGradient14)" text-rendering="geometricPrecision" shape-rendering="geometricPrecision" transform="matrix(1,0,0,1,-250,-60)" stroke="url(#linearGradient14)">
      <path d="M1026.5 762.25 L1223.5 762.25 L1223.5 793.25 L1026.5 793.25 Z" stroke="none" clip-path="url(#clipPath2)"/>
    </g>
    <g text-rendering="geometricPrecision" stroke-miterlimit="1.45" stroke-dasharray="6,2" shape-rendering="geometricPrecision" transform="matrix(1,0,0,1,-250,-60)" stroke-linecap="butt">
      <path fill="none" d="M1026.5 762.25 L1223.5 762.25 L1223.5 793.25 L1026.5 793.25 Z" clip-path="url(#clipPath2)"/>
      <text x="1032.5" y="781.9043" clip-path="url(#clipPath2)" font-family="sans-serif" stroke-dasharray="none" stroke="none" xml:space="preserve">Holds an "empty term"</text>
    </g>
    <g fill="url(#linearGradient15)" text-rendering="geometricPrecision" shape-rendering="geometricPrecision" transform="matrix(1,0,0,1,-250,-60)" stroke="url(#linearGradient15)">
      <path d="M1026.5 805.25 L1223.5 805.25 L1223.5 836.25 L1026.5 836.25 Z" stroke="none" clip-path="url(#clipPath2)"/>
    </g>
    <g text-rendering="geometricPrecision" stroke-miterlimit="1.45" stroke-dasharray="6,2" shape-rendering="geometricPrecision" transform="matrix(1,0,0,1,-250,-60)" stroke-linecap="butt">
      <path fill="none" d="M1026.5 805.25 L1223.5 805.25 L1223.5 836.25 L1026.5 836.25 Z" clip-path="url(#clipPath2)"/>
      <text x="1032.5" y="824.9043" clip-path="url(#clipPath2)" font-family="sans-serif" stroke-dasharray="none" stroke="none" xml:space="preserve">May also be called a "variable"</text>
    </g>
    <g fill="url(#linearGradient16)" text-rendering="geometricPrecision" shape-rendering="geometricPrecision" transform="matrix(1,0,0,1,-250,-60)" stroke="url(#linearGradient16)">
      <path d="M1291 577.125 L1371 577.125 L1371 617.125 L1291 617.125 Z" stroke="none" clip-path="url(#clipPath2)"/>
    </g>
    <g text-rendering="geometricPrecision" stroke-miterlimit="1.45" shape-rendering="geometricPrecision" transform="matrix(1,0,0,1,-250,-60)" stroke-linecap="butt">
      <path fill="none" d="M1291 577.125 L1371 577.125 L1371 617.125 L1291 617.125 Z" clip-path="url(#clipPath2)"/>
      <text x="1327.3877" xml:space="preserve" y="601.2793" clip-path="url(#clipPath2)" font-family="'DejaVu Sans Mono'" stroke="none">X</text>
    </g>
    <g fill="url(#linearGradient17)" text-rendering="geometricPrecision" shape-rendering="geometricPrecision" transform="matrix(1,0,0,1,-250,-60)" stroke="url(#linearGradient17)">
      <path d="M454.1667 75.293 L835.1667 75.293 L835.1667 115.293 L454.1667 115.293 Z" stroke="none" clip-path="url(#clipPath2)"/>
    </g>
    <g text-rendering="geometricPrecision" stroke-miterlimit="1.45" stroke-dasharray="6,2" shape-rendering="geometricPrecision" transform="matrix(1,0,0,1,-250,-60)" stroke-linecap="butt">
      <path fill="none" d="M454.1667 75.293 L835.1667 75.293 L835.1667 115.293 L454.1667 115.293 Z" clip-path="url(#clipPath2)"/>
      <text x="460.1667" y="99.4473" clip-path="url(#clipPath2)" font-family="sans-serif" stroke-dasharray="none" stroke="none" xml:space="preserve">A nonempty cell which holds the term</text>
    </g>
    <g fill="url(#linearGradient18)" text-rendering="geometricPrecision" shape-rendering="geometricPrecision" transform="matrix(1,0,0,1,-250,-60)" stroke="url(#linearGradient18)">
      <path d="M694.8333 83.793 L814.8333 83.793 L814.8333 106.793 L694.8333 106.793 Z" stroke="none" clip-path="url(#clipPath2)"/>
    </g>
    <g text-rendering="geometricPrecision" stroke-miterlimit="1.45" shape-rendering="geometricPrecision" transform="matrix(1,0,0,1,-250,-60)" stroke-linecap="butt">
      <path fill="none" d="M694.8333 83.793 L814.8333 83.793 L814.8333 106.793 L694.8333 106.793 Z" clip-path="url(#clipPath2)"/>
      <text x="700.6487" xml:space="preserve" y="99.4473" clip-path="url(#clipPath2)" font-family="'DejaVu Sans Mono'" stroke="none">f(q(a-b,_1),_1)</text>
    </g>
    <g text-rendering="geometricPrecision" stroke-miterlimit="1.45" shape-rendering="geometricPrecision" transform="matrix(1,0,0,1,-250,-60)" stroke-linecap="butt">
      <path fill="none" d="M1021.0308 421.5138 L1079.869 390.5926" clip-path="url(#clipPath2)"/>
      <path d="M1086.9507 386.871 L1074.0022 388.0273 L1078.9839 391.0578 L1078.6542 396.8794 Z" clip-path="url(#clipPath2)" stroke="none"/>
    </g>
    <g text-rendering="geometricPrecision" stroke-miterlimit="1.45" shape-rendering="geometricPrecision" font-family="sans-serif" transform="matrix(0.5,-0.866,0.866,0.5,787.0543,355.5696)" stroke-linecap="butt">
      <text x="2" xml:space="preserve" y="13.1387" clip-path="url(#clipPath3)" stroke="none">pos 0</text>
    </g>
    <g text-rendering="geometricPrecision" stroke-miterlimit="1.45" shape-rendering="geometricPrecision" transform="matrix(1,0,0,1,-250,-60)" stroke-linecap="butt">
      <path fill="none" d="M1022.9722 452.9005 L1077.3276 468.4033" clip-path="url(#clipPath2)"/>
      <path d="M1085.0209 470.5975 L1074.8524 462.4979 L1076.366 468.129 L1072.1097 472.1144 Z" clip-path="url(#clipPath2)" stroke="none"/>
    </g>
    <g text-rendering="geometricPrecision" stroke-miterlimit="1.45" shape-rendering="geometricPrecision" font-family="sans-serif" transform="matrix(0.5,-0.866,0.866,0.5,787.0543,413.1321)" stroke-linecap="butt">
      <text x="2" xml:space="preserve" y="13.1387" clip-path="url(#clipPath4)" stroke="none">pos 1</text>
    </g>
    <g text-rendering="geometricPrecision" stroke-miterlimit="1.45" shape-rendering="geometricPrecision" transform="matrix(1,0,0,1,-250,-60)" stroke-linecap="butt">
      <path fill="none" d="M877.7546 494.4856 L936.1048 465.1093" clip-path="url(#clipPath2)"/>
      <path d="M943.2504 461.5119 L930.2837 462.442 L935.2116 465.559 L934.7805 471.374 Z" clip-path="url(#clipPath2)" stroke="none"/>
    </g>
    <g text-rendering="geometricPrecision" stroke-miterlimit="1.45" shape-rendering="geometricPrecision" font-family="sans-serif" transform="matrix(0.5,-0.866,0.866,0.5,643.5543,429.3821)" stroke-linecap="butt">
      <text x="2" xml:space="preserve" y="13.1387" clip-path="url(#clipPath5)" stroke="none">pos 0</text>
    </g>
    <g text-rendering="geometricPrecision" stroke-miterlimit="1.45" shape-rendering="geometricPrecision" transform="matrix(1,0,0,1,-250,-60)" stroke-linecap="butt">
      <path fill="none" d="M877.974 526.0082 L1077.2971 583.3917" clip-path="url(#clipPath2)"/>
      <path d="M1084.9849 585.605 L1074.8365 577.4802 L1076.3362 583.1151 L1072.0699 587.09 Z" clip-path="url(#clipPath2)" stroke="none"/>
    </g>
    <g text-rendering="geometricPrecision" stroke-miterlimit="1.45" shape-rendering="geometricPrecision" font-family="sans-serif" transform="matrix(0.5,-0.866,0.866,0.5,714.5543,507.1946)" stroke-linecap="butt">
      <text x="2" xml:space="preserve" y="13.1387" clip-path="url(#clipPath6)" stroke="none">pos 1</text>
    </g>
    <g text-rendering="geometricPrecision" stroke-miterlimit="1.45" shape-rendering="geometricPrecision" transform="matrix(1,0,0,1,-250,-60)" stroke-linecap="butt">
      <path fill="none" d="M684.6847 597.125 L1076.9835 597.125" clip-path="url(#clipPath2)"/>
      <path d="M1084.9835 597.125 L1072.9835 592.125 L1075.9835 597.125 L1072.9835 602.125 Z" clip-path="url(#clipPath2)" stroke="none"/>
    </g>
    <g text-rendering="geometricPrecision" stroke-miterlimit="1.45" shape-rendering="geometricPrecision" font-family="sans-serif" transform="matrix(0.5,-0.866,0.866,0.5,617.8876,548.5071)" stroke-linecap="butt">
      <text x="2" xml:space="preserve" y="13.1387" clip-path="url(#clipPath7)" stroke="none">pos 1</text>
    </g>
    <g text-rendering="geometricPrecision" stroke-miterlimit="1.45" shape-rendering="geometricPrecision" transform="matrix(1,0,0,1,-250,-60)" stroke-linecap="butt">
      <path fill="none" d="M684.6691 580.0291 L790.6264 534.7461" clip-path="url(#clipPath2)"/>
      <path d="M797.9828 531.6022 L784.9833 531.7203 L789.7069 535.1391 L788.9131 540.9158 Z" clip-path="url(#clipPath2)" stroke="none"/>
    </g>
    <g text-rendering="geometricPrecision" stroke-miterlimit="1.45" shape-rendering="geometricPrecision" font-family="sans-serif" transform="matrix(0.5,-0.866,0.866,0.5,474.3876,507.1946)" stroke-linecap="butt">
      <text x="2" xml:space="preserve" y="13.1387" clip-path="url(#clipPath8)" stroke="none">pos 0</text>
    </g>
    <g text-rendering="geometricPrecision" stroke-miterlimit="1.45" stroke-dasharray="6,2" shape-rendering="geometricPrecision" transform="matrix(1,0,0,1,-250,-60)" stroke-linecap="butt">
      <path fill="none" d="M983 265.6975 L983 421.542" clip-path="url(#clipPath2)"/>
      <path fill="none" d="M838 190.5303 L838 494.5287" clip-path="url(#clipPath2)"/>
      <path fill="none" d="M1125 617.0953 L1125 692.2362" clip-path="url(#clipPath2)"/>
      <path fill="none" d="M1125 750.2449 L1125 762.2515" clip-path="url(#clipPath2)"/>
      <path fill="none" d="M1125 793.2451 L1125 805.2516" clip-path="url(#clipPath2)"/>
      <path fill="none" stroke-dasharray="none" d="M1290.9919 597.125 L1172.9985 597.125" clip-path="url(#clipPath2)"/>
      <path stroke-dasharray="none" d="M1164.9985 597.125 L1176.9985 602.125 L1173.9985 597.125 L1176.9985 592.125 Z" clip-path="url(#clipPath2)" stroke="none"/>
      <path fill="none" d="M1331.2827 617.1379 L1332.3431 692.2203" clip-path="url(#clipPath2)"/>
      <path fill="none" d="M644.6667 115.294 L644.6667 577.0977" clip-path="url(#clipPath2)"/>
    </g>
    <g transform="matrix(1,0,0,1,-250,-60)" fill-opacity="0.5176" fill="rgb(202,236,255)" text-rendering="geometricPrecision" shape-rendering="geometricPrecision" stroke="rgb(202,236,255)" stroke-opacity="0.5176">
      <rect x="265.6667" y="475.832" clip-path="url(#clipPath2)" width="224" rx="4" ry="4" height="175.1719" stroke="none"/>
    </g>
    <g fill="rgb(153,204,255)" text-rendering="geometricPrecision" shape-rendering="geometricPrecision" transform="matrix(1,0,0,1,-250,-60)" stroke="rgb(153,204,255)">
      <rect x="265.6667" width="224" height="38.9219" y="475.832" clip-path="url(#clipPath2)" stroke="none"/>
    </g>
    <g font-size="15px" stroke-linecap="butt" transform="matrix(1,0,0,1,-250,-60)" text-rendering="geometricPrecision" font-family="sans-serif" shape-rendering="geometricPrecision" stroke-miterlimit="1.45">
      <text x="300.7233" xml:space="preserve" y="491.7554" clip-path="url(#clipPath2)" stroke="none">Activation of the clause f</text>
      <text x="345.2326" xml:space="preserve" y="509.2163" clip-path="url(#clipPath2)" stroke="none">(i.e. a stack frame)</text>
    </g>
    <g stroke-linecap="round" transform="matrix(1,0,0,1,-250,-60)" stroke-dashoffset="2" fill="rgb(102,102,153)" text-rendering="geometricPrecision" shape-rendering="geometricPrecision" stroke-dasharray="0,4" stroke="rgb(102,102,153)" stroke-miterlimit="1.45">
      <rect x="265.6667" y="475.832" clip-path="url(#clipPath2)" fill="none" width="224" rx="4" ry="4" height="175.1719"/>
    </g>
    <g fill="url(#linearGradient19)" text-rendering="geometricPrecision" shape-rendering="geometricPrecision" transform="matrix(1,0,0,1,-250,-60)" stroke="url(#linearGradient19)">
      <path d="M327.6667 529.7539 L427.6667 529.7539 L427.6667 569.7539 L327.6667 569.7539 Z" stroke="none" clip-path="url(#clipPath2)"/>
    </g>
    <g text-rendering="geometricPrecision" stroke-miterlimit="1.45" shape-rendering="geometricPrecision" transform="matrix(1,0,0,1,-250,-60)" stroke-linecap="butt">
      <path fill="none" d="M327.6667 529.7539 L427.6667 529.7539 L427.6667 569.7539 L327.6667 569.7539 Z" clip-path="url(#clipPath2)"/>
      <text x="361.9899" xml:space="preserve" y="546.9238" clip-path="url(#clipPath2)" font-family="sans-serif" stroke="none">arg 0</text>
      <text x="348.7536" xml:space="preserve" y="560.8926" clip-path="url(#clipPath2)" font-family="sans-serif" stroke="none">reference</text>
    </g>
    <g fill="url(#linearGradient20)" text-rendering="geometricPrecision" shape-rendering="geometricPrecision" transform="matrix(1,0,0,1,-250,-60)" stroke="url(#linearGradient20)">
      <path d="M327.6667 586.7539 L427.6667 586.7539 L427.6667 626.7539 L327.6667 626.7539 Z" stroke="none" clip-path="url(#clipPath2)"/>
    </g>
    <g text-rendering="geometricPrecision" stroke-miterlimit="1.45" shape-rendering="geometricPrecision" transform="matrix(1,0,0,1,-250,-60)" stroke-linecap="butt">
      <path fill="none" d="M327.6667 586.7539 L427.6667 586.7539 L427.6667 626.7539 L327.6667 626.7539 Z" clip-path="url(#clipPath2)"/>
      <text x="361.9899" xml:space="preserve" y="603.9238" clip-path="url(#clipPath2)" font-family="sans-serif" stroke="none">arg 1</text>
      <text x="348.7536" xml:space="preserve" y="617.8926" clip-path="url(#clipPath2)" font-family="sans-serif" stroke="none">reference</text>
    </g>
    <g text-rendering="geometricPrecision" stroke-miterlimit="1.45" shape-rendering="geometricPrecision" transform="matrix(1,0,0,1,-250,-60)" stroke-linecap="butt">
      <path fill="none" d="M377.6667 406.2402 L377.6667 467.8113" clip-path="url(#clipPath2)"/>
      <path d="M377.6667 475.8113 L382.6667 463.8113 L377.6667 466.8113 L372.6667 463.8113 Z" clip-path="url(#clipPath2)" stroke="none"/>
      <text x="313.5563" xml:space="preserve" y="445.1748" clip-path="url(#clipPath2)" font-family="sans-serif" stroke="none">A call to f/2</text>
      <path fill="none" d="M427.6742 533.6904 L434.1562 531.6082 L490.9463 517.3879 L548.037 507.0931 L605.4283 500.7237 L663.1204 498.2796 L721.1129 499.761 L779.4061 505.1678 L790.0737 506.8668" clip-path="url(#clipPath2)"/>
      <path d="M797.9742 508.1251 L786.91 501.2999 L789.0862 506.7095 L785.3371 511.1754 Z" clip-path="url(#clipPath2)" stroke="none"/>
      <path fill="none" d="M427.6717 624.7871 L471.5084 638.5385 L518.3837 650.8964 L565.2286 660.8979 L612.0432 668.5432 L658.8275 673.8321 L705.5814 676.7647 L752.3049 677.3411 L798.998 675.5611 L845.6608 671.4249 L892.2932 664.9323 L938.8953 656.0834 L985.467 644.8783 L1032.0084 631.3168 L1077.5485 615.7314 L1077.6415 615.6948" clip-path="url(#clipPath2)"/>
      <path d="M1085.1036 612.811 L1072.108 612.4728 L1076.7087 616.0552 L1075.7128 621.8005 Z" clip-path="url(#clipPath2)" stroke="none"/>
    </g>
  </g>
</svg>
