<?xml version="1.0" encoding="UTF-8"?><svg xmlns="http://www.w3.org/2000/svg" xmlns:xlink="http://www.w3.org/1999/xlink" fill-opacity="1" color-rendering="auto" color-interpolation="auto" text-rendering="auto" stroke="black" stroke-linecap="square" width="1644" stroke-miterlimit="10" shape-rendering="auto" stroke-opacity="1" fill="black" stroke-dasharray="none" font-weight="normal" stroke-width="1" height="755" font-family="'Dialog'" font-style="normal" stroke-linejoin="miter" font-size="12px" stroke-dashoffset="0" image-rendering="auto">
  <!--Generated by ySVG 2.5-->
  <defs id="genericDefs"/>
  <g>
    <defs id="defs1">
      <linearGradient x1="692" gradientUnits="userSpaceOnUse" x2="899" y1="319" y2="359" id="linearGradient1" spreadMethod="reflect">
        <stop stop-opacity="1" stop-color="rgb(232,238,247)" offset="0%"/>
        <stop stop-opacity="1" stop-color="rgb(183,201,227)" offset="100%"/>
      </linearGradient>
      <linearGradient x1="899" gradientUnits="userSpaceOnUse" x2="1106" y1="446" y2="486" id="linearGradient2" spreadMethod="reflect">
        <stop stop-opacity="1" stop-color="rgb(232,238,247)" offset="0%"/>
        <stop stop-opacity="1" stop-color="rgb(183,201,227)" offset="100%"/>
      </linearGradient>
      <linearGradient x1="692" gradientUnits="userSpaceOnUse" x2="899" y1="243" y2="283" id="linearGradient3" spreadMethod="reflect">
        <stop stop-opacity="1" stop-color="rgb(232,238,247)" offset="0%"/>
        <stop stop-opacity="1" stop-color="rgb(183,201,227)" offset="100%"/>
      </linearGradient>
      <linearGradient x1="515" gradientUnits="userSpaceOnUse" x2="722" y1="446" y2="486" id="linearGradient4" spreadMethod="reflect">
        <stop stop-opacity="1" stop-color="rgb(232,238,247)" offset="0%"/>
        <stop stop-opacity="1" stop-color="rgb(183,201,227)" offset="100%"/>
      </linearGradient>
      <linearGradient x1="449" gradientUnits="userSpaceOnUse" x2="788" y1="700" y2="923" id="linearGradient5" spreadMethod="reflect">
        <stop stop-opacity="1" stop-color="rgb(232,238,247)" offset="0%"/>
        <stop stop-opacity="1" stop-color="rgb(183,201,227)" offset="100%"/>
      </linearGradient>
      <linearGradient x1="1007" gradientUnits="userSpaceOnUse" x2="1214" y1="569" y2="609" id="linearGradient6" spreadMethod="reflect">
        <stop stop-opacity="1" stop-color="rgb(232,238,247)" offset="0%"/>
        <stop stop-opacity="1" stop-color="rgb(183,201,227)" offset="100%"/>
      </linearGradient>
      <linearGradient x1="1007" gradientUnits="userSpaceOnUse" x2="1214" y1="660" y2="762" id="linearGradient7" spreadMethod="reflect">
        <stop stop-opacity="1" stop-color="rgb(232,238,247)" offset="0%"/>
        <stop stop-opacity="1" stop-color="rgb(183,201,227)" offset="100%"/>
      </linearGradient>
      <linearGradient x1="1007" gradientUnits="userSpaceOnUse" x2="1214" y1="762" y2="832" id="linearGradient8" spreadMethod="reflect">
        <stop stop-opacity="1" stop-color="rgb(232,238,247)" offset="0%"/>
        <stop stop-opacity="1" stop-color="yellow" offset="100%"/>
      </linearGradient>
      <linearGradient x1="765" gradientUnits="userSpaceOnUse" x2="972" y1="660" y2="762" id="linearGradient9" spreadMethod="reflect">
        <stop stop-opacity="1" stop-color="rgb(232,238,247)" offset="0%"/>
        <stop stop-opacity="1" stop-color="rgb(183,201,227)" offset="100%"/>
      </linearGradient>
      <linearGradient x1="765" gradientUnits="userSpaceOnUse" x2="972" y1="762" y2="832" id="linearGradient10" spreadMethod="reflect">
        <stop stop-opacity="1" stop-color="rgb(232,238,247)" offset="0%"/>
        <stop stop-opacity="1" stop-color="yellow" offset="100%"/>
      </linearGradient>
      <linearGradient x1="449" gradientUnits="userSpaceOnUse" x2="788" y1="923" y2="968" id="linearGradient11" spreadMethod="reflect">
        <stop stop-opacity="1" stop-color="rgb(232,238,247)" offset="0%"/>
        <stop stop-opacity="1" stop-color="yellow" offset="100%"/>
      </linearGradient>
      <clipPath clipPathUnits="userSpaceOnUse" id="clipPath1">
        <path d="M0 0 L1644 0 L1644 755 L0 755 L0 0 Z"/>
      </clipPath>
      <clipPath clipPathUnits="userSpaceOnUse" id="clipPath2">
        <path d="M31 228 L1675 228 L1675 983 L31 983 L31 228 Z"/>
      </clipPath>
      <clipPath clipPathUnits="userSpaceOnUse" id="clipPath3">
        <path d="M-12 10 L0 10 L0 -10 L-12 -10 Z"/>
      </clipPath>
    </defs>
    <g fill="white" text-rendering="geometricPrecision" shape-rendering="geometricPrecision" transform="translate(-31,-228)" stroke="white">
      <rect x="31" width="1644" height="755" y="228" clip-path="url(#clipPath2)" stroke="none"/>
    </g>
    <g fill="url(#linearGradient1)" text-rendering="geometricPrecision" shape-rendering="geometricPrecision" transform="matrix(1,0,0,1,-31,-228)" stroke="url(#linearGradient1)">
      <path d="M692 319 L899 319 L899 359 L692 359 Z" stroke="none" clip-path="url(#clipPath2)"/>
    </g>
    <g text-rendering="geometricPrecision" stroke-miterlimit="1.45" shape-rendering="geometricPrecision" transform="matrix(1,0,0,1,-31,-228)" stroke-linecap="butt">
      <path fill="none" d="M692 319 L899 319 L899 359 L692 359 Z" clip-path="url(#clipPath2)"/>
      <text x="734.8027" xml:space="preserve" y="343.1543" clip-path="url(#clipPath2)" font-family="sans-serif" stroke="none">java.lang.Throwable</text>
    </g>
    <g fill="url(#linearGradient2)" text-rendering="geometricPrecision" shape-rendering="geometricPrecision" transform="matrix(1,0,0,1,-31,-228)" stroke="url(#linearGradient2)">
      <path d="M899 446 L1106 446 L1106 486 L899 486 Z" stroke="none" clip-path="url(#clipPath2)"/>
    </g>
    <g text-rendering="geometricPrecision" stroke-miterlimit="1.45" shape-rendering="geometricPrecision" transform="matrix(1,0,0,1,-31,-228)" stroke-linecap="butt">
      <path fill="none" d="M899 446 L1106 446 L1106 486 L899 486 Z" clip-path="url(#clipPath2)"/>
      <text x="943.5254" xml:space="preserve" y="470.1543" clip-path="url(#clipPath2)" font-family="sans-serif" stroke="none">java.lang.Exception</text>
    </g>
    <g fill="url(#linearGradient3)" text-rendering="geometricPrecision" shape-rendering="geometricPrecision" transform="matrix(1,0,0,1,-31,-228)" stroke="url(#linearGradient3)">
      <path d="M692 243 L899 243 L899 283 L692 283 Z" stroke="none" clip-path="url(#clipPath2)"/>
    </g>
    <g text-rendering="geometricPrecision" stroke-miterlimit="1.45" shape-rendering="geometricPrecision" transform="matrix(1,0,0,1,-31,-228)" stroke-linecap="butt">
      <path fill="none" d="M692 243 L899 243 L899 283 L692 283 Z" clip-path="url(#clipPath2)"/>
      <text x="746.6182" xml:space="preserve" y="267.1543" clip-path="url(#clipPath2)" font-family="sans-serif" stroke="none">java.lang.Object</text>
    </g>
    <g fill="url(#linearGradient4)" text-rendering="geometricPrecision" shape-rendering="geometricPrecision" transform="matrix(1,0,0,1,-31,-228)" stroke="url(#linearGradient4)">
      <path d="M515 446 L722 446 L722 486 L515 486 Z" stroke="none" clip-path="url(#clipPath2)"/>
    </g>
    <g text-rendering="geometricPrecision" stroke-miterlimit="1.45" shape-rendering="geometricPrecision" transform="matrix(1,0,0,1,-31,-228)" stroke-linecap="butt">
      <path fill="none" d="M515 446 L722 446 L722 486 L515 486 Z" clip-path="url(#clipPath2)"/>
      <text x="574.2969" xml:space="preserve" y="470.1543" clip-path="url(#clipPath2)" font-family="sans-serif" stroke="none">java.lang.Error</text>
    </g>
    <g fill="url(#linearGradient5)" text-rendering="geometricPrecision" shape-rendering="geometricPrecision" transform="matrix(1,0,0,1,-31,-228)" stroke="url(#linearGradient5)">
      <path d="M449 700 L788 700 L788 923 L449 923 Z" stroke="none" clip-path="url(#clipPath2)"/>
    </g>
    <g text-rendering="geometricPrecision" stroke-miterlimit="1.45" shape-rendering="geometricPrecision" transform="matrix(1,0,0,1,-31,-228)" stroke-linecap="butt">
      <path fill="none" d="M449 700 L788 700 L788 923 L449 923 Z" clip-path="url(#clipPath2)"/>
      <text x="455" font-size="10px" y="721.8369" clip-path="url(#clipPath2)" font-family="sans-serif" stroke="none" xml:space="preserve">Those that come with JDK:</text>
      <text x="455" font-size="10px" y="733.4775" clip-path="url(#clipPath2)" font-family="sans-serif" stroke="none" xml:space="preserve"> </text>
      <text x="455" font-size="10px" y="745.1182" clip-path="url(#clipPath2)" font-family="sans-serif" stroke="none" xml:space="preserve">java.lang.annotation.AnnotationFormatError </text>
      <text x="455" font-size="10px" y="756.7588" clip-path="url(#clipPath2)" font-family="sans-serif" stroke="none" xml:space="preserve">java.awt.AWTError</text>
      <text x="455" font-size="10px" y="768.3994" clip-path="url(#clipPath2)" font-family="sans-serif" stroke="none" xml:space="preserve">java.nio.charset.CoderMalfunctionError</text>
      <text x="455" font-size="10px" y="780.04" clip-path="url(#clipPath2)" font-family="sans-serif" stroke="none" xml:space="preserve">javax.xml.parsers.FactoryConfigurationError</text>
      <text x="455" font-size="10px" y="791.6807" clip-path="url(#clipPath2)" font-family="sans-serif" stroke="none" xml:space="preserve">javax.xml.stream.FactoryConfigurationError</text>
      <text x="455" font-size="10px" y="803.3213" clip-path="url(#clipPath2)" font-family="sans-serif" stroke="none" xml:space="preserve">java.io.IOError</text>
      <text x="455" font-size="10px" y="814.9619" clip-path="url(#clipPath2)" font-family="sans-serif" stroke="none" xml:space="preserve">java.lang.LinkageError</text>
      <text x="455" font-size="10px" y="826.6025" clip-path="url(#clipPath2)" font-family="sans-serif" stroke="none" xml:space="preserve">java.util.ServiceConfigurationError</text>
      <text x="455" font-size="10px" y="838.2432" clip-path="url(#clipPath2)" font-family="sans-serif" stroke="none" xml:space="preserve">java.lang.ThreadDeath </text>
      <text x="455" font-size="10px" y="849.8838" clip-path="url(#clipPath2)" font-family="sans-serif" stroke="none" xml:space="preserve">javax.xml.transform.TransformerFactoryConfigurationError</text>
      <text x="455" font-size="10px" y="861.5244" clip-path="url(#clipPath2)" font-family="sans-serif" stroke="none" xml:space="preserve">java.lang.VirtualMachineError</text>
      <text x="455" font-size="10px" y="873.165" clip-path="url(#clipPath2)" font-family="sans-serif" stroke="none" xml:space="preserve"> </text>
      <text x="455" font-size="10px" y="884.8057" clip-path="url(#clipPath2)" font-family="sans-serif" stroke="none" xml:space="preserve">In particular</text>
      <text x="455" font-size="10px" y="896.4463" clip-path="url(#clipPath2)" font-family="sans-serif" stroke="none" xml:space="preserve"> </text>
      <text x="455" font-size="10px" y="908.0869" clip-path="url(#clipPath2)" font-family="sans-serif" stroke="none" xml:space="preserve">java.lang.AssertionError</text>
    </g>
    <g fill="url(#linearGradient6)" text-rendering="geometricPrecision" shape-rendering="geometricPrecision" transform="matrix(1,0,0,1,-31,-228)" stroke="url(#linearGradient6)">
      <path d="M1007 569 L1214 569 L1214 609 L1007 609 Z" stroke="none" clip-path="url(#clipPath2)"/>
    </g>
    <g text-rendering="geometricPrecision" stroke-miterlimit="1.45" shape-rendering="geometricPrecision" transform="matrix(1,0,0,1,-31,-228)" stroke-linecap="butt">
      <path fill="none" d="M1007 569 L1214 569 L1214 609 L1007 609 Z" clip-path="url(#clipPath2)"/>
      <text x="1026.1953" xml:space="preserve" y="593.1543" clip-path="url(#clipPath2)" font-family="sans-serif" stroke="none">java.lang.RuntimeException</text>
    </g>
    <g text-rendering="geometricPrecision" stroke-miterlimit="1.45" shape-rendering="geometricPrecision" transform="matrix(1,0,0,1,-31,-228)" stroke-linecap="butt">
      <path fill="none" d="M1314.75 511.5 L1273 511.5 L1273 666.5 L1314.75 666.5" clip-path="url(#clipPath2)"/>
      <text x="1279" font-size="10px" y="528.4385" clip-path="url(#clipPath2)" font-family="sans-serif" stroke="none" xml:space="preserve">From the JavaDoc</text>
      <text x="1279" font-size="10px" y="540.0791" clip-path="url(#clipPath2)" font-family="sans-serif" stroke="none" xml:space="preserve">https://docs.oracle.com/javase/7/docs/api/java/lang/RuntimeException.html</text>
      <text x="1279" font-size="10px" y="551.7197" clip-path="url(#clipPath2)" font-family="sans-serif" stroke="none" xml:space="preserve"> </text>
      <text x="1279" font-size="10px" y="563.3604" clip-path="url(#clipPath2)" font-family="sans-serif" stroke="none" xml:space="preserve">RuntimeException is the superclass of those exceptions that </text>
      <text x="1279" font-size="10px" y="575.001" clip-path="url(#clipPath2)" font-family="sans-serif" stroke="none" xml:space="preserve">can be thrown during the normal operation of the Java Virtual</text>
      <text x="1279" font-size="10px" y="586.6416" clip-path="url(#clipPath2)" font-family="sans-serif" stroke="none" xml:space="preserve">Machine.</text>
      <text x="1279" font-size="10px" y="598.2822" clip-path="url(#clipPath2)" font-family="sans-serif" stroke="none" xml:space="preserve"> </text>
      <text x="1279" font-size="10px" y="609.9229" clip-path="url(#clipPath2)" font-family="sans-serif" stroke="none" xml:space="preserve">RuntimeException and its subclasses are unchecked exceptions.</text>
      <text x="1279" font-size="10px" y="621.5635" clip-path="url(#clipPath2)" font-family="sans-serif" stroke="none" xml:space="preserve">Unchecked exceptions do not need to be declared in a method</text>
      <text x="1279" font-size="10px" y="633.2041" clip-path="url(#clipPath2)" font-family="sans-serif" stroke="none" xml:space="preserve">or constructor's throws clause if they can be thrown by the</text>
      <text x="1279" font-size="10px" y="644.8447" clip-path="url(#clipPath2)" font-family="sans-serif" stroke="none" xml:space="preserve">execution of the method or constructor and propagate outside </text>
      <text x="1279" font-size="10px" y="656.4854" clip-path="url(#clipPath2)" font-family="sans-serif" stroke="none" xml:space="preserve">the method or constructor boundary.</text>
    </g>
    <g fill="url(#linearGradient7)" text-rendering="geometricPrecision" shape-rendering="geometricPrecision" transform="matrix(1,0,0,1,-31,-228)" stroke="url(#linearGradient7)">
      <path d="M1007 660 L1214 660 L1214 762 L1007 762 Z" stroke="none" clip-path="url(#clipPath2)"/>
    </g>
    <g text-rendering="geometricPrecision" stroke-miterlimit="1.45" shape-rendering="geometricPrecision" transform="matrix(1,0,0,1,-31,-228)" stroke-linecap="butt">
      <path fill="none" d="M1007 660 L1214 660 L1214 762 L1007 762 Z" clip-path="url(#clipPath2)"/>
      <text x="1013" font-size="10px" y="685.3604" clip-path="url(#clipPath2)" font-family="sans-serif" stroke="none" xml:space="preserve">Those that come with JDK</text>
      <text x="1013" font-size="10px" y="697.001" clip-path="url(#clipPath2)" font-family="sans-serif" stroke="none" xml:space="preserve">...</text>
      <text x="1013" font-size="10px" y="708.6416" clip-path="url(#clipPath2)" font-family="sans-serif" stroke="none" xml:space="preserve">java.lang.SecurityException</text>
      <text x="1013" font-size="10px" y="720.2822" clip-path="url(#clipPath2)" font-family="sans-serif" stroke="none" xml:space="preserve">java.lang.ArithmeticException</text>
      <text x="1013" font-size="10px" y="731.9229" clip-path="url(#clipPath2)" font-family="sans-serif" stroke="none" xml:space="preserve">java.lang.NullPointerException</text>
      <text x="1013" font-size="10px" y="743.5635" clip-path="url(#clipPath2)" font-family="sans-serif" stroke="none" xml:space="preserve">...</text>
    </g>
    <g fill="url(#linearGradient8)" text-rendering="geometricPrecision" shape-rendering="geometricPrecision" transform="matrix(1,0,0,1,-31,-228)" stroke="url(#linearGradient8)">
      <path d="M1007 762 L1214 762 L1214 832 L1007 832 Z" stroke="none" clip-path="url(#clipPath2)"/>
    </g>
    <g text-rendering="geometricPrecision" stroke-miterlimit="1.45" shape-rendering="geometricPrecision" transform="matrix(1,0,0,1,-31,-228)" stroke-linecap="butt">
      <path fill="none" d="M1007 762 L1214 762 L1214 832 L1007 832 Z" clip-path="url(#clipPath2)"/>
      <text x="1013" xml:space="preserve" y="787.1855" clip-path="url(#clipPath2)" font-family="sans-serif" stroke="none">Your own RuntimeException</text>
      <text x="1013" xml:space="preserve" y="801.1543" clip-path="url(#clipPath2)" font-family="sans-serif" stroke="none">subclasses in your</text>
      <text x="1013" xml:space="preserve" y="815.123" clip-path="url(#clipPath2)" font-family="sans-serif" stroke="none">own package....</text>
    </g>
    <g fill="url(#linearGradient9)" text-rendering="geometricPrecision" shape-rendering="geometricPrecision" transform="matrix(1,0,0,1,-31,-228)" stroke="url(#linearGradient9)">
      <path d="M765 660 L972 660 L972 762 L765 762 Z" stroke="none" clip-path="url(#clipPath2)"/>
    </g>
    <g text-rendering="geometricPrecision" stroke-miterlimit="1.45" shape-rendering="geometricPrecision" transform="matrix(1,0,0,1,-31,-228)" stroke-linecap="butt">
      <path fill="none" d="M765 660 L972 660 L972 762 L765 762 Z" clip-path="url(#clipPath2)"/>
      <text x="771" font-size="10px" y="685.3604" clip-path="url(#clipPath2)" font-family="sans-serif" stroke="none" xml:space="preserve">Those that come with JDK</text>
      <text x="771" font-size="10px" y="697.001" clip-path="url(#clipPath2)" font-family="sans-serif" stroke="none" xml:space="preserve">...</text>
      <text x="771" font-size="10px" y="708.6416" clip-path="url(#clipPath2)" font-family="sans-serif" stroke="none" xml:space="preserve">java.awt.AWTException</text>
      <text x="771" font-size="10px" y="720.2822" clip-path="url(#clipPath2)" font-family="sans-serif" stroke="none" xml:space="preserve">java.rmi.NotBoundException</text>
      <text x="771" font-size="10px" y="731.9229" clip-path="url(#clipPath2)" font-family="sans-serif" stroke="none" xml:space="preserve">java.util.concurrent.ExecutionException</text>
      <text x="771" font-size="10px" y="743.5635" clip-path="url(#clipPath2)" font-family="sans-serif" stroke="none" xml:space="preserve">...</text>
    </g>
    <g fill="url(#linearGradient10)" text-rendering="geometricPrecision" shape-rendering="geometricPrecision" transform="matrix(1,0,0,1,-31,-228)" stroke="url(#linearGradient10)">
      <path d="M765 762 L972 762 L972 832 L765 832 Z" stroke="none" clip-path="url(#clipPath2)"/>
    </g>
    <g text-rendering="geometricPrecision" stroke-miterlimit="1.45" shape-rendering="geometricPrecision" transform="matrix(1,0,0,1,-31,-228)" stroke-linecap="butt">
      <path fill="none" d="M765 762 L972 762 L972 832 L765 832 Z" clip-path="url(#clipPath2)"/>
      <text x="771" xml:space="preserve" y="787.1855" clip-path="url(#clipPath2)" font-family="sans-serif" stroke="none">Your own </text>
      <text x="771" xml:space="preserve" y="801.1543" clip-path="url(#clipPath2)" font-family="sans-serif" stroke="none">Exception subclasses in your</text>
      <text x="771" xml:space="preserve" y="815.123" clip-path="url(#clipPath2)" font-family="sans-serif" stroke="none">own package....</text>
    </g>
    <g text-rendering="geometricPrecision" stroke-miterlimit="1.45" shape-rendering="geometricPrecision" transform="matrix(1,0,0,1,-31,-228)" stroke-linecap="butt">
      <path fill="none" d="M404.75 419.5 L456 419.5 L456 512.5 L404.75 512.5" clip-path="url(#clipPath2)"/>
      <text x="52" font-size="10px" y="434.54" clip-path="url(#clipPath2)" font-family="sans-serif" stroke="none" xml:space="preserve">From the JavaDoc:</text>
      <text x="52" font-size="10px" y="446.1807" clip-path="url(#clipPath2)" font-family="sans-serif" stroke="none" xml:space="preserve">https://docs.oracle.com/javase/7/docs/api/java/lang/Error.html</text>
      <text x="52" font-size="10px" y="457.8213" clip-path="url(#clipPath2)" font-family="sans-serif" stroke="none" xml:space="preserve"> </text>
      <text x="52" font-size="10px" y="469.4619" clip-path="url(#clipPath2)" font-family="sans-serif" stroke="none" xml:space="preserve">An Error is a subclass of Throwable that indicates serious problems that a </text>
      <text x="52" font-size="10px" y="481.1025" clip-path="url(#clipPath2)" font-family="sans-serif" stroke="none" xml:space="preserve">reasonable application should not try to catch. Most such errors are </text>
      <text x="52" font-size="10px" y="492.7432" clip-path="url(#clipPath2)" font-family="sans-serif" stroke="none" xml:space="preserve">abnormal conditions. The ThreadDeath error, though a "normal" condition, </text>
      <text x="52" font-size="10px" y="504.3838" clip-path="url(#clipPath2)" font-family="sans-serif" stroke="none" xml:space="preserve">is also a subclass of Error because most applications should not try to catch it.</text>
    </g>
    <g fill="url(#linearGradient11)" text-rendering="geometricPrecision" shape-rendering="geometricPrecision" transform="matrix(1,0,0,1,-31,-228)" stroke="url(#linearGradient11)">
      <path d="M449 923 L788 923 L788 968 L449 968 Z" stroke="none" clip-path="url(#clipPath2)"/>
    </g>
    <g text-rendering="geometricPrecision" stroke-miterlimit="1.45" shape-rendering="geometricPrecision" transform="matrix(1,0,0,1,-31,-228)" stroke-linecap="butt">
      <path fill="none" d="M449 923 L788 923 L788 968 L449 968 Z" clip-path="url(#clipPath2)"/>
      <text x="455" xml:space="preserve" y="949.6543" clip-path="url(#clipPath2)" font-family="sans-serif" stroke="none">Your own Errors in your own package....</text>
    </g>
    <g text-rendering="geometricPrecision" stroke-miterlimit="1.45" shape-rendering="geometricPrecision" transform="matrix(1,0,0,1,-31,-228)" stroke-linecap="butt">
      <path fill="none" d="M1002.5 446.0112 L1002.5 399 L795.5 399 L795.5 374.0098" clip-path="url(#clipPath2)"/>
    </g>
    <g stroke-linecap="butt" transform="matrix(1,0,0,1,-31,-228)" fill="white" text-rendering="geometricPrecision" shape-rendering="geometricPrecision" stroke="white" stroke-miterlimit="1.45">
      <path d="M795.5 359.0098 L789.5 375.0098 L801.5 375.0098 Z" stroke="none" clip-path="url(#clipPath2)"/>
      <path fill="none" d="M795.5 359.0098 L789.5 375.0098 L801.5 375.0098 Z" clip-path="url(#clipPath2)" stroke="black"/>
      <path fill="none" d="M795.5 318.998 L795.5 297.9876" clip-path="url(#clipPath2)" stroke="black"/>
      <path d="M795.5 282.9876 L789.5 298.9876 L801.5 298.9876 Z" clip-path="url(#clipPath2)" stroke="none"/>
      <path fill="none" d="M795.5 282.9876 L789.5 298.9876 L801.5 298.9876 Z" clip-path="url(#clipPath2)" stroke="black"/>
      <path fill="none" d="M618.5 446.0112 L618.5 399 L795.5 399 L795.5 374.0098" clip-path="url(#clipPath2)" stroke="black"/>
      <path d="M795.5 359.0098 L789.5 375.0098 L801.5 375.0098 Z" clip-path="url(#clipPath2)" stroke="none"/>
      <path fill="none" d="M795.5 359.0098 L789.5 375.0098 L801.5 375.0098 Z" clip-path="url(#clipPath2)" stroke="black"/>
      <path fill="none" d="M618.5 690.9999 L618.5 640 L618.5 576 L618.5 501.0073" clip-path="url(#clipPath2)" stroke="black"/>
      <line transform="matrix(0,1,-1,0,618.5,699.9999)" clip-path="url(#clipPath3)" fill="none" x1="-10" x2="2" y1="0" y2="8" stroke="black"/>
      <line transform="matrix(0,1,-1,0,618.5,699.9999)" clip-path="url(#clipPath3)" fill="none" x1="-10" x2="2" y1="0" y2="0" stroke="black"/>
      <line transform="matrix(0,1,-1,0,618.5,699.9999)" clip-path="url(#clipPath3)" fill="none" x1="-10" x2="2" y1="0" y2="-8" stroke="black"/>
    </g>
    <g stroke-linecap="butt" transform="matrix(1,0,0,1,-31,-228)" fill="white" text-rendering="geometricPrecision" shape-rendering="geometricPrecision" stroke="white" stroke-miterlimit="1.45">
      <path d="M618.5 486.0073 L612.5 502.0073 L624.5 502.0073 Z" stroke="none" clip-path="url(#clipPath2)"/>
      <path fill="none" d="M618.5 486.0073 L612.5 502.0073 L624.5 502.0073 Z" clip-path="url(#clipPath2)" stroke="black"/>
      <path fill="none" d="M1110.5 569.0117 L1110.5 533 L1002.5 533 L1002.5 500.9888" clip-path="url(#clipPath2)" stroke="black"/>
      <path d="M1002.5 485.9888 L996.5 501.9888 L1008.5 501.9888 Z" clip-path="url(#clipPath2)" stroke="none"/>
      <path fill="none" d="M1002.5 485.9888 L996.5 501.9888 L1008.5 501.9888 Z" clip-path="url(#clipPath2)" stroke="black"/>
      <path fill="none" stroke-dasharray="6,2" d="M1213.9917 589 L1273.0043 589" clip-path="url(#clipPath2)" stroke="black"/>
      <path fill="none" d="M1110.5 650.978 L1110.5 623.9973" clip-path="url(#clipPath2)" stroke="black"/>
      <line transform="matrix(0,1,-1,0,1110.5,659.978)" clip-path="url(#clipPath3)" fill="none" x1="-10" x2="2" y1="0" y2="8" stroke="black"/>
      <line transform="matrix(0,1,-1,0,1110.5,659.978)" clip-path="url(#clipPath3)" fill="none" x1="-10" x2="2" y1="0" y2="0" stroke="black"/>
      <line transform="matrix(0,1,-1,0,1110.5,659.978)" clip-path="url(#clipPath3)" fill="none" x1="-10" x2="2" y1="0" y2="-8" stroke="black"/>
    </g>
    <g stroke-linecap="butt" transform="matrix(1,0,0,1,-31,-228)" fill="white" text-rendering="geometricPrecision" shape-rendering="geometricPrecision" stroke="white" stroke-miterlimit="1.45">
      <path d="M1110.5 608.9973 L1104.5 624.9973 L1116.5 624.9973 Z" stroke="none" clip-path="url(#clipPath2)"/>
      <path fill="none" d="M1110.5 608.9973 L1104.5 624.9973 L1116.5 624.9973 Z" clip-path="url(#clipPath2)" stroke="black"/>
      <path fill="none" d="M868.5 651.0249 L868.5 533 L1002.5 533 L1002.5 500.9888" clip-path="url(#clipPath2)" stroke="black"/>
      <line transform="matrix(0,1,-1,0,868.5,660.0249)" clip-path="url(#clipPath3)" fill="none" x1="-10" x2="2" y1="0" y2="8" stroke="black"/>
      <line transform="matrix(0,1,-1,0,868.5,660.0249)" clip-path="url(#clipPath3)" fill="none" x1="-10" x2="2" y1="0" y2="0" stroke="black"/>
      <line transform="matrix(0,1,-1,0,868.5,660.0249)" clip-path="url(#clipPath3)" fill="none" x1="-10" x2="2" y1="0" y2="-8" stroke="black"/>
    </g>
    <g stroke-linecap="butt" transform="matrix(1,0,0,1,-31,-228)" fill="white" text-rendering="geometricPrecision" shape-rendering="geometricPrecision" stroke="white" stroke-miterlimit="1.45">
      <path d="M1002.5 485.9888 L996.5 501.9888 L1008.5 501.9888 Z" stroke="none" clip-path="url(#clipPath2)"/>
      <path fill="none" d="M1002.5 485.9888 L996.5 501.9888 L1008.5 501.9888 Z" clip-path="url(#clipPath2)" stroke="black"/>
      <path fill="none" stroke-dasharray="6,2" d="M515.006 466 L455.9979 466" clip-path="url(#clipPath2)" stroke="black"/>
    </g>
  </g>
</svg>
