<?xml version="1.0" encoding="UTF-8"?><svg xmlns="http://www.w3.org/2000/svg" xmlns:xlink="http://www.w3.org/1999/xlink" fill-opacity="1" color-rendering="auto" color-interpolation="auto" text-rendering="auto" stroke="black" stroke-linecap="square" width="2196" stroke-miterlimit="10" shape-rendering="auto" stroke-opacity="1" fill="black" stroke-dasharray="none" font-weight="normal" stroke-width="1" height="753" font-family="'Dialog'" font-style="normal" stroke-linejoin="miter" font-size="12px" stroke-dashoffset="0" image-rendering="auto">
  <!--Generated by ySVG 2.5-->
  <defs id="genericDefs"/>
  <g>
    <defs id="defs1">
      <linearGradient x1="601.3779" gradientUnits="userSpaceOnUse" x2="859.6253" y1="-833.341" y2="-522.0355" id="linearGradient1" spreadMethod="reflect">
        <stop stop-opacity="1" stop-color="silver" offset="0%"/>
        <stop stop-opacity="1" stop-color="silver" offset="100%"/>
      </linearGradient>
      <linearGradient x1="601.3779" gradientUnits="userSpaceOnUse" x2="859.6253" y1="-881.841" y2="-833.841" id="linearGradient2" spreadMethod="reflect">
        <stop stop-opacity="1" stop-color="silver" offset="0%"/>
        <stop stop-opacity="1" stop-color="silver" offset="100%"/>
      </linearGradient>
      <linearGradient x1="1679.4211" gradientUnits="userSpaceOnUse" x2="1698.4211" y1="-381.9615" y2="-377.9615" id="linearGradient3" spreadMethod="reflect">
        <stop stop-opacity="1" stop-color="rgb(232,238,247)" offset="0%"/>
        <stop stop-opacity="1" stop-color="rgb(183,201,227)" offset="100%"/>
      </linearGradient>
      <linearGradient x1="-149.5412" gradientUnits="userSpaceOnUse" x2="108.7063" y1="-833.341" y2="-521.5355" id="linearGradient4" spreadMethod="reflect">
        <stop stop-opacity="1" stop-color="silver" offset="0%"/>
        <stop stop-opacity="1" stop-color="silver" offset="100%"/>
      </linearGradient>
      <linearGradient x1="-149.5412" gradientUnits="userSpaceOnUse" x2="108.7063" y1="-881.341" y2="-833.341" id="linearGradient5" spreadMethod="reflect">
        <stop stop-opacity="1" stop-color="silver" offset="0%"/>
        <stop stop-opacity="1" stop-color="silver" offset="100%"/>
      </linearGradient>
      <linearGradient x1="453.5236" gradientUnits="userSpaceOnUse" x2="533.5236" y1="-717.3223" y2="-677.3223" id="linearGradient6" spreadMethod="reflect">
        <stop stop-opacity="1" stop-color="rgb(232,238,247)" offset="0%"/>
        <stop stop-opacity="1" stop-color="rgb(183,201,227)" offset="100%"/>
      </linearGradient>
      <linearGradient x1="403.4552" gradientUnits="userSpaceOnUse" x2="583.592" y1="-991.4559" y2="-951.4559" id="linearGradient7" spreadMethod="reflect">
        <stop stop-opacity="1" stop-color="rgb(232,238,247)" offset="0%"/>
        <stop stop-opacity="1" stop-color="rgb(183,201,227)" offset="100%"/>
      </linearGradient>
      <linearGradient x1="453.5236" gradientUnits="userSpaceOnUse" x2="533.5236" y1="-582.0322" y2="-542.0322" id="linearGradient8" spreadMethod="reflect">
        <stop stop-opacity="1" stop-color="rgb(232,238,247)" offset="0%"/>
        <stop stop-opacity="1" stop-color="rgb(183,201,227)" offset="100%"/>
      </linearGradient>
      <linearGradient x1="453.5236" gradientUnits="userSpaceOnUse" x2="533.5236" y1="-447.7421" y2="-407.7421" id="linearGradient9" spreadMethod="reflect">
        <stop stop-opacity="1" stop-color="rgb(232,238,247)" offset="0%"/>
        <stop stop-opacity="1" stop-color="rgb(183,201,227)" offset="100%"/>
      </linearGradient>
      <linearGradient x1="624.1533" gradientUnits="userSpaceOnUse" x2="836.8499" y1="-456.0763" y2="-399.4079" id="linearGradient10" spreadMethod="reflect">
        <stop stop-opacity="1" stop-color="rgb(232,238,247)" offset="0%"/>
        <stop stop-opacity="1" stop-color="rgb(183,201,227)" offset="100%"/>
      </linearGradient>
      <linearGradient x1="-126.7658" gradientUnits="userSpaceOnUse" x2="85.9308" y1="-456.0763" y2="-399.4079" id="linearGradient11" spreadMethod="reflect">
        <stop stop-opacity="1" stop-color="rgb(232,238,247)" offset="0%"/>
        <stop stop-opacity="1" stop-color="rgb(183,201,227)" offset="100%"/>
      </linearGradient>
      <linearGradient x1="-326.3244" gradientUnits="userSpaceOnUse" x2="-246.3244" y1="-779.0789" y2="-739.0789" id="linearGradient12" spreadMethod="reflect">
        <stop stop-opacity="1" stop-color="rgb(232,238,247)" offset="0%"/>
        <stop stop-opacity="1" stop-color="rgb(183,201,227)" offset="100%"/>
      </linearGradient>
      <linearGradient x1="-246.3244" gradientUnits="userSpaceOnUse" x2="-166.3244" y1="-447.7421" y2="-407.7421" id="linearGradient13" spreadMethod="reflect">
        <stop stop-opacity="1" stop-color="rgb(232,238,247)" offset="0%"/>
        <stop stop-opacity="1" stop-color="rgb(183,201,227)" offset="100%"/>
      </linearGradient>
      <linearGradient x1="-326.3244" gradientUnits="userSpaceOnUse" x2="-246.3244" y1="-512.0322" y2="-472.0322" id="linearGradient14" spreadMethod="reflect">
        <stop stop-opacity="1" stop-color="rgb(232,238,247)" offset="0%"/>
        <stop stop-opacity="1" stop-color="rgb(183,201,227)" offset="100%"/>
      </linearGradient>
      <linearGradient x1="-466.3575" gradientUnits="userSpaceOnUse" x2="-286.2207" y1="-650.1693" y2="-610.1693" id="linearGradient15" spreadMethod="reflect">
        <stop stop-opacity="1" stop-color="rgb(232,238,247)" offset="0%"/>
        <stop stop-opacity="1" stop-color="rgb(183,201,227)" offset="100%"/>
      </linearGradient>
      <linearGradient x1="1206.4774" gradientUnits="userSpaceOnUse" x2="1286.4774" y1="-717.8223" y2="-677.8223" id="linearGradient16" spreadMethod="reflect">
        <stop stop-opacity="1" stop-color="rgb(232,238,247)" offset="0%"/>
        <stop stop-opacity="1" stop-color="rgb(183,201,227)" offset="100%"/>
      </linearGradient>
      <linearGradient x1="1156.4091" gradientUnits="userSpaceOnUse" x2="1336.5458" y1="-991.9559" y2="-951.9559" id="linearGradient17" spreadMethod="reflect">
        <stop stop-opacity="1" stop-color="rgb(232,238,247)" offset="0%"/>
        <stop stop-opacity="1" stop-color="rgb(183,201,227)" offset="100%"/>
      </linearGradient>
      <linearGradient x1="1206.4774" gradientUnits="userSpaceOnUse" x2="1286.4774" y1="-582.5322" y2="-542.5322" id="linearGradient18" spreadMethod="reflect">
        <stop stop-opacity="1" stop-color="rgb(232,238,247)" offset="0%"/>
        <stop stop-opacity="1" stop-color="rgb(183,201,227)" offset="100%"/>
      </linearGradient>
      <linearGradient x1="1206.4774" gradientUnits="userSpaceOnUse" x2="1286.4774" y1="-448.2421" y2="-408.2421" id="linearGradient19" spreadMethod="reflect">
        <stop stop-opacity="1" stop-color="rgb(232,238,247)" offset="0%"/>
        <stop stop-opacity="1" stop-color="rgb(183,201,227)" offset="100%"/>
      </linearGradient>
      <clipPath clipPathUnits="userSpaceOnUse" id="clipPath1">
        <path d="M0 0 L2196 0 L2196 753 L0 753 L0 0 Z"/>
      </clipPath>
      <clipPath clipPathUnits="userSpaceOnUse" id="clipPath2">
        <path d="M-482 -1007 L1714 -1007 L1714 -254 L-482 -254 L-482 -1007 Z"/>
      </clipPath>
      <clipPath clipPathUnits="userSpaceOnUse" id="clipPath3">
        <path d="M-117.769 -774.7169 L1435.0375 778.0896 L902.5861 1310.541 L-650.2203 -242.2655 L-117.769 -774.7169 Z"/>
      </clipPath>
    </defs>
    <g fill="white" text-rendering="geometricPrecision" shape-rendering="geometricPrecision" transform="translate(482,1007)" stroke="white">
      <rect x="-482" width="2196" height="753" y="-1007" clip-path="url(#clipPath2)" stroke="none"/>
    </g>
    <g fill="url(#linearGradient1)" text-rendering="geometricPrecision" shape-rendering="geometricPrecision" transform="matrix(1,0,0,1,482,1007)" stroke="url(#linearGradient1)">
      <path d="M601.3779 -833.341 L859.6253 -833.341 L859.6253 -522.0355 L601.3779 -522.0355 Z" stroke="none" clip-path="url(#clipPath2)"/>
    </g>
    <g text-rendering="geometricPrecision" stroke-miterlimit="1.45" shape-rendering="geometricPrecision" transform="matrix(1,0,0,1,482,1007)" stroke-linecap="butt">
      <path fill="none" d="M601.3779 -833.341 L859.6253 -833.341 L859.6253 -522.0355 L601.3779 -522.0355 Z" clip-path="url(#clipPath2)"/>
    </g>
    <g fill="url(#linearGradient2)" text-rendering="geometricPrecision" shape-rendering="geometricPrecision" transform="matrix(1,0,0,1,482,1007)" stroke="url(#linearGradient2)">
      <path d="M601.3779 -881.841 L859.6253 -881.841 L859.6253 -833.841 L601.3779 -833.841 Z" stroke="none" clip-path="url(#clipPath2)"/>
    </g>
    <g text-rendering="geometricPrecision" stroke-miterlimit="1.45" shape-rendering="geometricPrecision" transform="matrix(1,0,0,1,482,1007)" stroke-linecap="butt">
      <path fill="none" d="M601.3779 -881.841 L859.6253 -881.841 L859.6253 -833.841 L601.3779 -833.841 Z" clip-path="url(#clipPath2)"/>
      <text x="685.1881" y="-860.6711" clip-path="url(#clipPath2)" font-family="sans-serif" stroke="none" font-weight="bold" xml:space="preserve">Activation of </text>
      <text x="681.2916" y="-846.7023" clip-path="url(#clipPath2)" font-family="sans-serif" stroke="none" font-weight="bold" xml:space="preserve">predicate P(N)</text>
    </g>
    <g fill="url(#linearGradient3)" text-rendering="geometricPrecision" shape-rendering="geometricPrecision" transform="matrix(1,0,0,1,482,1007)" stroke="url(#linearGradient3)">
      <circle r="2" clip-path="url(#clipPath2)" cx="1688.9211" cy="-379.9615" stroke="none"/>
    </g>
    <g text-rendering="geometricPrecision" stroke-miterlimit="1.45" shape-rendering="geometricPrecision" transform="matrix(1,0,0,1,482,1007)" stroke-linecap="butt">
      <circle fill="none" r="2" clip-path="url(#clipPath2)" cx="1688.9211" cy="-379.9615"/>
    </g>
    <g fill="url(#linearGradient4)" text-rendering="geometricPrecision" shape-rendering="geometricPrecision" transform="matrix(1,0,0,1,482,1007)" stroke="url(#linearGradient4)">
      <path d="M-149.5412 -833.341 L108.7063 -833.341 L108.7063 -521.5355 L-149.5412 -521.5355 Z" stroke="none" clip-path="url(#clipPath2)"/>
    </g>
    <g text-rendering="geometricPrecision" stroke-miterlimit="1.45" shape-rendering="geometricPrecision" transform="matrix(1,0,0,1,482,1007)" stroke-linecap="butt">
      <path fill="none" d="M-149.5412 -833.341 L108.7063 -833.341 L108.7063 -521.5355 L-149.5412 -521.5355 Z" clip-path="url(#clipPath2)"/>
    </g>
    <g fill="url(#linearGradient5)" text-rendering="geometricPrecision" shape-rendering="geometricPrecision" transform="matrix(1,0,0,1,482,1007)" stroke="url(#linearGradient5)">
      <path d="M-149.5412 -881.341 L108.7063 -881.341 L108.7063 -833.341 L-149.5412 -833.341 Z" stroke="none" clip-path="url(#clipPath2)"/>
    </g>
    <g text-rendering="geometricPrecision" stroke-miterlimit="1.45" shape-rendering="geometricPrecision" transform="matrix(1,0,0,1,482,1007)" stroke-linecap="butt">
      <path fill="none" d="M-149.5412 -881.341 L108.7063 -881.341 L108.7063 -833.341 L-149.5412 -833.341 Z" clip-path="url(#clipPath2)"/>
      <text x="-98.854" y="-860.1711" clip-path="url(#clipPath2)" font-family="sans-serif" stroke="none" font-weight="bold" xml:space="preserve">Clause Head Activation</text>
      <text x="-72.0239" y="-846.2023" clip-path="url(#clipPath2)" font-family="sans-serif" stroke="none" font-weight="bold" xml:space="preserve">(Special B-Box)</text>
    </g>
    <g fill="rgb(255,102,0)" text-rendering="geometricPrecision" shape-rendering="geometricPrecision" transform="matrix(1,0,0,1,482,1007)" stroke="rgb(255,102,0)">
      <path d="M63.0476 -717.3223 L149.9818 -717.3223 L159.6412 -697.3223 L149.9818 -677.3223 L63.0476 -677.3223 L72.707 -697.3223 Z" fill-rule="evenodd" clip-path="url(#clipPath2)" stroke="none"/>
    </g>
    <g text-rendering="geometricPrecision" stroke-miterlimit="1.45" shape-rendering="geometricPrecision" transform="matrix(1,0,0,1,482,1007)" stroke-linecap="butt">
      <path fill="none" d="M63.0476 -717.3223 L149.9818 -717.3223 L159.6412 -697.3223 L149.9818 -677.3223 L63.0476 -677.3223 L72.707 -697.3223 Z" fill-rule="evenodd" clip-path="url(#clipPath2)"/>
      <text x="96.4089" xml:space="preserve" y="-693.168" clip-path="url(#clipPath2)" font-family="sans-serif" stroke="none">unify</text>
    </g>
    <g fill="rgb(255,204,0)" text-rendering="geometricPrecision" shape-rendering="geometricPrecision" transform="matrix(1,0,0,1,482,1007)" stroke="rgb(255,204,0)">
      <path d="M-195.8727 -717.3223 L-108.9386 -717.3223 L-99.2792 -697.3223 L-108.9386 -677.3223 L-195.8727 -677.3223 L-186.2134 -697.3223 Z" fill-rule="evenodd" clip-path="url(#clipPath2)" stroke="none"/>
    </g>
    <g text-rendering="geometricPrecision" stroke-miterlimit="1.45" shape-rendering="geometricPrecision" transform="matrix(1,0,0,1,482,1007)" stroke-linecap="butt">
      <path fill="none" d="M-195.8727 -717.3223 L-108.9386 -717.3223 L-99.2792 -697.3223 L-108.9386 -677.3223 L-195.8727 -677.3223 L-186.2134 -697.3223 Z" fill-rule="evenodd" clip-path="url(#clipPath2)"/>
      <text x="-157.8856" xml:space="preserve" y="-693.168" clip-path="url(#clipPath2)" font-family="sans-serif" stroke="none">call</text>
    </g>
    <g fill="rgb(255,204,0)" text-rendering="geometricPrecision" shape-rendering="geometricPrecision" transform="matrix(1,0,0,1,482,1007)" stroke="rgb(255,204,0)">
      <path d="M-186.2134 -582.0322 L-99.2792 -582.0322 L-108.9386 -562.0322 L-99.2792 -542.0322 L-186.2134 -542.0322 L-195.8727 -562.0322 Z" fill-rule="evenodd" clip-path="url(#clipPath2)" stroke="none"/>
    </g>
    <g text-rendering="geometricPrecision" stroke-miterlimit="1.45" shape-rendering="geometricPrecision" transform="matrix(1,0,0,1,482,1007)" stroke-linecap="butt">
      <path fill="none" d="M-186.2134 -582.0322 L-99.2792 -582.0322 L-108.9386 -562.0322 L-99.2792 -542.0322 L-186.2134 -542.0322 L-195.8727 -562.0322 Z" fill-rule="evenodd" clip-path="url(#clipPath2)"/>
      <text x="-156.699" xml:space="preserve" y="-557.8779" clip-path="url(#clipPath2)" font-family="sans-serif" stroke="none">fail</text>
    </g>
    <g fill="rgb(255,204,0)" text-rendering="geometricPrecision" shape-rendering="geometricPrecision" transform="matrix(1,0,0,1,482,1007)" stroke="rgb(255,204,0)">
      <circle r="15" clip-path="url(#clipPath2)" cx="-286.3244" cy="-890.9381" stroke="none"/>
    </g>
    <g text-rendering="geometricPrecision" stroke-miterlimit="1.45" shape-rendering="geometricPrecision" transform="matrix(1,0,0,1,482,1007)" stroke-linecap="butt">
      <circle fill="none" r="15" clip-path="url(#clipPath2)" cx="-286.3244" cy="-890.9381"/>
    </g>
    <g fill="rgb(255,204,0)" text-rendering="geometricPrecision" shape-rendering="geometricPrecision" transform="matrix(1,0,0,1,482,1007)" stroke="rgb(255,204,0)">
      <circle r="15" clip-path="url(#clipPath2)" cx="-286.3244" cy="-334.1038" stroke="none"/>
    </g>
    <g text-rendering="geometricPrecision" stroke-miterlimit="1.45" shape-rendering="geometricPrecision" transform="matrix(1,0,0,1,482,1007)" stroke-linecap="butt">
      <circle fill="none" r="15" clip-path="url(#clipPath2)" cx="-286.3244" cy="-334.1038"/>
      <text x="-327.7737" xml:space="preserve" y="-301.9651" clip-path="url(#clipPath2)" font-family="sans-serif" stroke="none">Token passed</text>
      <text x="-379.8342" xml:space="preserve" y="-287.9964" clip-path="url(#clipPath2)" font-family="sans-serif" stroke="none">back to the surrounding B-Box,</text>
      <text x="-371.0158" xml:space="preserve" y="-274.0276" clip-path="url(#clipPath2)" font-family="sans-serif" stroke="none">possibly to try a next clause</text>
    </g>
    <g text-rendering="geometricPrecision" stroke-miterlimit="1.45" shape-rendering="geometricPrecision" transform="matrix(1,0,0,1,482,1007)" stroke-linecap="butt">
      <path fill="none" d="M259.0114 -598.7006 L299.0114 -562.0322 L259.0114 -525.3638 L219.0114 -562.0322 Z" clip-path="url(#clipPath2)"/>
      <text x="234.7301" xml:space="preserve" y="-557.8779" clip-path="url(#clipPath2)" font-family="sans-serif" stroke="none">bypass?</text>
    </g>
    <g fill="rgb(255,204,0)" text-rendering="geometricPrecision" shape-rendering="geometricPrecision" transform="matrix(1,0,0,1,482,1007)" stroke="rgb(255,204,0)">
      <path d="M553.5747 -717.3223 L640.5089 -717.3223 L650.1683 -697.3223 L640.5089 -677.3223 L553.5747 -677.3223 L563.2341 -697.3223 Z" fill-rule="evenodd" clip-path="url(#clipPath2)" stroke="none"/>
    </g>
    <g text-rendering="geometricPrecision" stroke-miterlimit="1.45" shape-rendering="geometricPrecision" transform="matrix(1,0,0,1,482,1007)" stroke-linecap="butt">
      <path fill="none" d="M553.5747 -717.3223 L640.5089 -717.3223 L650.1683 -697.3223 L640.5089 -677.3223 L553.5747 -677.3223 L563.2341 -697.3223 Z" fill-rule="evenodd" clip-path="url(#clipPath2)"/>
      <text x="591.562" xml:space="preserve" y="-693.168" clip-path="url(#clipPath2)" font-family="sans-serif" stroke="none">call</text>
    </g>
    <g fill="rgb(255,204,0)" text-rendering="geometricPrecision" shape-rendering="geometricPrecision" transform="matrix(1,0,0,1,482,1007)" stroke="rgb(255,204,0)">
      <path d="M563.2341 -582.5322 L650.1683 -582.5322 L640.5089 -562.5322 L650.1683 -542.5322 L563.2341 -542.5322 L553.5747 -562.5322 Z" fill-rule="evenodd" clip-path="url(#clipPath2)" stroke="none"/>
    </g>
    <g text-rendering="geometricPrecision" stroke-miterlimit="1.45" shape-rendering="geometricPrecision" transform="matrix(1,0,0,1,482,1007)" stroke-linecap="butt">
      <path fill="none" d="M563.2341 -582.5322 L650.1683 -582.5322 L640.5089 -562.5322 L650.1683 -542.5322 L563.2341 -542.5322 L553.5747 -562.5322 Z" fill-rule="evenodd" clip-path="url(#clipPath2)"/>
      <text x="592.7485" xml:space="preserve" y="-558.3779" clip-path="url(#clipPath2)" font-family="sans-serif" stroke="none">fail</text>
    </g>
    <g fill="rgb(255,204,0)" text-rendering="geometricPrecision" shape-rendering="geometricPrecision" transform="matrix(1,0,0,1,482,1007)" stroke="rgb(255,204,0)">
      <path d="M812.8129 -716.3223 L899.7471 -716.3223 L909.4064 -696.8223 L899.7471 -677.3223 L812.8129 -677.3223 L822.4722 -696.8223 Z" fill-rule="evenodd" clip-path="url(#clipPath2)" stroke="none"/>
    </g>
    <g text-rendering="geometricPrecision" stroke-miterlimit="1.45" shape-rendering="geometricPrecision" transform="matrix(1,0,0,1,482,1007)" stroke-linecap="butt">
      <path fill="none" d="M812.8129 -716.3223 L899.7471 -716.3223 L909.4064 -696.8223 L899.7471 -677.3223 L812.8129 -677.3223 L822.4722 -696.8223 Z" fill-rule="evenodd" clip-path="url(#clipPath2)"/>
      <text x="849.848" xml:space="preserve" y="-699.6524" clip-path="url(#clipPath2)" font-family="sans-serif" stroke="none">exit</text>
      <text x="831.7103" xml:space="preserve" y="-685.6837" clip-path="url(#clipPath2)" font-family="sans-serif" stroke="none">(succeed)</text>
    </g>
    <g fill="rgb(255,204,0)" text-rendering="geometricPrecision" shape-rendering="geometricPrecision" transform="matrix(1,0,0,1,482,1007)" stroke="rgb(255,204,0)">
      <path d="M822.4722 -582.0322 L909.4064 -582.0322 L899.7471 -562.5322 L909.4064 -543.0322 L822.4722 -543.0322 L812.8129 -562.5322 Z" fill-rule="evenodd" clip-path="url(#clipPath2)" stroke="none"/>
    </g>
    <g text-rendering="geometricPrecision" stroke-miterlimit="1.45" shape-rendering="geometricPrecision" transform="matrix(1,0,0,1,482,1007)" stroke-linecap="butt">
      <path fill="none" d="M822.4722 -582.0322 L909.4064 -582.0322 L899.7471 -562.5322 L909.4064 -543.0322 L822.4722 -543.0322 L812.8129 -562.5322 Z" fill-rule="evenodd" clip-path="url(#clipPath2)"/>
      <text x="847.472" xml:space="preserve" y="-558.3779" clip-path="url(#clipPath2)" font-family="sans-serif" stroke="none">redo</text>
    </g>
    <g text-rendering="geometricPrecision" stroke-miterlimit="1.45" shape-rendering="geometricPrecision" transform="matrix(1,0,0,1,482,1007)" stroke-linecap="butt">
      <path fill="none" d="M1039.8081 -599.2006 L1079.8081 -562.5322 L1039.8081 -525.8638 L999.8081 -562.5322 Z" clip-path="url(#clipPath2)"/>
      <text x="1015.5269" xml:space="preserve" y="-558.3779" clip-path="url(#clipPath2)" font-family="sans-serif" stroke="none">bypass?</text>
    </g>
    <g text-rendering="geometricPrecision" stroke-miterlimit="1.45" shape-rendering="geometricPrecision" transform="matrix(1,0,0,1,482,1007)" stroke-linecap="butt">
      <path fill="none" d="M-18.1158 -733.9907 L21.8842 -697.3223 L-18.1158 -660.6539 L-58.1158 -697.3223 Z" clip-path="url(#clipPath2)"/>
      <text x="-49.6363" xml:space="preserve" y="-700.1524" clip-path="url(#clipPath2)" font-family="sans-serif" stroke="none">unification</text>
      <text x="-41.5855" xml:space="preserve" y="-686.1837" clip-path="url(#clipPath2)" font-family="sans-serif" stroke="none">success</text>
    </g>
    <g fill="rgb(255,204,0)" text-rendering="geometricPrecision" shape-rendering="geometricPrecision" transform="matrix(1,0,0,1,482,1007)" stroke="rgb(255,204,0)">
      <path d="M812.8124 -803.8409 L899.7466 -803.8409 L909.4059 -783.8409 L899.7466 -763.8409 L812.8124 -763.8409 L822.4717 -783.8409 Z" fill-rule="evenodd" clip-path="url(#clipPath2)" stroke="none"/>
    </g>
    <g text-rendering="geometricPrecision" stroke-miterlimit="1.45" shape-rendering="geometricPrecision" transform="matrix(1,0,0,1,482,1007)" stroke-linecap="butt">
      <path fill="none" d="M812.8124 -803.8409 L899.7466 -803.8409 L909.4059 -783.8409 L899.7466 -763.8409 L812.8124 -763.8409 L822.4717 -783.8409 Z" fill-rule="evenodd" clip-path="url(#clipPath2)"/>
      <text x="831.5755" xml:space="preserve" y="-779.6867" clip-path="url(#clipPath2)" font-family="sans-serif" stroke="none">exception</text>
    </g>
    <g fill="url(#linearGradient6)" text-rendering="geometricPrecision" shape-rendering="geometricPrecision" transform="matrix(1,0,0,1,482,1007)" stroke="url(#linearGradient6)">
      <circle r="20" clip-path="url(#clipPath2)" cx="493.5236" cy="-697.3223" stroke="none"/>
    </g>
    <g text-rendering="geometricPrecision" stroke-miterlimit="1.45" stroke-width="5" shape-rendering="geometricPrecision" transform="matrix(1,0,0,1,482,1007)" stroke-linecap="butt">
      <circle fill="none" r="20" clip-path="url(#clipPath2)" cx="493.5236" cy="-697.3223"/>
    </g>
    <g fill="url(#linearGradient7)" text-rendering="geometricPrecision" shape-rendering="geometricPrecision" transform="matrix(1,0,0,1,482,1007)" stroke="url(#linearGradient7)">
      <path d="M403.4552 -991.4559 L583.592 -991.4559 L583.592 -951.4559 L403.4552 -951.4559 Z" stroke="none" clip-path="url(#clipPath2)"/>
    </g>
    <g text-rendering="geometricPrecision" stroke-miterlimit="1.45" stroke-width="5" shape-rendering="geometricPrecision" transform="matrix(1,0,0,1,482,1007)" stroke-linecap="butt">
      <path fill="none" d="M403.4552 -991.4559 L583.592 -991.4559 L583.592 -951.4559 L403.4552 -951.4559 Z" clip-path="url(#clipPath2)"/>
      <text x="436.758" y="-974.286" clip-path="url(#clipPath2)" font-family="sans-serif" stroke="none" stroke-width="1" xml:space="preserve">Term store version</text>
      <text x="484.6789" y="-960.3173" clip-path="url(#clipPath2)" font-family="sans-serif" stroke="none" stroke-width="1" xml:space="preserve">#2</text>
    </g>
    <g fill="url(#linearGradient8)" text-rendering="geometricPrecision" shape-rendering="geometricPrecision" transform="matrix(1,0,0,1,482,1007)" stroke="url(#linearGradient8)">
      <circle r="20" clip-path="url(#clipPath2)" cx="493.5236" cy="-562.0322" stroke="none"/>
    </g>
    <g text-rendering="geometricPrecision" stroke-miterlimit="1.45" stroke-width="5" shape-rendering="geometricPrecision" transform="matrix(1,0,0,1,482,1007)" stroke-linecap="butt">
      <circle fill="none" r="20" clip-path="url(#clipPath2)" cx="493.5236" cy="-562.0322"/>
    </g>
    <g fill="url(#linearGradient9)" text-rendering="geometricPrecision" shape-rendering="geometricPrecision" transform="matrix(1,0,0,1,482,1007)" stroke="url(#linearGradient9)">
      <circle r="20" clip-path="url(#clipPath2)" cx="493.5236" cy="-427.7421" stroke="none"/>
    </g>
    <g text-rendering="geometricPrecision" stroke-miterlimit="1.45" stroke-width="5" shape-rendering="geometricPrecision" transform="matrix(1,0,0,1,482,1007)" stroke-linecap="butt">
      <circle fill="none" r="20" clip-path="url(#clipPath2)" cx="493.5236" cy="-427.7421"/>
    </g>
    <g fill="url(#linearGradient10)" text-rendering="geometricPrecision" shape-rendering="geometricPrecision" transform="matrix(1,0,0,1,482,1007)" stroke="url(#linearGradient10)">
      <path d="M624.1533 -456.0763 L836.8499 -456.0763 L836.8499 -399.4079 L624.1533 -399.4079 Z" stroke="none" clip-path="url(#clipPath2)"/>
    </g>
    <g text-rendering="geometricPrecision" stroke-miterlimit="1.45" shape-rendering="geometricPrecision" transform="matrix(1,0,0,1,482,1007)" stroke-linecap="butt">
      <path fill="none" d="M624.1533 -456.0763 L836.8499 -456.0763 L836.8499 -399.4079 L624.1533 -399.4079 Z" clip-path="url(#clipPath2)"/>
      <text x="653.6823" xml:space="preserve" y="-430.5722" clip-path="url(#clipPath2)" font-family="sans-serif" stroke="none">Roll back term store from</text>
      <text x="628.6979" xml:space="preserve" y="-416.6034" clip-path="url(#clipPath2)" font-family="sans-serif" stroke="none">version #3 to #2 when bypassing</text>
    </g>
    <g fill="url(#linearGradient11)" text-rendering="geometricPrecision" shape-rendering="geometricPrecision" transform="matrix(1,0,0,1,482,1007)" stroke="url(#linearGradient11)">
      <path d="M-126.7658 -456.0763 L85.9308 -456.0763 L85.9308 -399.4079 L-126.7658 -399.4079 Z" stroke="none" clip-path="url(#clipPath2)"/>
    </g>
    <g text-rendering="geometricPrecision" stroke-miterlimit="1.45" shape-rendering="geometricPrecision" transform="matrix(1,0,0,1,482,1007)" stroke-linecap="butt">
      <path fill="none" d="M-126.7658 -456.0763 L85.9308 -456.0763 L85.9308 -399.4079 L-126.7658 -399.4079 Z" clip-path="url(#clipPath2)"/>
      <text x="-97.2368" xml:space="preserve" y="-430.5722" clip-path="url(#clipPath2)" font-family="sans-serif" stroke="none">Roll back term store from</text>
      <text x="-122.2212" xml:space="preserve" y="-416.6034" clip-path="url(#clipPath2)" font-family="sans-serif" stroke="none">version #2 to #1 when bypassing</text>
    </g>
    <g fill="url(#linearGradient12)" text-rendering="geometricPrecision" shape-rendering="geometricPrecision" transform="matrix(1,0,0,1,482,1007)" stroke="url(#linearGradient12)">
      <circle r="20" clip-path="url(#clipPath2)" cx="-286.3244" cy="-759.0789" stroke="none"/>
    </g>
    <g text-rendering="geometricPrecision" stroke-miterlimit="1.45" stroke-width="5" shape-rendering="geometricPrecision" transform="matrix(1,0,0,1,482,1007)" stroke-linecap="butt">
      <circle fill="none" r="20" clip-path="url(#clipPath2)" cx="-286.3244" cy="-759.0789"/>
    </g>
    <g fill="url(#linearGradient13)" text-rendering="geometricPrecision" shape-rendering="geometricPrecision" transform="matrix(1,0,0,1,482,1007)" stroke="url(#linearGradient13)">
      <circle r="20" clip-path="url(#clipPath2)" cx="-206.3244" cy="-427.7421" stroke="none"/>
    </g>
    <g text-rendering="geometricPrecision" stroke-miterlimit="1.45" stroke-width="5" shape-rendering="geometricPrecision" transform="matrix(1,0,0,1,482,1007)" stroke-linecap="butt">
      <circle fill="none" r="20" clip-path="url(#clipPath2)" cx="-206.3244" cy="-427.7421"/>
    </g>
    <g fill="url(#linearGradient14)" text-rendering="geometricPrecision" shape-rendering="geometricPrecision" transform="matrix(1,0,0,1,482,1007)" stroke="url(#linearGradient14)">
      <circle r="20" clip-path="url(#clipPath2)" cx="-286.3244" cy="-492.0322" stroke="none"/>
    </g>
    <g text-rendering="geometricPrecision" stroke-miterlimit="1.45" stroke-width="5" shape-rendering="geometricPrecision" transform="matrix(1,0,0,1,482,1007)" stroke-linecap="butt">
      <circle fill="none" r="20" clip-path="url(#clipPath2)" cx="-286.3244" cy="-492.0322"/>
    </g>
    <g fill="url(#linearGradient15)" text-rendering="geometricPrecision" shape-rendering="geometricPrecision" transform="matrix(1,0,0,1,482,1007)" stroke="url(#linearGradient15)">
      <path d="M-466.3575 -650.1693 L-286.2207 -650.1693 L-286.2207 -610.1693 L-466.3575 -610.1693 Z" stroke="none" clip-path="url(#clipPath2)"/>
    </g>
    <g text-rendering="geometricPrecision" stroke-miterlimit="1.45" stroke-width="5" shape-rendering="geometricPrecision" transform="matrix(1,0,0,1,482,1007)" stroke-linecap="butt">
      <path fill="none" d="M-466.3575 -650.1693 L-286.2207 -650.1693 L-286.2207 -610.1693 L-466.3575 -610.1693 Z" clip-path="url(#clipPath2)"/>
      <text x="-433.0547" y="-632.9994" clip-path="url(#clipPath2)" font-family="sans-serif" stroke="none" stroke-width="1" xml:space="preserve">Term store version</text>
      <text x="-385.1338" y="-619.0306" clip-path="url(#clipPath2)" font-family="sans-serif" stroke="none" stroke-width="1" xml:space="preserve">#1</text>
    </g>
    <g text-rendering="geometricPrecision" stroke-miterlimit="1.45" shape-rendering="geometricPrecision" transform="matrix(1,0,0,1,482,1007)" stroke-linecap="butt">
      <path fill="none" d="M1301.9044 -717.8223 L1388.8387 -717.8223 L1398.498 -697.8223 L1388.8387 -677.8223 L1301.9044 -677.8223 L1311.5638 -697.8223 Z" fill-rule="evenodd" clip-path="url(#clipPath2)"/>
      <text x="1339.8922" xml:space="preserve" y="-693.668" clip-path="url(#clipPath2)" font-family="sans-serif" stroke="none">call</text>
      <path fill="none" d="M1311.5638 -582.0322 L1398.498 -582.0322 L1388.8387 -562.0322 L1398.498 -542.0322 L1311.5638 -542.0322 L1301.9044 -562.0322 Z" clip-path="url(#clipPath2)" fill-rule="evenodd"/>
      <text x="1341.0787" xml:space="preserve" y="-557.8779" clip-path="url(#clipPath2)" font-family="sans-serif" stroke="none">fail</text>
    </g>
    <g fill="url(#linearGradient16)" text-rendering="geometricPrecision" shape-rendering="geometricPrecision" transform="matrix(1,0,0,1,482,1007)" stroke="url(#linearGradient16)">
      <circle r="20" clip-path="url(#clipPath2)" cx="1246.4775" cy="-697.8223" stroke="none"/>
    </g>
    <g text-rendering="geometricPrecision" stroke-miterlimit="1.45" stroke-width="5" shape-rendering="geometricPrecision" transform="matrix(1,0,0,1,482,1007)" stroke-linecap="butt">
      <circle fill="none" r="20" clip-path="url(#clipPath2)" cx="1246.4775" cy="-697.8223"/>
    </g>
    <g fill="url(#linearGradient17)" text-rendering="geometricPrecision" shape-rendering="geometricPrecision" transform="matrix(1,0,0,1,482,1007)" stroke="url(#linearGradient17)">
      <path d="M1156.4091 -991.9559 L1336.5458 -991.9559 L1336.5458 -951.9559 L1156.4091 -951.9559 Z" stroke="none" clip-path="url(#clipPath2)"/>
    </g>
    <g text-rendering="geometricPrecision" stroke-miterlimit="1.45" stroke-width="5" shape-rendering="geometricPrecision" transform="matrix(1,0,0,1,482,1007)" stroke-linecap="butt">
      <path fill="none" d="M1156.4091 -991.9559 L1336.5458 -991.9559 L1336.5458 -951.9559 L1156.4091 -951.9559 Z" clip-path="url(#clipPath2)"/>
      <text x="1189.7118" y="-974.786" clip-path="url(#clipPath2)" font-family="sans-serif" stroke="none" stroke-width="1" xml:space="preserve">Term store version</text>
      <text x="1237.6327" y="-960.8173" clip-path="url(#clipPath2)" font-family="sans-serif" stroke="none" stroke-width="1" xml:space="preserve">#3</text>
    </g>
    <g fill="url(#linearGradient18)" text-rendering="geometricPrecision" shape-rendering="geometricPrecision" transform="matrix(1,0,0,1,482,1007)" stroke="url(#linearGradient18)">
      <circle r="20" clip-path="url(#clipPath2)" cx="1246.4775" cy="-562.5322" stroke="none"/>
    </g>
    <g text-rendering="geometricPrecision" stroke-miterlimit="1.45" stroke-width="5" shape-rendering="geometricPrecision" transform="matrix(1,0,0,1,482,1007)" stroke-linecap="butt">
      <circle fill="none" r="20" clip-path="url(#clipPath2)" cx="1246.4775" cy="-562.5322"/>
    </g>
    <g fill="url(#linearGradient19)" text-rendering="geometricPrecision" shape-rendering="geometricPrecision" transform="matrix(1,0,0,1,482,1007)" stroke="url(#linearGradient19)">
      <circle r="20" clip-path="url(#clipPath2)" cx="1246.4775" cy="-428.2421" stroke="none"/>
    </g>
    <g text-rendering="geometricPrecision" stroke-miterlimit="1.45" stroke-width="5" shape-rendering="geometricPrecision" transform="matrix(1,0,0,1,482,1007)" stroke-linecap="butt">
      <circle fill="none" r="20" clip-path="url(#clipPath2)" cx="1246.4775" cy="-428.2421"/>
    </g>
    <g text-rendering="geometricPrecision" stroke-miterlimit="1.45" stroke-dasharray="6,2" shape-rendering="geometricPrecision" transform="matrix(1,0,0,1,482,1007)" stroke-linecap="butt">
      <path fill="none" d="M117.6931 -677.3102 L129.8923 -638.8561 L134.0171 -627.7613 L138.8036 -618.3947 L144.2518 -610.7565 L150.3618 -604.8465 L157.1335 -600.6648 L164.5669 -598.2114 L172.6621 -597.4863 L181.419 -598.4896 L189.4971 -600.1494 L198.2501 -601.5795 L206.3334 -602.1351 L213.7472 -601.8163 L220.4913 -600.623 L226.5658 -598.5552 L231.9707 -595.6129 L236.706 -591.7961 L238.0063 -590.2957 L238.0651 -590.2148" clip-path="url(#clipPath2)"/>
      <path d="M243.0606 -583.9662 L239.4728 -596.4613 L237.4407 -590.9959 L231.662 -590.217 Z" clip-path="url(#clipPath2)" stroke="none"/>
    </g>
    <g text-rendering="geometricPrecision" stroke-miterlimit="1.45" shape-rendering="geometricPrecision" font-family="sans-serif" transform="matrix(0.7071,-0.7071,0.7071,0.7071,631.0828,464.5323)" stroke-linecap="butt">
      <text x="2" xml:space="preserve" y="13.1387" clip-path="url(#clipPath3)" stroke="none">always set bypass flag</text>
    </g>
    <g text-rendering="geometricPrecision" stroke-miterlimit="1.45" shape-rendering="geometricPrecision" transform="matrix(1,0,0,1,482,1007)" stroke-linecap="butt">
      <path fill="none" d="M643.6187 -683.7808 L652.924 -680.4736 L672.9802 -672.0492 L689.3899 -663.6248 L702.153 -655.2004 L711.2695 -646.776 L716.7394 -638.3516 L718.5627 -629.9272 L716.7394 -621.5029 L711.2695 -613.0785 L702.153 -604.6541 L689.3899 -596.2297 L672.9802 -587.8053 L655.2742 -580.3681 L655.1799 -580.3346" clip-path="url(#clipPath2)"/>
      <path d="M647.6917 -577.5194 L660.6836 -577.062 L656.116 -580.6865 L657.1646 -586.4224 Z" clip-path="url(#clipPath2)" stroke="none"/>
      <path fill="none" d="M650.1306 -697.2292 L814.4525 -696.9124" clip-path="url(#clipPath2)"/>
      <path d="M822.4525 -696.8969 L810.4622 -701.92 L813.4525 -696.9143 L810.4429 -691.9201 Z" clip-path="url(#clipPath2)" stroke="none"/>
      <path fill="none" d="M819.8009 -576.6136 L812.5327 -579.3184 L793.4489 -587.7115 L777.8348 -596.1047 L765.6906 -604.4979 L757.0161 -612.891 L751.8114 -621.2841 L750.0765 -629.6772 L751.8114 -638.0704 L757.0161 -646.4635 L765.6906 -654.8566 L777.8348 -663.2498 L793.4489 -671.6429 L807.1432 -677.6658 L807.237 -677.7007" clip-path="url(#clipPath2)"/>
      <path d="M814.6069 -680.8126 L801.6071 -680.751 L806.3157 -677.3117 L805.497 -671.5385 Z" clip-path="url(#clipPath2)" stroke="none"/>
      <path fill="none" d="M812.7874 -562.5322 L648.5172 -562.5322" clip-path="url(#clipPath2)"/>
      <path d="M640.5172 -562.5322 L652.5172 -557.5322 L649.5172 -562.5322 L652.5172 -567.5322 Z" clip-path="url(#clipPath2)" stroke="none"/>
      <path fill="none" stroke-dasharray="6,2" d="M904.131 -686.174 L926.6173 -680.6084 L973.5195 -668.4933 L1007.0316 -658.6799 L1012.991 -656.7549 L1019.2762 -654.123 L1024.7235 -650.5586 L1029.3326 -646.0618 L1033.1038 -640.6324 L1036.037 -634.2706 L1038.1321 -626.9763 L1039.389 -618.7495 L1039.8081 -609.5902 L1039.8081 -607.1584" clip-path="url(#clipPath2)"/>
      <path stroke-dasharray="6,2" d="M1039.8081 -599.1584 L1044.8081 -611.1584 L1039.8081 -608.1584 L1034.8081 -611.1584 Z" clip-path="url(#clipPath2)" stroke="none"/>
      <text x="986.5669" xml:space="preserve" y="-645.6838" clip-path="url(#clipPath2)" font-family="sans-serif" stroke="none">if "well-behaved",</text>
      <text x="986.5317" xml:space="preserve" y="-631.7151" clip-path="url(#clipPath2)" font-family="sans-serif" stroke="none">set bypass flag to</text>
      <text x="977.5112" xml:space="preserve" y="-617.7463" clip-path="url(#clipPath2)" font-family="sans-serif" stroke="none">leave no choicepoint</text>
      <path fill="none" d="M999.8016 -562.5322 L907.7443 -562.5322" clip-path="url(#clipPath2)"/>
      <path d="M899.7443 -562.5322 L911.7443 -557.5322 L908.7443 -562.5322 L911.7443 -567.5322 Z" clip-path="url(#clipPath2)" stroke="none"/>
      <text x="946.4481" xml:space="preserve" y="-558.3779" clip-path="url(#clipPath2)" font-family="sans-serif" stroke="none">No</text>
      <path fill="none" d="M-99.2497 -697.3223 L-66.0885 -697.3223" clip-path="url(#clipPath2)"/>
      <path d="M-58.0885 -697.3223 L-70.0885 -702.3223 L-67.0885 -697.3223 L-70.0885 -692.3223 Z" clip-path="url(#clipPath2)" stroke="none"/>
      <path fill="none" d="M-18.1158 -660.6262 L-18.1158 -572.0322 L-18.7408 -567.6572 L-20.6158 -564.5322 L-23.7408 -562.6572 L-28.1158 -562.0322 L-100.9212 -562.0322" clip-path="url(#clipPath2)"/>
      <path d="M-108.9212 -562.0322 L-96.9212 -557.0322 L-99.9212 -562.0322 L-96.9212 -567.0322 Z" clip-path="url(#clipPath2)" stroke="none"/>
      <text x="-26.275" xml:space="preserve" y="-625.7991" clip-path="url(#clipPath2)" font-family="sans-serif" stroke="none">No</text>
      <path fill="none" d="M21.8664 -697.3223 L64.6784 -697.3223" clip-path="url(#clipPath2)"/>
      <path d="M72.6784 -697.3223 L60.6784 -702.3223 L63.6784 -697.3223 L60.6784 -692.3223 Z" clip-path="url(#clipPath2)" stroke="none"/>
      <text x="28.8842" xml:space="preserve" y="-693.168" clip-path="url(#clipPath2)" font-family="sans-serif" stroke="none">Yes</text>
      <path fill="none" d="M159.63 -697.3223 L473.5112 -697.3223" clip-path="url(#clipPath2)"/>
      <path fill="none" d="M513.5479 -697.3223 L555.2731 -697.3223" clip-path="url(#clipPath2)"/>
      <path d="M563.2731 -697.3223 L551.2731 -702.3223 L554.2731 -697.3223 L551.2731 -692.3223 Z" clip-path="url(#clipPath2)" stroke="none"/>
      <path fill="none" d="M493.5236 -717.3308 L493.5236 -951.4462" stroke-width="4" clip-path="url(#clipPath2)"/>
      <path fill="none" d="M553.7022 -562.3099 L513.5342 -562.1245" clip-path="url(#clipPath2)"/>
      <path fill="none" d="M493.5236 -677.3392 L493.5236 -582.0477" stroke-width="4" clip-path="url(#clipPath2)"/>
      <path fill="none" d="M473.5133 -562.0322 L306.9948 -562.0322" clip-path="url(#clipPath2)"/>
      <path d="M298.9948 -562.0322 L310.9948 -557.0322 L307.9948 -562.0322 L310.9948 -567.0322 Z" clip-path="url(#clipPath2)" stroke="none"/>
      <path fill="none" d="M493.5236 -542.0001 L493.5236 -447.7428" stroke-width="4" clip-path="url(#clipPath2)"/>
      <path fill="none" d="M473.5179 -427.7421 L411.4524 -427.7421 L407.0774 -428.3671 L403.9524 -430.2421 L402.0774 -433.3671 L401.4524 -437.7421 L401.4524 -552.0322 L400.8274 -556.4072 L398.9524 -559.5322 L395.8274 -561.4072 L391.4524 -562.0322 L307.0381 -562.0322" clip-path="url(#clipPath2)"/>
      <path d="M299.0381 -562.0322 L311.0381 -557.0322 L308.0381 -562.0322 L311.0381 -567.0322 Z" clip-path="url(#clipPath2)" stroke="none"/>
      <path fill="none" d="M1039.8081 -525.8401 L1039.8081 -437.7421 L1039.1831 -433.3671 L1037.3081 -430.2421 L1034.1831 -428.3671 L1029.8081 -427.7421 L836.8635 -427.7421" clip-path="url(#clipPath2)"/>
      <path fill="none" d="M624.1334 -427.7421 L521.5168 -427.7421" clip-path="url(#clipPath2)"/>
      <path d="M513.5168 -427.7421 L525.5168 -422.7421 L522.5168 -427.7421 L525.5168 -432.7421 Z" clip-path="url(#clipPath2)" stroke="none"/>
      <path fill="none" d="M259.0114 -525.345 L259.0114 -437.7421 L258.3864 -433.3671 L256.5114 -430.2421 L253.3864 -428.3671 L249.0114 -427.7421 L93.9033 -427.7421" clip-path="url(#clipPath2)"/>
      <path d="M85.9033 -427.7421 L97.9033 -422.7421 L94.9033 -427.7421 L97.9033 -432.7421 Z" clip-path="url(#clipPath2)" stroke="none"/>
      <path fill="none" d="M-286.3244 -875.938 L-286.3244 -779.0785" clip-path="url(#clipPath2)"/>
      <path fill="none" d="M-286.3244 -739.1069 L-286.3244 -706.8223 L-285.6994 -702.4496 L-283.8245 -699.3313 L-280.6995 -697.4676 L-276.3245 -696.8583 L-194.2941 -697.1539" clip-path="url(#clipPath2)"/>
      <path d="M-186.2941 -697.1828 L-198.3121 -702.1395 L-195.2941 -697.1503 L-198.276 -692.1395 Z" clip-path="url(#clipPath2)" stroke="none"/>
      <text x="-341.6947" xml:space="preserve" y="-934.0063" clip-path="url(#clipPath2)" font-family="sans-serif" stroke="none">Token passed-in from</text>
      <text x="-344.1146" xml:space="preserve" y="-920.0376" clip-path="url(#clipPath2)" font-family="sans-serif" stroke="none">the surrounding B-Box</text>
      <path fill="none" d="M-126.7602 -427.7421 L-186.3168 -427.7421" clip-path="url(#clipPath2)"/>
      <path fill="none" d="M-226.2854 -427.7421 L-276.3244 -427.7421 L-280.6994 -427.1171 L-283.8244 -425.2421 L-285.6994 -422.1171 L-286.3244 -417.7421 L-286.3244 -357.1038" clip-path="url(#clipPath2)"/>
      <path d="M-286.3244 -349.1038 L-281.3244 -361.1038 L-286.3244 -358.1038 L-291.3244 -361.1038 Z" clip-path="url(#clipPath2)" stroke="none"/>
      <path fill="none" d="M-195.8466 -562.0322 L-276.3244 -562.0322 L-280.6994 -561.4072 L-283.8244 -559.5322 L-285.6994 -556.4072 L-286.3244 -552.0322 L-286.3244 -512.0273" clip-path="url(#clipPath2)"/>
      <path fill="none" d="M-286.3244 -472.0212 L-286.3244 -357.1038" clip-path="url(#clipPath2)"/>
      <path d="M-286.3244 -349.1038 L-281.3244 -361.1038 L-286.3244 -358.1038 L-291.3244 -361.1038 Z" clip-path="url(#clipPath2)" stroke="none"/>
      <path fill="none" d="M-362.3419 -650.1541 L-297.7753 -742.6711" stroke-width="5" clip-path="url(#clipPath2)"/>
      <path fill="none" d="M-363.2644 -610.1705 L-297.238 -508.7896" stroke-width="5" clip-path="url(#clipPath2)"/>
      <path fill="none" d="M-359.5043 -610.1786 L-219.1704 -443.0416" stroke-width="5" clip-path="url(#clipPath2)"/>
      <path fill="none" d="M909.3277 -696.9474 L1226.5168 -697.7705" clip-path="url(#clipPath2)"/>
      <path fill="none" d="M1266.4575 -697.8223 L1303.5601 -697.8223" clip-path="url(#clipPath2)"/>
      <path d="M1311.5601 -697.8223 L1299.5601 -702.8223 L1302.5601 -697.8223 L1299.5601 -692.8223 Z" clip-path="url(#clipPath2)" stroke="none"/>
      <path fill="none" d="M1246.4774 -717.8308 L1246.4774 -951.9462" stroke-width="4" clip-path="url(#clipPath2)"/>
      <path fill="none" d="M1246.4774 -677.8392 L1246.4774 -582.5477" stroke-width="4" clip-path="url(#clipPath2)"/>
      <path fill="none" d="M1302.0115 -562.2645 L1266.4622 -562.4359" clip-path="url(#clipPath2)"/>
      <path fill="none" d="M1226.4716 -562.5322 L1087.7749 -562.5322" clip-path="url(#clipPath2)"/>
      <path d="M1079.7749 -562.5322 L1091.7749 -557.5322 L1088.7749 -562.5322 L1091.7749 -567.5322 Z" clip-path="url(#clipPath2)" stroke="none"/>
      <path fill="none" d="M1246.4774 -542.5001 L1246.4774 -448.2428" stroke-width="4" clip-path="url(#clipPath2)"/>
      <path fill="none" d="M1226.5143 -428.2421 L1176.4685 -428.2421 L1172.0935 -428.8671 L1168.9685 -430.7421 L1167.0935 -433.8671 L1166.4685 -438.2421 L1166.4685 -552.5322 L1165.8435 -556.9072 L1163.9685 -560.0322 L1160.8435 -561.9072 L1156.4685 -562.5322 L1087.7915 -562.5322" clip-path="url(#clipPath2)"/>
      <path d="M1079.7915 -562.5322 L1091.7915 -557.5322 L1088.7915 -562.5322 L1091.7915 -567.5322 Z" clip-path="url(#clipPath2)" stroke="none"/>
    </g>
  </g>
</svg>
