<?xml version="1.0" encoding="UTF-8"?><svg xmlns="http://www.w3.org/2000/svg" xmlns:xlink="http://www.w3.org/1999/xlink" fill-opacity="1" color-rendering="auto" color-interpolation="auto" text-rendering="auto" stroke="black" stroke-linecap="square" width="2111" stroke-miterlimit="10" shape-rendering="auto" stroke-opacity="1" fill="black" stroke-dasharray="none" font-weight="normal" stroke-width="1" height="893" font-family="'Dialog'" font-style="normal" stroke-linejoin="miter" font-size="12px" stroke-dashoffset="0" image-rendering="auto">
  <!--Generated by ySVG 2.5-->
  <defs id="genericDefs"/>
  <g>
    <defs id="defs1">
      <linearGradient x1="457.1195" gradientUnits="userSpaceOnUse" x2="715.367" y1="-833.341" y2="-522.0355" id="linearGradient1" spreadMethod="reflect">
        <stop stop-opacity="1" stop-color="silver" offset="0%"/>
        <stop stop-opacity="1" stop-color="silver" offset="100%"/>
      </linearGradient>
      <linearGradient x1="457.1195" gradientUnits="userSpaceOnUse" x2="715.367" y1="-881.841" y2="-833.841" id="linearGradient2" spreadMethod="reflect">
        <stop stop-opacity="1" stop-color="silver" offset="0%"/>
        <stop stop-opacity="1" stop-color="silver" offset="100%"/>
      </linearGradient>
      <linearGradient x1="1679.4211" gradientUnits="userSpaceOnUse" x2="1698.4211" y1="-381.9615" y2="-377.9615" id="linearGradient3" spreadMethod="reflect">
        <stop stop-opacity="1" stop-color="rgb(232,238,247)" offset="0%"/>
        <stop stop-opacity="1" stop-color="rgb(183,201,227)" offset="100%"/>
      </linearGradient>
      <linearGradient x1="-149.5412" gradientUnits="userSpaceOnUse" x2="108.7063" y1="-833.341" y2="-521.5355" id="linearGradient4" spreadMethod="reflect">
        <stop stop-opacity="1" stop-color="silver" offset="0%"/>
        <stop stop-opacity="1" stop-color="silver" offset="100%"/>
      </linearGradient>
      <linearGradient x1="-149.5412" gradientUnits="userSpaceOnUse" x2="108.7063" y1="-881.341" y2="-833.341" id="linearGradient5" spreadMethod="reflect">
        <stop stop-opacity="1" stop-color="silver" offset="0%"/>
        <stop stop-opacity="1" stop-color="silver" offset="100%"/>
      </linearGradient>
      <linearGradient x1="1075.7325" gradientUnits="userSpaceOnUse" x2="1333.98" y1="-833.341" y2="-521.5355" id="linearGradient6" spreadMethod="reflect">
        <stop stop-opacity="1" stop-color="silver" offset="0%"/>
        <stop stop-opacity="1" stop-color="silver" offset="100%"/>
      </linearGradient>
      <linearGradient x1="1075.7325" gradientUnits="userSpaceOnUse" x2="1333.98" y1="-881.341" y2="-833.341" id="linearGradient7" spreadMethod="reflect">
        <stop stop-opacity="1" stop-color="silver" offset="0%"/>
        <stop stop-opacity="1" stop-color="silver" offset="100%"/>
      </linearGradient>
      <clipPath clipPathUnits="userSpaceOnUse" id="clipPath1">
        <path d="M0 0 L2111 0 L2111 893 L0 893 L0 0 Z"/>
      </clipPath>
      <clipPath clipPathUnits="userSpaceOnUse" id="clipPath2">
        <path d="M-349 -1108 L1762 -1108 L1762 -215 L-349 -215 L-349 -1108 Z"/>
      </clipPath>
    </defs>
    <g fill="white" text-rendering="geometricPrecision" shape-rendering="geometricPrecision" transform="translate(349,1108)" stroke="white">
      <rect x="-349" width="2111" height="893" y="-1108" clip-path="url(#clipPath2)" stroke="none"/>
    </g>
    <g fill="url(#linearGradient1)" text-rendering="geometricPrecision" shape-rendering="geometricPrecision" transform="matrix(1,0,0,1,349,1108)" stroke="url(#linearGradient1)">
      <path d="M457.1195 -833.341 L715.367 -833.341 L715.367 -522.0355 L457.1195 -522.0355 Z" stroke="none" clip-path="url(#clipPath2)"/>
    </g>
    <g text-rendering="geometricPrecision" stroke-miterlimit="1.45" shape-rendering="geometricPrecision" transform="matrix(1,0,0,1,349,1108)" stroke-linecap="butt">
      <path fill="none" d="M457.1195 -833.341 L715.367 -833.341 L715.367 -522.0355 L457.1195 -522.0355 Z" clip-path="url(#clipPath2)"/>
    </g>
    <g fill="url(#linearGradient2)" text-rendering="geometricPrecision" shape-rendering="geometricPrecision" transform="matrix(1,0,0,1,349,1108)" stroke="url(#linearGradient2)">
      <path d="M457.1195 -881.841 L715.367 -881.841 L715.367 -833.841 L457.1195 -833.841 Z" stroke="none" clip-path="url(#clipPath2)"/>
    </g>
    <g text-rendering="geometricPrecision" stroke-miterlimit="1.45" shape-rendering="geometricPrecision" transform="matrix(1,0,0,1,349,1108)" stroke-linecap="butt">
      <path fill="none" d="M457.1195 -881.841 L715.367 -881.841 L715.367 -833.841 L457.1195 -833.841 Z" clip-path="url(#clipPath2)"/>
      <text x="491.7198" y="-860.6711" clip-path="url(#clipPath2)" font-family="sans-serif" stroke="none" font-weight="bold" xml:space="preserve">Activation of predicate P(N)</text>
      <text x="527.9337" y="-846.7023" clip-path="url(#clipPath2)" font-family="sans-serif" stroke="none" font-weight="bold" xml:space="preserve">(Standard B-Box)</text>
    </g>
    <g fill="url(#linearGradient3)" text-rendering="geometricPrecision" shape-rendering="geometricPrecision" transform="matrix(1,0,0,1,349,1108)" stroke="url(#linearGradient3)">
      <circle r="2" clip-path="url(#clipPath2)" cx="1688.9211" cy="-379.9615" stroke="none"/>
    </g>
    <g text-rendering="geometricPrecision" stroke-miterlimit="1.45" shape-rendering="geometricPrecision" transform="matrix(1,0,0,1,349,1108)" stroke-linecap="butt">
      <circle fill="none" r="2" clip-path="url(#clipPath2)" cx="1688.9211" cy="-379.9615"/>
    </g>
    <g fill="url(#linearGradient4)" text-rendering="geometricPrecision" shape-rendering="geometricPrecision" transform="matrix(1,0,0,1,349,1108)" stroke="url(#linearGradient4)">
      <path d="M-149.5412 -833.341 L108.7063 -833.341 L108.7063 -521.5355 L-149.5412 -521.5355 Z" stroke="none" clip-path="url(#clipPath2)"/>
    </g>
    <g text-rendering="geometricPrecision" stroke-miterlimit="1.45" shape-rendering="geometricPrecision" transform="matrix(1,0,0,1,349,1108)" stroke-linecap="butt">
      <path fill="none" d="M-149.5412 -833.341 L108.7063 -833.341 L108.7063 -521.5355 L-149.5412 -521.5355 Z" clip-path="url(#clipPath2)"/>
    </g>
    <g fill="url(#linearGradient5)" text-rendering="geometricPrecision" shape-rendering="geometricPrecision" transform="matrix(1,0,0,1,349,1108)" stroke="url(#linearGradient5)">
      <path d="M-149.5412 -881.341 L108.7063 -881.341 L108.7063 -833.341 L-149.5412 -833.341 Z" stroke="none" clip-path="url(#clipPath2)"/>
    </g>
    <g text-rendering="geometricPrecision" stroke-miterlimit="1.45" shape-rendering="geometricPrecision" transform="matrix(1,0,0,1,349,1108)" stroke-linecap="butt">
      <path fill="none" d="M-149.5412 -881.341 L108.7063 -881.341 L108.7063 -833.341 L-149.5412 -833.341 Z" clip-path="url(#clipPath2)"/>
      <text x="-98.854" y="-860.1711" clip-path="url(#clipPath2)" font-family="sans-serif" stroke="none" font-weight="bold" xml:space="preserve">Clause Head Activation</text>
      <text x="-72.0239" y="-846.2023" clip-path="url(#clipPath2)" font-family="sans-serif" stroke="none" font-weight="bold" xml:space="preserve">(Special B-Box)</text>
    </g>
    <g fill="rgb(255,102,0)" text-rendering="geometricPrecision" shape-rendering="geometricPrecision" transform="matrix(1,0,0,1,349,1108)" stroke="rgb(255,102,0)">
      <path d="M63.0476 -717.3223 L149.9818 -717.3223 L159.6412 -697.3223 L149.9818 -677.3223 L63.0476 -677.3223 L72.707 -697.3223 Z" fill-rule="evenodd" clip-path="url(#clipPath2)" stroke="none"/>
    </g>
    <g text-rendering="geometricPrecision" stroke-miterlimit="1.45" shape-rendering="geometricPrecision" transform="matrix(1,0,0,1,349,1108)" stroke-linecap="butt">
      <path fill="none" d="M63.0476 -717.3223 L149.9818 -717.3223 L159.6412 -697.3223 L149.9818 -677.3223 L63.0476 -677.3223 L72.707 -697.3223 Z" fill-rule="evenodd" clip-path="url(#clipPath2)"/>
      <text x="96.4089" xml:space="preserve" y="-693.168" clip-path="url(#clipPath2)" font-family="sans-serif" stroke="none">unify</text>
    </g>
    <g fill="rgb(255,204,0)" text-rendering="geometricPrecision" shape-rendering="geometricPrecision" transform="matrix(1,0,0,1,349,1108)" stroke="rgb(255,204,0)">
      <path d="M-195.8727 -717.3223 L-108.9386 -717.3223 L-99.2792 -697.3223 L-108.9386 -677.3223 L-195.8727 -677.3223 L-186.2134 -697.3223 Z" fill-rule="evenodd" clip-path="url(#clipPath2)" stroke="none"/>
    </g>
    <g text-rendering="geometricPrecision" stroke-miterlimit="1.45" shape-rendering="geometricPrecision" transform="matrix(1,0,0,1,349,1108)" stroke-linecap="butt">
      <path fill="none" d="M-195.8727 -717.3223 L-108.9386 -717.3223 L-99.2792 -697.3223 L-108.9386 -677.3223 L-195.8727 -677.3223 L-186.2134 -697.3223 Z" fill-rule="evenodd" clip-path="url(#clipPath2)"/>
      <text x="-157.8856" xml:space="preserve" y="-693.168" clip-path="url(#clipPath2)" font-family="sans-serif" stroke="none">call</text>
    </g>
    <g fill="rgb(255,204,0)" text-rendering="geometricPrecision" shape-rendering="geometricPrecision" transform="matrix(1,0,0,1,349,1108)" stroke="rgb(255,204,0)">
      <path d="M-186.2134 -582.0322 L-99.2792 -582.0322 L-108.9386 -562.0322 L-99.2792 -542.0322 L-186.2134 -542.0322 L-195.8727 -562.0322 Z" fill-rule="evenodd" clip-path="url(#clipPath2)" stroke="none"/>
    </g>
    <g text-rendering="geometricPrecision" stroke-miterlimit="1.45" shape-rendering="geometricPrecision" transform="matrix(1,0,0,1,349,1108)" stroke-linecap="butt">
      <path fill="none" d="M-186.2134 -582.0322 L-99.2792 -582.0322 L-108.9386 -562.0322 L-99.2792 -542.0322 L-186.2134 -542.0322 L-195.8727 -562.0322 Z" fill-rule="evenodd" clip-path="url(#clipPath2)"/>
      <text x="-156.699" xml:space="preserve" y="-557.8779" clip-path="url(#clipPath2)" font-family="sans-serif" stroke="none">fail</text>
      <circle fill="none" r="15" clip-path="url(#clipPath2)" cx="-237.5775" cy="-964.3063"/>
      <circle fill="none" r="15" clip-path="url(#clipPath2)" cx="-237.5775" cy="-295.4572"/>
      <text x="-279.0267" xml:space="preserve" y="-263.3185" clip-path="url(#clipPath2)" font-family="sans-serif" stroke="none">Token passed</text>
      <text x="-331.0872" xml:space="preserve" y="-249.3498" clip-path="url(#clipPath2)" font-family="sans-serif" stroke="none">back to the surrounding B-Box,</text>
      <text x="-322.2689" xml:space="preserve" y="-235.381" clip-path="url(#clipPath2)" font-family="sans-serif" stroke="none">possibly to try a next clause</text>
    </g>
    <g text-rendering="geometricPrecision" stroke-miterlimit="1.45" shape-rendering="geometricPrecision" transform="matrix(1,0,0,1,349,1108)" stroke-linecap="butt">
      <path fill="none" d="M259.0114 -598.7006 L299.0114 -562.0322 L259.0114 -525.3638 L219.0114 -562.0322 Z" clip-path="url(#clipPath2)"/>
      <text x="234.7301" xml:space="preserve" y="-557.8779" clip-path="url(#clipPath2)" font-family="sans-serif" stroke="none">bypass?</text>
    </g>
    <g fill="rgb(255,204,0)" text-rendering="geometricPrecision" shape-rendering="geometricPrecision" transform="matrix(1,0,0,1,349,1108)" stroke="rgb(255,204,0)">
      <path d="M409.3165 -717.3223 L496.2506 -717.3223 L505.91 -697.3223 L496.2506 -677.3223 L409.3165 -677.3223 L418.9758 -697.3223 Z" fill-rule="evenodd" clip-path="url(#clipPath2)" stroke="none"/>
    </g>
    <g text-rendering="geometricPrecision" stroke-miterlimit="1.45" shape-rendering="geometricPrecision" transform="matrix(1,0,0,1,349,1108)" stroke-linecap="butt">
      <path fill="none" d="M409.3165 -717.3223 L496.2506 -717.3223 L505.91 -697.3223 L496.2506 -677.3223 L409.3165 -677.3223 L418.9758 -697.3223 Z" fill-rule="evenodd" clip-path="url(#clipPath2)"/>
      <text x="447.3036" xml:space="preserve" y="-693.168" clip-path="url(#clipPath2)" font-family="sans-serif" stroke="none">call</text>
    </g>
    <g fill="rgb(255,204,0)" text-rendering="geometricPrecision" shape-rendering="geometricPrecision" transform="matrix(1,0,0,1,349,1108)" stroke="rgb(255,204,0)">
      <path d="M418.9758 -582.5322 L505.91 -582.5322 L496.2506 -562.5322 L505.91 -542.5322 L418.9758 -542.5322 L409.3165 -562.5322 Z" fill-rule="evenodd" clip-path="url(#clipPath2)" stroke="none"/>
    </g>
    <g text-rendering="geometricPrecision" stroke-miterlimit="1.45" shape-rendering="geometricPrecision" transform="matrix(1,0,0,1,349,1108)" stroke-linecap="butt">
      <path fill="none" d="M418.9758 -582.5322 L505.91 -582.5322 L496.2506 -562.5322 L505.91 -542.5322 L418.9758 -542.5322 L409.3165 -562.5322 Z" fill-rule="evenodd" clip-path="url(#clipPath2)"/>
      <text x="448.4902" xml:space="preserve" y="-558.3779" clip-path="url(#clipPath2)" font-family="sans-serif" stroke="none">fail</text>
    </g>
    <g fill="rgb(255,204,0)" text-rendering="geometricPrecision" shape-rendering="geometricPrecision" transform="matrix(1,0,0,1,349,1108)" stroke="rgb(255,204,0)">
      <path d="M668.5546 -716.3223 L755.4888 -716.3223 L765.1481 -696.8223 L755.4888 -677.3223 L668.5546 -677.3223 L678.2139 -696.8223 Z" fill-rule="evenodd" clip-path="url(#clipPath2)" stroke="none"/>
    </g>
    <g text-rendering="geometricPrecision" stroke-miterlimit="1.45" shape-rendering="geometricPrecision" transform="matrix(1,0,0,1,349,1108)" stroke-linecap="butt">
      <path fill="none" d="M668.5546 -716.3223 L755.4888 -716.3223 L765.1481 -696.8223 L755.4888 -677.3223 L668.5546 -677.3223 L678.2139 -696.8223 Z" fill-rule="evenodd" clip-path="url(#clipPath2)"/>
      <text x="705.5897" xml:space="preserve" y="-699.6524" clip-path="url(#clipPath2)" font-family="sans-serif" stroke="none">exit</text>
      <text x="687.452" xml:space="preserve" y="-685.6837" clip-path="url(#clipPath2)" font-family="sans-serif" stroke="none">(succeed)</text>
    </g>
    <g fill="rgb(255,204,0)" text-rendering="geometricPrecision" shape-rendering="geometricPrecision" transform="matrix(1,0,0,1,349,1108)" stroke="rgb(255,204,0)">
      <path d="M678.2139 -582.0322 L765.1481 -582.0322 L755.4888 -562.5322 L765.1481 -543.0322 L678.2139 -543.0322 L668.5546 -562.5322 Z" fill-rule="evenodd" clip-path="url(#clipPath2)" stroke="none"/>
    </g>
    <g text-rendering="geometricPrecision" stroke-miterlimit="1.45" shape-rendering="geometricPrecision" transform="matrix(1,0,0,1,349,1108)" stroke-linecap="butt">
      <path fill="none" d="M678.2139 -582.0322 L765.1481 -582.0322 L755.4888 -562.5322 L765.1481 -543.0322 L678.2139 -543.0322 L668.5546 -562.5322 Z" fill-rule="evenodd" clip-path="url(#clipPath2)"/>
      <text x="703.2137" xml:space="preserve" y="-558.3779" clip-path="url(#clipPath2)" font-family="sans-serif" stroke="none">redo</text>
    </g>
    <g text-rendering="geometricPrecision" stroke-miterlimit="1.45" shape-rendering="geometricPrecision" transform="matrix(1,0,0,1,349,1108)" stroke-linecap="butt">
      <path fill="none" d="M895.5497 -599.2006 L935.5497 -562.5322 L895.5497 -525.8638 L855.5497 -562.5322 Z" clip-path="url(#clipPath2)"/>
      <text x="871.2685" xml:space="preserve" y="-558.3779" clip-path="url(#clipPath2)" font-family="sans-serif" stroke="none">bypass?</text>
    </g>
    <g text-rendering="geometricPrecision" stroke-miterlimit="1.45" shape-rendering="geometricPrecision" transform="matrix(1,0,0,1,349,1108)" stroke-linecap="butt">
      <path fill="none" d="M-18.1158 -733.9907 L21.8842 -697.3223 L-18.1158 -660.6539 L-58.1158 -697.3223 Z" clip-path="url(#clipPath2)"/>
      <text x="-49.6363" xml:space="preserve" y="-700.1524" clip-path="url(#clipPath2)" font-family="sans-serif" stroke="none">unification</text>
      <text x="-41.5855" xml:space="preserve" y="-686.1837" clip-path="url(#clipPath2)" font-family="sans-serif" stroke="none">success</text>
    </g>
    <g fill="url(#linearGradient6)" text-rendering="geometricPrecision" shape-rendering="geometricPrecision" transform="matrix(1,0,0,1,349,1108)" stroke="url(#linearGradient6)">
      <path d="M1075.7325 -833.341 L1333.98 -833.341 L1333.98 -521.5355 L1075.7325 -521.5355 Z" stroke="none" clip-path="url(#clipPath2)"/>
    </g>
    <g text-rendering="geometricPrecision" stroke-miterlimit="1.45" shape-rendering="geometricPrecision" transform="matrix(1,0,0,1,349,1108)" stroke-linecap="butt">
      <path fill="none" d="M1075.7325 -833.341 L1333.98 -833.341 L1333.98 -521.5355 L1075.7325 -521.5355 Z" clip-path="url(#clipPath2)"/>
    </g>
    <g fill="url(#linearGradient7)" text-rendering="geometricPrecision" shape-rendering="geometricPrecision" transform="matrix(1,0,0,1,349,1108)" stroke="url(#linearGradient7)">
      <path d="M1075.7325 -881.341 L1333.98 -881.341 L1333.98 -833.341 L1075.7325 -833.341 Z" stroke="none" clip-path="url(#clipPath2)"/>
    </g>
    <g text-rendering="geometricPrecision" stroke-miterlimit="1.45" shape-rendering="geometricPrecision" transform="matrix(1,0,0,1,349,1108)" stroke-linecap="butt">
      <path fill="none" d="M1075.7325 -881.341 L1333.98 -881.341 L1333.98 -833.341 L1075.7325 -833.341 Z" clip-path="url(#clipPath2)"/>
      <text x="1101.1306" y="-860.1711" clip-path="url(#clipPath2)" font-family="sans-serif" stroke="none" font-weight="bold" xml:space="preserve">Activation of predicate P(N+1)</text>
      <text x="1146.5466" y="-846.2023" clip-path="url(#clipPath2)" font-family="sans-serif" stroke="none" font-weight="bold" xml:space="preserve">(Standard B-Box)</text>
    </g>
    <g fill="rgb(255,204,0)" text-rendering="geometricPrecision" shape-rendering="geometricPrecision" transform="matrix(1,0,0,1,349,1108)" stroke="rgb(255,204,0)">
      <path d="M1027.9294 -716.8223 L1114.8636 -716.8223 L1124.5229 -696.8223 L1114.8636 -676.8223 L1027.9294 -676.8223 L1037.5889 -696.8223 Z" fill-rule="evenodd" clip-path="url(#clipPath2)" stroke="none"/>
    </g>
    <g text-rendering="geometricPrecision" stroke-miterlimit="1.45" shape-rendering="geometricPrecision" transform="matrix(1,0,0,1,349,1108)" stroke-linecap="butt">
      <path fill="none" d="M1027.9294 -716.8223 L1114.8636 -716.8223 L1124.5229 -696.8223 L1114.8636 -676.8223 L1027.9294 -676.8223 L1037.5889 -696.8223 Z" fill-rule="evenodd" clip-path="url(#clipPath2)"/>
      <text x="1065.9166" xml:space="preserve" y="-692.668" clip-path="url(#clipPath2)" font-family="sans-serif" stroke="none">call</text>
    </g>
    <g fill="rgb(255,204,0)" text-rendering="geometricPrecision" shape-rendering="geometricPrecision" transform="matrix(1,0,0,1,349,1108)" stroke="rgb(255,204,0)">
      <path d="M1037.5889 -582.0322 L1124.5229 -582.0322 L1114.8636 -562.0322 L1124.5229 -542.0322 L1037.5889 -542.0322 L1027.9294 -562.0322 Z" fill-rule="evenodd" clip-path="url(#clipPath2)" stroke="none"/>
    </g>
    <g text-rendering="geometricPrecision" stroke-miterlimit="1.45" shape-rendering="geometricPrecision" transform="matrix(1,0,0,1,349,1108)" stroke-linecap="butt">
      <path fill="none" d="M1037.5889 -582.0322 L1124.5229 -582.0322 L1114.8636 -562.0322 L1124.5229 -542.0322 L1037.5889 -542.0322 L1027.9294 -562.0322 Z" fill-rule="evenodd" clip-path="url(#clipPath2)"/>
      <text x="1067.1031" xml:space="preserve" y="-557.8779" clip-path="url(#clipPath2)" font-family="sans-serif" stroke="none">fail</text>
    </g>
    <g fill="rgb(255,204,0)" text-rendering="geometricPrecision" shape-rendering="geometricPrecision" transform="matrix(1,0,0,1,349,1108)" stroke="rgb(255,204,0)">
      <path d="M1287.1676 -716.3223 L1374.1018 -716.3223 L1383.7611 -696.8223 L1374.1018 -677.3223 L1287.1676 -677.3223 L1296.8269 -696.8223 Z" fill-rule="evenodd" clip-path="url(#clipPath2)" stroke="none"/>
    </g>
    <g text-rendering="geometricPrecision" stroke-miterlimit="1.45" shape-rendering="geometricPrecision" transform="matrix(1,0,0,1,349,1108)" stroke-linecap="butt">
      <path fill="none" d="M1287.1676 -716.3223 L1374.1018 -716.3223 L1383.7611 -696.8223 L1374.1018 -677.3223 L1287.1676 -677.3223 L1296.8269 -696.8223 Z" fill-rule="evenodd" clip-path="url(#clipPath2)"/>
      <text x="1324.2026" xml:space="preserve" y="-699.6524" clip-path="url(#clipPath2)" font-family="sans-serif" stroke="none">exit</text>
      <text x="1306.0649" xml:space="preserve" y="-685.6837" clip-path="url(#clipPath2)" font-family="sans-serif" stroke="none">(succeed)</text>
    </g>
    <g fill="rgb(255,204,0)" text-rendering="geometricPrecision" shape-rendering="geometricPrecision" transform="matrix(1,0,0,1,349,1108)" stroke="rgb(255,204,0)">
      <path d="M1296.8269 -581.5322 L1383.7611 -581.5322 L1374.1018 -562.0322 L1383.7611 -542.5322 L1296.8269 -542.5322 L1287.1676 -562.0322 Z" fill-rule="evenodd" clip-path="url(#clipPath2)" stroke="none"/>
    </g>
    <g text-rendering="geometricPrecision" stroke-miterlimit="1.45" shape-rendering="geometricPrecision" transform="matrix(1,0,0,1,349,1108)" stroke-linecap="butt">
      <path fill="none" d="M1296.8269 -581.5322 L1383.7611 -581.5322 L1374.1018 -562.0322 L1383.7611 -542.5322 L1296.8269 -542.5322 L1287.1676 -562.0322 Z" fill-rule="evenodd" clip-path="url(#clipPath2)"/>
      <text x="1321.8267" xml:space="preserve" y="-557.8779" clip-path="url(#clipPath2)" font-family="sans-serif" stroke="none">redo</text>
    </g>
    <g text-rendering="geometricPrecision" stroke-miterlimit="1.45" shape-rendering="geometricPrecision" transform="matrix(1,0,0,1,349,1108)" stroke-linecap="butt">
      <path fill="none" d="M1514.1627 -598.7006 L1554.1627 -562.0322 L1514.1627 -525.3638 L1474.1627 -562.0322 Z" clip-path="url(#clipPath2)"/>
      <text x="1489.8815" xml:space="preserve" y="-557.8779" clip-path="url(#clipPath2)" font-family="sans-serif" stroke="none">bypass?</text>
    </g>
    <g text-rendering="geometricPrecision" stroke-miterlimit="1.45" shape-rendering="geometricPrecision" transform="matrix(1,0,0,1,349,1108)" stroke-linecap="butt">
      <circle fill="none" r="15" clip-path="url(#clipPath2)" cx="1489.1628" cy="-964.3063"/>
      <text x="1446.5475" xml:space="preserve" y="-1002.1052" clip-path="url(#clipPath2)" font-family="sans-serif" stroke="none">Token passed back</text>
      <text x="1428.7262" xml:space="preserve" y="-988.1364" clip-path="url(#clipPath2)" font-family="sans-serif" stroke="none">to the surrounding B-Box</text>
      <circle fill="none" r="15" clip-path="url(#clipPath2)" cx="1663.034" cy="-964.3063"/>
      <text x="1641.1257" xml:space="preserve" y="-1002.1052" clip-path="url(#clipPath2)" font-family="sans-serif" stroke="none">Surrounding</text>
      <text x="1611.3132" xml:space="preserve" y="-988.1364" clip-path="url(#clipPath2)" font-family="sans-serif" stroke="none">B-Box requests a redo</text>
    </g>
    <g fill="rgb(255,204,0)" text-rendering="geometricPrecision" shape-rendering="geometricPrecision" transform="matrix(1,0,0,1,349,1108)" stroke="rgb(255,204,0)">
      <path d="M668.5546 -803.841 L755.4888 -803.841 L765.1481 -783.841 L755.4888 -763.841 L668.5546 -763.841 L678.2139 -783.841 Z" fill-rule="evenodd" clip-path="url(#clipPath2)" stroke="none"/>
    </g>
    <g text-rendering="geometricPrecision" stroke-miterlimit="1.45" shape-rendering="geometricPrecision" transform="matrix(1,0,0,1,349,1108)" stroke-linecap="butt">
      <path fill="none" d="M668.5546 -803.841 L755.4888 -803.841 L765.1481 -783.841 L755.4888 -763.841 L668.5546 -763.841 L678.2139 -783.841 Z" fill-rule="evenodd" clip-path="url(#clipPath2)"/>
      <text x="687.3172" xml:space="preserve" y="-779.6867" clip-path="url(#clipPath2)" font-family="sans-serif" stroke="none">exception</text>
    </g>
    <g fill="rgb(255,204,0)" text-rendering="geometricPrecision" shape-rendering="geometricPrecision" transform="matrix(1,0,0,1,349,1108)" stroke="rgb(255,204,0)">
      <path d="M1287.1676 -803.341 L1374.1018 -803.341 L1383.7611 -783.341 L1374.1018 -763.341 L1287.1676 -763.341 L1296.8269 -783.341 Z" fill-rule="evenodd" clip-path="url(#clipPath2)" stroke="none"/>
    </g>
    <g text-rendering="geometricPrecision" stroke-miterlimit="1.45" shape-rendering="geometricPrecision" transform="matrix(1,0,0,1,349,1108)" stroke-linecap="butt">
      <path fill="none" d="M1287.1676 -803.341 L1374.1018 -803.341 L1383.7611 -783.341 L1374.1018 -763.341 L1287.1676 -763.341 L1296.8269 -783.341 Z" fill-rule="evenodd" clip-path="url(#clipPath2)"/>
      <text x="1305.9302" xml:space="preserve" y="-779.1867" clip-path="url(#clipPath2)" font-family="sans-serif" stroke="none">exception</text>
      <path fill="none" d="M-237.5775 -949.3063 L-237.5775 -706.8223 L-236.9525 -702.4508 L-235.0775 -699.3362 L-231.9526 -697.4786 L-227.5776 -696.8779 L-194.2923 -697.0627" clip-path="url(#clipPath2)"/>
      <path d="M-186.2924 -697.1072 L-198.3201 -702.0404 L-195.2923 -697.0572 L-198.2644 -692.0406 Z" clip-path="url(#clipPath2)" stroke="none"/>
      <text x="-299.0969" xml:space="preserve" y="-934.1287" clip-path="url(#clipPath2)" font-family="sans-serif" stroke="none">Token passed-in from</text>
      <text x="-301.5168" xml:space="preserve" y="-920.16" clip-path="url(#clipPath2)" font-family="sans-serif" stroke="none">the surrounding B-Box</text>
      <path fill="none" d="M-195.8727 -562.0322 L-227.5775 -562.0322 L-231.9525 -561.4072 L-235.0775 -559.5322 L-236.9525 -556.4072 L-237.5775 -552.0322 L-237.5775 -318.4572" clip-path="url(#clipPath2)"/>
      <path d="M-237.5775 -310.4572 L-232.5775 -322.4572 L-237.5775 -319.4572 L-242.5775 -322.4572 Z" clip-path="url(#clipPath2)" stroke="none"/>
      <text x="-275.3265" xml:space="preserve" y="-489.7093" clip-path="url(#clipPath2)" font-family="sans-serif" stroke="none">Clause Head</text>
      <text x="-280.4505" xml:space="preserve" y="-475.7405" clip-path="url(#clipPath2)" font-family="sans-serif" stroke="none">does not unify</text>
      <path fill="none" stroke-dasharray="6,2" d="M117.6931 -677.3102 L129.8923 -638.8561 L134.0171 -627.7613 L138.8036 -618.3947 L144.2518 -610.7565 L150.3618 -604.8465 L157.1335 -600.6648 L164.5669 -598.2114 L172.6621 -597.4863 L181.419 -598.4896 L189.4971 -600.1494 L198.2501 -601.5795 L206.3334 -602.1351 L213.7472 -601.8163 L220.4913 -600.623 L226.5658 -598.5552 L231.9707 -595.6129 L236.706 -591.7961 L238.0063 -590.2957 L238.0651 -590.2148" clip-path="url(#clipPath2)"/>
      <path stroke-dasharray="6,2" d="M243.0606 -583.9662 L239.4728 -596.4613 L237.4407 -590.9959 L231.662 -590.217 Z" clip-path="url(#clipPath2)" stroke="none"/>
      <text x="128.9163" xml:space="preserve" y="-628.1171" clip-path="url(#clipPath2)" font-family="sans-serif" stroke="none">always set bypass flag</text>
      <path fill="none" d="M259.0114 -525.3706 L259.0114 -416.42 L258.3864 -412.045 L256.5114 -408.92 L253.3864 -407.045 L249.0114 -406.42 L-227.5775 -406.42 L-231.9525 -405.795 L-235.0775 -403.92 L-236.9525 -400.795 L-237.5775 -396.42 L-237.5775 -318.4572" clip-path="url(#clipPath2)"/>
      <path d="M-237.5775 -310.4572 L-232.5775 -322.4572 L-237.5775 -319.4572 L-242.5775 -322.4572 Z" clip-path="url(#clipPath2)" stroke="none"/>
      <text x="248.5289" xml:space="preserve" y="-507.2251" clip-path="url(#clipPath2)" font-family="sans-serif" stroke="none">Yes</text>
      <path fill="none" d="M159.658 -697.3223 L410.9503 -697.3223" clip-path="url(#clipPath2)"/>
      <path d="M418.9503 -697.3223 L406.9503 -702.3223 L409.9503 -697.3223 L406.9503 -692.3223 Z" clip-path="url(#clipPath2)" stroke="none"/>
      <path fill="none" d="M499.3604 -683.7808 L508.6656 -680.4736 L528.7219 -672.0492 L545.1315 -663.6248 L557.8947 -655.2004 L567.0111 -646.776 L572.481 -638.3516 L574.3043 -629.9272 L572.481 -621.5029 L567.0111 -613.0785 L557.8947 -604.6541 L545.1315 -596.2297 L528.7219 -587.8053 L511.0158 -580.3681 L510.9216 -580.3346" clip-path="url(#clipPath2)"/>
      <path d="M503.4333 -577.5193 L516.4252 -577.062 L511.8576 -580.6865 L512.9062 -586.4224 Z" clip-path="url(#clipPath2)" stroke="none"/>
      <path fill="none" d="M409.3689 -562.4107 L306.9133 -562.1528" clip-path="url(#clipPath2)"/>
      <path d="M298.9134 -562.1326 L310.9259 -557.1628 L307.9133 -562.1553 L310.9007 -567.1628 Z" clip-path="url(#clipPath2)" stroke="none"/>
      <path fill="none" d="M505.8723 -697.2292 L670.1942 -696.9124" clip-path="url(#clipPath2)"/>
      <path d="M678.1942 -696.8969 L666.2039 -701.92 L669.1942 -696.9143 L666.1846 -691.9201 Z" clip-path="url(#clipPath2)" stroke="none"/>
      <path fill="none" d="M675.5426 -576.6136 L668.2744 -579.3184 L649.1906 -587.7115 L633.5765 -596.1047 L621.4323 -604.4979 L612.7578 -612.891 L607.5531 -621.2841 L605.8182 -629.6772 L607.5531 -638.0704 L612.7578 -646.4635 L621.4323 -654.8566 L633.5765 -663.2498 L649.1906 -671.6429 L662.8849 -677.6658 L662.9787 -677.7007" clip-path="url(#clipPath2)"/>
      <path d="M670.3486 -680.8126 L657.3488 -680.751 L662.0574 -677.3117 L661.2387 -671.5385 Z" clip-path="url(#clipPath2)" stroke="none"/>
      <path fill="none" d="M668.5291 -562.5322 L504.2588 -562.5322" clip-path="url(#clipPath2)"/>
      <path d="M496.2588 -562.5322 L508.2588 -557.5322 L505.2588 -562.5322 L508.2588 -567.5322 Z" clip-path="url(#clipPath2)" stroke="none"/>
      <path fill="none" stroke-dasharray="6,2" d="M759.8727 -686.174 L782.359 -680.6084 L829.2612 -668.4933 L862.7733 -658.6799 L868.7327 -656.7549 L875.0179 -654.123 L880.4651 -650.5586 L885.0743 -646.0618 L888.8455 -640.6324 L891.7786 -634.2706 L893.8737 -626.9763 L895.1307 -618.7495 L895.5497 -609.5902 L895.5497 -607.1584" clip-path="url(#clipPath2)"/>
      <path stroke-dasharray="6,2" d="M895.5497 -599.1584 L900.5497 -611.1584 L895.5497 -608.1584 L890.5497 -611.1584 Z" clip-path="url(#clipPath2)" stroke="none"/>
      <text x="842.3085" xml:space="preserve" y="-645.6838" clip-path="url(#clipPath2)" font-family="sans-serif" stroke="none">if "well-behaved",</text>
      <text x="842.2734" xml:space="preserve" y="-631.7151" clip-path="url(#clipPath2)" font-family="sans-serif" stroke="none">set bypass flag to</text>
      <text x="833.2529" xml:space="preserve" y="-617.7463" clip-path="url(#clipPath2)" font-family="sans-serif" stroke="none">leave no choicepoint</text>
      <path fill="none" d="M895.5497 -525.8279 L895.5497 -414.4452 L894.9247 -410.0702 L893.0497 -406.9452 L889.9247 -405.0702 L885.5497 -404.4452 L375.7334 -404.4452 L371.3584 -405.0702 L368.2334 -406.9452 L366.3584 -410.0702 L365.7334 -414.4452 L365.7334 -552.0322 L365.1084 -556.4072 L363.2334 -559.5322 L360.1084 -561.4072 L355.7334 -562.0322 L307.0061 -562.0322" clip-path="url(#clipPath2)"/>
      <path d="M299.0061 -562.0322 L311.0061 -557.0322 L308.0061 -562.0322 L311.0061 -567.0322 Z" clip-path="url(#clipPath2)" stroke="none"/>
      <text x="885.0673" xml:space="preserve" y="-507.7251" clip-path="url(#clipPath2)" font-family="sans-serif" stroke="none">Yes</text>
      <path fill="none" d="M855.5433 -562.5322 L763.486 -562.5322" clip-path="url(#clipPath2)"/>
      <path d="M755.486 -562.5322 L767.486 -557.5322 L764.486 -562.5322 L767.486 -567.5322 Z" clip-path="url(#clipPath2)" stroke="none"/>
      <text x="802.1898" xml:space="preserve" y="-558.3779" clip-path="url(#clipPath2)" font-family="sans-serif" stroke="none">No</text>
      <path fill="none" d="M-99.2497 -697.3223 L-66.0885 -697.3223" clip-path="url(#clipPath2)"/>
      <path d="M-58.0885 -697.3223 L-70.0885 -702.3223 L-67.0885 -697.3223 L-70.0885 -692.3223 Z" clip-path="url(#clipPath2)" stroke="none"/>
      <path fill="none" d="M-18.1158 -660.6262 L-18.1158 -572.0322 L-18.7408 -567.6572 L-20.6158 -564.5322 L-23.7408 -562.6572 L-28.1158 -562.0322 L-100.9212 -562.0322" clip-path="url(#clipPath2)"/>
      <path d="M-108.9212 -562.0322 L-96.9212 -557.0322 L-99.9212 -562.0322 L-96.9212 -567.0322 Z" clip-path="url(#clipPath2)" stroke="none"/>
      <text x="-26.275" xml:space="preserve" y="-625.7991" clip-path="url(#clipPath2)" font-family="sans-serif" stroke="none">No</text>
      <path fill="none" d="M21.8664 -697.3223 L64.6784 -697.3223" clip-path="url(#clipPath2)"/>
      <path d="M72.6784 -697.3223 L60.6784 -702.3223 L63.6784 -697.3223 L60.6784 -692.3223 Z" clip-path="url(#clipPath2)" stroke="none"/>
      <text x="28.8842" xml:space="preserve" y="-693.168" clip-path="url(#clipPath2)" font-family="sans-serif" stroke="none">Yes</text>
      <path fill="none" d="M765.1511 -696.8223 L1029.6077 -696.8223" clip-path="url(#clipPath2)"/>
      <path d="M1037.6077 -696.8223 L1025.6077 -701.8223 L1028.6077 -696.8223 L1025.6077 -691.8223 Z" clip-path="url(#clipPath2)" stroke="none"/>
      <path fill="none" d="M1117.9734 -683.2808 L1127.2786 -679.9736 L1147.3348 -671.5492 L1163.7445 -663.1248 L1176.5076 -654.7004 L1185.624 -646.276 L1191.094 -637.8516 L1192.9172 -629.4272 L1191.094 -621.0029 L1185.624 -612.5785 L1176.5076 -604.1541 L1163.7445 -595.7297 L1147.3348 -587.3053 L1129.6288 -579.8681 L1129.5345 -579.8346" clip-path="url(#clipPath2)"/>
      <path d="M1122.0463 -577.0193 L1135.0382 -576.562 L1130.4706 -580.1865 L1131.5192 -585.9224 Z" clip-path="url(#clipPath2)" stroke="none"/>
      <path fill="none" d="M1028.0134 -562.1656 L943.4247 -562.3997" clip-path="url(#clipPath2)"/>
      <path d="M935.4247 -562.4218 L947.4108 -557.3887 L944.4246 -562.397 L947.4384 -567.3887 Z" clip-path="url(#clipPath2)" stroke="none"/>
      <path fill="none" d="M1124.5486 -696.8223 L1288.8187 -696.8223" clip-path="url(#clipPath2)"/>
      <path d="M1296.8187 -696.8223 L1284.8187 -701.8223 L1287.8187 -696.8223 L1284.8187 -691.8223 Z" clip-path="url(#clipPath2)" stroke="none"/>
      <path fill="none" d="M1294.1787 -576.1002 L1286.7065 -578.8809 L1267.5516 -587.3053 L1251.8794 -595.7297 L1239.6899 -604.1541 L1230.9833 -612.5785 L1225.7592 -621.0029 L1224.0178 -629.4272 L1225.7592 -637.8516 L1230.9833 -646.276 L1239.6899 -654.7004 L1251.8794 -663.1248 L1267.5516 -671.5492 L1281.4969 -677.6824 L1281.5907 -677.7172" clip-path="url(#clipPath2)"/>
      <path d="M1288.9651 -680.8185 L1275.9652 -680.7756 L1280.6688 -677.3295 L1279.8418 -671.5576 Z" clip-path="url(#clipPath2)" stroke="none"/>
      <path fill="none" d="M1287.142 -562.0322 L1122.8718 -562.0322" clip-path="url(#clipPath2)"/>
      <path d="M1114.8718 -562.0322 L1126.8718 -557.0322 L1123.8718 -562.0322 L1126.8718 -567.0322 Z" clip-path="url(#clipPath2)" stroke="none"/>
      <path fill="none" stroke-dasharray="6,2" d="M1377.0433 -683.3165 L1385.762 -680.4845 L1406.22 -674.1634 L1426.4418 -668.5674 L1446.4272 -663.6965 L1466.1763 -659.5508 L1474.9009 -657.8693 L1484.1029 -655.4752 L1492.0779 -652.0764 L1498.826 -647.6726 L1504.3473 -642.264 L1508.6415 -635.8505 L1511.7089 -628.4323 L1513.5492 -620.0091 L1514.1627 -610.5811 L1514.1627 -606.6809" clip-path="url(#clipPath2)"/>
      <path stroke-dasharray="6,2" d="M1514.1627 -598.6809 L1519.1627 -610.6809 L1514.1627 -607.6809 L1509.1627 -610.6809 Z" clip-path="url(#clipPath2)" stroke="none"/>
      <text x="1460.9215" xml:space="preserve" y="-647.2168" clip-path="url(#clipPath2)" font-family="sans-serif" stroke="none">if "well-behaved",</text>
      <text x="1460.8864" xml:space="preserve" y="-633.248" clip-path="url(#clipPath2)" font-family="sans-serif" stroke="none">set bypass flag to</text>
      <text x="1451.8658" xml:space="preserve" y="-619.2793" clip-path="url(#clipPath2)" font-family="sans-serif" stroke="none">leave no choicepoint</text>
      <path fill="none" d="M1474.1564 -562.0322 L1382.099 -562.0322" clip-path="url(#clipPath2)"/>
      <path d="M1374.099 -562.0322 L1386.099 -557.0322 L1383.099 -562.0322 L1386.099 -567.0322 Z" clip-path="url(#clipPath2)" stroke="none"/>
      <text x="1420.8027" xml:space="preserve" y="-557.8779" clip-path="url(#clipPath2)" font-family="sans-serif" stroke="none">No</text>
      <path fill="none" d="M1514.1627 -525.3671 L1514.1627 -414.4452 L1513.5377 -410.0702 L1511.6627 -406.9452 L1508.5377 -405.0702 L1504.1627 -404.4452 L1003.7179 -404.4452 L999.3429 -405.0702 L996.2179 -406.9452 L994.3429 -410.0702 L993.7179 -414.4452 L993.7179 -552.5322 L993.0929 -556.9072 L991.2179 -560.0322 L988.0929 -561.9072 L983.7179 -562.5322 L943.5743 -562.5322" clip-path="url(#clipPath2)"/>
      <path d="M935.5743 -562.5322 L947.5743 -557.5322 L944.5743 -562.5322 L947.5743 -567.5322 Z" clip-path="url(#clipPath2)" stroke="none"/>
      <text x="1503.6803" xml:space="preserve" y="-507.2251" clip-path="url(#clipPath2)" font-family="sans-serif" stroke="none">Yes</text>
      <path fill="none" d="M1383.7578 -696.8223 L1479.1627 -696.8223 L1483.5377 -697.4473 L1486.6627 -699.3223 L1488.5377 -702.4473 L1489.1627 -706.8223 L1489.1627 -941.3063" clip-path="url(#clipPath2)"/>
      <path d="M1489.1627 -949.3063 L1484.1627 -937.3063 L1489.1627 -940.3063 L1494.1627 -937.3063 Z" clip-path="url(#clipPath2)" stroke="none"/>
      <path fill="none" stroke-dasharray="6,2" d="M1489.1627 -979.3063 L1489.1627 -1082.1844 L1489.7877 -1086.5594 L1491.6627 -1089.6844 L1494.7877 -1091.5594 L1499.1627 -1092.1844 L1653.0339 -1092.1844 L1657.4089 -1091.5594 L1660.5339 -1089.6844 L1662.4089 -1086.5594 L1663.0339 -1082.1844 L1663.0339 -987.3063" clip-path="url(#clipPath2)"/>
      <path stroke-dasharray="6,2" d="M1663.0339 -979.3063 L1668.0339 -991.3063 L1663.0339 -988.3063 L1658.0339 -991.3063 Z" clip-path="url(#clipPath2)" stroke="none"/>
      <path fill="none" d="M1663.0339 -949.3063 L1663.0339 -572.0322 L1662.4089 -567.6572 L1660.5339 -564.5322 L1657.4089 -562.6572 L1653.0339 -562.0322 L1562.1792 -562.0322" clip-path="url(#clipPath2)"/>
      <path d="M1554.1792 -562.0322 L1566.1792 -557.0322 L1563.1792 -562.0322 L1566.1792 -567.0322 Z" clip-path="url(#clipPath2)" stroke="none"/>
    </g>
  </g>
</svg>
