<?xml version="1.0" encoding="UTF-8"?><svg xmlns="http://www.w3.org/2000/svg" xmlns:xlink="http://www.w3.org/1999/xlink" fill-opacity="1" color-rendering="auto" color-interpolation="auto" text-rendering="auto" stroke="black" stroke-linecap="square" width="932" stroke-miterlimit="10" shape-rendering="auto" stroke-opacity="1" fill="black" stroke-dasharray="none" font-weight="normal" stroke-width="1" height="516" font-family="'Dialog'" font-style="normal" stroke-linejoin="miter" font-size="12px" stroke-dashoffset="0" image-rendering="auto">
  <!--Generated by ySVG 2.5-->
  <defs id="genericDefs"/>
  <g>
    <defs id="defs1">
      <linearGradient x1="457.1195" gradientUnits="userSpaceOnUse" x2="715.367" y1="-833.341" y2="-522.0355" id="linearGradient1" spreadMethod="reflect">
        <stop stop-opacity="1" stop-color="silver" offset="0%"/>
        <stop stop-opacity="1" stop-color="silver" offset="100%"/>
      </linearGradient>
      <linearGradient x1="457.1195" gradientUnits="userSpaceOnUse" x2="715.367" y1="-881.841" y2="-833.841" id="linearGradient2" spreadMethod="reflect">
        <stop stop-opacity="1" stop-color="silver" offset="0%"/>
        <stop stop-opacity="1" stop-color="silver" offset="100%"/>
      </linearGradient>
      <linearGradient x1="1002.6836" gradientUnits="userSpaceOnUse" x2="1260.931" y1="-832.841" y2="-521.5355" id="linearGradient3" spreadMethod="reflect">
        <stop stop-opacity="1" stop-color="silver" offset="0%"/>
        <stop stop-opacity="1" stop-color="silver" offset="100%"/>
      </linearGradient>
      <linearGradient x1="1002.6836" gradientUnits="userSpaceOnUse" x2="1260.931" y1="-881.341" y2="-833.341" id="linearGradient4" spreadMethod="reflect">
        <stop stop-opacity="1" stop-color="silver" offset="0%"/>
        <stop stop-opacity="1" stop-color="silver" offset="100%"/>
      </linearGradient>
      <clipPath clipPathUnits="userSpaceOnUse" id="clipPath1">
        <path d="M0 0 L932 0 L932 516 L0 516 L0 0 Z"/>
      </clipPath>
      <clipPath clipPathUnits="userSpaceOnUse" id="clipPath2">
        <path d="M394 -1022 L1326 -1022 L1326 -506 L394 -506 L394 -1022 Z"/>
      </clipPath>
    </defs>
    <g fill="white" text-rendering="geometricPrecision" shape-rendering="geometricPrecision" transform="translate(-394,1022)" stroke="white">
      <rect x="394" width="932" height="516" y="-1022" clip-path="url(#clipPath2)" stroke="none"/>
    </g>
    <g fill="url(#linearGradient1)" text-rendering="geometricPrecision" shape-rendering="geometricPrecision" transform="matrix(1,0,0,1,-394,1022)" stroke="url(#linearGradient1)">
      <path d="M457.1195 -833.341 L715.367 -833.341 L715.367 -522.0355 L457.1195 -522.0355 Z" stroke="none" clip-path="url(#clipPath2)"/>
    </g>
    <g text-rendering="geometricPrecision" stroke-miterlimit="1.45" shape-rendering="geometricPrecision" transform="matrix(1,0,0,1,-394,1022)" stroke-linecap="butt">
      <path fill="none" d="M457.1195 -833.341 L715.367 -833.341 L715.367 -522.0355 L457.1195 -522.0355 Z" clip-path="url(#clipPath2)"/>
    </g>
    <g fill="url(#linearGradient2)" text-rendering="geometricPrecision" shape-rendering="geometricPrecision" transform="matrix(1,0,0,1,-394,1022)" stroke="url(#linearGradient2)">
      <path d="M457.1195 -881.841 L715.367 -881.841 L715.367 -833.841 L457.1195 -833.841 Z" stroke="none" clip-path="url(#clipPath2)"/>
    </g>
    <g text-rendering="geometricPrecision" stroke-miterlimit="1.45" shape-rendering="geometricPrecision" transform="matrix(1,0,0,1,-394,1022)" stroke-linecap="butt">
      <path fill="none" d="M457.1195 -881.841 L715.367 -881.841 L715.367 -833.841 L457.1195 -833.841 Z" clip-path="url(#clipPath2)"/>
      <text x="491.7198" y="-860.6711" clip-path="url(#clipPath2)" font-family="sans-serif" stroke="none" font-weight="bold" xml:space="preserve">Activation of predicate P(N)</text>
      <text x="527.9337" y="-846.7023" clip-path="url(#clipPath2)" font-family="sans-serif" stroke="none" font-weight="bold" xml:space="preserve">(Standard B-Box)</text>
    </g>
    <g fill="rgb(255,204,0)" text-rendering="geometricPrecision" shape-rendering="geometricPrecision" transform="matrix(1,0,0,1,-394,1022)" stroke="rgb(255,204,0)">
      <path d="M409.3165 -717.3223 L496.2506 -717.3223 L505.91 -697.3223 L496.2506 -677.3223 L409.3165 -677.3223 L418.9758 -697.3223 Z" fill-rule="evenodd" clip-path="url(#clipPath2)" stroke="none"/>
    </g>
    <g text-rendering="geometricPrecision" stroke-miterlimit="1.45" shape-rendering="geometricPrecision" transform="matrix(1,0,0,1,-394,1022)" stroke-linecap="butt">
      <path fill="none" d="M409.3165 -717.3223 L496.2506 -717.3223 L505.91 -697.3223 L496.2506 -677.3223 L409.3165 -677.3223 L418.9758 -697.3223 Z" fill-rule="evenodd" clip-path="url(#clipPath2)"/>
      <text x="445.8945" y="-693.168" clip-path="url(#clipPath2)" font-family="sans-serif" stroke="none" font-weight="bold" xml:space="preserve">call</text>
    </g>
    <g fill="rgb(255,204,0)" text-rendering="geometricPrecision" shape-rendering="geometricPrecision" transform="matrix(1,0,0,1,-394,1022)" stroke="rgb(255,204,0)">
      <path d="M418.9758 -582.5322 L505.91 -582.5322 L496.2506 -562.5322 L505.91 -542.5322 L418.9758 -542.5322 L409.3165 -562.5322 Z" fill-rule="evenodd" clip-path="url(#clipPath2)" stroke="none"/>
    </g>
    <g text-rendering="geometricPrecision" stroke-miterlimit="1.45" shape-rendering="geometricPrecision" transform="matrix(1,0,0,1,-394,1022)" stroke-linecap="butt">
      <path fill="none" d="M418.9758 -582.5322 L505.91 -582.5322 L496.2506 -562.5322 L505.91 -542.5322 L418.9758 -542.5322 L409.3165 -562.5322 Z" fill-rule="evenodd" clip-path="url(#clipPath2)"/>
      <text x="446.8408" y="-558.3779" clip-path="url(#clipPath2)" font-family="sans-serif" stroke="none" font-weight="bold" xml:space="preserve">fail</text>
    </g>
    <g fill="rgb(255,204,0)" text-rendering="geometricPrecision" shape-rendering="geometricPrecision" transform="matrix(1,0,0,1,-394,1022)" stroke="rgb(255,204,0)">
      <path d="M668.5546 -716.3223 L755.4888 -716.3223 L765.1481 -696.8223 L755.4888 -677.3223 L668.5546 -677.3223 L678.2139 -696.8223 Z" fill-rule="evenodd" clip-path="url(#clipPath2)" stroke="none"/>
    </g>
    <g text-rendering="geometricPrecision" stroke-miterlimit="1.45" shape-rendering="geometricPrecision" transform="matrix(1,0,0,1,-394,1022)" stroke-linecap="butt">
      <path fill="none" d="M668.5546 -716.3223 L755.4888 -716.3223 L765.1481 -696.8223 L755.4888 -677.3223 L668.5546 -677.3223 L678.2139 -696.8223 Z" fill-rule="evenodd" clip-path="url(#clipPath2)"/>
      <text x="703.9871" y="-692.668" clip-path="url(#clipPath2)" font-family="sans-serif" stroke="none" font-weight="bold" xml:space="preserve">exit</text>
    </g>
    <g fill="rgb(255,204,0)" text-rendering="geometricPrecision" shape-rendering="geometricPrecision" transform="matrix(1,0,0,1,-394,1022)" stroke="rgb(255,204,0)">
      <path d="M678.2139 -582.0322 L765.1481 -582.0322 L755.4888 -562.5322 L765.1481 -543.0322 L678.2139 -543.0322 L668.5546 -562.5322 Z" fill-rule="evenodd" clip-path="url(#clipPath2)" stroke="none"/>
    </g>
    <g text-rendering="geometricPrecision" stroke-miterlimit="1.45" shape-rendering="geometricPrecision" transform="matrix(1,0,0,1,-394,1022)" stroke-linecap="butt">
      <path fill="none" d="M678.2139 -582.0322 L765.1481 -582.0322 L755.4888 -562.5322 L765.1481 -543.0322 L678.2139 -543.0322 L668.5546 -562.5322 Z" fill-rule="evenodd" clip-path="url(#clipPath2)"/>
      <text x="701.4061" y="-558.3779" clip-path="url(#clipPath2)" font-family="sans-serif" stroke="none" font-weight="bold" xml:space="preserve">redo</text>
    </g>
    <g fill="rgb(255,204,0)" text-rendering="geometricPrecision" shape-rendering="geometricPrecision" transform="matrix(1,0,0,1,-394,1022)" stroke="rgb(255,204,0)">
      <path d="M668.5546 -803.841 L755.4888 -803.841 L765.1481 -783.841 L755.4888 -763.841 L668.5546 -763.841 L678.2139 -783.841 Z" fill-rule="evenodd" clip-path="url(#clipPath2)" stroke="none"/>
    </g>
    <g text-rendering="geometricPrecision" stroke-miterlimit="1.45" shape-rendering="geometricPrecision" transform="matrix(1,0,0,1,-394,1022)" stroke-linecap="butt">
      <path fill="none" d="M668.5546 -803.841 L755.4888 -803.841 L765.1481 -783.841 L755.4888 -763.841 L668.5546 -763.841 L678.2139 -783.841 Z" fill-rule="evenodd" clip-path="url(#clipPath2)"/>
      <text x="683.6727" y="-779.6867" clip-path="url(#clipPath2)" font-family="sans-serif" stroke="none" font-weight="bold" xml:space="preserve">exception</text>
    </g>
    <g fill="url(#linearGradient3)" text-rendering="geometricPrecision" shape-rendering="geometricPrecision" transform="matrix(1,0,0,1,-394,1022)" stroke="url(#linearGradient3)">
      <path d="M1002.6836 -832.841 L1260.931 -832.841 L1260.931 -521.5355 L1002.6836 -521.5355 Z" stroke="none" clip-path="url(#clipPath2)"/>
    </g>
    <g text-rendering="geometricPrecision" stroke-miterlimit="1.45" shape-rendering="geometricPrecision" transform="matrix(1,0,0,1,-394,1022)" stroke-linecap="butt">
      <path fill="none" d="M1002.6836 -832.841 L1260.931 -832.841 L1260.931 -521.5355 L1002.6836 -521.5355 Z" clip-path="url(#clipPath2)"/>
    </g>
    <g fill="url(#linearGradient4)" text-rendering="geometricPrecision" shape-rendering="geometricPrecision" transform="matrix(1,0,0,1,-394,1022)" stroke="url(#linearGradient4)">
      <path d="M1002.6836 -881.341 L1260.931 -881.341 L1260.931 -833.341 L1002.6836 -833.341 Z" stroke="none" clip-path="url(#clipPath2)"/>
    </g>
    <g text-rendering="geometricPrecision" stroke-miterlimit="1.45" shape-rendering="geometricPrecision" transform="matrix(1,0,0,1,-394,1022)" stroke-linecap="butt">
      <path fill="none" d="M1002.6836 -881.341 L1260.931 -881.341 L1260.931 -833.341 L1002.6836 -833.341 Z" clip-path="url(#clipPath2)"/>
      <text x="1037.2838" y="-860.1711" clip-path="url(#clipPath2)" font-family="sans-serif" stroke="none" font-weight="bold" xml:space="preserve">Activation of predicate P(N)</text>
      <text x="1073.4977" y="-846.2023" clip-path="url(#clipPath2)" font-family="sans-serif" stroke="none" font-weight="bold" xml:space="preserve">(Standard B-Box)</text>
    </g>
    <g fill="rgb(255,204,0)" text-rendering="geometricPrecision" shape-rendering="geometricPrecision" transform="matrix(1,0,0,1,-394,1022)" stroke="rgb(255,204,0)">
      <path d="M954.8802 -716.8222 L1041.814 -716.8222 L1051.4734 -696.8222 L1041.814 -676.8222 L954.8802 -676.8222 L964.5393 -696.8222 Z" fill-rule="evenodd" clip-path="url(#clipPath2)" stroke="none"/>
    </g>
    <g text-rendering="geometricPrecision" stroke-miterlimit="1.45" shape-rendering="geometricPrecision" transform="matrix(1,0,0,1,-394,1022)" stroke-linecap="butt">
      <path fill="none" d="M954.8802 -716.8222 L1041.814 -716.8222 L1051.4734 -696.8222 L1041.814 -676.8222 L954.8802 -676.8222 L964.5393 -696.8222 Z" fill-rule="evenodd" clip-path="url(#clipPath2)"/>
      <text x="988.9625" xml:space="preserve" y="-692.668" clip-path="url(#clipPath2)" font-family="sans-serif" stroke="none">any?</text>
    </g>
    <g fill="rgb(255,204,0)" text-rendering="geometricPrecision" shape-rendering="geometricPrecision" transform="matrix(1,0,0,1,-394,1022)" stroke="rgb(255,204,0)">
      <path d="M964.5393 -582.0321 L1051.4734 -582.0321 L1041.814 -562.0322 L1051.4734 -542.0323 L964.5393 -542.0323 L954.8802 -562.0322 Z" fill-rule="evenodd" clip-path="url(#clipPath2)" stroke="none"/>
    </g>
    <g text-rendering="geometricPrecision" stroke-miterlimit="1.45" shape-rendering="geometricPrecision" transform="matrix(1,0,0,1,-394,1022)" stroke-linecap="butt">
      <path fill="none" d="M964.5393 -582.0321 L1051.4734 -582.0321 L1041.814 -562.0322 L1051.4734 -542.0323 L964.5393 -542.0323 L954.8802 -562.0322 Z" fill-rule="evenodd" clip-path="url(#clipPath2)"/>
      <text x="985.8043" xml:space="preserve" y="-557.8779" clip-path="url(#clipPath2)" font-family="sans-serif" stroke="none">none!</text>
    </g>
    <g fill="rgb(255,204,0)" text-rendering="geometricPrecision" shape-rendering="geometricPrecision" transform="matrix(1,0,0,1,-394,1022)" stroke="rgb(255,204,0)">
      <path d="M1214.1179 -715.8222 L1301.0521 -715.8222 L1310.7114 -696.3222 L1301.0521 -676.8222 L1214.1179 -676.8222 L1223.7772 -696.3222 Z" fill-rule="evenodd" clip-path="url(#clipPath2)" stroke="none"/>
    </g>
    <g text-rendering="geometricPrecision" stroke-miterlimit="1.45" shape-rendering="geometricPrecision" transform="matrix(1,0,0,1,-394,1022)" stroke-linecap="butt">
      <path fill="none" d="M1214.1179 -715.8222 L1301.0521 -715.8222 L1310.7114 -696.3222 L1301.0521 -676.8222 L1214.1179 -676.8222 L1223.7772 -696.3222 Z" fill-rule="evenodd" clip-path="url(#clipPath2)"/>
      <text x="1242.8129" xml:space="preserve" y="-692.168" clip-path="url(#clipPath2)" font-family="sans-serif" stroke="none">found!</text>
    </g>
    <g fill="rgb(255,204,0)" text-rendering="geometricPrecision" shape-rendering="geometricPrecision" transform="matrix(1,0,0,1,-394,1022)" stroke="rgb(255,204,0)">
      <path d="M1223.7772 -581.5321 L1310.7114 -581.5321 L1301.0521 -562.0322 L1310.7114 -542.5323 L1223.7772 -542.5323 L1214.1179 -562.0322 Z" fill-rule="evenodd" clip-path="url(#clipPath2)" stroke="none"/>
    </g>
    <g text-rendering="geometricPrecision" stroke-miterlimit="1.45" shape-rendering="geometricPrecision" transform="matrix(1,0,0,1,-394,1022)" stroke-linecap="butt">
      <path fill="none" d="M1223.7772 -581.5321 L1310.7114 -581.5321 L1301.0521 -562.0322 L1310.7114 -542.5323 L1223.7772 -542.5323 L1214.1179 -562.0322 Z" fill-rule="evenodd" clip-path="url(#clipPath2)"/>
      <text x="1243.557" xml:space="preserve" y="-557.8779" clip-path="url(#clipPath2)" font-family="sans-serif" stroke="none">more?</text>
    </g>
    <g fill="rgb(255,204,0)" text-rendering="geometricPrecision" shape-rendering="geometricPrecision" transform="matrix(1,0,0,1,-394,1022)" stroke="rgb(255,204,0)">
      <path d="M1214.1179 -803.3409 L1301.0521 -803.3409 L1310.7114 -783.3409 L1301.0521 -763.3409 L1214.1179 -763.3409 L1223.7772 -783.3409 Z" fill-rule="evenodd" clip-path="url(#clipPath2)" stroke="none"/>
    </g>
    <g text-rendering="geometricPrecision" stroke-miterlimit="1.45" shape-rendering="geometricPrecision" transform="matrix(1,0,0,1,-394,1022)" stroke-linecap="butt">
      <path fill="none" d="M1214.1179 -803.3409 L1301.0521 -803.3409 L1310.7114 -783.3409 L1301.0521 -763.3409 L1214.1179 -763.3409 L1223.7772 -783.3409 Z" fill-rule="evenodd" clip-path="url(#clipPath2)"/>
      <text x="1232.8812" xml:space="preserve" y="-779.1867" clip-path="url(#clipPath2)" font-family="sans-serif" stroke="none">exception</text>
      <rect x="457.1195" y="-1006.6571" clip-path="url(#clipPath2)" fill="none" width="258.2475" stroke-dasharray="6,2" height="48"/>
      <text x="472.2833" font-size="20px" y="-975.7333" clip-path="url(#clipPath2)" font-family="sans-serif" stroke="none" xml:space="preserve">Traditional port names</text>
      <rect x="1002.6836" y="-1006.6571" clip-path="url(#clipPath2)" fill="none" width="258.2475" stroke-dasharray="6,2" height="48"/>
      <text x="1040.2643" font-size="20px" y="-975.7333" clip-path="url(#clipPath2)" font-family="sans-serif" stroke="none" xml:space="preserve">Better port names</text>
    </g>
    <g text-rendering="geometricPrecision" stroke-miterlimit="1.45" stroke-dasharray="6,2" shape-rendering="geometricPrecision" transform="matrix(1,0,0,1,-394,1022)" stroke-linecap="butt">
      <path fill="none" d="M764.9184 -859.5278 L764.9184 -851.3597 L953.1321 -851.3597 L953.1321 -859.5278" clip-path="url(#clipPath2)"/>
      <text x="770.9184" y="-886.8624" clip-path="url(#clipPath2)" font-family="sans-serif" stroke-dasharray="none" stroke="none" xml:space="preserve">This should **at least**</text>
      <text x="770.9184" y="-872.8937" clip-path="url(#clipPath2)" font-family="sans-serif" stroke-dasharray="none" stroke="none" xml:space="preserve">have been called "succeed"</text>
    </g>
    <g text-rendering="geometricPrecision" stroke-miterlimit="1.45" shape-rendering="geometricPrecision" transform="matrix(1,0,0,1,-394,1022)" stroke-linecap="butt">
      <path fill="none" d="M499.3604 -683.7808 L508.6656 -680.4736 L528.7219 -672.0492 L545.1315 -663.6248 L557.8947 -655.2004 L567.0111 -646.776 L572.481 -638.3516 L574.3043 -629.9272 L572.481 -621.5029 L567.0111 -613.0785 L557.8947 -604.6541 L545.1315 -596.2297 L528.7219 -587.8053 L511.0158 -580.3681 L510.9216 -580.3346" clip-path="url(#clipPath2)"/>
      <path d="M503.4333 -577.5193 L516.4252 -577.062 L511.8576 -580.6865 L512.9062 -586.4224 Z" clip-path="url(#clipPath2)" stroke="none"/>
      <path fill="none" d="M505.8723 -697.2292 L670.1942 -696.9124" clip-path="url(#clipPath2)"/>
      <path d="M678.1942 -696.8969 L666.2039 -701.92 L669.1942 -696.9143 L666.1846 -691.9201 Z" clip-path="url(#clipPath2)" stroke="none"/>
      <path fill="none" d="M675.5426 -576.6136 L668.2744 -579.3184 L649.1906 -587.7115 L633.5765 -596.1047 L621.4323 -604.4979 L612.7578 -612.891 L607.5531 -621.2841 L605.8182 -629.6772 L607.5531 -638.0704 L612.7578 -646.4635 L621.4323 -654.8566 L633.5765 -663.2498 L649.1906 -671.6429 L662.8849 -677.6658 L662.9787 -677.7007" clip-path="url(#clipPath2)"/>
      <path d="M670.3486 -680.8126 L657.3488 -680.751 L662.0574 -677.3117 L661.2387 -671.5385 Z" clip-path="url(#clipPath2)" stroke="none"/>
      <path fill="none" d="M668.5291 -562.5322 L504.2588 -562.5322" clip-path="url(#clipPath2)"/>
      <path d="M496.2588 -562.5322 L508.2588 -557.5322 L505.2588 -562.5322 L508.2588 -567.5322 Z" clip-path="url(#clipPath2)" stroke="none"/>
      <path fill="none" d="M1044.9244 -683.2808 L1054.2296 -679.9736 L1074.2859 -671.5492 L1090.6956 -663.1248 L1103.4587 -654.7004 L1112.5752 -646.276 L1118.045 -637.8516 L1119.8684 -629.4272 L1118.045 -621.0029 L1112.5752 -612.5785 L1103.4587 -604.1541 L1090.6956 -595.7297 L1074.2859 -587.3053 L1056.5798 -579.8681 L1056.4856 -579.8346" clip-path="url(#clipPath2)"/>
      <path d="M1048.9973 -577.0193 L1061.9893 -576.562 L1057.4216 -580.1865 L1058.4702 -585.9224 Z" clip-path="url(#clipPath2)" stroke="none"/>
      <path fill="none" d="M1051.4364 -696.7292 L1215.7583 -696.4124" clip-path="url(#clipPath2)"/>
      <path d="M1223.7583 -696.3969 L1211.7679 -701.42 L1214.7583 -696.4143 L1211.7487 -691.4201 Z" clip-path="url(#clipPath2)" stroke="none"/>
      <path fill="none" d="M1221.1066 -576.1136 L1213.8384 -578.8184 L1194.7545 -587.2115 L1179.1405 -595.6047 L1166.9962 -603.9979 L1158.3218 -612.391 L1153.1171 -620.7841 L1151.3822 -629.1772 L1153.1171 -637.5704 L1158.3218 -645.9635 L1166.9962 -654.3566 L1179.1405 -662.7498 L1194.7545 -671.1429 L1208.4491 -677.1658 L1208.5428 -677.2007" clip-path="url(#clipPath2)"/>
      <path d="M1215.9127 -680.3126 L1202.9128 -680.2509 L1207.6216 -676.8117 L1206.8029 -671.0385 Z" clip-path="url(#clipPath2)" stroke="none"/>
      <path fill="none" d="M1214.093 -562.0322 L1049.8229 -562.0322" clip-path="url(#clipPath2)"/>
      <path d="M1041.8229 -562.0322 L1053.8229 -557.0322 L1050.8229 -562.0322 L1053.8229 -567.0322 Z" clip-path="url(#clipPath2)" stroke="none"/>
      <path fill="none" stroke-dasharray="6,2" d="M765.1859 -696.8223 L811.2165 -696.8223 L850.6797 -851.3528" clip-path="url(#clipPath2)"/>
    </g>
  </g>
</svg>
