<?xml version="1.0" encoding="UTF-8"?><svg xmlns="http://www.w3.org/2000/svg" xmlns:xlink="http://www.w3.org/1999/xlink" fill-opacity="1" color-rendering="auto" color-interpolation="auto" text-rendering="auto" stroke="black" stroke-linecap="square" width="2068" stroke-miterlimit="10" shape-rendering="auto" stroke-opacity="1" fill="black" stroke-dasharray="none" font-weight="normal" stroke-width="1" height="785" font-family="'Dialog'" font-style="normal" stroke-linejoin="miter" font-size="12px" stroke-dashoffset="0" image-rendering="auto">
  <!--Generated by ySVG 2.5-->
  <defs id="genericDefs"/>
  <g>
    <defs id="defs1">
      <linearGradient x1="457.1195" gradientUnits="userSpaceOnUse" x2="715.367" y1="-762.3802" y2="-522.0355" id="linearGradient1" spreadMethod="reflect">
        <stop stop-opacity="1" stop-color="silver" offset="0%"/>
        <stop stop-opacity="1" stop-color="silver" offset="100%"/>
      </linearGradient>
      <linearGradient x1="457.1195" gradientUnits="userSpaceOnUse" x2="715.367" y1="-810.3802" y2="-762.3802" id="linearGradient2" spreadMethod="reflect">
        <stop stop-opacity="1" stop-color="silver" offset="0%"/>
        <stop stop-opacity="1" stop-color="silver" offset="100%"/>
      </linearGradient>
      <linearGradient x1="1679.4211" gradientUnits="userSpaceOnUse" x2="1698.4211" y1="-381.9615" y2="-377.9615" id="linearGradient3" spreadMethod="reflect">
        <stop stop-opacity="1" stop-color="rgb(232,238,247)" offset="0%"/>
        <stop stop-opacity="1" stop-color="rgb(183,201,227)" offset="100%"/>
      </linearGradient>
      <linearGradient x1="-149.5412" gradientUnits="userSpaceOnUse" x2="108.7063" y1="-761.8802" y2="-521.5355" id="linearGradient4" spreadMethod="reflect">
        <stop stop-opacity="1" stop-color="silver" offset="0%"/>
        <stop stop-opacity="1" stop-color="silver" offset="100%"/>
      </linearGradient>
      <linearGradient x1="-149.5412" gradientUnits="userSpaceOnUse" x2="108.7063" y1="-809.8802" y2="-761.8802" id="linearGradient5" spreadMethod="reflect">
        <stop stop-opacity="1" stop-color="silver" offset="0%"/>
        <stop stop-opacity="1" stop-color="silver" offset="100%"/>
      </linearGradient>
      <linearGradient x1="1075.7325" gradientUnits="userSpaceOnUse" x2="1333.98" y1="-761.8802" y2="-521.5355" id="linearGradient6" spreadMethod="reflect">
        <stop stop-opacity="1" stop-color="silver" offset="0%"/>
        <stop stop-opacity="1" stop-color="silver" offset="100%"/>
      </linearGradient>
      <linearGradient x1="1075.7325" gradientUnits="userSpaceOnUse" x2="1333.98" y1="-809.8802" y2="-761.8802" id="linearGradient7" spreadMethod="reflect">
        <stop stop-opacity="1" stop-color="silver" offset="0%"/>
        <stop stop-opacity="1" stop-color="silver" offset="100%"/>
      </linearGradient>
      <clipPath clipPathUnits="userSpaceOnUse" id="clipPath1">
        <path d="M0 0 L2068 0 L2068 785 L0 785 L0 0 Z"/>
      </clipPath>
      <clipPath clipPathUnits="userSpaceOnUse" id="clipPath2">
        <path d="M-349 -1070 L1719 -1070 L1719 -285 L-349 -285 L-349 -1070 Z"/>
      </clipPath>
      <clipPath clipPathUnits="userSpaceOnUse" id="clipPath3">
        <path d="M-2.6077 -725.2194 L1459.6892 737.0774 L904.6104 1292.1562 L-557.6865 -170.1406 L-2.6077 -725.2194 Z"/>
      </clipPath>
      <clipPath clipPathUnits="userSpaceOnUse" id="clipPath4">
        <path d="M-456.3473 -1125.0508 L1005.9495 337.246 L450.8707 892.3249 L-1011.4261 -569.972 L-456.3473 -1125.0508 Z"/>
      </clipPath>
      <clipPath clipPathUnits="userSpaceOnUse" id="clipPath5">
        <path d="M-894.5929 -1556.9613 L567.7039 -94.6644 L12.6251 460.4144 L-1449.6718 -1001.8824 L-894.5929 -1556.9613 Z"/>
      </clipPath>
    </defs>
    <g fill="white" text-rendering="geometricPrecision" shape-rendering="geometricPrecision" transform="translate(349,1070)" stroke="white">
      <rect x="-349" width="2068" height="785" y="-1070" clip-path="url(#clipPath2)" stroke="none"/>
    </g>
    <g fill="url(#linearGradient1)" text-rendering="geometricPrecision" shape-rendering="geometricPrecision" transform="matrix(1,0,0,1,349,1070)" stroke="url(#linearGradient1)">
      <path d="M457.1195 -762.3802 L715.367 -762.3802 L715.367 -522.0355 L457.1195 -522.0355 Z" stroke="none" clip-path="url(#clipPath2)"/>
    </g>
    <g text-rendering="geometricPrecision" stroke-miterlimit="1.45" shape-rendering="geometricPrecision" transform="matrix(1,0,0,1,349,1070)" stroke-linecap="butt">
      <path fill="none" d="M457.1195 -762.3802 L715.367 -762.3802 L715.367 -522.0355 L457.1195 -522.0355 Z" clip-path="url(#clipPath2)"/>
    </g>
    <g fill="url(#linearGradient2)" text-rendering="geometricPrecision" shape-rendering="geometricPrecision" transform="matrix(1,0,0,1,349,1070)" stroke="url(#linearGradient2)">
      <path d="M457.1195 -810.3802 L715.367 -810.3802 L715.367 -762.3802 L457.1195 -762.3802 Z" stroke="none" clip-path="url(#clipPath2)"/>
    </g>
    <g text-rendering="geometricPrecision" stroke-miterlimit="1.45" shape-rendering="geometricPrecision" transform="matrix(1,0,0,1,349,1070)" stroke-linecap="butt">
      <path fill="none" d="M457.1195 -810.3802 L715.367 -810.3802 L715.367 -762.3802 L457.1195 -762.3802 Z" clip-path="url(#clipPath2)"/>
      <text x="540.9297" y="-789.2103" clip-path="url(#clipPath2)" font-family="sans-serif" stroke="none" font-weight="bold" xml:space="preserve">Activation of </text>
      <text x="537.0333" y="-775.2415" clip-path="url(#clipPath2)" font-family="sans-serif" stroke="none" font-weight="bold" xml:space="preserve">predicate P(N)</text>
    </g>
    <g text-rendering="geometricPrecision" stroke-miterlimit="1.45" shape-rendering="geometricPrecision" transform="matrix(1,0,0,1,349,1070)" stroke-linecap="butt">
      <ellipse rx="28.4367" fill="none" ry="19.5" clip-path="url(#clipPath2)" cx="895.5497" cy="-786.3802"/>
      <text x="891.5764" font-size="25px" y="-777.7254" clip-path="url(#clipPath2)" font-family="sans-serif" stroke="none" xml:space="preserve">,</text>
    </g>
    <g text-rendering="geometricPrecision" stroke-miterlimit="1.45" shape-rendering="geometricPrecision" transform="matrix(1,0,0,1,349,1070)" stroke-linecap="butt">
      <ellipse rx="28.4367" fill="none" ry="20" clip-path="url(#clipPath2)" cx="259.0114" cy="-785.8802"/>
      <text x="255.038" font-size="25px" y="-777.2254" clip-path="url(#clipPath2)" font-family="sans-serif" stroke="none" xml:space="preserve">,</text>
    </g>
    <g fill="url(#linearGradient3)" text-rendering="geometricPrecision" shape-rendering="geometricPrecision" transform="matrix(1,0,0,1,349,1070)" stroke="url(#linearGradient3)">
      <circle r="2" clip-path="url(#clipPath2)" cx="1688.9211" cy="-379.9615" stroke="none"/>
    </g>
    <g text-rendering="geometricPrecision" stroke-miterlimit="1.45" shape-rendering="geometricPrecision" transform="matrix(1,0,0,1,349,1070)" stroke-linecap="butt">
      <circle fill="none" r="2" clip-path="url(#clipPath2)" cx="1688.9211" cy="-379.9615"/>
    </g>
    <g fill="url(#linearGradient4)" text-rendering="geometricPrecision" shape-rendering="geometricPrecision" transform="matrix(1,0,0,1,349,1070)" stroke="url(#linearGradient4)">
      <path d="M-149.5412 -761.8802 L108.7063 -761.8802 L108.7063 -521.5355 L-149.5412 -521.5355 Z" stroke="none" clip-path="url(#clipPath2)"/>
    </g>
    <g text-rendering="geometricPrecision" stroke-miterlimit="1.45" shape-rendering="geometricPrecision" transform="matrix(1,0,0,1,349,1070)" stroke-linecap="butt">
      <path fill="none" d="M-149.5412 -761.8802 L108.7063 -761.8802 L108.7063 -521.5355 L-149.5412 -521.5355 Z" clip-path="url(#clipPath2)"/>
    </g>
    <g fill="url(#linearGradient5)" text-rendering="geometricPrecision" shape-rendering="geometricPrecision" transform="matrix(1,0,0,1,349,1070)" stroke="url(#linearGradient5)">
      <path d="M-149.5412 -809.8802 L108.7063 -809.8802 L108.7063 -761.8802 L-149.5412 -761.8802 Z" stroke="none" clip-path="url(#clipPath2)"/>
    </g>
    <g text-rendering="geometricPrecision" stroke-miterlimit="1.45" shape-rendering="geometricPrecision" transform="matrix(1,0,0,1,349,1070)" stroke-linecap="butt">
      <path fill="none" d="M-149.5412 -809.8802 L108.7063 -809.8802 L108.7063 -761.8802 L-149.5412 -761.8802 Z" clip-path="url(#clipPath2)"/>
      <text x="-62.3618" y="-788.7103" clip-path="url(#clipPath2)" font-family="sans-serif" stroke="none" font-weight="bold" xml:space="preserve">Clause Head</text>
      <text x="-59.4761" y="-774.7415" clip-path="url(#clipPath2)" font-family="sans-serif" stroke="none" font-weight="bold" xml:space="preserve">Special Box</text>
    </g>
    <g fill="rgb(255,204,0)" text-rendering="geometricPrecision" shape-rendering="geometricPrecision" transform="matrix(1,0,0,1,349,1070)" stroke="rgb(255,204,0)">
      <path d="M63.0476 -716.8221 L149.9818 -716.8221 L159.6412 -696.8221 L149.9818 -676.8221 L63.0476 -676.8221 L72.707 -696.8221 Z" fill-rule="evenodd" clip-path="url(#clipPath2)" stroke="none"/>
    </g>
    <g text-rendering="geometricPrecision" stroke-miterlimit="1.45" shape-rendering="geometricPrecision" transform="matrix(1,0,0,1,349,1070)" stroke-linecap="butt">
      <path fill="none" d="M63.0476 -716.8221 L149.9818 -716.8221 L159.6412 -696.8221 L149.9818 -676.8221 L63.0476 -676.8221 L72.707 -696.8221 Z" fill-rule="evenodd" clip-path="url(#clipPath2)"/>
      <text x="96.4089" xml:space="preserve" y="-692.668" clip-path="url(#clipPath2)" font-family="sans-serif" stroke="none">unify</text>
    </g>
    <g fill="rgb(255,204,0)" text-rendering="geometricPrecision" shape-rendering="geometricPrecision" transform="matrix(1,0,0,1,349,1070)" stroke="rgb(255,204,0)">
      <path d="M-195.8727 -716.8223 L-108.9386 -716.8223 L-99.2792 -696.8223 L-108.9386 -676.8223 L-195.8727 -676.8223 L-186.2133 -696.8223 Z" fill-rule="evenodd" clip-path="url(#clipPath2)" stroke="none"/>
    </g>
    <g text-rendering="geometricPrecision" stroke-miterlimit="1.45" shape-rendering="geometricPrecision" transform="matrix(1,0,0,1,349,1070)" stroke-linecap="butt">
      <path fill="none" d="M-195.8727 -716.8223 L-108.9386 -716.8223 L-99.2792 -696.8223 L-108.9386 -676.8223 L-195.8727 -676.8223 L-186.2133 -696.8223 Z" fill-rule="evenodd" clip-path="url(#clipPath2)"/>
      <text x="-157.8856" xml:space="preserve" y="-692.668" clip-path="url(#clipPath2)" font-family="sans-serif" stroke="none">call</text>
    </g>
    <g fill="rgb(255,204,0)" text-rendering="geometricPrecision" shape-rendering="geometricPrecision" transform="matrix(1,0,0,1,349,1070)" stroke="rgb(255,204,0)">
      <path d="M-186.2134 -582.0322 L-99.2792 -582.0322 L-108.9386 -562.0322 L-99.2792 -542.0322 L-186.2134 -542.0322 L-195.8727 -562.0322 Z" fill-rule="evenodd" clip-path="url(#clipPath2)" stroke="none"/>
    </g>
    <g text-rendering="geometricPrecision" stroke-miterlimit="1.45" shape-rendering="geometricPrecision" transform="matrix(1,0,0,1,349,1070)" stroke-linecap="butt">
      <path fill="none" d="M-186.2134 -582.0322 L-99.2792 -582.0322 L-108.9386 -562.0322 L-99.2792 -542.0322 L-186.2134 -542.0322 L-195.8727 -562.0322 Z" fill-rule="evenodd" clip-path="url(#clipPath2)"/>
      <text x="-156.699" xml:space="preserve" y="-557.8779" clip-path="url(#clipPath2)" font-family="sans-serif" stroke="none">fail</text>
    </g>
    <g fill="rgb(255,204,0)" text-rendering="geometricPrecision" shape-rendering="geometricPrecision" transform="matrix(1,0,0,1,349,1070)" stroke="rgb(255,204,0)">
      <circle r="15" clip-path="url(#clipPath2)" cx="-237.5775" cy="-890.9381" stroke="none"/>
    </g>
    <g text-rendering="geometricPrecision" stroke-miterlimit="1.45" shape-rendering="geometricPrecision" transform="matrix(1,0,0,1,349,1070)" stroke-linecap="butt">
      <circle fill="none" r="15" clip-path="url(#clipPath2)" cx="-237.5775" cy="-890.9381"/>
    </g>
    <g fill="rgb(255,204,0)" text-rendering="geometricPrecision" shape-rendering="geometricPrecision" transform="matrix(1,0,0,1,349,1070)" stroke="rgb(255,204,0)">
      <circle r="15" clip-path="url(#clipPath2)" cx="-237.5775" cy="-365.4905" stroke="none"/>
    </g>
    <g text-rendering="geometricPrecision" stroke-miterlimit="1.45" shape-rendering="geometricPrecision" transform="matrix(1,0,0,1,349,1070)" stroke-linecap="butt">
      <circle fill="none" r="15" clip-path="url(#clipPath2)" cx="-237.5775" cy="-365.4905"/>
      <text x="-279.0267" xml:space="preserve" y="-333.3518" clip-path="url(#clipPath2)" font-family="sans-serif" stroke="none">Token passed</text>
      <text x="-331.0872" xml:space="preserve" y="-319.3831" clip-path="url(#clipPath2)" font-family="sans-serif" stroke="none">back to the surrounding B-Box,</text>
      <text x="-322.2689" xml:space="preserve" y="-305.4143" clip-path="url(#clipPath2)" font-family="sans-serif" stroke="none">possibly to try a next clause</text>
    </g>
    <g fill="rgb(153,153,153)" text-rendering="geometricPrecision" shape-rendering="geometricPrecision" transform="matrix(1,0,0,1,349,1070)" stroke="rgb(153,153,153)">
      <path d="M259.0114 -598.7006 L299.0114 -562.0322 L259.0114 -525.3638 L219.0114 -562.0322 Z" stroke="none" clip-path="url(#clipPath2)"/>
    </g>
    <g text-rendering="geometricPrecision" stroke-miterlimit="1.45" shape-rendering="geometricPrecision" transform="matrix(1,0,0,1,349,1070)" stroke-linecap="butt">
      <path fill="none" d="M259.0114 -598.7006 L299.0114 -562.0322 L259.0114 -525.3638 L219.0114 -562.0322 Z" clip-path="url(#clipPath2)"/>
      <text x="234.7301" xml:space="preserve" y="-557.8779" clip-path="url(#clipPath2)" font-family="sans-serif" stroke="none">bypass?</text>
    </g>
    <g fill="rgb(255,204,0)" text-rendering="geometricPrecision" shape-rendering="geometricPrecision" transform="matrix(1,0,0,1,349,1070)" stroke="rgb(255,204,0)">
      <path d="M409.3163 -717.322 L496.2507 -717.322 L505.9101 -697.3221 L496.2507 -677.3221 L409.3163 -677.3221 L418.9758 -697.3221 Z" fill-rule="evenodd" clip-path="url(#clipPath2)" stroke="none"/>
    </g>
    <g text-rendering="geometricPrecision" stroke-miterlimit="1.45" shape-rendering="geometricPrecision" transform="matrix(1,0,0,1,349,1070)" stroke-linecap="butt">
      <path fill="none" d="M409.3163 -717.322 L496.2507 -717.322 L505.9101 -697.3221 L496.2507 -677.3221 L409.3163 -677.3221 L418.9758 -697.3221 Z" fill-rule="evenodd" clip-path="url(#clipPath2)"/>
      <text x="447.3036" xml:space="preserve" y="-693.168" clip-path="url(#clipPath2)" font-family="sans-serif" stroke="none">call</text>
    </g>
    <g fill="rgb(255,204,0)" text-rendering="geometricPrecision" shape-rendering="geometricPrecision" transform="matrix(1,0,0,1,349,1070)" stroke="rgb(255,204,0)">
      <path d="M418.9758 -582.5321 L505.9101 -582.5321 L496.2507 -562.5321 L505.9101 -542.5322 L418.9758 -542.5322 L409.3163 -562.5321 Z" fill-rule="evenodd" clip-path="url(#clipPath2)" stroke="none"/>
    </g>
    <g text-rendering="geometricPrecision" stroke-miterlimit="1.45" shape-rendering="geometricPrecision" transform="matrix(1,0,0,1,349,1070)" stroke-linecap="butt">
      <path fill="none" d="M418.9758 -582.5321 L505.9101 -582.5321 L496.2507 -562.5321 L505.9101 -542.5322 L418.9758 -542.5322 L409.3163 -562.5321 Z" fill-rule="evenodd" clip-path="url(#clipPath2)"/>
      <text x="448.4902" xml:space="preserve" y="-558.3779" clip-path="url(#clipPath2)" font-family="sans-serif" stroke="none">fail</text>
    </g>
    <g fill="rgb(255,204,0)" text-rendering="geometricPrecision" shape-rendering="geometricPrecision" transform="matrix(1,0,0,1,349,1070)" stroke="rgb(255,204,0)">
      <path d="M668.5544 -716.3222 L755.4884 -716.3222 L765.1478 -696.8222 L755.4884 -677.3222 L668.5544 -677.3222 L678.2137 -696.8222 Z" fill-rule="evenodd" clip-path="url(#clipPath2)" stroke="none"/>
    </g>
    <g text-rendering="geometricPrecision" stroke-miterlimit="1.45" shape-rendering="geometricPrecision" transform="matrix(1,0,0,1,349,1070)" stroke-linecap="butt">
      <path fill="none" d="M668.5544 -716.3222 L755.4884 -716.3222 L765.1478 -696.8222 L755.4884 -677.3222 L668.5544 -677.3222 L678.2137 -696.8222 Z" fill-rule="evenodd" clip-path="url(#clipPath2)"/>
      <text x="705.5897" xml:space="preserve" y="-699.6524" clip-path="url(#clipPath2)" font-family="sans-serif" stroke="none">exit</text>
      <text x="687.452" xml:space="preserve" y="-685.6837" clip-path="url(#clipPath2)" font-family="sans-serif" stroke="none">(succeed)</text>
    </g>
    <g fill="rgb(255,204,0)" text-rendering="geometricPrecision" shape-rendering="geometricPrecision" transform="matrix(1,0,0,1,349,1070)" stroke="rgb(255,204,0)">
      <path d="M678.2137 -582.0322 L765.1478 -582.0322 L755.4884 -562.5322 L765.1478 -543.0322 L678.2137 -543.0322 L668.5544 -562.5322 Z" fill-rule="evenodd" clip-path="url(#clipPath2)" stroke="none"/>
    </g>
    <g text-rendering="geometricPrecision" stroke-miterlimit="1.45" shape-rendering="geometricPrecision" transform="matrix(1,0,0,1,349,1070)" stroke-linecap="butt">
      <path fill="none" d="M678.2137 -582.0322 L765.1478 -582.0322 L755.4884 -562.5322 L765.1478 -543.0322 L678.2137 -543.0322 L668.5544 -562.5322 Z" fill-rule="evenodd" clip-path="url(#clipPath2)"/>
      <text x="703.2137" xml:space="preserve" y="-558.3779" clip-path="url(#clipPath2)" font-family="sans-serif" stroke="none">redo</text>
    </g>
    <g fill="rgb(153,153,153)" text-rendering="geometricPrecision" shape-rendering="geometricPrecision" transform="matrix(1,0,0,1,349,1070)" stroke="rgb(153,153,153)">
      <path d="M895.5497 -599.2006 L935.5497 -562.5322 L895.5497 -525.8638 L855.5497 -562.5322 Z" stroke="none" clip-path="url(#clipPath2)"/>
    </g>
    <g text-rendering="geometricPrecision" stroke-miterlimit="1.45" shape-rendering="geometricPrecision" transform="matrix(1,0,0,1,349,1070)" stroke-linecap="butt">
      <path fill="none" d="M895.5497 -599.2006 L935.5497 -562.5322 L895.5497 -525.8638 L855.5497 -562.5322 Z" clip-path="url(#clipPath2)"/>
      <text x="871.2685" xml:space="preserve" y="-558.3779" clip-path="url(#clipPath2)" font-family="sans-serif" stroke="none">bypass?</text>
    </g>
    <g fill="rgb(153,153,153)" text-rendering="geometricPrecision" shape-rendering="geometricPrecision" transform="matrix(1,0,0,1,349,1070)" stroke="rgb(153,153,153)">
      <path d="M-18.1158 -733.4907 L21.8842 -696.8223 L-18.1158 -660.1539 L-58.1158 -696.8223 Z" stroke="none" clip-path="url(#clipPath2)"/>
    </g>
    <g text-rendering="geometricPrecision" stroke-miterlimit="1.45" shape-rendering="geometricPrecision" transform="matrix(1,0,0,1,349,1070)" stroke-linecap="butt">
      <path fill="none" d="M-18.1158 -733.4907 L21.8842 -696.8223 L-18.1158 -660.1539 L-58.1158 -696.8223 Z" clip-path="url(#clipPath2)"/>
      <text x="-49.6363" xml:space="preserve" y="-699.6524" clip-path="url(#clipPath2)" font-family="sans-serif" stroke="none">unification</text>
      <text x="-41.5855" xml:space="preserve" y="-685.6837" clip-path="url(#clipPath2)" font-family="sans-serif" stroke="none">success</text>
    </g>
    <g fill="url(#linearGradient6)" text-rendering="geometricPrecision" shape-rendering="geometricPrecision" transform="matrix(1,0,0,1,349,1070)" stroke="url(#linearGradient6)">
      <path d="M1075.7325 -761.8802 L1333.98 -761.8802 L1333.98 -521.5355 L1075.7325 -521.5355 Z" stroke="none" clip-path="url(#clipPath2)"/>
    </g>
    <g text-rendering="geometricPrecision" stroke-miterlimit="1.45" shape-rendering="geometricPrecision" transform="matrix(1,0,0,1,349,1070)" stroke-linecap="butt">
      <path fill="none" d="M1075.7325 -761.8802 L1333.98 -761.8802 L1333.98 -521.5355 L1075.7325 -521.5355 Z" clip-path="url(#clipPath2)"/>
    </g>
    <g fill="url(#linearGradient7)" text-rendering="geometricPrecision" shape-rendering="geometricPrecision" transform="matrix(1,0,0,1,349,1070)" stroke="url(#linearGradient7)">
      <path d="M1075.7325 -809.8802 L1333.98 -809.8802 L1333.98 -761.8802 L1075.7325 -761.8802 Z" stroke="none" clip-path="url(#clipPath2)"/>
    </g>
    <g text-rendering="geometricPrecision" stroke-miterlimit="1.45" shape-rendering="geometricPrecision" transform="matrix(1,0,0,1,349,1070)" stroke-linecap="butt">
      <path fill="none" d="M1075.7325 -809.8802 L1333.98 -809.8802 L1333.98 -761.8802 L1075.7325 -761.8802 Z" clip-path="url(#clipPath2)"/>
      <text x="1159.5427" y="-788.7103" clip-path="url(#clipPath2)" font-family="sans-serif" stroke="none" font-weight="bold" xml:space="preserve">Activation of </text>
      <text x="1146.4441" y="-774.7415" clip-path="url(#clipPath2)" font-family="sans-serif" stroke="none" font-weight="bold" xml:space="preserve">predicate P(N+1)</text>
    </g>
    <g fill="rgb(255,204,0)" text-rendering="geometricPrecision" shape-rendering="geometricPrecision" transform="matrix(1,0,0,1,349,1070)" stroke="rgb(255,204,0)">
      <path d="M1027.9297 -716.8223 L1114.864 -716.8223 L1124.5233 -696.8223 L1114.864 -676.8223 L1027.9297 -676.8223 L1037.5891 -696.8223 Z" fill-rule="evenodd" clip-path="url(#clipPath2)" stroke="none"/>
    </g>
    <g text-rendering="geometricPrecision" stroke-miterlimit="1.45" shape-rendering="geometricPrecision" transform="matrix(1,0,0,1,349,1070)" stroke-linecap="butt">
      <path fill="none" d="M1027.9297 -716.8223 L1114.864 -716.8223 L1124.5233 -696.8223 L1114.864 -676.8223 L1027.9297 -676.8223 L1037.5891 -696.8223 Z" fill-rule="evenodd" clip-path="url(#clipPath2)"/>
      <text x="1065.9166" xml:space="preserve" y="-692.668" clip-path="url(#clipPath2)" font-family="sans-serif" stroke="none">call</text>
    </g>
    <g fill="rgb(255,204,0)" text-rendering="geometricPrecision" shape-rendering="geometricPrecision" transform="matrix(1,0,0,1,349,1070)" stroke="rgb(255,204,0)">
      <path d="M1037.5891 -582.0322 L1124.5233 -582.0322 L1114.864 -562.0322 L1124.5233 -542.0322 L1037.5891 -542.0322 L1027.9297 -562.0322 Z" fill-rule="evenodd" clip-path="url(#clipPath2)" stroke="none"/>
    </g>
    <g text-rendering="geometricPrecision" stroke-miterlimit="1.45" shape-rendering="geometricPrecision" transform="matrix(1,0,0,1,349,1070)" stroke-linecap="butt">
      <path fill="none" d="M1037.5891 -582.0322 L1124.5233 -582.0322 L1114.864 -562.0322 L1124.5233 -542.0322 L1037.5891 -542.0322 L1027.9297 -562.0322 Z" fill-rule="evenodd" clip-path="url(#clipPath2)"/>
      <text x="1067.1031" xml:space="preserve" y="-557.8779" clip-path="url(#clipPath2)" font-family="sans-serif" stroke="none">fail</text>
    </g>
    <g fill="rgb(255,204,0)" text-rendering="geometricPrecision" shape-rendering="geometricPrecision" transform="matrix(1,0,0,1,349,1070)" stroke="rgb(255,204,0)">
      <path d="M1287.1681 -716.3223 L1374.1024 -716.3223 L1383.7617 -696.8223 L1374.1024 -677.3223 L1287.1681 -677.3223 L1296.8275 -696.8223 Z" fill-rule="evenodd" clip-path="url(#clipPath2)" stroke="none"/>
    </g>
    <g text-rendering="geometricPrecision" stroke-miterlimit="1.45" shape-rendering="geometricPrecision" transform="matrix(1,0,0,1,349,1070)" stroke-linecap="butt">
      <path fill="none" d="M1287.1681 -716.3223 L1374.1024 -716.3223 L1383.7617 -696.8223 L1374.1024 -677.3223 L1287.1681 -677.3223 L1296.8275 -696.8223 Z" fill-rule="evenodd" clip-path="url(#clipPath2)"/>
      <text x="1324.2026" xml:space="preserve" y="-699.6524" clip-path="url(#clipPath2)" font-family="sans-serif" stroke="none">exit</text>
      <text x="1306.0649" xml:space="preserve" y="-685.6837" clip-path="url(#clipPath2)" font-family="sans-serif" stroke="none">(succeed)</text>
    </g>
    <g fill="rgb(255,204,0)" text-rendering="geometricPrecision" shape-rendering="geometricPrecision" transform="matrix(1,0,0,1,349,1070)" stroke="rgb(255,204,0)">
      <path d="M1296.8275 -581.5322 L1383.7617 -581.5322 L1374.1024 -562.0322 L1383.7617 -542.5322 L1296.8275 -542.5322 L1287.1681 -562.0322 Z" fill-rule="evenodd" clip-path="url(#clipPath2)" stroke="none"/>
    </g>
    <g text-rendering="geometricPrecision" stroke-miterlimit="1.45" shape-rendering="geometricPrecision" transform="matrix(1,0,0,1,349,1070)" stroke-linecap="butt">
      <path fill="none" d="M1296.8275 -581.5322 L1383.7617 -581.5322 L1374.1024 -562.0322 L1383.7617 -542.5322 L1296.8275 -542.5322 L1287.1681 -562.0322 Z" fill-rule="evenodd" clip-path="url(#clipPath2)"/>
      <text x="1321.8267" xml:space="preserve" y="-557.8779" clip-path="url(#clipPath2)" font-family="sans-serif" stroke="none">redo</text>
    </g>
    <g fill="rgb(153,153,153)" text-rendering="geometricPrecision" shape-rendering="geometricPrecision" transform="matrix(1,0,0,1,349,1070)" stroke="rgb(153,153,153)">
      <path d="M1514.1627 -598.7006 L1554.1627 -562.0322 L1514.1627 -525.3638 L1474.1627 -562.0322 Z" stroke="none" clip-path="url(#clipPath2)"/>
    </g>
    <g text-rendering="geometricPrecision" stroke-miterlimit="1.45" shape-rendering="geometricPrecision" transform="matrix(1,0,0,1,349,1070)" stroke-linecap="butt">
      <path fill="none" d="M1514.1627 -598.7006 L1554.1627 -562.0322 L1514.1627 -525.3638 L1474.1627 -562.0322 Z" clip-path="url(#clipPath2)"/>
      <text x="1489.8815" xml:space="preserve" y="-557.8779" clip-path="url(#clipPath2)" font-family="sans-serif" stroke="none">bypass?</text>
    </g>
    <g fill="rgb(255,204,0)" text-rendering="geometricPrecision" shape-rendering="geometricPrecision" transform="matrix(1,0,0,1,349,1070)" stroke="rgb(255,204,0)">
      <circle r="15" clip-path="url(#clipPath2)" cx="1445.9143" cy="-890.9381" stroke="none"/>
    </g>
    <g text-rendering="geometricPrecision" stroke-miterlimit="1.45" shape-rendering="geometricPrecision" transform="matrix(1,0,0,1,349,1070)" stroke-linecap="butt">
      <circle fill="none" r="15" clip-path="url(#clipPath2)" cx="1445.9143" cy="-890.9381"/>
      <text x="1403.2991" xml:space="preserve" y="-928.7369" clip-path="url(#clipPath2)" font-family="sans-serif" stroke="none">Token passed back</text>
      <text x="1385.4778" xml:space="preserve" y="-914.7681" clip-path="url(#clipPath2)" font-family="sans-serif" stroke="none">to the surrounding B-Box</text>
    </g>
    <g fill="rgb(255,204,0)" text-rendering="geometricPrecision" shape-rendering="geometricPrecision" transform="matrix(1,0,0,1,349,1070)" stroke="rgb(255,204,0)">
      <circle r="15" clip-path="url(#clipPath2)" cx="1619.7855" cy="-890.9381" stroke="none"/>
    </g>
    <g text-rendering="geometricPrecision" stroke-miterlimit="1.45" shape-rendering="geometricPrecision" transform="matrix(1,0,0,1,349,1070)" stroke-linecap="butt">
      <circle fill="none" r="15" clip-path="url(#clipPath2)" cx="1619.7855" cy="-890.9381"/>
      <text x="1597.8773" xml:space="preserve" y="-928.7369" clip-path="url(#clipPath2)" font-family="sans-serif" stroke="none">Surrounding</text>
      <text x="1568.0648" xml:space="preserve" y="-914.7681" clip-path="url(#clipPath2)" font-family="sans-serif" stroke="none">B-Box requests a redo</text>
      <path fill="none" d="M715.3349 -786.3802 L859.0832 -786.3802" clip-path="url(#clipPath2)"/>
      <path d="M867.0832 -786.3802 L855.0832 -791.3802 L858.0832 -786.3802 L855.0832 -781.3802 Z" clip-path="url(#clipPath2)" stroke="none"/>
      <path fill="none" d="M287.4125 -785.9236 L449.1463 -786.1707" clip-path="url(#clipPath2)"/>
      <path d="M457.1463 -786.1829 L445.1387 -791.1646 L448.1463 -786.1692 L445.1539 -781.1646 Z" clip-path="url(#clipPath2)" stroke="none"/>
      <path fill="none" d="M108.6888 -785.8802 L222.569 -785.8802" clip-path="url(#clipPath2)"/>
      <path d="M230.569 -785.8802 L218.569 -790.8802 L221.569 -785.8802 L218.569 -780.8802 Z" clip-path="url(#clipPath2)" stroke="none"/>
      <path fill="none" d="M-237.5775 -875.938 L-237.5775 -706.8223 L-236.9525 -702.4473 L-235.0775 -699.3223 L-231.9525 -697.4473 L-227.5775 -696.8223 L-194.2045 -696.8223" clip-path="url(#clipPath2)"/>
      <path d="M-186.2045 -696.8223 L-198.2045 -701.8223 L-195.2045 -696.8223 L-198.2045 -691.8223 Z" clip-path="url(#clipPath2)" stroke="none"/>
      <text x="-297.7944" xml:space="preserve" y="-933.7194" clip-path="url(#clipPath2)" font-family="sans-serif" stroke="none">Token passed-in from</text>
      <text x="-300.2144" xml:space="preserve" y="-919.7507" clip-path="url(#clipPath2)" font-family="sans-serif" stroke="none">the surrounding B-Box</text>
      <path fill="none" d="M-195.8727 -562.0322 L-227.5775 -562.0322 L-231.9525 -561.4072 L-235.0775 -559.5322 L-236.9525 -556.4072 L-237.5775 -552.0322 L-237.5775 -388.4905" clip-path="url(#clipPath2)"/>
      <path d="M-237.5775 -380.4905 L-232.5775 -392.4905 L-237.5775 -389.4905 L-242.5775 -392.4905 Z" clip-path="url(#clipPath2)" stroke="none"/>
      <text x="-275.3265" xml:space="preserve" y="-512.5327" clip-path="url(#clipPath2)" font-family="sans-serif" stroke="none">Clause Head</text>
      <text x="-280.4505" xml:space="preserve" y="-498.5639" clip-path="url(#clipPath2)" font-family="sans-serif" stroke="none">does not unify</text>
      <path fill="none" stroke-dasharray="6,2" d="M117.7112 -676.8475 L129.8923 -638.6311 L134.0171 -627.589 L138.8036 -618.2681 L144.2518 -610.6686 L150.3618 -604.7902 L157.1335 -600.6332 L164.5669 -598.1974 L172.6621 -597.4828 L181.419 -598.4896 L189.4971 -600.1494 L198.2501 -601.5795 L206.3334 -602.1351 L213.7472 -601.8163 L220.4913 -600.623 L226.5658 -598.5552 L231.9707 -595.6129 L236.706 -591.7961 L238.0063 -590.2957 L238.0651 -590.2148" clip-path="url(#clipPath2)"/>
      <path stroke-dasharray="6,2" d="M243.0606 -583.9662 L239.4728 -596.4613 L237.4407 -590.9959 L231.662 -590.217 Z" clip-path="url(#clipPath2)" stroke="none"/>
    </g>
    <g text-rendering="geometricPrecision" stroke-miterlimit="1.45" shape-rendering="geometricPrecision" font-family="sans-serif" transform="matrix(0.7071,-0.7071,0.7071,0.7071,514.6515,510.9637)" stroke-linecap="butt">
      <text x="2" xml:space="preserve" y="13.1387" clip-path="url(#clipPath3)" stroke="none">flag for bypass</text>
    </g>
    <g text-rendering="geometricPrecision" stroke-miterlimit="1.45" shape-rendering="geometricPrecision" transform="matrix(1,0,0,1,349,1070)" stroke-linecap="butt">
      <path fill="none" d="M259.0114 -525.3854 L259.0114 -486.4533 L258.3864 -482.0783 L256.5114 -478.9533 L253.3864 -477.0783 L249.0114 -476.4533 L-227.5775 -476.4533 L-231.9525 -475.8283 L-235.0775 -473.9533 L-236.9525 -470.8283 L-237.5775 -466.4533 L-237.5775 -388.4905" clip-path="url(#clipPath2)"/>
      <path d="M-237.5775 -380.4905 L-232.5775 -392.4905 L-237.5775 -389.4905 L-242.5775 -392.4905 Z" clip-path="url(#clipPath2)" stroke="none"/>
      <text x="248.5289" xml:space="preserve" y="-507.2251" clip-path="url(#clipPath2)" font-family="sans-serif" stroke="none">Yes</text>
      <path fill="none" d="M159.5735 -696.892 L410.9394 -697.2549" clip-path="url(#clipPath2)"/>
      <path d="M418.9394 -697.2665 L406.9321 -702.2491 L409.9394 -697.2534 L406.9466 -692.2491 Z" clip-path="url(#clipPath2)" stroke="none"/>
      <path fill="none" d="M499.3604 -683.7808 L508.6656 -680.4736 L528.7219 -672.0492 L545.1315 -663.6248 L557.8947 -655.2004 L567.0111 -646.776 L572.481 -638.3516 L574.3043 -629.9272 L572.481 -621.5029 L567.0111 -613.0785 L557.8947 -604.6541 L545.1315 -596.2297 L528.7219 -587.8053 L511.0158 -580.3681 L510.9216 -580.3346" clip-path="url(#clipPath2)"/>
      <path d="M503.4333 -577.5193 L516.4252 -577.062 L511.8576 -580.6865 L512.9062 -586.4224 Z" clip-path="url(#clipPath2)" stroke="none"/>
      <path fill="none" d="M409.3689 -562.4107 L306.9133 -562.1528" clip-path="url(#clipPath2)"/>
      <path d="M298.9134 -562.1326 L310.9259 -557.1628 L307.9133 -562.1553 L310.9007 -567.1628 Z" clip-path="url(#clipPath2)" stroke="none"/>
      <path fill="none" d="M505.8723 -697.2292 L670.1942 -696.9124" clip-path="url(#clipPath2)"/>
      <path d="M678.1942 -696.8969 L666.2039 -701.92 L669.1942 -696.9143 L666.1846 -691.9201 Z" clip-path="url(#clipPath2)" stroke="none"/>
      <path fill="none" d="M675.5426 -576.6136 L668.2744 -579.3184 L649.1906 -587.7115 L633.5765 -596.1047 L621.4323 -604.4979 L612.7578 -612.891 L607.5531 -621.2841 L605.8182 -629.6772 L607.5531 -638.0704 L612.7578 -646.4635 L621.4323 -654.8566 L633.5765 -663.2498 L649.1906 -671.6429 L662.8849 -677.6658 L662.9787 -677.7007" clip-path="url(#clipPath2)"/>
      <path d="M670.3486 -680.8126 L657.3488 -680.751 L662.0574 -677.3117 L661.2387 -671.5385 Z" clip-path="url(#clipPath2)" stroke="none"/>
      <path fill="none" d="M668.5291 -562.5322 L504.2588 -562.5322" clip-path="url(#clipPath2)"/>
      <path d="M496.2588 -562.5322 L508.2588 -557.5322 L505.2588 -562.5322 L508.2588 -567.5322 Z" clip-path="url(#clipPath2)" stroke="none"/>
      <path fill="none" stroke-dasharray="6,2" d="M730.101 -677.303 L744.5969 -655.9474 L750.5718 -648.0626 L757.146 -641.1294 L764.3195 -635.1479 L772.0923 -630.1182 L780.4645 -626.0402 L789.4359 -622.9139 L799.0067 -620.7394 L809.1768 -619.5166 L818.4832 -618.8527 L828.546 -617.7774 L837.7949 -616.0455 L846.2299 -613.657 L853.851 -610.6119 L860.6582 -606.9102 L866.6516 -602.5518 L871.831 -597.5368 L876.0683 -592.0318 L876.1234 -591.9483" clip-path="url(#clipPath2)"/>
      <path stroke-dasharray="6,2" d="M880.542 -585.2793 L878.0822 -598.0444 L875.571 -592.7819 L869.7459 -592.5212 Z" clip-path="url(#clipPath2)" stroke="none"/>
    </g>
    <g text-rendering="geometricPrecision" stroke-miterlimit="1.45" shape-rendering="geometricPrecision" font-family="sans-serif" transform="matrix(0.7071,-0.7071,0.7071,0.7071,1118.2173,472.8448)" stroke-linecap="butt">
      <text x="2.6973" xml:space="preserve" y="13.1387" clip-path="url(#clipPath4)" stroke="none">flag for bypass</text>
      <text x="2" xml:space="preserve" y="27.1074" clip-path="url(#clipPath4)" stroke="none">if deterministic</text>
    </g>
    <g text-rendering="geometricPrecision" stroke-miterlimit="1.45" shape-rendering="geometricPrecision" transform="matrix(1,0,0,1,349,1070)" stroke-linecap="butt">
      <path fill="none" d="M895.5497 -525.8575 L895.5497 -484.4785 L894.9247 -480.1035 L893.0497 -476.9785 L889.9247 -475.1035 L885.5497 -474.4785 L375.7334 -474.4785 L371.3584 -475.1035 L368.2334 -476.9785 L366.3584 -480.1035 L365.7334 -484.4785 L365.7334 -552.0322 L365.1084 -556.4072 L363.2334 -559.5322 L360.1084 -561.4072 L355.7334 -562.0322 L307.0061 -562.0322" clip-path="url(#clipPath2)"/>
      <path d="M299.0061 -562.0322 L311.0061 -557.0322 L308.0061 -562.0322 L311.0061 -567.0322 Z" clip-path="url(#clipPath2)" stroke="none"/>
      <text x="885.0673" xml:space="preserve" y="-507.7251" clip-path="url(#clipPath2)" font-family="sans-serif" stroke="none">Yes</text>
      <path fill="none" d="M855.5433 -562.5322 L763.486 -562.5322" clip-path="url(#clipPath2)"/>
      <path d="M755.486 -562.5322 L767.486 -557.5322 L764.486 -562.5322 L767.486 -567.5322 Z" clip-path="url(#clipPath2)" stroke="none"/>
      <text x="802.1898" xml:space="preserve" y="-558.3779" clip-path="url(#clipPath2)" font-family="sans-serif" stroke="none">No</text>
      <path fill="none" d="M-99.2497 -696.8223 L-66.0885 -696.8223" clip-path="url(#clipPath2)"/>
      <path d="M-58.0885 -696.8223 L-70.0885 -701.8223 L-67.0885 -696.8223 L-70.0885 -691.8223 Z" clip-path="url(#clipPath2)" stroke="none"/>
      <path fill="none" d="M-18.1158 -660.1302 L-18.1158 -572.0322 L-18.7408 -567.6572 L-20.6158 -564.5322 L-23.7408 -562.6572 L-28.1158 -562.0322 L-100.9212 -562.0322" clip-path="url(#clipPath2)"/>
      <path d="M-108.9212 -562.0322 L-96.9212 -557.0322 L-99.9212 -562.0322 L-96.9212 -567.0322 Z" clip-path="url(#clipPath2)" stroke="none"/>
      <text x="-26.275" xml:space="preserve" y="-625.3979" clip-path="url(#clipPath2)" font-family="sans-serif" stroke="none">No</text>
      <path fill="none" d="M21.8664 -696.8223 L64.6784 -696.8223" clip-path="url(#clipPath2)"/>
      <path d="M72.6784 -696.8223 L60.6784 -701.8223 L63.6784 -696.8223 L60.6784 -691.8223 Z" clip-path="url(#clipPath2)" stroke="none"/>
      <text x="28.8842" xml:space="preserve" y="-692.668" clip-path="url(#clipPath2)" font-family="sans-serif" stroke="none">Yes</text>
      <path fill="none" d="M923.9809 -786.3342 L1067.6989 -786.1019" clip-path="url(#clipPath2)"/>
      <path d="M1075.6989 -786.089 L1063.7069 -791.1084 L1066.6989 -786.1035 L1063.6908 -781.1084 Z" clip-path="url(#clipPath2)" stroke="none"/>
      <path fill="none" d="M765.1511 -696.8223 L1029.6077 -696.8223" clip-path="url(#clipPath2)"/>
      <path d="M1037.6077 -696.8223 L1025.6077 -701.8223 L1028.6077 -696.8223 L1025.6077 -691.8223 Z" clip-path="url(#clipPath2)" stroke="none"/>
      <path fill="none" d="M1117.9734 -683.2808 L1127.2786 -679.9736 L1147.3348 -671.5492 L1163.7445 -663.1248 L1176.5076 -654.7004 L1185.624 -646.276 L1191.094 -637.8516 L1192.9172 -629.4272 L1191.094 -621.0029 L1185.624 -612.5785 L1176.5076 -604.1541 L1163.7445 -595.7297 L1147.3348 -587.3053 L1129.6288 -579.8681 L1129.5345 -579.8346" clip-path="url(#clipPath2)"/>
      <path d="M1122.0463 -577.0193 L1135.0382 -576.562 L1130.4706 -580.1865 L1131.5192 -585.9224 Z" clip-path="url(#clipPath2)" stroke="none"/>
      <path fill="none" d="M1028.0134 -562.1656 L943.4247 -562.3997" clip-path="url(#clipPath2)"/>
      <path d="M935.4247 -562.4218 L947.4108 -557.3887 L944.4246 -562.397 L947.4384 -567.3887 Z" clip-path="url(#clipPath2)" stroke="none"/>
      <path fill="none" d="M1124.5486 -696.8223 L1288.8187 -696.8223" clip-path="url(#clipPath2)"/>
      <path d="M1296.8187 -696.8223 L1284.8187 -701.8223 L1287.8187 -696.8223 L1284.8187 -691.8223 Z" clip-path="url(#clipPath2)" stroke="none"/>
      <path fill="none" d="M1294.1787 -576.1002 L1286.7065 -578.8809 L1267.5516 -587.3053 L1251.8794 -595.7297 L1239.6899 -604.1541 L1230.9833 -612.5785 L1225.7592 -621.0029 L1224.0178 -629.4272 L1225.7592 -637.8516 L1230.9833 -646.276 L1239.6899 -654.7004 L1251.8794 -663.1248 L1267.5516 -671.5492 L1281.4969 -677.6824 L1281.5907 -677.7172" clip-path="url(#clipPath2)"/>
      <path d="M1288.9651 -680.8185 L1275.9652 -680.7756 L1280.6688 -677.3295 L1279.8418 -671.5576 Z" clip-path="url(#clipPath2)" stroke="none"/>
      <path fill="none" d="M1287.142 -562.0322 L1122.8718 -562.0322" clip-path="url(#clipPath2)"/>
      <path d="M1114.8718 -562.0322 L1126.8718 -557.0322 L1123.8718 -562.0322 L1126.8718 -567.0322 Z" clip-path="url(#clipPath2)" stroke="none"/>
      <path fill="none" stroke-dasharray="6,2" d="M1348.6171 -677.3489 L1359.5581 -661.15 L1364.8794 -654.1927 L1370.9868 -647.9141 L1377.8802 -642.3141 L1385.5597 -637.3929 L1394.0251 -633.1502 L1403.2767 -629.5862 L1413.3143 -626.7009 L1424.1379 -624.4942 L1434.1084 -622.8344 L1444.8715 -620.7087 L1454.7273 -618.0665 L1463.6758 -614.9077 L1471.717 -611.2324 L1478.8511 -607.0404 L1485.0779 -602.3319 L1490.3973 -597.1068 L1494.6814 -591.5319 L1494.7365 -591.4484" clip-path="url(#clipPath2)"/>
      <path stroke-dasharray="6,2" d="M1499.1549 -584.7794 L1496.6953 -597.5446 L1494.1841 -592.2821 L1488.359 -592.0214 Z" clip-path="url(#clipPath2)" stroke="none"/>
    </g>
    <g text-rendering="geometricPrecision" stroke-miterlimit="1.45" shape-rendering="geometricPrecision" font-family="sans-serif" transform="matrix(0.7071,-0.7071,0.7071,0.7071,1733.5106,468.3652)" stroke-linecap="butt">
      <text x="2.6973" xml:space="preserve" y="13.1387" clip-path="url(#clipPath5)" stroke="none">flag for bypass</text>
      <text x="2" xml:space="preserve" y="27.1074" clip-path="url(#clipPath5)" stroke="none">if deterministic</text>
    </g>
    <g text-rendering="geometricPrecision" stroke-miterlimit="1.45" shape-rendering="geometricPrecision" transform="matrix(1,0,0,1,349,1070)" stroke-linecap="butt">
      <path fill="none" d="M1474.1564 -562.0322 L1382.099 -562.0322" clip-path="url(#clipPath2)"/>
      <path d="M1374.099 -562.0322 L1386.099 -557.0322 L1383.099 -562.0322 L1386.099 -567.0322 Z" clip-path="url(#clipPath2)" stroke="none"/>
      <text x="1420.8027" xml:space="preserve" y="-557.8779" clip-path="url(#clipPath2)" font-family="sans-serif" stroke="none">No</text>
      <path fill="none" d="M1514.1627 -525.3947 L1514.1627 -484.4785 L1513.5377 -480.1035 L1511.6627 -476.9785 L1508.5377 -475.1035 L1504.1627 -474.4785 L1003.7179 -474.4785 L999.3429 -475.1035 L996.2179 -476.9785 L994.3429 -480.1035 L993.7179 -484.4785 L993.7179 -552.5322 L993.0929 -556.9072 L991.2179 -560.0322 L988.0929 -561.9072 L983.7179 -562.5322 L943.5743 -562.5322" clip-path="url(#clipPath2)"/>
      <path d="M935.5743 -562.5322 L947.5743 -557.5322 L944.5743 -562.5322 L947.5743 -567.5322 Z" clip-path="url(#clipPath2)" stroke="none"/>
      <text x="1503.6803" xml:space="preserve" y="-507.2251" clip-path="url(#clipPath2)" font-family="sans-serif" stroke="none">Yes</text>
      <path fill="none" d="M1383.7593 -696.8223 L1435.9143 -696.8223 L1440.2893 -697.4473 L1443.4143 -699.3223 L1445.2893 -702.4473 L1445.9143 -706.8223 L1445.9143 -867.938" clip-path="url(#clipPath2)"/>
      <path d="M1445.9143 -875.938 L1440.9143 -863.938 L1445.9143 -866.938 L1450.9143 -863.938 Z" clip-path="url(#clipPath2)" stroke="none"/>
      <path fill="none" stroke-dasharray="6,2" d="M1450 -905.3728 L1456.7812 -929.3307 L1467.6482 -962.6042 L1478.5151 -990.7589 L1489.3821 -1013.7944 L1500.249 -1031.7109 L1511.116 -1044.5085 L1516.5494 -1048.9877 L1521.9829 -1052.187 L1527.4164 -1054.1067 L1532.8499 -1054.7466 L1538.2833 -1054.1067 L1543.7168 -1052.187 L1549.1503 -1048.9877 L1554.5837 -1044.5085 L1565.4507 -1031.7109 L1576.3177 -1013.7944 L1587.1847 -990.7589 L1598.0516 -962.6042 L1608.9186 -929.3307 L1613.521 -913.0704" clip-path="url(#clipPath2)"/>
      <path stroke-dasharray="6,2" d="M1615.6998 -905.3728 L1617.2426 -918.2809 L1613.2487 -914.0326 L1607.6206 -915.5574 Z" clip-path="url(#clipPath2)" stroke="none"/>
      <path fill="none" d="M1619.7855 -875.938 L1619.7855 -572.0322 L1619.1605 -567.6572 L1617.2855 -564.5322 L1614.1605 -562.6572 L1609.7855 -562.0322 L1562.1581 -562.0322" clip-path="url(#clipPath2)"/>
      <path d="M1554.1581 -562.0322 L1566.1581 -557.0322 L1563.1581 -562.0322 L1566.1581 -567.0322 Z" clip-path="url(#clipPath2)" stroke="none"/>
    </g>
  </g>
</svg>
