<?xml version="1.0" encoding="UTF-8"?><svg xmlns="http://www.w3.org/2000/svg" xmlns:xlink="http://www.w3.org/1999/xlink" fill-opacity="1" color-rendering="auto" color-interpolation="auto" text-rendering="auto" stroke="black" stroke-linecap="square" width="808" stroke-miterlimit="10" shape-rendering="auto" stroke-opacity="1" fill="black" stroke-dasharray="none" font-weight="normal" stroke-width="1" height="421" font-family="'Dialog'" font-style="normal" stroke-linejoin="miter" font-size="12px" stroke-dashoffset="0" image-rendering="auto">
  <!--Generated by ySVG 2.5-->
  <defs id="genericDefs"/>
  <g>
    <defs id="defs1">
      <linearGradient x1="593" gradientUnits="userSpaceOnUse" x2="673" y1="452" y2="492" id="linearGradient1" spreadMethod="reflect">
        <stop stop-opacity="1" stop-color="rgb(255,255,153)" offset="0%"/>
        <stop stop-opacity="1" stop-color="rgb(255,255,153)" offset="100%"/>
      </linearGradient>
      <linearGradient x1="638" gradientUnits="userSpaceOnUse" x2="718" y1="532" y2="572" id="linearGradient2" spreadMethod="reflect">
        <stop stop-opacity="1" stop-color="rgb(255,255,153)" offset="0%"/>
        <stop stop-opacity="1" stop-color="rgb(255,255,153)" offset="100%"/>
      </linearGradient>
      <linearGradient x1="686" gradientUnits="userSpaceOnUse" x2="766" y1="612" y2="652" id="linearGradient3" spreadMethod="reflect">
        <stop stop-opacity="1" stop-color="rgb(255,255,153)" offset="0%"/>
        <stop stop-opacity="1" stop-color="rgb(255,255,153)" offset="100%"/>
      </linearGradient>
      <linearGradient x1="543" gradientUnits="userSpaceOnUse" x2="623" y1="532" y2="572" id="linearGradient4" spreadMethod="reflect">
        <stop stop-opacity="1" stop-color="silver" offset="0%"/>
        <stop stop-opacity="1" stop-color="silver" offset="100%"/>
      </linearGradient>
      <linearGradient x1="593" gradientUnits="userSpaceOnUse" x2="673" y1="612" y2="652" id="linearGradient5" spreadMethod="reflect">
        <stop stop-opacity="1" stop-color="silver" offset="0%"/>
        <stop stop-opacity="1" stop-color="silver" offset="100%"/>
      </linearGradient>
      <linearGradient x1="643" gradientUnits="userSpaceOnUse" x2="723" y1="692" y2="732" id="linearGradient6" spreadMethod="reflect">
        <stop stop-opacity="1" stop-color="silver" offset="0%"/>
        <stop stop-opacity="1" stop-color="silver" offset="100%"/>
      </linearGradient>
      <linearGradient x1="950" gradientUnits="userSpaceOnUse" x2="1030" y1="452" y2="492" id="linearGradient7" spreadMethod="reflect">
        <stop stop-opacity="1" stop-color="rgb(255,255,153)" offset="0%"/>
        <stop stop-opacity="1" stop-color="rgb(255,255,153)" offset="100%"/>
      </linearGradient>
      <linearGradient x1="995" gradientUnits="userSpaceOnUse" x2="1075" y1="532" y2="572" id="linearGradient8" spreadMethod="reflect">
        <stop stop-opacity="1" stop-color="rgb(255,255,153)" offset="0%"/>
        <stop stop-opacity="1" stop-color="rgb(255,255,153)" offset="100%"/>
      </linearGradient>
      <linearGradient x1="1043" gradientUnits="userSpaceOnUse" x2="1123" y1="612" y2="652" id="linearGradient9" spreadMethod="reflect">
        <stop stop-opacity="1" stop-color="rgb(255,255,153)" offset="0%"/>
        <stop stop-opacity="1" stop-color="rgb(255,255,153)" offset="100%"/>
      </linearGradient>
      <linearGradient x1="900" gradientUnits="userSpaceOnUse" x2="980" y1="532" y2="572" id="linearGradient10" spreadMethod="reflect">
        <stop stop-opacity="1" stop-color="silver" offset="0%"/>
        <stop stop-opacity="1" stop-color="silver" offset="100%"/>
      </linearGradient>
      <linearGradient x1="950" gradientUnits="userSpaceOnUse" x2="1030" y1="612" y2="652" id="linearGradient11" spreadMethod="reflect">
        <stop stop-opacity="1" stop-color="silver" offset="0%"/>
        <stop stop-opacity="1" stop-color="silver" offset="100%"/>
      </linearGradient>
      <linearGradient x1="1000" gradientUnits="userSpaceOnUse" x2="1080" y1="692" y2="732" id="linearGradient12" spreadMethod="reflect">
        <stop stop-opacity="1" stop-color="silver" offset="0%"/>
        <stop stop-opacity="1" stop-color="silver" offset="100%"/>
      </linearGradient>
      <linearGradient x1="425" gradientUnits="userSpaceOnUse" x2="505" y1="416" y2="456" id="linearGradient13" spreadMethod="reflect">
        <stop stop-opacity="1" stop-color="rgb(153,204,255)" offset="0%"/>
        <stop stop-opacity="1" stop-color="rgb(153,204,255)" offset="100%"/>
      </linearGradient>
      <linearGradient x1="818" gradientUnits="userSpaceOnUse" x2="898" y1="416" y2="456" id="linearGradient14" spreadMethod="reflect">
        <stop stop-opacity="1" stop-color="rgb(153,204,255)" offset="0%"/>
        <stop stop-opacity="1" stop-color="rgb(153,204,255)" offset="100%"/>
      </linearGradient>
      <clipPath clipPathUnits="userSpaceOnUse" id="clipPath1">
        <path d="M0 0 L808 0 L808 421 L0 421 L0 0 Z"/>
      </clipPath>
      <clipPath clipPathUnits="userSpaceOnUse" id="clipPath2">
        <path d="M410 326 L1218 326 L1218 747 L410 747 L410 326 Z"/>
      </clipPath>
    </defs>
    <g fill="white" text-rendering="geometricPrecision" shape-rendering="geometricPrecision" transform="translate(-410,-326)" stroke="white">
      <rect x="410" width="808" height="421" y="326" clip-path="url(#clipPath2)" stroke="none"/>
    </g>
    <g fill="url(#linearGradient1)" text-rendering="geometricPrecision" shape-rendering="geometricPrecision" transform="matrix(1,0,0,1,-410,-326)" stroke="url(#linearGradient1)">
      <path d="M593 452 L673 452 L673 492 L593 492 Z" stroke="none" clip-path="url(#clipPath2)"/>
    </g>
    <g text-rendering="geometricPrecision" stroke-miterlimit="1.45" shape-rendering="geometricPrecision" transform="matrix(1,0,0,1,-410,-326)" stroke-linecap="butt">
      <path fill="none" d="M593 452 L673 452 L673 492 L593 492 Z" clip-path="url(#clipPath2)"/>
      <text x="626.2969" xml:space="preserve" y="476.1543" clip-path="url(#clipPath2)" font-family="sans-serif" stroke="none">[|]</text>
    </g>
    <g fill="url(#linearGradient2)" text-rendering="geometricPrecision" shape-rendering="geometricPrecision" transform="matrix(1,0,0,1,-410,-326)" stroke="url(#linearGradient2)">
      <path d="M638 532 L718 532 L718 572 L638 572 Z" stroke="none" clip-path="url(#clipPath2)"/>
    </g>
    <g text-rendering="geometricPrecision" stroke-miterlimit="1.45" shape-rendering="geometricPrecision" transform="matrix(1,0,0,1,-410,-326)" stroke-linecap="butt">
      <path fill="none" d="M638 532 L718 532 L718 572 L638 572 Z" clip-path="url(#clipPath2)"/>
      <text x="671.2969" xml:space="preserve" y="556.1543" clip-path="url(#clipPath2)" font-family="sans-serif" stroke="none">[|]</text>
    </g>
    <g fill="url(#linearGradient3)" text-rendering="geometricPrecision" shape-rendering="geometricPrecision" transform="matrix(1,0,0,1,-410,-326)" stroke="url(#linearGradient3)">
      <path d="M686 612 L766 612 L766 652 L686 652 Z" stroke="none" clip-path="url(#clipPath2)"/>
    </g>
    <g text-rendering="geometricPrecision" stroke-miterlimit="1.45" shape-rendering="geometricPrecision" transform="matrix(1,0,0,1,-410,-326)" stroke-linecap="butt">
      <path fill="none" d="M686 612 L766 612 L766 652 L686 652 Z" clip-path="url(#clipPath2)"/>
      <text x="719.2969" xml:space="preserve" y="636.1543" clip-path="url(#clipPath2)" font-family="sans-serif" stroke="none">[|]</text>
    </g>
    <g fill="url(#linearGradient4)" text-rendering="geometricPrecision" shape-rendering="geometricPrecision" transform="matrix(1,0,0,1,-410,-326)" stroke="url(#linearGradient4)">
      <path d="M543 532 L623 532 L623 572 L543 572 Z" stroke="none" clip-path="url(#clipPath2)"/>
    </g>
    <g text-rendering="geometricPrecision" stroke-miterlimit="1.45" shape-rendering="geometricPrecision" transform="matrix(1,0,0,1,-410,-326)" stroke-linecap="butt">
      <path fill="none" d="M543 532 L623 532 L623 572 L543 572 Z" clip-path="url(#clipPath2)"/>
      <text x="579.1826" xml:space="preserve" y="556.1543" clip-path="url(#clipPath2)" font-family="sans-serif" stroke="none">1</text>
    </g>
    <g fill="url(#linearGradient5)" text-rendering="geometricPrecision" shape-rendering="geometricPrecision" transform="matrix(1,0,0,1,-410,-326)" stroke="url(#linearGradient5)">
      <path d="M593 612 L673 612 L673 652 L593 652 Z" stroke="none" clip-path="url(#clipPath2)"/>
    </g>
    <g text-rendering="geometricPrecision" stroke-miterlimit="1.45" shape-rendering="geometricPrecision" transform="matrix(1,0,0,1,-410,-326)" stroke-linecap="butt">
      <path fill="none" d="M593 612 L673 612 L673 652 L593 652 Z" clip-path="url(#clipPath2)"/>
      <text x="629.1826" xml:space="preserve" y="636.1543" clip-path="url(#clipPath2)" font-family="sans-serif" stroke="none">2</text>
    </g>
    <g fill="url(#linearGradient6)" text-rendering="geometricPrecision" shape-rendering="geometricPrecision" transform="matrix(1,0,0,1,-410,-326)" stroke="url(#linearGradient6)">
      <path d="M643 692 L723 692 L723 732 L643 732 Z" stroke="none" clip-path="url(#clipPath2)"/>
    </g>
    <g text-rendering="geometricPrecision" stroke-miterlimit="1.45" shape-rendering="geometricPrecision" transform="matrix(1,0,0,1,-410,-326)" stroke-linecap="butt">
      <path fill="none" d="M643 692 L723 692 L723 732 L643 732 Z" clip-path="url(#clipPath2)"/>
      <text x="679.1826" xml:space="preserve" y="716.1543" clip-path="url(#clipPath2)" font-family="sans-serif" stroke="none">3</text>
    </g>
    <g fill="url(#linearGradient7)" text-rendering="geometricPrecision" shape-rendering="geometricPrecision" transform="matrix(1,0,0,1,-410,-326)" stroke="url(#linearGradient7)">
      <path d="M950 452 L1030 452 L1030 492 L950 492 Z" stroke="none" clip-path="url(#clipPath2)"/>
    </g>
    <g text-rendering="geometricPrecision" stroke-miterlimit="1.45" shape-rendering="geometricPrecision" transform="matrix(1,0,0,1,-410,-326)" stroke-linecap="butt">
      <path fill="none" d="M950 452 L1030 452 L1030 492 L950 492 Z" clip-path="url(#clipPath2)"/>
      <text x="983.2969" xml:space="preserve" y="476.1543" clip-path="url(#clipPath2)" font-family="sans-serif" stroke="none">[|]</text>
    </g>
    <g fill="url(#linearGradient8)" text-rendering="geometricPrecision" shape-rendering="geometricPrecision" transform="matrix(1,0,0,1,-410,-326)" stroke="url(#linearGradient8)">
      <path d="M995 532 L1075 532 L1075 572 L995 572 Z" stroke="none" clip-path="url(#clipPath2)"/>
    </g>
    <g text-rendering="geometricPrecision" stroke-miterlimit="1.45" shape-rendering="geometricPrecision" transform="matrix(1,0,0,1,-410,-326)" stroke-linecap="butt">
      <path fill="none" d="M995 532 L1075 532 L1075 572 L995 572 Z" clip-path="url(#clipPath2)"/>
      <text x="1028.2969" xml:space="preserve" y="556.1543" clip-path="url(#clipPath2)" font-family="sans-serif" stroke="none">[|]</text>
    </g>
    <g fill="url(#linearGradient9)" text-rendering="geometricPrecision" shape-rendering="geometricPrecision" transform="matrix(1,0,0,1,-410,-326)" stroke="url(#linearGradient9)">
      <path d="M1043 612 L1123 612 L1123 652 L1043 652 Z" stroke="none" clip-path="url(#clipPath2)"/>
    </g>
    <g text-rendering="geometricPrecision" stroke-miterlimit="1.45" shape-rendering="geometricPrecision" transform="matrix(1,0,0,1,-410,-326)" stroke-linecap="butt">
      <path fill="none" d="M1043 612 L1123 612 L1123 652 L1043 652 Z" clip-path="url(#clipPath2)"/>
      <text x="1076.2969" xml:space="preserve" y="636.1543" clip-path="url(#clipPath2)" font-family="sans-serif" stroke="none">[|]</text>
    </g>
    <g fill="url(#linearGradient10)" text-rendering="geometricPrecision" shape-rendering="geometricPrecision" transform="matrix(1,0,0,1,-410,-326)" stroke="url(#linearGradient10)">
      <path d="M900 532 L980 532 L980 572 L900 572 Z" stroke="none" clip-path="url(#clipPath2)"/>
    </g>
    <g text-rendering="geometricPrecision" stroke-miterlimit="1.45" shape-rendering="geometricPrecision" transform="matrix(1,0,0,1,-410,-326)" stroke-linecap="butt">
      <path fill="none" d="M900 532 L980 532 L980 572 L900 572 Z" clip-path="url(#clipPath2)"/>
      <text x="936.3232" xml:space="preserve" y="556.1543" clip-path="url(#clipPath2)" font-family="sans-serif" stroke="none">a</text>
    </g>
    <g fill="url(#linearGradient11)" text-rendering="geometricPrecision" shape-rendering="geometricPrecision" transform="matrix(1,0,0,1,-410,-326)" stroke="url(#linearGradient11)">
      <path d="M950 612 L1030 612 L1030 652 L950 652 Z" stroke="none" clip-path="url(#clipPath2)"/>
    </g>
    <g text-rendering="geometricPrecision" stroke-miterlimit="1.45" shape-rendering="geometricPrecision" transform="matrix(1,0,0,1,-410,-326)" stroke-linecap="butt">
      <path fill="none" d="M950 612 L1030 612 L1030 652 L950 652 Z" clip-path="url(#clipPath2)"/>
      <text x="986.1914" xml:space="preserve" y="636.1543" clip-path="url(#clipPath2)" font-family="sans-serif" stroke="none">b</text>
    </g>
    <g fill="url(#linearGradient12)" text-rendering="geometricPrecision" shape-rendering="geometricPrecision" transform="matrix(1,0,0,1,-410,-326)" stroke="url(#linearGradient12)">
      <path d="M1000 692 L1080 692 L1080 732 L1000 732 Z" stroke="none" clip-path="url(#clipPath2)"/>
    </g>
    <g text-rendering="geometricPrecision" stroke-miterlimit="1.45" shape-rendering="geometricPrecision" transform="matrix(1,0,0,1,-410,-326)" stroke-linecap="butt">
      <path fill="none" d="M1000 692 L1080 692 L1080 732 L1000 732 Z" clip-path="url(#clipPath2)"/>
      <text x="1036.7012" xml:space="preserve" y="716.1543" clip-path="url(#clipPath2)" font-family="sans-serif" stroke="none">c</text>
    </g>
    <g fill="url(#linearGradient13)" text-rendering="geometricPrecision" shape-rendering="geometricPrecision" transform="matrix(1,0,0,1,-410,-326)" stroke="url(#linearGradient13)">
      <path d="M425 421 Q445 431 465 421 Q485 411 505 421 L505 451 Q485 441 465 451 Q445 461 425 451 Z" stroke="none" clip-path="url(#clipPath2)"/>
    </g>
    <g text-rendering="geometricPrecision" stroke-miterlimit="1.45" shape-rendering="geometricPrecision" transform="matrix(1,0,0,1,-410,-326)" stroke-linecap="butt">
      <path fill="none" d="M425 421 Q445 431 465 421 Q485 411 505 421 L505 451 Q485 441 465 451 Q445 461 425 451 Z" clip-path="url(#clipPath2)"/>
      <text x="460.8955" xml:space="preserve" y="440.1543" clip-path="url(#clipPath2)" font-family="sans-serif" stroke="none">A</text>
    </g>
    <g fill="url(#linearGradient14)" text-rendering="geometricPrecision" shape-rendering="geometricPrecision" transform="matrix(1,0,0,1,-410,-326)" stroke="url(#linearGradient14)">
      <path d="M818 421 Q838 431 858 421 Q878 411 898 421 L898 451 Q878 441 858 451 Q838 461 818 451 Z" stroke="none" clip-path="url(#clipPath2)"/>
    </g>
    <g text-rendering="geometricPrecision" stroke-miterlimit="1.45" shape-rendering="geometricPrecision" transform="matrix(1,0,0,1,-410,-326)" stroke-linecap="butt">
      <path fill="none" d="M818 421 Q838 431 858 421 Q878 411 898 421 L898 451 Q878 441 858 451 Q838 461 818 451 Z" clip-path="url(#clipPath2)"/>
      <text x="853.8838" xml:space="preserve" y="440.1543" clip-path="url(#clipPath2)" font-family="sans-serif" stroke="none">B</text>
    </g>
    <g text-rendering="geometricPrecision" stroke-miterlimit="1.45" shape-rendering="geometricPrecision" transform="matrix(1,0,0,1,-410,-326)" stroke-linecap="butt">
      <path fill="none" d="M644.228 491.9609 L662.8151 525.0046" clip-path="url(#clipPath2)"/>
    </g>
    <g text-rendering="geometricPrecision" stroke-miterlimit="1.45" shape-rendering="geometricPrecision" transform="matrix(1,0,0,1,-410,-326)" stroke-linecap="butt">
      <path d="M666.7372 531.9772 L665.2119 519.067 L662.3248 524.133 L656.4962 523.9695 Z" stroke="none" clip-path="url(#clipPath2)"/>
      <path fill="none" d="M689.9766 571.9609 L709.8704 605.1172" clip-path="url(#clipPath2)"/>
      <path d="M713.9863 611.9772 L712.0999 599.1147 L709.3559 604.2597 L703.525 604.2597 Z" clip-path="url(#clipPath2)" stroke="none"/>
      <path fill="none" d="M620.5244 491.9609 L599.7542 525.1932" clip-path="url(#clipPath2)"/>
      <path d="M595.5142 531.9772 L606.1142 524.4512 L600.2842 524.3452 L597.6342 519.1512 Z" clip-path="url(#clipPath2)" stroke="none"/>
      <path fill="none" d="M666.772 571.9609 L648.1849 605.0046" clip-path="url(#clipPath2)"/>
      <path d="M644.2628 611.9772 L654.5038 603.9695 L648.6752 604.133 L645.7881 599.067 Z" clip-path="url(#clipPath2)" stroke="none"/>
      <path fill="none" d="M715.271 651.9609 L697.5498 684.9306" clip-path="url(#clipPath2)"/>
      <path d="M693.7623 691.9772 L703.8477 683.7745 L698.0233 684.0498 L695.0394 679.0401 Z" clip-path="url(#clipPath2)" stroke="none"/>
      <path fill="none" d="M734.9912 652.0054 L748 680.95 L752.5211 690.3367 L757.0844 698.4719 L761.6898 705.3555 L766.3375 710.9875 L771.0273 715.368 L775.7593 718.4969 L780.5336 720.3742 L785.35 721 L789.65 721 L792.0178 720.6256 L794.2836 719.5023 L796.4474 717.6302 L798.5094 715.0094 L802.3273 707.5211 L805.7375 697.0375 L808.7399 683.5586 L811.3344 667.0844 L813.5211 647.6149 L815.3 625.15 L816.7 603.85 L817.7565 592.1799 L819.3508 581.132 L821.483 570.7064 L824.1531 560.9031 L827.3611 551.722 L831.1071 543.1633 L835.3908 535.2267 L840.2125 527.9125 L845.5721 521.2205 L851.4695 515.1508 L857.9049 509.7033 L864.8781 504.8781 L872.3893 500.6752 L880.4383 497.0945 L889.0252 494.1361 L898.15 491.8 L942.2195 482.3" clip-path="url(#clipPath2)"/>
      <path d="M950.0399 480.6142 L937.2557 478.2552 L941.2419 482.5107 L939.363 488.0306 Z" clip-path="url(#clipPath2)" stroke="none"/>
      <path fill="none" d="M1001.228 491.9609 L1019.8151 525.0046" clip-path="url(#clipPath2)"/>
      <path d="M1023.7372 531.9772 L1022.2119 519.067 L1019.3248 524.133 L1013.4962 523.9695 Z" clip-path="url(#clipPath2)" stroke="none"/>
      <path fill="none" d="M1046.9766 571.9609 L1066.8704 605.1172" clip-path="url(#clipPath2)"/>
      <path d="M1070.9863 611.9772 L1069.0999 599.1147 L1066.3558 604.2597 L1060.5249 604.2597 Z" clip-path="url(#clipPath2)" stroke="none"/>
      <path fill="none" d="M1102.4146 651.9942 L1119.85 669.95 L1127.2891 677.0164 L1134.5312 682.6906 L1141.5765 686.9727 L1148.425 689.8625 L1155.0765 691.3602 L1161.5312 691.4656 L1167.7891 690.1789 L1173.85 687.5 L1179.15 684.5 L1182.0381 682.3572 L1184.7399 679.3039 L1187.2552 675.34 L1189.5844 670.4656 L1193.6836 657.9852 L1197.0375 641.8625 L1199.6461 622.0977 L1201.5094 598.6906 L1202.6273 571.6414 L1203 540.95 L1203 512.05 L1202.3831 496.1963 L1200.532 481.1476 L1197.447 466.9041 L1193.1282 453.4656 L1187.5752 440.8322 L1180.7883 429.0039 L1172.7673 417.9807 L1163.5125 407.7625 L1153.0237 398.3494 L1141.3008 389.7414 L1128.344 381.9385 L1114.1532 374.9406 L1098.7284 368.7479 L1082.0696 363.3602 L1064.1768 358.7775 L1045.05 355 L1009.95 349 L990.4382 345.9941 L971.3906 343.7266 L952.807 342.1973 L934.6875 341.4062 L917.032 341.3535 L899.8406 342.0391 L883.1133 343.4629 L866.85 345.625 L851.0508 348.5254 L835.7156 352.1641 L820.8445 356.541 L806.4375 361.6562 L792.4946 367.5098 L779.0156 374.1016 L766.0008 381.4316 L753.45 389.5 L668.8011 447.4787" clip-path="url(#clipPath2)"/>
      <path d="M662.2009 451.9994 L674.9266 449.3434 L669.6261 446.9136 L669.2758 441.0932 Z" clip-path="url(#clipPath2)" stroke="none"/>
      <path fill="none" d="M977.5244 491.9609 L956.7542 525.1932" clip-path="url(#clipPath2)"/>
      <path d="M952.5142 531.9772 L963.1142 524.4512 L957.2842 524.3452 L954.6342 519.1512 Z" clip-path="url(#clipPath2)" stroke="none"/>
      <path fill="none" d="M1023.772 571.9609 L1005.1849 605.0046" clip-path="url(#clipPath2)"/>
      <path d="M1001.2628 611.9772 L1011.5038 603.9695 L1005.6752 604.133 L1002.7881 599.067 Z" clip-path="url(#clipPath2)" stroke="none"/>
      <path fill="none" d="M1072.271 651.9609 L1054.5498 684.9306" clip-path="url(#clipPath2)"/>
      <path d="M1050.7622 691.9772 L1060.8477 683.7745 L1055.0232 684.0497 L1052.0394 679.04 Z" clip-path="url(#clipPath2)" stroke="none"/>
      <path fill="none" d="M505.0002 436.1117 L508.9867 436.2531 L515.3219 437.0125 L520.8555 438.2781 L525.5875 440.05 L529.5179 442.3281 L532.6469 445.1125 L534.9742 448.4031 L536.5 452.2 L537.5 455.8 L539.1945 459.5969 L542.0281 462.8875 L546.0008 465.6719 L551.1125 467.95 L557.3633 469.7219 L564.7531 470.9875 L573.282 471.7469 L582.95 472 L584.9698 472" clip-path="url(#clipPath2)"/>
      <path d="M592.9698 472 L580.9698 467 L583.9698 472 L580.9698 477 Z" clip-path="url(#clipPath2)" stroke="none"/>
      <path fill="none" d="M898.0139 436.0524 L903.8125 436.2531 L910 437.0125 L915.0625 438.2781 L919 440.05 L921.8125 442.3281 L923.5 445.1125 L924.0625 448.4031 L923.5 452.2 L922.5 455.8 L921.9515 459.5969 L922.5563 462.8875 L924.3141 465.6719 L927.225 467.95 L931.2891 469.7219 L936.5063 470.9875 L942.0253 471.6454 L942.1252 471.6487" clip-path="url(#clipPath2)"/>
      <path d="M950.1179 471.9914 L938.3431 466.482 L941.1261 471.6059 L937.9147 476.4728 Z" clip-path="url(#clipPath2)" stroke="none"/>
    </g>
  </g>
</svg>
