<?xml version="1.0" encoding="UTF-8"?><svg xmlns="http://www.w3.org/2000/svg" xmlns:xlink="http://www.w3.org/1999/xlink" fill-opacity="1" color-rendering="auto" color-interpolation="auto" text-rendering="auto" stroke="black" stroke-linecap="square" width="780" stroke-miterlimit="10" shape-rendering="auto" stroke-opacity="1" fill="black" stroke-dasharray="none" font-weight="normal" stroke-width="1" height="1074" font-family="'Dialog'" font-style="normal" stroke-linejoin="miter" font-size="12px" stroke-dashoffset="0" image-rendering="auto">
  <!--Generated by ySVG 2.5-->
  <defs id="genericDefs"/>
  <g>
    <defs id="defs1">
      <linearGradient x1="658.4425" gradientUnits="userSpaceOnUse" x2="850.9425" y1="48.6198" y2="96.6198" id="linearGradient1" spreadMethod="reflect">
        <stop stop-opacity="1" stop-color="silver" offset="0%"/>
        <stop stop-opacity="1" stop-color="silver" offset="100%"/>
      </linearGradient>
      <linearGradient x1="658.4425" gradientUnits="userSpaceOnUse" x2="850.9425" y1="344.6198" y2="392.6198" id="linearGradient2" spreadMethod="reflect">
        <stop stop-opacity="1" stop-color="silver" offset="0%"/>
        <stop stop-opacity="1" stop-color="silver" offset="100%"/>
      </linearGradient>
      <linearGradient x1="658.4425" gradientUnits="userSpaceOnUse" x2="850.9425" y1="640.6198" y2="688.6198" id="linearGradient3" spreadMethod="reflect">
        <stop stop-opacity="1" stop-color="silver" offset="0%"/>
        <stop stop-opacity="1" stop-color="silver" offset="100%"/>
      </linearGradient>
      <linearGradient x1="995.2616" gradientUnits="userSpaceOnUse" x2="1178.2616" y1="198.9948" y2="238.9948" id="linearGradient4" spreadMethod="reflect">
        <stop stop-opacity="1" stop-color="rgb(232,238,247)" offset="0%"/>
        <stop stop-opacity="1" stop-color="rgb(183,201,227)" offset="100%"/>
      </linearGradient>
      <linearGradient x1="995.2616" gradientUnits="userSpaceOnUse" x2="1178.2616" y1="496.6198" y2="536.6198" id="linearGradient5" spreadMethod="reflect">
        <stop stop-opacity="1" stop-color="rgb(232,238,247)" offset="0%"/>
        <stop stop-opacity="1" stop-color="rgb(183,201,227)" offset="100%"/>
      </linearGradient>
      <linearGradient x1="995.2616" gradientUnits="userSpaceOnUse" x2="1178.2616" y1="792.6198" y2="832.6198" id="linearGradient6" spreadMethod="reflect">
        <stop stop-opacity="1" stop-color="rgb(232,238,247)" offset="0%"/>
        <stop stop-opacity="1" stop-color="rgb(183,201,227)" offset="100%"/>
      </linearGradient>
      <linearGradient x1="658.4425" gradientUnits="userSpaceOnUse" x2="850.9425" y1="902.6198" y2="950.6198" id="linearGradient7" spreadMethod="reflect">
        <stop stop-opacity="1" stop-color="silver" offset="0%"/>
        <stop stop-opacity="1" stop-color="silver" offset="100%"/>
      </linearGradient>
      <linearGradient x1="995.2616" gradientUnits="userSpaceOnUse" x2="1178.2616" y1="-90.2552" y2="-50.2552" id="linearGradient8" spreadMethod="reflect">
        <stop stop-opacity="1" stop-color="rgb(232,238,247)" offset="0%"/>
        <stop stop-opacity="1" stop-color="rgb(183,201,227)" offset="100%"/>
      </linearGradient>
      <clipPath clipPathUnits="userSpaceOnUse" id="clipPath1">
        <path d="M0 0 L780 0 L780 1074 L0 1074 L0 0 Z"/>
      </clipPath>
      <clipPath clipPathUnits="userSpaceOnUse" id="clipPath2">
        <path d="M414 -108 L1194 -108 L1194 966 L414 966 L414 -108 Z"/>
      </clipPath>
      <clipPath clipPathUnits="userSpaceOnUse" id="clipPath3">
        <path d="M-216.0009 -479.3502 L335.5424 72.1931 L-423.8903 831.6258 L-975.4336 280.0825 L-216.0009 -479.3502 Z"/>
      </clipPath>
      <clipPath clipPathUnits="userSpaceOnUse" id="clipPath4">
        <path d="M-7.9973 -687.3538 L543.546 -135.8105 L-215.8867 623.6221 L-767.4299 72.0788 L-7.9973 -687.3538 Z"/>
      </clipPath>
      <clipPath clipPathUnits="userSpaceOnUse" id="clipPath5">
        <path d="M201.5305 -896.8816 L753.0737 -345.3383 L-6.3589 414.0944 L-557.9022 -137.4489 L201.5305 -896.8816 Z"/>
      </clipPath>
      <clipPath clipPathUnits="userSpaceOnUse" id="clipPath6">
        <path d="M-95.453 -582.7917 L456.0903 -31.2484 L-303.3424 728.1843 L-854.8857 176.641 L-95.453 -582.7917 Z"/>
      </clipPath>
      <clipPath clipPathUnits="userSpaceOnUse" id="clipPath7">
        <path d="M114.4334 -792.678 L665.9767 -241.1347 L-93.456 518.2979 L-644.9993 -33.2453 L114.4334 -792.678 Z"/>
      </clipPath>
      <clipPath clipPathUnits="userSpaceOnUse" id="clipPath8">
        <path d="M323.737 -1001.9816 L875.2803 -450.4384 L115.8476 308.9943 L-435.6957 -242.549 L323.737 -1001.9816 Z"/>
      </clipPath>
    </defs>
    <g fill="white" text-rendering="geometricPrecision" shape-rendering="geometricPrecision" transform="translate(-414,108)" stroke="white">
      <rect x="414" width="780" height="1074" y="-108" clip-path="url(#clipPath2)" stroke="none"/>
    </g>
    <g fill="rgb(183,201,227)" text-rendering="geometricPrecision" shape-rendering="geometricPrecision" transform="matrix(1,0,0,1,-414,108)" stroke="rgb(183,201,227)">
      <path d="M658.4425 196.6198 L850.9425 196.6198 L850.9425 244.6198 L658.4425 244.6198 Z" stroke="none" clip-path="url(#clipPath2)"/>
    </g>
    <g text-rendering="geometricPrecision" stroke-miterlimit="1.45" shape-rendering="geometricPrecision" transform="matrix(1,0,0,1,-414,108)" stroke-linecap="butt">
      <path fill="none" d="M658.4425 196.6198 L850.9425 196.6198 L850.9425 244.6198 L658.4425 244.6198 Z" clip-path="url(#clipPath2)"/>
      <text x="734.7648" y="210.8053" clip-path="url(#clipPath2)" font-family="sans-serif" stroke="none" font-weight="bold" xml:space="preserve">U-Box</text>
      <text x="706.965" y="224.7741" clip-path="url(#clipPath2)" font-family="sans-serif" stroke="none" font-weight="bold" xml:space="preserve">A sequence of</text>
      <text x="714.9308" y="238.7428" clip-path="url(#clipPath2)" font-family="sans-serif" stroke="none" font-weight="bold" xml:space="preserve">unifications</text>
    </g>
    <g fill="url(#linearGradient1)" text-rendering="geometricPrecision" shape-rendering="geometricPrecision" transform="matrix(1,0,0,1,-414,108)" stroke="url(#linearGradient1)">
      <path d="M658.4425 48.6198 L850.9425 48.6198 L850.9425 96.6198 L658.4425 96.6198 Z" stroke="none" clip-path="url(#clipPath2)"/>
    </g>
    <g text-rendering="geometricPrecision" stroke-miterlimit="1.45" shape-rendering="geometricPrecision" transform="matrix(1,0,0,1,-414,108)" stroke-linecap="butt">
      <path fill="none" d="M658.4425 48.6198 L850.9425 48.6198 L850.9425 96.6198 L658.4425 96.6198 Z" clip-path="url(#clipPath2)"/>
      <text x="734.9933" y="69.7897" clip-path="url(#clipPath2)" font-family="sans-serif" stroke="none" font-weight="bold" xml:space="preserve">V-Box</text>
      <text x="670.8068" y="83.7585" clip-path="url(#clipPath2)" font-family="sans-serif" stroke="none" font-weight="bold" xml:space="preserve">I/O, branching, functions</text>
    </g>
    <g fill="rgb(183,201,227)" text-rendering="geometricPrecision" shape-rendering="geometricPrecision" transform="matrix(1,0,0,1,-414,108)" stroke="rgb(183,201,227)">
      <path d="M995.2616 -28.3802 L1178.2616 -28.3802 L1178.2616 177.1198 L995.2616 177.1198 Z" stroke="none" clip-path="url(#clipPath2)"/>
    </g>
    <g text-rendering="geometricPrecision" stroke-miterlimit="1.45" shape-rendering="geometricPrecision" transform="matrix(1,0,0,1,-414,108)" stroke-linecap="butt">
      <path fill="none" d="M995.2616 -28.3802 L1178.2616 -28.3802 L1178.2616 177.1198 L995.2616 177.1198 Z" clip-path="url(#clipPath2)"/>
      <text x="1049.7098" y="71.5397" clip-path="url(#clipPath2)" font-family="sans-serif" stroke="none" font-weight="bold" xml:space="preserve">Term store</text>
      <text x="1055.537" y="85.5085" clip-path="url(#clipPath2)" font-family="sans-serif" stroke="none" font-weight="bold" xml:space="preserve">version 1</text>
    </g>
    <g fill="rgb(183,201,227)" text-rendering="geometricPrecision" shape-rendering="geometricPrecision" transform="matrix(1,0,0,1,-414,108)" stroke="rgb(183,201,227)">
      <path d="M658.4425 492.6198 L850.9425 492.6198 L850.9425 540.6198 L658.4425 540.6198 Z" stroke="none" clip-path="url(#clipPath2)"/>
    </g>
    <g text-rendering="geometricPrecision" stroke-miterlimit="1.45" shape-rendering="geometricPrecision" transform="matrix(1,0,0,1,-414,108)" stroke-linecap="butt">
      <path fill="none" d="M658.4425 492.6198 L850.9425 492.6198 L850.9425 540.6198 L658.4425 540.6198 Z" clip-path="url(#clipPath2)"/>
      <text x="734.7648" y="520.7741" clip-path="url(#clipPath2)" font-family="sans-serif" stroke="none" font-weight="bold" xml:space="preserve">U-Box</text>
    </g>
    <g fill="url(#linearGradient2)" text-rendering="geometricPrecision" shape-rendering="geometricPrecision" transform="matrix(1,0,0,1,-414,108)" stroke="url(#linearGradient2)">
      <path d="M658.4425 344.6198 L850.9425 344.6198 L850.9425 392.6198 L658.4425 392.6198 Z" stroke="none" clip-path="url(#clipPath2)"/>
    </g>
    <g text-rendering="geometricPrecision" stroke-miterlimit="1.45" shape-rendering="geometricPrecision" transform="matrix(1,0,0,1,-414,108)" stroke-linecap="butt">
      <path fill="none" d="M658.4425 344.6198 L850.9425 344.6198 L850.9425 392.6198 L658.4425 392.6198 Z" clip-path="url(#clipPath2)"/>
      <text x="734.9933" y="372.7741" clip-path="url(#clipPath2)" font-family="sans-serif" stroke="none" font-weight="bold" xml:space="preserve">V-Box</text>
    </g>
    <g fill="rgb(183,201,227)" text-rendering="geometricPrecision" shape-rendering="geometricPrecision" transform="matrix(1,0,0,1,-414,108)" stroke="rgb(183,201,227)">
      <path d="M658.4425 788.6198 L850.9425 788.6198 L850.9425 836.6198 L658.4425 836.6198 Z" stroke="none" clip-path="url(#clipPath2)"/>
    </g>
    <g text-rendering="geometricPrecision" stroke-miterlimit="1.45" shape-rendering="geometricPrecision" transform="matrix(1,0,0,1,-414,108)" stroke-linecap="butt">
      <path fill="none" d="M658.4425 788.6198 L850.9425 788.6198 L850.9425 836.6198 L658.4425 836.6198 Z" clip-path="url(#clipPath2)"/>
      <text x="734.7648" y="816.7741" clip-path="url(#clipPath2)" font-family="sans-serif" stroke="none" font-weight="bold" xml:space="preserve">U-Box</text>
    </g>
    <g fill="url(#linearGradient3)" text-rendering="geometricPrecision" shape-rendering="geometricPrecision" transform="matrix(1,0,0,1,-414,108)" stroke="url(#linearGradient3)">
      <path d="M658.4425 640.6198 L850.9425 640.6198 L850.9425 688.6198 L658.4425 688.6198 Z" stroke="none" clip-path="url(#clipPath2)"/>
    </g>
    <g text-rendering="geometricPrecision" stroke-miterlimit="1.45" shape-rendering="geometricPrecision" transform="matrix(1,0,0,1,-414,108)" stroke-linecap="butt">
      <path fill="none" d="M658.4425 640.6198 L850.9425 640.6198 L850.9425 688.6198 L658.4425 688.6198 Z" clip-path="url(#clipPath2)"/>
      <text x="734.9933" y="668.7741" clip-path="url(#clipPath2)" font-family="sans-serif" stroke="none" font-weight="bold" xml:space="preserve">V-Box</text>
    </g>
    <g fill="rgb(183,201,227)" text-rendering="geometricPrecision" shape-rendering="geometricPrecision" transform="matrix(1,0,0,1,-414,108)" stroke="rgb(183,201,227)">
      <path d="M995.2616 260.8698 L1178.2616 260.8698 L1178.2616 472.6198 L995.2616 472.6198 Z" stroke="none" clip-path="url(#clipPath2)"/>
    </g>
    <g text-rendering="geometricPrecision" stroke-miterlimit="1.45" shape-rendering="geometricPrecision" transform="matrix(1,0,0,1,-414,108)" stroke-linecap="butt">
      <path fill="none" d="M995.2616 260.8698 L1178.2616 260.8698 L1178.2616 472.6198 L995.2616 472.6198 Z" clip-path="url(#clipPath2)"/>
      <text x="1049.7098" y="363.9147" clip-path="url(#clipPath2)" font-family="sans-serif" stroke="none" font-weight="bold" xml:space="preserve">Term store</text>
      <text x="1055.537" y="377.8835" clip-path="url(#clipPath2)" font-family="sans-serif" stroke="none" font-weight="bold" xml:space="preserve">version 2</text>
    </g>
    <g fill="rgb(183,201,227)" text-rendering="geometricPrecision" shape-rendering="geometricPrecision" transform="matrix(1,0,0,1,-414,108)" stroke="rgb(183,201,227)">
      <path d="M995.2616 560.6198 L1178.2616 560.6198 L1178.2616 766.1198 L995.2616 766.1198 Z" stroke="none" clip-path="url(#clipPath2)"/>
    </g>
    <g text-rendering="geometricPrecision" stroke-miterlimit="1.45" shape-rendering="geometricPrecision" transform="matrix(1,0,0,1,-414,108)" stroke-linecap="butt">
      <path fill="none" d="M995.2616 560.6198 L1178.2616 560.6198 L1178.2616 766.1198 L995.2616 766.1198 Z" clip-path="url(#clipPath2)"/>
      <text x="1049.7098" y="660.5397" clip-path="url(#clipPath2)" font-family="sans-serif" stroke="none" font-weight="bold" xml:space="preserve">Term store</text>
      <text x="1055.537" y="674.5085" clip-path="url(#clipPath2)" font-family="sans-serif" stroke="none" font-weight="bold" xml:space="preserve">version 3</text>
    </g>
    <g fill="rgb(183,201,227)" text-rendering="geometricPrecision" shape-rendering="geometricPrecision" transform="matrix(1,0,0,1,-414,108)" stroke="rgb(183,201,227)">
      <path d="M995.2616 859.1198 L1178.2616 859.1198 L1178.2616 950.6198 L995.2616 950.6198 Z" stroke="none" clip-path="url(#clipPath2)"/>
    </g>
    <g fill="url(#linearGradient4)" text-rendering="geometricPrecision" shape-rendering="geometricPrecision" transform="matrix(1,0,0,1,-414,108)" stroke="url(#linearGradient4)">
      <path d="M995.2616 198.9948 L1178.2616 198.9948 L1178.2616 238.9948 L995.2616 238.9948 Z" stroke="none" clip-path="url(#clipPath2)"/>
    </g>
    <g text-rendering="geometricPrecision" stroke-miterlimit="1.45" shape-rendering="geometricPrecision" transform="matrix(1,0,0,1,-414,108)" stroke-linecap="butt">
      <path fill="none" d="M995.2616 198.9948 L1178.2616 198.9948 L1178.2616 238.9948 L995.2616 238.9948 Z" clip-path="url(#clipPath2)"/>
      <text x="1029.2313" xml:space="preserve" y="223.1491" clip-path="url(#clipPath2)" font-family="sans-serif" stroke="none">Update transaction</text>
    </g>
    <g fill="url(#linearGradient5)" text-rendering="geometricPrecision" shape-rendering="geometricPrecision" transform="matrix(1,0,0,1,-414,108)" stroke="url(#linearGradient5)">
      <path d="M995.2616 496.6198 L1178.2616 496.6198 L1178.2616 536.6198 L995.2616 536.6198 Z" stroke="none" clip-path="url(#clipPath2)"/>
    </g>
    <g text-rendering="geometricPrecision" stroke-miterlimit="1.45" shape-rendering="geometricPrecision" transform="matrix(1,0,0,1,-414,108)" stroke-linecap="butt">
      <path fill="none" d="M995.2616 496.6198 L1178.2616 496.6198 L1178.2616 536.6198 L995.2616 536.6198 Z" clip-path="url(#clipPath2)"/>
      <text x="1029.2313" xml:space="preserve" y="520.7741" clip-path="url(#clipPath2)" font-family="sans-serif" stroke="none">Update transaction</text>
    </g>
    <g fill="url(#linearGradient6)" text-rendering="geometricPrecision" shape-rendering="geometricPrecision" transform="matrix(1,0,0,1,-414,108)" stroke="url(#linearGradient6)">
      <path d="M995.2616 792.6198 L1178.2616 792.6198 L1178.2616 832.6198 L995.2616 832.6198 Z" stroke="none" clip-path="url(#clipPath2)"/>
    </g>
    <g text-rendering="geometricPrecision" stroke-miterlimit="1.45" shape-rendering="geometricPrecision" transform="matrix(1,0,0,1,-414,108)" stroke-linecap="butt">
      <path fill="none" d="M995.2616 792.6198 L1178.2616 792.6198 L1178.2616 832.6198 L995.2616 832.6198 Z" clip-path="url(#clipPath2)"/>
      <text x="1029.2313" xml:space="preserve" y="816.7741" clip-path="url(#clipPath2)" font-family="sans-serif" stroke="none">Update transaction</text>
    </g>
    <g fill="url(#linearGradient7)" text-rendering="geometricPrecision" shape-rendering="geometricPrecision" transform="matrix(1,0,0,1,-414,108)" stroke="url(#linearGradient7)">
      <path d="M658.4425 902.6198 L850.9425 902.6198 L850.9425 950.6198 L658.4425 950.6198 Z" stroke="none" clip-path="url(#clipPath2)"/>
    </g>
    <g fill="rgb(183,201,227)" text-rendering="geometricPrecision" shape-rendering="geometricPrecision" transform="matrix(1,0,0,1,-414,108)" stroke="rgb(183,201,227)">
      <path d="M658.4425 -92.6302 L850.9425 -92.6302 L850.9425 -44.6302 L658.4425 -44.6302 Z" stroke="none" clip-path="url(#clipPath2)"/>
    </g>
    <g fill="url(#linearGradient8)" text-rendering="geometricPrecision" shape-rendering="geometricPrecision" transform="matrix(1,0,0,1,-414,108)" stroke="url(#linearGradient8)">
      <path d="M995.2616 -90.2552 L1178.2616 -90.2552 L1178.2616 -50.2552 L995.2616 -50.2552 Z" stroke="none" clip-path="url(#clipPath2)"/>
    </g>
    <g text-rendering="geometricPrecision" stroke-miterlimit="1.45" shape-rendering="geometricPrecision" transform="matrix(1,0,0,1,-414,108)" stroke-linecap="butt">
      <path fill="none" d="M674.0046 196.6186 L663.5909 192.8698 L642.5675 183.6198 L626.2159 174.3698 L614.5363 165.1198 L607.5284 155.8698 L605.7765 151.2448 L605.1925 146.6198 L605.7765 141.9948 L607.5284 137.3698 L614.5363 128.1198 L626.2159 118.8698 L642.5675 109.6198 L663.5909 100.3698 L666.4775 99.3307" clip-path="url(#clipPath2)"/>
    </g>
    <g text-rendering="geometricPrecision" stroke-miterlimit="1.45" shape-rendering="geometricPrecision" transform="matrix(1,0,0,1,-414,108)" stroke-linecap="butt">
      <path d="M674.0046 96.621 L661.0203 95.9811 L665.5366 99.6694 L664.4074 105.39 Z" stroke="none" clip-path="url(#clipPath2)"/>
      <text x="555.048" xml:space="preserve" y="143.7897" clip-path="url(#clipPath2)" font-family="sans-serif" stroke="none">if any unification</text>
      <text x="565.3986" xml:space="preserve" y="157.7585" clip-path="url(#clipPath2)" font-family="sans-serif" stroke="none">fails, rollback</text>
      <path fill="none" d="M769.3596 96.6264 L770.2563 98.0942 L781.3733 118.1071 L788.0435 134.393 L790.2668 148.6862 L788.0435 162.7211 L781.3733 178.2321 L774.5363 189.7458" clip-path="url(#clipPath2)"/>
      <path d="M770.4517 196.6245 L780.8778 188.8593 L775.0469 188.886 L772.2795 183.7536 Z" clip-path="url(#clipPath2)" stroke="none"/>
      <text x="754.1309" xml:space="preserve" y="153.5293" clip-path="url(#clipPath2)" font-family="sans-serif" stroke="none">SUCCESS→CALL</text>
      <path fill="none" d="M995.2723 73.8876 L858.9302 73.1691" clip-path="url(#clipPath2)"/>
      <path d="M850.9303 73.127 L862.9038 78.1901 L859.9302 73.1744 L862.9565 68.1903 Z" clip-path="url(#clipPath2)" stroke="none"/>
    </g>
    <g text-rendering="geometricPrecision" stroke-miterlimit="1.45" shape-rendering="geometricPrecision" font-family="sans-serif" transform="matrix(0.7071,-0.7071,0.7071,0.7071,491.6875,186.2161)" stroke-linecap="butt">
      <text x="2" xml:space="preserve" y="13.1387" clip-path="url(#clipPath3)" stroke="none">read</text>
    </g>
    <g text-rendering="geometricPrecision" stroke-miterlimit="1.45" shape-rendering="geometricPrecision" transform="matrix(1,0,0,1,-414,108)" stroke-linecap="butt">
      <path fill="none" d="M672.6553 492.6186 L662.0675 488.8698 L640.6925 479.6198 L624.0675 470.3698 L612.1925 461.1198 L605.0675 451.8698 L603.2863 447.2448 L602.6925 442.6198 L603.2863 437.9948 L605.0675 433.3698 L612.1925 424.1198 L624.0675 414.8698 L640.6925 405.6198 L662.0675 396.3698 L665.114 395.2911" clip-path="url(#clipPath2)"/>
      <path d="M672.6553 392.621 L659.6746 391.9129 L664.1714 395.6249 L663.0122 401.3394 Z" clip-path="url(#clipPath2)" stroke="none"/>
      <text x="552.548" xml:space="preserve" y="439.7897" clip-path="url(#clipPath2)" font-family="sans-serif" stroke="none">if any unification</text>
      <text x="562.8986" xml:space="preserve" y="453.7585" clip-path="url(#clipPath2)" font-family="sans-serif" stroke="none">fails, rollback</text>
      <path fill="none" d="M764.8589 244.6056 L775.0452 268.6383 L780.1333 285.557 L781.8293 300.0612 L780.1333 313.8852 L775.0452 328.7633 L770.9047 337.3891" clip-path="url(#clipPath2)"/>
      <path d="M767.4427 344.6013 L777.1432 335.9467 L771.3374 336.4876 L768.128 331.6194 Z" clip-path="url(#clipPath2)" stroke="none"/>
      <text x="742.8809" xml:space="preserve" y="306.0293" clip-path="url(#clipPath2)" font-family="sans-serif" stroke="none">SUCCESS→CALL</text>
      <path fill="none" d="M658.4265 347.1063 L643.8769 342.2958 L621.29 333.2596 L600.735 323.4173 L582.204 312.8566 L565.6897 301.6657 L551.1844 289.9323 L538.6807 277.7445 L528.1709 265.1902 L519.6475 252.3573 L513.103 239.3338 L508.5297 226.2076 L505.9202 213.0665 L505.2669 199.9987 L506.5622 187.0919 L509.7986 174.4342 L514.9686 162.1135 L522.0645 150.2177 L531.0788 138.8347 L542.004 128.0525 L554.8326 117.9591 L569.5569 108.6423 L586.1694 100.19 L604.6626 92.6903 L625.0289 86.2311 L647.2607 80.9003 L650.5258 80.3426" clip-path="url(#clipPath2)"/>
      <path d="M658.4116 78.9958 L645.7411 76.0874 L649.5401 80.511 L647.4247 85.9447 Z" clip-path="url(#clipPath2)" stroke="none"/>
      <text x="475.6772" xml:space="preserve" y="243.0815" clip-path="url(#clipPath2)" font-family="sans-serif" stroke="none">to backtrack,</text>
      <text x="471.7925" xml:space="preserve" y="257.0503" clip-path="url(#clipPath2)" font-family="sans-serif" stroke="none">swithc back to</text>
      <text x="431.8989" xml:space="preserve" y="271.019" clip-path="url(#clipPath2)" font-family="sans-serif" stroke="none">previous term store version</text>
      <path fill="none" d="M767.1978 392.5978 L775.7483 410.7321 L781.0122 426.1742 L782.7668 440.1862 L781.0122 454.5023 L775.7483 470.8571 L769.451 485.3044 L769.4078 485.3946" clip-path="url(#clipPath2)"/>
      <path d="M766.1547 492.7034 L775.6022 483.7734 L769.8144 484.481 L766.4664 479.7071 Z" clip-path="url(#clipPath2)" stroke="none"/>
      <text x="744.1309" xml:space="preserve" y="443.5293" clip-path="url(#clipPath2)" font-family="sans-serif" stroke="none">SUCCESS→CALL</text>
      <path fill="none" d="M675.3539 788.6186 L665.1144 784.8698 L644.4425 775.6198 L628.3644 766.3698 L616.88 757.1198 L609.9894 747.8698 L608.2667 743.2448 L607.6925 738.6198 L608.2667 733.9948 L609.9894 729.3698 L616.88 720.1198 L628.3644 710.8698 L644.4425 701.6198 L665.1144 692.3698 L667.8415 691.3714" clip-path="url(#clipPath2)"/>
      <path d="M675.3539 688.621 L662.3664 688.0513 L666.9025 691.7152 L665.8043 697.4418 Z" clip-path="url(#clipPath2)" stroke="none"/>
      <text x="557.548" xml:space="preserve" y="735.7897" clip-path="url(#clipPath2)" font-family="sans-serif" stroke="none">if any unification</text>
      <text x="567.8986" xml:space="preserve" y="749.7585" clip-path="url(#clipPath2)" font-family="sans-serif" stroke="none">fails, rollback</text>
      <path fill="none" d="M767.1001 540.6399 L767.3852 541.1918 L776.4514 560.5602 L781.8911 576.4594 L783.7043 590.6237 L781.8911 604.7875 L776.4514 620.6852 L770.514 633.368 L770.4681 633.4568" clip-path="url(#clipPath2)"/>
      <path d="M767.0575 640.6934 L776.6962 631.9702 L770.8944 632.5523 L767.6505 627.707 Z" clip-path="url(#clipPath2)" stroke="none"/>
      <text x="745.3809" xml:space="preserve" y="594.7793" clip-path="url(#clipPath2)" font-family="sans-serif" stroke="none">SUCCESS→CALL</text>
      <path fill="none" d="M658.4576 642.9476 L643.2104 637.9677 L620.6566 629.1113 L600.1994 619.5316 L581.8235 609.3052 L565.5139 598.5095 L551.2555 587.2211 L539.0331 575.517 L528.8318 563.4743 L520.6362 551.1699 L514.4315 538.6806 L510.2024 526.0836 L507.9338 513.4556 L507.6106 500.8737 L509.2178 488.4148 L512.7402 476.1559 L518.1627 464.174 L525.4702 452.5458 L534.6476 441.3485 L545.6799 430.659 L558.5518 420.5541 L573.2483 411.111 L589.7543 402.4065 L608.0546 394.5175 L628.1342 387.521 L649.978 381.494 L650.5831 381.3663" clip-path="url(#clipPath2)"/>
      <path d="M658.4106 379.7139 L645.6366 377.3003 L649.6047 381.5728 L647.7021 387.0847 Z" clip-path="url(#clipPath2)" stroke="none"/>
      <text x="479.7812" xml:space="preserve" y="538.6152" clip-path="url(#clipPath2)" font-family="sans-serif" stroke="none">to backtrack,</text>
      <text x="475.8965" xml:space="preserve" y="552.584" clip-path="url(#clipPath2)" font-family="sans-serif" stroke="none">switch back to</text>
      <text x="447.707" xml:space="preserve" y="566.5527" clip-path="url(#clipPath2)" font-family="sans-serif" stroke="none">prior term store version</text>
      <path fill="none" d="M768.0049 688.623 L776.4514 705.4665 L781.8911 720.5922 L783.7043 734.4987 L781.8911 748.9203 L776.4514 765.5915 L769.5327 781.3541 L769.4893 781.4442" clip-path="url(#clipPath2)"/>
      <path d="M766.1912 788.7328 L775.6936 779.8612 L769.9015 780.5331 L766.5829 775.7387 Z" clip-path="url(#clipPath2)" stroke="none"/>
      <text x="745.3809" xml:space="preserve" y="737.2793" clip-path="url(#clipPath2)" font-family="sans-serif" stroke="none">SUCCESS→CALL</text>
      <path fill="none" d="M995.2723 367.2614 L858.9302 368.0312" clip-path="url(#clipPath2)"/>
      <path d="M850.9303 368.0764 L862.9583 373.0085 L859.9302 368.0256 L862.9019 363.0087 Z" clip-path="url(#clipPath2)" stroke="none"/>
    </g>
    <g text-rendering="geometricPrecision" stroke-miterlimit="1.45" shape-rendering="geometricPrecision" font-family="sans-serif" transform="matrix(0.7071,-0.7071,0.7071,0.7071,491.6875,480.3776)" stroke-linecap="butt">
      <text x="2" xml:space="preserve" y="13.1387" clip-path="url(#clipPath4)" stroke="none">read</text>
    </g>
    <g text-rendering="geometricPrecision" stroke-miterlimit="1.45" shape-rendering="geometricPrecision" transform="matrix(1,0,0,1,-414,108)" stroke-linecap="butt">
      <path fill="none" d="M995.2723 663.7142 L858.9302 664.2274" clip-path="url(#clipPath2)"/>
      <path d="M850.9303 664.2575 L862.949 669.2123 L859.9302 664.2236 L862.9114 659.2124 Z" clip-path="url(#clipPath2)" stroke="none"/>
    </g>
    <g text-rendering="geometricPrecision" stroke-miterlimit="1.45" shape-rendering="geometricPrecision" font-family="sans-serif" transform="matrix(0.7071,-0.7071,0.7071,0.7071,491.6875,776.6946)" stroke-linecap="butt">
      <text x="2" xml:space="preserve" y="13.1387" clip-path="url(#clipPath5)" stroke="none">read</text>
    </g>
    <g text-rendering="geometricPrecision" stroke-miterlimit="1.45" shape-rendering="geometricPrecision" transform="matrix(1,0,0,1,-414,108)" stroke-linecap="butt">
      <path fill="none" d="M850.965 220.1487 L987.2581 219.4817" clip-path="url(#clipPath2)"/>
      <path d="M995.258 219.4426 L983.2336 214.5014 L986.2581 219.4866 L983.2826 224.5012 Z" clip-path="url(#clipPath2)" stroke="none"/>
    </g>
    <g text-rendering="geometricPrecision" stroke-miterlimit="1.45" shape-rendering="geometricPrecision" font-family="sans-serif" transform="matrix(0.7071,-0.7071,0.7071,0.7071,479.5914,344.6005)" stroke-linecap="butt">
      <text x="2" xml:space="preserve" y="13.1387" clip-path="url(#clipPath6)" stroke="none">read/write</text>
    </g>
    <g text-rendering="geometricPrecision" stroke-miterlimit="1.45" shape-rendering="geometricPrecision" transform="matrix(1,0,0,1,-414,108)" stroke-linecap="butt">
      <path fill="none" d="M1086.7616 177.1538 L1086.7616 191.0141" clip-path="url(#clipPath2)"/>
      <path d="M1086.7616 199.0141 L1091.7616 187.0141 L1086.7616 190.0141 L1081.7616 187.0141 Z" clip-path="url(#clipPath2)" stroke="none"/>
      <path fill="none" d="M1086.7616 239.0146 L1086.7616 252.8747" clip-path="url(#clipPath2)"/>
      <path d="M1086.7616 260.8747 L1091.7616 248.8747 L1086.7616 251.8747 L1081.7616 248.8747 Z" clip-path="url(#clipPath2)" stroke="none"/>
      <path fill="none" d="M1086.7616 472.6013 L1086.7616 488.631" clip-path="url(#clipPath2)"/>
      <path d="M1086.7616 496.631 L1091.7616 484.631 L1086.7616 487.631 L1081.7616 484.631 Z" clip-path="url(#clipPath2)" stroke="none"/>
      <path fill="none" d="M850.965 516.6198 L987.258 516.6198" clip-path="url(#clipPath2)"/>
      <path d="M995.258 516.6198 L983.258 511.6198 L986.258 516.6198 L983.258 521.6198 Z" clip-path="url(#clipPath2)" stroke="none"/>
    </g>
    <g text-rendering="geometricPrecision" stroke-miterlimit="1.45" shape-rendering="geometricPrecision" font-family="sans-serif" transform="matrix(0.7071,-0.7071,0.7071,0.7071,479.5914,641.4246)" stroke-linecap="butt">
      <text x="2" xml:space="preserve" y="13.1387" clip-path="url(#clipPath7)" stroke="none">read/write</text>
    </g>
    <g text-rendering="geometricPrecision" stroke-miterlimit="1.45" shape-rendering="geometricPrecision" transform="matrix(1,0,0,1,-414,108)" stroke-linecap="butt">
      <path fill="none" d="M1086.7616 536.6475 L1086.7616 552.6245" clip-path="url(#clipPath2)"/>
      <path d="M1086.7616 560.6245 L1091.7616 548.6245 L1086.7616 551.6245 L1081.7616 548.6245 Z" clip-path="url(#clipPath2)" stroke="none"/>
      <path fill="none" d="M1086.7616 766.0885 L1086.7616 784.5804" clip-path="url(#clipPath2)"/>
      <path d="M1086.7616 792.5804 L1091.7616 780.5804 L1086.7616 783.5804 L1081.7616 780.5804 Z" clip-path="url(#clipPath2)" stroke="none"/>
      <path fill="none" d="M850.965 812.6198 L987.258 812.6198" clip-path="url(#clipPath2)"/>
      <path d="M995.258 812.6198 L983.258 807.6198 L986.258 812.6198 L983.258 817.6198 Z" clip-path="url(#clipPath2)" stroke="none"/>
    </g>
    <g text-rendering="geometricPrecision" stroke-miterlimit="1.45" shape-rendering="geometricPrecision" font-family="sans-serif" transform="matrix(0.7071,-0.7071,0.7071,0.7071,479.5914,937.4246)" stroke-linecap="butt">
      <text x="2" xml:space="preserve" y="13.1387" clip-path="url(#clipPath8)" stroke="none">read/write</text>
    </g>
    <g text-rendering="geometricPrecision" stroke-miterlimit="1.45" shape-rendering="geometricPrecision" transform="matrix(1,0,0,1,-414,108)" stroke-linecap="butt">
      <path fill="none" d="M1086.7616 832.6644 L1086.7616 851.142" clip-path="url(#clipPath2)"/>
      <path d="M1086.7616 859.142 L1091.7616 847.142 L1086.7616 850.142 L1081.7616 847.142 Z" clip-path="url(#clipPath2)" stroke="none"/>
      <path fill="none" d="M766.4489 836.6458 L771.5295 847.029 L775.7388 859.4164 L777.1418 870.3737 L775.7388 881.2368 L771.5295 893.3415 L770.4551 895.4651" clip-path="url(#clipPath2)"/>
      <path d="M766.8434 902.6035 L776.7224 894.1533 L770.9066 894.5729 L767.7994 889.6387 Z" clip-path="url(#clipPath2)" stroke="none"/>
      <path fill="none" d="M658.4177 920.6537 L652.0287 919.6293 L629.9882 914.6594 L609.4828 908.5848 L590.5554 901.4976 L573.2483 893.4899 L557.6042 884.6538 L543.6657 875.0814 L531.4753 864.8648 L521.0757 854.0961 L512.5093 842.8674 L505.8188 831.2709 L501.0467 819.3985 L498.2356 807.3425 L497.4281 795.1948 L498.6667 783.0477 L501.994 770.9932 L507.4527 759.1235 L515.0851 747.5305 L524.934 736.3065 L537.0419 725.5435 L551.4514 715.3337 L568.205 705.769 L587.3454 696.9418 L608.915 688.9439 L632.9565 681.8676 L650.6498 677.8282" clip-path="url(#clipPath2)"/>
      <path d="M658.4491 676.0477 L645.6373 673.8439 L649.6749 678.0508 L647.863 683.5931 Z" clip-path="url(#clipPath2)" stroke="none"/>
      <path fill="none" d="M768.7642 -44.6308 L777.1545 -28.8734 L782.77 -14.2442 L784.6418 -0.9076 L782.77 12.7919 L777.1545 28.5094 L770.9286 41.4087 L770.8818 41.4971" clip-path="url(#clipPath2)"/>
      <path d="M767.3805 48.6902 L777.1281 40.0888 L771.3194 40.5979 L768.1367 35.7122 Z" clip-path="url(#clipPath2)" stroke="none"/>
      <path fill="none" d="M1086.7616 -50.2351 L1086.7616 -36.3623" clip-path="url(#clipPath2)"/>
      <path d="M1086.7616 -28.3623 L1091.7616 -40.3623 L1086.7616 -37.3623 L1081.7616 -40.3623 Z" clip-path="url(#clipPath2)" stroke="none"/>
    </g>
  </g>
</svg>
