<?xml version="1.0" encoding="UTF-8"?><svg xmlns="http://www.w3.org/2000/svg" xmlns:xlink="http://www.w3.org/1999/xlink" fill-opacity="1" color-rendering="auto" color-interpolation="auto" text-rendering="auto" stroke="black" stroke-linecap="square" width="1896" stroke-miterlimit="10" shape-rendering="auto" stroke-opacity="1" fill="black" stroke-dasharray="none" font-weight="normal" stroke-width="1" height="1349" font-family="'Dialog'" font-style="normal" stroke-linejoin="miter" font-size="12px" stroke-dashoffset="0" image-rendering="auto">
  <!--Generated by ySVG 2.5-->
  <defs id="genericDefs"/>
  <g>
    <defs id="defs1">
      <linearGradient x1="1044.6172" gradientUnits="userSpaceOnUse" x2="1163.6172" y1="184" y2="244" id="linearGradient1" spreadMethod="reflect">
        <stop stop-opacity="1" stop-color="rgb(232,238,247)" offset="0%"/>
        <stop stop-opacity="1" stop-color="rgb(183,201,227)" offset="100%"/>
      </linearGradient>
      <linearGradient x1="1044.6172" gradientUnits="userSpaceOnUse" x2="1163.6172" y1="749.4375" y2="809.4375" id="linearGradient2" spreadMethod="reflect">
        <stop stop-opacity="1" stop-color="rgb(232,238,247)" offset="0%"/>
        <stop stop-opacity="1" stop-color="rgb(183,201,227)" offset="100%"/>
      </linearGradient>
      <linearGradient x1="814.8047" gradientUnits="userSpaceOnUse" x2="941.6797" y1="438.1875" y2="521.9375" id="linearGradient3" spreadMethod="reflect">
        <stop stop-opacity="1" stop-color="rgb(232,238,247)" offset="0%"/>
        <stop stop-opacity="1" stop-color="rgb(183,201,227)" offset="100%"/>
      </linearGradient>
      <linearGradient x1="1524.1797" gradientUnits="userSpaceOnUse" x2="1850.6797" y1="941.5" y2="1113.75" id="linearGradient4" spreadMethod="reflect">
        <stop stop-opacity="1" stop-color="rgb(232,238,247)" offset="0%"/>
        <stop stop-opacity="1" stop-color="rgb(183,201,227)" offset="100%"/>
      </linearGradient>
      <linearGradient x1="1193.6172" gradientUnits="userSpaceOnUse" x2="1312.6172" y1="710.5" y2="770.5" id="linearGradient5" spreadMethod="reflect">
        <stop stop-opacity="1" stop-color="rgb(232,238,247)" offset="0%"/>
        <stop stop-opacity="1" stop-color="rgb(255,102,0)" offset="100%"/>
      </linearGradient>
      <linearGradient x1="1193.6172" gradientUnits="userSpaceOnUse" x2="1312.6172" y1="788.375" y2="848.375" id="linearGradient6" spreadMethod="reflect">
        <stop stop-opacity="1" stop-color="rgb(232,238,247)" offset="0%"/>
        <stop stop-opacity="1" stop-color="rgb(183,201,227)" offset="100%"/>
      </linearGradient>
      <linearGradient x1="1167.6797" gradientUnits="userSpaceOnUse" x2="1494.1797" y1="941.5" y2="1063.75" id="linearGradient7" spreadMethod="reflect">
        <stop stop-opacity="1" stop-color="rgb(232,238,247)" offset="0%"/>
        <stop stop-opacity="1" stop-color="rgb(183,201,227)" offset="100%"/>
      </linearGradient>
      <linearGradient x1="1411.25" gradientUnits="userSpaceOnUse" x2="1530.25" y1="184" y2="244" id="linearGradient8" spreadMethod="reflect">
        <stop stop-opacity="1" stop-color="rgb(232,238,247)" offset="0%"/>
        <stop stop-opacity="1" stop-color="rgb(183,201,227)" offset="100%"/>
      </linearGradient>
      <linearGradient x1="1592.0625" gradientUnits="userSpaceOnUse" x2="1711.0625" y1="75" y2="135" id="linearGradient9" spreadMethod="reflect">
        <stop stop-opacity="1" stop-color="rgb(232,238,247)" offset="0%"/>
        <stop stop-opacity="1" stop-color="rgb(153,204,0)" offset="100%"/>
      </linearGradient>
      <linearGradient x1="1592.0625" gradientUnits="userSpaceOnUse" x2="1711.0625" y1="291.25" y2="351.25" id="linearGradient10" spreadMethod="reflect">
        <stop stop-opacity="1" stop-color="rgb(232,238,247)" offset="0%"/>
        <stop stop-opacity="1" stop-color="rgb(255,102,0)" offset="100%"/>
      </linearGradient>
      <linearGradient x1="1847.0625" gradientUnits="userSpaceOnUse" x2="1966.0625" y1="14.5781" y2="74.5781" id="linearGradient11" spreadMethod="reflect">
        <stop stop-opacity="1" stop-color="rgb(232,238,247)" offset="0%"/>
        <stop stop-opacity="1" stop-color="lime" offset="100%"/>
      </linearGradient>
      <linearGradient x1="2007.3125" gradientUnits="userSpaceOnUse" x2="2126.3125" y1="184" y2="244" id="linearGradient12" spreadMethod="reflect">
        <stop stop-opacity="1" stop-color="rgb(232,238,247)" offset="0%"/>
        <stop stop-opacity="1" stop-color="rgb(183,201,227)" offset="100%"/>
      </linearGradient>
      <linearGradient x1="1847.0625" gradientUnits="userSpaceOnUse" x2="1966.0625" y1="356.9062" y2="416.9062" id="linearGradient13" spreadMethod="reflect">
        <stop stop-opacity="1" stop-color="rgb(232,238,247)" offset="0%"/>
        <stop stop-opacity="1" stop-color="rgb(183,201,227)" offset="100%"/>
      </linearGradient>
      <linearGradient x1="1376.4646" gradientUnits="userSpaceOnUse" x2="1388.946" y1="397.2437" y2="407.2563" id="linearGradient14" spreadMethod="reflect">
        <stop stop-opacity="1" stop-color="gray" offset="0%"/>
        <stop stop-opacity="1" stop-color="gray" offset="100%"/>
      </linearGradient>
      <linearGradient x1="1515.1741" gradientUnits="userSpaceOnUse" x2="1523.8259" y1="398.7798" y2="405.7202" id="linearGradient15" spreadMethod="reflect">
        <stop stop-opacity="1" stop-color="gray" offset="0%"/>
        <stop stop-opacity="1" stop-color="gray" offset="100%"/>
      </linearGradient>
      <linearGradient x1="1378.4706" gradientUnits="userSpaceOnUse" x2="1386.9401" y1="333.6403" y2="342.1013" id="linearGradient16" spreadMethod="reflect">
        <stop stop-opacity="1" stop-color="gray" offset="0%"/>
        <stop stop-opacity="1" stop-color="gray" offset="100%"/>
      </linearGradient>
      <linearGradient x1="2157.5039" gradientUnits="userSpaceOnUse" x2="2351.5039" y1="32.75" y2="97.75" id="linearGradient17" spreadMethod="reflect">
        <stop stop-opacity="1" stop-color="rgb(232,238,247)" offset="0%"/>
        <stop stop-opacity="1" stop-color="rgb(183,201,227)" offset="100%"/>
      </linearGradient>
      <linearGradient x1="2165.8125" gradientUnits="userSpaceOnUse" x2="2439.8125" y1="-127.0318" y2="-43.2818" id="linearGradient18" spreadMethod="reflect">
        <stop stop-opacity="1" stop-color="rgb(232,238,247)" offset="0%"/>
        <stop stop-opacity="1" stop-color="rgb(183,201,227)" offset="100%"/>
      </linearGradient>
      <linearGradient x1="1533.3125" gradientUnits="userSpaceOnUse" x2="1807.3125" y1="-204.0078" y2="-139.0078" id="linearGradient19" spreadMethod="reflect">
        <stop stop-opacity="1" stop-color="rgb(232,238,247)" offset="0%"/>
        <stop stop-opacity="1" stop-color="rgb(183,201,227)" offset="100%"/>
      </linearGradient>
      <linearGradient x1="1127.3086" gradientUnits="userSpaceOnUse" x2="1296.3086" y1="-59.3828" y2="43.1797" id="linearGradient20" spreadMethod="reflect">
        <stop stop-opacity="1" stop-color="rgb(232,238,247)" offset="0%"/>
        <stop stop-opacity="1" stop-color="rgb(183,201,227)" offset="100%"/>
      </linearGradient>
      <linearGradient x1="1568.0625" gradientUnits="userSpaceOnUse" x2="1842.0625" y1="564.125" y2="647.875" id="linearGradient21" spreadMethod="reflect">
        <stop stop-opacity="1" stop-color="rgb(232,238,247)" offset="0%"/>
        <stop stop-opacity="1" stop-color="rgb(183,201,227)" offset="100%"/>
      </linearGradient>
      <linearGradient x1="1769.5625" gradientUnits="userSpaceOnUse" x2="2043.5625" y1="455.899" y2="539.649" id="linearGradient22" spreadMethod="reflect">
        <stop stop-opacity="1" stop-color="rgb(232,238,247)" offset="0%"/>
        <stop stop-opacity="1" stop-color="rgb(183,201,227)" offset="100%"/>
      </linearGradient>
      <linearGradient x1="574.4922" gradientUnits="userSpaceOnUse" x2="768.4922" y1="447.5625" y2="512.5625" id="linearGradient23" spreadMethod="reflect">
        <stop stop-opacity="1" stop-color="rgb(232,238,247)" offset="0%"/>
        <stop stop-opacity="1" stop-color="rgb(183,201,227)" offset="100%"/>
      </linearGradient>
      <linearGradient x1="1177.9609" gradientUnits="userSpaceOnUse" x2="1328.2734" y1="607.875" y2="647.875" id="linearGradient24" spreadMethod="reflect">
        <stop stop-opacity="1" stop-color="rgb(255,102,0)" offset="0%"/>
        <stop stop-opacity="1" stop-color="rgb(255,102,0)" offset="100%"/>
      </linearGradient>
      <linearGradient x1="1469" gradientUnits="userSpaceOnUse" x2="1619.3125" y1="464.5" y2="504.5" id="linearGradient25" spreadMethod="reflect">
        <stop stop-opacity="1" stop-color="rgb(255,102,0)" offset="0%"/>
        <stop stop-opacity="1" stop-color="rgb(255,102,0)" offset="100%"/>
      </linearGradient>
      <linearGradient x1="1871.0625" gradientUnits="userSpaceOnUse" x2="2021.375" y1="-191.5078" y2="-151.5078" id="linearGradient26" spreadMethod="reflect">
        <stop stop-opacity="1" stop-color="lime" offset="0%"/>
        <stop stop-opacity="1" stop-color="lime" offset="100%"/>
      </linearGradient>
      <clipPath clipPathUnits="userSpaceOnUse" id="clipPath1">
        <path d="M0 0 L1896 0 L1896 1349 L0 1349 L0 0 Z"/>
      </clipPath>
      <clipPath clipPathUnits="userSpaceOnUse" id="clipPath2">
        <path d="M559 -220 L2455 -220 L2455 1129 L559 1129 L559 -220 Z"/>
      </clipPath>
    </defs>
    <g fill="white" text-rendering="geometricPrecision" shape-rendering="geometricPrecision" transform="translate(-559,220)" stroke="white">
      <rect x="559" width="1896" height="1349" y="-220" clip-path="url(#clipPath2)" stroke="none"/>
    </g>
    <g fill="url(#linearGradient1)" text-rendering="geometricPrecision" shape-rendering="geometricPrecision" transform="matrix(1,0,0,1,-559,220)" stroke="url(#linearGradient1)">
      <ellipse rx="59.5" ry="30" clip-path="url(#clipPath2)" cx="1104.1172" cy="214" stroke="none"/>
    </g>
    <g text-rendering="geometricPrecision" stroke-miterlimit="1.45" shape-rendering="geometricPrecision" transform="matrix(1,0,0,1,-559,220)" stroke-linecap="butt">
      <ellipse rx="59.5" fill="none" ry="30" clip-path="url(#clipPath2)" cx="1104.1172" cy="214"/>
      <text x="1060.8252" xml:space="preserve" y="211.1699" clip-path="url(#clipPath2)" font-family="sans-serif" stroke="none">computational</text>
      <text x="1080.6475" xml:space="preserve" y="225.1387" clip-path="url(#clipPath2)" font-family="sans-serif" stroke="none">success</text>
    </g>
    <g fill="url(#linearGradient2)" text-rendering="geometricPrecision" shape-rendering="geometricPrecision" transform="matrix(1,0,0,1,-559,220)" stroke="url(#linearGradient2)">
      <ellipse rx="59.5" ry="30" clip-path="url(#clipPath2)" cx="1104.1172" cy="779.4375" stroke="none"/>
    </g>
    <g text-rendering="geometricPrecision" stroke-miterlimit="1.45" shape-rendering="geometricPrecision" transform="matrix(1,0,0,1,-559,220)" stroke-linecap="butt">
      <ellipse rx="59.5" fill="none" ry="30" clip-path="url(#clipPath2)" cx="1104.1172" cy="779.4375"/>
      <text x="1060.8252" xml:space="preserve" y="776.6074" clip-path="url(#clipPath2)" font-family="sans-serif" stroke="none">computational</text>
      <text x="1085.0332" xml:space="preserve" y="790.5762" clip-path="url(#clipPath2)" font-family="sans-serif" stroke="none">failure</text>
    </g>
    <g fill="url(#linearGradient3)" text-rendering="geometricPrecision" shape-rendering="geometricPrecision" transform="matrix(1,0,0,1,-559,220)" stroke="url(#linearGradient3)">
      <ellipse rx="63.4375" ry="41.875" clip-path="url(#clipPath2)" cx="878.2422" cy="480.0625" stroke="none"/>
    </g>
    <g text-rendering="geometricPrecision" stroke-miterlimit="1.45" shape-rendering="geometricPrecision" transform="matrix(1,0,0,1,-559,220)" stroke-linecap="butt">
      <ellipse rx="63.4375" fill="none" ry="41.875" clip-path="url(#clipPath2)" cx="878.2422" cy="480.0625"/>
      <text x="850.9785" xml:space="preserve" y="484.2168" clip-path="url(#clipPath2)" font-family="sans-serif" stroke="none">unknown</text>
    </g>
    <g fill="url(#linearGradient4)" text-rendering="geometricPrecision" shape-rendering="geometricPrecision" transform="matrix(1,0,0,1,-559,220)" stroke="url(#linearGradient4)">
      <rect x="1524.1797" width="326.5" height="172.25" y="941.5" clip-path="url(#clipPath2)" stroke="none"/>
    </g>
    <g text-rendering="geometricPrecision" stroke-miterlimit="1.45" shape-rendering="geometricPrecision" transform="matrix(1,0,0,1,-559,220)" stroke-linecap="butt">
      <path fill="none" d="M1524.1797 963.0312 L1524.1797 941.5 L1850.6797 941.5 L1850.6797 963.0312" clip-path="url(#clipPath2)"/>
      <text x="1530.1797" xml:space="preserve" y="961.9355" clip-path="url(#clipPath2)" font-family="sans-serif" stroke="none">Operational interpretation:</text>
      <text x="1530.1797" xml:space="preserve" y="975.9043" clip-path="url(#clipPath2)" font-family="sans-serif" stroke="none"> </text>
      <text x="1530.1797" xml:space="preserve" y="989.873" clip-path="url(#clipPath2)" font-family="sans-serif" stroke="none">Subsumed by "logical false" and results</text>
      <text x="1530.1797" xml:space="preserve" y="1003.8418" clip-path="url(#clipPath2)" font-family="sans-serif" stroke="none">in backtracking.</text>
      <text x="1530.1797" xml:space="preserve" y="1017.8105" clip-path="url(#clipPath2)" font-family="sans-serif" stroke="none"> </text>
      <text x="1530.1797" xml:space="preserve" y="1031.7793" clip-path="url(#clipPath2)" font-family="sans-serif" stroke="none">Sometimes by "throw" which results</text>
      <text x="1530.1797" xml:space="preserve" y="1045.748" clip-path="url(#clipPath2)" font-family="sans-serif" stroke="none">in multi-level backtracking.</text>
      <text x="1530.1797" xml:space="preserve" y="1059.7168" clip-path="url(#clipPath2)" font-family="sans-serif" stroke="none"> </text>
      <text x="1530.1797" xml:space="preserve" y="1073.6855" clip-path="url(#clipPath2)" font-family="sans-serif" stroke="none">Also includes: Running out of resources,</text>
      <text x="1530.1797" xml:space="preserve" y="1087.6543" clip-path="url(#clipPath2)" font-family="sans-serif" stroke="none">or infinite descent because of the program's</text>
      <text x="1530.1797" xml:space="preserve" y="1101.623" clip-path="url(#clipPath2)" font-family="sans-serif" stroke="none">geometry.</text>
    </g>
    <g fill="url(#linearGradient5)" text-rendering="geometricPrecision" shape-rendering="geometricPrecision" transform="matrix(1,0,0,1,-559,220)" stroke="url(#linearGradient5)">
      <ellipse rx="59.5" ry="30" clip-path="url(#clipPath2)" cx="1253.1172" cy="740.5" stroke="none"/>
    </g>
    <g text-rendering="geometricPrecision" stroke-miterlimit="1.45" shape-rendering="geometricPrecision" transform="matrix(1,0,0,1,-559,220)" stroke-linecap="butt">
      <ellipse rx="59.5" fill="none" ry="30" clip-path="url(#clipPath2)" cx="1253.1172" cy="740.5"/>
      <text x="1221.0781" xml:space="preserve" y="744.6543" clip-path="url(#clipPath2)" font-family="sans-serif" stroke="none">detectable</text>
    </g>
    <g fill="url(#linearGradient6)" text-rendering="geometricPrecision" shape-rendering="geometricPrecision" transform="matrix(1,0,0,1,-559,220)" stroke="url(#linearGradient6)">
      <ellipse rx="59.5" ry="30" clip-path="url(#clipPath2)" cx="1253.1172" cy="818.375" stroke="none"/>
    </g>
    <g text-rendering="geometricPrecision" stroke-miterlimit="1.45" shape-rendering="geometricPrecision" transform="matrix(1,0,0,1,-559,220)" stroke-linecap="butt">
      <ellipse rx="59.5" fill="none" ry="30" clip-path="url(#clipPath2)" cx="1253.1172" cy="818.375"/>
      <text x="1213.4727" xml:space="preserve" y="822.5293" clip-path="url(#clipPath2)" font-family="sans-serif" stroke="none">undetectable</text>
    </g>
    <g fill="url(#linearGradient7)" text-rendering="geometricPrecision" shape-rendering="geometricPrecision" transform="matrix(1,0,0,1,-559,220)" stroke="url(#linearGradient7)">
      <rect x="1167.6797" width="326.5" height="122.25" y="941.5" clip-path="url(#clipPath2)" stroke="none"/>
    </g>
    <g text-rendering="geometricPrecision" stroke-miterlimit="1.45" shape-rendering="geometricPrecision" transform="matrix(1,0,0,1,-559,220)" stroke-linecap="butt">
      <path fill="none" d="M1167.6797 956.7812 L1167.6797 941.5 L1494.1797 941.5 L1494.1797 956.7812" clip-path="url(#clipPath2)"/>
      <text x="1173.6797" xml:space="preserve" y="964.873" clip-path="url(#clipPath2)" font-family="sans-serif" stroke="none">Operational interpretation:</text>
      <text x="1173.6797" xml:space="preserve" y="978.8418" clip-path="url(#clipPath2)" font-family="sans-serif" stroke="none"> </text>
      <text x="1173.6797" xml:space="preserve" y="992.8105" clip-path="url(#clipPath2)" font-family="sans-serif" stroke="none">Running out of resources,</text>
      <text x="1173.6797" xml:space="preserve" y="1006.7793" clip-path="url(#clipPath2)" font-family="sans-serif" stroke="none">or infinite descent because of the program's</text>
      <text x="1173.6797" xml:space="preserve" y="1020.748" clip-path="url(#clipPath2)" font-family="sans-serif" stroke="none">geometry.</text>
      <text x="1173.6797" xml:space="preserve" y="1034.7168" clip-path="url(#clipPath2)" font-family="sans-serif" stroke="none"> </text>
      <text x="1173.6797" xml:space="preserve" y="1048.6855" clip-path="url(#clipPath2)" font-family="sans-serif" stroke="none">Results in program crash.</text>
    </g>
    <g text-rendering="geometricPrecision" stroke-miterlimit="1.45" shape-rendering="geometricPrecision" transform="matrix(1,0,0,1,-559,220)" stroke-linecap="butt">
      <path fill="none" d="M909.2614 443.5244 L1075.5104 247.6965" clip-path="url(#clipPath2)"/>
    </g>
    <g text-rendering="geometricPrecision" stroke-miterlimit="1.45" shape-rendering="geometricPrecision" transform="matrix(1,0,0,1,-559,220)" stroke-linecap="butt">
      <path d="M1080.6879 241.5978 L1069.11 247.5099 L1074.8632 248.4588 L1076.7333 253.9818 Z" stroke="none" clip-path="url(#clipPath2)"/>
      <path fill="none" d="M906.5042 517.5209 L1078.1433 745.0117" clip-path="url(#clipPath2)"/>
      <path d="M1082.9615 751.3979 L1079.7255 738.8071 L1077.541 744.2134 L1071.7427 744.83 Z" clip-path="url(#clipPath2)" stroke="none"/>
      <path fill="none" d="M1156.9729 765.6249 L1192.5635 756.3242" clip-path="url(#clipPath2)"/>
      <path d="M1200.3036 754.3016 L1187.4293 752.498 L1191.5959 756.577 L1189.9576 762.1731 Z" clip-path="url(#clipPath2)" stroke="none"/>
      <path fill="none" d="M1312.5767 741.239 L1313.1921 741.2535 L1342.8672 742.2773 L1372.037 743.7778 L1400.5333 745.9136 L1428.1875 748.8438 L1454.8313 752.727 L1480.2963 757.7222 L1504.4141 763.9883 L1527.0162 771.684 L1547.9343 780.9683 L1567 792 L1584.101 804.885 L1599.3495 819.5173 L1612.9141 835.7383 L1624.963 853.3889 L1635.6647 872.3103 L1645.1875 892.3438 L1653.7 913.3303 L1661.3704 935.1111 L1663.3519 941.4594" clip-path="url(#clipPath2)"/>
      <path fill="none" d="M1156.9729 793.2501 L1192.5635 802.5508" clip-path="url(#clipPath2)"/>
      <path d="M1200.3036 804.5734 L1189.9576 796.7019 L1191.5959 802.298 L1187.4293 806.377 Z" clip-path="url(#clipPath2)" stroke="none"/>
      <path fill="none" d="M1310.8484 825.5752 L1314.676 826.303 L1325.5312 828.9375 L1335.5791 832.1033 L1344.6852 835.8889 L1352.7148 840.3828 L1359.5336 845.6736 L1365.0068 851.8499 L1369 859 L1371.4235 867.1832 L1372.3669 876.3403 L1371.9648 886.3828 L1370.3518 897.2222 L1367.6625 908.77 L1364.0312 920.9375 L1359.5928 933.6363 L1356.528 941.5161" clip-path="url(#clipPath2)"/>
    </g>
    <g fill="rgb(245,245,245)" text-rendering="geometricPrecision" shape-rendering="geometricPrecision" transform="matrix(1,0,0,1,-559,220)" stroke="rgb(245,245,245)">
      <rect x="1361.4647" y="-21.8828" clip-path="url(#clipPath2)" width="779.8478" rx="4" ry="4" height="456.3828" stroke="none"/>
      <rect x="1361.4647" y="-21.8828" clip-path="url(#clipPath2)" fill="rgb(235,235,235)" width="779.8478" height="21.4609" stroke="none"/>
    </g>
    <g font-size="15px" stroke-linecap="butt" transform="matrix(1,0,0,1,-559,220)" text-rendering="geometricPrecision" font-family="sans-serif" shape-rendering="geometricPrecision" stroke-miterlimit="1.45">
      <text x="1883.1479" xml:space="preserve" y="-5.9595" clip-path="url(#clipPath2)" stroke="none">Logical Truth Values on a Bilattice</text>
      <rect x="1361.4647" y="-21.8828" clip-path="url(#clipPath2)" fill="none" width="779.8478" stroke-dasharray="6,2" rx="4" ry="4" height="456.3828"/>
    </g>
    <g fill="url(#linearGradient8)" text-rendering="geometricPrecision" shape-rendering="geometricPrecision" transform="matrix(1,0,0,1,-559,220)" stroke="url(#linearGradient8)">
      <ellipse rx="59.5" ry="30" clip-path="url(#clipPath2)" cx="1470.75" cy="214" stroke="none"/>
    </g>
    <g text-rendering="geometricPrecision" stroke-miterlimit="1.45" shape-rendering="geometricPrecision" transform="matrix(1,0,0,1,-559,220)" stroke-linecap="butt">
      <ellipse rx="59.5" fill="none" ry="30" clip-path="url(#clipPath2)" cx="1470.75" cy="214"/>
      <text x="1441.2422" xml:space="preserve" y="211.1699" clip-path="url(#clipPath2)" font-family="sans-serif" stroke="none">goal truth</text>
      <text x="1437.9668" xml:space="preserve" y="225.1387" clip-path="url(#clipPath2)" font-family="sans-serif" stroke="none">"unknown"</text>
    </g>
    <g fill="url(#linearGradient9)" text-rendering="geometricPrecision" shape-rendering="geometricPrecision" transform="matrix(1,0,0,1,-559,220)" stroke="url(#linearGradient9)">
      <ellipse rx="59.5" ry="30" clip-path="url(#clipPath2)" cx="1651.5625" cy="105" stroke="none"/>
    </g>
    <g text-rendering="geometricPrecision" stroke-miterlimit="1.45" shape-rendering="geometricPrecision" transform="matrix(1,0,0,1,-559,220)" stroke-linecap="butt">
      <ellipse rx="59.5" fill="none" ry="30" clip-path="url(#clipPath2)" cx="1651.5625" cy="105"/>
      <text x="1632.0391" xml:space="preserve" y="102.1699" clip-path="url(#clipPath2)" font-family="sans-serif" stroke="none">goal is</text>
      <text x="1601.4443" xml:space="preserve" y="116.1387" clip-path="url(#clipPath2)" font-family="sans-serif" stroke="none">"true by default"</text>
    </g>
    <g fill="url(#linearGradient10)" text-rendering="geometricPrecision" shape-rendering="geometricPrecision" transform="matrix(1,0,0,1,-559,220)" stroke="url(#linearGradient10)">
      <ellipse rx="59.5" ry="30" clip-path="url(#clipPath2)" cx="1651.5625" cy="321.25" stroke="none"/>
    </g>
    <g text-rendering="geometricPrecision" stroke-miterlimit="1.45" shape-rendering="geometricPrecision" transform="matrix(1,0,0,1,-559,220)" stroke-linecap="butt">
      <ellipse rx="59.5" fill="none" ry="30" clip-path="url(#clipPath2)" cx="1651.5625" cy="321.25"/>
      <text x="1632.0391" xml:space="preserve" y="318.4199" clip-path="url(#clipPath2)" font-family="sans-serif" stroke="none">goal is</text>
      <text x="1599.4844" xml:space="preserve" y="332.3887" clip-path="url(#clipPath2)" font-family="sans-serif" stroke="none">"false by default"</text>
    </g>
    <g fill="url(#linearGradient11)" text-rendering="geometricPrecision" shape-rendering="geometricPrecision" transform="matrix(1,0,0,1,-559,220)" stroke="url(#linearGradient11)">
      <ellipse rx="59.5" ry="30" clip-path="url(#clipPath2)" cx="1906.5625" cy="44.5781" stroke="none"/>
    </g>
    <g text-rendering="geometricPrecision" stroke-miterlimit="1.45" shape-rendering="geometricPrecision" transform="matrix(1,0,0,1,-559,220)" stroke-linecap="butt">
      <ellipse rx="59.5" fill="none" ry="30" clip-path="url(#clipPath2)" cx="1906.5625" cy="44.5781"/>
      <text x="1877.0547" xml:space="preserve" y="41.748" clip-path="url(#clipPath2)" font-family="sans-serif" stroke="none">goal truth</text>
      <text x="1863.1299" xml:space="preserve" y="55.7168" clip-path="url(#clipPath2)" font-family="sans-serif" stroke="none">"actually true"</text>
    </g>
    <g fill="url(#linearGradient12)" text-rendering="geometricPrecision" shape-rendering="geometricPrecision" transform="matrix(1,0,0,1,-559,220)" stroke="url(#linearGradient12)">
      <ellipse rx="59.5" ry="30" clip-path="url(#clipPath2)" cx="2066.8125" cy="214" stroke="none"/>
    </g>
    <g text-rendering="geometricPrecision" stroke-miterlimit="1.45" shape-rendering="geometricPrecision" transform="matrix(1,0,0,1,-559,220)" stroke-linecap="butt">
      <ellipse rx="59.5" fill="none" ry="30" clip-path="url(#clipPath2)" cx="2066.8125" cy="214"/>
      <text x="2037.3047" xml:space="preserve" y="204.1855" clip-path="url(#clipPath2)" font-family="sans-serif" stroke="none">goal truth</text>
      <text x="2050.4238" xml:space="preserve" y="218.1543" clip-path="url(#clipPath2)" font-family="sans-serif" stroke="none">value</text>
      <text x="2030.1416" xml:space="preserve" y="232.123" clip-path="url(#clipPath2)" font-family="sans-serif" stroke="none">"both T &amp; F"</text>
    </g>
    <g fill="url(#linearGradient13)" text-rendering="geometricPrecision" shape-rendering="geometricPrecision" transform="matrix(1,0,0,1,-559,220)" stroke="url(#linearGradient13)">
      <ellipse rx="59.5" ry="30" clip-path="url(#clipPath2)" cx="1906.5625" cy="386.9062" stroke="none"/>
    </g>
    <g text-rendering="geometricPrecision" stroke-miterlimit="1.45" shape-rendering="geometricPrecision" transform="matrix(1,0,0,1,-559,220)" stroke-linecap="butt">
      <ellipse rx="59.5" fill="none" ry="30" clip-path="url(#clipPath2)" cx="1906.5625" cy="386.9062"/>
      <text x="1887.0391" xml:space="preserve" y="384.0762" clip-path="url(#clipPath2)" font-family="sans-serif" stroke="none">goal is</text>
      <text x="1861.1699" xml:space="preserve" y="398.0449" clip-path="url(#clipPath2)" font-family="sans-serif" stroke="none">"actually false"</text>
    </g>
    <g fill="url(#linearGradient14)" text-rendering="geometricPrecision" shape-rendering="geometricPrecision" transform="matrix(1,0,0,1,-559,220)" stroke="url(#linearGradient14)">
      <path d="M1382.7053 397.2437 L1388.946 402.25 L1382.7053 407.2563 L1376.4646 402.25 Z" stroke="none" clip-path="url(#clipPath2)"/>
    </g>
    <g text-rendering="geometricPrecision" stroke-miterlimit="1.45" shape-rendering="geometricPrecision" transform="matrix(1,0,0,1,-559,220)" stroke-linecap="butt">
      <path fill="none" d="M1382.7053 397.2437 L1388.946 402.25 L1382.7053 407.2563 L1376.4646 402.25 Z" clip-path="url(#clipPath2)"/>
    </g>
    <g fill="url(#linearGradient15)" text-rendering="geometricPrecision" shape-rendering="geometricPrecision" transform="matrix(1,0,0,1,-559,220)" stroke="url(#linearGradient15)">
      <path d="M1519.5 398.7798 L1523.8259 402.25 L1519.5 405.7202 L1515.1741 402.25 Z" stroke="none" clip-path="url(#clipPath2)"/>
    </g>
    <g text-rendering="geometricPrecision" stroke-miterlimit="1.45" shape-rendering="geometricPrecision" transform="matrix(1,0,0,1,-559,220)" stroke-linecap="butt">
      <path fill="none" d="M1519.5 398.7798 L1523.8259 402.25 L1519.5 405.7202 L1515.1741 402.25 Z" clip-path="url(#clipPath2)"/>
    </g>
    <g fill="url(#linearGradient16)" text-rendering="geometricPrecision" shape-rendering="geometricPrecision" transform="matrix(1,0,0,1,-559,220)" stroke="url(#linearGradient16)">
      <path d="M1382.7053 333.6403 L1386.9401 337.8708 L1382.7053 342.1013 L1378.4706 337.8708 Z" stroke="none" clip-path="url(#clipPath2)"/>
    </g>
    <g text-rendering="geometricPrecision" stroke-miterlimit="1.45" shape-rendering="geometricPrecision" transform="matrix(1,0,0,1,-559,220)" stroke-linecap="butt">
      <path fill="none" d="M1382.7053 333.6403 L1386.9401 337.8708 L1382.7053 342.1013 L1378.4706 337.8708 Z" clip-path="url(#clipPath2)"/>
    </g>
    <g fill="url(#linearGradient17)" text-rendering="geometricPrecision" shape-rendering="geometricPrecision" transform="matrix(1,0,0,1,-559,220)" stroke="url(#linearGradient17)">
      <rect x="2157.5039" width="194" height="65" y="32.75" clip-path="url(#clipPath2)" stroke="none"/>
    </g>
    <g text-rendering="geometricPrecision" stroke-miterlimit="1.45" shape-rendering="geometricPrecision" transform="matrix(1,0,0,1,-559,220)" stroke-linecap="butt">
      <path fill="none" d="M2181.7539 32.75 L2157.5039 32.75 L2157.5039 97.75 L2181.7539 97.75" clip-path="url(#clipPath2)"/>
      <text x="2192.3887" xml:space="preserve" y="62.4199" clip-path="url(#clipPath2)" font-family="sans-serif" stroke="none">Contradiction: Agent</text>
      <text x="2205.2646" xml:space="preserve" y="76.3887" clip-path="url(#clipPath2)" font-family="sans-serif" stroke="none">knows too much</text>
    </g>
    <g fill="url(#linearGradient18)" text-rendering="geometricPrecision" shape-rendering="geometricPrecision" transform="matrix(1,0,0,1,-559,220)" stroke="url(#linearGradient18)">
      <rect x="2165.8125" width="274" height="83.75" y="-127.0318" clip-path="url(#clipPath2)" stroke="none"/>
    </g>
    <g text-rendering="geometricPrecision" stroke-miterlimit="1.45" shape-rendering="geometricPrecision" transform="matrix(1,0,0,1,-559,220)" stroke-linecap="butt">
      <path fill="none" d="M2200.0625 -127.0318 L2165.8125 -127.0318 L2165.8125 -43.2818 L2200.0625 -43.2818" clip-path="url(#clipPath2)"/>
      <text x="2218.0801" xml:space="preserve" y="-108.94" clip-path="url(#clipPath2)" font-family="sans-serif" stroke="none">"Agents knows p(X) true" as</text>
      <text x="2197.7832" xml:space="preserve" y="-94.9712" clip-path="url(#clipPath2)" font-family="sans-serif" stroke="none">"it is explicitly stated in knowledge</text>
      <text x="2242.9297" xml:space="preserve" y="-81.0025" clip-path="url(#clipPath2)" font-family="sans-serif" stroke="none">base that p(X) true"</text>
      <text x="2300.9053" xml:space="preserve" y="-67.0337" clip-path="url(#clipPath2)" font-family="sans-serif" stroke="none"> </text>
      <text x="2247.5176" xml:space="preserve" y="-53.065" clip-path="url(#clipPath2)" font-family="sans-serif" stroke="none">Strong Affirmation</text>
    </g>
    <g fill="url(#linearGradient19)" text-rendering="geometricPrecision" shape-rendering="geometricPrecision" transform="matrix(1,0,0,1,-559,220)" stroke="url(#linearGradient19)">
      <rect x="1533.3125" width="274" height="65" y="-204.0078" clip-path="url(#clipPath2)" stroke="none"/>
    </g>
    <g text-rendering="geometricPrecision" stroke-miterlimit="1.45" shape-rendering="geometricPrecision" transform="matrix(1,0,0,1,-559,220)" stroke-linecap="butt">
      <path fill="none" d="M1533.3125 -147.1328 L1533.3125 -139.0078 L1807.3125 -139.0078 L1807.3125 -147.1328" clip-path="url(#clipPath2)"/>
      <text x="1568.8135" xml:space="preserve" y="-188.3066" clip-path="url(#clipPath2)" font-family="sans-serif" stroke="none">"Agents assumes p(X) by default"</text>
      <text x="1556.3623" xml:space="preserve" y="-174.3379" clip-path="url(#clipPath2)" font-family="sans-serif" stroke="none">as "there is no evidence against p(X)"</text>
      <text x="1668.4053" xml:space="preserve" y="-160.3691" clip-path="url(#clipPath2)" font-family="sans-serif" stroke="none"> </text>
      <text x="1571.5205" xml:space="preserve" y="-146.4004" clip-path="url(#clipPath2)" font-family="sans-serif" stroke="none">Default/Defeasible Reasoning (?)</text>
    </g>
    <g fill="url(#linearGradient20)" text-rendering="geometricPrecision" shape-rendering="geometricPrecision" transform="matrix(1,0,0,1,-559,220)" stroke="url(#linearGradient20)">
      <rect x="1127.3086" width="169" height="102.5625" y="-59.3828" clip-path="url(#clipPath2)" stroke="none"/>
    </g>
    <g text-rendering="geometricPrecision" stroke-miterlimit="1.45" shape-rendering="geometricPrecision" transform="matrix(1,0,0,1,-559,220)" stroke-linecap="butt">
      <path fill="none" d="M1275.1836 -59.3828 L1296.3086 -59.3828 L1296.3086 43.1797 L1275.1836 43.1797" clip-path="url(#clipPath2)"/>
      <text x="1142.4629" xml:space="preserve" y="-31.8848" clip-path="url(#clipPath2)" font-family="sans-serif" stroke="none">"Agents does not know</text>
      <text x="1151.665" xml:space="preserve" y="-17.916" clip-path="url(#clipPath2)" font-family="sans-serif" stroke="none">whether p(X) is true</text>
      <text x="1141.6602" xml:space="preserve" y="-3.9473" clip-path="url(#clipPath2)" font-family="sans-serif" stroke="none">or whether p(X) is false</text>
      <text x="1141.9033" xml:space="preserve" y="10.0215" clip-path="url(#clipPath2)" font-family="sans-serif" stroke="none">as there is no evidence</text>
      <text x="1177.335" xml:space="preserve" y="23.9902" clip-path="url(#clipPath2)" font-family="sans-serif" stroke="none">either way"</text>
    </g>
    <g fill="url(#linearGradient21)" text-rendering="geometricPrecision" shape-rendering="geometricPrecision" transform="matrix(1,0,0,1,-559,220)" stroke="url(#linearGradient21)">
      <rect x="1568.0625" width="274" height="83.75" y="564.125" clip-path="url(#clipPath2)" stroke="none"/>
    </g>
    <g text-rendering="geometricPrecision" stroke-miterlimit="1.45" shape-rendering="geometricPrecision" transform="matrix(1,0,0,1,-559,220)" stroke-linecap="butt">
      <path fill="none" d="M1568.0625 574.5938 L1568.0625 564.125 L1842.0625 564.125 L1842.0625 574.5938" clip-path="url(#clipPath2)"/>
      <text x="1619.668" xml:space="preserve" y="582.2168" clip-path="url(#clipPath2)" font-family="sans-serif" stroke="none">"Agents assumes p(X) false"</text>
      <text x="1613.2666" xml:space="preserve" y="596.1855" clip-path="url(#clipPath2)" font-family="sans-serif" stroke="none">as "there is no evidence in the</text>
      <text x="1604.0498" xml:space="preserve" y="610.1543" clip-path="url(#clipPath2)" font-family="sans-serif" stroke="none">knowledge base that p(X) is true"</text>
      <text x="1703.1553" xml:space="preserve" y="624.123" clip-path="url(#clipPath2)" font-family="sans-serif" stroke="none"> </text>
      <text x="1641.3447" xml:space="preserve" y="638.0918" clip-path="url(#clipPath2)" font-family="sans-serif" stroke="none">"Negation as Failure"</text>
    </g>
    <g fill="url(#linearGradient22)" text-rendering="geometricPrecision" shape-rendering="geometricPrecision" transform="matrix(1,0,0,1,-559,220)" stroke="url(#linearGradient22)">
      <rect x="1769.5625" width="274" height="83.75" y="455.899" clip-path="url(#clipPath2)" stroke="none"/>
    </g>
    <g text-rendering="geometricPrecision" stroke-miterlimit="1.45" shape-rendering="geometricPrecision" transform="matrix(1,0,0,1,-559,220)" stroke-linecap="butt">
      <path fill="none" d="M1769.5625 466.3677 L1769.5625 455.899 L2043.5625 455.899 L2043.5625 466.3677" clip-path="url(#clipPath2)"/>
      <text x="1819.8701" xml:space="preserve" y="473.9908" clip-path="url(#clipPath2)" font-family="sans-serif" stroke="none">"Agents knows p(X) false" as</text>
      <text x="1785.3232" xml:space="preserve" y="487.9595" clip-path="url(#clipPath2)" font-family="sans-serif" stroke="none">"it is explicitly stated in knowledge base</text>
      <text x="1860.9297" xml:space="preserve" y="501.9283" clip-path="url(#clipPath2)" font-family="sans-serif" stroke="none">that p(X) false"</text>
      <text x="1904.6553" xml:space="preserve" y="515.897" clip-path="url(#clipPath2)" font-family="sans-serif" stroke="none"> </text>
      <text x="1857.5869" xml:space="preserve" y="529.8658" clip-path="url(#clipPath2)" font-family="sans-serif" stroke="none">Strong Negation</text>
    </g>
    <g fill="url(#linearGradient23)" text-rendering="geometricPrecision" shape-rendering="geometricPrecision" transform="matrix(1,0,0,1,-559,220)" stroke="url(#linearGradient23)">
      <rect x="574.4922" width="194" height="65" y="447.5625" clip-path="url(#clipPath2)" stroke="none"/>
    </g>
    <g text-rendering="geometricPrecision" stroke-miterlimit="1.45" shape-rendering="geometricPrecision" transform="matrix(1,0,0,1,-559,220)" stroke-linecap="butt">
      <path fill="none" d="M744.2422 447.5625 L768.4922 447.5625 L768.4922 512.5625 L744.2422 512.5625" clip-path="url(#clipPath2)"/>
      <text x="605.7969" xml:space="preserve" y="477.2324" clip-path="url(#clipPath2)" font-family="sans-serif" stroke="none">This is the truth value</text>
      <text x="594.6904" xml:space="preserve" y="491.2012" clip-path="url(#clipPath2)" font-family="sans-serif" stroke="none">of the goal at query time.</text>
    </g>
    <g fill="url(#linearGradient24)" text-rendering="geometricPrecision" shape-rendering="geometricPrecision" transform="matrix(1,0,0,1,-559,220)" stroke="url(#linearGradient24)">
      <path d="M1177.9609 607.875 L1328.2734 607.875 L1328.2734 647.875 L1177.9609 647.875 Z" stroke="none" clip-path="url(#clipPath2)"/>
    </g>
    <g text-rendering="geometricPrecision" stroke-miterlimit="1.45" shape-rendering="geometricPrecision" transform="matrix(1,0,0,1,-559,220)" stroke-linecap="butt">
      <path fill="none" d="M1177.9609 607.875 L1328.2734 607.875 L1328.2734 647.875 L1177.9609 647.875 Z" clip-path="url(#clipPath2)"/>
      <text x="1213.8096" xml:space="preserve" y="632.0293" clip-path="url(#clipPath2)" font-family="sans-serif" stroke="none">Prolog FALSE</text>
    </g>
    <g fill="url(#linearGradient25)" text-rendering="geometricPrecision" shape-rendering="geometricPrecision" transform="matrix(1,0,0,1,-559,220)" stroke="url(#linearGradient25)">
      <path d="M1469 464.5 L1619.3125 464.5 L1619.3125 504.5 L1469 504.5 Z" stroke="none" clip-path="url(#clipPath2)"/>
    </g>
    <g text-rendering="geometricPrecision" stroke-miterlimit="1.45" shape-rendering="geometricPrecision" transform="matrix(1,0,0,1,-559,220)" stroke-linecap="butt">
      <path fill="none" d="M1469 464.5 L1619.3125 464.5 L1619.3125 504.5 L1469 504.5 Z" clip-path="url(#clipPath2)"/>
      <text x="1504.8486" xml:space="preserve" y="488.6543" clip-path="url(#clipPath2)" font-family="sans-serif" stroke="none">Prolog FALSE</text>
    </g>
    <g fill="url(#linearGradient26)" text-rendering="geometricPrecision" shape-rendering="geometricPrecision" transform="matrix(1,0,0,1,-559,220)" stroke="url(#linearGradient26)">
      <path d="M1871.0625 -191.5078 L2021.375 -191.5078 L2021.375 -151.5078 L1871.0625 -151.5078 Z" stroke="none" clip-path="url(#clipPath2)"/>
    </g>
    <g text-rendering="geometricPrecision" stroke-miterlimit="1.45" shape-rendering="geometricPrecision" transform="matrix(1,0,0,1,-559,220)" stroke-linecap="butt">
      <path fill="none" d="M1871.0625 -191.5078 L2021.375 -191.5078 L2021.375 -151.5078 L1871.0625 -151.5078 Z" clip-path="url(#clipPath2)"/>
      <text x="1909.3926" xml:space="preserve" y="-167.3535" clip-path="url(#clipPath2)" font-family="sans-serif" stroke="none">Prolog TRUE</text>
    </g>
    <g text-rendering="geometricPrecision" stroke-miterlimit="1.45" shape-rendering="geometricPrecision" transform="matrix(1,0,0,1,-559,220)" stroke-linecap="butt">
      <path fill="none" d="M1163.5966 214 L1403.2465 214" clip-path="url(#clipPath2)"/>
      <path d="M1411.2465 214 L1399.2465 209 L1402.2465 214 L1399.2465 219 Z" clip-path="url(#clipPath2)" stroke="none"/>
      <path fill="none" d="M1508.9122 190.9945 L1613.3575 128.0312" stroke-width="4" clip-path="url(#clipPath2)"/>
      <path fill="none" d="M1509.2654 236.8456 L1613.0353 298.3973" stroke-width="4" clip-path="url(#clipPath2)"/>
      <path fill="none" stroke-dasharray="6,2" d="M1619.24 137.7644 L1619.171 137.8368 L1612.96 145.5469 L1604.0516 159.0625 L1597.123 172.5781 L1592.174 186.0938 L1589.2046 199.6094 L1588.2147 213.125 L1589.2046 226.6406 L1592.174 240.1562 L1597.123 253.6719 L1604.0516 267.1875 L1612.96 280.7031 L1619.171 288.4132 L1619.24 288.4856" clip-path="url(#clipPath2)"/>
      <path stroke-dasharray="6,2" d="M1624.2877 131.5579 L1612.837 137.7128 L1618.609 138.5402 L1620.5951 144.0225 Z" clip-path="url(#clipPath2)" stroke="none"/>
      <path stroke-dasharray="6,2" d="M1624.2877 294.692 L1620.5951 282.2275 L1618.609 287.7098 L1612.837 288.5372 Z" clip-path="url(#clipPath2)" stroke="none"/>
      <text x="1548.1307" xml:space="preserve" y="217.2793" clip-path="url(#clipPath2)" font-family="sans-serif" stroke="none">contradictory</text>
      <path fill="none" d="M1705.3827 92.2474 L1852.7067 57.3392" stroke-width="4" clip-path="url(#clipPath2)"/>
      <path fill="none" stroke-dasharray="6,2" d="M1906.5625 74.5567 L1906.5625 120.4695 L1905.9862 135.2436 L1904.2571 148.5194 L1901.3754 160.2968 L1897.3411 170.576 L1892.1539 179.3568 L1885.8141 186.6393 L1878.3217 192.4235 L1869.6765 196.7094 L1861.4797 199.8531 L1843.2328 206.0424 L1825.3777 210.4633 L1807.9148 213.1158 L1790.8438 214 L1783.3438 214 L1774.7443 214.7541 L1765.821 217.0164 L1756.5739 220.7869 L1747.0027 226.0656 L1737.1078 232.8525 L1726.889 241.1477 L1716.3463 250.951 L1705.4797 262.2625 L1681.8386 288.1267" clip-path="url(#clipPath2)"/>
      <path stroke-dasharray="6,2" d="M1676.4413 294.0317 L1688.2279 288.5476 L1682.5133 287.3886 L1680.8467 281.8009 Z" clip-path="url(#clipPath2)" stroke="none"/>
      <text x="1881.9912" xml:space="preserve" y="139.7168" clip-path="url(#clipPath2)" font-family="sans-serif" stroke="none">disables</text>
      <path fill="none" d="M1932.1688 71.6501 L2041.2052 186.9271" stroke-width="4" clip-path="url(#clipPath2)"/>
      <path fill="none" d="M1704.5734 334.899 L1853.5748 373.2632" stroke-width="4" clip-path="url(#clipPath2)"/>
      <path fill="none" d="M1931.7385 359.7419 L2041.651 241.1487" stroke-width="4" clip-path="url(#clipPath2)"/>
      <path fill="none" stroke-dasharray="6,2" d="M1906.5625 356.9322 L1906.5625 298.5797 L1905.6846 281.3645 L1904.5872 273.3955 L1903.0508 265.8524 L1901.0753 258.735 L1898.661 252.0435 L1895.8077 245.7777 L1892.5154 239.9377 L1888.7842 234.5235 L1884.614 229.535 L1880.0048 224.9724 L1874.9567 220.8356 L1869.4695 217.1245 L1863.5433 213.8392 L1857.1783 210.9798 L1850.3743 208.5461 L1837.8882 204.5979 L1824.9108 200.2501 L1814.0728 196.0898 L1805.3741 192.1171 L1798.8147 188.3319 L1794.3948 184.7343 L1792.1141 181.3242 L1791.7761 179.6895 L1791.9729 178.1017 L1793.9709 175.0667 L1796.6978 172.4523 L1797.907 170.9298 L1798.467 169.3034 L1798.3778 167.5731 L1797.6393 165.739 L1794.2145 161.7592 L1788.1929 157.3639 L1779.5741 152.5531 L1768.3584 147.3269 L1754.5457 141.6852 L1738.136 135.6281 L1707.8442 124.9115" clip-path="url(#clipPath2)"/>
      <path stroke-dasharray="6,2" d="M1700.3024 122.2433 L1709.9476 130.9593 L1708.787 125.245 L1713.2828 121.5319 Z" clip-path="url(#clipPath2)" stroke="none"/>
      <text x="1881.9912" xml:space="preserve" y="288.7715" clip-path="url(#clipPath2)" font-family="sans-serif" stroke="none">disables</text>
      <path fill="none" d="M1388.9506 402.25 L1507.1973 402.25" clip-path="url(#clipPath2)"/>
      <path d="M1515.1973 402.25 L1503.1973 397.25 L1506.1973 402.25 L1503.1973 407.25 Z" clip-path="url(#clipPath2)" stroke="none"/>
      <text x="1419.5376" xml:space="preserve" y="399.4199" clip-path="url(#clipPath2)" font-family="sans-serif" stroke="none">knowledge</text>
      <text x="1426.6772" xml:space="preserve" y="413.3887" clip-path="url(#clipPath2)" font-family="sans-serif" stroke="none">ordering</text>
      <path fill="none" d="M1382.7053 397.2518 L1382.7053 350.075" clip-path="url(#clipPath2)"/>
      <path d="M1382.7053 342.075 L1377.7053 354.075 L1382.7053 351.075 L1387.7053 354.075 Z" clip-path="url(#clipPath2)" stroke="none"/>
      <text x="1367.928" xml:space="preserve" y="366.8424" clip-path="url(#clipPath2)" font-family="sans-serif" stroke="none">truth</text>
      <text x="1357.3225" xml:space="preserve" y="380.8112" clip-path="url(#clipPath2)" font-family="sans-serif" stroke="none">ordering</text>
      <path fill="none" stroke-dasharray="6,2" d="M2157.5247 66.704 L2150.6482 67.6969 L2139.8931 70.7555 L2131.0935 75.0375 L2127.427 77.6373 L2124.2495 80.543 L2121.5608 83.7545 L2119.3608 87.2719 L2117.6499 91.0951 L2116.4277 95.2242 L2115.6943 99.6592 L2115.45 104.4 L2115.45 113.1 L2115.1079 122.71 L2114.082 131.9648 L2112.3721 140.8647 L2109.9783 149.4094 L2106.9004 157.599 L2103.1387 165.4336 L2098.6929 172.9131 L2093.7234 179.8151 L2093.6616 179.8937" clip-path="url(#clipPath2)"/>
      <path stroke-dasharray="6,2" d="M2088.7207 186.1856 L2100.0645 179.8358 L2094.2791 179.1072 L2092.1995 173.6597 Z" clip-path="url(#clipPath2)" stroke="none"/>
      <path fill="none" stroke-dasharray="6,2" d="M2165.8137 -83.3469 L2164.6357 -83.2583 L2152.4189 -81.7818 L2142.0105 -79.8833 L2133.4109 -77.563 L2126.6199 -74.8208 L2121.6375 -71.6568 L2118.0125 -68.6568 L2113.4246 -65.4195 L2107.8171 -62.4578 L2101.1902 -59.7717 L2093.5437 -57.361 L2075.1921 -53.3663 L2052.7625 -50.4737 L2041.8875 -49.4331 L2029.8103 -47.7074 L2018.0476 -44.8719 L2006.5995 -40.9265 L1995.4657 -35.8713 L1984.6465 -29.7063 L1974.1417 -22.4315 L1963.9514 -14.0468 L1954.0756 -4.5523 L1938.2236 11.8392" clip-path="url(#clipPath2)"/>
      <path stroke-dasharray="6,2" d="M1932.6622 17.59 L1944.5985 12.4397 L1938.9188 11.1204 L1937.4102 5.488 Z" clip-path="url(#clipPath2)" stroke="none"/>
      <path fill="none" stroke-dasharray="6,2" d="M1694.7557 -139.0476 L1695.37 -136.0678 L1695.3591 -130.4634 L1694.2605 -124.4794 L1692.0739 -118.1158 L1688.7992 -111.3727 L1684.4368 -104.25 L1680.0757 -97.75 L1675.4135 -89.6746 L1671.2395 -80.0734 L1667.5538 -68.9465 L1664.3566 -56.2938 L1661.6476 -42.1152 L1659.427 -26.4109 L1657.6947 -9.1809 L1656.4507 9.575 L1653.5065 67.0504" clip-path="url(#clipPath2)"/>
      <path stroke-dasharray="6,2" d="M1653.0972 75.0399 L1658.7046 63.3114 L1653.5576 66.0517 L1648.7177 62.7998 Z" clip-path="url(#clipPath2)" stroke="none"/>
      <path fill="none" stroke-dasharray="6,2" d="M1296.281 17.8901 L1355.4363 36.0918 L1383.3059 44.9179 L1408.1577 53.3173 L1429.9919 61.2898 L1448.8083 68.8354 L1464.6072 75.9543 L1477.3883 82.6464 L1487.1517 88.9116 L1493.8975 94.75 L1498.5525 99.75 L1503.1193 105.6686 L1506.3459 112.1742 L1508.2324 119.267 L1508.7788 126.9469 L1507.9849 135.2139 L1505.851 144.068 L1502.3768 153.5092 L1497.5625 163.5375 L1489.913 177.9342" clip-path="url(#clipPath2)"/>
      <path stroke-dasharray="6,2" d="M1486.1593 184.9989 L1496.2052 176.7479 L1490.3822 177.0511 L1487.3744 172.0558 Z" clip-path="url(#clipPath2)" stroke="none"/>
      <path fill="none" stroke-dasharray="6,2" d="M1657.1724 351.1084 L1697.1997 564.1508" clip-path="url(#clipPath2)"/>
      <path fill="none" stroke-dasharray="6,2" d="M1906.5625 416.9239 L1906.5625 455.8883" clip-path="url(#clipPath2)"/>
      <path fill="none" d="M768.4819 480.0625 L814.8138 480.0625" clip-path="url(#clipPath2)"/>
      <path fill="none" d="M1253.1172 710.5015 L1253.1172 655.8458" clip-path="url(#clipPath2)"/>
      <path d="M1253.1172 647.8458 L1248.1172 659.8458 L1253.1172 656.8458 L1258.1172 659.8458 Z" clip-path="url(#clipPath2)" stroke="none"/>
      <text x="1258.7305" xml:space="preserve" y="683.3418" clip-path="url(#clipPath2)" font-family="sans-serif" stroke="none">maps to</text>
      <path fill="none" stroke-dasharray="6,2" d="M1627.5078 348.6701 L1626.6562 349.7188 L1622.5068 354.966 L1618.3148 360.4259 L1614.0742 366.1289 L1609.7789 372.1053 L1605.4229 378.3856 L1601 385 L1596.5062 391.9689 L1591.9456 399.272 L1587.3242 406.8789 L1582.6482 414.7593 L1577.9235 422.8827 L1573.1562 431.2188 L1568.3525 439.7371 L1563.5186 448.4074 L1558.6602 457.1992 L1558.4906 457.508" clip-path="url(#clipPath2)"/>
      <path stroke-dasharray="6,2" d="M1554.6407 464.5208 L1564.7985 456.4078 L1558.9718 456.6314 L1556.0326 451.5955 Z" clip-path="url(#clipPath2)" stroke="none"/>
      <text x="1564.0704" xml:space="preserve" y="412.5004" clip-path="url(#clipPath2)" font-family="sans-serif" stroke="none">maps to</text>
      <path fill="none" stroke-dasharray="6,2" d="M1913.7881 14.8217 L1918.3256 -3.8648 L1923.05 -24.8054 L1927.5991 -47.9921 L1931.9727 -73.4248 L1936.1709 -101.1035 L1942.238 -143.615" clip-path="url(#clipPath2)"/>
      <path stroke-dasharray="6,2" d="M1943.3683 -151.5347 L1936.723 -140.3615 L1942.0968 -142.625 L1946.6228 -138.9487 Z" clip-path="url(#clipPath2)" stroke="none"/>
      <text x="1910.2726" xml:space="preserve" y="-86.3574" clip-path="url(#clipPath2)" font-family="sans-serif" stroke="none">maps to</text>
      <path fill="none" stroke-dasharray="6,2" d="M1682.9568 79.4851 L1722.4507 47.3875 L1752.1232 22.0216 L1783.1416 -6.9386 L1815.5056 -39.493 L1849.2156 -75.6418 L1912.6039 -145.5991" clip-path="url(#clipPath2)"/>
      <path stroke-dasharray="6,2" d="M1917.9756 -151.5274 L1906.2129 -145.9922 L1911.9324 -144.858 L1913.6233 -139.2776 Z" clip-path="url(#clipPath2)" stroke="none"/>
      <text x="1828.2898" xml:space="preserve" y="-71.4668" clip-path="url(#clipPath2)" font-family="sans-serif" stroke="none">for</text>
      <text x="1791.5837" xml:space="preserve" y="-57.498" clip-path="url(#clipPath2)" font-family="sans-serif" stroke="none">"deterministic"</text>
      <text x="1804.9519" xml:space="preserve" y="-43.5293" clip-path="url(#clipPath2)" font-family="sans-serif" stroke="none">predicates</text>
    </g>
  </g>
</svg>
