<?xml version="1.0" encoding="UTF-8"?><svg xmlns="http://www.w3.org/2000/svg" xmlns:xlink="http://www.w3.org/1999/xlink" fill-opacity="1" color-rendering="auto" color-interpolation="auto" text-rendering="auto" stroke="black" stroke-linecap="square" width="1398" stroke-miterlimit="10" shape-rendering="auto" stroke-opacity="1" fill="black" stroke-dasharray="none" font-weight="normal" stroke-width="1" height="490" font-family="'Dialog'" font-style="normal" stroke-linejoin="miter" font-size="12px" stroke-dashoffset="0" image-rendering="auto">
  <!--Generated by ySVG 2.5-->
  <defs id="genericDefs"/>
  <g>
    <defs id="defs1">
      <linearGradient x1="547" gradientUnits="userSpaceOnUse" x2="627" y1="331" y2="371" id="linearGradient1" spreadMethod="reflect">
        <stop stop-opacity="1" stop-color="rgb(0,204,255)" offset="0%"/>
        <stop stop-opacity="1" stop-color="rgb(0,204,255)" offset="100%"/>
      </linearGradient>
      <linearGradient x1="735" gradientUnits="userSpaceOnUse" x2="815" y1="331" y2="371" id="linearGradient2" spreadMethod="reflect">
        <stop stop-opacity="1" stop-color="rgb(51,102,255)" offset="0%"/>
        <stop stop-opacity="1" stop-color="rgb(51,102,255)" offset="100%"/>
      </linearGradient>
      <linearGradient x1="735" gradientUnits="userSpaceOnUse" x2="815" y1="558" y2="598" id="linearGradient3" spreadMethod="reflect">
        <stop stop-opacity="1" stop-color="rgb(0,204,255)" offset="0%"/>
        <stop stop-opacity="1" stop-color="rgb(0,204,255)" offset="100%"/>
      </linearGradient>
      <linearGradient x1="1020" gradientUnits="userSpaceOnUse" x2="1100" y1="558" y2="598" id="linearGradient4" spreadMethod="reflect">
        <stop stop-opacity="1" stop-color="rgb(153,204,255)" offset="0%"/>
        <stop stop-opacity="1" stop-color="rgb(153,204,255)" offset="100%"/>
      </linearGradient>
      <linearGradient x1="1246" gradientUnits="userSpaceOnUse" x2="1326" y1="331" y2="371" id="linearGradient5" spreadMethod="reflect">
        <stop stop-opacity="1" stop-color="rgb(153,204,255)" offset="0%"/>
        <stop stop-opacity="1" stop-color="rgb(153,204,255)" offset="100%"/>
      </linearGradient>
      <linearGradient x1="910" gradientUnits="userSpaceOnUse" x2="990" y1="558" y2="598" id="linearGradient6" spreadMethod="reflect">
        <stop stop-opacity="1" stop-color="rgb(232,238,247)" offset="0%"/>
        <stop stop-opacity="1" stop-color="rgb(183,201,227)" offset="100%"/>
      </linearGradient>
      <linearGradient x1="1370" gradientUnits="userSpaceOnUse" x2="1450" y1="558" y2="598" id="linearGradient7" spreadMethod="reflect">
        <stop stop-opacity="1" stop-color="rgb(232,238,247)" offset="0%"/>
        <stop stop-opacity="1" stop-color="rgb(183,201,227)" offset="100%"/>
      </linearGradient>
      <linearGradient x1="822.5" gradientUnits="userSpaceOnUse" x2="902.5" y1="558" y2="598" id="linearGradient8" spreadMethod="reflect">
        <stop stop-opacity="1" stop-color="rgb(232,238,247)" offset="0%"/>
        <stop stop-opacity="1" stop-color="rgb(183,201,227)" offset="100%"/>
      </linearGradient>
      <linearGradient x1="641" gradientUnits="userSpaceOnUse" x2="721" y1="331" y2="371" id="linearGradient9" spreadMethod="reflect">
        <stop stop-opacity="1" stop-color="rgb(232,238,247)" offset="0%"/>
        <stop stop-opacity="1" stop-color="rgb(183,201,227)" offset="100%"/>
      </linearGradient>
      <linearGradient x1="1020" gradientUnits="userSpaceOnUse" x2="1100" y1="331" y2="371" id="linearGradient10" spreadMethod="reflect">
        <stop stop-opacity="1" stop-color="rgb(153,204,255)" offset="0%"/>
        <stop stop-opacity="1" stop-color="rgb(153,204,255)" offset="100%"/>
      </linearGradient>
      <linearGradient x1="1246" gradientUnits="userSpaceOnUse" x2="1326" y1="558" y2="598" id="linearGradient11" spreadMethod="reflect">
        <stop stop-opacity="1" stop-color="rgb(153,204,255)" offset="0%"/>
        <stop stop-opacity="1" stop-color="rgb(153,204,255)" offset="100%"/>
      </linearGradient>
      <linearGradient x1="1464" gradientUnits="userSpaceOnUse" x2="1544" y1="276" y2="316" id="linearGradient12" spreadMethod="reflect">
        <stop stop-opacity="1" stop-color="rgb(232,238,247)" offset="0%"/>
        <stop stop-opacity="1" stop-color="rgb(183,201,227)" offset="100%"/>
      </linearGradient>
      <linearGradient x1="359" gradientUnits="userSpaceOnUse" x2="439" y1="195" y2="235" id="linearGradient13" spreadMethod="reflect">
        <stop stop-opacity="1" stop-color="rgb(0,204,255)" offset="0%"/>
        <stop stop-opacity="1" stop-color="rgb(0,204,255)" offset="100%"/>
      </linearGradient>
      <linearGradient x1="547" gradientUnits="userSpaceOnUse" x2="627" y1="195" y2="235" id="linearGradient14" spreadMethod="reflect">
        <stop stop-opacity="1" stop-color="rgb(51,102,255)" offset="0%"/>
        <stop stop-opacity="1" stop-color="rgb(51,102,255)" offset="100%"/>
      </linearGradient>
      <linearGradient x1="1646.5" gradientUnits="userSpaceOnUse" x2="1726.5" y1="195" y2="235" id="linearGradient15" spreadMethod="reflect">
        <stop stop-opacity="1" stop-color="rgb(153,204,255)" offset="0%"/>
        <stop stop-opacity="1" stop-color="rgb(153,204,255)" offset="100%"/>
      </linearGradient>
      <linearGradient x1="453" gradientUnits="userSpaceOnUse" x2="533" y1="195" y2="235" id="linearGradient16" spreadMethod="reflect">
        <stop stop-opacity="1" stop-color="rgb(232,238,247)" offset="0%"/>
        <stop stop-opacity="1" stop-color="rgb(183,201,227)" offset="100%"/>
      </linearGradient>
      <linearGradient x1="1370" gradientUnits="userSpaceOnUse" x2="1450" y1="195" y2="235" id="linearGradient17" spreadMethod="reflect">
        <stop stop-opacity="1" stop-color="rgb(153,204,255)" offset="0%"/>
        <stop stop-opacity="1" stop-color="rgb(153,204,255)" offset="100%"/>
      </linearGradient>
      <linearGradient x1="1646.5" gradientUnits="userSpaceOnUse" x2="1726.5" y1="138" y2="178" id="linearGradient18" spreadMethod="reflect">
        <stop stop-opacity="1" stop-color="rgb(232,238,247)" offset="0%"/>
        <stop stop-opacity="1" stop-color="rgb(183,201,227)" offset="100%"/>
      </linearGradient>
      <linearGradient x1="1136" gradientUnits="userSpaceOnUse" x2="1216" y1="331" y2="371" id="linearGradient19" spreadMethod="reflect">
        <stop stop-opacity="1" stop-color="rgb(232,238,247)" offset="0%"/>
        <stop stop-opacity="1" stop-color="rgb(183,201,227)" offset="100%"/>
      </linearGradient>
      <linearGradient x1="1487" gradientUnits="userSpaceOnUse" x2="1567" y1="195" y2="235" id="linearGradient20" spreadMethod="reflect">
        <stop stop-opacity="1" stop-color="rgb(232,238,247)" offset="0%"/>
        <stop stop-opacity="1" stop-color="rgb(183,201,227)" offset="100%"/>
      </linearGradient>
      <clipPath clipPathUnits="userSpaceOnUse" id="clipPath1">
        <path d="M0 0 L1398 0 L1398 490 L0 490 L0 0 Z"/>
      </clipPath>
      <clipPath clipPathUnits="userSpaceOnUse" id="clipPath2">
        <path d="M344 123 L1742 123 L1742 613 L344 613 L344 123 Z"/>
      </clipPath>
    </defs>
    <g fill="white" text-rendering="geometricPrecision" shape-rendering="geometricPrecision" transform="translate(-344,-123)" stroke="white">
      <rect x="344" width="1398" height="490" y="123" clip-path="url(#clipPath2)" stroke="none"/>
    </g>
    <g fill="url(#linearGradient1)" text-rendering="geometricPrecision" shape-rendering="geometricPrecision" transform="matrix(1,0,0,1,-344,-123)" stroke="url(#linearGradient1)">
      <path d="M547 331 L627 331 L627 371 L547 371 Z" stroke="none" clip-path="url(#clipPath2)"/>
    </g>
    <g text-rendering="geometricPrecision" stroke-miterlimit="1.45" shape-rendering="geometricPrecision" transform="matrix(1,0,0,1,-344,-123)" stroke-linecap="butt">
      <path fill="none" d="M547 331 L627 331 L627 371 L547 371 Z" clip-path="url(#clipPath2)"/>
      <text x="560.6738" xml:space="preserve" y="355.1543" clip-path="url(#clipPath2)" font-family="sans-serif" stroke="none">middle/0</text>
    </g>
    <g fill="url(#linearGradient2)" text-rendering="geometricPrecision" shape-rendering="geometricPrecision" transform="matrix(1,0,0,1,-344,-123)" stroke="url(#linearGradient2)">
      <path d="M735 331 L815 331 L815 371 L735 371 Z" stroke="none" clip-path="url(#clipPath2)"/>
    </g>
    <g text-rendering="geometricPrecision" stroke-miterlimit="1.45" shape-rendering="geometricPrecision" transform="matrix(1,0,0,1,-344,-123)" stroke-linecap="butt">
      <path fill="none" d="M735 331 L815 331 L815 371 L735 371 Z" clip-path="url(#clipPath2)"/>
      <text x="759.6719" xml:space="preserve" y="355.1543" clip-path="url(#clipPath2)" font-family="sans-serif" stroke="none">reset</text>
    </g>
    <g fill="url(#linearGradient3)" text-rendering="geometricPrecision" shape-rendering="geometricPrecision" transform="matrix(1,0,0,1,-344,-123)" stroke="url(#linearGradient3)">
      <path d="M735 558 L815 558 L815 598 L735 598 Z" stroke="none" clip-path="url(#clipPath2)"/>
    </g>
    <g text-rendering="geometricPrecision" stroke-miterlimit="1.45" shape-rendering="geometricPrecision" transform="matrix(1,0,0,1,-344,-123)" stroke-linecap="butt">
      <path fill="none" d="M735 558 L815 558 L815 598 L735 598 Z" clip-path="url(#clipPath2)"/>
      <text x="752.7578" xml:space="preserve" y="582.1543" clip-path="url(#clipPath2)" font-family="sans-serif" stroke="none">lower/1</text>
    </g>
    <g fill="url(#linearGradient4)" text-rendering="geometricPrecision" shape-rendering="geometricPrecision" transform="matrix(1,0,0,1,-344,-123)" stroke="url(#linearGradient4)">
      <path d="M1020 558 L1100 558 L1100 598 L1020 598 Z" stroke="none" clip-path="url(#clipPath2)"/>
    </g>
    <g text-rendering="geometricPrecision" stroke-miterlimit="1.45" shape-rendering="geometricPrecision" transform="matrix(1,0,0,1,-344,-123)" stroke-linecap="butt">
      <path fill="none" d="M1020 558 L1100 558 L1100 598 L1020 598 Z" clip-path="url(#clipPath2)"/>
      <text x="1038.5811" xml:space="preserve" y="582.1543" clip-path="url(#clipPath2)" font-family="sans-serif" stroke="none">shift(a)</text>
    </g>
    <g fill="url(#linearGradient5)" text-rendering="geometricPrecision" shape-rendering="geometricPrecision" transform="matrix(1,0,0,1,-344,-123)" stroke="url(#linearGradient5)">
      <path d="M1246 331 L1326 331 L1326 371 L1246 371 Z" stroke="none" clip-path="url(#clipPath2)"/>
    </g>
    <g text-rendering="geometricPrecision" stroke-miterlimit="1.45" shape-rendering="geometricPrecision" transform="matrix(1,0,0,1,-344,-123)" stroke-linecap="butt">
      <path fill="none" d="M1246 331 L1326 331 L1326 371 L1246 371 Z" clip-path="url(#clipPath2)"/>
      <text x="1256.9932" xml:space="preserve" y="355.1543" clip-path="url(#clipPath2)" font-family="sans-serif" stroke="none">call(Cont)</text>
    </g>
    <g fill="url(#linearGradient6)" text-rendering="geometricPrecision" shape-rendering="geometricPrecision" transform="matrix(1,0,0,1,-344,-123)" stroke="url(#linearGradient6)">
      <path d="M910 558 L990 558 L990 598 L910 598 Z" stroke="none" clip-path="url(#clipPath2)"/>
    </g>
    <g text-rendering="geometricPrecision" stroke-miterlimit="1.45" shape-rendering="geometricPrecision" transform="matrix(1,0,0,1,-344,-123)" stroke-linecap="butt">
      <path fill="none" d="M910 558 L990 558 L990 598 L910 598 Z" clip-path="url(#clipPath2)"/>
      <text x="920.4224" font-size="10px" y="581.4619" clip-path="url(#clipPath2)" font-family="sans-serif" stroke="none" xml:space="preserve">"Sending a"</text>
    </g>
    <g fill="url(#linearGradient7)" text-rendering="geometricPrecision" shape-rendering="geometricPrecision" transform="matrix(1,0,0,1,-344,-123)" stroke="url(#linearGradient7)">
      <circle r="20" clip-path="url(#clipPath2)" cx="1410" cy="578" stroke="none"/>
    </g>
    <g text-rendering="geometricPrecision" stroke-miterlimit="1.45" shape-rendering="geometricPrecision" transform="matrix(1,0,0,1,-344,-123)" stroke-linecap="butt">
      <circle fill="none" r="20" clip-path="url(#clipPath2)" cx="1410" cy="578"/>
      <text x="1401.6211" font-size="20px" y="584.9238" clip-path="url(#clipPath2)" font-family="sans-serif" stroke="none" xml:space="preserve">✓</text>
    </g>
    <g fill="url(#linearGradient8)" text-rendering="geometricPrecision" shape-rendering="geometricPrecision" transform="matrix(1,0,0,1,-344,-123)" stroke="url(#linearGradient8)">
      <circle r="20" clip-path="url(#clipPath2)" cx="862.5" cy="578" stroke="none"/>
    </g>
    <g text-rendering="geometricPrecision" stroke-miterlimit="1.45" shape-rendering="geometricPrecision" transform="matrix(1,0,0,1,-344,-123)" stroke-linecap="butt">
      <circle fill="none" r="20" clip-path="url(#clipPath2)" cx="862.5" cy="578"/>
      <text x="858.3135" xml:space="preserve" y="582.1543" clip-path="url(#clipPath2)" font-family="sans-serif" stroke="none">:-</text>
    </g>
    <g fill="url(#linearGradient9)" text-rendering="geometricPrecision" shape-rendering="geometricPrecision" transform="matrix(1,0,0,1,-344,-123)" stroke="url(#linearGradient9)">
      <circle r="20" clip-path="url(#clipPath2)" cx="681" cy="351" stroke="none"/>
    </g>
    <g text-rendering="geometricPrecision" stroke-miterlimit="1.45" shape-rendering="geometricPrecision" transform="matrix(1,0,0,1,-344,-123)" stroke-linecap="butt">
      <circle fill="none" r="20" clip-path="url(#clipPath2)" cx="681" cy="351"/>
      <text x="676.8135" xml:space="preserve" y="355.1543" clip-path="url(#clipPath2)" font-family="sans-serif" stroke="none">:-</text>
    </g>
    <g fill="url(#linearGradient10)" text-rendering="geometricPrecision" shape-rendering="geometricPrecision" transform="matrix(1,0,0,1,-344,-123)" stroke="url(#linearGradient10)">
      <path d="M1020 331 L1100 331 L1100 371 L1020 371 Z" stroke="none" clip-path="url(#clipPath2)"/>
    </g>
    <g text-rendering="geometricPrecision" stroke-miterlimit="1.45" shape-rendering="geometricPrecision" transform="matrix(1,0,0,1,-344,-123)" stroke-linecap="butt">
      <path fill="none" d="M1020 331 L1100 331 L1100 371 L1020 371 Z" clip-path="url(#clipPath2)"/>
      <text x="1039.4141" font-size="10px" y="342.8213" clip-path="url(#clipPath2)" font-family="sans-serif" stroke="none" xml:space="preserve">"Back in</text>
      <text x="1030.73" font-size="10px" y="354.4619" clip-path="url(#clipPath2)" font-family="sans-serif" stroke="none" xml:space="preserve">middle with</text>
      <text x="1043.8477" font-size="10px" y="366.1025" clip-path="url(#clipPath2)" font-family="sans-serif" stroke="none" xml:space="preserve">A = a"</text>
    </g>
    <g fill="url(#linearGradient11)" text-rendering="geometricPrecision" shape-rendering="geometricPrecision" transform="matrix(1,0,0,1,-344,-123)" stroke="url(#linearGradient11)">
      <path d="M1246 558 L1326 558 L1326 598 L1246 598 Z" stroke="none" clip-path="url(#clipPath2)"/>
    </g>
    <g text-rendering="geometricPrecision" stroke-miterlimit="1.45" shape-rendering="geometricPrecision" transform="matrix(1,0,0,1,-344,-123)" stroke-linecap="butt">
      <path fill="none" d="M1246 558 L1326 558 L1326 598 L1246 598 Z" clip-path="url(#clipPath2)"/>
      <text x="1265.4141" font-size="10px" y="575.6416" clip-path="url(#clipPath2)" font-family="sans-serif" stroke="none" xml:space="preserve">"Back in</text>
      <text x="1270.0308" font-size="10px" y="587.2822" clip-path="url(#clipPath2)" font-family="sans-serif" stroke="none" xml:space="preserve">lower"</text>
    </g>
    <g fill="url(#linearGradient12)" text-rendering="geometricPrecision" shape-rendering="geometricPrecision" transform="matrix(1,0,0,1,-344,-123)" stroke="url(#linearGradient12)">
      <circle r="20" clip-path="url(#clipPath2)" cx="1504" cy="296" stroke="none"/>
    </g>
    <g stroke-linecap="butt" transform="matrix(1,0,0,1,-344,-123)" fill="silver" text-rendering="geometricPrecision" shape-rendering="geometricPrecision" stroke="silver" stroke-miterlimit="1.45">
      <circle fill="none" r="20" clip-path="url(#clipPath2)" cx="1504" cy="296"/>
    </g>
    <g font-size="20px" stroke-linecap="butt" transform="matrix(1,0,0,1,-344,-123)" text-rendering="geometricPrecision" font-family="sans-serif" shape-rendering="geometricPrecision" stroke-miterlimit="1.45">
      <text x="1495.6211" xml:space="preserve" y="302.9238" clip-path="url(#clipPath2)" stroke="none">✓</text>
    </g>
    <g fill="url(#linearGradient13)" text-rendering="geometricPrecision" shape-rendering="geometricPrecision" transform="matrix(1,0,0,1,-344,-123)" stroke="url(#linearGradient13)">
      <path d="M359 195 L439 195 L439 235 L359 235 Z" stroke="none" clip-path="url(#clipPath2)"/>
    </g>
    <g text-rendering="geometricPrecision" stroke-miterlimit="1.45" shape-rendering="geometricPrecision" transform="matrix(1,0,0,1,-344,-123)" stroke-linecap="butt">
      <path fill="none" d="M359 195 L439 195 L439 235 L359 235 Z" clip-path="url(#clipPath2)"/>
      <text x="375.583" xml:space="preserve" y="219.1543" clip-path="url(#clipPath2)" font-family="sans-serif" stroke="none">upper/0</text>
    </g>
    <g fill="url(#linearGradient14)" text-rendering="geometricPrecision" shape-rendering="geometricPrecision" transform="matrix(1,0,0,1,-344,-123)" stroke="url(#linearGradient14)">
      <path d="M547 195 L627 195 L627 235 L547 235 Z" stroke="none" clip-path="url(#clipPath2)"/>
    </g>
    <g text-rendering="geometricPrecision" stroke-miterlimit="1.45" shape-rendering="geometricPrecision" transform="matrix(1,0,0,1,-344,-123)" stroke-linecap="butt">
      <path fill="none" d="M547 195 L627 195 L627 235 L547 235 Z" clip-path="url(#clipPath2)"/>
      <text x="571.6719" xml:space="preserve" y="219.1543" clip-path="url(#clipPath2)" font-family="sans-serif" stroke="none">reset</text>
    </g>
    <g fill="url(#linearGradient15)" text-rendering="geometricPrecision" shape-rendering="geometricPrecision" transform="matrix(1,0,0,1,-344,-123)" stroke="url(#linearGradient15)">
      <path d="M1646.5 195 L1726.5 195 L1726.5 235 L1646.5 235 Z" stroke="none" clip-path="url(#clipPath2)"/>
    </g>
    <g stroke-linecap="butt" transform="matrix(1,0,0,1,-344,-123)" fill="silver" text-rendering="geometricPrecision" shape-rendering="geometricPrecision" stroke="silver" stroke-miterlimit="1.45">
      <path fill="none" d="M1646.5 195 L1726.5 195 L1726.5 235 L1646.5 235 Z" clip-path="url(#clipPath2)"/>
      <text x="1657.4932" y="219.1543" clip-path="url(#clipPath2)" fill="black" font-family="sans-serif" stroke="none" xml:space="preserve">call(Cont)</text>
    </g>
    <g fill="url(#linearGradient16)" text-rendering="geometricPrecision" shape-rendering="geometricPrecision" transform="matrix(1,0,0,1,-344,-123)" stroke="url(#linearGradient16)">
      <circle r="20" clip-path="url(#clipPath2)" cx="493" cy="215" stroke="none"/>
    </g>
    <g text-rendering="geometricPrecision" stroke-miterlimit="1.45" shape-rendering="geometricPrecision" transform="matrix(1,0,0,1,-344,-123)" stroke-linecap="butt">
      <circle fill="none" r="20" clip-path="url(#clipPath2)" cx="493" cy="215"/>
      <text x="488.8135" xml:space="preserve" y="219.1543" clip-path="url(#clipPath2)" font-family="sans-serif" stroke="none">:-</text>
    </g>
    <g fill="url(#linearGradient17)" text-rendering="geometricPrecision" shape-rendering="geometricPrecision" transform="matrix(1,0,0,1,-344,-123)" stroke="url(#linearGradient17)">
      <path d="M1370 195 L1450 195 L1450 235 L1370 235 Z" stroke="none" clip-path="url(#clipPath2)"/>
    </g>
    <g text-rendering="geometricPrecision" stroke-miterlimit="1.45" shape-rendering="geometricPrecision" transform="matrix(1,0,0,1,-344,-123)" stroke-linecap="butt">
      <path fill="none" d="M1370 195 L1450 195 L1450 235 L1370 235 Z" clip-path="url(#clipPath2)"/>
      <text x="1389.4141" font-size="10px" y="206.8213" clip-path="url(#clipPath2)" font-family="sans-serif" stroke="none" xml:space="preserve">"Back in</text>
      <text x="1383.1543" font-size="10px" y="218.4619" clip-path="url(#clipPath2)" font-family="sans-serif" stroke="none" xml:space="preserve">upper with</text>
      <text x="1394.4116" font-size="10px" y="230.1025" clip-path="url(#clipPath2)" font-family="sans-serif" stroke="none" xml:space="preserve">A = _"</text>
    </g>
    <g fill="url(#linearGradient18)" text-rendering="geometricPrecision" shape-rendering="geometricPrecision" transform="matrix(1,0,0,1,-344,-123)" stroke="url(#linearGradient18)">
      <circle r="20" clip-path="url(#clipPath2)" cx="1686.5" cy="158" stroke="none"/>
    </g>
    <g text-rendering="geometricPrecision" stroke-miterlimit="1.45" shape-rendering="geometricPrecision" transform="matrix(1,0,0,1,-344,-123)" stroke-linecap="butt">
      <circle fill="none" r="20" clip-path="url(#clipPath2)" cx="1686.5" cy="158"/>
      <text x="1678.1211" font-size="20px" y="164.9238" clip-path="url(#clipPath2)" font-family="sans-serif" stroke="none" xml:space="preserve">✓</text>
    </g>
    <g fill="url(#linearGradient19)" text-rendering="geometricPrecision" shape-rendering="geometricPrecision" transform="matrix(1,0,0,1,-344,-123)" stroke="url(#linearGradient19)">
      <path d="M1176 331 L1216 351 L1176 371 L1136 351 Z" stroke="none" clip-path="url(#clipPath2)"/>
    </g>
    <g text-rendering="geometricPrecision" stroke-miterlimit="1.45" shape-rendering="geometricPrecision" transform="matrix(1,0,0,1,-344,-123)" stroke-linecap="butt">
      <path fill="none" d="M1176 331 L1216 351 L1176 371 L1136 351 Z" clip-path="url(#clipPath2)"/>
      <text x="1149.5815" font-size="10px" y="354.4619" clip-path="url(#clipPath2)" font-family="sans-serif" stroke="none" xml:space="preserve">Cont == 0</text>
    </g>
    <g fill="url(#linearGradient20)" text-rendering="geometricPrecision" shape-rendering="geometricPrecision" transform="matrix(1,0,0,1,-344,-123)" stroke="url(#linearGradient20)">
      <path d="M1527 195 L1567 215 L1527 235 L1487 215 Z" stroke="none" clip-path="url(#clipPath2)"/>
    </g>
    <g text-rendering="geometricPrecision" stroke-miterlimit="1.45" shape-rendering="geometricPrecision" transform="matrix(1,0,0,1,-344,-123)" stroke-linecap="butt">
      <path fill="none" d="M1527 195 L1567 215 L1527 235 L1487 215 Z" clip-path="url(#clipPath2)"/>
      <text x="1500.5815" font-size="10px" y="218.4619" clip-path="url(#clipPath2)" font-family="sans-serif" stroke="none" xml:space="preserve">Cont == 0</text>
    </g>
    <g text-rendering="geometricPrecision" stroke-miterlimit="1.45" shape-rendering="geometricPrecision" transform="matrix(1,0,0,1,-344,-123)" stroke-linecap="butt">
      <path fill="none" d="M775 370.9789 L775 550.0106" clip-path="url(#clipPath2)"/>
    </g>
    <g text-rendering="geometricPrecision" stroke-miterlimit="1.45" shape-rendering="geometricPrecision" transform="matrix(1,0,0,1,-344,-123)" stroke-linecap="butt">
      <path d="M775 558.0106 L780 546.0106 L775 549.0106 L770 546.0106 Z" stroke="none" clip-path="url(#clipPath2)"/>
      <path fill="none" d="M989.9878 578 L1011.9686 578" clip-path="url(#clipPath2)"/>
      <path d="M1019.9686 578 L1007.9686 573 L1010.9686 578 L1007.9686 583 Z" clip-path="url(#clipPath2)" stroke="none"/>
      <path fill="none" d="M815.033 578 L834.5212 578" clip-path="url(#clipPath2)"/>
      <path d="M842.5212 578 L830.5212 573 L833.5212 578 L830.5212 583 Z" clip-path="url(#clipPath2)" stroke="none"/>
      <path fill="none" d="M882.5378 578 L901.9773 578" clip-path="url(#clipPath2)"/>
      <path d="M909.9773 578 L897.9773 573 L900.9773 578 L897.9773 583 Z" clip-path="url(#clipPath2)" stroke="none"/>
      <path fill="none" d="M626.9775 351 L652.979 351" clip-path="url(#clipPath2)"/>
      <path d="M660.979 351 L648.979 346 L651.979 351 L648.979 356 Z" clip-path="url(#clipPath2)" stroke="none"/>
      <path fill="none" d="M700.9658 351 L726.9825 351" clip-path="url(#clipPath2)"/>
      <path d="M734.9825 351 L722.9825 346 L725.9825 351 L722.9825 356 Z" clip-path="url(#clipPath2)" stroke="none"/>
      <path fill="none" stroke-dasharray="6,2" d="M814.9738 351 L1020.0098 351" clip-path="url(#clipPath2)"/>
      <path fill="none" d="M1060 558.0211 L1060 380.9895" stroke-width="3" clip-path="url(#clipPath2)"/>
      <path d="M1060 370.9895 L1053.75 385.9895 L1060 382.2395 L1066.25 385.9895 Z" stroke-width="3" clip-path="url(#clipPath2)" stroke="none"/>
      <path fill="none" stroke-dasharray="6,2" d="M1099.9749 578 L1245.9883 578" clip-path="url(#clipPath2)"/>
      <path fill="none" d="M1286 370.9789 L1286 548.0106" stroke-width="3" clip-path="url(#clipPath2)"/>
      <path d="M1286 558.0106 L1292.25 543.0106 L1286 546.7606 L1279.75 543.0106 Z" stroke-width="3" clip-path="url(#clipPath2)" stroke="none"/>
      <path fill="none" d="M1325.9912 578 L1382.0233 578" clip-path="url(#clipPath2)"/>
      <path d="M1390.0233 578 L1378.0233 573 L1381.0233 578 L1378.0233 583 Z" clip-path="url(#clipPath2)" stroke="none"/>
      <path fill="none" d="M587 235.0215 L587 322.9813" clip-path="url(#clipPath2)"/>
      <path d="M587 330.9813 L592 318.9813 L587 321.9813 L582 318.9813 Z" clip-path="url(#clipPath2)" stroke="none"/>
      <path fill="none" d="M438.9775 215 L464.979 215" clip-path="url(#clipPath2)"/>
      <path d="M472.979 215 L460.979 210 L463.979 215 L460.979 220 Z" clip-path="url(#clipPath2)" stroke="none"/>
      <path fill="none" d="M512.9658 215 L538.9825 215" clip-path="url(#clipPath2)"/>
      <path d="M546.9825 215 L534.9825 210 L537.9825 215 L534.9825 220 Z" clip-path="url(#clipPath2)" stroke="none"/>
      <path fill="none" stroke-dasharray="6,2" d="M627.0098 215 L1369.9999 215" clip-path="url(#clipPath2)"/>
      <path fill="none" d="M1410 558.0155 L1410 242.9729" clip-path="url(#clipPath2)"/>
      <path d="M1410 234.9729 L1405 246.9729 L1410 243.9729 L1415 246.9729 Z" clip-path="url(#clipPath2)" stroke="none"/>
      <path fill="none" d="M1100.0166 351 L1127.9678 351" clip-path="url(#clipPath2)"/>
      <path d="M1135.9678 351 L1123.9678 346 L1126.9678 351 L1123.9678 356 Z" clip-path="url(#clipPath2)" stroke="none"/>
      <path fill="none" d="M1176 330.9927 L1176 296 L1476.0205 296" clip-path="url(#clipPath2)" stroke="silver"/>
      <path fill="silver" d="M1484.0205 296 L1472.0205 291 L1475.0205 296 L1472.0205 301 Z" clip-path="url(#clipPath2)" stroke="none"/>
      <text x="1164.7354" xml:space="preserve" y="321.1699" clip-path="url(#clipPath2)" font-family="sans-serif" stroke="none">YES</text>
      <path fill="none" d="M1215.9878 351 L1237.9686 351" clip-path="url(#clipPath2)"/>
      <path d="M1245.9686 351 L1233.9686 346 L1236.9686 351 L1233.9686 356 Z" clip-path="url(#clipPath2)" stroke="none"/>
      <path fill="none" d="M1450.0188 215 L1478.9683 215" clip-path="url(#clipPath2)"/>
      <path d="M1486.9683 215 L1474.9683 210 L1477.9683 215 L1474.9683 220 Z" clip-path="url(#clipPath2)" stroke="none"/>
      <path fill="none" d="M1527 194.9888 L1527 158 L1658.5236 158" clip-path="url(#clipPath2)"/>
      <path d="M1666.5236 158 L1654.5236 153 L1657.5236 158 L1654.5236 163 Z" clip-path="url(#clipPath2)" stroke="none"/>
      <text x="1515.7354" xml:space="preserve" y="185.1699" clip-path="url(#clipPath2)" font-family="sans-serif" stroke="none">YES</text>
      <path fill="none" d="M1566.9918 215 L1638.4987 215" clip-path="url(#clipPath2)" stroke="silver"/>
      <path fill="silver" d="M1646.4987 215 L1634.4987 210 L1637.4987 215 L1634.4987 220 Z" clip-path="url(#clipPath2)" stroke="none"/>
    </g>
  </g>
</svg>
