<?xml version="1.0" encoding="UTF-8"?><svg xmlns="http://www.w3.org/2000/svg" xmlns:xlink="http://www.w3.org/1999/xlink" fill-opacity="1" color-rendering="auto" color-interpolation="auto" text-rendering="auto" stroke="black" stroke-linecap="square" width="459" stroke-miterlimit="10" shape-rendering="auto" stroke-opacity="1" fill="black" stroke-dasharray="none" font-weight="normal" stroke-width="1" height="897" font-family="'Dialog'" font-style="normal" stroke-linejoin="miter" font-size="12px" stroke-dashoffset="0" image-rendering="auto">
  <!--Generated by ySVG 2.5-->
  <defs id="genericDefs"/>
  <g>
    <defs id="defs1">
      <linearGradient x1="1379.0938" gradientUnits="userSpaceOnUse" x2="1459.0938" y1="914.3333" y2="954.3333" id="linearGradient1" spreadMethod="reflect">
        <stop stop-opacity="1" stop-color="red" offset="0%"/>
        <stop stop-opacity="1" stop-color="red" offset="100%"/>
      </linearGradient>
      <clipPath clipPathUnits="userSpaceOnUse" id="clipPath1">
        <path d="M0 0 L459 0 L459 897 L0 897 L0 0 Z"/>
      </clipPath>
      <clipPath clipPathUnits="userSpaceOnUse" id="clipPath2">
        <path d="M1356 73 L1815 73 L1815 970 L1356 970 L1356 73 Z"/>
      </clipPath>
    </defs>
    <g fill="white" text-rendering="geometricPrecision" shape-rendering="geometricPrecision" transform="translate(-1356,-73)" stroke="white">
      <rect x="1356" width="459" height="897" y="73" clip-path="url(#clipPath2)" stroke="none"/>
    </g>
    <g fill="rgb(255,204,0)" text-rendering="geometricPrecision" shape-rendering="geometricPrecision" transform="matrix(1,0,0,1,-1356,-73)" stroke="rgb(255,204,0)">
      <rect x="1646" width="80" height="40" y="88.5" clip-path="url(#clipPath2)" stroke="none"/>
      <rect x="1646" y="88.5" clip-path="url(#clipPath2)" fill="yellow" width="1" height="40" stroke="none"/>
      <rect x="1647" y="88.5" clip-path="url(#clipPath2)" fill="yellow" width="78" height="1" stroke="none"/>
      <rect x="1647" y="127.5" clip-path="url(#clipPath2)" fill="rgb(178,142,0)" width="79" height="1" stroke="none"/>
      <rect x="1725" y="88.5" clip-path="url(#clipPath2)" fill="rgb(178,142,0)" width="1" height="39" stroke="none"/>
    </g>
    <g text-rendering="geometricPrecision" stroke-miterlimit="1.45" shape-rendering="geometricPrecision" font-family="sans-serif" transform="matrix(1,0,0,1,-1356,-73)" stroke-linecap="butt">
      <text x="1662.583" xml:space="preserve" y="112.6543" clip-path="url(#clipPath2)" stroke="none">upper/0</text>
    </g>
    <g fill="rgb(255,204,0)" text-rendering="geometricPrecision" shape-rendering="geometricPrecision" transform="matrix(1,0,0,1,-1356,-73)" stroke="rgb(255,204,0)">
      <rect x="1646" y="166.5" clip-path="url(#clipPath2)" width="80" rx="4" ry="4" height="30" stroke="none"/>
    </g>
    <g text-rendering="geometricPrecision" stroke-miterlimit="1.45" shape-rendering="geometricPrecision" transform="matrix(1,0,0,1,-1356,-73)" stroke-linecap="butt">
      <rect x="1646" y="166.5" clip-path="url(#clipPath2)" fill="none" width="80" rx="4" ry="4" height="30"/>
      <text x="1670.6719" xml:space="preserve" y="185.6543" clip-path="url(#clipPath2)" font-family="sans-serif" stroke="none">reset</text>
    </g>
    <g fill="rgb(255,204,0)" text-rendering="geometricPrecision" shape-rendering="geometricPrecision" transform="matrix(1,0,0,1,-1356,-73)" stroke="rgb(255,204,0)">
      <rect x="1578" width="80" height="40" y="269" clip-path="url(#clipPath2)" stroke="none"/>
      <rect x="1578" y="269" clip-path="url(#clipPath2)" fill="yellow" width="1" height="40" stroke="none"/>
      <rect x="1579" y="269" clip-path="url(#clipPath2)" fill="yellow" width="78" height="1" stroke="none"/>
      <rect x="1579" y="308" clip-path="url(#clipPath2)" fill="rgb(178,142,0)" width="79" height="1" stroke="none"/>
      <rect x="1657" y="269" clip-path="url(#clipPath2)" fill="rgb(178,142,0)" width="1" height="39" stroke="none"/>
    </g>
    <g text-rendering="geometricPrecision" stroke-miterlimit="1.45" shape-rendering="geometricPrecision" font-family="sans-serif" transform="matrix(1,0,0,1,-1356,-73)" stroke-linecap="butt">
      <text x="1591.6738" xml:space="preserve" y="293.1543" clip-path="url(#clipPath2)" stroke="none">middle/0</text>
    </g>
    <g fill="rgb(255,204,0)" text-rendering="geometricPrecision" shape-rendering="geometricPrecision" transform="matrix(1,0,0,1,-1356,-73)" stroke="rgb(255,204,0)">
      <rect x="1578" y="347.5" clip-path="url(#clipPath2)" width="80" rx="4" ry="4" height="30" stroke="none"/>
    </g>
    <g text-rendering="geometricPrecision" stroke-miterlimit="1.45" shape-rendering="geometricPrecision" transform="matrix(1,0,0,1,-1356,-73)" stroke-linecap="butt">
      <rect x="1578" y="347.5" clip-path="url(#clipPath2)" fill="none" width="80" rx="4" ry="4" height="30"/>
      <text x="1602.6719" xml:space="preserve" y="366.6543" clip-path="url(#clipPath2)" font-family="sans-serif" stroke="none">reset</text>
    </g>
    <g fill="rgb(255,204,0)" text-rendering="geometricPrecision" shape-rendering="geometricPrecision" transform="matrix(1,0,0,1,-1356,-73)" stroke="rgb(255,204,0)">
      <rect x="1522.3333" width="80" height="40" y="440" clip-path="url(#clipPath2)" stroke="none"/>
      <rect x="1522.3333" y="440" clip-path="url(#clipPath2)" fill="yellow" width="1" height="40" stroke="none"/>
      <rect x="1523.3333" y="440" clip-path="url(#clipPath2)" fill="yellow" width="78" height="1" stroke="none"/>
      <rect x="1523.3333" y="479" clip-path="url(#clipPath2)" fill="rgb(178,142,0)" width="79" height="1" stroke="none"/>
      <rect x="1601.3333" y="440" clip-path="url(#clipPath2)" fill="rgb(178,142,0)" width="1" height="39" stroke="none"/>
    </g>
    <g text-rendering="geometricPrecision" stroke-miterlimit="1.45" shape-rendering="geometricPrecision" font-family="sans-serif" transform="matrix(1,0,0,1,-1356,-73)" stroke-linecap="butt">
      <text x="1540.0912" xml:space="preserve" y="464.1543" clip-path="url(#clipPath2)" stroke="none">lower/1</text>
    </g>
    <g fill="rgb(255,204,0)" text-rendering="geometricPrecision" shape-rendering="geometricPrecision" transform="matrix(1,0,0,1,-1356,-73)" stroke="rgb(255,204,0)">
      <rect x="1646" width="80" height="40" y="440" clip-path="url(#clipPath2)" stroke="none"/>
      <rect x="1646" y="440" clip-path="url(#clipPath2)" fill="yellow" width="1" height="40" stroke="none"/>
      <rect x="1647" y="440" clip-path="url(#clipPath2)" fill="yellow" width="78" height="1" stroke="none"/>
      <rect x="1647" y="479" clip-path="url(#clipPath2)" fill="rgb(178,142,0)" width="79" height="1" stroke="none"/>
      <rect x="1725" y="440" clip-path="url(#clipPath2)" fill="rgb(178,142,0)" width="1" height="39" stroke="none"/>
    </g>
    <g text-rendering="geometricPrecision" stroke-miterlimit="1.45" shape-rendering="geometricPrecision" font-family="sans-serif" transform="matrix(1,0,0,1,-1356,-73)" stroke-linecap="butt">
      <text x="1656.9932" xml:space="preserve" y="464.1543" clip-path="url(#clipPath2)" stroke="none">call(Cont)</text>
    </g>
    <g fill="rgb(255,204,0)" text-rendering="geometricPrecision" shape-rendering="geometricPrecision" transform="matrix(1,0,0,1,-1356,-73)" stroke="rgb(255,204,0)">
      <rect x="1522.3333" width="80" height="40" y="654.5" clip-path="url(#clipPath2)" stroke="none"/>
      <rect x="1522.3333" y="654.5" clip-path="url(#clipPath2)" fill="yellow" width="1" height="40" stroke="none"/>
      <rect x="1523.3333" y="654.5" clip-path="url(#clipPath2)" fill="yellow" width="78" height="1" stroke="none"/>
      <rect x="1523.3333" y="693.5" clip-path="url(#clipPath2)" fill="rgb(178,142,0)" width="79" height="1" stroke="none"/>
      <rect x="1601.3333" y="654.5" clip-path="url(#clipPath2)" fill="rgb(178,142,0)" width="1" height="39" stroke="none"/>
    </g>
    <g text-rendering="geometricPrecision" stroke-miterlimit="1.45" shape-rendering="geometricPrecision" font-family="sans-serif" transform="matrix(1,0,0,1,-1356,-73)" stroke-linecap="butt">
      <text x="1540.0912" xml:space="preserve" y="678.6543" clip-path="url(#clipPath2)" stroke="none">lower/1</text>
    </g>
    <g fill="rgb(255,204,0)" text-rendering="geometricPrecision" shape-rendering="geometricPrecision" transform="matrix(1,0,0,1,-1356,-73)" stroke="rgb(255,204,0)">
      <rect x="1522.3333" y="535.5833" clip-path="url(#clipPath2)" width="80" rx="4" ry="4" height="30" stroke="none"/>
    </g>
    <g text-rendering="geometricPrecision" stroke-miterlimit="1.45" shape-rendering="geometricPrecision" transform="matrix(1,0,0,1,-1356,-73)" stroke-linecap="butt">
      <rect x="1522.3333" y="535.5833" clip-path="url(#clipPath2)" fill="none" width="80" rx="4" ry="4" height="30"/>
      <text x="1540.9144" xml:space="preserve" y="554.7376" clip-path="url(#clipPath2)" font-family="sans-serif" stroke="none">shift(a)</text>
    </g>
    <g fill="rgb(255,204,0)" text-rendering="geometricPrecision" shape-rendering="geometricPrecision" transform="matrix(1,0,0,1,-1356,-73)" stroke="rgb(255,204,0)">
      <rect x="1522.3333" y="741.1667" clip-path="url(#clipPath2)" width="80" rx="4" ry="4" height="30" stroke="none"/>
    </g>
    <g text-rendering="geometricPrecision" stroke-miterlimit="1.45" shape-rendering="geometricPrecision" transform="matrix(1,0,0,1,-1356,-73)" stroke-linecap="butt">
      <rect x="1522.3333" y="741.1667" clip-path="url(#clipPath2)" fill="none" width="80" rx="4" ry="4" height="30"/>
      <text x="1540.7826" xml:space="preserve" y="760.321" clip-path="url(#clipPath2)" font-family="sans-serif" stroke="none">shift(b)</text>
    </g>
    <g fill="rgb(255,204,0)" text-rendering="geometricPrecision" shape-rendering="geometricPrecision" transform="matrix(1,0,0,1,-1356,-73)" stroke="rgb(255,204,0)">
      <rect x="1720" width="80" height="40" y="269" clip-path="url(#clipPath2)" stroke="none"/>
      <rect x="1720" y="269" clip-path="url(#clipPath2)" fill="yellow" width="1" height="40" stroke="none"/>
      <rect x="1721" y="269" clip-path="url(#clipPath2)" fill="yellow" width="78" height="1" stroke="none"/>
      <rect x="1721" y="308" clip-path="url(#clipPath2)" fill="rgb(178,142,0)" width="79" height="1" stroke="none"/>
      <rect x="1799" y="269" clip-path="url(#clipPath2)" fill="rgb(178,142,0)" width="1" height="39" stroke="none"/>
    </g>
    <g text-rendering="geometricPrecision" stroke-miterlimit="1.45" shape-rendering="geometricPrecision" font-family="sans-serif" transform="matrix(1,0,0,1,-1356,-73)" stroke-linecap="butt">
      <text x="1730.9932" xml:space="preserve" y="293.1543" clip-path="url(#clipPath2)" stroke="none">call(Cont)</text>
    </g>
    <g fill="rgb(255,204,0)" text-rendering="geometricPrecision" shape-rendering="geometricPrecision" transform="matrix(1,0,0,1,-1356,-73)" stroke="rgb(255,204,0)">
      <rect x="1522.3333" width="80" height="40" y="838.6667" clip-path="url(#clipPath2)" stroke="none"/>
      <rect x="1522.3333" y="838.6667" clip-path="url(#clipPath2)" fill="yellow" width="1" height="40" stroke="none"/>
      <rect x="1523.3333" y="838.6667" clip-path="url(#clipPath2)" fill="yellow" width="78" height="1" stroke="none"/>
      <rect x="1523.3333" y="877.6667" clip-path="url(#clipPath2)" fill="rgb(178,142,0)" width="79" height="1" stroke="none"/>
      <rect x="1601.3333" y="838.6667" clip-path="url(#clipPath2)" fill="rgb(178,142,0)" width="1" height="39" stroke="none"/>
    </g>
    <g text-rendering="geometricPrecision" stroke-miterlimit="1.45" shape-rendering="geometricPrecision" font-family="sans-serif" transform="matrix(1,0,0,1,-1356,-73)" stroke-linecap="butt">
      <text x="1540.0912" xml:space="preserve" y="862.821" clip-path="url(#clipPath2)" stroke="none">lower/1</text>
    </g>
    <g fill="rgb(255,204,0)" text-rendering="geometricPrecision" shape-rendering="geometricPrecision" transform="matrix(1,0,0,1,-1356,-73)" stroke="rgb(255,204,0)">
      <rect x="1522.3333" y="919.3333" clip-path="url(#clipPath2)" width="80" rx="4" ry="4" height="30" stroke="none"/>
    </g>
    <g text-rendering="geometricPrecision" stroke-miterlimit="1.45" shape-rendering="geometricPrecision" transform="matrix(1,0,0,1,-1356,-73)" stroke-linecap="butt">
      <rect x="1522.3333" y="919.3333" clip-path="url(#clipPath2)" fill="none" width="80" rx="4" ry="4" height="30"/>
      <text x="1541.2924" xml:space="preserve" y="938.4876" clip-path="url(#clipPath2)" font-family="sans-serif" stroke="none">shift(c)</text>
    </g>
    <g fill="url(#linearGradient1)" text-rendering="geometricPrecision" shape-rendering="geometricPrecision" transform="matrix(1,0,0,1,-1356,-73)" stroke="url(#linearGradient1)">
      <circle r="20" clip-path="url(#clipPath2)" cx="1419.0938" cy="934.3333" stroke="none"/>
    </g>
    <g text-rendering="geometricPrecision" stroke-miterlimit="1.45" shape-rendering="geometricPrecision" transform="matrix(1,0,0,1,-1356,-73)" stroke-linecap="butt">
      <circle fill="none" r="20" clip-path="url(#clipPath2)" cx="1419.0938" cy="934.3333"/>
      <text x="1409.54" xml:space="preserve" y="938.4876" clip-path="url(#clipPath2)" font-family="sans-serif" stroke="none">???</text>
    </g>
    <g text-rendering="geometricPrecision" stroke-miterlimit="1.45" shape-rendering="geometricPrecision" transform="matrix(1,0,0,1,-1356,-73)" stroke-linecap="butt">
      <path fill="none" d="M1686 128.4966 L1686 158.5152" clip-path="url(#clipPath2)"/>
      <path d="M1686 166.5152 L1691 154.5152 L1686 157.5152 L1681 154.5152 Z" clip-path="url(#clipPath2)" stroke="none"/>
      <path fill="none" d="M1676.5205 196.486 L1634.9209 262.2501" clip-path="url(#clipPath2)"/>
      <path d="M1630.6442 269.011 L1641.2848 261.5426 L1635.4554 261.405 L1632.8336 256.1967 Z" clip-path="url(#clipPath2)" stroke="none"/>
      <text x="1637.1752" xml:space="preserve" y="236.9043" clip-path="url(#clipPath2)" font-family="sans-serif" stroke="none">(first)</text>
      <path fill="none" d="M1618 308.99 L1618 339.4764" clip-path="url(#clipPath2)"/>
      <path d="M1618 347.4764 L1623 335.4764 L1618 338.4764 L1613 335.4764 Z" clip-path="url(#clipPath2)" stroke="none"/>
      <path fill="none" d="M1609.4244 377.5201 L1577.7278 433.0367" clip-path="url(#clipPath2)"/>
      <path d="M1573.7612 439.9841 L1584.0532 432.0421 L1578.2236 432.1683 L1575.3689 427.0839 Z" clip-path="url(#clipPath2)" stroke="none"/>
      <text x="1575.1877" xml:space="preserve" y="412.9043" clip-path="url(#clipPath2)" font-family="sans-serif" stroke="none">(first)</text>
      <path fill="none" d="M1628.4756 377.5201 L1667.4639 433.4224" clip-path="url(#clipPath2)"/>
      <path d="M1672.0402 439.9842 L1669.2767 427.2813 L1666.8917 432.6022 L1661.0746 433.0017 Z" clip-path="url(#clipPath2)" stroke="none"/>
      <text x="1614.0397" xml:space="preserve" y="412.9043" clip-path="url(#clipPath2)" font-family="sans-serif" stroke="none">(after reset)</text>
      <path fill="none" d="M1686 479.9913 L1686 594.4167 L1685.375 598.7917 L1683.5 601.9167 L1680.375 603.7917 L1676 604.4167 L1572.3334 604.4167 L1567.9584 605.0417 L1564.8334 606.9167 L1562.9584 610.0417 L1562.3334 614.4167 L1562.3334 646.4811" clip-path="url(#clipPath2)"/>
      <path d="M1562.3334 654.4811 L1567.3334 642.4811 L1562.3334 645.4811 L1557.3334 642.4811 Z" clip-path="url(#clipPath2)" stroke="none"/>
      <path fill="none" d="M1562.3334 480.0363 L1562.3334 527.599" clip-path="url(#clipPath2)"/>
      <path d="M1562.3334 535.599 L1567.3334 523.599 L1562.3334 526.599 L1557.3334 523.599 Z" clip-path="url(#clipPath2)" stroke="none"/>
      <path fill="none" stroke-dasharray="6,2" d="M1562.3334 565.5586 L1562.3334 646.5256" clip-path="url(#clipPath2)"/>
      <path stroke-dasharray="6,2" d="M1562.3334 654.5256 L1567.3334 642.5256 L1562.3334 645.5256 L1557.3334 642.5256 Z" clip-path="url(#clipPath2)" stroke="none"/>
      <path fill="none" d="M1522.3046 550.5833 L1426.3334 550.5833 L1421.9584 549.9583 L1418.8334 548.0833 L1416.9584 544.9583 L1416.3334 540.5833 L1416.3334 372.5 L1416.9584 368.125 L1418.8334 365 L1421.9584 363.125 L1426.3334 362.5 L1569.9719 362.5" clip-path="url(#clipPath2)"/>
      <path d="M1577.9719 362.5 L1565.9719 357.5 L1568.9719 362.5 L1565.9719 367.5 Z" clip-path="url(#clipPath2)" stroke="none"/>
      <path fill="none" d="M1562.3334 694.478 L1562.3334 733.1964" clip-path="url(#clipPath2)"/>
      <path d="M1562.3334 741.1964 L1567.3334 729.1964 L1562.3334 732.1964 L1557.3334 729.1964 Z" clip-path="url(#clipPath2)" stroke="none"/>
      <path fill="none" d="M1522.3009 756.1667 L1381 756.1667 L1376.625 755.5417 L1373.5 753.6667 L1371.625 750.5417 L1371 746.1667 L1371 191.5 L1371.625 187.125 L1373.5 184 L1376.625 182.125 L1381 181.5 L1637.9713 181.5" clip-path="url(#clipPath2)"/>
      <path d="M1645.9713 181.5 L1633.9713 176.5 L1636.9713 181.5 L1633.9713 186.5 Z" clip-path="url(#clipPath2)" stroke="none"/>
      <path fill="none" d="M1696.3159 196.486 L1741.704 262.4214" clip-path="url(#clipPath2)"/>
      <path d="M1746.2401 269.011 L1743.5544 256.2914 L1741.137 261.5977 L1735.3174 261.9616 Z" clip-path="url(#clipPath2)" stroke="none"/>
      <text x="1685.0623" xml:space="preserve" y="236.9043" clip-path="url(#clipPath2)" font-family="sans-serif" stroke="none">(after reset)</text>
      <path fill="none" stroke-dasharray="6,2" d="M1562.3334 771.1563 L1562.3334 838.6265" clip-path="url(#clipPath2)"/>
      <path fill="none" d="M1760 308.989 L1760 799.6667 L1759.375 804.0417 L1757.5 807.1667 L1754.375 809.0417 L1750 809.6667 L1572.3334 809.6667 L1567.9584 810.2917 L1564.8334 812.1667 L1562.9584 815.2917 L1562.3334 819.6667 L1562.3334 830.7126" clip-path="url(#clipPath2)"/>
      <path d="M1562.3334 838.7126 L1567.3334 826.7126 L1562.3334 829.7126 L1557.3334 826.7126 Z" clip-path="url(#clipPath2)" stroke="none"/>
      <path fill="none" d="M1562.3334 878.6548 L1562.3334 911.3534" clip-path="url(#clipPath2)"/>
      <path d="M1562.3334 919.3534 L1567.3334 907.3534 L1562.3334 910.3534 L1557.3334 907.3534 Z" clip-path="url(#clipPath2)" stroke="none"/>
      <path fill="none" d="M1522.3619 934.3333 L1447.0868 934.3333" clip-path="url(#clipPath2)"/>
      <path d="M1439.0868 934.3333 L1451.0868 939.3333 L1448.0868 934.3333 L1451.0868 929.3333 Z" clip-path="url(#clipPath2)" stroke="none"/>
    </g>
  </g>
</svg>
