<?xml version="1.0" encoding="UTF-8"?><svg xmlns="http://www.w3.org/2000/svg" xmlns:xlink="http://www.w3.org/1999/xlink" fill-opacity="1" color-rendering="auto" color-interpolation="auto" text-rendering="auto" stroke="black" stroke-linecap="square" width="1669" stroke-miterlimit="10" shape-rendering="auto" stroke-opacity="1" fill="black" stroke-dasharray="none" font-weight="normal" stroke-width="1" height="817" font-family="'Dialog'" font-style="normal" stroke-linejoin="miter" font-size="12px" stroke-dashoffset="0" image-rendering="auto">
  <!--Generated by ySVG 2.5-->
  <defs id="genericDefs"/>
  <g>
    <defs id="defs1">
      <linearGradient x1="547" gradientUnits="userSpaceOnUse" x2="627" y1="331" y2="371" id="linearGradient1" spreadMethod="reflect">
        <stop stop-opacity="1" stop-color="rgb(0,204,255)" offset="0%"/>
        <stop stop-opacity="1" stop-color="rgb(0,204,255)" offset="100%"/>
      </linearGradient>
      <linearGradient x1="735" gradientUnits="userSpaceOnUse" x2="815" y1="331" y2="371" id="linearGradient2" spreadMethod="reflect">
        <stop stop-opacity="1" stop-color="rgb(51,102,255)" offset="0%"/>
        <stop stop-opacity="1" stop-color="rgb(51,102,255)" offset="100%"/>
      </linearGradient>
      <linearGradient x1="735" gradientUnits="userSpaceOnUse" x2="815" y1="558" y2="598" id="linearGradient3" spreadMethod="reflect">
        <stop stop-opacity="1" stop-color="rgb(0,204,255)" offset="0%"/>
        <stop stop-opacity="1" stop-color="rgb(0,204,255)" offset="100%"/>
      </linearGradient>
      <linearGradient x1="1020" gradientUnits="userSpaceOnUse" x2="1100" y1="558" y2="598" id="linearGradient4" spreadMethod="reflect">
        <stop stop-opacity="1" stop-color="rgb(153,204,255)" offset="0%"/>
        <stop stop-opacity="1" stop-color="rgb(153,204,255)" offset="100%"/>
      </linearGradient>
      <linearGradient x1="1532" gradientUnits="userSpaceOnUse" x2="1612" y1="331" y2="371" id="linearGradient5" spreadMethod="reflect">
        <stop stop-opacity="1" stop-color="rgb(153,204,255)" offset="0%"/>
        <stop stop-opacity="1" stop-color="rgb(153,204,255)" offset="100%"/>
      </linearGradient>
      <linearGradient x1="910" gradientUnits="userSpaceOnUse" x2="990" y1="558" y2="598" id="linearGradient6" spreadMethod="reflect">
        <stop stop-opacity="1" stop-color="rgb(232,238,247)" offset="0%"/>
        <stop stop-opacity="1" stop-color="rgb(183,201,227)" offset="100%"/>
      </linearGradient>
      <linearGradient x1="1912" gradientUnits="userSpaceOnUse" x2="1992" y1="558" y2="598" id="linearGradient7" spreadMethod="reflect">
        <stop stop-opacity="1" stop-color="rgb(232,238,247)" offset="0%"/>
        <stop stop-opacity="1" stop-color="rgb(183,201,227)" offset="100%"/>
      </linearGradient>
      <linearGradient x1="822.5" gradientUnits="userSpaceOnUse" x2="902.5" y1="558" y2="598" id="linearGradient8" spreadMethod="reflect">
        <stop stop-opacity="1" stop-color="rgb(232,238,247)" offset="0%"/>
        <stop stop-opacity="1" stop-color="rgb(183,201,227)" offset="100%"/>
      </linearGradient>
      <linearGradient x1="641" gradientUnits="userSpaceOnUse" x2="721" y1="331" y2="371" id="linearGradient9" spreadMethod="reflect">
        <stop stop-opacity="1" stop-color="rgb(232,238,247)" offset="0%"/>
        <stop stop-opacity="1" stop-color="rgb(183,201,227)" offset="100%"/>
      </linearGradient>
      <linearGradient x1="1020" gradientUnits="userSpaceOnUse" x2="1100" y1="331" y2="371" id="linearGradient10" spreadMethod="reflect">
        <stop stop-opacity="1" stop-color="rgb(153,204,255)" offset="0%"/>
        <stop stop-opacity="1" stop-color="rgb(153,204,255)" offset="100%"/>
      </linearGradient>
      <linearGradient x1="1532" gradientUnits="userSpaceOnUse" x2="1612" y1="558" y2="598" id="linearGradient11" spreadMethod="reflect">
        <stop stop-opacity="1" stop-color="rgb(153,204,255)" offset="0%"/>
        <stop stop-opacity="1" stop-color="rgb(153,204,255)" offset="100%"/>
      </linearGradient>
      <linearGradient x1="1837" gradientUnits="userSpaceOnUse" x2="1917" y1="558" y2="598" id="linearGradient12" spreadMethod="reflect">
        <stop stop-opacity="1" stop-color="rgb(232,238,247)" offset="0%"/>
        <stop stop-opacity="1" stop-color="rgb(183,201,227)" offset="100%"/>
      </linearGradient>
      <linearGradient x1="1912" gradientUnits="userSpaceOnUse" x2="1992" y1="276" y2="316" id="linearGradient13" spreadMethod="reflect">
        <stop stop-opacity="1" stop-color="rgb(232,238,247)" offset="0%"/>
        <stop stop-opacity="1" stop-color="rgb(183,201,227)" offset="100%"/>
      </linearGradient>
      <linearGradient x1="359" gradientUnits="userSpaceOnUse" x2="439" y1="195" y2="235" id="linearGradient14" spreadMethod="reflect">
        <stop stop-opacity="1" stop-color="rgb(0,204,255)" offset="0%"/>
        <stop stop-opacity="1" stop-color="rgb(0,204,255)" offset="100%"/>
      </linearGradient>
      <linearGradient x1="547" gradientUnits="userSpaceOnUse" x2="627" y1="195" y2="235" id="linearGradient15" spreadMethod="reflect">
        <stop stop-opacity="1" stop-color="rgb(51,102,255)" offset="0%"/>
        <stop stop-opacity="1" stop-color="rgb(51,102,255)" offset="100%"/>
      </linearGradient>
      <linearGradient x1="1694.5" gradientUnits="userSpaceOnUse" x2="1774.5" y1="195" y2="235" id="linearGradient16" spreadMethod="reflect">
        <stop stop-opacity="1" stop-color="rgb(153,204,255)" offset="0%"/>
        <stop stop-opacity="1" stop-color="rgb(153,204,255)" offset="100%"/>
      </linearGradient>
      <linearGradient x1="453" gradientUnits="userSpaceOnUse" x2="533" y1="195" y2="235" id="linearGradient17" spreadMethod="reflect">
        <stop stop-opacity="1" stop-color="rgb(232,238,247)" offset="0%"/>
        <stop stop-opacity="1" stop-color="rgb(183,201,227)" offset="100%"/>
      </linearGradient>
      <linearGradient x1="1178" gradientUnits="userSpaceOnUse" x2="1258" y1="195" y2="235" id="linearGradient18" spreadMethod="reflect">
        <stop stop-opacity="1" stop-color="rgb(153,204,255)" offset="0%"/>
        <stop stop-opacity="1" stop-color="rgb(153,204,255)" offset="100%"/>
      </linearGradient>
      <linearGradient x1="1918" gradientUnits="userSpaceOnUse" x2="1998" y1="138" y2="178" id="linearGradient19" spreadMethod="reflect">
        <stop stop-opacity="1" stop-color="rgb(232,238,247)" offset="0%"/>
        <stop stop-opacity="1" stop-color="rgb(183,201,227)" offset="100%"/>
      </linearGradient>
      <linearGradient x1="735" gradientUnits="userSpaceOnUse" x2="815" y1="672" y2="712" id="linearGradient20" spreadMethod="reflect">
        <stop stop-opacity="1" stop-color="rgb(0,204,255)" offset="0%"/>
        <stop stop-opacity="1" stop-color="rgb(0,204,255)" offset="100%"/>
      </linearGradient>
      <linearGradient x1="1178" gradientUnits="userSpaceOnUse" x2="1258" y1="672" y2="712" id="linearGradient21" spreadMethod="reflect">
        <stop stop-opacity="1" stop-color="rgb(153,204,255)" offset="0%"/>
        <stop stop-opacity="1" stop-color="rgb(153,204,255)" offset="100%"/>
      </linearGradient>
      <linearGradient x1="910" gradientUnits="userSpaceOnUse" x2="990" y1="672" y2="712" id="linearGradient22" spreadMethod="reflect">
        <stop stop-opacity="1" stop-color="rgb(232,238,247)" offset="0%"/>
        <stop stop-opacity="1" stop-color="rgb(183,201,227)" offset="100%"/>
      </linearGradient>
      <linearGradient x1="1912" gradientUnits="userSpaceOnUse" x2="1992" y1="672" y2="712" id="linearGradient23" spreadMethod="reflect">
        <stop stop-opacity="1" stop-color="rgb(232,238,247)" offset="0%"/>
        <stop stop-opacity="1" stop-color="rgb(183,201,227)" offset="100%"/>
      </linearGradient>
      <linearGradient x1="822.5" gradientUnits="userSpaceOnUse" x2="902.5" y1="672" y2="712" id="linearGradient24" spreadMethod="reflect">
        <stop stop-opacity="1" stop-color="rgb(232,238,247)" offset="0%"/>
        <stop stop-opacity="1" stop-color="rgb(183,201,227)" offset="100%"/>
      </linearGradient>
      <linearGradient x1="1694.5" gradientUnits="userSpaceOnUse" x2="1774.5" y1="672" y2="712" id="linearGradient25" spreadMethod="reflect">
        <stop stop-opacity="1" stop-color="rgb(153,204,255)" offset="0%"/>
        <stop stop-opacity="1" stop-color="rgb(153,204,255)" offset="100%"/>
      </linearGradient>
      <linearGradient x1="1837" gradientUnits="userSpaceOnUse" x2="1917" y1="672" y2="712" id="linearGradient26" spreadMethod="reflect">
        <stop stop-opacity="1" stop-color="rgb(232,238,247)" offset="0%"/>
        <stop stop-opacity="1" stop-color="rgb(183,201,227)" offset="100%"/>
      </linearGradient>
      <linearGradient x1="735" gradientUnits="userSpaceOnUse" x2="815" y1="785" y2="825" id="linearGradient27" spreadMethod="reflect">
        <stop stop-opacity="1" stop-color="rgb(0,204,255)" offset="0%"/>
        <stop stop-opacity="1" stop-color="rgb(0,204,255)" offset="100%"/>
      </linearGradient>
      <linearGradient x1="1321" gradientUnits="userSpaceOnUse" x2="1401" y1="785" y2="825" id="linearGradient28" spreadMethod="reflect">
        <stop stop-opacity="1" stop-color="rgb(153,204,255)" offset="0%"/>
        <stop stop-opacity="1" stop-color="rgb(153,204,255)" offset="100%"/>
      </linearGradient>
      <linearGradient x1="910" gradientUnits="userSpaceOnUse" x2="990" y1="785" y2="825" id="linearGradient29" spreadMethod="reflect">
        <stop stop-opacity="1" stop-color="rgb(232,238,247)" offset="0%"/>
        <stop stop-opacity="1" stop-color="rgb(183,201,227)" offset="100%"/>
      </linearGradient>
      <linearGradient x1="822.5" gradientUnits="userSpaceOnUse" x2="902.5" y1="785" y2="825" id="linearGradient30" spreadMethod="reflect">
        <stop stop-opacity="1" stop-color="rgb(232,238,247)" offset="0%"/>
        <stop stop-opacity="1" stop-color="rgb(183,201,227)" offset="100%"/>
      </linearGradient>
      <linearGradient x1="1321" gradientUnits="userSpaceOnUse" x2="1401" y1="38" y2="78" id="linearGradient31" spreadMethod="reflect">
        <stop stop-opacity="1" stop-color="red" offset="0%"/>
        <stop stop-opacity="1" stop-color="red" offset="100%"/>
      </linearGradient>
      <linearGradient x1="1422" gradientUnits="userSpaceOnUse" x2="1502" y1="331" y2="371" id="linearGradient32" spreadMethod="reflect">
        <stop stop-opacity="1" stop-color="rgb(232,238,247)" offset="0%"/>
        <stop stop-opacity="1" stop-color="rgb(183,201,227)" offset="100%"/>
      </linearGradient>
      <linearGradient x1="1422" gradientUnits="userSpaceOnUse" x2="1502" y1="195" y2="235" id="linearGradient33" spreadMethod="reflect">
        <stop stop-opacity="1" stop-color="rgb(232,238,247)" offset="0%"/>
        <stop stop-opacity="1" stop-color="rgb(183,201,227)" offset="100%"/>
      </linearGradient>
      <clipPath clipPathUnits="userSpaceOnUse" id="clipPath1">
        <path d="M0 0 L1669 0 L1669 817 L0 817 L0 0 Z"/>
      </clipPath>
      <clipPath clipPathUnits="userSpaceOnUse" id="clipPath2">
        <path d="M344 23 L2013 23 L2013 840 L344 840 L344 23 Z"/>
      </clipPath>
    </defs>
    <g fill="white" text-rendering="geometricPrecision" shape-rendering="geometricPrecision" transform="translate(-344,-23)" stroke="white">
      <rect x="344" width="1669" height="817" y="23" clip-path="url(#clipPath2)" stroke="none"/>
    </g>
    <g fill="url(#linearGradient1)" text-rendering="geometricPrecision" shape-rendering="geometricPrecision" transform="matrix(1,0,0,1,-344,-23)" stroke="url(#linearGradient1)">
      <path d="M547 331 L627 331 L627 371 L547 371 Z" stroke="none" clip-path="url(#clipPath2)"/>
    </g>
    <g text-rendering="geometricPrecision" stroke-miterlimit="1.45" shape-rendering="geometricPrecision" transform="matrix(1,0,0,1,-344,-23)" stroke-linecap="butt">
      <path fill="none" d="M547 331 L627 331 L627 371 L547 371 Z" clip-path="url(#clipPath2)"/>
      <text x="560.6738" xml:space="preserve" y="355.1543" clip-path="url(#clipPath2)" font-family="sans-serif" stroke="none">middle/0</text>
    </g>
    <g fill="url(#linearGradient2)" text-rendering="geometricPrecision" shape-rendering="geometricPrecision" transform="matrix(1,0,0,1,-344,-23)" stroke="url(#linearGradient2)">
      <path d="M735 331 L815 331 L815 371 L735 371 Z" stroke="none" clip-path="url(#clipPath2)"/>
    </g>
    <g text-rendering="geometricPrecision" stroke-miterlimit="1.45" shape-rendering="geometricPrecision" transform="matrix(1,0,0,1,-344,-23)" stroke-linecap="butt">
      <path fill="none" d="M735 331 L815 331 L815 371 L735 371 Z" clip-path="url(#clipPath2)"/>
      <text x="759.6719" xml:space="preserve" y="348.1699" clip-path="url(#clipPath2)" font-family="sans-serif" stroke="none">reset</text>
      <text x="744.543" xml:space="preserve" y="362.1387" clip-path="url(#clipPath2)" font-family="sans-serif" stroke="none">(get Cont)</text>
    </g>
    <g fill="url(#linearGradient3)" text-rendering="geometricPrecision" shape-rendering="geometricPrecision" transform="matrix(1,0,0,1,-344,-23)" stroke="url(#linearGradient3)">
      <path d="M735 558 L815 558 L815 598 L735 598 Z" stroke="none" clip-path="url(#clipPath2)"/>
    </g>
    <g text-rendering="geometricPrecision" stroke-miterlimit="1.45" shape-rendering="geometricPrecision" transform="matrix(1,0,0,1,-344,-23)" stroke-linecap="butt">
      <path fill="none" d="M735 558 L815 558 L815 598 L735 598 Z" clip-path="url(#clipPath2)"/>
      <text x="752.7578" xml:space="preserve" y="582.1543" clip-path="url(#clipPath2)" font-family="sans-serif" stroke="none">lower/1</text>
    </g>
    <g fill="url(#linearGradient4)" text-rendering="geometricPrecision" shape-rendering="geometricPrecision" transform="matrix(1,0,0,1,-344,-23)" stroke="url(#linearGradient4)">
      <path d="M1020 558 L1100 558 L1100 598 L1020 598 Z" stroke="none" clip-path="url(#clipPath2)"/>
    </g>
    <g text-rendering="geometricPrecision" stroke-miterlimit="1.45" shape-rendering="geometricPrecision" transform="matrix(1,0,0,1,-344,-23)" stroke-linecap="butt">
      <path fill="none" d="M1020 558 L1100 558 L1100 598 L1020 598 Z" clip-path="url(#clipPath2)"/>
      <text x="1038.5811" xml:space="preserve" y="582.1543" clip-path="url(#clipPath2)" font-family="sans-serif" stroke="none">shift(a)</text>
    </g>
    <g fill="url(#linearGradient5)" text-rendering="geometricPrecision" shape-rendering="geometricPrecision" transform="matrix(1,0,0,1,-344,-23)" stroke="url(#linearGradient5)">
      <path d="M1532 331 L1612 331 L1612 371 L1532 371 Z" stroke="none" clip-path="url(#clipPath2)"/>
    </g>
    <g text-rendering="geometricPrecision" stroke-miterlimit="1.45" shape-rendering="geometricPrecision" transform="matrix(1,0,0,1,-344,-23)" stroke-linecap="butt">
      <path fill="none" d="M1532 331 L1612 331 L1612 371 L1532 371 Z" clip-path="url(#clipPath2)"/>
      <text x="1542.9932" xml:space="preserve" y="355.1543" clip-path="url(#clipPath2)" font-family="sans-serif" stroke="none">call(Cont)</text>
    </g>
    <g fill="url(#linearGradient6)" text-rendering="geometricPrecision" shape-rendering="geometricPrecision" transform="matrix(1,0,0,1,-344,-23)" stroke="url(#linearGradient6)">
      <path d="M910 558 L990 558 L990 598 L910 598 Z" stroke="none" clip-path="url(#clipPath2)"/>
    </g>
    <g text-rendering="geometricPrecision" stroke-miterlimit="1.45" shape-rendering="geometricPrecision" transform="matrix(1,0,0,1,-344,-23)" stroke-linecap="butt">
      <path fill="none" d="M910 558 L990 558 L990 598 L910 598 Z" clip-path="url(#clipPath2)"/>
      <text x="917.6733" font-size="10px" y="581.4619" clip-path="url(#clipPath2)" font-family="sans-serif" stroke="none" xml:space="preserve">"Sending 'a'"</text>
    </g>
    <g fill="url(#linearGradient7)" text-rendering="geometricPrecision" shape-rendering="geometricPrecision" transform="matrix(1,0,0,1,-344,-23)" stroke="url(#linearGradient7)">
      <circle r="20" clip-path="url(#clipPath2)" cx="1952" cy="578" stroke="none"/>
    </g>
    <g stroke-linecap="butt" transform="matrix(1,0,0,1,-344,-23)" fill="silver" text-rendering="geometricPrecision" shape-rendering="geometricPrecision" stroke="silver" stroke-miterlimit="1.45">
      <circle fill="none" r="20" clip-path="url(#clipPath2)" cx="1952" cy="578"/>
    </g>
    <g font-size="20px" stroke-linecap="butt" transform="matrix(1,0,0,1,-344,-23)" text-rendering="geometricPrecision" font-family="sans-serif" shape-rendering="geometricPrecision" stroke-miterlimit="1.45">
      <text x="1943.6211" xml:space="preserve" y="584.9238" clip-path="url(#clipPath2)" stroke="none">✓</text>
    </g>
    <g fill="url(#linearGradient8)" text-rendering="geometricPrecision" shape-rendering="geometricPrecision" transform="matrix(1,0,0,1,-344,-23)" stroke="url(#linearGradient8)">
      <circle r="20" clip-path="url(#clipPath2)" cx="862.5" cy="578" stroke="none"/>
    </g>
    <g text-rendering="geometricPrecision" stroke-miterlimit="1.45" shape-rendering="geometricPrecision" transform="matrix(1,0,0,1,-344,-23)" stroke-linecap="butt">
      <circle fill="none" r="20" clip-path="url(#clipPath2)" cx="862.5" cy="578"/>
      <text x="858.3135" xml:space="preserve" y="582.1543" clip-path="url(#clipPath2)" font-family="sans-serif" stroke="none">:-</text>
    </g>
    <g fill="url(#linearGradient9)" text-rendering="geometricPrecision" shape-rendering="geometricPrecision" transform="matrix(1,0,0,1,-344,-23)" stroke="url(#linearGradient9)">
      <circle r="20" clip-path="url(#clipPath2)" cx="681" cy="351" stroke="none"/>
    </g>
    <g text-rendering="geometricPrecision" stroke-miterlimit="1.45" shape-rendering="geometricPrecision" transform="matrix(1,0,0,1,-344,-23)" stroke-linecap="butt">
      <circle fill="none" r="20" clip-path="url(#clipPath2)" cx="681" cy="351"/>
      <text x="676.8135" xml:space="preserve" y="355.1543" clip-path="url(#clipPath2)" font-family="sans-serif" stroke="none">:-</text>
    </g>
    <g fill="url(#linearGradient10)" text-rendering="geometricPrecision" shape-rendering="geometricPrecision" transform="matrix(1,0,0,1,-344,-23)" stroke="url(#linearGradient10)">
      <path d="M1020 331 L1100 331 L1100 371 L1020 371 Z" stroke="none" clip-path="url(#clipPath2)"/>
    </g>
    <g text-rendering="geometricPrecision" stroke-miterlimit="1.45" shape-rendering="geometricPrecision" transform="matrix(1,0,0,1,-344,-23)" stroke-linecap="butt">
      <path fill="none" d="M1020 331 L1100 331 L1100 371 L1020 371 Z" clip-path="url(#clipPath2)"/>
      <text x="1039.4141" font-size="10px" y="342.8213" clip-path="url(#clipPath2)" font-family="sans-serif" stroke="none" xml:space="preserve">"Back in</text>
      <text x="1030.73" font-size="10px" y="354.4619" clip-path="url(#clipPath2)" font-family="sans-serif" stroke="none" xml:space="preserve">middle with</text>
      <text x="1043.8477" font-size="10px" y="366.1025" clip-path="url(#clipPath2)" font-family="sans-serif" stroke="none" xml:space="preserve">A = a"</text>
    </g>
    <g fill="url(#linearGradient11)" text-rendering="geometricPrecision" shape-rendering="geometricPrecision" transform="matrix(1,0,0,1,-344,-23)" stroke="url(#linearGradient11)">
      <path d="M1532 558 L1612 558 L1612 598 L1532 598 Z" stroke="none" clip-path="url(#clipPath2)"/>
    </g>
    <g text-rendering="geometricPrecision" stroke-miterlimit="1.45" shape-rendering="geometricPrecision" transform="matrix(1,0,0,1,-344,-23)" stroke-linecap="butt">
      <path fill="none" d="M1532 558 L1612 558 L1612 598 L1532 598 Z" clip-path="url(#clipPath2)"/>
      <text x="1551.4141" font-size="10px" y="575.6416" clip-path="url(#clipPath2)" font-family="sans-serif" stroke="none" xml:space="preserve">"Back in</text>
      <text x="1556.0308" font-size="10px" y="587.2822" clip-path="url(#clipPath2)" font-family="sans-serif" stroke="none" xml:space="preserve">lower"</text>
    </g>
    <g fill="url(#linearGradient12)" text-rendering="geometricPrecision" shape-rendering="geometricPrecision" transform="matrix(1,0,0,1,-344,-23)" stroke="url(#linearGradient12)">
      <path d="M1857 558 L1897 558 L1897 578 L1877 598 L1857 578 Z" stroke="none" clip-path="url(#clipPath2)"/>
    </g>
    <g text-rendering="geometricPrecision" stroke-miterlimit="1.45" shape-rendering="geometricPrecision" transform="matrix(1,0,0,1,-344,-23)" stroke-linecap="butt">
      <path fill="none" d="M1857 558 L1897 558 L1897 578 L1877 598 L1857 578 Z" clip-path="url(#clipPath2)"/>
      <text x="1861.2734" xml:space="preserve" y="582.1543" clip-path="url(#clipPath2)" font-family="sans-serif" stroke="none">recur</text>
    </g>
    <g fill="url(#linearGradient13)" text-rendering="geometricPrecision" shape-rendering="geometricPrecision" transform="matrix(1,0,0,1,-344,-23)" stroke="url(#linearGradient13)">
      <circle r="20" clip-path="url(#clipPath2)" cx="1952" cy="296" stroke="none"/>
    </g>
    <g stroke-linecap="butt" transform="matrix(1,0,0,1,-344,-23)" fill="silver" text-rendering="geometricPrecision" shape-rendering="geometricPrecision" stroke="silver" stroke-miterlimit="1.45">
      <circle fill="none" r="20" clip-path="url(#clipPath2)" cx="1952" cy="296"/>
    </g>
    <g font-size="20px" stroke-linecap="butt" transform="matrix(1,0,0,1,-344,-23)" text-rendering="geometricPrecision" font-family="sans-serif" shape-rendering="geometricPrecision" stroke-miterlimit="1.45">
      <text x="1943.6211" xml:space="preserve" y="302.9238" clip-path="url(#clipPath2)" stroke="none">✓</text>
    </g>
    <g fill="url(#linearGradient14)" text-rendering="geometricPrecision" shape-rendering="geometricPrecision" transform="matrix(1,0,0,1,-344,-23)" stroke="url(#linearGradient14)">
      <path d="M359 195 L439 195 L439 235 L359 235 Z" stroke="none" clip-path="url(#clipPath2)"/>
    </g>
    <g text-rendering="geometricPrecision" stroke-miterlimit="1.45" shape-rendering="geometricPrecision" transform="matrix(1,0,0,1,-344,-23)" stroke-linecap="butt">
      <path fill="none" d="M359 195 L439 195 L439 235 L359 235 Z" clip-path="url(#clipPath2)"/>
      <text x="375.583" xml:space="preserve" y="219.1543" clip-path="url(#clipPath2)" font-family="sans-serif" stroke="none">upper/0</text>
    </g>
    <g fill="url(#linearGradient15)" text-rendering="geometricPrecision" shape-rendering="geometricPrecision" transform="matrix(1,0,0,1,-344,-23)" stroke="url(#linearGradient15)">
      <path d="M547 195 L627 195 L627 235 L547 235 Z" stroke="none" clip-path="url(#clipPath2)"/>
    </g>
    <g text-rendering="geometricPrecision" stroke-miterlimit="1.45" shape-rendering="geometricPrecision" transform="matrix(1,0,0,1,-344,-23)" stroke-linecap="butt">
      <path fill="none" d="M547 195 L627 195 L627 235 L547 235 Z" clip-path="url(#clipPath2)"/>
      <text x="571.6719" xml:space="preserve" y="212.1699" clip-path="url(#clipPath2)" font-family="sans-serif" stroke="none">reset</text>
      <text x="556.543" xml:space="preserve" y="226.1387" clip-path="url(#clipPath2)" font-family="sans-serif" stroke="none">(get Cont)</text>
    </g>
    <g fill="url(#linearGradient16)" text-rendering="geometricPrecision" shape-rendering="geometricPrecision" transform="matrix(1,0,0,1,-344,-23)" stroke="url(#linearGradient16)">
      <path d="M1694.5 195 L1774.5 195 L1774.5 235 L1694.5 235 Z" stroke="none" clip-path="url(#clipPath2)"/>
    </g>
    <g text-rendering="geometricPrecision" stroke-miterlimit="1.45" shape-rendering="geometricPrecision" transform="matrix(1,0,0,1,-344,-23)" stroke-linecap="butt">
      <path fill="none" d="M1694.5 195 L1774.5 195 L1774.5 235 L1694.5 235 Z" clip-path="url(#clipPath2)"/>
      <text x="1705.4932" xml:space="preserve" y="219.1543" clip-path="url(#clipPath2)" font-family="sans-serif" stroke="none">call(Cont)</text>
    </g>
    <g fill="url(#linearGradient17)" text-rendering="geometricPrecision" shape-rendering="geometricPrecision" transform="matrix(1,0,0,1,-344,-23)" stroke="url(#linearGradient17)">
      <circle r="20" clip-path="url(#clipPath2)" cx="493" cy="215" stroke="none"/>
    </g>
    <g text-rendering="geometricPrecision" stroke-miterlimit="1.45" shape-rendering="geometricPrecision" transform="matrix(1,0,0,1,-344,-23)" stroke-linecap="butt">
      <circle fill="none" r="20" clip-path="url(#clipPath2)" cx="493" cy="215"/>
      <text x="488.8135" xml:space="preserve" y="219.1543" clip-path="url(#clipPath2)" font-family="sans-serif" stroke="none">:-</text>
    </g>
    <g fill="url(#linearGradient18)" text-rendering="geometricPrecision" shape-rendering="geometricPrecision" transform="matrix(1,0,0,1,-344,-23)" stroke="url(#linearGradient18)">
      <path d="M1178 195 L1258 195 L1258 235 L1178 235 Z" stroke="none" clip-path="url(#clipPath2)"/>
    </g>
    <g text-rendering="geometricPrecision" stroke-miterlimit="1.45" shape-rendering="geometricPrecision" transform="matrix(1,0,0,1,-344,-23)" stroke-linecap="butt">
      <path fill="none" d="M1178 195 L1258 195 L1258 235 L1178 235 Z" clip-path="url(#clipPath2)"/>
      <text x="1197.4141" font-size="10px" y="206.8213" clip-path="url(#clipPath2)" font-family="sans-serif" stroke="none" xml:space="preserve">"Back in</text>
      <text x="1191.1543" font-size="10px" y="218.4619" clip-path="url(#clipPath2)" font-family="sans-serif" stroke="none" xml:space="preserve">upper with</text>
      <text x="1201.7378" font-size="10px" y="230.1025" clip-path="url(#clipPath2)" font-family="sans-serif" stroke="none" xml:space="preserve">A = b"</text>
    </g>
    <g fill="url(#linearGradient19)" text-rendering="geometricPrecision" shape-rendering="geometricPrecision" transform="matrix(1,0,0,1,-344,-23)" stroke="url(#linearGradient19)">
      <circle r="20" clip-path="url(#clipPath2)" cx="1958" cy="158" stroke="none"/>
    </g>
    <g stroke-linecap="butt" transform="matrix(1,0,0,1,-344,-23)" fill="silver" text-rendering="geometricPrecision" shape-rendering="geometricPrecision" stroke="silver" stroke-miterlimit="1.45">
      <circle fill="none" r="20" clip-path="url(#clipPath2)" cx="1958" cy="158"/>
    </g>
    <g font-size="20px" stroke-linecap="butt" transform="matrix(1,0,0,1,-344,-23)" text-rendering="geometricPrecision" font-family="sans-serif" shape-rendering="geometricPrecision" stroke-miterlimit="1.45">
      <text x="1949.6211" xml:space="preserve" y="164.9238" clip-path="url(#clipPath2)" stroke="none">✓</text>
    </g>
    <g fill="url(#linearGradient20)" text-rendering="geometricPrecision" shape-rendering="geometricPrecision" transform="matrix(1,0,0,1,-344,-23)" stroke="url(#linearGradient20)">
      <path d="M735 672 L815 672 L815 712 L735 712 Z" stroke="none" clip-path="url(#clipPath2)"/>
    </g>
    <g text-rendering="geometricPrecision" stroke-miterlimit="1.45" shape-rendering="geometricPrecision" transform="matrix(1,0,0,1,-344,-23)" stroke-linecap="butt">
      <path fill="none" d="M735 672 L815 672 L815 712 L735 712 Z" clip-path="url(#clipPath2)"/>
      <text x="752.7578" xml:space="preserve" y="696.1543" clip-path="url(#clipPath2)" font-family="sans-serif" stroke="none">lower/1</text>
    </g>
    <g fill="url(#linearGradient21)" text-rendering="geometricPrecision" shape-rendering="geometricPrecision" transform="matrix(1,0,0,1,-344,-23)" stroke="url(#linearGradient21)">
      <path d="M1178 672 L1258 672 L1258 712 L1178 712 Z" stroke="none" clip-path="url(#clipPath2)"/>
    </g>
    <g text-rendering="geometricPrecision" stroke-miterlimit="1.45" shape-rendering="geometricPrecision" transform="matrix(1,0,0,1,-344,-23)" stroke-linecap="butt">
      <path fill="none" d="M1178 672 L1258 672 L1258 712 L1178 712 Z" clip-path="url(#clipPath2)"/>
      <text x="1196.4492" xml:space="preserve" y="696.1543" clip-path="url(#clipPath2)" font-family="sans-serif" stroke="none">shift(b)</text>
    </g>
    <g fill="url(#linearGradient22)" text-rendering="geometricPrecision" shape-rendering="geometricPrecision" transform="matrix(1,0,0,1,-344,-23)" stroke="url(#linearGradient22)">
      <path d="M910 672 L990 672 L990 712 L910 712 Z" stroke="none" clip-path="url(#clipPath2)"/>
    </g>
    <g text-rendering="geometricPrecision" stroke-miterlimit="1.45" shape-rendering="geometricPrecision" transform="matrix(1,0,0,1,-344,-23)" stroke-linecap="butt">
      <path fill="none" d="M910 672 L990 672 L990 712 L910 712 Z" clip-path="url(#clipPath2)"/>
      <text x="917.5635" font-size="10px" y="695.4619" clip-path="url(#clipPath2)" font-family="sans-serif" stroke="none" xml:space="preserve">"Sending 'b'"</text>
    </g>
    <g fill="url(#linearGradient23)" text-rendering="geometricPrecision" shape-rendering="geometricPrecision" transform="matrix(1,0,0,1,-344,-23)" stroke="url(#linearGradient23)">
      <circle r="20" clip-path="url(#clipPath2)" cx="1952" cy="692" stroke="none"/>
    </g>
    <g stroke-linecap="butt" transform="matrix(1,0,0,1,-344,-23)" fill="silver" text-rendering="geometricPrecision" shape-rendering="geometricPrecision" stroke="silver" stroke-miterlimit="1.45">
      <circle fill="none" r="20" clip-path="url(#clipPath2)" cx="1952" cy="692"/>
    </g>
    <g font-size="20px" stroke-linecap="butt" transform="matrix(1,0,0,1,-344,-23)" text-rendering="geometricPrecision" font-family="sans-serif" shape-rendering="geometricPrecision" stroke-miterlimit="1.45">
      <text x="1943.6211" xml:space="preserve" y="698.9238" clip-path="url(#clipPath2)" stroke="none">✓</text>
    </g>
    <g fill="url(#linearGradient24)" text-rendering="geometricPrecision" shape-rendering="geometricPrecision" transform="matrix(1,0,0,1,-344,-23)" stroke="url(#linearGradient24)">
      <circle r="20" clip-path="url(#clipPath2)" cx="862.5" cy="692" stroke="none"/>
    </g>
    <g text-rendering="geometricPrecision" stroke-miterlimit="1.45" shape-rendering="geometricPrecision" transform="matrix(1,0,0,1,-344,-23)" stroke-linecap="butt">
      <circle fill="none" r="20" clip-path="url(#clipPath2)" cx="862.5" cy="692"/>
      <text x="858.3135" xml:space="preserve" y="696.1543" clip-path="url(#clipPath2)" font-family="sans-serif" stroke="none">:-</text>
    </g>
    <g fill="url(#linearGradient25)" text-rendering="geometricPrecision" shape-rendering="geometricPrecision" transform="matrix(1,0,0,1,-344,-23)" stroke="url(#linearGradient25)">
      <path d="M1694.5 672 L1774.5 672 L1774.5 712 L1694.5 712 Z" stroke="none" clip-path="url(#clipPath2)"/>
    </g>
    <g text-rendering="geometricPrecision" stroke-miterlimit="1.45" shape-rendering="geometricPrecision" transform="matrix(1,0,0,1,-344,-23)" stroke-linecap="butt">
      <path fill="none" d="M1694.5 672 L1774.5 672 L1774.5 712 L1694.5 712 Z" clip-path="url(#clipPath2)"/>
      <text x="1713.9141" font-size="10px" y="689.6416" clip-path="url(#clipPath2)" font-family="sans-serif" stroke="none" xml:space="preserve">"Back in</text>
      <text x="1718.5308" font-size="10px" y="701.2822" clip-path="url(#clipPath2)" font-family="sans-serif" stroke="none" xml:space="preserve">lower"</text>
    </g>
    <g fill="url(#linearGradient26)" text-rendering="geometricPrecision" shape-rendering="geometricPrecision" transform="matrix(1,0,0,1,-344,-23)" stroke="url(#linearGradient26)">
      <path d="M1857 672 L1897 672 L1897 692 L1877 712 L1857 692 Z" stroke="none" clip-path="url(#clipPath2)"/>
    </g>
    <g text-rendering="geometricPrecision" stroke-miterlimit="1.45" shape-rendering="geometricPrecision" transform="matrix(1,0,0,1,-344,-23)" stroke-linecap="butt">
      <path fill="none" d="M1857 672 L1897 672 L1897 692 L1877 712 L1857 692 Z" clip-path="url(#clipPath2)"/>
      <text x="1867.543" xml:space="preserve" y="696.1543" clip-path="url(#clipPath2)" font-family="sans-serif" stroke="none">rec</text>
    </g>
    <g fill="url(#linearGradient27)" text-rendering="geometricPrecision" shape-rendering="geometricPrecision" transform="matrix(1,0,0,1,-344,-23)" stroke="url(#linearGradient27)">
      <path d="M735 785 L815 785 L815 825 L735 825 Z" stroke="none" clip-path="url(#clipPath2)"/>
    </g>
    <g text-rendering="geometricPrecision" stroke-miterlimit="1.45" shape-rendering="geometricPrecision" transform="matrix(1,0,0,1,-344,-23)" stroke-linecap="butt">
      <path fill="none" d="M735 785 L815 785 L815 825 L735 825 Z" clip-path="url(#clipPath2)"/>
      <text x="752.7578" xml:space="preserve" y="809.1543" clip-path="url(#clipPath2)" font-family="sans-serif" stroke="none">lower/1</text>
    </g>
    <g fill="url(#linearGradient28)" text-rendering="geometricPrecision" shape-rendering="geometricPrecision" transform="matrix(1,0,0,1,-344,-23)" stroke="url(#linearGradient28)">
      <path d="M1321 785 L1401 785 L1401 825 L1321 825 Z" stroke="none" clip-path="url(#clipPath2)"/>
    </g>
    <g text-rendering="geometricPrecision" stroke-miterlimit="1.45" shape-rendering="geometricPrecision" transform="matrix(1,0,0,1,-344,-23)" stroke-linecap="butt">
      <path fill="none" d="M1321 785 L1401 785 L1401 825 L1321 825 Z" clip-path="url(#clipPath2)"/>
      <text x="1339.959" xml:space="preserve" y="809.1543" clip-path="url(#clipPath2)" font-family="sans-serif" stroke="none">shift(c)</text>
    </g>
    <g fill="url(#linearGradient29)" text-rendering="geometricPrecision" shape-rendering="geometricPrecision" transform="matrix(1,0,0,1,-344,-23)" stroke="url(#linearGradient29)">
      <path d="M910 785 L990 785 L990 825 L910 825 Z" stroke="none" clip-path="url(#clipPath2)"/>
    </g>
    <g text-rendering="geometricPrecision" stroke-miterlimit="1.45" shape-rendering="geometricPrecision" transform="matrix(1,0,0,1,-344,-23)" stroke-linecap="butt">
      <path fill="none" d="M910 785 L990 785 L990 825 L910 825 Z" clip-path="url(#clipPath2)"/>
      <text x="917.9883" font-size="10px" y="808.4619" clip-path="url(#clipPath2)" font-family="sans-serif" stroke="none" xml:space="preserve">"Sending 'c'"</text>
    </g>
    <g fill="url(#linearGradient30)" text-rendering="geometricPrecision" shape-rendering="geometricPrecision" transform="matrix(1,0,0,1,-344,-23)" stroke="url(#linearGradient30)">
      <circle r="20" clip-path="url(#clipPath2)" cx="862.5" cy="805" stroke="none"/>
    </g>
    <g text-rendering="geometricPrecision" stroke-miterlimit="1.45" shape-rendering="geometricPrecision" transform="matrix(1,0,0,1,-344,-23)" stroke-linecap="butt">
      <circle fill="none" r="20" clip-path="url(#clipPath2)" cx="862.5" cy="805"/>
      <text x="858.3135" xml:space="preserve" y="809.1543" clip-path="url(#clipPath2)" font-family="sans-serif" stroke="none">:-</text>
    </g>
    <g fill="url(#linearGradient31)" text-rendering="geometricPrecision" shape-rendering="geometricPrecision" transform="matrix(1,0,0,1,-344,-23)" stroke="url(#linearGradient31)">
      <circle r="20" clip-path="url(#clipPath2)" cx="1361" cy="58" stroke="none"/>
    </g>
    <g text-rendering="geometricPrecision" stroke-miterlimit="1.45" shape-rendering="geometricPrecision" transform="matrix(1,0,0,1,-344,-23)" stroke-linecap="butt">
      <circle fill="none" r="20" clip-path="url(#clipPath2)" cx="1361" cy="58"/>
      <text x="1351.4463" xml:space="preserve" y="62.1543" clip-path="url(#clipPath2)" font-family="sans-serif" stroke="none">???</text>
    </g>
    <g fill="url(#linearGradient32)" text-rendering="geometricPrecision" shape-rendering="geometricPrecision" transform="matrix(1,0,0,1,-344,-23)" stroke="url(#linearGradient32)">
      <path d="M1462 331 L1502 351 L1462 371 L1422 351 Z" stroke="none" clip-path="url(#clipPath2)"/>
    </g>
    <g text-rendering="geometricPrecision" stroke-miterlimit="1.45" shape-rendering="geometricPrecision" transform="matrix(1,0,0,1,-344,-23)" stroke-linecap="butt">
      <path fill="none" d="M1462 331 L1502 351 L1462 371 L1422 351 Z" clip-path="url(#clipPath2)"/>
      <text x="1435.5815" font-size="10px" y="354.4619" clip-path="url(#clipPath2)" font-family="sans-serif" stroke="none" xml:space="preserve">Cont == 0</text>
    </g>
    <g fill="url(#linearGradient33)" text-rendering="geometricPrecision" shape-rendering="geometricPrecision" transform="matrix(1,0,0,1,-344,-23)" stroke="url(#linearGradient33)">
      <path d="M1462 195 L1502 215 L1462 235 L1422 215 Z" stroke="none" clip-path="url(#clipPath2)"/>
    </g>
    <g text-rendering="geometricPrecision" stroke-miterlimit="1.45" shape-rendering="geometricPrecision" transform="matrix(1,0,0,1,-344,-23)" stroke-linecap="butt">
      <path fill="none" d="M1462 195 L1502 215 L1462 235 L1422 215 Z" clip-path="url(#clipPath2)"/>
      <text x="1435.5815" font-size="10px" y="218.4619" clip-path="url(#clipPath2)" font-family="sans-serif" stroke="none" xml:space="preserve">Cont == 0</text>
    </g>
    <g text-rendering="geometricPrecision" stroke-miterlimit="1.45" shape-rendering="geometricPrecision" transform="matrix(1,0,0,1,-344,-23)" stroke-linecap="butt">
      <path fill="none" d="M775 370.9789 L775 550.0106" clip-path="url(#clipPath2)"/>
    </g>
    <g text-rendering="geometricPrecision" stroke-miterlimit="1.45" shape-rendering="geometricPrecision" transform="matrix(1,0,0,1,-344,-23)" stroke-linecap="butt">
      <path d="M775 558.0106 L780 546.0106 L775 549.0106 L770 546.0106 Z" stroke="none" clip-path="url(#clipPath2)"/>
      <text x="764.6904" xml:space="preserve" y="509.6543" clip-path="url(#clipPath2)" font-family="sans-serif" stroke="none">call</text>
      <path fill="none" d="M989.9878 578 L1011.9686 578" clip-path="url(#clipPath2)"/>
      <path d="M1019.9686 578 L1007.9686 573 L1010.9686 578 L1007.9686 583 Z" clip-path="url(#clipPath2)" stroke="none"/>
      <path fill="none" d="M815.033 578 L834.5212 578" clip-path="url(#clipPath2)"/>
      <path d="M842.5212 578 L830.5212 573 L833.5212 578 L830.5212 583 Z" clip-path="url(#clipPath2)" stroke="none"/>
      <path fill="none" d="M882.5378 578 L901.9773 578" clip-path="url(#clipPath2)"/>
      <path d="M909.9773 578 L897.9773 573 L900.9773 578 L897.9773 583 Z" clip-path="url(#clipPath2)" stroke="none"/>
      <path fill="none" d="M626.9775 351 L652.979 351" clip-path="url(#clipPath2)"/>
      <path d="M660.979 351 L648.979 346 L651.979 351 L648.979 356 Z" clip-path="url(#clipPath2)" stroke="none"/>
      <path fill="none" d="M700.9658 351 L726.9825 351" clip-path="url(#clipPath2)"/>
      <path d="M734.9825 351 L722.9825 346 L725.9825 351 L722.9825 356 Z" clip-path="url(#clipPath2)" stroke="none"/>
      <path fill="none" stroke-dasharray="6,2" d="M814.9738 351 L1020.0098 351" clip-path="url(#clipPath2)"/>
      <path fill="none" d="M1060 558.0211 L1060 380.9895" stroke-width="3" clip-path="url(#clipPath2)"/>
      <path d="M1060 370.9895 L1053.75 385.9895 L1060 382.2395 L1066.25 385.9895 Z" stroke-width="3" clip-path="url(#clipPath2)" stroke="none"/>
      <text x="1027.583" xml:space="preserve" y="406.6027" clip-path="url(#clipPath2)" font-family="sans-serif" stroke="none">Go back to</text>
      <text x="1002.748" xml:space="preserve" y="420.5715" clip-path="url(#clipPath2)" font-family="sans-serif" stroke="none">nearest reset point</text>
      <text x="1008.8125" xml:space="preserve" y="434.5402" clip-path="url(#clipPath2)" font-family="sans-serif" stroke="none">on the call stack,</text>
      <text x="1026.4404" xml:space="preserve" y="448.509" clip-path="url(#clipPath2)" font-family="sans-serif" stroke="none">using it up.</text>
      <path fill="none" stroke-dasharray="6,2" d="M1099.9688 578 L1531.9822 578" clip-path="url(#clipPath2)"/>
      <path fill="none" d="M1572 370.9789 L1572 548.0106" stroke-width="3" clip-path="url(#clipPath2)"/>
      <path d="M1572 558.0106 L1578.25 543.0106 L1572 546.7606 L1565.75 543.0106 Z" stroke-width="3" clip-path="url(#clipPath2)" stroke="none"/>
      <text x="1543.0547" xml:space="preserve" y="493.6855" clip-path="url(#clipPath2)" font-family="sans-serif" stroke="none">Use "call"</text>
      <text x="1508.8184" xml:space="preserve" y="507.6543" clip-path="url(#clipPath2)" font-family="sans-serif" stroke="none">isntead of "reset", so</text>
      <text x="1513.8662" xml:space="preserve" y="521.623" clip-path="url(#clipPath2)" font-family="sans-serif" stroke="none">no new reset point.</text>
      <path fill="none" d="M1612.0238 578 L1848.978 578" clip-path="url(#clipPath2)"/>
      <path d="M1856.978 578 L1844.978 573 L1847.978 578 L1844.978 583 Z" clip-path="url(#clipPath2)" stroke="none"/>
      <path fill="none" d="M1897.0317 578 L1924.0043 578" clip-path="url(#clipPath2)" stroke="silver"/>
      <path fill="silver" d="M1932.0043 578 L1920.0043 573 L1923.0043 578 L1920.0043 583 Z" clip-path="url(#clipPath2)" stroke="none"/>
      <path fill="none" d="M587 235.0183 L587 272.5 L587 323.03" clip-path="url(#clipPath2)"/>
      <path d="M587 331.03 L592 319.03 L587 322.03 L582 319.03 Z" clip-path="url(#clipPath2)" stroke="none"/>
      <text x="576.6904" xml:space="preserve" y="298.9121" clip-path="url(#clipPath2)" font-family="sans-serif" stroke="none">call</text>
      <path fill="none" d="M438.9775 215 L464.979 215" clip-path="url(#clipPath2)"/>
      <path d="M472.979 215 L460.979 210 L463.979 215 L460.979 220 Z" clip-path="url(#clipPath2)" stroke="none"/>
      <path fill="none" d="M512.9658 215 L538.9825 215" clip-path="url(#clipPath2)"/>
      <path d="M546.9825 215 L534.9825 210 L537.9825 215 L534.9825 220 Z" clip-path="url(#clipPath2)" stroke="none"/>
      <path fill="none" stroke-dasharray="6,2" d="M627.0152 215 L1177.9974 215" clip-path="url(#clipPath2)"/>
      <path fill="none" d="M1877 598.0112 L1877 635 L775 635 L775 663.9888" clip-path="url(#clipPath2)"/>
      <path d="M775 671.9888 L780 659.9888 L775 662.9888 L770 659.9888 Z" clip-path="url(#clipPath2)" stroke="none"/>
      <path fill="none" d="M1218 671.9988 L1218 244.9993" stroke-width="3" clip-path="url(#clipPath2)"/>
      <path d="M1218 234.9993 L1211.75 249.9993 L1218 246.2493 L1224.25 249.9993 Z" stroke-width="3" clip-path="url(#clipPath2)" stroke="none"/>
      <text x="1185.583" xml:space="preserve" y="279.6855" clip-path="url(#clipPath2)" font-family="sans-serif" stroke="none">Go back to</text>
      <text x="1158.8408" xml:space="preserve" y="293.6543" clip-path="url(#clipPath2)" font-family="sans-serif" stroke="none">nearest reset point,</text>
      <text x="1186.3477" xml:space="preserve" y="307.623" clip-path="url(#clipPath2)" font-family="sans-serif" stroke="none">using it up</text>
      <path fill="none" d="M990.0103 692 L1170.0072 692" clip-path="url(#clipPath2)"/>
      <path d="M1178.0072 692 L1166.0072 687 L1169.0072 692 L1166.0072 697 Z" clip-path="url(#clipPath2)" stroke="none"/>
      <path fill="none" d="M815.033 692 L834.5212 692" clip-path="url(#clipPath2)"/>
      <path d="M842.5212 692 L830.5212 687 L833.5212 692 L830.5212 697 Z" clip-path="url(#clipPath2)" stroke="none"/>
      <path fill="none" d="M882.5378 692 L901.9773 692" clip-path="url(#clipPath2)"/>
      <path d="M909.9773 692 L897.9773 687 L900.9773 692 L897.9773 697 Z" clip-path="url(#clipPath2)" stroke="none"/>
      <path fill="none" stroke-dasharray="6,2" d="M1258.0048 692 L1694.511 692" clip-path="url(#clipPath2)"/>
      <path fill="none" d="M1734.5 235.0012 L1734.5 662.0007" stroke-width="3" clip-path="url(#clipPath2)"/>
      <path d="M1734.5 672.0007 L1740.75 657.0007 L1734.5 660.7507 L1728.25 657.0007 Z" stroke-width="3" clip-path="url(#clipPath2)" stroke="none"/>
      <text x="1705.5547" xml:space="preserve" y="507.6855" clip-path="url(#clipPath2)" font-family="sans-serif" stroke="none">Use "call"</text>
      <text x="1671.3184" xml:space="preserve" y="521.6543" clip-path="url(#clipPath2)" font-family="sans-serif" stroke="none">isntead of "reset", so</text>
      <text x="1676.3662" xml:space="preserve" y="535.623" clip-path="url(#clipPath2)" font-family="sans-serif" stroke="none">no new reset point.</text>
      <path fill="none" d="M1774.4738 692 L1849.0004 692" clip-path="url(#clipPath2)"/>
      <path d="M1857.0004 692 L1845.0004 687 L1848.0004 692 L1845.0004 697 Z" clip-path="url(#clipPath2)" stroke="none"/>
      <path fill="none" d="M1897.0317 692 L1924.0043 692" clip-path="url(#clipPath2)" stroke="silver"/>
      <path fill="silver" d="M1932.0043 692 L1920.0043 687 L1923.0043 692 L1920.0043 697 Z" clip-path="url(#clipPath2)" stroke="none"/>
      <path fill="none" d="M1877 711.9883 L1877 748 L775 748 L775 776.9888" clip-path="url(#clipPath2)"/>
      <path d="M775 784.9888 L780 772.9888 L775 775.9888 L770 772.9888 Z" clip-path="url(#clipPath2)" stroke="none"/>
      <path fill="none" d="M990.0113 805 L1313.0118 805" clip-path="url(#clipPath2)"/>
      <path d="M1321.0118 805 L1309.0118 800 L1312.0118 805 L1309.0118 810 Z" clip-path="url(#clipPath2)" stroke="none"/>
      <path fill="none" d="M815.033 805 L834.5212 805" clip-path="url(#clipPath2)"/>
      <path d="M842.5212 805 L830.5212 800 L833.5212 805 L830.5212 810 Z" clip-path="url(#clipPath2)" stroke="none"/>
      <path fill="none" d="M882.5378 805 L901.9773 805" clip-path="url(#clipPath2)"/>
      <path d="M909.9773 805 L897.9773 800 L900.9773 805 L897.9773 810 Z" clip-path="url(#clipPath2)" stroke="none"/>
      <path fill="none" d="M1361 784.9846 L1361 88.0116" stroke-width="3" clip-path="url(#clipPath2)"/>
      <path d="M1361 78.0116 L1354.75 93.0116 L1361 89.2616 L1367.25 93.0116 Z" stroke-width="3" clip-path="url(#clipPath2)" stroke="none"/>
      <text x="1327.6016" xml:space="preserve" y="113.1387" clip-path="url(#clipPath2)" font-family="sans-serif" stroke="none">There is no</text>
      <text x="1316.7324" xml:space="preserve" y="127.1074" clip-path="url(#clipPath2)" font-family="sans-serif" stroke="none">reset point left</text>
      <text x="1309.8125" xml:space="preserve" y="141.0762" clip-path="url(#clipPath2)" font-family="sans-serif" stroke="none">on the call stack.</text>
      <path fill="none" d="M1099.9939 351 L1414.0078 351" clip-path="url(#clipPath2)"/>
      <path d="M1422.0078 351 L1410.0078 346 L1413.0078 351 L1410.0078 356 Z" clip-path="url(#clipPath2)" stroke="none"/>
      <path fill="none" d="M1462 330.9927 L1462 296 L1923.9921 296" clip-path="url(#clipPath2)" stroke="silver"/>
      <path fill="silver" d="M1931.9921 296 L1919.9921 291 L1922.9921 296 L1919.9921 301 Z" clip-path="url(#clipPath2)" stroke="none"/>
      <text x="1450.7354" xml:space="preserve" y="321.1699" clip-path="url(#clipPath2)" font-family="sans-serif" stroke="none">YES</text>
      <path fill="none" d="M1501.9878 351 L1523.9686 351" clip-path="url(#clipPath2)"/>
      <path d="M1531.9686 351 L1519.9686 346 L1522.9686 351 L1519.9686 356 Z" clip-path="url(#clipPath2)" stroke="none"/>
      <path fill="none" d="M1258.0015 215 L1414.0071 215" clip-path="url(#clipPath2)"/>
      <path d="M1422.0071 215 L1410.0071 210 L1413.0071 215 L1410.0071 220 Z" clip-path="url(#clipPath2)" stroke="none"/>
      <path fill="none" d="M1462 194.9888 L1462 158 L1929.9893 158" clip-path="url(#clipPath2)" stroke="silver"/>
      <path fill="silver" d="M1937.9893 158 L1925.9893 153 L1928.9893 158 L1925.9893 163 Z" clip-path="url(#clipPath2)" stroke="none"/>
      <text x="1450.7354" xml:space="preserve" y="185.1699" clip-path="url(#clipPath2)" font-family="sans-serif" stroke="none">YES</text>
      <path fill="none" d="M1502.0168 215 L1686.5135 215" clip-path="url(#clipPath2)"/>
      <path d="M1694.5135 215 L1682.5135 210 L1685.5135 215 L1682.5135 220 Z" clip-path="url(#clipPath2)" stroke="none"/>
    </g>
  </g>
</svg>
